<svg width="449" height="156" viewBox="0 0 449 156" fill="none" xmlns="http://www.w3.org/2000/svg">
<rect width="449" height="156" fill="white"/>
<path d="M122.218 100H119.747L123.513 89.0909H126.485L130.245 100H127.774L125.041 91.5838H124.956L122.218 100ZM122.064 95.712H127.902V97.5124H122.064V95.712Z" fill="#978545"/>
<path d="M39.8632 94.2699V99H37.594V88.0909H39.7993V92.2617H39.8952C40.0798 91.7788 40.3781 91.4006 40.79 91.1271C41.202 90.8501 41.7187 90.7116 42.3401 90.7116C42.9083 90.7116 43.4037 90.8359 43.8263 91.0845C44.2524 91.3295 44.5827 91.6829 44.817 92.1445C45.055 92.6026 45.1721 93.1513 45.1686 93.7905V99H42.8994V94.1953C42.903 93.6911 42.7751 93.2987 42.5159 93.0181C42.2602 92.7376 41.9015 92.5973 41.4399 92.5973C41.1309 92.5973 40.8575 92.663 40.6196 92.7944C40.3852 92.9258 40.2006 93.1175 40.0656 93.3697C39.9342 93.6183 39.8667 93.9183 39.8632 94.2699ZM48.856 88.0909V89.2415C48.856 89.5682 48.7921 89.902 48.6642 90.2429C48.54 90.5803 48.373 90.8999 48.1635 91.2017C47.954 91.5 47.725 91.7539 47.4764 91.9634L46.475 91.3722C46.6525 91.0916 46.8088 90.7809 46.9437 90.44C47.0822 90.0991 47.1515 89.7031 47.1515 89.2521V88.0909H48.856Z" fill="#4C7477"/>
<path d="M51.1079 94.3977C51.1079 93.1193 51.2694 91.9119 51.5926 90.7756C51.9157 89.6392 52.3792 88.5739 52.9829 87.5795H53.8458C53.5866 87.9986 53.3486 88.4727 53.132 89.0018C52.9189 89.5309 52.7343 90.0955 52.578 90.6957C52.4218 91.2958 52.301 91.9102 52.2158 92.5387C52.1306 93.1637 52.088 93.7834 52.088 94.3977C52.088 95.218 52.1626 96.0455 52.3117 96.88C52.4608 97.7145 52.6668 98.5064 52.9296 99.2557C53.1959 100.005 53.5013 100.658 53.8458 101.216H52.9829C52.3792 100.218 51.9157 99.1509 51.5926 98.0146C51.2694 96.8782 51.1079 95.6726 51.1079 94.3977ZM59.3709 90.8182V91.8835H55.1309V90.8182H59.3709ZM56.3667 88.858H57.6238V96.6562C57.6238 97.0114 57.6752 97.2777 57.7782 97.4553C57.8848 97.6293 58.0197 97.7464 58.1831 97.8068C58.35 97.8636 58.5257 97.892 58.7104 97.892C58.8489 97.892 58.9625 97.8849 59.0513 97.8707C59.1401 97.853 59.2111 97.8388 59.2644 97.8281L59.5201 98.9574C59.4348 98.9893 59.3159 99.0213 59.1632 99.0533C59.0105 99.0888 58.8169 99.1065 58.5826 99.1065C58.2275 99.1065 57.8794 99.0302 57.5385 98.8775C57.2012 98.7248 56.9206 98.4922 56.6969 98.1797C56.4767 97.8672 56.3667 97.473 56.3667 96.9972V88.858ZM63.6642 94.3977C63.6642 95.6761 63.5027 96.8835 63.1795 98.0199C62.8564 99.1562 62.3929 100.222 61.7892 101.216H60.9263C61.1855 100.797 61.4217 100.323 61.6348 99.7937C61.8514 99.2646 62.0378 98.6999 62.1941 98.0998C62.3503 97.4996 62.4711 96.8853 62.5563 96.2567C62.6415 95.6282 62.6841 95.0085 62.6841 94.3977C62.6841 93.5774 62.6096 92.75 62.4604 91.9155C62.3113 91.081 62.1035 90.2891 61.8372 89.5398C61.5744 88.7905 61.2708 88.1371 60.9263 87.5795H61.7892C62.3929 88.5774 62.8564 89.6445 63.1795 90.7809C63.5027 91.9173 63.6642 93.1229 63.6642 94.3977Z" fill="#555555"/>
<path d="M82.3192 93.8118V91.9208H89.6754V93.8118H82.3192ZM82.3192 97.3487V95.4577H89.6754V97.3487H82.3192Z" fill="#505050"/>
<path d="M242.047 98.4087V90.8661H243.953V98.4087H242.047ZM239.229 95.5909V93.6839H246.771V95.5909H239.229Z" fill="#505050"/>
<path d="M165.288 97.2273L165.421 95.1658L163.695 96.3217L162.981 95.0646L164.84 94.1591L162.981 93.2536L163.695 91.9964L165.421 93.1523L165.288 91.0909H166.72L166.582 93.1523L168.308 91.9964L169.022 93.2536L167.168 94.1591L169.022 95.0646L168.308 96.3217L166.582 95.1658L166.72 97.2273H165.288Z" fill="#505050"/>
<path d="M335.288 97.2273L335.421 95.1658L333.695 96.3217L332.981 95.0646L334.84 94.1591L332.981 93.2536L333.695 91.9964L335.421 93.1523L335.288 91.0909H336.72L336.582 93.1523L338.308 91.9964L339.022 93.2536L337.168 94.1591L339.022 95.0646L338.308 96.3217L336.582 95.1658L336.72 97.2273H335.288Z" fill="#505050"/>
<rect x="103.25" y="35.25" width="11.5" height="11.5" fill="#FFF0BA" stroke="#978545" stroke-width="0.5"/>
<rect x="114.25" y="35.25" width="11.5" height="11.5" fill="#FFF0BA" stroke="#978545" stroke-width="0.5"/>
<rect x="125.25" y="35.25" width="11.5" height="11.5" fill="#FFF0BA" stroke="#978545" stroke-width="0.5"/>
<rect x="136.25" y="35.25" width="11.5" height="11.5" fill="#FFF0BA" stroke="#978545" stroke-width="0.5"/>
<rect x="103.25" y="46.25" width="11.5" height="11.5" fill="#FFF0BA" stroke="#978545" stroke-width="0.5"/>
<rect x="114.25" y="46.25" width="11.5" height="11.5" fill="#FFF0BA" stroke="#978545" stroke-width="0.5"/>
<rect x="125.25" y="46.25" width="11.5" height="11.5" fill="#FFF0BA" stroke="#978545" stroke-width="0.5"/>
<rect x="136.25" y="46.25" width="11.5" height="11.5" fill="#FFF0BA" stroke="#978545" stroke-width="0.5"/>
<rect x="103.25" y="57.25" width="11.5" height="11.5" fill="#FFF0BA" stroke="#978545" stroke-width="0.5"/>
<rect x="114.25" y="57.25" width="11.5" height="11.5" fill="#FFF0BA" stroke="#978545" stroke-width="0.5"/>
<rect x="125.25" y="57.25" width="11.5" height="11.5" fill="#FFF0BA" stroke="#978545" stroke-width="0.5"/>
<rect x="136.25" y="57.25" width="11.5" height="11.5" fill="#FFF0BA" stroke="#978545" stroke-width="0.5"/>
<rect x="103.25" y="67.25" width="11.5" height="11.5" fill="#FFF0BA" stroke="#978545" stroke-width="0.5"/>
<rect x="114.25" y="67.25" width="11.5" height="11.5" fill="#FFF0BA" stroke="#978545" stroke-width="0.5"/>
<rect x="125.25" y="67.25" width="11.5" height="11.5" fill="#FFF0BA" stroke="#978545" stroke-width="0.5"/>
<rect x="136.25" y="67.25" width="11.5" height="11.5" fill="#FFF0BA" stroke="#978545" stroke-width="0.5"/>
<rect x="263.25" y="67.25" width="11.5" height="11.5" fill="#BAFFBD" stroke="#4B9745" stroke-width="0.5"/>
<rect x="274.25" y="67.25" width="11.5" height="11.5" fill="#BAFFBD" stroke="#4B9745" stroke-width="0.5"/>
<rect x="285.25" y="67.25" width="11.5" height="11.5" fill="#BAFFBD" stroke="#4B9745" stroke-width="0.5"/>
<rect x="296.25" y="67.25" width="11.5" height="11.5" fill="#BAFFBD" stroke="#4B9745" stroke-width="0.5"/>
<path d="M366 54.3709C366.764 47.4569 370.534 44 377.31 44C387.475 44 388.705 67 400.852 67C410.99 67 413 55.7377 413 54.3709" stroke="#BE3B3B" stroke-width="4" stroke-linecap="round" stroke-linejoin="round"/>
<path d="M377.57 91.8182L379.073 94.6786L380.612 91.8182H382.94L380.569 95.9091L383.004 100H380.687L379.073 97.1715L377.485 100H375.141L377.57 95.9091L375.227 91.8182H377.57Z" fill="#BE3B3B"/>
<path d="M385.028 95.3977C385.028 94.1193 385.189 92.9119 385.513 91.7756C385.836 90.6392 386.299 89.5739 386.903 88.5795H387.766C387.506 88.9986 387.269 89.4727 387.052 90.0018C386.839 90.5309 386.654 91.0955 386.498 91.6957C386.342 92.2958 386.221 92.9102 386.136 93.5387C386.051 94.1637 386.008 94.7834 386.008 95.3977C386.008 96.218 386.082 97.0455 386.232 97.88C386.381 98.7145 386.587 99.5064 386.85 100.256C387.116 101.005 387.421 101.658 387.766 102.216H386.903C386.299 101.218 385.836 100.151 385.513 99.0146C385.189 97.8782 385.028 96.6726 385.028 95.3977ZM393.291 91.8182V92.8835H389.051V91.8182H393.291ZM390.287 89.858H391.544V97.6562C391.544 98.0114 391.595 98.2777 391.698 98.4553C391.805 98.6293 391.94 98.7464 392.103 98.8068C392.27 98.8636 392.446 98.892 392.63 98.892C392.769 98.892 392.882 98.8849 392.971 98.8707C393.06 98.853 393.131 98.8388 393.184 98.8281L393.44 99.9574C393.355 99.9893 393.236 100.021 393.083 100.053C392.93 100.089 392.737 100.107 392.502 100.107C392.147 100.107 391.799 100.03 391.458 99.8775C391.121 99.7248 390.841 99.4922 390.617 99.1797C390.397 98.8672 390.287 98.473 390.287 97.9972V89.858ZM397.584 95.3977C397.584 96.6761 397.423 97.8835 397.099 99.0199C396.776 100.156 396.313 101.222 395.709 102.216H394.846C395.105 101.797 395.342 101.323 395.555 100.794C395.771 100.265 395.958 99.6999 396.114 99.0998C396.27 98.4996 396.391 97.8853 396.476 97.2567C396.561 96.6282 396.604 96.0085 396.604 95.3977C396.604 94.5774 396.529 93.75 396.38 92.9155C396.231 92.081 396.023 91.2891 395.757 90.5398C395.494 89.7905 395.191 89.1371 394.846 88.5795H395.709C396.313 89.5774 396.776 90.6445 397.099 91.7809C397.423 92.9173 397.584 94.1229 397.584 95.3977Z" fill="#555555"/>
<path d="M280.99 100V89.0909H285.358C286.16 89.0909 286.83 89.2099 287.366 89.4478C287.902 89.6857 288.305 90.016 288.575 90.4386C288.845 90.8576 288.98 91.3406 288.98 91.8874C288.98 92.3136 288.894 92.6882 288.724 93.0114C288.554 93.331 288.319 93.5937 288.021 93.7997C287.726 94.0021 287.389 94.146 287.009 94.2312V94.3377C287.424 94.3555 287.813 94.4727 288.175 94.6893C288.541 94.9059 288.838 95.2095 289.065 95.6001C289.292 95.9872 289.406 96.4489 289.406 96.9851C289.406 97.5639 289.262 98.0806 288.974 98.5352C288.69 98.9862 288.269 99.343 287.712 99.6058C287.154 99.8686 286.467 100 285.651 100H280.99ZM283.296 98.1143H285.176C285.819 98.1143 286.288 97.9918 286.583 97.7468C286.877 97.4982 287.025 97.168 287.025 96.756C287.025 96.4542 286.952 96.1879 286.806 95.957C286.661 95.7262 286.453 95.5451 286.183 95.4137C285.917 95.2823 285.599 95.2166 285.23 95.2166H283.296V98.1143ZM283.296 93.6559H285.006C285.322 93.6559 285.603 93.6009 285.848 93.4908C286.096 93.3771 286.292 93.2173 286.434 93.0114C286.579 92.8054 286.652 92.5586 286.652 92.271C286.652 91.8768 286.512 91.5589 286.231 91.3175C285.954 91.076 285.56 90.9553 285.049 90.9553H283.296V93.6559Z" fill="#4B9745"/>
<path d="M197.57 95.2699V100H195.301V89.0909H197.506V93.2617H197.602C197.786 92.7788 198.085 92.4006 198.497 92.1271C198.909 91.8501 199.425 91.7116 200.047 91.7116C200.615 91.7116 201.11 91.8359 201.533 92.0845C201.959 92.3295 202.289 92.6829 202.524 93.1445C202.761 93.6026 202.879 94.1513 202.875 94.7905V100H200.606V95.1953C200.61 94.6911 200.482 94.2987 200.222 94.0181C199.967 93.7376 199.608 93.5973 199.146 93.5973C198.837 93.5973 198.564 93.663 198.326 93.7944C198.092 93.9258 197.907 94.1175 197.772 94.3697C197.641 94.6183 197.573 94.9183 197.57 95.2699Z" fill="#4C7477"/>
<path d="M205.401 95.3977C205.401 94.1193 205.563 92.9119 205.886 91.7756C206.209 90.6392 206.673 89.5739 207.276 88.5795H208.139C207.88 88.9986 207.642 89.4727 207.425 90.0018C207.212 90.5309 207.028 91.0955 206.871 91.6957C206.715 92.2958 206.595 92.9102 206.509 93.5387C206.424 94.1637 206.381 94.7834 206.381 95.3977C206.381 96.218 206.456 97.0455 206.605 97.88C206.754 98.7145 206.96 99.5064 207.223 100.256C207.489 101.005 207.795 101.658 208.139 102.216H207.276C206.673 101.218 206.209 100.151 205.886 99.0146C205.563 97.8782 205.401 96.6726 205.401 95.3977ZM213.664 91.8182V92.8835H209.424V91.8182H213.664ZM210.66 89.858H211.917V97.6562C211.917 98.0114 211.969 98.2777 212.072 98.4553C212.178 98.6293 212.313 98.7464 212.477 98.8068C212.643 98.8636 212.819 98.892 213.004 98.892C213.142 98.892 213.256 98.8849 213.345 98.8707C213.434 98.853 213.505 98.8388 213.558 98.8281L213.814 99.9574C213.728 99.9893 213.609 100.021 213.457 100.053C213.304 100.089 213.11 100.107 212.876 100.107C212.521 100.107 212.173 100.03 211.832 99.8775C211.495 99.7248 211.214 99.4922 210.99 99.1797C210.77 98.8672 210.66 98.473 210.66 97.9972V89.858ZM217.958 95.3977C217.958 96.6761 217.796 97.8835 217.473 99.0199C217.15 100.156 216.686 101.222 216.083 102.216H215.22C215.479 101.797 215.715 101.323 215.928 100.794C216.145 100.265 216.331 99.6999 216.488 99.0998C216.644 98.4996 216.765 97.8853 216.85 97.2567C216.935 96.6282 216.978 96.0085 216.978 95.3977C216.978 94.5774 216.903 93.75 216.754 92.9155C216.605 92.081 216.397 91.2891 216.131 90.5398C215.868 89.7905 215.564 89.1371 215.22 88.5795H216.083C216.686 89.5774 217.15 90.6445 217.473 91.7809C217.796 92.9173 217.958 94.1229 217.958 95.3977Z" fill="#555555"/>
<path d="M304.908 126V118.727H306.446V121.728H309.568V118.727H311.102V126H309.568V122.996H306.446V126H304.908ZM314.805 126.107C314.254 126.107 313.777 125.989 313.374 125.755C312.974 125.518 312.665 125.189 312.448 124.768C312.23 124.344 312.121 123.853 312.121 123.294C312.121 122.731 312.23 122.238 312.448 121.817C312.665 121.393 312.974 121.064 313.374 120.83C313.777 120.593 314.254 120.474 314.805 120.474C315.357 120.474 315.833 120.593 316.233 120.83C316.636 121.064 316.946 121.393 317.163 121.817C317.381 122.238 317.49 122.731 317.49 123.294C317.49 123.853 317.381 124.344 317.163 124.768C316.946 125.189 316.636 125.518 316.233 125.755C315.833 125.989 315.357 126.107 314.805 126.107ZM314.813 124.935C315.064 124.935 315.273 124.864 315.441 124.722C315.609 124.577 315.736 124.381 315.821 124.132C315.909 123.884 315.953 123.601 315.953 123.283C315.953 122.966 315.909 122.683 315.821 122.435C315.736 122.186 315.609 121.99 315.441 121.845C315.273 121.701 315.064 121.629 314.813 121.629C314.559 121.629 314.346 121.701 314.173 121.845C314.003 121.99 313.874 122.186 313.786 122.435C313.701 122.683 313.658 122.966 313.658 123.283C313.658 123.601 313.701 123.884 313.786 124.132C313.874 124.381 314.003 124.577 314.173 124.722C314.346 124.864 314.559 124.935 314.813 124.935ZM319.413 126L317.929 120.545H319.459L320.304 124.21H320.354L321.235 120.545H322.737L323.632 124.189H323.678L324.509 120.545H326.036L324.555 126H322.954L322.016 122.57H321.949L321.011 126H319.413Z" fill="#4B9745"/>
<path d="M332.191 120.545V121.256H329.364V120.545H332.191ZM330.188 119.239H331.026V124.438C331.026 124.674 331.061 124.852 331.129 124.97C331.2 125.086 331.29 125.164 331.399 125.205C331.51 125.242 331.628 125.261 331.751 125.261C331.843 125.261 331.919 125.257 331.978 125.247C332.037 125.235 332.084 125.226 332.12 125.219L332.29 125.972C332.234 125.993 332.154 126.014 332.052 126.036C331.951 126.059 331.822 126.071 331.665 126.071C331.429 126.071 331.197 126.02 330.969 125.918C330.744 125.817 330.557 125.661 330.408 125.453C330.262 125.245 330.188 124.982 330.188 124.665V119.239ZM334.407 122.719V126H333.569V118.727H334.407V121.398H334.478C334.606 121.116 334.797 120.892 335.053 120.727C335.311 120.558 335.655 120.474 336.083 120.474C336.455 120.474 336.78 120.549 337.06 120.698C337.339 120.845 337.556 121.071 337.709 121.376C337.866 121.679 337.944 122.065 337.944 122.534V126H337.106V122.591C337.106 122.158 336.993 121.823 336.768 121.586C336.546 121.347 336.237 121.227 335.842 121.227C335.567 121.227 335.321 121.285 335.103 121.401C334.887 121.517 334.717 121.687 334.592 121.909C334.468 122.132 334.407 122.402 334.407 122.719ZM341.764 126.114C341.238 126.114 340.785 125.998 340.404 125.766C340.025 125.531 339.733 125.205 339.527 124.786C339.323 124.364 339.221 123.874 339.221 123.315C339.221 122.757 339.323 122.264 339.527 121.838C339.733 121.41 340.019 121.076 340.386 120.837C340.755 120.595 341.186 120.474 341.679 120.474C341.963 120.474 342.243 120.522 342.52 120.616C342.797 120.711 343.049 120.865 343.277 121.078C343.504 121.289 343.685 121.568 343.82 121.916C343.955 122.264 344.022 122.693 344.022 123.202V123.557H339.818V122.832H343.17C343.17 122.525 343.109 122.25 342.986 122.009C342.865 121.767 342.692 121.576 342.467 121.437C342.245 121.297 341.982 121.227 341.679 121.227C341.345 121.227 341.056 121.31 340.812 121.476C340.571 121.639 340.385 121.852 340.255 122.115C340.124 122.378 340.059 122.66 340.059 122.96V123.443C340.059 123.855 340.13 124.204 340.272 124.491C340.417 124.775 340.617 124.991 340.873 125.141C341.128 125.287 341.425 125.361 341.764 125.361C341.984 125.361 342.183 125.33 342.361 125.268C342.54 125.205 342.696 125.11 342.826 124.984C342.956 124.857 343.057 124.698 343.128 124.509L343.937 124.736C343.852 125.01 343.709 125.252 343.508 125.46C343.306 125.666 343.058 125.827 342.762 125.943C342.466 126.057 342.133 126.114 341.764 126.114ZM292.617 138V132.545H293.455V138H292.617ZM293.043 131.636C292.879 131.636 292.739 131.581 292.62 131.469C292.504 131.358 292.446 131.224 292.446 131.068C292.446 130.912 292.504 130.778 292.62 130.667C292.739 130.556 292.879 130.5 293.043 130.5C293.206 130.5 293.346 130.556 293.462 130.667C293.58 130.778 293.639 130.912 293.639 131.068C293.639 131.224 293.58 131.358 293.462 131.469C293.346 131.581 293.206 131.636 293.043 131.636ZM295.828 134.719V138H294.99V132.545H295.799V133.398H295.87C295.998 133.121 296.192 132.898 296.453 132.73C296.713 132.56 297.049 132.474 297.461 132.474C297.831 132.474 298.154 132.55 298.431 132.702C298.708 132.851 298.923 133.078 299.077 133.384C299.231 133.687 299.308 134.07 299.308 134.534V138H298.47V134.591C298.47 134.162 298.359 133.829 298.136 133.589C297.913 133.348 297.608 133.227 297.22 133.227C296.952 133.227 296.713 133.285 296.502 133.401C296.294 133.517 296.13 133.687 296.009 133.909C295.888 134.132 295.828 134.402 295.828 134.719ZM303.268 132.545V133.256H300.328V132.545H303.268ZM301.209 138V131.793C301.209 131.48 301.282 131.22 301.429 131.011C301.576 130.803 301.766 130.647 302.001 130.543C302.235 130.438 302.482 130.386 302.743 130.386C302.949 130.386 303.117 130.403 303.247 130.436C303.377 130.469 303.474 130.5 303.538 130.528L303.297 131.253C303.254 131.239 303.195 131.221 303.119 131.2C303.046 131.178 302.949 131.168 302.828 131.168C302.551 131.168 302.351 131.237 302.228 131.377C302.107 131.517 302.047 131.722 302.047 131.991V138H301.209ZM305.281 130.727V138H304.443V130.727H305.281ZM310.253 135.77V132.545H311.091V138H310.253V137.077H310.197C310.069 137.354 309.87 137.589 309.6 137.783C309.33 137.975 308.989 138.071 308.577 138.071C308.236 138.071 307.933 137.996 307.668 137.847C307.403 137.696 307.195 137.469 307.043 137.165C306.892 136.86 306.816 136.475 306.816 136.011V132.545H307.654V135.955C307.654 136.352 307.765 136.67 307.988 136.906C308.213 137.143 308.499 137.261 308.847 137.261C309.055 137.261 309.267 137.208 309.483 137.102C309.701 136.995 309.883 136.832 310.03 136.612C310.179 136.391 310.253 136.111 310.253 135.77ZM314.913 138.114C314.388 138.114 313.934 137.998 313.553 137.766C313.174 137.531 312.882 137.205 312.676 136.786C312.473 136.364 312.371 135.874 312.371 135.315C312.371 134.757 312.473 134.264 312.676 133.838C312.882 133.41 313.169 133.076 313.536 132.837C313.905 132.595 314.336 132.474 314.828 132.474C315.112 132.474 315.393 132.522 315.67 132.616C315.947 132.711 316.199 132.865 316.426 133.078C316.653 133.289 316.835 133.568 316.969 133.916C317.104 134.264 317.172 134.693 317.172 135.202V135.557H312.967V134.832H316.32C316.32 134.525 316.258 134.25 316.135 134.009C316.014 133.767 315.841 133.576 315.616 133.437C315.394 133.297 315.131 133.227 314.828 133.227C314.494 133.227 314.205 133.31 313.962 133.476C313.72 133.639 313.534 133.852 313.404 134.115C313.274 134.378 313.209 134.66 313.209 134.96V135.443C313.209 135.855 313.28 136.204 313.422 136.491C313.566 136.775 313.766 136.991 314.022 137.141C314.278 137.287 314.575 137.361 314.913 137.361C315.134 137.361 315.332 137.33 315.51 137.268C315.69 137.205 315.845 137.11 315.975 136.984C316.105 136.857 316.206 136.698 316.277 136.509L317.087 136.736C317.001 137.01 316.858 137.252 316.657 137.46C316.456 137.666 316.207 137.827 315.911 137.943C315.615 138.057 315.283 138.114 314.913 138.114ZM319.285 134.719V138H318.447V132.545H319.256V133.398H319.327C319.455 133.121 319.649 132.898 319.91 132.73C320.17 132.56 320.506 132.474 320.918 132.474C321.288 132.474 321.611 132.55 321.888 132.702C322.165 132.851 322.38 133.078 322.534 133.384C322.688 133.687 322.765 134.07 322.765 134.534V138H321.927V134.591C321.927 134.162 321.816 133.829 321.593 133.589C321.371 133.348 321.065 133.227 320.677 133.227C320.409 133.227 320.17 133.285 319.96 133.401C319.751 133.517 319.587 133.687 319.466 133.909C319.345 134.132 319.285 134.402 319.285 134.719ZM326.512 138.114C326.001 138.114 325.561 137.993 325.191 137.751C324.822 137.51 324.538 137.177 324.339 136.754C324.14 136.33 324.041 135.846 324.041 135.301C324.041 134.747 324.142 134.258 324.346 133.835C324.552 133.408 324.838 133.076 325.205 132.837C325.575 132.595 326.006 132.474 326.498 132.474C326.882 132.474 327.227 132.545 327.535 132.688C327.843 132.83 328.095 133.028 328.291 133.284C328.488 133.54 328.61 133.838 328.657 134.179H327.819C327.755 133.93 327.613 133.71 327.393 133.518C327.175 133.324 326.882 133.227 326.512 133.227C326.186 133.227 325.899 133.312 325.653 133.483C325.409 133.651 325.218 133.889 325.081 134.197C324.946 134.502 324.879 134.861 324.879 135.273C324.879 135.694 324.945 136.061 325.078 136.374C325.213 136.686 325.402 136.929 325.646 137.102C325.892 137.274 326.181 137.361 326.512 137.361C326.73 137.361 326.928 137.323 327.105 137.247C327.283 137.171 327.433 137.062 327.556 136.92C327.679 136.778 327.767 136.608 327.819 136.409H328.657C328.61 136.731 328.493 137.021 328.306 137.279C328.121 137.535 327.876 137.738 327.57 137.89C327.267 138.039 326.915 138.114 326.512 138.114ZM332.169 138.114C331.644 138.114 331.19 137.998 330.809 137.766C330.43 137.531 330.138 137.205 329.932 136.786C329.728 136.364 329.627 135.874 329.627 135.315C329.627 134.757 329.728 134.264 329.932 133.838C330.138 133.41 330.424 133.076 330.791 132.837C331.161 132.595 331.592 132.474 332.084 132.474C332.368 132.474 332.649 132.522 332.926 132.616C333.203 132.711 333.455 132.865 333.682 133.078C333.909 133.289 334.09 133.568 334.225 133.916C334.36 134.264 334.428 134.693 334.428 135.202V135.557H330.223V134.832H333.575C333.575 134.525 333.514 134.25 333.391 134.009C333.27 133.767 333.097 133.576 332.872 133.437C332.65 133.297 332.387 133.227 332.084 133.227C331.75 133.227 331.461 133.31 331.218 133.476C330.976 133.639 330.79 133.852 330.66 134.115C330.53 134.378 330.465 134.66 330.465 134.96V135.443C330.465 135.855 330.536 136.204 330.678 136.491C330.822 136.775 331.022 136.991 331.278 137.141C331.534 137.287 331.831 137.361 332.169 137.361C332.389 137.361 332.588 137.33 332.766 137.268C332.946 137.205 333.101 137.11 333.231 136.984C333.361 136.857 333.462 136.698 333.533 136.509L334.343 136.736C334.257 137.01 334.114 137.252 333.913 137.46C333.712 137.666 333.463 137.827 333.167 137.943C332.871 138.057 332.539 138.114 332.169 138.114ZM339.566 133.767L338.813 133.98C338.766 133.855 338.696 133.733 338.604 133.614C338.514 133.494 338.391 133.394 338.235 133.316C338.078 133.238 337.878 133.199 337.634 133.199C337.301 133.199 337.022 133.276 336.8 133.43C336.58 133.581 336.47 133.774 336.47 134.009C336.47 134.217 336.545 134.381 336.697 134.502C336.848 134.623 337.085 134.723 337.407 134.804L338.217 135.003C338.704 135.121 339.068 135.302 339.307 135.546C339.546 135.788 339.666 136.099 339.666 136.48C339.666 136.793 339.576 137.072 339.396 137.318C339.218 137.564 338.97 137.759 338.65 137.901C338.33 138.043 337.959 138.114 337.535 138.114C336.979 138.114 336.518 137.993 336.154 137.751C335.789 137.51 335.558 137.157 335.461 136.693L336.257 136.494C336.332 136.788 336.476 137.008 336.686 137.155C336.899 137.302 337.177 137.375 337.521 137.375C337.911 137.375 338.222 137.292 338.451 137.126C338.683 136.958 338.799 136.757 338.799 136.523C338.799 136.333 338.733 136.175 338.6 136.047C338.468 135.917 338.264 135.82 337.99 135.756L337.08 135.543C336.581 135.424 336.214 135.241 335.98 134.992C335.748 134.741 335.632 134.428 335.632 134.051C335.632 133.743 335.718 133.471 335.891 133.234C336.066 132.998 336.304 132.812 336.605 132.677C336.908 132.542 337.251 132.474 337.634 132.474C338.174 132.474 338.598 132.593 338.906 132.83C339.216 133.066 339.436 133.379 339.566 133.767ZM346.112 132.545V133.256H343.285V132.545H346.112ZM344.109 131.239H344.947V136.438C344.947 136.674 344.981 136.852 345.05 136.97C345.121 137.086 345.211 137.164 345.32 137.205C345.431 137.242 345.548 137.261 345.672 137.261C345.764 137.261 345.84 137.257 345.899 137.247C345.958 137.235 346.005 137.226 346.041 137.219L346.211 137.972C346.154 137.993 346.075 138.014 345.973 138.036C345.872 138.059 345.743 138.071 345.586 138.071C345.35 138.071 345.118 138.02 344.89 137.918C344.665 137.817 344.478 137.661 344.329 137.453C344.182 137.245 344.109 136.982 344.109 136.665V131.239ZM348.328 134.719V138H347.49V130.727H348.328V133.398H348.399C348.527 133.116 348.718 132.892 348.974 132.727C349.232 132.558 349.575 132.474 350.004 132.474C350.376 132.474 350.701 132.549 350.98 132.698C351.26 132.845 351.476 133.071 351.63 133.376C351.787 133.679 351.865 134.065 351.865 134.534V138H351.027V134.591C351.027 134.158 350.914 133.823 350.689 133.586C350.467 133.347 350.158 133.227 349.762 133.227C349.488 133.227 349.242 133.285 349.024 133.401C348.808 133.517 348.638 133.687 348.512 133.909C348.389 134.132 348.328 134.402 348.328 134.719ZM355.685 138.114C355.159 138.114 354.706 137.998 354.325 137.766C353.946 137.531 353.654 137.205 353.448 136.786C353.244 136.364 353.142 135.874 353.142 135.315C353.142 134.757 353.244 134.264 353.448 133.838C353.654 133.41 353.94 133.076 354.307 132.837C354.676 132.595 355.107 132.474 355.6 132.474C355.884 132.474 356.164 132.522 356.441 132.616C356.718 132.711 356.97 132.865 357.198 133.078C357.425 133.289 357.606 133.568 357.741 133.916C357.876 134.264 357.943 134.693 357.943 135.202V135.557H353.739V134.832H357.091C357.091 134.525 357.03 134.25 356.906 134.009C356.786 133.767 356.613 133.576 356.388 133.437C356.165 133.297 355.903 133.227 355.6 133.227C355.266 133.227 354.977 133.31 354.733 133.476C354.492 133.639 354.306 133.852 354.176 134.115C354.045 134.378 353.98 134.66 353.98 134.96V135.443C353.98 135.855 354.051 136.204 354.193 136.491C354.338 136.775 354.538 136.991 354.794 137.141C355.049 137.287 355.346 137.361 355.685 137.361C355.905 137.361 356.104 137.33 356.281 137.268C356.461 137.205 356.616 137.11 356.747 136.984C356.877 136.857 356.977 136.698 357.048 136.509L357.858 136.736C357.773 137.01 357.63 137.252 357.428 137.46C357.227 137.666 356.979 137.827 356.683 137.943C356.387 138.057 356.054 138.114 355.685 138.114ZM365.894 133.767L365.142 133.98C365.094 133.855 365.024 133.733 364.932 133.614C364.842 133.494 364.719 133.394 364.563 133.316C364.406 133.238 364.206 133.199 363.963 133.199C363.629 133.199 363.351 133.276 363.128 133.43C362.908 133.581 362.798 133.774 362.798 134.009C362.798 134.217 362.874 134.381 363.025 134.502C363.177 134.623 363.413 134.723 363.735 134.804L364.545 135.003C365.033 135.121 365.396 135.302 365.635 135.546C365.874 135.788 365.994 136.099 365.994 136.48C365.994 136.793 365.904 137.072 365.724 137.318C365.546 137.564 365.298 137.759 364.978 137.901C364.659 138.043 364.287 138.114 363.863 138.114C363.307 138.114 362.846 137.993 362.482 137.751C362.117 137.51 361.886 137.157 361.789 136.693L362.585 136.494C362.66 136.788 362.804 137.008 363.014 137.155C363.227 137.302 363.506 137.375 363.849 137.375C364.24 137.375 364.55 137.292 364.779 137.126C365.011 136.958 365.127 136.757 365.127 136.523C365.127 136.333 365.061 136.175 364.928 136.047C364.796 135.917 364.592 135.82 364.318 135.756L363.409 135.543C362.909 135.424 362.542 135.241 362.308 134.992C362.076 134.741 361.96 134.428 361.96 134.051C361.96 133.743 362.046 133.471 362.219 133.234C362.394 132.998 362.632 132.812 362.933 132.677C363.236 132.542 363.579 132.474 363.963 132.474C364.502 132.474 364.926 132.593 365.234 132.83C365.544 133.066 365.764 133.379 365.894 133.767ZM369.627 132.545V133.256H366.801V132.545H369.627ZM367.625 131.239H368.463V136.438C368.463 136.674 368.497 136.852 368.566 136.97C368.637 137.086 368.727 137.164 368.836 137.205C368.947 137.242 369.064 137.261 369.187 137.261C369.279 137.261 369.355 137.257 369.414 137.247C369.474 137.235 369.521 137.226 369.556 137.219L369.727 137.972C369.67 137.993 369.591 138.014 369.489 138.036C369.387 138.059 369.258 138.071 369.102 138.071C368.865 138.071 368.633 138.02 368.406 137.918C368.181 137.817 367.994 137.661 367.845 137.453C367.698 137.245 367.625 136.982 367.625 136.665V131.239ZM372.493 138.128C372.148 138.128 371.834 138.063 371.552 137.933C371.27 137.8 371.047 137.609 370.881 137.361C370.715 137.11 370.632 136.807 370.632 136.452C370.632 136.139 370.694 135.886 370.817 135.692C370.94 135.495 371.105 135.341 371.311 135.23C371.517 135.119 371.744 135.036 371.993 134.982C372.243 134.925 372.496 134.88 372.749 134.847C373.08 134.804 373.349 134.772 373.555 134.751C373.763 134.727 373.915 134.688 374.01 134.634C374.107 134.579 374.155 134.484 374.155 134.349V134.321C374.155 133.971 374.059 133.698 373.868 133.504C373.678 133.31 373.391 133.213 373.005 133.213C372.605 133.213 372.291 133.301 372.064 133.476C371.836 133.651 371.676 133.838 371.584 134.037L370.789 133.753C370.931 133.421 371.12 133.163 371.357 132.979C371.596 132.792 371.856 132.661 372.138 132.588C372.422 132.512 372.702 132.474 372.976 132.474C373.151 132.474 373.353 132.496 373.58 132.538C373.81 132.579 374.031 132.663 374.244 132.79C374.459 132.918 374.638 133.111 374.78 133.369C374.922 133.627 374.993 133.973 374.993 134.406V138H374.155V137.261H374.113C374.056 137.38 373.961 137.506 373.828 137.641C373.696 137.776 373.52 137.891 373.299 137.986C373.079 138.08 372.81 138.128 372.493 138.128ZM372.621 137.375C372.953 137.375 373.232 137.31 373.459 137.18C373.689 137.049 373.862 136.881 373.978 136.675C374.096 136.469 374.155 136.253 374.155 136.026V135.259C374.12 135.301 374.042 135.34 373.921 135.376C373.802 135.409 373.665 135.438 373.509 135.464C373.355 135.488 373.205 135.509 373.058 135.528C372.913 135.545 372.796 135.559 372.706 135.571C372.489 135.599 372.285 135.646 372.096 135.71C371.908 135.771 371.757 135.865 371.641 135.99C371.527 136.113 371.471 136.281 371.471 136.494C371.471 136.786 371.578 137.006 371.794 137.155C372.011 137.302 372.287 137.375 372.621 137.375ZM378.895 132.545V133.256H376.068V132.545H378.895ZM376.892 131.239H377.73V136.438C377.73 136.674 377.765 136.852 377.833 136.97C377.904 137.086 377.994 137.164 378.103 137.205C378.214 137.242 378.332 137.261 378.455 137.261C378.547 137.261 378.623 137.257 378.682 137.247C378.741 137.235 378.789 137.226 378.824 137.219L378.994 137.972C378.938 137.993 378.858 138.014 378.757 138.036C378.655 138.059 378.526 138.071 378.369 138.071C378.133 138.071 377.901 138.02 377.673 137.918C377.449 137.817 377.262 137.661 377.112 137.453C376.966 137.245 376.892 136.982 376.892 136.665V131.239ZM382.384 138.114C381.858 138.114 381.405 137.998 381.024 137.766C380.645 137.531 380.353 137.205 380.147 136.786C379.943 136.364 379.841 135.874 379.841 135.315C379.841 134.757 379.943 134.264 380.147 133.838C380.353 133.41 380.639 133.076 381.006 132.837C381.376 132.595 381.806 132.474 382.299 132.474C382.583 132.474 382.863 132.522 383.14 132.616C383.417 132.711 383.67 132.865 383.897 133.078C384.124 133.289 384.305 133.568 384.44 133.916C384.575 134.264 384.643 134.693 384.643 135.202V135.557H380.438V134.832H383.79C383.79 134.525 383.729 134.25 383.606 134.009C383.485 133.767 383.312 133.576 383.087 133.437C382.865 133.297 382.602 133.227 382.299 133.227C381.965 133.227 381.676 133.31 381.432 133.476C381.191 133.639 381.005 133.852 380.875 134.115C380.745 134.378 380.68 134.66 380.68 134.96V135.443C380.68 135.855 380.751 136.204 380.893 136.491C381.037 136.775 381.237 136.991 381.493 137.141C381.748 137.287 382.046 137.361 382.384 137.361C382.604 137.361 382.803 137.33 382.981 137.268C383.161 137.205 383.316 137.11 383.446 136.984C383.576 136.857 383.677 136.698 383.748 136.509L384.557 136.736C384.472 137.01 384.329 137.252 384.128 137.46C383.926 137.666 383.678 137.827 383.382 137.943C383.086 138.057 382.753 138.114 382.384 138.114Z" fill="#505050"/>
<path d="M347.946 126V120.545H349.459V126H347.946ZM348.706 119.842C348.482 119.842 348.289 119.768 348.128 119.619C347.969 119.467 347.89 119.286 347.89 119.075C347.89 118.867 347.969 118.688 348.128 118.539C348.289 118.388 348.482 118.312 348.706 118.312C348.931 118.312 349.123 118.388 349.282 118.539C349.443 118.688 349.523 118.867 349.523 119.075C349.523 119.286 349.443 119.467 349.282 119.619C349.123 119.768 348.931 119.842 348.706 119.842ZM352.184 122.847V126H350.671V120.545H352.113V121.508H352.177C352.297 121.191 352.5 120.94 352.784 120.755C353.068 120.568 353.413 120.474 353.817 120.474C354.196 120.474 354.526 120.557 354.808 120.723C355.09 120.889 355.309 121.125 355.465 121.433C355.621 121.739 355.699 122.103 355.699 122.527V126H354.187V122.797C354.189 122.463 354.104 122.203 353.931 122.016C353.758 121.826 353.52 121.732 353.217 121.732C353.014 121.732 352.834 121.775 352.677 121.863C352.524 121.951 352.403 122.078 352.315 122.246C352.23 122.412 352.186 122.612 352.184 122.847ZM356.892 128.045V120.545H358.383V121.462H358.451C358.517 121.315 358.613 121.166 358.738 121.014C358.866 120.86 359.032 120.732 359.236 120.631C359.441 120.527 359.697 120.474 360.003 120.474C360.4 120.474 360.767 120.579 361.103 120.787C361.44 120.993 361.708 121.304 361.91 121.721C362.111 122.135 362.211 122.655 362.211 123.28C362.211 123.888 362.113 124.402 361.917 124.821C361.723 125.238 361.457 125.554 361.121 125.769C360.787 125.982 360.413 126.089 359.999 126.089C359.705 126.089 359.456 126.04 359.25 125.943C359.046 125.846 358.879 125.724 358.749 125.577C358.619 125.428 358.519 125.278 358.451 125.126H358.405V128.045H356.892ZM358.373 123.273C358.373 123.597 358.418 123.88 358.508 124.121C358.598 124.363 358.728 124.551 358.898 124.686C359.069 124.819 359.276 124.885 359.52 124.885C359.766 124.885 359.974 124.817 360.145 124.683C360.315 124.545 360.444 124.356 360.532 124.114C360.622 123.871 360.667 123.59 360.667 123.273C360.667 122.958 360.623 122.681 360.535 122.442C360.448 122.203 360.319 122.016 360.148 121.881C359.978 121.746 359.768 121.678 359.52 121.678C359.273 121.678 359.065 121.743 358.895 121.874C358.727 122.004 358.598 122.188 358.508 122.428C358.418 122.667 358.373 122.948 358.373 123.273ZM366.718 123.678V120.545H368.231V126H366.778V125.009H366.721C366.598 125.329 366.393 125.586 366.107 125.78C365.823 125.974 365.476 126.071 365.066 126.071C364.702 126.071 364.381 125.988 364.104 125.822C363.827 125.657 363.611 125.421 363.454 125.116C363.3 124.81 363.222 124.445 363.22 124.018V120.545H364.733V123.749C364.735 124.071 364.821 124.325 364.992 124.512C365.162 124.699 365.391 124.793 365.677 124.793C365.86 124.793 366.03 124.751 366.189 124.668C366.347 124.583 366.475 124.458 366.572 124.292C366.672 124.126 366.72 123.921 366.718 123.678ZM372.342 120.545V121.682H369.057V120.545H372.342ZM369.803 119.239H371.316V124.324C371.316 124.464 371.337 124.572 371.38 124.651C371.422 124.726 371.481 124.78 371.557 124.81C371.635 124.841 371.725 124.857 371.827 124.857C371.898 124.857 371.969 124.851 372.04 124.839C372.111 124.825 372.166 124.814 372.203 124.807L372.441 125.933C372.366 125.956 372.259 125.983 372.122 126.014C371.984 126.047 371.818 126.067 371.621 126.075C371.256 126.089 370.937 126.04 370.662 125.929C370.39 125.818 370.178 125.645 370.027 125.411C369.875 125.176 369.8 124.88 369.803 124.523V119.239Z" fill="#BE3B3B"/>
<line x1="256.5" y1="112" x2="256.5" y2="92" stroke="#505050" stroke-dasharray="2 2"/>
<line x1="419" y1="113.5" x2="257" y2="113.5" stroke="#505050" stroke-dasharray="2 2"/>
<line x1="419.5" y1="92" x2="419.5" y2="112" stroke="#505050" stroke-dasharray="2 2"/>
<path d="M123.047 126V118.727H124.585V121.728H127.706V118.727H129.24V126H127.706V122.996H124.585V126H123.047ZM132.944 126.107C132.393 126.107 131.916 125.989 131.513 125.755C131.113 125.518 130.804 125.189 130.586 124.768C130.368 124.344 130.259 123.853 130.259 123.294C130.259 122.731 130.368 122.238 130.586 121.817C130.804 121.393 131.113 121.064 131.513 120.83C131.916 120.593 132.393 120.474 132.944 120.474C133.496 120.474 133.972 120.593 134.372 120.83C134.774 121.064 135.084 121.393 135.302 121.817C135.52 122.238 135.629 122.731 135.629 123.294C135.629 123.853 135.52 124.344 135.302 124.768C135.084 125.189 134.774 125.518 134.372 125.755C133.972 125.989 133.496 126.107 132.944 126.107ZM132.951 124.935C133.202 124.935 133.412 124.864 133.58 124.722C133.748 124.577 133.875 124.381 133.96 124.132C134.047 123.884 134.091 123.601 134.091 123.283C134.091 122.966 134.047 122.683 133.96 122.435C133.875 122.186 133.748 121.99 133.58 121.845C133.412 121.701 133.202 121.629 132.951 121.629C132.698 121.629 132.485 121.701 132.312 121.845C132.142 121.99 132.013 122.186 131.925 122.435C131.84 122.683 131.797 122.966 131.797 123.283C131.797 123.601 131.84 123.884 131.925 124.132C132.013 124.381 132.142 124.577 132.312 124.722C132.485 124.864 132.698 124.935 132.951 124.935ZM137.552 126L136.067 120.545H137.598L138.443 124.21H138.493L139.373 120.545H140.876L141.771 124.189H141.817L142.648 120.545H144.175L142.694 126H141.092L140.155 122.57H140.087L139.15 126H137.552Z" fill="#978545"/>
<path d="M150.33 120.545V121.256H147.503V120.545H150.33ZM148.327 119.239H149.165V124.438C149.165 124.674 149.199 124.852 149.268 124.97C149.339 125.086 149.429 125.164 149.538 125.205C149.649 125.242 149.766 125.261 149.889 125.261C149.982 125.261 150.057 125.257 150.117 125.247C150.176 125.235 150.223 125.226 150.259 125.219L150.429 125.972C150.372 125.993 150.293 126.014 150.191 126.036C150.089 126.059 149.96 126.071 149.804 126.071C149.567 126.071 149.335 126.02 149.108 125.918C148.883 125.817 148.696 125.661 148.547 125.453C148.4 125.245 148.327 124.982 148.327 124.665V119.239ZM152.546 122.719V126H151.707V118.727H152.546V121.398H152.617C152.744 121.116 152.936 120.892 153.192 120.727C153.45 120.558 153.793 120.474 154.222 120.474C154.593 120.474 154.919 120.549 155.198 120.698C155.478 120.845 155.694 121.071 155.848 121.376C156.004 121.679 156.082 122.065 156.082 122.534V126H155.244V122.591C155.244 122.158 155.132 121.823 154.907 121.586C154.685 121.347 154.376 121.227 153.98 121.227C153.706 121.227 153.459 121.285 153.242 121.401C153.026 121.517 152.856 121.687 152.73 121.909C152.607 122.132 152.546 122.402 152.546 122.719ZM159.903 126.114C159.377 126.114 158.924 125.998 158.543 125.766C158.164 125.531 157.871 125.205 157.665 124.786C157.462 124.364 157.36 123.874 157.36 123.315C157.36 122.757 157.462 122.264 157.665 121.838C157.871 121.41 158.158 121.076 158.525 120.837C158.894 120.595 159.325 120.474 159.817 120.474C160.101 120.474 160.382 120.522 160.659 120.616C160.936 120.711 161.188 120.865 161.415 121.078C161.643 121.289 161.824 121.568 161.959 121.916C162.094 122.264 162.161 122.693 162.161 123.202V123.557H157.957V122.832H161.309C161.309 122.525 161.247 122.25 161.124 122.009C161.003 121.767 160.831 121.576 160.606 121.437C160.383 121.297 160.12 121.227 159.817 121.227C159.484 121.227 159.195 121.31 158.951 121.476C158.709 121.639 158.524 121.852 158.393 122.115C158.263 122.378 158.198 122.66 158.198 122.96V123.443C158.198 123.855 158.269 124.204 158.411 124.491C158.556 124.775 158.756 124.991 159.011 125.141C159.267 125.287 159.564 125.361 159.903 125.361C160.123 125.361 160.322 125.33 160.499 125.268C160.679 125.205 160.834 125.11 160.964 124.984C161.095 124.857 161.195 124.698 161.266 124.509L162.076 124.736C161.991 125.01 161.847 125.252 161.646 125.46C161.445 125.666 161.196 125.827 160.9 125.943C160.605 126.057 160.272 126.114 159.903 126.114ZM149.375 138.114C148.85 138.114 148.396 137.998 148.015 137.766C147.636 137.531 147.344 137.205 147.138 136.786C146.934 136.364 146.833 135.874 146.833 135.315C146.833 134.757 146.934 134.264 147.138 133.838C147.344 133.41 147.63 133.076 147.997 132.837C148.367 132.595 148.798 132.474 149.29 132.474C149.574 132.474 149.855 132.522 150.132 132.616C150.409 132.711 150.661 132.865 150.888 133.078C151.115 133.289 151.296 133.568 151.431 133.916C151.566 134.264 151.634 134.693 151.634 135.202V135.557H147.429V134.832H150.782C150.782 134.525 150.72 134.25 150.597 134.009C150.476 133.767 150.303 133.576 150.078 133.437C149.856 133.297 149.593 133.227 149.29 133.227C148.956 133.227 148.667 133.31 148.424 133.476C148.182 133.639 147.996 133.852 147.866 134.115C147.736 134.378 147.671 134.66 147.671 134.96V135.443C147.671 135.855 147.742 136.204 147.884 136.491C148.028 136.775 148.228 136.991 148.484 137.141C148.74 137.287 149.037 137.361 149.375 137.361C149.595 137.361 149.794 137.33 149.972 137.268C150.152 137.205 150.307 137.11 150.437 136.984C150.567 136.857 150.668 136.698 150.739 136.509L151.549 136.736C151.463 137.01 151.32 137.252 151.119 137.46C150.918 137.666 150.669 137.827 150.373 137.943C150.077 138.057 149.745 138.114 149.375 138.114ZM157.203 132.545L155.186 138H154.334L152.316 132.545H153.226L154.731 136.892H154.788L156.294 132.545H157.203ZM160.33 138.114C159.837 138.114 159.405 137.996 159.033 137.762C158.664 137.528 158.375 137.2 158.167 136.778C157.961 136.357 157.858 135.865 157.858 135.301C157.858 134.733 157.961 134.237 158.167 133.813C158.375 133.389 158.664 133.06 159.033 132.826C159.405 132.592 159.837 132.474 160.33 132.474C160.822 132.474 161.253 132.592 161.622 132.826C161.994 133.06 162.283 133.389 162.489 133.813C162.697 134.237 162.801 134.733 162.801 135.301C162.801 135.865 162.697 136.357 162.489 136.778C162.283 137.2 161.994 137.528 161.622 137.762C161.253 137.996 160.822 138.114 160.33 138.114ZM160.33 137.361C160.704 137.361 161.011 137.265 161.253 137.073C161.494 136.881 161.673 136.629 161.789 136.317C161.905 136.004 161.963 135.666 161.963 135.301C161.963 134.937 161.905 134.597 161.789 134.282C161.673 133.967 161.494 133.713 161.253 133.518C161.011 133.324 160.704 133.227 160.33 133.227C159.956 133.227 159.648 133.324 159.406 133.518C159.165 133.713 158.986 133.967 158.87 134.282C158.754 134.597 158.696 134.937 158.696 135.301C158.696 135.666 158.754 136.004 158.87 136.317C158.986 136.629 159.165 136.881 159.406 137.073C159.648 137.265 159.956 137.361 160.33 137.361ZM164.919 130.727V138H164.081V130.727H164.919ZM170.914 132.545L168.897 138H168.044L166.027 132.545H166.937L168.442 136.892H168.499L170.005 132.545H170.914ZM174.112 138.114C173.586 138.114 173.133 137.998 172.752 137.766C172.373 137.531 172.08 137.205 171.874 136.786C171.671 136.364 171.569 135.874 171.569 135.315C171.569 134.757 171.671 134.264 171.874 133.838C172.08 133.41 172.367 133.076 172.734 132.837C173.103 132.595 173.534 132.474 174.026 132.474C174.31 132.474 174.591 132.522 174.868 132.616C175.145 132.711 175.397 132.865 175.624 133.078C175.852 133.289 176.033 133.568 176.168 133.916C176.303 134.264 176.37 134.693 176.37 135.202V135.557H172.166V134.832H175.518C175.518 134.525 175.456 134.25 175.333 134.009C175.212 133.767 175.04 133.576 174.815 133.437C174.592 133.297 174.329 133.227 174.026 133.227C173.693 133.227 173.404 133.31 173.16 133.476C172.918 133.639 172.733 133.852 172.602 134.115C172.472 134.378 172.407 134.66 172.407 134.96V135.443C172.407 135.855 172.478 136.204 172.62 136.491C172.765 136.775 172.965 136.991 173.22 137.141C173.476 137.287 173.773 137.361 174.112 137.361C174.332 137.361 174.531 137.33 174.708 137.268C174.888 137.205 175.043 137.11 175.173 136.984C175.304 136.857 175.404 136.698 175.475 136.509L176.285 136.736C176.2 137.01 176.056 137.252 175.855 137.46C175.654 137.666 175.405 137.827 175.109 137.943C174.814 138.057 174.481 138.114 174.112 138.114ZM181.509 133.767L180.756 133.98C180.708 133.855 180.639 133.733 180.546 133.614C180.456 133.494 180.333 133.394 180.177 133.316C180.021 133.238 179.821 133.199 179.577 133.199C179.243 133.199 178.965 133.276 178.742 133.43C178.522 133.581 178.412 133.774 178.412 134.009C178.412 134.217 178.488 134.381 178.639 134.502C178.791 134.623 179.028 134.723 179.35 134.804L180.159 135.003C180.647 135.121 181.01 135.302 181.249 135.546C181.488 135.788 181.608 136.099 181.608 136.48C181.608 136.793 181.518 137.072 181.338 137.318C181.161 137.564 180.912 137.759 180.592 137.901C180.273 138.043 179.901 138.114 179.477 138.114C178.921 138.114 178.461 137.993 178.096 137.751C177.731 137.51 177.501 137.157 177.403 136.693L178.199 136.494C178.275 136.788 178.418 137.008 178.629 137.155C178.842 137.302 179.12 137.375 179.463 137.375C179.854 137.375 180.164 137.292 180.394 137.126C180.626 136.958 180.742 136.757 180.742 136.523C180.742 136.333 180.675 136.175 180.543 136.047C180.41 135.917 180.207 135.82 179.932 135.756L179.023 135.543C178.523 135.424 178.156 135.241 177.922 134.992C177.69 134.741 177.574 134.428 177.574 134.051C177.574 133.743 177.66 133.471 177.833 133.234C178.008 132.998 178.246 132.812 178.547 132.677C178.85 132.542 179.193 132.474 179.577 132.474C180.117 132.474 180.54 132.593 180.848 132.83C181.158 133.066 181.378 133.379 181.509 133.767ZM187.898 138.114C187.406 138.114 186.974 137.996 186.602 137.762C186.233 137.528 185.944 137.2 185.735 136.778C185.529 136.357 185.426 135.865 185.426 135.301C185.426 134.733 185.529 134.237 185.735 133.813C185.944 133.389 186.233 133.06 186.602 132.826C186.974 132.592 187.406 132.474 187.898 132.474C188.39 132.474 188.821 132.592 189.191 132.826C189.562 133.06 189.851 133.389 190.057 133.813C190.265 134.237 190.37 134.733 190.37 135.301C190.37 135.865 190.265 136.357 190.057 136.778C189.851 137.2 189.562 137.528 189.191 137.762C188.821 137.996 188.39 138.114 187.898 138.114ZM187.898 137.361C188.272 137.361 188.58 137.265 188.821 137.073C189.063 136.881 189.242 136.629 189.358 136.317C189.474 136.004 189.532 135.666 189.532 135.301C189.532 134.937 189.474 134.597 189.358 134.282C189.242 133.967 189.063 133.713 188.821 133.518C188.58 133.324 188.272 133.227 187.898 133.227C187.524 133.227 187.216 133.324 186.975 133.518C186.733 133.713 186.554 133.967 186.438 134.282C186.322 134.597 186.264 134.937 186.264 135.301C186.264 135.666 186.322 136.004 186.438 136.317C186.554 136.629 186.733 136.881 186.975 137.073C187.216 137.265 187.524 137.361 187.898 137.361ZM195.914 132.545L193.897 138H193.044L191.027 132.545H191.937L193.442 136.892H193.499L195.005 132.545H195.914ZM199.112 138.114C198.586 138.114 198.133 137.998 197.752 137.766C197.373 137.531 197.08 137.205 196.874 136.786C196.671 136.364 196.569 135.874 196.569 135.315C196.569 134.757 196.671 134.264 196.874 133.838C197.08 133.41 197.367 133.076 197.734 132.837C198.103 132.595 198.534 132.474 199.026 132.474C199.31 132.474 199.591 132.522 199.868 132.616C200.145 132.711 200.397 132.865 200.624 133.078C200.852 133.289 201.033 133.568 201.168 133.916C201.303 134.264 201.37 134.693 201.37 135.202V135.557H197.166V134.832H200.518C200.518 134.525 200.456 134.25 200.333 134.009C200.212 133.767 200.04 133.576 199.815 133.437C199.592 133.297 199.329 133.227 199.026 133.227C198.693 133.227 198.404 133.31 198.16 133.476C197.918 133.639 197.733 133.852 197.602 134.115C197.472 134.378 197.407 134.66 197.407 134.96V135.443C197.407 135.855 197.478 136.204 197.62 136.491C197.765 136.775 197.965 136.991 198.22 137.141C198.476 137.287 198.773 137.361 199.112 137.361C199.332 137.361 199.531 137.33 199.708 137.268C199.888 137.205 200.043 137.11 200.173 136.984C200.304 136.857 200.404 136.698 200.475 136.509L201.285 136.736C201.2 137.01 201.056 137.252 200.855 137.46C200.654 137.666 200.405 137.827 200.109 137.943C199.814 138.057 199.481 138.114 199.112 138.114ZM202.645 138V132.545H203.455V133.369H203.511C203.611 133.099 203.791 132.88 204.051 132.712C204.312 132.544 204.605 132.46 204.932 132.46C204.993 132.46 205.07 132.461 205.163 132.464C205.255 132.466 205.325 132.47 205.372 132.474V133.327C205.344 133.32 205.279 133.309 205.177 133.295C205.078 133.278 204.972 133.27 204.861 133.27C204.596 133.27 204.359 133.326 204.151 133.437C203.945 133.546 203.781 133.697 203.661 133.891C203.542 134.083 203.483 134.302 203.483 134.548V138H202.645ZM154.88 144.545V145.256H152.054V144.545H154.88ZM152.878 143.239H153.716V148.438C153.716 148.674 153.75 148.852 153.819 148.97C153.89 149.086 153.98 149.164 154.089 149.205C154.2 149.242 154.317 149.261 154.44 149.261C154.532 149.261 154.608 149.257 154.667 149.247C154.727 149.235 154.774 149.226 154.809 149.219L154.98 149.972C154.923 149.993 154.844 150.014 154.742 150.036C154.64 150.059 154.511 150.071 154.355 150.071C154.118 150.071 153.886 150.02 153.659 149.918C153.434 149.817 153.247 149.661 153.098 149.453C152.951 149.245 152.878 148.982 152.878 148.665V143.239ZM156.141 150V144.545H156.979V150H156.141ZM156.567 143.636C156.404 143.636 156.263 143.581 156.145 143.469C156.029 143.358 155.971 143.224 155.971 143.068C155.971 142.912 156.029 142.778 156.145 142.667C156.263 142.556 156.404 142.5 156.567 142.5C156.731 142.5 156.87 142.556 156.986 142.667C157.105 142.778 157.164 142.912 157.164 143.068C157.164 143.224 157.105 143.358 156.986 143.469C156.87 143.581 156.731 143.636 156.567 143.636ZM158.514 150V144.545H159.324V145.398H159.395C159.508 145.107 159.692 144.88 159.945 144.719C160.199 144.556 160.503 144.474 160.858 144.474C161.218 144.474 161.517 144.556 161.756 144.719C161.998 144.88 162.186 145.107 162.321 145.398H162.378C162.517 145.116 162.727 144.892 163.006 144.727C163.286 144.558 163.621 144.474 164.011 144.474C164.499 144.474 164.898 144.627 165.208 144.933C165.518 145.236 165.673 145.708 165.673 146.349V150H164.835V146.349C164.835 145.947 164.725 145.659 164.505 145.487C164.285 145.314 164.025 145.227 163.727 145.227C163.344 145.227 163.047 145.343 162.836 145.575C162.625 145.805 162.52 146.096 162.52 146.449V150H161.668V146.264C161.668 145.954 161.567 145.704 161.366 145.515C161.164 145.323 160.905 145.227 160.588 145.227C160.37 145.227 160.167 145.285 159.977 145.401C159.79 145.517 159.639 145.678 159.523 145.884C159.409 146.088 159.352 146.323 159.352 146.591V150H158.514ZM169.492 150.114C168.967 150.114 168.514 149.998 168.132 149.766C167.754 149.531 167.461 149.205 167.255 148.786C167.052 148.364 166.95 147.874 166.95 147.315C166.95 146.757 167.052 146.264 167.255 145.838C167.461 145.41 167.748 145.076 168.115 144.837C168.484 144.595 168.915 144.474 169.407 144.474C169.691 144.474 169.972 144.522 170.249 144.616C170.526 144.711 170.778 144.865 171.005 145.078C171.233 145.289 171.414 145.568 171.549 145.916C171.684 146.264 171.751 146.693 171.751 147.202V147.557H167.546V146.832H170.899C170.899 146.525 170.837 146.25 170.714 146.009C170.593 145.767 170.42 145.576 170.196 145.437C169.973 145.297 169.71 145.227 169.407 145.227C169.073 145.227 168.785 145.31 168.541 145.476C168.299 145.639 168.113 145.852 167.983 146.115C167.853 146.378 167.788 146.66 167.788 146.96V147.443C167.788 147.855 167.859 148.204 168.001 148.491C168.145 148.775 168.345 148.991 168.601 149.141C168.857 149.287 169.154 149.361 169.492 149.361C169.713 149.361 169.911 149.33 170.089 149.268C170.269 149.205 170.424 149.11 170.554 148.984C170.684 148.857 170.785 148.698 170.856 148.509L171.666 148.736C171.581 149.01 171.437 149.252 171.236 149.46C171.035 149.666 170.786 149.827 170.49 149.943C170.194 150.057 169.862 150.114 169.492 150.114Z" fill="#505050"/>
<path d="M168.55 126.107C167.991 126.107 167.51 125.988 167.108 125.751C166.708 125.512 166.4 125.181 166.185 124.757C165.972 124.333 165.865 123.846 165.865 123.294C165.865 122.735 165.973 122.245 166.188 121.824C166.406 121.4 166.715 121.07 167.115 120.833C167.515 120.594 167.991 120.474 168.543 120.474C169.018 120.474 169.435 120.561 169.793 120.734C170.15 120.906 170.433 121.149 170.641 121.462C170.85 121.774 170.964 122.141 170.986 122.562H169.558C169.518 122.29 169.411 122.071 169.239 121.906C169.068 121.737 168.844 121.653 168.567 121.653C168.333 121.653 168.128 121.717 167.953 121.845C167.78 121.971 167.645 122.154 167.548 122.396C167.451 122.637 167.403 122.929 167.403 123.273C167.403 123.621 167.45 123.917 167.545 124.161C167.642 124.404 167.778 124.59 167.953 124.718C168.128 124.846 168.333 124.91 168.567 124.91C168.74 124.91 168.895 124.874 169.033 124.803C169.172 124.732 169.287 124.629 169.377 124.494C169.469 124.357 169.53 124.192 169.558 124.001H170.986C170.962 124.417 170.848 124.784 170.645 125.102C170.444 125.416 170.165 125.663 169.81 125.84C169.455 126.018 169.035 126.107 168.55 126.107ZM175.452 123.678V120.545H176.965V126H175.513V125.009H175.456C175.333 125.329 175.128 125.586 174.841 125.78C174.557 125.974 174.21 126.071 173.801 126.071C173.436 126.071 173.116 125.988 172.839 125.822C172.562 125.657 172.345 125.421 172.189 125.116C172.035 124.81 171.957 124.445 171.954 124.018V120.545H173.467V123.749C173.469 124.071 173.556 124.325 173.726 124.512C173.897 124.699 174.125 124.793 174.412 124.793C174.594 124.793 174.764 124.751 174.923 124.668C175.082 124.583 175.209 124.458 175.307 124.292C175.406 124.126 175.455 123.921 175.452 123.678ZM178.175 126V120.545H179.642V121.497H179.698C179.798 121.159 179.965 120.903 180.199 120.73C180.434 120.555 180.703 120.467 181.009 120.467C181.085 120.467 181.166 120.472 181.254 120.482C181.341 120.491 181.418 120.504 181.485 120.521V121.863C181.414 121.842 181.315 121.823 181.19 121.806C181.064 121.79 180.95 121.781 180.845 121.781C180.623 121.781 180.424 121.83 180.249 121.927C180.076 122.022 179.939 122.154 179.837 122.325C179.737 122.495 179.688 122.692 179.688 122.914V126H178.175ZM182.267 126V120.545H183.733V121.497H183.79C183.89 121.159 184.057 120.903 184.291 120.73C184.525 120.555 184.795 120.467 185.101 120.467C185.176 120.467 185.258 120.472 185.346 120.482C185.433 120.491 185.51 120.504 185.576 120.521V121.863C185.505 121.842 185.407 121.823 185.282 121.806C185.156 121.79 185.041 121.781 184.937 121.781C184.715 121.781 184.516 121.83 184.341 121.927C184.168 122.022 184.031 122.154 183.929 122.325C183.829 122.495 183.78 122.692 183.78 122.914V126H182.267ZM188.59 126.107C188.029 126.107 187.546 125.993 187.142 125.766C186.739 125.536 186.429 125.212 186.211 124.793C185.993 124.371 185.884 123.873 185.884 123.298C185.884 122.737 185.993 122.244 186.211 121.82C186.429 121.397 186.736 121.066 187.131 120.83C187.529 120.593 187.995 120.474 188.53 120.474C188.89 120.474 189.225 120.532 189.535 120.648C189.848 120.762 190.12 120.934 190.352 121.163C190.586 121.393 190.768 121.682 190.899 122.03C191.029 122.375 191.094 122.78 191.094 123.244V123.66H186.488V122.722H189.67C189.67 122.504 189.623 122.312 189.528 122.143C189.433 121.975 189.302 121.844 189.134 121.749C188.968 121.652 188.775 121.604 188.555 121.604C188.325 121.604 188.122 121.657 187.944 121.763C187.769 121.868 187.632 122.009 187.532 122.186C187.433 122.361 187.382 122.557 187.38 122.772V123.663C187.38 123.933 187.429 124.166 187.529 124.363C187.63 124.559 187.774 124.711 187.958 124.817C188.143 124.924 188.362 124.977 188.615 124.977C188.783 124.977 188.937 124.954 189.077 124.906C189.217 124.859 189.336 124.788 189.436 124.693C189.535 124.598 189.611 124.482 189.663 124.345L191.062 124.438C190.991 124.774 190.845 125.067 190.625 125.318C190.407 125.567 190.126 125.761 189.78 125.901C189.437 126.038 189.04 126.107 188.59 126.107ZM193.594 122.847V126H192.081V120.545H193.523V121.508H193.587C193.708 121.191 193.91 120.94 194.194 120.755C194.478 120.568 194.823 120.474 195.228 120.474C195.606 120.474 195.937 120.557 196.218 120.723C196.5 120.889 196.719 121.125 196.875 121.433C197.032 121.739 197.11 122.103 197.11 122.527V126H195.597V122.797C195.599 122.463 195.514 122.203 195.341 122.016C195.168 121.826 194.93 121.732 194.627 121.732C194.424 121.732 194.244 121.775 194.088 121.863C193.934 121.951 193.813 122.078 193.725 122.246C193.64 122.412 193.596 122.612 193.594 122.847ZM201.203 120.545V121.682H197.918V120.545H201.203ZM198.664 119.239H200.177V124.324C200.177 124.464 200.198 124.572 200.241 124.651C200.283 124.726 200.343 124.78 200.418 124.81C200.497 124.841 200.586 124.857 200.688 124.857C200.759 124.857 200.83 124.851 200.901 124.839C200.972 124.825 201.027 124.814 201.065 124.807L201.303 125.933C201.227 125.956 201.12 125.983 200.983 126.014C200.846 126.047 200.679 126.067 200.482 126.075C200.118 126.089 199.798 126.04 199.524 125.929C199.251 125.818 199.039 125.645 198.888 125.411C198.736 125.176 198.662 124.88 198.664 124.523V119.239ZM123.543 134.101L122.158 134.186C122.135 134.068 122.084 133.961 122.006 133.866C121.928 133.769 121.825 133.692 121.697 133.636C121.571 133.576 121.421 133.547 121.246 133.547C121.011 133.547 120.814 133.597 120.653 133.696C120.492 133.793 120.411 133.923 120.411 134.087C120.411 134.217 120.463 134.327 120.568 134.417C120.672 134.507 120.85 134.579 121.104 134.634L122.091 134.832C122.621 134.941 123.017 135.116 123.277 135.358C123.537 135.599 123.668 135.917 123.668 136.31C123.668 136.667 123.562 136.981 123.352 137.251C123.143 137.521 122.857 137.731 122.492 137.883C122.13 138.032 121.712 138.107 121.239 138.107C120.517 138.107 119.941 137.956 119.513 137.656C119.087 137.353 118.837 136.941 118.764 136.42L120.252 136.342C120.296 136.562 120.405 136.73 120.578 136.846C120.751 136.96 120.972 137.016 121.242 137.016C121.507 137.016 121.72 136.965 121.881 136.864C122.045 136.759 122.128 136.626 122.13 136.462C122.128 136.325 122.07 136.213 121.956 136.125C121.842 136.035 121.667 135.966 121.43 135.919L120.486 135.731C119.953 135.624 119.557 135.44 119.296 135.177C119.038 134.914 118.909 134.579 118.909 134.172C118.909 133.821 119.004 133.52 119.193 133.266C119.385 133.013 119.654 132.818 119.999 132.68C120.347 132.543 120.755 132.474 121.221 132.474C121.91 132.474 122.452 132.62 122.847 132.911C123.245 133.202 123.477 133.599 123.543 134.101ZM127.522 132.545V133.682H124.237V132.545H127.522ZM124.983 131.239H126.495V136.324C126.495 136.464 126.517 136.572 126.559 136.651C126.602 136.726 126.661 136.78 126.737 136.81C126.815 136.841 126.905 136.857 127.007 136.857C127.078 136.857 127.149 136.851 127.22 136.839C127.291 136.825 127.345 136.814 127.383 136.807L127.621 137.933C127.545 137.956 127.439 137.983 127.301 138.014C127.164 138.047 126.997 138.067 126.801 138.075C126.436 138.089 126.117 138.04 125.842 137.929C125.57 137.818 125.358 137.645 125.206 137.411C125.055 137.176 124.98 136.88 124.983 136.523V131.239ZM130.062 138.103C129.714 138.103 129.404 138.043 129.132 137.922C128.86 137.799 128.644 137.618 128.486 137.379C128.329 137.137 128.251 136.836 128.251 136.477C128.251 136.174 128.307 135.919 128.418 135.713C128.53 135.507 128.681 135.341 128.873 135.216C129.065 135.09 129.282 134.996 129.526 134.932C129.772 134.868 130.03 134.823 130.3 134.797C130.618 134.764 130.873 134.733 131.067 134.705C131.262 134.674 131.402 134.629 131.49 134.57C131.578 134.51 131.621 134.423 131.621 134.307V134.286C131.621 134.061 131.55 133.887 131.408 133.763C131.269 133.64 131.07 133.579 130.812 133.579C130.539 133.579 130.323 133.639 130.162 133.76C130.001 133.878 129.894 134.027 129.842 134.207L128.443 134.094C128.514 133.762 128.654 133.476 128.862 133.234C129.07 132.991 129.339 132.804 129.668 132.673C130 132.541 130.383 132.474 130.819 132.474C131.122 132.474 131.412 132.51 131.689 132.581C131.968 132.652 132.216 132.762 132.431 132.911C132.649 133.06 132.82 133.252 132.946 133.487C133.071 133.719 133.134 133.997 133.134 134.321V138H131.699V137.244H131.657C131.569 137.414 131.452 137.564 131.305 137.695C131.159 137.822 130.982 137.923 130.776 137.996C130.57 138.067 130.332 138.103 130.062 138.103ZM130.496 137.059C130.718 137.059 130.915 137.015 131.085 136.928C131.256 136.838 131.389 136.717 131.486 136.565C131.583 136.414 131.632 136.242 131.632 136.05V135.472C131.585 135.502 131.52 135.531 131.437 135.557C131.356 135.58 131.265 135.603 131.163 135.624C131.061 135.643 130.96 135.661 130.858 135.678C130.756 135.692 130.664 135.705 130.581 135.717C130.403 135.743 130.248 135.784 130.116 135.841C129.983 135.898 129.88 135.975 129.807 136.072C129.733 136.166 129.697 136.285 129.697 136.427C129.697 136.633 129.771 136.79 129.92 136.899C130.072 137.006 130.264 137.059 130.496 137.059ZM137.209 132.545V133.682H133.924V132.545H137.209ZM134.67 131.239H136.183V136.324C136.183 136.464 136.204 136.572 136.247 136.651C136.289 136.726 136.349 136.78 136.424 136.81C136.502 136.841 136.592 136.857 136.694 136.857C136.765 136.857 136.836 136.851 136.907 136.839C136.978 136.825 137.033 136.814 137.071 136.807L137.309 137.933C137.233 137.956 137.126 137.983 136.989 138.014C136.852 138.047 136.685 138.067 136.488 138.075C136.124 138.089 135.804 138.04 135.529 137.929C135.257 137.818 135.045 137.645 134.894 137.411C134.742 137.176 134.668 136.88 134.67 136.523V131.239ZM140.622 138.107C140.061 138.107 139.578 137.993 139.173 137.766C138.77 137.536 138.46 137.212 138.242 136.793C138.025 136.371 137.916 135.873 137.916 135.298C137.916 134.737 138.025 134.244 138.242 133.82C138.46 133.397 138.767 133.066 139.162 132.83C139.56 132.593 140.026 132.474 140.561 132.474C140.921 132.474 141.256 132.532 141.566 132.648C141.879 132.762 142.151 132.934 142.383 133.163C142.617 133.393 142.8 133.682 142.93 134.03C143.06 134.375 143.125 134.78 143.125 135.244V135.66H138.519V134.722H141.701C141.701 134.504 141.654 134.312 141.559 134.143C141.465 133.975 141.333 133.844 141.165 133.749C140.999 133.652 140.806 133.604 140.586 133.604C140.357 133.604 140.153 133.657 139.975 133.763C139.8 133.868 139.663 134.009 139.563 134.186C139.464 134.361 139.413 134.557 139.411 134.772V135.663C139.411 135.933 139.46 136.166 139.56 136.363C139.662 136.559 139.805 136.711 139.99 136.817C140.174 136.924 140.393 136.977 140.647 136.977C140.815 136.977 140.969 136.954 141.108 136.906C141.248 136.859 141.367 136.788 141.467 136.693C141.566 136.598 141.642 136.482 141.694 136.345L143.093 136.438C143.022 136.774 142.877 137.067 142.657 137.318C142.439 137.567 142.157 137.761 141.811 137.901C141.468 138.038 141.072 138.107 140.622 138.107Z" fill="#4C7477"/>
<path d="M222.687 9.76705L221.934 9.98011C221.887 9.85464 221.817 9.73272 221.725 9.61435C221.635 9.49361 221.512 9.39418 221.356 9.31605C221.199 9.23793 220.999 9.19886 220.756 9.19886C220.422 9.19886 220.144 9.2758 219.921 9.42969C219.701 9.5812 219.591 9.77415 219.591 10.0085C219.591 10.2169 219.666 10.3814 219.818 10.5021C219.97 10.6229 220.206 10.7235 220.528 10.804L221.338 11.0028C221.826 11.1212 222.189 11.3023 222.428 11.5462C222.667 11.7876 222.787 12.099 222.787 12.4801C222.787 12.7926 222.697 13.072 222.517 13.3182C222.339 13.5644 222.091 13.7585 221.771 13.9006C221.452 14.0426 221.08 14.1136 220.656 14.1136C220.1 14.1136 219.639 13.9929 219.275 13.7514C218.91 13.5099 218.679 13.1572 218.582 12.6932L219.378 12.4943C219.453 12.7879 219.597 13.008 219.807 13.1548C220.02 13.3016 220.299 13.375 220.642 13.375C221.032 13.375 221.343 13.2921 221.572 13.1264C221.804 12.9583 221.92 12.7571 221.92 12.5227C221.92 12.3333 221.854 12.1747 221.721 12.0469C221.589 11.9167 221.385 11.8196 221.111 11.7557L220.202 11.5426C219.702 11.4242 219.335 11.2408 219.101 10.9922C218.869 10.7412 218.753 10.4276 218.753 10.0511C218.753 9.74337 218.839 9.47112 219.012 9.23438C219.187 8.99763 219.425 8.81179 219.726 8.67685C220.029 8.5419 220.372 8.47443 220.756 8.47443C221.295 8.47443 221.719 8.5928 222.027 8.82955C222.337 9.06629 222.557 9.37879 222.687 9.76705ZM226.42 8.54545V9.25568H223.594V8.54545H226.42ZM224.418 7.23864H225.256V12.4375C225.256 12.6742 225.29 12.8518 225.359 12.9702C225.43 13.0862 225.52 13.1643 225.629 13.2045C225.74 13.2424 225.857 13.2614 225.98 13.2614C226.072 13.2614 226.148 13.2566 226.207 13.2472C226.267 13.2353 226.314 13.2259 226.349 13.2188L226.52 13.9716C226.463 13.9929 226.384 14.0142 226.282 14.0355C226.18 14.0592 226.051 14.071 225.895 14.071C225.658 14.071 225.426 14.0201 225.199 13.9183C224.974 13.8165 224.787 13.6615 224.638 13.4531C224.491 13.2448 224.418 12.982 224.418 12.6648V7.23864ZM229.286 14.1278C228.941 14.1278 228.627 14.0627 228.345 13.9325C228.063 13.8 227.84 13.6094 227.674 13.3608C227.508 13.1098 227.425 12.8068 227.425 12.4517C227.425 12.1392 227.487 11.8859 227.61 11.6918C227.733 11.4953 227.898 11.3414 228.104 11.2301C228.31 11.1188 228.537 11.036 228.786 10.9815C229.036 10.9247 229.289 10.8797 229.542 10.8466C229.873 10.804 230.142 10.772 230.348 10.7507C230.556 10.727 230.708 10.688 230.803 10.6335C230.9 10.5791 230.948 10.4844 230.948 10.3494V10.321C230.948 9.97064 230.852 9.69839 230.661 9.50426C230.471 9.31013 230.183 9.21307 229.798 9.21307C229.397 9.21307 229.084 9.30066 228.857 9.47585C228.629 9.65104 228.469 9.83807 228.377 10.0369L227.582 9.75284C227.724 9.4214 227.913 9.16335 228.15 8.97869C228.389 8.79167 228.649 8.66146 228.931 8.58807C229.215 8.51231 229.495 8.47443 229.769 8.47443C229.944 8.47443 230.146 8.49574 230.373 8.53835C230.603 8.5786 230.824 8.66264 231.037 8.79048C231.252 8.91832 231.431 9.11127 231.573 9.36932C231.715 9.62737 231.786 9.97301 231.786 10.4062V14H230.948V13.2614H230.906C230.849 13.3797 230.754 13.5064 230.621 13.6413C230.489 13.7763 230.313 13.8911 230.092 13.9858C229.872 14.0805 229.603 14.1278 229.286 14.1278ZM229.414 13.375C229.746 13.375 230.025 13.3099 230.252 13.1797C230.482 13.0495 230.655 12.8814 230.771 12.6754C230.889 12.4695 230.948 12.2528 230.948 12.0256V11.2585C230.913 11.3011 230.835 11.3402 230.714 11.3757C230.595 11.4089 230.458 11.4384 230.302 11.4645C230.148 11.4882 229.998 11.5095 229.851 11.5284C229.706 11.545 229.589 11.5592 229.499 11.571C229.281 11.5994 229.078 11.6456 228.888 11.7095C228.701 11.7711 228.55 11.8646 228.434 11.9901C228.32 12.1132 228.263 12.2812 228.263 12.4943C228.263 12.7855 228.371 13.0057 228.587 13.1548C228.804 13.3016 229.08 13.375 229.414 13.375ZM235.688 8.54545V9.25568H232.861V8.54545H235.688ZM233.685 7.23864H234.523V12.4375C234.523 12.6742 234.558 12.8518 234.626 12.9702C234.697 13.0862 234.787 13.1643 234.896 13.2045C235.007 13.2424 235.125 13.2614 235.248 13.2614C235.34 13.2614 235.416 13.2566 235.475 13.2472C235.534 13.2353 235.581 13.2259 235.617 13.2188L235.787 13.9716C235.731 13.9929 235.651 14.0142 235.55 14.0355C235.448 14.0592 235.319 14.071 235.162 14.071C234.926 14.071 234.694 14.0201 234.466 13.9183C234.242 13.8165 234.055 13.6615 233.905 13.4531C233.759 13.2448 233.685 12.982 233.685 12.6648V7.23864ZM239.177 14.1136C238.651 14.1136 238.198 13.9976 237.817 13.7656C237.438 13.5312 237.146 13.2045 236.94 12.7855C236.736 12.3641 236.634 11.8741 236.634 11.3153C236.634 10.7566 236.736 10.2642 236.94 9.83807C237.146 9.40956 237.432 9.07576 237.799 8.83665C238.169 8.59517 238.599 8.47443 239.092 8.47443C239.376 8.47443 239.656 8.52178 239.933 8.61648C240.21 8.71117 240.463 8.86506 240.69 9.07812C240.917 9.28883 241.098 9.56818 241.233 9.91619C241.368 10.2642 241.436 10.6927 241.436 11.2017V11.5568H237.231V10.8324H240.583C240.583 10.5246 240.522 10.25 240.399 10.0085C240.278 9.76705 240.105 9.57647 239.88 9.43679C239.658 9.29711 239.395 9.22727 239.092 9.22727C238.758 9.22727 238.469 9.31013 238.225 9.47585C237.984 9.6392 237.798 9.85227 237.668 10.1151C237.538 10.3778 237.472 10.6596 237.472 10.9602V11.4432C237.472 11.8551 237.544 12.2043 237.686 12.4908C237.83 12.7749 238.03 12.9915 238.286 13.1406C238.541 13.2874 238.838 13.3608 239.177 13.3608C239.397 13.3608 239.596 13.33 239.774 13.2685C239.954 13.2045 240.109 13.1098 240.239 12.9844C240.369 12.8565 240.47 12.6979 240.541 12.5085L241.35 12.7358C241.265 13.0104 241.122 13.2519 240.921 13.4602C240.719 13.6662 240.471 13.8272 240.175 13.9432C239.879 14.0568 239.546 14.1136 239.177 14.1136Z" fill="#4C7477"/>
<path d="M25.1763 120.545C25.1337 120.186 24.9609 119.906 24.6578 119.707C24.3548 119.509 23.9831 119.409 23.5428 119.409C23.2208 119.409 22.9391 119.461 22.6976 119.565C22.4585 119.67 22.2715 119.813 22.1365 119.995C22.004 120.177 21.9377 120.384 21.9377 120.616C21.9377 120.811 21.9838 120.978 22.0762 121.117C22.1709 121.254 22.2916 121.369 22.4384 121.462C22.5852 121.552 22.7391 121.626 22.9 121.685C23.061 121.742 23.209 121.788 23.3439 121.824L24.0826 122.023C24.272 122.072 24.4827 122.141 24.7147 122.229C24.949 122.316 25.1728 122.436 25.3858 122.587C25.6013 122.737 25.7788 122.928 25.9185 123.163C26.0582 123.397 26.128 123.685 26.128 124.026C26.128 124.419 26.025 124.774 25.8191 125.091C25.6155 125.408 25.3172 125.66 24.9242 125.847C24.5336 126.034 24.0589 126.128 23.5002 126.128C22.9793 126.128 22.5283 126.044 22.1472 125.876C21.7684 125.708 21.4701 125.473 21.2523 125.173C21.0369 124.872 20.915 124.523 20.8865 124.125H21.7956C21.8193 124.4 21.9116 124.627 22.0726 124.807C22.236 124.984 22.4419 125.117 22.6905 125.205C22.9415 125.29 23.2114 125.332 23.5002 125.332C23.8364 125.332 24.1382 125.278 24.4057 125.169C24.6732 125.058 24.8851 124.904 25.0414 124.707C25.1976 124.509 25.2757 124.277 25.2757 124.011C25.2757 123.77 25.2083 123.573 25.0733 123.422C24.9384 123.27 24.7608 123.147 24.5407 123.053C24.3205 122.958 24.0826 122.875 23.8269 122.804L22.932 122.548C22.3638 122.385 21.914 122.152 21.5826 121.849C21.2511 121.546 21.0854 121.149 21.0854 120.659C21.0854 120.252 21.1955 119.897 21.4157 119.594C21.6382 119.288 21.9365 119.052 22.3105 118.884C22.687 118.713 23.1072 118.628 23.5712 118.628C24.04 118.628 24.4566 118.712 24.8212 118.88C25.1858 119.046 25.4746 119.273 25.6877 119.562C25.9031 119.851 26.0167 120.179 26.0286 120.545H25.1763ZM29.8345 120.545V121.256H27.0078V120.545H29.8345ZM27.8317 119.239H28.6697V124.438C28.6697 124.674 28.7041 124.852 28.7727 124.97C28.8438 125.086 28.9337 125.164 29.0426 125.205C29.1539 125.242 29.2711 125.261 29.3942 125.261C29.4865 125.261 29.5623 125.257 29.6214 125.247C29.6806 125.235 29.728 125.226 29.7635 125.219L29.9339 125.972C29.8771 125.993 29.7978 126.014 29.696 126.036C29.5942 126.059 29.4652 126.071 29.3089 126.071C29.0722 126.071 28.8402 126.02 28.6129 125.918C28.388 125.817 28.201 125.661 28.0518 125.453C27.9051 125.245 27.8317 124.982 27.8317 124.665V119.239ZM32.7003 126.128C32.3546 126.128 32.041 126.063 31.7592 125.933C31.4775 125.8 31.2538 125.609 31.0881 125.361C30.9223 125.11 30.8395 124.807 30.8395 124.452C30.8395 124.139 30.901 123.886 31.0241 123.692C31.1473 123.495 31.3118 123.341 31.5178 123.23C31.7237 123.119 31.951 123.036 32.1996 122.982C32.4505 122.925 32.7027 122.88 32.956 122.847C33.2874 122.804 33.5561 122.772 33.7621 122.751C33.9704 122.727 34.1219 122.688 34.2166 122.634C34.3137 122.579 34.3622 122.484 34.3622 122.349V122.321C34.3622 121.971 34.2663 121.698 34.0746 121.504C33.8852 121.31 33.5975 121.213 33.2116 121.213C32.8116 121.213 32.4979 121.301 32.2706 121.476C32.0433 121.651 31.8835 121.838 31.7912 122.037L30.9957 121.753C31.1378 121.421 31.3272 121.163 31.5639 120.979C31.803 120.792 32.0634 120.661 32.3452 120.588C32.6293 120.512 32.9086 120.474 33.1832 120.474C33.3584 120.474 33.5597 120.496 33.7869 120.538C34.0166 120.579 34.2379 120.663 34.451 120.79C34.6664 120.918 34.8452 121.111 34.9872 121.369C35.1293 121.627 35.2003 121.973 35.2003 122.406V126H34.3622V125.261H34.3196C34.2628 125.38 34.1681 125.506 34.0355 125.641C33.9029 125.776 33.7266 125.891 33.5064 125.986C33.2862 126.08 33.0175 126.128 32.7003 126.128ZM32.8281 125.375C33.1596 125.375 33.4389 125.31 33.6662 125.18C33.8958 125.049 34.0687 124.881 34.1847 124.675C34.303 124.469 34.3622 124.253 34.3622 124.026V123.259C34.3267 123.301 34.2486 123.34 34.1278 123.376C34.0095 123.409 33.8722 123.438 33.7159 123.464C33.562 123.488 33.4117 123.509 33.2649 123.528C33.1205 123.545 33.0033 123.559 32.9134 123.571C32.6955 123.599 32.492 123.646 32.3026 123.71C32.1155 123.771 31.964 123.865 31.848 123.99C31.7344 124.113 31.6776 124.281 31.6776 124.494C31.6776 124.786 31.7853 125.006 32.0007 125.155C32.2185 125.302 32.4943 125.375 32.8281 125.375ZM39.1021 120.545V121.256H36.2754V120.545H39.1021ZM37.0993 119.239H37.9373V124.438C37.9373 124.674 37.9717 124.852 38.0403 124.97C38.1113 125.086 38.2013 125.164 38.3102 125.205C38.4215 125.242 38.5386 125.261 38.6618 125.261C38.7541 125.261 38.8298 125.257 38.889 125.247C38.9482 125.235 38.9956 125.226 39.0311 125.219L39.2015 125.972C39.1447 125.993 39.0654 126.014 38.9636 126.036C38.8618 126.059 38.7328 126.071 38.5765 126.071C38.3398 126.071 38.1078 126.02 37.8805 125.918C37.6556 125.817 37.4686 125.661 37.3194 125.453C37.1726 125.245 37.0993 124.982 37.0993 124.665V119.239ZM42.5911 126.114C42.0655 126.114 41.6122 125.998 41.231 125.766C40.8522 125.531 40.5598 125.205 40.3539 124.786C40.1503 124.364 40.0485 123.874 40.0485 123.315C40.0485 122.757 40.1503 122.264 40.3539 121.838C40.5598 121.41 40.8463 121.076 41.2132 120.837C41.5826 120.595 42.0134 120.474 42.5059 120.474C42.79 120.474 43.0705 120.522 43.3475 120.616C43.6245 120.711 43.8766 120.865 44.1039 121.078C44.3311 121.289 44.5123 121.568 44.6472 121.916C44.7821 122.264 44.8496 122.693 44.8496 123.202V123.557H40.6451V122.832H43.9973C43.9973 122.525 43.9358 122.25 43.8127 122.009C43.6919 121.767 43.5191 121.576 43.2942 121.437C43.0717 121.297 42.8089 121.227 42.5059 121.227C42.1721 121.227 41.8832 121.31 41.6394 121.476C41.3979 121.639 41.2121 121.852 41.0819 122.115C40.9516 122.378 40.8865 122.66 40.8865 122.96V123.443C40.8865 123.855 40.9576 124.204 41.0996 124.491C41.244 124.775 41.4441 124.991 41.6998 125.141C41.9554 125.287 42.2525 125.361 42.5911 125.361C42.8113 125.361 43.0101 125.33 43.1877 125.268C43.3676 125.205 43.5227 125.11 43.6529 124.984C43.7831 124.857 43.8837 124.698 43.9547 124.509L44.7644 124.736C44.6792 125.01 44.5359 125.252 44.3347 125.46C44.1335 125.666 43.8849 125.827 43.589 125.943C43.293 126.057 42.9604 126.114 42.5911 126.114ZM52.2715 123.678V120.545H53.7843V126H52.3319V125.009H52.275C52.1519 125.329 51.9471 125.586 51.6607 125.78C51.3766 125.974 51.0298 126.071 50.6202 126.071C50.2556 126.071 49.9348 125.988 49.6578 125.822C49.3809 125.657 49.1642 125.421 49.008 125.116C48.8541 124.81 48.776 124.445 48.7736 124.018V120.545H50.2864V123.749C50.2888 124.071 50.3752 124.325 50.5456 124.512C50.7161 124.699 50.9445 124.793 51.231 124.793C51.4133 124.793 51.5837 124.751 51.7424 124.668C51.901 124.583 52.0288 124.458 52.1259 124.292C52.2253 124.126 52.2739 123.921 52.2715 123.678ZM54.9943 128.045V120.545H56.4858V121.462H56.5533C56.6196 121.315 56.7154 121.166 56.8409 121.014C56.9688 120.86 57.1345 120.732 57.3381 120.631C57.544 120.527 57.7997 120.474 58.1051 120.474C58.5028 120.474 58.8698 120.579 59.206 120.787C59.5421 120.993 59.8108 121.304 60.0121 121.721C60.2133 122.135 60.3139 122.655 60.3139 123.28C60.3139 123.888 60.2157 124.402 60.0192 124.821C59.825 125.238 59.5599 125.554 59.2237 125.769C58.8899 125.982 58.5159 126.089 58.1016 126.089C57.808 126.089 57.5582 126.04 57.3523 125.943C57.1487 125.846 56.9818 125.724 56.8516 125.577C56.7214 125.428 56.6219 125.278 56.5533 125.126H56.5071V128.045H54.9943ZM56.4751 123.273C56.4751 123.597 56.5201 123.88 56.6101 124.121C56.7 124.363 56.8303 124.551 57.0007 124.686C57.1712 124.819 57.3783 124.885 57.6222 124.885C57.8684 124.885 58.0767 124.817 58.2472 124.683C58.4176 124.545 58.5466 124.356 58.6342 124.114C58.7242 123.871 58.7692 123.59 58.7692 123.273C58.7692 122.958 58.7254 122.681 58.6378 122.442C58.5502 122.203 58.4212 122.016 58.2507 121.881C58.0803 121.746 57.8707 121.678 57.6222 121.678C57.3759 121.678 57.1676 121.743 56.9972 121.874C56.8291 122.004 56.7 122.188 56.6101 122.428C56.5201 122.667 56.4751 122.948 56.4751 123.273ZM63.3324 126.089C62.9181 126.089 62.5429 125.982 62.2067 125.769C61.8729 125.554 61.6077 125.238 61.4112 124.821C61.2171 124.402 61.12 123.888 61.12 123.28C61.12 122.655 61.2206 122.135 61.4219 121.721C61.6231 121.304 61.8906 120.993 62.2244 120.787C62.5606 120.579 62.9287 120.474 63.3288 120.474C63.6342 120.474 63.8887 120.527 64.0923 120.631C64.2983 120.732 64.464 120.86 64.5895 121.014C64.7173 121.166 64.8144 121.315 64.8807 121.462H64.9268V118.727H66.4361V126H64.9446V125.126H64.8807C64.8097 125.278 64.709 125.428 64.5788 125.577C64.451 125.724 64.2841 125.846 64.0781 125.943C63.8745 126.04 63.6259 126.089 63.3324 126.089ZM63.8118 124.885C64.0556 124.885 64.2616 124.819 64.4297 124.686C64.6001 124.551 64.7304 124.363 64.8203 124.121C64.9126 123.88 64.9588 123.597 64.9588 123.273C64.9588 122.948 64.9138 122.667 64.8239 122.428C64.7339 122.188 64.6037 122.004 64.4332 121.874C64.2628 121.743 64.0556 121.678 63.8118 121.678C63.5632 121.678 63.3537 121.746 63.1832 121.881C63.0128 122.016 62.8838 122.203 62.7962 122.442C62.7086 122.681 62.6648 122.958 62.6648 123.273C62.6648 123.59 62.7086 123.871 62.7962 124.114C62.8861 124.356 63.0152 124.545 63.1832 124.683C63.3537 124.817 63.5632 124.885 63.8118 124.885ZM69.2353 126.103C68.8873 126.103 68.5771 126.043 68.3049 125.922C68.0326 125.799 67.8172 125.618 67.6586 125.379C67.5023 125.137 67.4242 124.836 67.4242 124.477C67.4242 124.174 67.4798 123.919 67.5911 123.713C67.7024 123.507 67.8539 123.341 68.0456 123.216C68.2374 123.09 68.4552 122.996 68.699 122.932C68.9453 122.868 69.2033 122.823 69.4732 122.797C69.7904 122.764 70.0461 122.733 70.2402 122.705C70.4344 122.674 70.5752 122.629 70.6628 122.57C70.7504 122.51 70.7942 122.423 70.7942 122.307V122.286C70.7942 122.061 70.7232 121.887 70.5811 121.763C70.4415 121.64 70.2426 121.579 69.9846 121.579C69.7123 121.579 69.4957 121.639 69.3347 121.76C69.1737 121.878 69.0672 122.027 69.0151 122.207L67.6159 122.094C67.687 121.762 67.8266 121.476 68.035 121.234C68.2433 120.991 68.512 120.804 68.8411 120.673C69.1725 120.541 69.556 120.474 69.9917 120.474C70.2947 120.474 70.5847 120.51 70.8617 120.581C71.141 120.652 71.3884 120.762 71.6039 120.911C71.8217 121.06 71.9933 121.252 72.1188 121.487C72.2443 121.719 72.307 121.997 72.307 122.321V126H70.8723V125.244H70.8297C70.7421 125.414 70.6249 125.564 70.4782 125.695C70.3314 125.822 70.155 125.923 69.949 125.996C69.7431 126.067 69.5051 126.103 69.2353 126.103ZM69.6685 125.059C69.891 125.059 70.0875 125.015 70.258 124.928C70.4284 124.838 70.5622 124.717 70.6593 124.565C70.7563 124.414 70.8049 124.242 70.8049 124.05V123.472C70.7575 123.502 70.6924 123.531 70.6096 123.557C70.5291 123.58 70.4379 123.603 70.3361 123.624C70.2343 123.643 70.1325 123.661 70.0307 123.678C69.9289 123.692 69.8366 123.705 69.7537 123.717C69.5762 123.743 69.4211 123.784 69.2885 123.841C69.156 123.898 69.053 123.975 68.9796 124.072C68.9062 124.166 68.8695 124.285 68.8695 124.427C68.8695 124.633 68.9441 124.79 69.0932 124.899C69.2447 125.006 69.4365 125.059 69.6685 125.059ZM76.3819 120.545V121.682H73.0971V120.545H76.3819ZM73.8429 119.239H75.3556V124.324C75.3556 124.464 75.377 124.572 75.4196 124.651C75.4622 124.726 75.5214 124.78 75.5971 124.81C75.6752 124.841 75.7652 124.857 75.867 124.857C75.938 124.857 76.0091 124.851 76.0801 124.839C76.1511 124.825 76.2056 124.814 76.2434 124.807L76.4814 125.933C76.4056 125.956 76.2991 125.983 76.1618 126.014C76.0244 126.047 75.8575 126.067 75.661 126.075C75.2965 126.089 74.9769 126.04 74.7022 125.929C74.43 125.818 74.2181 125.645 74.0666 125.411C73.9151 125.176 73.8405 124.88 73.8429 124.523V119.239ZM79.7946 126.107C79.2335 126.107 78.7505 125.993 78.3457 125.766C77.9432 125.536 77.6331 125.212 77.4153 124.793C77.1975 124.371 77.0886 123.873 77.0886 123.298C77.0886 122.737 77.1975 122.244 77.4153 121.82C77.6331 121.397 77.9397 121.066 78.335 120.83C78.7328 120.593 79.1992 120.474 79.7342 120.474C80.094 120.474 80.429 120.532 80.7392 120.648C81.0517 120.762 81.3239 120.934 81.5559 121.163C81.7903 121.393 81.9726 121.682 82.1028 122.03C82.233 122.375 82.2981 122.78 82.2981 123.244V123.66H77.6923V122.722H80.8741C80.8741 122.504 80.8268 122.312 80.7321 122.143C80.6374 121.975 80.506 121.844 80.3379 121.749C80.1722 121.652 79.9792 121.604 79.7591 121.604C79.5294 121.604 79.3258 121.657 79.1483 121.763C78.9731 121.868 78.8358 122.009 78.7363 122.186C78.6369 122.361 78.586 122.557 78.5836 122.772V123.663C78.5836 123.933 78.6333 124.166 78.7328 124.363C78.8346 124.559 78.9778 124.711 79.1625 124.817C79.3471 124.924 79.5661 124.977 79.8194 124.977C79.9875 124.977 80.1414 124.954 80.2811 124.906C80.4208 124.859 80.5403 124.788 80.6397 124.693C80.7392 124.598 80.8149 124.482 80.867 124.345L82.2662 124.438C82.1951 124.774 82.0495 125.067 81.8294 125.318C81.6116 125.567 81.3298 125.761 80.9842 125.901C80.6409 126.038 80.2444 126.107 79.7946 126.107Z" fill="#505050"/>
<line x1="96.5" y1="112" x2="96.5" y2="92" stroke="#505050" stroke-dasharray="2 2"/>
<line x1="229" y1="113.5" x2="96" y2="113.5" stroke="#505050" stroke-dasharray="2 2"/>
<line x1="229.5" y1="92" x2="229.5" y2="112" stroke="#505050" stroke-dasharray="2 2"/>
<line x1="26.5" y1="112" x2="26.5" y2="92" stroke="#505050" stroke-dasharray="2 2"/>
<line x1="76" y1="113.5" x2="27" y2="113.5" stroke="#505050" stroke-dasharray="2 2"/>
<line x1="76.5" y1="92" x2="76.5" y2="112" stroke="#505050" stroke-dasharray="2 2"/>
<path d="M209.354 28.3535L214.93 26.8593L210.848 22.7768L209.354 28.3535ZM220 17L212.182 24.818L212.889 25.5251L220.707 17.7071L220 17Z" fill="#DDDDDD"/>
<rect x="206.25" y="47.25" width="11.5" height="11.5" fill="#BAFBFF" stroke="#4C7477" stroke-width="0.5"/>
<rect x="217.25" y="47.25" width="11.5" height="11.5" fill="#BAFBFF" stroke="#4C7477" stroke-width="0.5"/>
<rect x="206.25" y="58.25" width="11.5" height="11.5" fill="#BAFBFF" stroke="#4C7477" stroke-width="0.5"/>
<rect x="217.25" y="58.25" width="11.5" height="11.5" fill="#BAFBFF" stroke="#4C7477" stroke-width="0.5"/>
<rect x="206.25" y="68.25" width="11.5" height="11.5" fill="#BAFBFF" stroke="#4C7477" stroke-width="0.5"/>
<rect x="217.25" y="68.25" width="11.5" height="11.5" fill="#BAFBFF" stroke="#4C7477" stroke-width="0.5"/>
<rect x="184.25" y="47.25" width="11.5" height="11.5" fill="#BAFBFF" stroke="#4C7477" stroke-width="0.5"/>
<rect x="195.25" y="47.25" width="11.5" height="11.5" fill="#BAFBFF" stroke="#4C7477" stroke-width="0.5"/>
<rect x="184.25" y="58.25" width="11.5" height="11.5" fill="#BAFBFF" stroke="#4C7477" stroke-width="0.5"/>
<rect x="195.25" y="58.25" width="11.5" height="11.5" fill="#BAFBFF" stroke="#4C7477" stroke-width="0.5"/>
<rect x="184.25" y="68.25" width="11.5" height="11.5" fill="#BAFBFF" stroke="#4C7477" stroke-width="0.5"/>
<rect x="195.25" y="68.25" width="11.5" height="11.5" fill="#BAFBFF" stroke="#4C7477" stroke-width="0.5"/>
<rect x="49.25" y="47.25" width="11.5" height="11.5" fill="#BAFBFF" stroke="#4C7477" stroke-width="0.5"/>
<rect x="60.25" y="47.25" width="11.5" height="11.5" fill="#BAFBFF" stroke="#4C7477" stroke-width="0.5"/>
<rect x="49.25" y="58.25" width="11.5" height="11.5" fill="#BAFBFF" stroke="#4C7477" stroke-width="0.5"/>
<rect x="60.25" y="58.25" width="11.5" height="11.5" fill="#BAFBFF" stroke="#4C7477" stroke-width="0.5"/>
<rect x="49.25" y="68.25" width="11.5" height="11.5" fill="#BAFBFF" stroke="#4C7477" stroke-width="0.5"/>
<rect x="60.25" y="68.25" width="11.5" height="11.5" fill="#BAFBFF" stroke="#4C7477" stroke-width="0.5"/>
<rect x="27.25" y="47.25" width="11.5" height="11.5" fill="#BAFBFF" stroke="#4C7477" stroke-width="0.5"/>
<rect x="38.25" y="47.25" width="11.5" height="11.5" fill="#BAFBFF" stroke="#4C7477" stroke-width="0.5"/>
<rect x="27.25" y="58.25" width="11.5" height="11.5" fill="#BAFBFF" stroke="#4C7477" stroke-width="0.5"/>
<rect x="38.25" y="58.25" width="11.5" height="11.5" fill="#BAFBFF" stroke="#4C7477" stroke-width="0.5"/>
<rect x="27.25" y="68.25" width="11.5" height="11.5" fill="#BAFBFF" stroke="#4C7477" stroke-width="0.5"/>
<rect x="38.25" y="68.25" width="11.5" height="11.5" fill="#BAFBFF" stroke="#4C7477" stroke-width="0.5"/>
</svg>
