<svg width="449" height="156" viewBox="0 0 449 156" fill="none" xmlns="http://www.w3.org/2000/svg">
<rect width="449" height="156" fill="white"/>
<path d="M40.7528 102.068C40.4651 102.068 40.1952 102.045 39.9431 101.999C39.6945 101.956 39.4885 101.901 39.3252 101.834L39.8366 100.14C40.1029 100.222 40.3426 100.266 40.5557 100.273C40.7723 100.28 40.9587 100.23 41.115 100.124C41.2748 100.017 41.4044 99.8363 41.5038 99.5806L41.637 99.2344L38.702 90.8182H41.0883L42.7822 96.8267H42.8675L44.5773 90.8182H46.9797L43.7996 99.8842C43.6469 100.325 43.4392 100.708 43.1764 101.035C42.9172 101.365 42.5887 101.619 42.191 101.797C41.7932 101.978 41.3138 102.068 40.7528 102.068Z" fill="#743BBE"/>
<path d="M48.8334 94.3977C48.8334 93.0554 49.0074 91.8214 49.3554 90.6957C49.7069 89.5664 50.2077 88.5277 50.8575 87.5795H51.9655C51.7098 87.9311 51.4701 88.3643 51.2464 88.8793C51.0262 89.3906 50.8327 89.9535 50.6657 90.5678C50.4988 91.1786 50.3675 91.8107 50.2716 92.4641C50.1792 93.1175 50.1331 93.7621 50.1331 94.3977C50.1331 95.2429 50.2148 96.1005 50.3781 96.9705C50.5415 97.8406 50.7616 98.6484 51.0386 99.3942C51.3156 100.14 51.6246 100.747 51.9655 101.216H50.8575C50.2077 100.268 49.7069 99.2308 49.3554 98.1051C49.0074 96.9759 48.8334 95.7401 48.8334 94.3977ZM57.3787 90.8182V91.8835H53.1387V90.8182H57.3787ZM54.3745 88.858H55.6316V96.6562C55.6316 97.0114 55.6831 97.2777 55.786 97.4553C55.8926 97.6293 56.0275 97.7464 56.1909 97.8068C56.3578 97.8636 56.5336 97.892 56.7182 97.892C56.8567 97.892 56.9703 97.8849 57.0591 97.8707C57.1479 97.853 57.2189 97.8388 57.2722 97.8281L57.5279 98.9574C57.4426 98.9893 57.3237 99.0213 57.171 99.0533C57.0183 99.0888 56.8248 99.1065 56.5904 99.1065C56.2353 99.1065 55.8873 99.0302 55.5463 98.8775C55.209 98.7248 54.9284 98.4922 54.7047 98.1797C54.4846 97.8672 54.3745 97.473 54.3745 96.9972V88.858ZM61.9544 94.3977C61.9544 95.7401 61.7786 96.9759 61.427 98.1051C61.079 99.2308 60.5801 100.268 59.9302 101.216H58.8223C59.0779 100.864 59.3159 100.431 59.536 99.9162C59.7598 99.4048 59.9551 98.8437 60.122 98.233C60.2889 97.6186 60.4185 96.9847 60.5108 96.3313C60.6067 95.6744 60.6547 95.0298 60.6547 94.3977C60.6547 93.5526 60.573 92.695 60.4096 91.8249C60.2463 90.9549 60.0261 90.147 59.7491 89.4013C59.4721 88.6555 59.1632 88.0483 58.8223 87.5795H59.9302C60.5801 88.5277 61.079 89.5664 61.427 90.6957C61.7786 91.8214 61.9544 93.0554 61.9544 94.3977Z" fill="#505050"/>
<path d="M82.3192 93.8118V91.9208H89.6754V93.8118H82.3192ZM82.3192 97.3487V95.4577H89.6754V97.3487H82.3192Z" fill="#505050"/>
<path d="M242.047 98.4087V90.8661H243.953V98.4087H242.047ZM239.229 95.5909V93.6839H246.771V95.5909H239.229Z" fill="#505050"/>
<path d="M165.288 97.2273L165.421 95.1658L163.695 96.3217L162.981 95.0646L164.84 94.1591L162.981 93.2536L163.695 91.9964L165.421 93.1523L165.288 91.0909H166.72L166.582 93.1523L168.308 91.9964L169.022 93.2536L167.168 94.1591L169.022 95.0646L168.308 96.3217L166.582 95.1658L166.72 97.2273H165.288Z" fill="#505050"/>
<path d="M335.288 97.2273L335.421 95.1658L333.695 96.3217L332.981 95.0646L334.84 94.1591L332.981 93.2536L333.695 91.9964L335.421 93.1523L335.288 91.0909H336.72L336.582 93.1523L338.308 91.9964L339.022 93.2536L337.168 94.1591L339.022 95.0646L338.308 96.3217L336.582 95.1658L336.72 97.2273H335.288Z" fill="#505050"/>
<path d="M129.934 92.9102H127.601C127.558 92.6083 127.471 92.3402 127.34 92.1058C127.208 91.8679 127.04 91.6655 126.834 91.4986C126.628 91.3317 126.39 91.2038 126.12 91.1151C125.854 91.0263 125.564 90.9819 125.252 90.9819C124.687 90.9819 124.195 91.1222 123.776 91.4027C123.357 91.6797 123.032 92.0845 122.801 92.6172C122.571 93.1463 122.455 93.7891 122.455 94.5455C122.455 95.3232 122.571 95.9766 122.801 96.5057C123.036 97.0348 123.362 97.4343 123.782 97.7042C124.201 97.9741 124.685 98.109 125.236 98.109C125.545 98.109 125.831 98.0682 126.093 97.9865C126.36 97.9048 126.596 97.7859 126.802 97.6296C127.008 97.4698 127.178 97.2763 127.313 97.049C127.452 96.8217 127.547 96.5625 127.601 96.2713L129.934 96.282C129.873 96.7827 129.723 97.2656 129.481 97.7308C129.243 98.1925 128.922 98.6062 128.517 98.9719C128.116 99.3342 127.636 99.6218 127.079 99.8349C126.525 100.044 125.898 100.149 125.198 100.149C124.225 100.149 123.355 99.929 122.588 99.4886C121.825 99.0483 121.221 98.4109 120.777 97.5763C120.337 96.7418 120.117 95.7315 120.117 94.5455C120.117 93.3558 120.34 92.3438 120.788 91.5092C121.235 90.6747 121.843 90.0391 122.61 89.6023C123.377 89.1619 124.24 88.9418 125.198 88.9418C125.831 88.9418 126.416 89.0305 126.956 89.2081C127.5 89.3857 127.981 89.6449 128.4 89.9858C128.819 90.3232 129.16 90.7369 129.422 91.2269C129.689 91.717 129.859 92.2781 129.934 92.9102Z" fill="#0847A6"/>
<rect x="119.25" y="35.25" width="11.5" height="11.5" fill="#BAD6FF" stroke="#0847A6" stroke-width="0.5"/>
<rect x="119.25" y="46.25" width="11.5" height="11.5" fill="#BAD6FF" stroke="#0847A6" stroke-width="0.5"/>
<rect x="119.25" y="57.25" width="11.5" height="11.5" fill="#BAD6FF" stroke="#0847A6" stroke-width="0.5"/>
<rect x="119.25" y="67.25" width="11.5" height="11.5" fill="#BAD6FF" stroke="#0847A6" stroke-width="0.5"/>
<rect x="206.25" y="46.25" width="11.5" height="11.5" fill="#BAFBFF" stroke="#4C7477" stroke-width="0.5"/>
<rect x="217.25" y="46.25" width="11.5" height="11.5" fill="#BAFBFF" stroke="#4C7477" stroke-width="0.5"/>
<rect x="206.25" y="57.25" width="11.5" height="11.5" fill="#BAFBFF" stroke="#4C7477" stroke-width="0.5"/>
<rect x="217.25" y="57.25" width="11.5" height="11.5" fill="#BAFBFF" stroke="#4C7477" stroke-width="0.5"/>
<rect x="206.25" y="67.25" width="11.5" height="11.5" fill="#BAFBFF" stroke="#4C7477" stroke-width="0.5"/>
<rect x="217.25" y="67.25" width="11.5" height="11.5" fill="#BAFBFF" stroke="#4C7477" stroke-width="0.5"/>
<rect x="184.25" y="46.25" width="11.5" height="11.5" fill="#BAFBFF" stroke="#4C7477" stroke-width="0.5"/>
<rect x="195.25" y="46.25" width="11.5" height="11.5" fill="#BAFBFF" stroke="#4C7477" stroke-width="0.5"/>
<rect x="184.25" y="57.25" width="11.5" height="11.5" fill="#BAFBFF" stroke="#4C7477" stroke-width="0.5"/>
<rect x="195.25" y="57.25" width="11.5" height="11.5" fill="#BAFBFF" stroke="#4C7477" stroke-width="0.5"/>
<rect x="184.25" y="67.25" width="11.5" height="11.5" fill="#BAFBFF" stroke="#4C7477" stroke-width="0.5"/>
<rect x="195.25" y="67.25" width="11.5" height="11.5" fill="#BAFBFF" stroke="#4C7477" stroke-width="0.5"/>
<path d="M366 54.3709C366.764 47.4569 370.534 44 377.31 44C387.475 44 388.705 67 400.852 67C410.99 67 413 55.7377 413 54.3709" stroke="#BE3B3B" stroke-width="4" stroke-linecap="round" stroke-linejoin="round"/>
<path d="M377.336 91.8182L378.838 94.6786L380.378 91.8182H382.705L380.335 95.9091L382.769 100H380.452L378.838 97.1715L377.251 100H374.907L377.336 95.9091L374.992 91.8182H377.336Z" fill="#BE3B3B"/>
<path d="M384.745 95.3977C384.745 94.0554 384.919 92.8214 385.267 91.6957C385.619 90.5664 386.12 89.5277 386.77 88.5795H387.878C387.622 88.9311 387.382 89.3643 387.158 89.8793C386.938 90.3906 386.745 90.9535 386.578 91.5678C386.411 92.1786 386.28 92.8107 386.184 93.4641C386.091 94.1175 386.045 94.7621 386.045 95.3977C386.045 96.2429 386.127 97.1005 386.29 97.9705C386.454 98.8406 386.674 99.6484 386.951 100.394C387.228 101.14 387.537 101.747 387.878 102.216H386.77C386.12 101.268 385.619 100.231 385.267 99.1051C384.919 97.9759 384.745 96.7401 384.745 95.3977ZM393.291 91.8182V92.8835H389.051V91.8182H393.291ZM390.287 89.858H391.544V97.6562C391.544 98.0114 391.595 98.2777 391.698 98.4553C391.805 98.6293 391.94 98.7464 392.103 98.8068C392.27 98.8636 392.446 98.892 392.63 98.892C392.769 98.892 392.882 98.8849 392.971 98.8707C393.06 98.853 393.131 98.8388 393.184 98.8281L393.44 99.9574C393.355 99.9893 393.236 100.021 393.083 100.053C392.93 100.089 392.737 100.107 392.502 100.107C392.147 100.107 391.799 100.03 391.458 99.8775C391.121 99.7248 390.841 99.4922 390.617 99.1797C390.397 98.8672 390.287 98.473 390.287 97.9972V89.858ZM397.866 95.3977C397.866 96.7401 397.691 97.9759 397.339 99.1051C396.991 100.231 396.492 101.268 395.842 102.216H394.734C394.99 101.864 395.228 101.431 395.448 100.916C395.672 100.405 395.867 99.8437 396.034 99.233C396.201 98.6186 396.331 97.9847 396.423 97.3313C396.519 96.6744 396.567 96.0298 396.567 95.3977C396.567 94.5526 396.485 93.695 396.322 92.8249C396.158 91.9549 395.938 91.147 395.661 90.4013C395.384 89.6555 395.075 89.0483 394.734 88.5795H395.842C396.492 89.5277 396.991 90.5664 397.339 91.6957C397.691 92.8214 397.866 94.0554 397.866 95.3977Z" fill="#505050"/>
<rect x="267.25" y="67.25" width="11.5" height="11.5" fill="#FFBAF4" stroke="#974594" stroke-width="0.5"/>
<rect x="278.25" y="67.25" width="11.5" height="11.5" fill="#FFBAF4" stroke="#974594" stroke-width="0.5"/>
<rect x="289.25" y="67.25" width="11.5" height="11.5" fill="#FFBAF4" stroke="#974594" stroke-width="0.5"/>
<rect x="267.25" y="56.25" width="11.5" height="11.5" fill="#FFBAF4" stroke="#974594" stroke-width="0.5"/>
<rect x="278.25" y="56.25" width="11.5" height="11.5" fill="#FFBAF4" stroke="#974594" stroke-width="0.5"/>
<rect x="289.25" y="56.25" width="11.5" height="11.5" fill="#FFBAF4" stroke="#974594" stroke-width="0.5"/>
<rect x="267.25" y="45.25" width="11.5" height="11.5" fill="#FFBAF4" stroke="#974594" stroke-width="0.5"/>
<rect x="278.25" y="45.25" width="11.5" height="11.5" fill="#FFBAF4" stroke="#974594" stroke-width="0.5"/>
<rect x="289.25" y="45.25" width="11.5" height="11.5" fill="#FFBAF4" stroke="#974594" stroke-width="0.5"/>
<path d="M284.359 100H280.492V89.0909H284.391C285.488 89.0909 286.433 89.3093 287.225 89.7461C288.016 90.1793 288.625 90.8026 289.052 91.6158C289.481 92.429 289.696 93.402 289.696 94.5348C289.696 95.6712 289.481 96.6477 289.052 97.4645C288.625 98.2812 288.013 98.908 287.214 99.3448C286.418 99.7816 285.467 100 284.359 100ZM282.798 98.0238H284.263C284.945 98.0238 285.518 97.9031 285.983 97.6616C286.452 97.4165 286.804 97.0384 287.038 96.527C287.276 96.0121 287.395 95.348 287.395 94.5348C287.395 93.7287 287.276 93.07 287.038 92.5586C286.804 92.0472 286.454 91.6708 285.989 91.4293C285.524 91.1879 284.95 91.0671 284.268 91.0671H282.798V98.0238Z" fill="#974594"/>
<path d="M197.335 95.2699V100H195.066V89.0909H197.271V93.2617H197.367C197.552 92.7788 197.85 92.4006 198.262 92.1271C198.674 91.8501 199.191 91.7116 199.812 91.7116C200.38 91.7116 200.876 91.8359 201.298 92.0845C201.725 92.3295 202.055 92.6829 202.289 93.1445C202.527 93.6026 202.644 94.1513 202.641 94.7905V100H200.372V95.1953C200.375 94.6911 200.247 94.2987 199.988 94.0181C199.732 93.7376 199.374 93.5973 198.912 93.5973C198.603 93.5973 198.33 93.663 198.092 93.7944C197.857 93.9258 197.673 94.1175 197.538 94.3697C197.406 94.6183 197.339 94.9183 197.335 95.2699Z" fill="#4C7477"/>
<path d="M205.119 95.3977C205.119 94.0554 205.293 92.8214 205.641 91.6957C205.993 90.5664 206.493 89.5277 207.143 88.5795H208.251C207.995 88.9311 207.756 89.3643 207.532 89.8793C207.312 90.3906 207.118 90.9535 206.951 91.5678C206.784 92.1786 206.653 92.8107 206.557 93.4641C206.465 94.1175 206.419 94.7621 206.419 95.3977C206.419 96.2429 206.5 97.1005 206.664 97.9705C206.827 98.8406 207.047 99.6484 207.324 100.394C207.601 101.14 207.91 101.747 208.251 102.216H207.143C206.493 101.268 205.993 100.231 205.641 99.1051C205.293 97.9759 205.119 96.7401 205.119 95.3977ZM213.664 91.8182V92.8835H209.424V91.8182H213.664ZM210.66 89.858H211.917V97.6562C211.917 98.0114 211.969 98.2777 212.072 98.4553C212.178 98.6293 212.313 98.7464 212.477 98.8068C212.643 98.8636 212.819 98.892 213.004 98.892C213.142 98.892 213.256 98.8849 213.345 98.8707C213.434 98.853 213.505 98.8388 213.558 98.8281L213.814 99.9574C213.728 99.9893 213.609 100.021 213.457 100.053C213.304 100.089 213.11 100.107 212.876 100.107C212.521 100.107 212.173 100.03 211.832 99.8775C211.495 99.7248 211.214 99.4922 210.99 99.1797C210.77 98.8672 210.66 98.473 210.66 97.9972V89.858ZM218.24 95.3977C218.24 96.7401 218.064 97.9759 217.713 99.1051C217.365 100.231 216.866 101.268 216.216 102.216H215.108C215.364 101.864 215.602 101.431 215.822 100.916C216.045 100.405 216.241 99.8437 216.408 99.233C216.575 98.6186 216.704 97.9847 216.796 97.3313C216.892 96.6744 216.94 96.0298 216.94 95.3977C216.94 94.5526 216.859 93.695 216.695 92.8249C216.532 91.9549 216.312 91.147 216.035 90.4013C215.758 89.6555 215.449 89.0483 215.108 88.5795H216.216C216.866 89.5277 217.365 90.5664 217.713 91.6957C218.064 92.8214 218.24 94.0554 218.24 95.3977Z" fill="#505050"/>
<path d="M304.908 126V118.727H306.446V121.728H309.568V118.727H311.102V126H309.568V122.996H306.446V126H304.908ZM314.805 126.107C314.254 126.107 313.777 125.989 313.374 125.755C312.974 125.518 312.665 125.189 312.448 124.768C312.23 124.344 312.121 123.853 312.121 123.294C312.121 122.731 312.23 122.238 312.448 121.817C312.665 121.393 312.974 121.064 313.374 120.83C313.777 120.593 314.254 120.474 314.805 120.474C315.357 120.474 315.833 120.593 316.233 120.83C316.636 121.064 316.946 121.393 317.163 121.817C317.381 122.238 317.49 122.731 317.49 123.294C317.49 123.853 317.381 124.344 317.163 124.768C316.946 125.189 316.636 125.518 316.233 125.755C315.833 125.989 315.357 126.107 314.805 126.107ZM314.813 124.935C315.064 124.935 315.273 124.864 315.441 124.722C315.609 124.577 315.736 124.381 315.821 124.132C315.909 123.884 315.953 123.601 315.953 123.283C315.953 122.966 315.909 122.683 315.821 122.435C315.736 122.186 315.609 121.99 315.441 121.845C315.273 121.701 315.064 121.629 314.813 121.629C314.559 121.629 314.346 121.701 314.173 121.845C314.003 121.99 313.874 122.186 313.786 122.435C313.701 122.683 313.658 122.966 313.658 123.283C313.658 123.601 313.701 123.884 313.786 124.132C313.874 124.381 314.003 124.577 314.173 124.722C314.346 124.864 314.559 124.935 314.813 124.935ZM319.413 126L317.929 120.545H319.459L320.304 124.21H320.354L321.235 120.545H322.737L323.632 124.189H323.678L324.509 120.545H326.036L324.555 126H322.954L322.016 122.57H321.949L321.011 126H319.413Z" fill="#974594"/>
<path d="M332.191 120.545V121.256H329.364V120.545H332.191ZM330.188 119.239H331.026V124.438C331.026 124.674 331.061 124.852 331.129 124.97C331.2 125.086 331.29 125.164 331.399 125.205C331.51 125.242 331.628 125.261 331.751 125.261C331.843 125.261 331.919 125.257 331.978 125.247C332.037 125.235 332.084 125.226 332.12 125.219L332.29 125.972C332.234 125.993 332.154 126.014 332.052 126.036C331.951 126.059 331.822 126.071 331.665 126.071C331.429 126.071 331.197 126.02 330.969 125.918C330.744 125.817 330.557 125.661 330.408 125.453C330.262 125.245 330.188 124.982 330.188 124.665V119.239ZM334.407 122.719V126H333.569V118.727H334.407V121.398H334.478C334.606 121.116 334.797 120.892 335.053 120.727C335.311 120.558 335.655 120.474 336.083 120.474C336.455 120.474 336.78 120.549 337.06 120.698C337.339 120.845 337.556 121.071 337.709 121.376C337.866 121.679 337.944 122.065 337.944 122.534V126H337.106V122.591C337.106 122.158 336.993 121.823 336.768 121.586C336.546 121.347 336.237 121.227 335.842 121.227C335.567 121.227 335.321 121.285 335.103 121.401C334.887 121.517 334.717 121.687 334.592 121.909C334.468 122.132 334.407 122.402 334.407 122.719ZM341.764 126.114C341.238 126.114 340.785 125.998 340.404 125.766C340.025 125.531 339.733 125.205 339.527 124.786C339.323 124.364 339.221 123.874 339.221 123.315C339.221 122.757 339.323 122.264 339.527 121.838C339.733 121.41 340.019 121.076 340.386 120.837C340.755 120.595 341.186 120.474 341.679 120.474C341.963 120.474 342.243 120.522 342.52 120.616C342.797 120.711 343.049 120.865 343.277 121.078C343.504 121.289 343.685 121.568 343.82 121.916C343.955 122.264 344.022 122.693 344.022 123.202V123.557H339.818V122.832H343.17C343.17 122.525 343.109 122.25 342.986 122.009C342.865 121.767 342.692 121.576 342.467 121.437C342.245 121.297 341.982 121.227 341.679 121.227C341.345 121.227 341.056 121.31 340.812 121.476C340.571 121.639 340.385 121.852 340.255 122.115C340.124 122.378 340.059 122.66 340.059 122.96V123.443C340.059 123.855 340.13 124.204 340.272 124.491C340.417 124.775 340.617 124.991 340.873 125.141C341.128 125.287 341.425 125.361 341.764 125.361C341.984 125.361 342.183 125.33 342.361 125.268C342.54 125.205 342.696 125.11 342.826 124.984C342.956 124.857 343.057 124.698 343.128 124.509L343.937 124.736C343.852 125.01 343.709 125.252 343.508 125.46C343.306 125.666 343.058 125.827 342.762 125.943C342.466 126.057 342.133 126.114 341.764 126.114ZM289.002 138.114C288.548 138.114 288.147 137.999 287.799 137.769C287.451 137.537 287.178 137.21 286.982 136.789C286.785 136.365 286.687 135.865 286.687 135.287C286.687 134.714 286.785 134.217 286.982 133.795C287.178 133.374 287.452 133.049 287.802 132.819C288.153 132.589 288.557 132.474 289.017 132.474C289.372 132.474 289.652 132.534 289.858 132.652C290.067 132.768 290.225 132.901 290.334 133.05C290.445 133.196 290.532 133.317 290.593 133.412H290.664V130.727H291.502V138H290.693V137.162H290.593C290.532 137.261 290.444 137.387 290.331 137.538C290.217 137.687 290.055 137.821 289.844 137.94C289.633 138.056 289.353 138.114 289.002 138.114ZM289.116 137.361C289.452 137.361 289.736 137.273 289.968 137.098C290.2 136.92 290.377 136.675 290.498 136.363C290.618 136.048 290.679 135.685 290.679 135.273C290.679 134.866 290.619 134.509 290.501 134.204C290.383 133.896 290.208 133.657 289.975 133.487C289.743 133.314 289.457 133.227 289.116 133.227C288.761 133.227 288.465 133.318 288.228 133.501C287.994 133.681 287.818 133.926 287.699 134.236C287.583 134.544 287.525 134.889 287.525 135.273C287.525 135.661 287.584 136.014 287.703 136.331C287.824 136.646 288.001 136.897 288.235 137.084C288.472 137.268 288.766 137.361 289.116 137.361ZM293.154 138V132.545H293.992V138H293.154ZM293.58 131.636C293.417 131.636 293.276 131.581 293.157 131.469C293.041 131.358 292.983 131.224 292.983 131.068C292.983 130.912 293.041 130.778 293.157 130.667C293.276 130.556 293.417 130.5 293.58 130.5C293.743 130.5 293.883 130.556 293.999 130.667C294.117 130.778 294.176 130.912 294.176 131.068C294.176 131.224 294.117 131.358 293.999 131.469C293.883 131.581 293.743 131.636 293.58 131.636ZM295.527 138V132.545H296.336V133.369H296.393C296.493 133.099 296.673 132.88 296.933 132.712C297.193 132.544 297.487 132.46 297.814 132.46C297.875 132.46 297.952 132.461 298.045 132.464C298.137 132.466 298.207 132.47 298.254 132.474V133.327C298.226 133.32 298.161 133.309 298.059 133.295C297.959 133.278 297.854 133.27 297.743 133.27C297.478 133.27 297.241 133.326 297.032 133.437C296.827 133.546 296.663 133.697 296.542 133.891C296.424 134.083 296.365 134.302 296.365 134.548V138H295.527ZM301.368 138.114C300.843 138.114 300.39 137.998 300.008 137.766C299.63 137.531 299.337 137.205 299.131 136.786C298.928 136.364 298.826 135.874 298.826 135.315C298.826 134.757 298.928 134.264 299.131 133.838C299.337 133.41 299.624 133.076 299.991 132.837C300.36 132.595 300.791 132.474 301.283 132.474C301.567 132.474 301.848 132.522 302.125 132.616C302.402 132.711 302.654 132.865 302.881 133.078C303.108 133.289 303.29 133.568 303.425 133.916C303.559 134.264 303.627 134.693 303.627 135.202V135.557H299.422V134.832H302.775C302.775 134.525 302.713 134.25 302.59 134.009C302.469 133.767 302.296 133.576 302.072 133.437C301.849 133.297 301.586 133.227 301.283 133.227C300.949 133.227 300.661 133.31 300.417 133.476C300.175 133.639 299.989 133.852 299.859 134.115C299.729 134.378 299.664 134.66 299.664 134.96V135.443C299.664 135.855 299.735 136.204 299.877 136.491C300.021 136.775 300.221 136.991 300.477 137.141C300.733 137.287 301.03 137.361 301.368 137.361C301.589 137.361 301.787 137.33 301.965 137.268C302.145 137.205 302.3 137.11 302.43 136.984C302.56 136.857 302.661 136.698 302.732 136.509L303.542 136.736C303.456 137.01 303.313 137.252 303.112 137.46C302.911 137.666 302.662 137.827 302.366 137.943C302.07 138.057 301.738 138.114 301.368 138.114ZM307.118 138.114C306.606 138.114 306.166 137.993 305.797 137.751C305.427 137.51 305.143 137.177 304.944 136.754C304.746 136.33 304.646 135.846 304.646 135.301C304.646 134.747 304.748 134.258 304.952 133.835C305.157 133.408 305.444 133.076 305.811 132.837C306.18 132.595 306.611 132.474 307.104 132.474C307.487 132.474 307.833 132.545 308.14 132.688C308.448 132.83 308.7 133.028 308.897 133.284C309.093 133.54 309.215 133.838 309.263 134.179H308.425C308.361 133.93 308.219 133.71 307.998 133.518C307.781 133.324 307.487 133.227 307.118 133.227C306.791 133.227 306.505 133.312 306.258 133.483C306.015 133.651 305.824 133.889 305.687 134.197C305.552 134.502 305.484 134.861 305.484 135.273C305.484 135.694 305.55 136.061 305.683 136.374C305.818 136.686 306.007 136.929 306.251 137.102C306.497 137.274 306.786 137.361 307.118 137.361C307.336 137.361 307.533 137.323 307.711 137.247C307.888 137.171 308.039 137.062 308.162 136.92C308.285 136.778 308.372 136.608 308.425 136.409H309.263C309.215 136.731 309.098 137.021 308.911 137.279C308.726 137.535 308.481 137.738 308.176 137.89C307.873 138.039 307.52 138.114 307.118 138.114ZM312.86 132.545V133.256H310.033V132.545H312.86ZM310.857 131.239H311.695V136.438C311.695 136.674 311.729 136.852 311.798 136.97C311.869 137.086 311.959 137.164 312.068 137.205C312.179 137.242 312.296 137.261 312.42 137.261C312.512 137.261 312.588 137.257 312.647 137.247C312.706 137.235 312.753 137.226 312.789 137.219L312.959 137.972C312.903 137.993 312.823 138.014 312.721 138.036C312.62 138.059 312.491 138.071 312.334 138.071C312.098 138.071 311.866 138.02 311.638 137.918C311.413 137.817 311.226 137.661 311.077 137.453C310.93 137.245 310.857 136.982 310.857 136.665V131.239ZM315.076 130.727V138H314.238V130.727H315.076ZM317.151 140.045C317.009 140.045 316.882 140.034 316.771 140.01C316.659 139.989 316.582 139.967 316.54 139.946L316.753 139.207C316.956 139.259 317.136 139.278 317.293 139.264C317.449 139.25 317.587 139.18 317.708 139.055C317.831 138.932 317.944 138.732 318.045 138.455L318.202 138.028L316.185 132.545H317.094L318.599 136.892H318.656L320.162 132.545H321.071L318.756 138.795C318.652 139.077 318.522 139.31 318.369 139.495C318.215 139.682 318.036 139.821 317.832 139.911C317.631 140 317.404 140.045 317.151 140.045ZM324.99 138V132.545H325.828V138H324.99ZM325.416 131.636C325.252 131.636 325.112 131.581 324.993 131.469C324.877 131.358 324.819 131.224 324.819 131.068C324.819 130.912 324.877 130.778 324.993 130.667C325.112 130.556 325.252 130.5 325.416 130.5C325.579 130.5 325.719 130.556 325.835 130.667C325.953 130.778 326.012 130.912 326.012 131.068C326.012 131.224 325.953 131.358 325.835 131.469C325.719 131.581 325.579 131.636 325.416 131.636ZM328.201 134.719V138H327.363V132.545H328.172V133.398H328.243C328.371 133.121 328.565 132.898 328.826 132.73C329.086 132.56 329.422 132.474 329.834 132.474C330.204 132.474 330.527 132.55 330.804 132.702C331.081 132.851 331.296 133.078 331.45 133.384C331.604 133.687 331.681 134.07 331.681 134.534V138H330.843V134.591C330.843 134.162 330.732 133.829 330.509 133.589C330.287 133.348 329.981 133.227 329.593 133.227C329.325 133.227 329.086 133.285 328.876 133.401C328.667 133.517 328.503 133.687 328.382 133.909C328.261 134.132 328.201 134.402 328.201 134.719ZM335.641 132.545V133.256H332.701V132.545H335.641ZM333.582 138V131.793C333.582 131.48 333.655 131.22 333.802 131.011C333.949 130.803 334.139 130.647 334.374 130.543C334.608 130.438 334.855 130.386 335.116 130.386C335.322 130.386 335.49 130.403 335.62 130.436C335.75 130.469 335.847 130.5 335.911 130.528L335.67 131.253C335.627 131.239 335.568 131.221 335.492 131.2C335.419 131.178 335.322 131.168 335.201 131.168C334.924 131.168 334.724 131.237 334.601 131.377C334.48 131.517 334.42 131.722 334.42 131.991V138H333.582ZM337.654 130.727V138H336.816V130.727H337.654ZM342.626 135.77V132.545H343.464V138H342.626V137.077H342.57C342.442 137.354 342.243 137.589 341.973 137.783C341.703 137.975 341.362 138.071 340.95 138.071C340.609 138.071 340.306 137.996 340.041 137.847C339.776 137.696 339.568 137.469 339.416 137.165C339.265 136.86 339.189 136.475 339.189 136.011V132.545H340.027V135.955C340.027 136.352 340.138 136.67 340.361 136.906C340.586 137.143 340.872 137.261 341.22 137.261C341.429 137.261 341.64 137.208 341.856 137.102C342.074 136.995 342.256 136.832 342.403 136.612C342.552 136.391 342.626 136.111 342.626 135.77ZM347.286 138.114C346.761 138.114 346.307 137.998 345.926 137.766C345.548 137.531 345.255 137.205 345.049 136.786C344.846 136.364 344.744 135.874 344.744 135.315C344.744 134.757 344.846 134.264 345.049 133.838C345.255 133.41 345.542 133.076 345.909 132.837C346.278 132.595 346.709 132.474 347.201 132.474C347.485 132.474 347.766 132.522 348.043 132.616C348.32 132.711 348.572 132.865 348.799 133.078C349.026 133.289 349.208 133.568 349.343 133.916C349.477 134.264 349.545 134.693 349.545 135.202V135.557H345.34V134.832H348.693C348.693 134.525 348.631 134.25 348.508 134.009C348.387 133.767 348.214 133.576 347.99 133.437C347.767 133.297 347.504 133.227 347.201 133.227C346.867 133.227 346.579 133.31 346.335 133.476C346.093 133.639 345.907 133.852 345.777 134.115C345.647 134.378 345.582 134.66 345.582 134.96V135.443C345.582 135.855 345.653 136.204 345.795 136.491C345.939 136.775 346.139 136.991 346.395 137.141C346.651 137.287 346.948 137.361 347.286 137.361C347.507 137.361 347.705 137.33 347.883 137.268C348.063 137.205 348.218 137.11 348.348 136.984C348.478 136.857 348.579 136.698 348.65 136.509L349.46 136.736C349.374 137.01 349.231 137.252 349.03 137.46C348.829 137.666 348.58 137.827 348.284 137.943C347.988 138.057 347.656 138.114 347.286 138.114ZM351.658 134.719V138H350.82V132.545H351.629V133.398H351.7C351.828 133.121 352.022 132.898 352.283 132.73C352.543 132.56 352.879 132.474 353.291 132.474C353.661 132.474 353.984 132.55 354.261 132.702C354.538 132.851 354.753 133.078 354.907 133.384C355.061 133.687 355.138 134.07 355.138 134.534V138H354.3V134.591C354.3 134.162 354.189 133.829 353.966 133.589C353.744 133.348 353.438 133.227 353.05 133.227C352.782 133.227 352.543 133.285 352.333 133.401C352.124 133.517 351.96 133.687 351.839 133.909C351.718 134.132 351.658 134.402 351.658 134.719ZM358.885 138.114C358.374 138.114 357.934 137.993 357.564 137.751C357.195 137.51 356.911 137.177 356.712 136.754C356.513 136.33 356.414 135.846 356.414 135.301C356.414 134.747 356.516 134.258 356.719 133.835C356.925 133.408 357.212 133.076 357.578 132.837C357.948 132.595 358.379 132.474 358.871 132.474C359.255 132.474 359.6 132.545 359.908 132.688C360.216 132.83 360.468 133.028 360.664 133.284C360.861 133.54 360.983 133.838 361.03 134.179H360.192C360.128 133.93 359.986 133.71 359.766 133.518C359.548 133.324 359.255 133.227 358.885 133.227C358.559 133.227 358.272 133.312 358.026 133.483C357.782 133.651 357.592 133.889 357.454 134.197C357.319 134.502 357.252 134.861 357.252 135.273C357.252 135.694 357.318 136.061 357.451 136.374C357.586 136.686 357.775 136.929 358.019 137.102C358.265 137.274 358.554 137.361 358.885 137.361C359.103 137.361 359.301 137.323 359.478 137.247C359.656 137.171 359.806 137.062 359.929 136.92C360.052 136.778 360.14 136.608 360.192 136.409H361.03C360.983 136.731 360.866 137.021 360.679 137.279C360.494 137.535 360.249 137.738 359.944 137.89C359.641 138.039 359.288 138.114 358.885 138.114ZM364.542 138.114C364.017 138.114 363.563 137.998 363.182 137.766C362.803 137.531 362.511 137.205 362.305 136.786C362.101 136.364 362 135.874 362 135.315C362 134.757 362.101 134.264 362.305 133.838C362.511 133.41 362.797 133.076 363.164 132.837C363.534 132.595 363.965 132.474 364.457 132.474C364.741 132.474 365.022 132.522 365.299 132.616C365.576 132.711 365.828 132.865 366.055 133.078C366.282 133.289 366.463 133.568 366.598 133.916C366.733 134.264 366.801 134.693 366.801 135.202V135.557H362.596V134.832H365.949C365.949 134.525 365.887 134.25 365.764 134.009C365.643 133.767 365.47 133.576 365.245 133.437C365.023 133.297 364.76 133.227 364.457 133.227C364.123 133.227 363.834 133.31 363.591 133.476C363.349 133.639 363.163 133.852 363.033 134.115C362.903 134.378 362.838 134.66 362.838 134.96V135.443C362.838 135.855 362.909 136.204 363.051 136.491C363.195 136.775 363.395 136.991 363.651 137.141C363.907 137.287 364.204 137.361 364.542 137.361C364.762 137.361 364.961 137.33 365.139 137.268C365.319 137.205 365.474 137.11 365.604 136.984C365.734 136.857 365.835 136.698 365.906 136.509L366.716 136.736C366.63 137.01 366.487 137.252 366.286 137.46C366.085 137.666 365.836 137.827 365.54 137.943C365.244 138.057 364.912 138.114 364.542 138.114ZM371.939 133.767L371.186 133.98C371.139 133.855 371.069 133.733 370.977 133.614C370.887 133.494 370.764 133.394 370.608 133.316C370.451 133.238 370.251 133.199 370.007 133.199C369.674 133.199 369.395 133.276 369.173 133.43C368.953 133.581 368.843 133.774 368.843 134.009C368.843 134.217 368.918 134.381 369.07 134.502C369.221 134.623 369.458 134.723 369.78 134.804L370.59 135.003C371.078 135.121 371.441 135.302 371.68 135.546C371.919 135.788 372.039 136.099 372.039 136.48C372.039 136.793 371.949 137.072 371.769 137.318C371.591 137.564 371.343 137.759 371.023 137.901C370.703 138.043 370.332 138.114 369.908 138.114C369.352 138.114 368.891 137.993 368.527 137.751C368.162 137.51 367.931 137.157 367.834 136.693L368.63 136.494C368.705 136.788 368.849 137.008 369.059 137.155C369.272 137.302 369.551 137.375 369.894 137.375C370.284 137.375 370.595 137.292 370.824 137.126C371.056 136.958 371.172 136.757 371.172 136.523C371.172 136.333 371.106 136.175 370.973 136.047C370.841 135.917 370.637 135.82 370.363 135.756L369.453 135.543C368.954 135.424 368.587 135.241 368.353 134.992C368.121 134.741 368.005 134.428 368.005 134.051C368.005 133.743 368.091 133.471 368.264 133.234C368.439 132.998 368.677 132.812 368.978 132.677C369.281 132.542 369.624 132.474 370.007 132.474C370.547 132.474 370.971 132.593 371.279 132.83C371.589 133.066 371.809 133.379 371.939 133.767ZM378.485 132.545V133.256H375.658V132.545H378.485ZM376.482 131.239H377.32V136.438C377.32 136.674 377.354 136.852 377.423 136.97C377.494 137.086 377.584 137.164 377.693 137.205C377.804 137.242 377.921 137.261 378.045 137.261C378.137 137.261 378.213 137.257 378.272 137.247C378.331 137.235 378.378 137.226 378.414 137.219L378.584 137.972C378.528 137.993 378.448 138.014 378.346 138.036C378.245 138.059 378.116 138.071 377.959 138.071C377.723 138.071 377.491 138.02 377.263 137.918C377.038 137.817 376.851 137.661 376.702 137.453C376.555 137.245 376.482 136.982 376.482 136.665V131.239ZM380.701 134.719V138H379.863V130.727H380.701V133.398H380.772C380.9 133.116 381.091 132.892 381.347 132.727C381.605 132.558 381.948 132.474 382.377 132.474C382.749 132.474 383.074 132.549 383.354 132.698C383.633 132.845 383.849 133.071 384.003 133.376C384.16 133.679 384.238 134.065 384.238 134.534V138H383.4V134.591C383.4 134.158 383.287 133.823 383.062 133.586C382.84 133.347 382.531 133.227 382.135 133.227C381.861 133.227 381.615 133.285 381.397 133.401C381.181 133.517 381.011 133.687 380.885 133.909C380.762 134.132 380.701 134.402 380.701 134.719ZM388.058 138.114C387.532 138.114 387.079 137.998 386.698 137.766C386.319 137.531 386.027 137.205 385.821 136.786C385.617 136.364 385.515 135.874 385.515 135.315C385.515 134.757 385.617 134.264 385.821 133.838C386.027 133.41 386.313 133.076 386.68 132.837C387.049 132.595 387.48 132.474 387.973 132.474C388.257 132.474 388.537 132.522 388.814 132.616C389.091 132.711 389.343 132.865 389.571 133.078C389.798 133.289 389.979 133.568 390.114 133.916C390.249 134.264 390.316 134.693 390.316 135.202V135.557H386.112V134.832H389.464C389.464 134.525 389.403 134.25 389.279 134.009C389.159 133.767 388.986 133.576 388.761 133.437C388.538 133.297 388.276 133.227 387.973 133.227C387.639 133.227 387.35 133.31 387.106 133.476C386.865 133.639 386.679 133.852 386.549 134.115C386.418 134.378 386.353 134.66 386.353 134.96V135.443C386.353 135.855 386.424 136.204 386.566 136.491C386.711 136.775 386.911 136.991 387.167 137.141C387.422 137.287 387.719 137.361 388.058 137.361C388.278 137.361 388.477 137.33 388.654 137.268C388.834 137.205 388.989 137.11 389.12 136.984C389.25 136.857 389.35 136.698 389.422 136.509L390.231 136.736C390.146 137.01 390.003 137.252 389.801 137.46C389.6 137.666 389.352 137.827 389.056 137.943C388.76 138.057 388.427 138.114 388.058 138.114Z" fill="#505050"/>
<path d="M347.946 126V120.545H349.459V126H347.946ZM348.706 119.842C348.482 119.842 348.289 119.768 348.128 119.619C347.969 119.467 347.89 119.286 347.89 119.075C347.89 118.867 347.969 118.688 348.128 118.539C348.289 118.388 348.482 118.312 348.706 118.312C348.931 118.312 349.123 118.388 349.282 118.539C349.443 118.688 349.523 118.867 349.523 119.075C349.523 119.286 349.443 119.467 349.282 119.619C349.123 119.768 348.931 119.842 348.706 119.842ZM352.184 122.847V126H350.671V120.545H352.113V121.508H352.177C352.297 121.191 352.5 120.94 352.784 120.755C353.068 120.568 353.413 120.474 353.817 120.474C354.196 120.474 354.526 120.557 354.808 120.723C355.09 120.889 355.309 121.125 355.465 121.433C355.621 121.739 355.699 122.103 355.699 122.527V126H354.187V122.797C354.189 122.463 354.104 122.203 353.931 122.016C353.758 121.826 353.52 121.732 353.217 121.732C353.014 121.732 352.834 121.775 352.677 121.863C352.524 121.951 352.403 122.078 352.315 122.246C352.23 122.412 352.186 122.612 352.184 122.847ZM356.892 128.045V120.545H358.383V121.462H358.451C358.517 121.315 358.613 121.166 358.738 121.014C358.866 120.86 359.032 120.732 359.236 120.631C359.441 120.527 359.697 120.474 360.003 120.474C360.4 120.474 360.767 120.579 361.103 120.787C361.44 120.993 361.708 121.304 361.91 121.721C362.111 122.135 362.211 122.655 362.211 123.28C362.211 123.888 362.113 124.402 361.917 124.821C361.723 125.238 361.457 125.554 361.121 125.769C360.787 125.982 360.413 126.089 359.999 126.089C359.705 126.089 359.456 126.04 359.25 125.943C359.046 125.846 358.879 125.724 358.749 125.577C358.619 125.428 358.519 125.278 358.451 125.126H358.405V128.045H356.892ZM358.373 123.273C358.373 123.597 358.418 123.88 358.508 124.121C358.598 124.363 358.728 124.551 358.898 124.686C359.069 124.819 359.276 124.885 359.52 124.885C359.766 124.885 359.974 124.817 360.145 124.683C360.315 124.545 360.444 124.356 360.532 124.114C360.622 123.871 360.667 123.59 360.667 123.273C360.667 122.958 360.623 122.681 360.535 122.442C360.448 122.203 360.319 122.016 360.148 121.881C359.978 121.746 359.768 121.678 359.52 121.678C359.273 121.678 359.065 121.743 358.895 121.874C358.727 122.004 358.598 122.188 358.508 122.428C358.418 122.667 358.373 122.948 358.373 123.273ZM366.718 123.678V120.545H368.231V126H366.778V125.009H366.721C366.598 125.329 366.393 125.586 366.107 125.78C365.823 125.974 365.476 126.071 365.066 126.071C364.702 126.071 364.381 125.988 364.104 125.822C363.827 125.657 363.611 125.421 363.454 125.116C363.3 124.81 363.222 124.445 363.22 124.018V120.545H364.733V123.749C364.735 124.071 364.821 124.325 364.992 124.512C365.162 124.699 365.391 124.793 365.677 124.793C365.86 124.793 366.03 124.751 366.189 124.668C366.347 124.583 366.475 124.458 366.572 124.292C366.672 124.126 366.72 123.921 366.718 123.678ZM372.342 120.545V121.682H369.057V120.545H372.342ZM369.803 119.239H371.316V124.324C371.316 124.464 371.337 124.572 371.38 124.651C371.422 124.726 371.481 124.78 371.557 124.81C371.635 124.841 371.725 124.857 371.827 124.857C371.898 124.857 371.969 124.851 372.04 124.839C372.111 124.825 372.166 124.814 372.203 124.807L372.441 125.933C372.366 125.956 372.259 125.983 372.122 126.014C371.984 126.047 371.818 126.067 371.621 126.075C371.256 126.089 370.937 126.04 370.662 125.929C370.39 125.818 370.178 125.645 370.027 125.411C369.875 125.176 369.8 124.88 369.803 124.523V119.239Z" fill="#BE3B3B"/>
<path d="M325.23 150.107C324.679 150.107 324.202 149.989 323.799 149.755C323.399 149.518 323.09 149.189 322.872 148.768C322.655 148.344 322.546 147.853 322.546 147.294C322.546 146.731 322.655 146.238 322.872 145.817C323.09 145.393 323.399 145.064 323.799 144.83C324.202 144.593 324.679 144.474 325.23 144.474C325.782 144.474 326.258 144.593 326.658 144.83C327.06 145.064 327.37 145.393 327.588 145.817C327.806 146.238 327.915 146.731 327.915 147.294C327.915 147.853 327.806 148.344 327.588 148.768C327.37 149.189 327.06 149.518 326.658 149.755C326.258 149.989 325.782 150.107 325.23 150.107ZM325.237 148.935C325.488 148.935 325.698 148.864 325.866 148.722C326.034 148.577 326.161 148.381 326.246 148.132C326.334 147.884 326.377 147.601 326.377 147.283C326.377 146.966 326.334 146.683 326.246 146.435C326.161 146.186 326.034 145.99 325.866 145.845C325.698 145.701 325.488 145.629 325.237 145.629C324.984 145.629 324.771 145.701 324.598 145.845C324.428 145.99 324.299 146.186 324.211 146.435C324.126 146.683 324.083 146.966 324.083 147.283C324.083 147.601 324.126 147.884 324.211 148.132C324.299 148.381 324.428 148.577 324.598 148.722C324.771 148.864 324.984 148.935 325.237 148.935ZM332.396 147.678V144.545H333.909V150H332.457V149.009H332.4C332.277 149.329 332.072 149.586 331.786 149.78C331.502 149.974 331.155 150.071 330.745 150.071C330.381 150.071 330.06 149.988 329.783 149.822C329.506 149.657 329.289 149.421 329.133 149.116C328.979 148.81 328.901 148.445 328.899 148.018V144.545H330.411V147.749C330.414 148.071 330.5 148.325 330.671 148.512C330.841 148.699 331.07 148.793 331.356 148.793C331.538 148.793 331.709 148.751 331.867 148.668C332.026 148.583 332.154 148.458 332.251 148.292C332.35 148.126 332.399 147.921 332.396 147.678ZM338.021 144.545V145.682H334.736V144.545H338.021ZM335.482 143.239H336.994V148.324C336.994 148.464 337.016 148.572 337.058 148.651C337.101 148.726 337.16 148.78 337.236 148.81C337.314 148.841 337.404 148.857 337.506 148.857C337.577 148.857 337.648 148.851 337.719 148.839C337.79 148.825 337.844 148.814 337.882 148.807L338.12 149.933C338.044 149.956 337.938 149.983 337.8 150.014C337.663 150.047 337.496 150.067 337.3 150.075C336.935 150.089 336.616 150.04 336.341 149.929C336.069 149.818 335.857 149.645 335.705 149.411C335.554 149.176 335.479 148.88 335.482 148.523V143.239ZM339.006 152.045V144.545H340.498V145.462H340.565C340.631 145.315 340.727 145.166 340.853 145.014C340.98 144.86 341.146 144.732 341.35 144.631C341.556 144.527 341.811 144.474 342.117 144.474C342.515 144.474 342.882 144.579 343.218 144.787C343.554 144.993 343.823 145.304 344.024 145.721C344.225 146.135 344.326 146.655 344.326 147.28C344.326 147.888 344.227 148.402 344.031 148.821C343.837 149.238 343.572 149.554 343.235 149.769C342.902 149.982 342.528 150.089 342.113 150.089C341.82 150.089 341.57 150.04 341.364 149.943C341.16 149.846 340.993 149.724 340.863 149.577C340.733 149.428 340.634 149.278 340.565 149.126H340.519V152.045H339.006ZM340.487 147.273C340.487 147.597 340.532 147.88 340.622 148.121C340.712 148.363 340.842 148.551 341.012 148.686C341.183 148.819 341.39 148.885 341.634 148.885C341.88 148.885 342.088 148.817 342.259 148.683C342.429 148.545 342.558 148.356 342.646 148.114C342.736 147.871 342.781 147.59 342.781 147.273C342.781 146.958 342.737 146.681 342.65 146.442C342.562 146.203 342.433 146.016 342.262 145.881C342.092 145.746 341.882 145.678 341.634 145.678C341.388 145.678 341.179 145.743 341.009 145.874C340.841 146.004 340.712 146.188 340.622 146.428C340.532 146.667 340.487 146.948 340.487 147.273ZM348.832 147.678V144.545H350.345V150H348.892V149.009H348.836C348.712 149.329 348.508 149.586 348.221 149.78C347.937 149.974 347.59 150.071 347.181 150.071C346.816 150.071 346.495 149.988 346.218 149.822C345.941 149.657 345.725 149.421 345.569 149.116C345.415 148.81 345.337 148.445 345.334 148.018V144.545H346.847V147.749C346.849 148.071 346.936 148.325 347.106 148.512C347.277 148.699 347.505 148.793 347.792 148.793C347.974 148.793 348.144 148.751 348.303 148.668C348.462 148.583 348.589 148.458 348.686 148.292C348.786 148.126 348.834 147.921 348.832 147.678ZM354.456 144.545V145.682H351.171V144.545H354.456ZM351.917 143.239H353.43V148.324C353.43 148.464 353.451 148.572 353.494 148.651C353.536 148.726 353.596 148.78 353.671 148.81C353.749 148.841 353.839 148.857 353.941 148.857C354.012 148.857 354.083 148.851 354.154 148.839C354.225 148.825 354.28 148.814 354.318 148.807L354.556 149.933C354.48 149.956 354.373 149.983 354.236 150.014C354.099 150.047 353.932 150.067 353.735 150.075C353.371 150.089 353.051 150.04 352.776 149.929C352.504 149.818 352.292 149.645 352.141 149.411C351.989 149.176 351.915 148.88 351.917 148.523V143.239Z" fill="#743BBE"/>
<line x1="256.5" y1="112" x2="256.5" y2="92" stroke="#505050" stroke-dasharray="2 2"/>
<line x1="419" y1="113.5" x2="257" y2="113.5" stroke="#505050" stroke-dasharray="2 2"/>
<line x1="419.5" y1="92" x2="419.5" y2="112" stroke="#505050" stroke-dasharray="2 2"/>
<path d="M123.047 126V118.727H124.585V121.728H127.706V118.727H129.24V126H127.706V122.996H124.585V126H123.047ZM132.944 126.107C132.393 126.107 131.916 125.989 131.513 125.755C131.113 125.518 130.804 125.189 130.586 124.768C130.368 124.344 130.259 123.853 130.259 123.294C130.259 122.731 130.368 122.238 130.586 121.817C130.804 121.393 131.113 121.064 131.513 120.83C131.916 120.593 132.393 120.474 132.944 120.474C133.496 120.474 133.972 120.593 134.372 120.83C134.774 121.064 135.084 121.393 135.302 121.817C135.52 122.238 135.629 122.731 135.629 123.294C135.629 123.853 135.52 124.344 135.302 124.768C135.084 125.189 134.774 125.518 134.372 125.755C133.972 125.989 133.496 126.107 132.944 126.107ZM132.951 124.935C133.202 124.935 133.412 124.864 133.58 124.722C133.748 124.577 133.875 124.381 133.96 124.132C134.047 123.884 134.091 123.601 134.091 123.283C134.091 122.966 134.047 122.683 133.96 122.435C133.875 122.186 133.748 121.99 133.58 121.845C133.412 121.701 133.202 121.629 132.951 121.629C132.698 121.629 132.485 121.701 132.312 121.845C132.142 121.99 132.013 122.186 131.925 122.435C131.84 122.683 131.797 122.966 131.797 123.283C131.797 123.601 131.84 123.884 131.925 124.132C132.013 124.381 132.142 124.577 132.312 124.722C132.485 124.864 132.698 124.935 132.951 124.935ZM137.552 126L136.067 120.545H137.598L138.443 124.21H138.493L139.373 120.545H140.876L141.771 124.189H141.817L142.648 120.545H144.175L142.694 126H141.092L140.155 122.57H140.087L139.15 126H137.552Z" fill="#0847A6"/>
<path d="M150.33 120.545V121.256H147.503V120.545H150.33ZM148.327 119.239H149.165V124.438C149.165 124.674 149.199 124.852 149.268 124.97C149.339 125.086 149.429 125.164 149.538 125.205C149.649 125.242 149.766 125.261 149.889 125.261C149.982 125.261 150.057 125.257 150.117 125.247C150.176 125.235 150.223 125.226 150.259 125.219L150.429 125.972C150.372 125.993 150.293 126.014 150.191 126.036C150.089 126.059 149.96 126.071 149.804 126.071C149.567 126.071 149.335 126.02 149.108 125.918C148.883 125.817 148.696 125.661 148.547 125.453C148.4 125.245 148.327 124.982 148.327 124.665V119.239ZM152.546 122.719V126H151.707V118.727H152.546V121.398H152.617C152.744 121.116 152.936 120.892 153.192 120.727C153.45 120.558 153.793 120.474 154.222 120.474C154.593 120.474 154.919 120.549 155.198 120.698C155.478 120.845 155.694 121.071 155.848 121.376C156.004 121.679 156.082 122.065 156.082 122.534V126H155.244V122.591C155.244 122.158 155.132 121.823 154.907 121.586C154.685 121.347 154.376 121.227 153.98 121.227C153.706 121.227 153.459 121.285 153.242 121.401C153.026 121.517 152.856 121.687 152.73 121.909C152.607 122.132 152.546 122.402 152.546 122.719ZM159.903 126.114C159.377 126.114 158.924 125.998 158.543 125.766C158.164 125.531 157.871 125.205 157.665 124.786C157.462 124.364 157.36 123.874 157.36 123.315C157.36 122.757 157.462 122.264 157.665 121.838C157.871 121.41 158.158 121.076 158.525 120.837C158.894 120.595 159.325 120.474 159.817 120.474C160.101 120.474 160.382 120.522 160.659 120.616C160.936 120.711 161.188 120.865 161.415 121.078C161.643 121.289 161.824 121.568 161.959 121.916C162.094 122.264 162.161 122.693 162.161 123.202V123.557H157.957V122.832H161.309C161.309 122.525 161.247 122.25 161.124 122.009C161.003 121.767 160.831 121.576 160.606 121.437C160.383 121.297 160.12 121.227 159.817 121.227C159.484 121.227 159.195 121.31 158.951 121.476C158.709 121.639 158.524 121.852 158.393 122.115C158.263 122.378 158.198 122.66 158.198 122.96V123.443C158.198 123.855 158.269 124.204 158.411 124.491C158.556 124.775 158.756 124.991 159.011 125.141C159.267 125.287 159.564 125.361 159.903 125.361C160.123 125.361 160.322 125.33 160.499 125.268C160.679 125.205 160.834 125.11 160.964 124.984C161.095 124.857 161.195 124.698 161.266 124.509L162.076 124.736C161.991 125.01 161.847 125.252 161.646 125.46C161.445 125.666 161.196 125.827 160.9 125.943C160.605 126.057 160.272 126.114 159.903 126.114ZM149.578 132.545V133.256H146.751V132.545H149.578ZM147.575 131.239H148.413V136.438C148.413 136.674 148.447 136.852 148.516 136.97C148.587 137.086 148.677 137.164 148.786 137.205C148.897 137.242 149.014 137.261 149.137 137.261C149.23 137.261 149.305 137.257 149.365 137.247C149.424 137.235 149.471 137.226 149.507 137.219L149.677 137.972C149.62 137.993 149.541 138.014 149.439 138.036C149.337 138.059 149.208 138.071 149.052 138.071C148.815 138.071 148.583 138.02 148.356 137.918C148.131 137.817 147.944 137.661 147.795 137.453C147.648 137.245 147.575 136.982 147.575 136.665V131.239ZM150.838 138V132.545H151.648V133.369H151.705C151.804 133.099 151.984 132.88 152.245 132.712C152.505 132.544 152.799 132.46 153.125 132.46C153.187 132.46 153.264 132.461 153.356 132.464C153.448 132.466 153.518 132.47 153.566 132.474V133.327C153.537 133.32 153.472 133.309 153.37 133.295C153.271 133.278 153.166 133.27 153.054 133.27C152.789 133.27 152.552 133.326 152.344 133.437C152.138 133.546 151.975 133.697 151.854 133.891C151.736 134.083 151.676 134.302 151.676 134.548V138H150.838ZM156.164 138.128C155.819 138.128 155.505 138.063 155.223 137.933C154.941 137.8 154.718 137.609 154.552 137.361C154.386 137.11 154.303 136.807 154.303 136.452C154.303 136.139 154.365 135.886 154.488 135.692C154.611 135.495 154.776 135.341 154.982 135.23C155.188 135.119 155.415 135.036 155.663 134.982C155.914 134.925 156.167 134.88 156.42 134.847C156.751 134.804 157.02 134.772 157.226 134.751C157.434 134.727 157.586 134.688 157.68 134.634C157.778 134.579 157.826 134.484 157.826 134.349V134.321C157.826 133.971 157.73 133.698 157.538 133.504C157.349 133.31 157.061 133.213 156.676 133.213C156.275 133.213 155.962 133.301 155.734 133.476C155.507 133.651 155.347 133.838 155.255 134.037L154.46 133.753C154.602 133.421 154.791 133.163 155.028 132.979C155.267 132.792 155.527 132.661 155.809 132.588C156.093 132.512 156.372 132.474 156.647 132.474C156.822 132.474 157.024 132.496 157.251 132.538C157.48 132.579 157.702 132.663 157.915 132.79C158.13 132.918 158.309 133.111 158.451 133.369C158.593 133.627 158.664 133.973 158.664 134.406V138H157.826V137.261H157.783C157.727 137.38 157.632 137.506 157.499 137.641C157.367 137.776 157.19 137.891 156.97 137.986C156.75 138.08 156.481 138.128 156.164 138.128ZM156.292 137.375C156.623 137.375 156.903 137.31 157.13 137.18C157.36 137.049 157.533 136.881 157.649 136.675C157.767 136.469 157.826 136.253 157.826 136.026V135.259C157.791 135.301 157.712 135.34 157.592 135.376C157.473 135.409 157.336 135.438 157.18 135.464C157.026 135.488 156.876 135.509 156.729 135.528C156.584 135.545 156.467 135.559 156.377 135.571C156.159 135.599 155.956 135.646 155.766 135.71C155.579 135.771 155.428 135.865 155.312 135.99C155.198 136.113 155.141 136.281 155.141 136.494C155.141 136.786 155.249 137.006 155.465 137.155C155.682 137.302 155.958 137.375 156.292 137.375ZM161.032 134.719V138H160.194V132.545H161.003V133.398H161.074C161.202 133.121 161.396 132.898 161.657 132.73C161.917 132.56 162.253 132.474 162.665 132.474C163.035 132.474 163.358 132.55 163.635 132.702C163.912 132.851 164.127 133.078 164.281 133.384C164.435 133.687 164.512 134.07 164.512 134.534V138H163.674V134.591C163.674 134.162 163.563 133.829 163.34 133.589C163.118 133.348 162.812 133.227 162.424 133.227C162.156 133.227 161.917 133.285 161.707 133.401C161.498 133.517 161.334 133.687 161.213 133.909C161.092 134.132 161.032 134.402 161.032 134.719ZM169.907 133.767L169.154 133.98C169.107 133.855 169.037 133.733 168.945 133.614C168.855 133.494 168.732 133.394 168.575 133.316C168.419 133.238 168.219 133.199 167.975 133.199C167.641 133.199 167.363 133.276 167.141 133.43C166.921 133.581 166.81 133.774 166.81 134.009C166.81 134.217 166.886 134.381 167.038 134.502C167.189 134.623 167.426 134.723 167.748 134.804L168.558 135.003C169.045 135.121 169.409 135.302 169.648 135.546C169.887 135.788 170.006 136.099 170.006 136.48C170.006 136.793 169.917 137.072 169.737 137.318C169.559 137.564 169.31 137.759 168.991 137.901C168.671 138.043 168.3 138.114 167.876 138.114C167.319 138.114 166.859 137.993 166.494 137.751C166.13 137.51 165.899 137.157 165.802 136.693L166.597 136.494C166.673 136.788 166.816 137.008 167.027 137.155C167.24 137.302 167.518 137.375 167.862 137.375C168.252 137.375 168.562 137.292 168.792 137.126C169.024 136.958 169.14 136.757 169.14 136.523C169.14 136.333 169.074 136.175 168.941 136.047C168.809 135.917 168.605 135.82 168.33 135.756L167.421 135.543C166.922 135.424 166.555 135.241 166.32 134.992C166.088 134.741 165.972 134.428 165.972 134.051C165.972 133.743 166.059 133.471 166.232 133.234C166.407 132.998 166.645 132.812 166.945 132.677C167.248 132.542 167.592 132.474 167.975 132.474C168.515 132.474 168.939 132.593 169.247 132.83C169.557 133.066 169.777 133.379 169.907 133.767ZM172.106 130.727V138H171.268V130.727H172.106ZM175.246 138.128C174.901 138.128 174.587 138.063 174.305 137.933C174.023 137.8 173.8 137.609 173.634 137.361C173.468 137.11 173.385 136.807 173.385 136.452C173.385 136.139 173.447 135.886 173.57 135.692C173.693 135.495 173.858 135.341 174.064 135.23C174.27 135.119 174.497 135.036 174.745 134.982C174.996 134.925 175.249 134.88 175.502 134.847C175.833 134.804 176.102 134.772 176.308 134.751C176.516 134.727 176.668 134.688 176.763 134.634C176.86 134.579 176.908 134.484 176.908 134.349V134.321C176.908 133.971 176.812 133.698 176.62 133.504C176.431 133.31 176.143 133.213 175.758 133.213C175.357 133.213 175.044 133.301 174.816 133.476C174.589 133.651 174.429 133.838 174.337 134.037L173.542 133.753C173.684 133.421 173.873 133.163 174.11 132.979C174.349 132.792 174.609 132.661 174.891 132.588C175.175 132.512 175.455 132.474 175.729 132.474C175.904 132.474 176.106 132.496 176.333 132.538C176.562 132.579 176.784 132.663 176.997 132.79C177.212 132.918 177.391 133.111 177.533 133.369C177.675 133.627 177.746 133.973 177.746 134.406V138H176.908V137.261H176.866C176.809 137.38 176.714 137.506 176.581 137.641C176.449 137.776 176.272 137.891 176.052 137.986C175.832 138.08 175.563 138.128 175.246 138.128ZM175.374 137.375C175.705 137.375 175.985 137.31 176.212 137.18C176.442 137.049 176.615 136.881 176.731 136.675C176.849 136.469 176.908 136.253 176.908 136.026V135.259C176.873 135.301 176.794 135.34 176.674 135.376C176.555 135.409 176.418 135.438 176.262 135.464C176.108 135.488 175.958 135.509 175.811 135.528C175.666 135.545 175.549 135.559 175.459 135.571C175.241 135.599 175.038 135.646 174.848 135.71C174.661 135.771 174.51 135.865 174.394 135.99C174.28 136.113 174.223 136.281 174.223 136.494C174.223 136.786 174.331 137.006 174.547 137.155C174.764 137.302 175.04 137.375 175.374 137.375ZM181.648 132.545V133.256H178.821V132.545H181.648ZM179.645 131.239H180.483V136.438C180.483 136.674 180.518 136.852 180.586 136.97C180.657 137.086 180.747 137.164 180.856 137.205C180.967 137.242 181.085 137.261 181.208 137.261C181.3 137.261 181.376 137.257 181.435 137.247C181.494 137.235 181.541 137.226 181.577 137.219L181.747 137.972C181.691 137.993 181.611 138.014 181.509 138.036C181.408 138.059 181.279 138.071 181.122 138.071C180.886 138.071 180.654 138.02 180.426 137.918C180.201 137.817 180.014 137.661 179.865 137.453C179.719 137.245 179.645 136.982 179.645 136.665V131.239ZM185.137 138.114C184.611 138.114 184.158 137.998 183.777 137.766C183.398 137.531 183.106 137.205 182.9 136.786C182.696 136.364 182.594 135.874 182.594 135.315C182.594 134.757 182.696 134.264 182.9 133.838C183.106 133.41 183.392 133.076 183.759 132.837C184.128 132.595 184.559 132.474 185.052 132.474C185.336 132.474 185.616 132.522 185.893 132.616C186.17 132.711 186.422 132.865 186.65 133.078C186.877 133.289 187.058 133.568 187.193 133.916C187.328 134.264 187.396 134.693 187.396 135.202V135.557H183.191V134.832H186.543C186.543 134.525 186.482 134.25 186.359 134.009C186.238 133.767 186.065 133.576 185.84 133.437C185.618 133.297 185.355 133.227 185.052 133.227C184.718 133.227 184.429 133.31 184.185 133.476C183.944 133.639 183.758 133.852 183.628 134.115C183.498 134.378 183.432 134.66 183.432 134.96V135.443C183.432 135.855 183.503 136.204 183.646 136.491C183.79 136.775 183.99 136.991 184.246 137.141C184.501 137.287 184.798 137.361 185.137 137.361C185.357 137.361 185.556 137.33 185.734 137.268C185.914 137.205 186.069 137.11 186.199 136.984C186.329 136.857 186.43 136.698 186.501 136.509L187.31 136.736C187.225 137.01 187.082 137.252 186.881 137.46C186.679 137.666 186.431 137.827 186.135 137.943C185.839 138.057 185.506 138.114 185.137 138.114ZM192.534 133.767L191.781 133.98C191.734 133.855 191.664 133.733 191.572 133.614C191.482 133.494 191.359 133.394 191.202 133.316C191.046 133.238 190.846 133.199 190.602 133.199C190.268 133.199 189.99 133.276 189.768 133.43C189.547 133.581 189.437 133.774 189.437 134.009C189.437 134.217 189.513 134.381 189.665 134.502C189.816 134.623 190.053 134.723 190.375 134.804L191.185 135.003C191.672 135.121 192.036 135.302 192.275 135.546C192.514 135.788 192.633 136.099 192.633 136.48C192.633 136.793 192.543 137.072 192.364 137.318C192.186 137.564 191.937 137.759 191.618 137.901C191.298 138.043 190.927 138.114 190.503 138.114C189.946 138.114 189.486 137.993 189.121 137.751C188.757 137.51 188.526 137.157 188.429 136.693L189.224 136.494C189.3 136.788 189.443 137.008 189.654 137.155C189.867 137.302 190.145 137.375 190.489 137.375C190.879 137.375 191.189 137.292 191.419 137.126C191.651 136.958 191.767 136.757 191.767 136.523C191.767 136.333 191.701 136.175 191.568 136.047C191.436 135.917 191.232 135.82 190.957 135.756L190.048 135.543C189.549 135.424 189.182 135.241 188.947 134.992C188.715 134.741 188.599 134.428 188.599 134.051C188.599 133.743 188.686 133.471 188.859 133.234C189.034 132.998 189.272 132.812 189.572 132.677C189.875 132.542 190.219 132.474 190.602 132.474C191.142 132.474 191.566 132.593 191.873 132.83C192.184 133.066 192.404 133.379 192.534 133.767ZM199.08 132.545V133.256H196.253V132.545H199.08ZM197.077 131.239H197.915V136.438C197.915 136.674 197.949 136.852 198.018 136.97C198.089 137.086 198.179 137.164 198.288 137.205C198.399 137.242 198.516 137.261 198.639 137.261C198.732 137.261 198.807 137.257 198.867 137.247C198.926 137.235 198.973 137.226 199.009 137.219L199.179 137.972C199.122 137.993 199.043 138.014 198.941 138.036C198.839 138.059 198.71 138.071 198.554 138.071C198.317 138.071 198.085 138.02 197.858 137.918C197.633 137.817 197.446 137.661 197.297 137.453C197.15 137.245 197.077 136.982 197.077 136.665V131.239ZM202.498 138.114C202.005 138.114 201.573 137.996 201.201 137.762C200.832 137.528 200.543 137.2 200.335 136.778C200.129 136.357 200.026 135.865 200.026 135.301C200.026 134.733 200.129 134.237 200.335 133.813C200.543 133.389 200.832 133.06 201.201 132.826C201.573 132.592 202.005 132.474 202.498 132.474C202.99 132.474 203.421 132.592 203.79 132.826C204.162 133.06 204.451 133.389 204.657 133.813C204.865 134.237 204.969 134.733 204.969 135.301C204.969 135.865 204.865 136.357 204.657 136.778C204.451 137.2 204.162 137.528 203.79 137.762C203.421 137.996 202.99 138.114 202.498 138.114ZM202.498 137.361C202.872 137.361 203.179 137.265 203.421 137.073C203.662 136.881 203.841 136.629 203.957 136.317C204.073 136.004 204.131 135.666 204.131 135.301C204.131 134.937 204.073 134.597 203.957 134.282C203.841 133.967 203.662 133.713 203.421 133.518C203.179 133.324 202.872 133.227 202.498 133.227C202.124 133.227 201.816 133.324 201.574 133.518C201.333 133.713 201.154 133.967 201.038 134.282C200.922 134.597 200.864 134.937 200.864 135.301C200.864 135.666 200.922 136.004 201.038 136.317C201.154 136.629 201.333 136.881 201.574 137.073C201.816 137.265 202.124 137.361 202.498 137.361ZM139.656 144.545V145.256H136.829V144.545H139.656ZM137.653 143.239H138.491V148.438C138.491 148.674 138.525 148.852 138.594 148.97C138.665 149.086 138.755 149.164 138.864 149.205C138.975 149.242 139.092 149.261 139.215 149.261C139.308 149.261 139.384 149.257 139.443 149.247C139.502 149.235 139.549 149.226 139.585 149.219L139.755 149.972C139.698 149.993 139.619 150.014 139.517 150.036C139.416 150.059 139.286 150.071 139.13 150.071C138.893 150.071 138.661 150.02 138.434 149.918C138.209 149.817 138.022 149.661 137.873 149.453C137.726 149.245 137.653 148.982 137.653 148.665V143.239ZM141.872 146.719V150H141.034V142.727H141.872V145.398H141.943C142.071 145.116 142.262 144.892 142.518 144.727C142.776 144.558 143.119 144.474 143.548 144.474C143.92 144.474 144.245 144.549 144.524 144.698C144.804 144.845 145.02 145.071 145.174 145.376C145.331 145.679 145.409 146.065 145.409 146.534V150H144.571V146.591C144.571 146.158 144.458 145.823 144.233 145.586C144.011 145.347 143.702 145.227 143.306 145.227C143.032 145.227 142.786 145.285 142.568 145.401C142.352 145.517 142.182 145.687 142.056 145.909C141.933 146.132 141.872 146.402 141.872 146.719ZM149.229 150.114C148.703 150.114 148.25 149.998 147.869 149.766C147.49 149.531 147.198 149.205 146.992 148.786C146.788 148.364 146.686 147.874 146.686 147.315C146.686 146.757 146.788 146.264 146.992 145.838C147.198 145.41 147.484 145.076 147.851 144.837C148.22 144.595 148.651 144.474 149.144 144.474C149.428 144.474 149.708 144.522 149.985 144.616C150.262 144.711 150.514 144.865 150.742 145.078C150.969 145.289 151.15 145.568 151.285 145.916C151.42 146.264 151.487 146.693 151.487 147.202V147.557H147.283V146.832H150.635C150.635 146.525 150.573 146.25 150.45 146.009C150.33 145.767 150.157 145.576 149.932 145.437C149.709 145.297 149.447 145.227 149.144 145.227C148.81 145.227 148.521 145.31 148.277 145.476C148.036 145.639 147.85 145.852 147.72 146.115C147.589 146.378 147.524 146.66 147.524 146.96V147.443C147.524 147.855 147.595 148.204 147.737 148.491C147.882 148.775 148.082 148.991 148.337 149.141C148.593 149.287 148.89 149.361 149.229 149.361C149.449 149.361 149.648 149.33 149.825 149.268C150.005 149.205 150.16 149.11 150.291 148.984C150.421 148.857 150.521 148.698 150.592 148.509L151.402 148.736C151.317 149.01 151.174 149.252 150.972 149.46C150.771 149.666 150.523 149.827 150.227 149.943C149.931 150.057 149.598 150.114 149.229 150.114Z" fill="#505050"/>
<path d="M168.55 126.107C167.991 126.107 167.51 125.988 167.108 125.751C166.708 125.512 166.4 125.181 166.185 124.757C165.972 124.333 165.865 123.846 165.865 123.294C165.865 122.735 165.973 122.245 166.188 121.824C166.406 121.4 166.715 121.07 167.115 120.833C167.515 120.594 167.991 120.474 168.543 120.474C169.018 120.474 169.435 120.561 169.793 120.734C170.15 120.906 170.433 121.149 170.641 121.462C170.85 121.774 170.964 122.141 170.986 122.562H169.558C169.518 122.29 169.411 122.071 169.239 121.906C169.068 121.737 168.844 121.653 168.567 121.653C168.333 121.653 168.128 121.717 167.953 121.845C167.78 121.971 167.645 122.154 167.548 122.396C167.451 122.637 167.403 122.929 167.403 123.273C167.403 123.621 167.45 123.917 167.545 124.161C167.642 124.404 167.778 124.59 167.953 124.718C168.128 124.846 168.333 124.91 168.567 124.91C168.74 124.91 168.895 124.874 169.033 124.803C169.172 124.732 169.287 124.629 169.377 124.494C169.469 124.357 169.53 124.192 169.558 124.001H170.986C170.962 124.417 170.848 124.784 170.645 125.102C170.444 125.416 170.165 125.663 169.81 125.84C169.455 126.018 169.035 126.107 168.55 126.107ZM175.452 123.678V120.545H176.965V126H175.513V125.009H175.456C175.333 125.329 175.128 125.586 174.841 125.78C174.557 125.974 174.21 126.071 173.801 126.071C173.436 126.071 173.116 125.988 172.839 125.822C172.562 125.657 172.345 125.421 172.189 125.116C172.035 124.81 171.957 124.445 171.954 124.018V120.545H173.467V123.749C173.469 124.071 173.556 124.325 173.726 124.512C173.897 124.699 174.125 124.793 174.412 124.793C174.594 124.793 174.764 124.751 174.923 124.668C175.082 124.583 175.209 124.458 175.307 124.292C175.406 124.126 175.455 123.921 175.452 123.678ZM178.175 126V120.545H179.642V121.497H179.698C179.798 121.159 179.965 120.903 180.199 120.73C180.434 120.555 180.703 120.467 181.009 120.467C181.085 120.467 181.166 120.472 181.254 120.482C181.341 120.491 181.418 120.504 181.485 120.521V121.863C181.414 121.842 181.315 121.823 181.19 121.806C181.064 121.79 180.95 121.781 180.845 121.781C180.623 121.781 180.424 121.83 180.249 121.927C180.076 122.022 179.939 122.154 179.837 122.325C179.737 122.495 179.688 122.692 179.688 122.914V126H178.175ZM182.267 126V120.545H183.733V121.497H183.79C183.89 121.159 184.057 120.903 184.291 120.73C184.525 120.555 184.795 120.467 185.101 120.467C185.176 120.467 185.258 120.472 185.346 120.482C185.433 120.491 185.51 120.504 185.576 120.521V121.863C185.505 121.842 185.407 121.823 185.282 121.806C185.156 121.79 185.041 121.781 184.937 121.781C184.715 121.781 184.516 121.83 184.341 121.927C184.168 122.022 184.031 122.154 183.929 122.325C183.829 122.495 183.78 122.692 183.78 122.914V126H182.267ZM188.59 126.107C188.029 126.107 187.546 125.993 187.142 125.766C186.739 125.536 186.429 125.212 186.211 124.793C185.993 124.371 185.884 123.873 185.884 123.298C185.884 122.737 185.993 122.244 186.211 121.82C186.429 121.397 186.736 121.066 187.131 120.83C187.529 120.593 187.995 120.474 188.53 120.474C188.89 120.474 189.225 120.532 189.535 120.648C189.848 120.762 190.12 120.934 190.352 121.163C190.586 121.393 190.768 121.682 190.899 122.03C191.029 122.375 191.094 122.78 191.094 123.244V123.66H186.488V122.722H189.67C189.67 122.504 189.623 122.312 189.528 122.143C189.433 121.975 189.302 121.844 189.134 121.749C188.968 121.652 188.775 121.604 188.555 121.604C188.325 121.604 188.122 121.657 187.944 121.763C187.769 121.868 187.632 122.009 187.532 122.186C187.433 122.361 187.382 122.557 187.38 122.772V123.663C187.38 123.933 187.429 124.166 187.529 124.363C187.63 124.559 187.774 124.711 187.958 124.817C188.143 124.924 188.362 124.977 188.615 124.977C188.783 124.977 188.937 124.954 189.077 124.906C189.217 124.859 189.336 124.788 189.436 124.693C189.535 124.598 189.611 124.482 189.663 124.345L191.062 124.438C190.991 124.774 190.845 125.067 190.625 125.318C190.407 125.567 190.126 125.761 189.78 125.901C189.437 126.038 189.04 126.107 188.59 126.107ZM193.594 122.847V126H192.081V120.545H193.523V121.508H193.587C193.708 121.191 193.91 120.94 194.194 120.755C194.478 120.568 194.823 120.474 195.228 120.474C195.606 120.474 195.937 120.557 196.218 120.723C196.5 120.889 196.719 121.125 196.875 121.433C197.032 121.739 197.11 122.103 197.11 122.527V126H195.597V122.797C195.599 122.463 195.514 122.203 195.341 122.016C195.168 121.826 194.93 121.732 194.627 121.732C194.424 121.732 194.244 121.775 194.088 121.863C193.934 121.951 193.813 122.078 193.725 122.246C193.64 122.412 193.596 122.612 193.594 122.847ZM201.203 120.545V121.682H197.918V120.545H201.203ZM198.664 119.239H200.177V124.324C200.177 124.464 200.198 124.572 200.241 124.651C200.283 124.726 200.343 124.78 200.418 124.81C200.497 124.841 200.586 124.857 200.688 124.857C200.759 124.857 200.83 124.851 200.901 124.839C200.972 124.825 201.027 124.814 201.065 124.807L201.303 125.933C201.227 125.956 201.12 125.983 200.983 126.014C200.846 126.047 200.679 126.067 200.482 126.075C200.118 126.089 199.798 126.04 199.524 125.929C199.251 125.818 199.039 125.645 198.888 125.411C198.736 125.176 198.662 124.88 198.664 124.523V119.239ZM123.661 134.101L122.276 134.186C122.252 134.068 122.201 133.961 122.123 133.866C122.045 133.769 121.942 133.692 121.814 133.636C121.689 133.576 121.538 133.547 121.363 133.547C121.129 133.547 120.931 133.597 120.77 133.696C120.609 133.793 120.528 133.923 120.528 134.087C120.528 134.217 120.581 134.327 120.685 134.417C120.789 134.507 120.968 134.579 121.221 134.634L122.208 134.832C122.738 134.941 123.134 135.116 123.394 135.358C123.655 135.599 123.785 135.917 123.785 136.31C123.785 136.667 123.68 136.981 123.469 137.251C123.261 137.521 122.974 137.731 122.609 137.883C122.247 138.032 121.829 138.107 121.356 138.107C120.634 138.107 120.059 137.956 119.63 137.656C119.204 137.353 118.954 136.941 118.881 136.42L120.369 136.342C120.414 136.562 120.523 136.73 120.695 136.846C120.868 136.96 121.09 137.016 121.359 137.016C121.625 137.016 121.838 136.965 121.999 136.864C122.162 136.759 122.245 136.626 122.247 136.462C122.245 136.325 122.187 136.213 122.073 136.125C121.96 136.035 121.784 135.966 121.548 135.919L120.603 135.731C120.07 135.624 119.674 135.44 119.413 135.177C119.155 134.914 119.026 134.579 119.026 134.172C119.026 133.821 119.121 133.52 119.31 133.266C119.502 133.013 119.771 132.818 120.117 132.68C120.465 132.543 120.872 132.474 121.338 132.474C122.027 132.474 122.569 132.62 122.965 132.911C123.362 133.202 123.594 133.599 123.661 134.101ZM127.639 132.545V133.682H124.354V132.545H127.639ZM125.1 131.239H126.612V136.324C126.612 136.464 126.634 136.572 126.676 136.651C126.719 136.726 126.778 136.78 126.854 136.81C126.932 136.841 127.022 136.857 127.124 136.857C127.195 136.857 127.266 136.851 127.337 136.839C127.408 136.825 127.462 136.814 127.5 136.807L127.738 137.933C127.662 137.956 127.556 137.983 127.419 138.014C127.281 138.047 127.114 138.067 126.918 138.075C126.553 138.089 126.234 138.04 125.959 137.929C125.687 137.818 125.475 137.645 125.323 137.411C125.172 137.176 125.097 136.88 125.1 136.523V131.239ZM130.18 138.103C129.832 138.103 129.521 138.043 129.249 137.922C128.977 137.799 128.762 137.618 128.603 137.379C128.447 137.137 128.369 136.836 128.369 136.477C128.369 136.174 128.424 135.919 128.535 135.713C128.647 135.507 128.798 135.341 128.99 135.216C129.182 135.09 129.4 134.996 129.643 134.932C129.89 134.868 130.148 134.823 130.418 134.797C130.735 134.764 130.99 134.733 131.185 134.705C131.379 134.674 131.52 134.629 131.607 134.57C131.695 134.51 131.739 134.423 131.739 134.307V134.286C131.739 134.061 131.668 133.887 131.525 133.763C131.386 133.64 131.187 133.579 130.929 133.579C130.657 133.579 130.44 133.639 130.279 133.76C130.118 133.878 130.012 134.027 129.959 134.207L128.56 134.094C128.631 133.762 128.771 133.476 128.979 133.234C129.188 132.991 129.456 132.804 129.785 132.673C130.117 132.541 130.5 132.474 130.936 132.474C131.239 132.474 131.529 132.51 131.806 132.581C132.085 132.652 132.333 132.762 132.548 132.911C132.766 133.06 132.938 133.252 133.063 133.487C133.189 133.719 133.251 133.997 133.251 134.321V138H131.817V137.244H131.774C131.686 137.414 131.569 137.564 131.422 137.695C131.276 137.822 131.099 137.923 130.893 137.996C130.687 138.067 130.449 138.103 130.18 138.103ZM130.613 137.059C130.835 137.059 131.032 137.015 131.202 136.928C131.373 136.838 131.507 136.717 131.604 136.565C131.701 136.414 131.749 136.242 131.749 136.05V135.472C131.702 135.502 131.637 135.531 131.554 135.557C131.473 135.58 131.382 135.603 131.28 135.624C131.179 135.643 131.077 135.661 130.975 135.678C130.873 135.692 130.781 135.705 130.698 135.717C130.521 135.743 130.365 135.784 130.233 135.841C130.1 135.898 129.997 135.975 129.924 136.072C129.851 136.166 129.814 136.285 129.814 136.427C129.814 136.633 129.888 136.79 130.038 136.899C130.189 137.006 130.381 137.059 130.613 137.059ZM137.326 132.545V133.682H134.041V132.545H137.326ZM134.787 131.239H136.3V136.324C136.3 136.464 136.321 136.572 136.364 136.651C136.407 136.726 136.466 136.78 136.541 136.81C136.62 136.841 136.71 136.857 136.811 136.857C136.882 136.857 136.953 136.851 137.024 136.839C137.095 136.825 137.15 136.814 137.188 136.807L137.426 137.933C137.35 137.956 137.243 137.983 137.106 138.014C136.969 138.047 136.802 138.067 136.605 138.075C136.241 138.089 135.921 138.04 135.647 137.929C135.374 137.818 135.162 137.645 135.011 137.411C134.859 137.176 134.785 136.88 134.787 136.523V131.239ZM140.739 138.107C140.178 138.107 139.695 137.993 139.29 137.766C138.888 137.536 138.577 137.212 138.36 136.793C138.142 136.371 138.033 135.873 138.033 135.298C138.033 134.737 138.142 134.244 138.36 133.82C138.577 133.397 138.884 133.066 139.279 132.83C139.677 132.593 140.143 132.474 140.679 132.474C141.038 132.474 141.373 132.532 141.684 132.648C141.996 132.762 142.268 132.934 142.5 133.163C142.735 133.393 142.917 133.682 143.047 134.03C143.177 134.375 143.242 134.78 143.242 135.244V135.66H138.637V134.722H141.818C141.818 134.504 141.771 134.312 141.676 134.143C141.582 133.975 141.45 133.844 141.282 133.749C141.117 133.652 140.924 133.604 140.703 133.604C140.474 133.604 140.27 133.657 140.093 133.763C139.917 133.868 139.78 134.009 139.681 134.186C139.581 134.361 139.53 134.557 139.528 134.772V135.663C139.528 135.933 139.578 136.166 139.677 136.363C139.779 136.559 139.922 136.711 140.107 136.817C140.291 136.924 140.51 136.977 140.764 136.977C140.932 136.977 141.086 136.954 141.225 136.906C141.365 136.859 141.485 136.788 141.584 136.693C141.684 136.598 141.759 136.482 141.811 136.345L143.21 136.438C143.139 136.774 142.994 137.067 142.774 137.318C142.556 137.567 142.274 137.761 141.929 137.901C141.585 138.038 141.189 138.107 140.739 138.107Z" fill="#4C7477"/>
<path d="M157.876 150.107C157.324 150.107 156.847 149.989 156.445 149.755C156.045 149.518 155.736 149.189 155.518 148.768C155.3 148.344 155.191 147.853 155.191 147.294C155.191 146.731 155.3 146.238 155.518 145.817C155.736 145.393 156.045 145.064 156.445 144.83C156.847 144.593 157.324 144.474 157.876 144.474C158.427 144.474 158.903 144.593 159.303 144.83C159.706 145.064 160.016 145.393 160.234 145.817C160.452 146.238 160.56 146.731 160.56 147.294C160.56 147.853 160.452 148.344 160.234 148.768C160.016 149.189 159.706 149.518 159.303 149.755C158.903 149.989 158.427 150.107 157.876 150.107ZM157.883 148.935C158.134 148.935 158.343 148.864 158.511 148.722C158.68 148.577 158.806 148.381 158.891 148.132C158.979 147.884 159.023 147.601 159.023 147.283C159.023 146.966 158.979 146.683 158.891 146.435C158.806 146.186 158.68 145.99 158.511 145.845C158.343 145.701 158.134 145.629 157.883 145.629C157.63 145.629 157.417 145.701 157.244 145.845C157.073 145.99 156.944 146.186 156.857 146.435C156.771 146.683 156.729 146.966 156.729 147.283C156.729 147.601 156.771 147.884 156.857 148.132C156.944 148.381 157.073 148.577 157.244 148.722C157.417 148.864 157.63 148.935 157.883 148.935ZM165.042 147.678V144.545H166.555V150H165.102V149.009H165.046C164.922 149.329 164.718 149.586 164.431 149.78C164.147 149.974 163.8 150.071 163.391 150.071C163.026 150.071 162.705 149.988 162.428 149.822C162.151 149.657 161.935 149.421 161.778 149.116C161.625 148.81 161.546 148.445 161.544 148.018V144.545H163.057V147.749C163.059 148.071 163.146 148.325 163.316 148.512C163.487 148.699 163.715 148.793 164.002 148.793C164.184 148.793 164.354 148.751 164.513 148.668C164.671 148.583 164.799 148.458 164.896 148.292C164.996 148.126 165.044 147.921 165.042 147.678ZM170.666 144.545V145.682H167.381V144.545H170.666ZM168.127 143.239H169.64V148.324C169.64 148.464 169.661 148.572 169.704 148.651C169.746 148.726 169.806 148.78 169.881 148.81C169.959 148.841 170.049 148.857 170.151 148.857C170.222 148.857 170.293 148.851 170.364 148.839C170.435 148.825 170.49 148.814 170.528 148.807L170.766 149.933C170.69 149.956 170.583 149.983 170.446 150.014C170.309 150.047 170.142 150.067 169.945 150.075C169.581 150.089 169.261 150.04 168.986 149.929C168.714 149.818 168.502 149.645 168.351 149.411C168.199 149.176 168.125 148.88 168.127 148.523V143.239ZM171.652 152.045V144.545H173.143V145.462H173.21C173.277 145.315 173.373 145.166 173.498 145.014C173.626 144.86 173.792 144.732 173.995 144.631C174.201 144.527 174.457 144.474 174.762 144.474C175.16 144.474 175.527 144.579 175.863 144.787C176.199 144.993 176.468 145.304 176.669 145.721C176.871 146.135 176.971 146.655 176.971 147.28C176.971 147.888 176.873 148.402 176.676 148.821C176.482 149.238 176.217 149.554 175.881 149.769C175.547 149.982 175.173 150.089 174.759 150.089C174.465 150.089 174.215 150.04 174.009 149.943C173.806 149.846 173.639 149.724 173.509 149.577C173.379 149.428 173.279 149.278 173.21 149.126H173.164V152.045H171.652ZM173.132 147.273C173.132 147.597 173.177 147.88 173.267 148.121C173.357 148.363 173.487 148.551 173.658 148.686C173.828 148.819 174.036 148.885 174.279 148.885C174.526 148.885 174.734 148.817 174.904 148.683C175.075 148.545 175.204 148.356 175.291 148.114C175.381 147.871 175.426 147.59 175.426 147.273C175.426 146.958 175.383 146.681 175.295 146.442C175.207 146.203 175.078 146.016 174.908 145.881C174.737 145.746 174.528 145.678 174.279 145.678C174.033 145.678 173.825 145.743 173.654 145.874C173.486 146.004 173.357 146.188 173.267 146.428C173.177 146.667 173.132 146.948 173.132 147.273ZM181.478 147.678V144.545H182.99V150H181.538V149.009H181.481C181.358 149.329 181.153 149.586 180.867 149.78C180.583 149.974 180.236 150.071 179.826 150.071C179.462 150.071 179.141 149.988 178.864 149.822C178.587 149.657 178.37 149.421 178.214 149.116C178.06 148.81 177.982 148.445 177.98 148.018V144.545H179.492V147.749C179.495 148.071 179.581 148.325 179.752 148.512C179.922 148.699 180.151 148.793 180.437 148.793C180.619 148.793 180.79 148.751 180.948 148.668C181.107 148.583 181.235 148.458 181.332 148.292C181.431 148.126 181.48 147.921 181.478 147.678ZM187.102 144.545V145.682H183.817V144.545H187.102ZM184.563 143.239H186.075V148.324C186.075 148.464 186.097 148.572 186.139 148.651C186.182 148.726 186.241 148.78 186.317 148.81C186.395 148.841 186.485 148.857 186.587 148.857C186.658 148.857 186.729 148.851 186.8 148.839C186.871 148.825 186.925 148.814 186.963 148.807L187.201 149.933C187.125 149.956 187.019 149.983 186.881 150.014C186.744 150.047 186.577 150.067 186.381 150.075C186.016 150.089 185.697 150.04 185.422 149.929C185.15 149.818 184.938 149.645 184.786 149.411C184.635 149.176 184.56 148.88 184.563 148.523V143.239Z" fill="#743BBE"/>
<path d="M222.338 8.54545C222.296 8.18561 222.123 7.90625 221.82 7.70739C221.517 7.50852 221.145 7.40909 220.705 7.40909C220.383 7.40909 220.101 7.46117 219.86 7.56534C219.621 7.66951 219.434 7.81274 219.299 7.99503C219.166 8.17732 219.1 8.38447 219.1 8.61648C219.1 8.81061 219.146 8.97751 219.238 9.11719C219.333 9.2545 219.454 9.36932 219.6 9.46165C219.747 9.55161 219.901 9.62618 220.062 9.68537C220.223 9.74219 220.371 9.78835 220.506 9.82386L221.245 10.0227C221.434 10.0724 221.645 10.1411 221.877 10.2287C222.111 10.3163 222.335 10.4358 222.548 10.5874C222.763 10.7365 222.941 10.9283 223.081 11.1626C223.22 11.397 223.29 11.6847 223.29 12.0256C223.29 12.4186 223.187 12.7737 222.981 13.0909C222.778 13.4081 222.479 13.6603 222.086 13.8473C221.696 14.0343 221.221 14.1278 220.662 14.1278C220.141 14.1278 219.69 14.0438 219.309 13.8757C218.931 13.7076 218.632 13.4732 218.414 13.1726C218.199 12.8719 218.077 12.5227 218.049 12.125H218.958C218.981 12.3996 219.074 12.6269 219.235 12.8068C219.398 12.9844 219.604 13.117 219.853 13.2045C220.104 13.2898 220.373 13.3324 220.662 13.3324C220.998 13.3324 221.3 13.2779 221.568 13.169C221.835 13.0578 222.047 12.9039 222.203 12.7074C222.36 12.5085 222.438 12.2765 222.438 12.0114C222.438 11.7699 222.37 11.5734 222.235 11.4219C222.1 11.2704 221.923 11.1473 221.703 11.0526C221.483 10.9579 221.245 10.875 220.989 10.804L220.094 10.5483C219.526 10.3849 219.076 10.1518 218.745 9.84872C218.413 9.54569 218.248 9.14915 218.248 8.65909C218.248 8.25189 218.358 7.89678 218.578 7.59375C218.8 7.28835 219.099 7.05161 219.473 6.88352C219.849 6.71307 220.269 6.62784 220.733 6.62784C221.202 6.62784 221.619 6.71188 221.983 6.87997C222.348 7.04569 222.637 7.27296 222.85 7.56179C223.065 7.85062 223.179 8.1785 223.191 8.54545H222.338ZM226.997 8.54545V9.25568H224.17V8.54545H226.997ZM224.994 7.23864H225.832V12.4375C225.832 12.6742 225.866 12.8518 225.935 12.9702C226.006 13.0862 226.096 13.1643 226.205 13.2045C226.316 13.2424 226.433 13.2614 226.556 13.2614C226.649 13.2614 226.724 13.2566 226.784 13.2472C226.843 13.2353 226.89 13.2259 226.926 13.2188L227.096 13.9716C227.039 13.9929 226.96 14.0142 226.858 14.0355C226.756 14.0592 226.627 14.071 226.471 14.071C226.234 14.071 226.002 14.0201 225.775 13.9183C225.55 13.8165 225.363 13.6615 225.214 13.4531C225.067 13.2448 224.994 12.982 224.994 12.6648V7.23864ZM229.862 14.1278C229.517 14.1278 229.203 14.0627 228.921 13.9325C228.64 13.8 228.416 13.6094 228.25 13.3608C228.084 13.1098 228.002 12.8068 228.002 12.4517C228.002 12.1392 228.063 11.8859 228.186 11.6918C228.309 11.4953 228.474 11.3414 228.68 11.2301C228.886 11.1188 229.113 11.036 229.362 10.9815C229.613 10.9247 229.865 10.8797 230.118 10.8466C230.45 10.804 230.718 10.772 230.924 10.7507C231.133 10.727 231.284 10.688 231.379 10.6335C231.476 10.5791 231.524 10.4844 231.524 10.3494V10.321C231.524 9.97064 231.428 9.69839 231.237 9.50426C231.047 9.31013 230.76 9.21307 230.374 9.21307C229.974 9.21307 229.66 9.30066 229.433 9.47585C229.205 9.65104 229.046 9.83807 228.953 10.0369L228.158 9.75284C228.3 9.4214 228.489 9.16335 228.726 8.97869C228.965 8.79167 229.226 8.66146 229.507 8.58807C229.791 8.51231 230.071 8.47443 230.345 8.47443C230.521 8.47443 230.722 8.49574 230.949 8.53835C231.179 8.5786 231.4 8.66264 231.613 8.79048C231.829 8.91832 232.007 9.11127 232.149 9.36932C232.291 9.62737 232.362 9.97301 232.362 10.4062V14H231.524V13.2614H231.482C231.425 13.3797 231.33 13.5064 231.198 13.6413C231.065 13.7763 230.889 13.8911 230.669 13.9858C230.448 14.0805 230.18 14.1278 229.862 14.1278ZM229.99 13.375C230.322 13.375 230.601 13.3099 230.828 13.1797C231.058 13.0495 231.231 12.8814 231.347 12.6754C231.465 12.4695 231.524 12.2528 231.524 12.0256V11.2585C231.489 11.3011 231.411 11.3402 231.29 11.3757C231.172 11.4089 231.034 11.4384 230.878 11.4645C230.724 11.4882 230.574 11.5095 230.427 11.5284C230.283 11.545 230.165 11.5592 230.075 11.571C229.858 11.5994 229.654 11.6456 229.465 11.7095C229.278 11.7711 229.126 11.8646 229.01 11.9901C228.896 12.1132 228.84 12.2812 228.84 12.4943C228.84 12.7855 228.947 13.0057 229.163 13.1548C229.381 13.3016 229.656 13.375 229.99 13.375ZM236.264 8.54545V9.25568H233.438V8.54545H236.264ZM234.261 7.23864H235.099V12.4375C235.099 12.6742 235.134 12.8518 235.202 12.9702C235.273 13.0862 235.363 13.1643 235.472 13.2045C235.584 13.2424 235.701 13.2614 235.824 13.2614C235.916 13.2614 235.992 13.2566 236.051 13.2472C236.11 13.2353 236.158 13.2259 236.193 13.2188L236.364 13.9716C236.307 13.9929 236.228 14.0142 236.126 14.0355C236.024 14.0592 235.895 14.071 235.739 14.071C235.502 14.071 235.27 14.0201 235.043 13.9183C234.818 13.8165 234.631 13.6615 234.482 13.4531C234.335 13.2448 234.261 12.982 234.261 12.6648V7.23864ZM239.753 14.1136C239.228 14.1136 238.774 13.9976 238.393 13.7656C238.014 13.5312 237.722 13.2045 237.516 12.7855C237.312 12.3641 237.211 11.8741 237.211 11.3153C237.211 10.7566 237.312 10.2642 237.516 9.83807C237.722 9.40956 238.008 9.07576 238.375 8.83665C238.745 8.59517 239.176 8.47443 239.668 8.47443C239.952 8.47443 240.233 8.52178 240.51 8.61648C240.787 8.71117 241.039 8.86506 241.266 9.07812C241.493 9.28883 241.674 9.56818 241.809 9.91619C241.944 10.2642 242.012 10.6927 242.012 11.2017V11.5568H237.807V10.8324H241.159C241.159 10.5246 241.098 10.25 240.975 10.0085C240.854 9.76705 240.681 9.57647 240.456 9.43679C240.234 9.29711 239.971 9.22727 239.668 9.22727C239.334 9.22727 239.045 9.31013 238.801 9.47585C238.56 9.6392 238.374 9.85227 238.244 10.1151C238.114 10.3778 238.049 10.6596 238.049 10.9602V11.4432C238.049 11.8551 238.12 12.2043 238.262 12.4908C238.406 12.7749 238.606 12.9915 238.862 13.1406C239.118 13.2874 239.415 13.3608 239.753 13.3608C239.973 13.3608 240.172 13.33 240.35 13.2685C240.53 13.2045 240.685 13.1098 240.815 12.9844C240.945 12.8565 241.046 12.6979 241.117 12.5085L241.926 12.7358C241.841 13.0104 241.698 13.2519 241.497 13.4602C241.296 13.6662 241.047 13.8272 240.751 13.9432C240.455 14.0568 240.123 14.1136 239.753 14.1136Z" fill="#4C7477"/>
<path d="M41.6327 122.364C41.6327 123.157 41.4824 123.831 41.1817 124.388C40.8834 124.944 40.4762 125.369 39.9601 125.663C39.4464 125.954 38.8688 126.099 38.2272 126.099C37.5809 126.099 37.0009 125.953 36.4871 125.659C35.9734 125.366 35.5674 124.941 35.2691 124.384C34.9708 123.828 34.8216 123.154 34.8216 122.364C34.8216 121.571 34.9708 120.896 35.2691 120.339C35.5674 119.783 35.9734 119.359 36.4871 119.068C37.0009 118.775 37.5809 118.628 38.2272 118.628C38.8688 118.628 39.4464 118.775 39.9601 119.068C40.4762 119.359 40.8834 119.783 41.1817 120.339C41.4824 120.896 41.6327 121.571 41.6327 122.364ZM40.0738 122.364C40.0738 121.85 39.9968 121.417 39.843 121.064C39.6914 120.711 39.4772 120.444 39.2002 120.261C38.9232 120.079 38.5989 119.988 38.2272 119.988C37.8555 119.988 37.5312 120.079 37.2542 120.261C36.9772 120.444 36.7617 120.711 36.6079 121.064C36.4564 121.417 36.3806 121.85 36.3806 122.364C36.3806 122.877 36.4564 123.311 36.6079 123.663C36.7617 124.016 36.9772 124.284 37.2542 124.466C37.5312 124.648 37.8555 124.739 38.2272 124.739C38.5989 124.739 38.9232 124.648 39.2002 124.466C39.4772 124.284 39.6914 124.016 39.843 123.663C39.9968 123.311 40.0738 122.877 40.0738 122.364ZM46.2412 123.678V120.545H47.754V126H46.3016V125.009H46.2448C46.1217 125.329 45.9169 125.586 45.6304 125.78C45.3463 125.974 44.9995 126.071 44.5899 126.071C44.2253 126.071 43.9046 125.988 43.6276 125.822C43.3506 125.657 43.134 125.421 42.9777 125.116C42.8238 124.81 42.7457 124.445 42.7433 124.018V120.545H44.2561V123.749C44.2585 124.071 44.3449 124.325 44.5154 124.512C44.6858 124.699 44.9143 124.793 45.2007 124.793C45.383 124.793 45.5535 124.751 45.7121 124.668C45.8707 124.583 45.9985 124.458 46.0956 124.292C46.195 124.126 46.2436 123.921 46.2412 123.678ZM51.8653 120.545V121.682H48.5805V120.545H51.8653ZM49.3263 119.239H50.839V124.324C50.839 124.464 50.8604 124.572 50.903 124.651C50.9456 124.726 51.0048 124.78 51.0805 124.81C51.1586 124.841 51.2486 124.857 51.3504 124.857C51.4214 124.857 51.4925 124.851 51.5635 124.839C51.6345 124.825 51.689 124.814 51.7268 124.807L51.9648 125.933C51.889 125.956 51.7825 125.983 51.6452 126.014C51.5078 126.047 51.3409 126.067 51.1444 126.075C50.7799 126.089 50.4603 126.04 50.1856 125.929C49.9134 125.818 49.7015 125.645 49.55 125.411C49.3985 125.176 49.3239 124.88 49.3263 124.523V119.239ZM52.8508 128.045V120.545H54.3422V121.462H54.4097C54.476 121.315 54.5719 121.166 54.6974 121.014C54.8252 120.86 54.9909 120.732 55.1945 120.631C55.4005 120.527 55.6562 120.474 55.9616 120.474C56.3593 120.474 56.7262 120.579 57.0624 120.787C57.3986 120.993 57.6673 121.304 57.8685 121.721C58.0698 122.135 58.1704 122.655 58.1704 123.28C58.1704 123.888 58.0721 124.402 57.8756 124.821C57.6815 125.238 57.4163 125.554 57.0802 125.769C56.7464 125.982 56.3723 126.089 55.958 126.089C55.6644 126.089 55.4147 126.04 55.2087 125.943C55.0051 125.846 54.8382 125.724 54.708 125.577C54.5778 125.428 54.4784 125.278 54.4097 125.126H54.3635V128.045H52.8508ZM54.3316 123.273C54.3316 123.597 54.3766 123.88 54.4665 124.121C54.5565 124.363 54.6867 124.551 54.8572 124.686C55.0276 124.819 55.2348 124.885 55.4786 124.885C55.7248 124.885 55.9331 124.817 56.1036 124.683C56.2741 124.545 56.4031 124.356 56.4907 124.114C56.5806 123.871 56.6256 123.59 56.6256 123.273C56.6256 122.958 56.5818 122.681 56.4942 122.442C56.4066 122.203 56.2776 122.016 56.1072 121.881C55.9367 121.746 55.7272 121.678 55.4786 121.678C55.2324 121.678 55.0241 121.743 54.8536 121.874C54.6855 122.004 54.5565 122.188 54.4665 122.428C54.3766 122.667 54.3316 122.948 54.3316 123.273ZM62.6768 123.678V120.545H64.1895V126H62.7371V125.009H62.6803C62.5572 125.329 62.3524 125.586 62.066 125.78C61.7819 125.974 61.435 126.071 61.0255 126.071C60.6609 126.071 60.3401 125.988 60.0631 125.822C59.7861 125.657 59.5695 125.421 59.4133 125.116C59.2594 124.81 59.1813 124.445 59.1789 124.018V120.545H60.6917V123.749C60.694 124.071 60.7805 124.325 60.9509 124.512C61.1214 124.699 61.3498 124.793 61.6363 124.793C61.8186 124.793 61.989 124.751 62.1476 124.668C62.3063 124.583 62.4341 124.458 62.5312 124.292C62.6306 124.126 62.6791 123.921 62.6768 123.678ZM68.3009 120.545V121.682H65.0161V120.545H68.3009ZM65.7618 119.239H67.2746V124.324C67.2746 124.464 67.2959 124.572 67.3385 124.651C67.3811 124.726 67.4403 124.78 67.5161 124.81C67.5942 124.841 67.6842 124.857 67.786 124.857C67.857 124.857 67.928 124.851 67.999 124.839C68.07 124.825 68.1245 124.814 68.1624 124.807L68.4003 125.933C68.3245 125.956 68.218 125.983 68.0807 126.014C67.9434 126.047 67.7765 126.067 67.58 126.075C67.2154 126.089 66.8958 126.04 66.6212 125.929C66.3489 125.818 66.137 125.645 65.9855 125.411C65.834 125.176 65.7594 124.88 65.7618 124.523V119.239Z" fill="#743BBE"/>
<line x1="96.5" y1="112" x2="96.5" y2="92" stroke="#505050" stroke-dasharray="2 2"/>
<line x1="229" y1="113.5" x2="96" y2="113.5" stroke="#505050" stroke-dasharray="2 2"/>
<line x1="229.5" y1="92" x2="229.5" y2="112" stroke="#505050" stroke-dasharray="2 2"/>
<line x1="26.5" y1="112" x2="26.5" y2="92" stroke="#505050" stroke-dasharray="2 2"/>
<line x1="76" y1="113.5" x2="27" y2="113.5" stroke="#505050" stroke-dasharray="2 2"/>
<line x1="76.5" y1="92" x2="76.5" y2="112" stroke="#505050" stroke-dasharray="2 2"/>
<path d="M209.354 28.3535L214.93 26.8593L210.848 22.7768L209.354 28.3535ZM220 17L212.182 24.818L212.889 25.5251L220.707 17.7071L220 17Z" fill="#DDDDDD"/>
<path d="M25 54.3709C25.7638 47.4569 29.534 44 36.3104 44C46.4751 44 47.7046 67 59.8523 67C69.9903 67 72 55.7377 72 54.3709" stroke="#743BBE" stroke-width="4" stroke-linecap="round" stroke-linejoin="round"/>
</svg>
