<svg width="476" height="169" viewBox="0 0 476 169" fill="none" xmlns="http://www.w3.org/2000/svg">
<rect width="476" height="169" fill="white"/>
<path d="M355 91L345 85.2265V96.7735L355 91ZM346 90L107 90V92L346 92V90Z" fill="#505050"/>
<path d="M128 144L128 91" stroke="#505050" stroke-opacity="0.5" stroke-width="2"/>
<path d="M129 143L337 143" stroke="#505050" stroke-opacity="0.5" stroke-width="2"/>
<path d="M338 96L332.226 106L343.774 106L338 96ZM337 105L337 144L339 144L339 105L337 105Z" fill="#505050" fill-opacity="0.5"/>
<path d="M45 90.3709C45.7638 83.4569 49.534 80 56.3104 80C66.4751 80 67.7046 103 79.8523 103C89.9903 103 92 91.7377 92 90.3709" stroke="#BE3B3B" stroke-width="4" stroke-linecap="round" stroke-linejoin="round"/>
<path d="M380 90.3709C380.764 83.4569 384.534 80 391.31 80C401.475 80 402.705 103 414.852 103C424.99 103 427 91.7377 427 90.3709" stroke="#743BBE" stroke-width="4" stroke-linecap="round" stroke-linejoin="round"/>
<path d="M48.1604 3.09091V14H45.8539V3.09091H48.1604ZM52.2846 9.26989V14H50.0154V5.81818H52.178V7.26172H52.2739C52.455 6.78587 52.7587 6.40945 53.1848 6.13246C53.6109 5.85192 54.1276 5.71165 54.7349 5.71165C55.303 5.71165 55.7984 5.83594 56.221 6.08452C56.6436 6.3331 56.9721 6.68821 57.2065 7.14986C57.4408 7.60795 57.558 8.15483 57.558 8.79048V14H55.2888V9.19531C55.2924 8.6946 55.1646 8.30398 54.9053 8.02344C54.6461 7.73935 54.2892 7.5973 53.8347 7.5973C53.5293 7.5973 53.2594 7.663 53.025 7.79439C52.7942 7.92578 52.6131 8.11754 52.4817 8.36967C52.3538 8.61825 52.2881 8.91832 52.2846 9.26989ZM59.3465 17.0682V5.81818H61.5837V7.19247H61.6849C61.7843 6.9723 61.9281 6.74858 62.1163 6.52131C62.3081 6.29048 62.5567 6.09872 62.8621 5.94602C63.171 5.78977 63.5546 5.71165 64.0127 5.71165C64.6092 5.71165 65.1597 5.8679 65.6639 6.1804C66.1682 6.48935 66.5712 6.95632 66.8731 7.58132C67.1749 8.20277 67.3259 8.98224 67.3259 9.91974C67.3259 10.8324 67.1785 11.603 66.8837 12.2315C66.5926 12.8565 66.1948 13.3306 65.6906 13.6538C65.1899 13.9734 64.6288 14.1332 64.0073 14.1332C63.567 14.1332 63.1923 14.0604 62.8834 13.9148C62.578 13.7692 62.3276 13.5863 62.1323 13.3661C61.937 13.1424 61.7879 12.9169 61.6849 12.6896H61.6156V17.0682H59.3465ZM61.5677 9.90909C61.5677 10.3956 61.6352 10.82 61.7701 11.1822C61.9051 11.5444 62.1004 11.8267 62.356 12.0291C62.6117 12.228 62.9225 12.3274 63.2882 12.3274C63.6575 12.3274 63.97 12.2262 64.2257 12.0238C64.4814 11.8178 64.6749 11.5337 64.8063 11.1715C64.9413 10.8058 65.0087 10.3849 65.0087 9.90909C65.0087 9.43679 64.943 9.02131 64.8117 8.66264C64.6803 8.30398 64.4867 8.02344 64.231 7.82102C63.9754 7.61861 63.6611 7.5174 63.2882 7.5174C62.9189 7.5174 62.6064 7.61506 62.3507 7.81037C62.0986 8.00568 61.9051 8.28267 61.7701 8.64133C61.6352 9 61.5677 9.42259 61.5677 9.90909ZM74.0854 10.5163V5.81818H76.3546V14H74.176V12.5138H74.0908C73.9061 12.9933 73.5989 13.3786 73.1693 13.6697C72.7431 13.9609 72.2229 14.1065 71.6085 14.1065C71.0617 14.1065 70.5805 13.9822 70.165 13.7337C69.7495 13.4851 69.4246 13.1317 69.1902 12.6737C68.9594 12.2156 68.8422 11.6669 68.8386 11.0277V5.81818H71.1078V10.6229C71.1114 11.1058 71.241 11.4876 71.4967 11.7681C71.7524 12.0487 72.095 12.1889 72.5247 12.1889C72.7982 12.1889 73.0538 12.1268 73.2918 12.0025C73.5297 11.8746 73.7215 11.6864 73.8671 11.4379C74.0162 11.1893 74.089 10.8821 74.0854 10.5163ZM82.5216 5.81818V7.52273H77.5944V5.81818H82.5216ZM78.713 3.85795H80.9822V11.4858C80.9822 11.6953 81.0142 11.8587 81.0781 11.9759C81.142 12.0895 81.2308 12.1694 81.3444 12.2156C81.4616 12.2617 81.5965 12.2848 81.7492 12.2848C81.8558 12.2848 81.9623 12.2759 82.0688 12.2582C82.1754 12.2369 82.2571 12.2209 82.3139 12.2102L82.6708 13.8988C82.5571 13.9343 82.3973 13.9751 82.1914 14.0213C81.9854 14.071 81.735 14.1012 81.4403 14.1119C80.8934 14.1332 80.414 14.0604 80.0021 13.8935C79.5937 13.7266 79.2759 13.4673 79.0486 13.1158C78.8213 12.7642 78.7095 12.3203 78.713 11.7841V3.85795ZM25.6444 27.3977C25.6444 26.0554 25.8184 24.8214 26.1664 23.6957C26.518 22.5664 27.0187 21.5277 27.6685 20.5795H28.7765C28.5208 20.9311 28.2811 21.3643 28.0574 21.8793C27.8372 22.3906 27.6437 22.9535 27.4768 23.5678C27.3099 24.1786 27.1785 24.8107 27.0826 25.4641C26.9903 26.1175 26.9441 26.7621 26.9441 27.3977C26.9441 28.2429 27.0258 29.1005 27.1891 29.9705C27.3525 30.8406 27.5727 31.6484 27.8497 32.3942C28.1266 33.1399 28.4356 33.7472 28.7765 34.2159H27.6685C27.0187 33.2678 26.518 32.2308 26.1664 31.1051C25.8184 29.9759 25.6444 28.7401 25.6444 27.3977ZM36.427 25.6506L35.2977 25.9702C35.2267 25.782 35.1219 25.5991 34.9834 25.4215C34.8485 25.2404 34.6638 25.0913 34.4295 24.9741C34.1951 24.8569 33.895 24.7983 33.5293 24.7983C33.0285 24.7983 32.6113 24.9137 32.2775 25.1445C31.9472 25.3718 31.7821 25.6612 31.7821 26.0128C31.7821 26.3253 31.8957 26.5721 32.123 26.7532C32.3503 26.9343 32.7054 27.0852 33.1883 27.206L34.4028 27.5043C35.1344 27.6818 35.6795 27.9535 36.0381 28.3192C36.3968 28.6815 36.5761 29.1484 36.5761 29.7202C36.5761 30.1889 36.4412 30.608 36.1713 30.9773C35.905 31.3466 35.5321 31.6378 35.0527 31.8509C34.5733 32.0639 34.0158 32.1705 33.3801 32.1705C32.5456 32.1705 31.8549 31.9893 31.308 31.6271C30.7611 31.2649 30.4149 30.7358 30.2693 30.0398L31.4625 29.7415C31.5761 30.1818 31.791 30.5121 32.107 30.7322C32.4266 30.9524 32.8439 31.0625 33.3588 31.0625C33.9447 31.0625 34.4099 30.9382 34.7544 30.6896C35.1024 30.4375 35.2764 30.1357 35.2764 29.7841C35.2764 29.5 35.177 29.2621 34.9781 29.0703C34.7793 28.875 34.4739 28.7294 34.0619 28.6335L32.6983 28.3139C31.949 28.1364 31.3986 27.8612 31.047 27.4883C30.699 27.1119 30.525 26.6413 30.525 26.0767C30.525 25.6151 30.6546 25.2067 30.9138 24.8516C31.1766 24.4964 31.5335 24.2177 31.9845 24.0153C32.4391 23.8129 32.954 23.7116 33.5293 23.7116C34.3389 23.7116 34.9746 23.8892 35.4362 24.2443C35.9014 24.5994 36.2317 25.0682 36.427 25.6506ZM41.8988 32.1705C41.1105 32.1705 40.4304 31.9964 39.8587 31.6484C39.2905 31.2969 38.852 30.8068 38.543 30.1783C38.2376 29.5462 38.0849 28.8111 38.0849 27.973C38.0849 27.1349 38.2376 26.3963 38.543 25.7571C38.852 25.1143 39.2816 24.6136 39.8321 24.255C40.3861 23.8928 41.0324 23.7116 41.771 23.7116C42.1971 23.7116 42.6179 23.7827 43.0334 23.9247C43.4489 24.0668 43.8271 24.2976 44.168 24.6172C44.5089 24.9332 44.7806 25.3523 44.983 25.8743C45.1854 26.3963 45.2866 27.0391 45.2866 27.8026V28.3352H38.9798V27.2486H44.0082C44.0082 26.7869 43.9159 26.375 43.7312 26.0128C43.5501 25.6506 43.2909 25.3647 42.9535 25.1552C42.6197 24.9457 42.2255 24.8409 41.771 24.8409C41.2703 24.8409 40.837 24.9652 40.4713 25.2138C40.1091 25.4588 39.8303 25.7784 39.635 26.1726C39.4397 26.5668 39.342 26.9893 39.342 27.4403V28.1648C39.342 28.7827 39.4486 29.3065 39.6616 29.7362C39.8782 30.1623 40.1783 30.4872 40.5618 30.7109C40.9454 30.9311 41.391 31.0412 41.8988 31.0412C42.2291 31.0412 42.5274 30.995 42.7937 30.9027C43.0636 30.8068 43.2962 30.6648 43.4915 30.4766C43.6868 30.2848 43.8378 30.0469 43.9443 29.7628L45.1588 30.1037C45.0309 30.5156 44.8161 30.8778 44.5142 31.1903C44.2124 31.4993 43.8395 31.7408 43.3956 31.9148C42.9517 32.0852 42.4528 32.1705 41.8988 32.1705ZM52.7813 35.0682V30.7429H52.6748C52.5824 30.892 52.451 31.0803 52.2806 31.3075C52.1101 31.5312 51.8669 31.7319 51.5508 31.9094C51.2348 32.0835 50.814 32.1705 50.2884 32.1705C49.6066 32.1705 49.0047 31.9982 48.4826 31.6538C47.9606 31.3058 47.5522 30.8157 47.2575 30.1836C46.9628 29.5479 46.8154 28.7969 46.8154 27.9304C46.8154 27.071 46.9628 26.3253 47.2575 25.6932C47.5522 25.0611 47.9624 24.5728 48.488 24.2283C49.0135 23.8839 49.6208 23.7116 50.3097 23.7116C50.8424 23.7116 51.2632 23.8004 51.5721 23.978C51.8846 24.152 52.1226 24.3509 52.2859 24.5746C52.4528 24.7947 52.5824 24.9759 52.6748 25.1179H52.8239V23.8182H54.0384V35.0682H52.7813ZM50.4589 31.0412C50.9631 31.0412 51.3892 30.9098 51.7373 30.647C52.0853 30.3807 52.3498 30.0131 52.5309 29.5444C52.712 29.0721 52.8026 28.527 52.8026 27.9091C52.8026 27.2983 52.7138 26.7638 52.5363 26.3058C52.3587 25.8441 52.0959 25.4854 51.7479 25.2298C51.3999 24.9705 50.9702 24.8409 50.4589 24.8409C49.9262 24.8409 49.4823 24.9776 49.1272 25.2511C48.7756 25.521 48.5111 25.8885 48.3335 26.3537C48.1595 26.8153 48.0725 27.3338 48.0725 27.9091C48.0725 28.4915 48.1613 29.0206 48.3388 29.4964C48.5199 29.9687 48.7863 30.3452 49.1378 30.6257C49.4929 30.9027 49.9333 31.0412 50.4589 31.0412ZM61.4958 28.6548V23.8182H62.7529V32H61.4958V30.6151H61.4106C61.2188 31.0305 60.9205 31.3839 60.5157 31.6751C60.1108 31.9627 59.5995 32.1065 58.9816 32.1065C58.4702 32.1065 58.0157 31.9947 57.6179 31.771C57.2202 31.5437 56.9077 31.2028 56.6804 30.7482C56.4532 30.2901 56.3395 29.7131 56.3395 29.017V23.8182H57.5966V28.9318C57.5966 29.5284 57.7635 30.0043 58.0973 30.3594C58.4347 30.7145 58.8644 30.892 59.3864 30.892C59.6989 30.892 60.0167 30.8121 60.3399 30.6523C60.6666 30.4925 60.94 30.2475 61.1602 29.9173C61.3839 29.587 61.4958 29.1662 61.4958 28.6548ZM68.4858 32.1705C67.6974 32.1705 67.0174 31.9964 66.4456 31.6484C65.8774 31.2969 65.4389 30.8068 65.1299 30.1783C64.8245 29.5462 64.6718 28.8111 64.6718 27.973C64.6718 27.1349 64.8245 26.3963 65.1299 25.7571C65.4389 25.1143 65.8686 24.6136 66.419 24.255C66.973 23.8928 67.6193 23.7116 68.3579 23.7116C68.784 23.7116 69.2049 23.7827 69.6203 23.9247C70.0358 24.0668 70.414 24.2976 70.7549 24.6172C71.0958 24.9332 71.3675 25.3523 71.5699 25.8743C71.7723 26.3963 71.8735 27.0391 71.8735 27.8026V28.3352H65.5667V27.2486H70.5951C70.5951 26.7869 70.5028 26.375 70.3181 26.0128C70.137 25.6506 69.8778 25.3647 69.5404 25.1552C69.2066 24.9457 68.8125 24.8409 68.3579 24.8409C67.8572 24.8409 67.424 24.9652 67.0582 25.2138C66.696 25.4588 66.4172 25.7784 66.2219 26.1726C66.0266 26.5668 65.9289 26.9893 65.9289 27.4403V28.1648C65.9289 28.7827 66.0355 29.3065 66.2485 29.7362C66.4652 30.1623 66.7652 30.4872 67.1487 30.7109C67.5323 30.9311 67.9779 31.0412 68.4858 31.0412C68.816 31.0412 69.1143 30.995 69.3806 30.9027C69.6505 30.8068 69.8831 30.6648 70.0784 30.4766C70.2737 30.2848 70.4247 30.0469 70.5312 29.7628L71.7457 30.1037C71.6179 30.5156 71.403 30.8778 71.1012 31.1903C70.7993 31.4993 70.4264 31.7408 69.9826 31.9148C69.5387 32.0852 69.0397 32.1705 68.4858 32.1705ZM75.0429 27.0781V32H73.7858V23.8182H75.0003V25.0966H75.1068C75.2986 24.6811 75.5898 24.3473 75.9804 24.0952C76.371 23.8395 76.8753 23.7116 77.4932 23.7116C78.0472 23.7116 78.5319 23.8253 78.9474 24.0526C79.3629 24.2763 79.686 24.6172 79.9169 25.0753C80.1477 25.5298 80.2631 26.1051 80.2631 26.8011V32H79.006V26.8864C79.006 26.2436 78.8391 25.7429 78.5053 25.3842C78.1715 25.022 77.7134 24.8409 77.131 24.8409C76.7297 24.8409 76.371 24.9279 76.055 25.1019C75.7425 25.2759 75.4957 25.5298 75.3146 25.8636C75.1335 26.1974 75.0429 26.6023 75.0429 27.0781ZM85.8841 32.1705C85.1171 32.1705 84.4565 31.9893 83.9026 31.6271C83.3486 31.2649 82.9225 30.766 82.6242 30.1303C82.3259 29.4947 82.1767 28.7685 82.1767 27.9517C82.1767 27.1207 82.3294 26.3874 82.6348 25.7518C82.9438 25.1126 83.3734 24.6136 83.9239 24.255C84.4778 23.8928 85.1242 23.7116 85.8628 23.7116C86.4381 23.7116 86.9565 23.8182 87.4182 24.0312C87.8798 24.2443 88.258 24.5426 88.5528 24.9261C88.8475 25.3097 89.0304 25.7571 89.1014 26.2685H87.8443C87.7484 25.8956 87.5354 25.5653 87.2051 25.2777C86.8784 24.9865 86.4381 24.8409 85.8841 24.8409C85.394 24.8409 84.9644 24.9687 84.595 25.2244C84.2293 25.4766 83.9434 25.8335 83.7374 26.2951C83.535 26.7532 83.4338 27.2912 83.4338 27.9091C83.4338 28.5412 83.5332 29.0916 83.7321 29.5604C83.9345 30.0291 84.2186 30.3931 84.5844 30.6523C84.9537 30.9116 85.3869 31.0412 85.8841 31.0412C86.2108 31.0412 86.5073 30.9844 86.7737 30.8707C87.04 30.7571 87.2655 30.5938 87.4502 30.3807C87.6348 30.1676 87.7662 29.9119 87.8443 29.6136H89.1014C89.0304 30.0966 88.8546 30.5316 88.5741 30.9187C88.2971 31.3022 87.9296 31.6076 87.4715 31.8349C87.0169 32.0586 86.4878 32.1705 85.8841 32.1705ZM94.3695 32.1705C93.5812 32.1705 92.9011 31.9964 92.3294 31.6484C91.7612 31.2969 91.3227 30.8068 91.0137 30.1783C90.7083 29.5462 90.5556 28.8111 90.5556 27.973C90.5556 27.1349 90.7083 26.3963 91.0137 25.7571C91.3227 25.1143 91.7524 24.6136 92.3028 24.255C92.8568 23.8928 93.5031 23.7116 94.2417 23.7116C94.6678 23.7116 95.0886 23.7827 95.5041 23.9247C95.9196 24.0668 96.2978 24.2976 96.6387 24.6172C96.9796 24.9332 97.2513 25.3523 97.4537 25.8743C97.6561 26.3963 97.7573 27.0391 97.7573 27.8026V28.3352H91.4505V27.2486H96.4789C96.4789 26.7869 96.3866 26.375 96.2019 26.0128C96.0208 25.6506 95.7616 25.3647 95.4242 25.1552C95.0904 24.9457 94.6962 24.8409 94.2417 24.8409C93.741 24.8409 93.3078 24.9652 92.942 25.2138C92.5798 25.4588 92.301 25.7784 92.1057 26.1726C91.9104 26.5668 91.8127 26.9893 91.8127 27.4403V28.1648C91.8127 28.7827 91.9193 29.3065 92.1323 29.7362C92.3489 30.1623 92.649 30.4872 93.0325 30.7109C93.4161 30.9311 93.8617 31.0412 94.3695 31.0412C94.6998 31.0412 94.9981 30.995 95.2644 30.9027C95.5343 30.8068 95.7669 30.6648 95.9622 30.4766C96.1575 30.2848 96.3085 30.0469 96.415 29.7628L97.6295 30.1037C97.5016 30.5156 97.2868 30.8778 96.985 31.1903C96.6831 31.4993 96.3102 31.7408 95.8663 31.9148C95.4225 32.0852 94.9235 32.1705 94.3695 32.1705ZM102.354 27.3977C102.354 28.7401 102.178 29.9759 101.827 31.1051C101.479 32.2308 100.98 33.2678 100.33 34.2159H99.2222C99.4778 33.8643 99.7158 33.4311 99.9359 32.9162C100.16 32.4048 100.355 31.8437 100.522 31.233C100.689 30.6186 100.818 29.9847 100.911 29.3313C101.007 28.6744 101.055 28.0298 101.055 27.3977C101.055 26.5526 100.973 25.695 100.81 24.8249C100.646 23.9549 100.426 23.147 100.149 22.4013C99.872 21.6555 99.5631 21.0483 99.2222 20.5795H100.33C100.98 21.5277 101.479 22.5664 101.827 23.6957C102.178 24.8214 102.354 26.0554 102.354 27.3977Z" fill="#505050"/>
<path d="M59.336 136.818L60.8382 139.679L62.3776 136.818H64.7053L62.335 140.909L64.7693 145H62.4521L60.8382 142.172L59.2508 145H56.907L59.336 140.909L56.9923 136.818H59.336Z" fill="#BE3B3B"/>
<path d="M66.7455 140.398C66.7455 139.055 66.9195 137.821 67.2675 136.696C67.6191 135.566 68.1198 134.528 68.7696 133.58H69.8776C69.6219 133.931 69.3822 134.364 69.1585 134.879C68.9383 135.391 68.7448 135.953 68.5779 136.568C68.411 137.179 68.2796 137.811 68.1837 138.464C68.0914 139.118 68.0452 139.762 68.0452 140.398C68.0452 141.243 68.1269 142.1 68.2902 142.971C68.4536 143.841 68.6737 144.648 68.9507 145.394C69.2277 146.14 69.5367 146.747 69.8776 147.216H68.7696C68.1198 146.268 67.6191 145.231 67.2675 144.105C66.9195 142.976 66.7455 141.74 66.7455 140.398ZM75.2908 136.818V137.884H71.0508V136.818H75.2908ZM72.2866 134.858H73.5437V142.656C73.5437 143.011 73.5952 143.278 73.6982 143.455C73.8047 143.629 73.9396 143.746 74.103 143.807C74.2699 143.864 74.4457 143.892 74.6303 143.892C74.7688 143.892 74.8825 143.885 74.9712 143.871C75.06 143.853 75.131 143.839 75.1843 143.828L75.44 144.957C75.3548 144.989 75.2358 145.021 75.0831 145.053C74.9304 145.089 74.7369 145.107 74.5025 145.107C74.1474 145.107 73.7994 145.03 73.4585 144.877C73.1211 144.725 72.8406 144.492 72.6168 144.18C72.3967 143.867 72.2866 143.473 72.2866 142.997V134.858ZM79.8665 140.398C79.8665 141.74 79.6907 142.976 79.3391 144.105C78.9911 145.231 78.4922 146.268 77.8423 147.216H76.7344C76.9901 146.864 77.228 146.431 77.4482 145.916C77.6719 145.405 77.8672 144.844 78.0341 144.233C78.201 143.619 78.3306 142.985 78.4229 142.331C78.5188 141.674 78.5668 141.03 78.5668 140.398C78.5668 139.553 78.4851 138.695 78.3217 137.825C78.1584 136.955 77.9382 136.147 77.6612 135.401C77.3842 134.656 77.0753 134.048 76.7344 133.58H77.8423C78.4922 134.528 78.9911 135.566 79.3391 136.696C79.6907 137.821 79.8665 139.055 79.8665 140.398Z" fill="#505050"/>
<path d="M396.753 148.068C396.465 148.068 396.195 148.045 395.943 147.999C395.695 147.956 395.489 147.901 395.325 147.834L395.837 146.14C396.103 146.222 396.343 146.266 396.556 146.273C396.772 146.28 396.959 146.23 397.115 146.124C397.275 146.017 397.404 145.836 397.504 145.581L397.637 145.234L394.702 136.818H397.088L398.782 142.827H398.867L400.577 136.818H402.98L399.8 145.884C399.647 146.325 399.439 146.708 399.176 147.035C398.917 147.365 398.589 147.619 398.191 147.797C397.793 147.978 397.314 148.068 396.753 148.068Z" fill="#743BBE"/>
<path d="M404.833 140.398C404.833 139.055 405.007 137.821 405.355 136.696C405.707 135.566 406.208 134.528 406.858 133.58H407.965C407.71 133.931 407.47 134.364 407.246 134.879C407.026 135.391 406.833 135.953 406.666 136.568C406.499 137.179 406.367 137.811 406.272 138.464C406.179 139.118 406.133 139.762 406.133 140.398C406.133 141.243 406.215 142.1 406.378 142.971C406.541 143.841 406.762 144.648 407.039 145.394C407.316 146.14 407.625 146.747 407.965 147.216H406.858C406.208 146.268 405.707 145.231 405.355 144.105C405.007 142.976 404.833 141.74 404.833 140.398ZM413.379 136.818V137.884H409.139V136.818H413.379ZM410.374 134.858H411.632V142.656C411.632 143.011 411.683 143.278 411.786 143.455C411.893 143.629 412.028 143.746 412.191 143.807C412.358 143.864 412.534 143.892 412.718 143.892C412.857 143.892 412.97 143.885 413.059 143.871C413.148 143.853 413.219 143.839 413.272 143.828L413.528 144.957C413.443 144.989 413.324 145.021 413.171 145.053C413.018 145.089 412.825 145.107 412.59 145.107C412.235 145.107 411.887 145.03 411.546 144.877C411.209 144.725 410.928 144.492 410.705 144.18C410.485 143.867 410.374 143.473 410.374 142.997V134.858ZM417.954 140.398C417.954 141.74 417.779 142.976 417.427 144.105C417.079 145.231 416.58 146.268 415.93 147.216H414.822C415.078 146.864 415.316 146.431 415.536 145.916C415.76 145.405 415.955 144.844 416.122 144.233C416.289 143.619 416.419 142.985 416.511 142.331C416.607 141.674 416.655 141.03 416.655 140.398C416.655 139.553 416.573 138.695 416.41 137.825C416.246 136.955 416.026 136.147 415.749 135.401C415.472 134.656 415.163 134.048 414.822 133.58H415.93C416.58 134.528 417.079 135.566 417.427 136.696C417.779 137.821 417.954 139.055 417.954 140.398Z" fill="#505050"/>
<path d="M389.199 8.54545C389.199 9.73509 388.974 10.7472 388.523 11.5817C388.075 12.4162 387.464 13.0536 386.69 13.494C385.92 13.9308 385.053 14.1491 384.091 14.1491C383.121 14.1491 382.251 13.929 381.481 13.4886C380.71 13.0483 380.101 12.4109 379.654 11.5763C379.206 10.7418 378.982 9.73153 378.982 8.54545C378.982 7.35582 379.206 6.34375 379.654 5.50923C380.101 4.67472 380.71 4.03906 381.481 3.60227C382.251 3.16193 383.121 2.94176 384.091 2.94176C385.053 2.94176 385.92 3.16193 386.69 3.60227C387.464 4.03906 388.075 4.67472 388.523 5.50923C388.974 6.34375 389.199 7.35582 389.199 8.54545ZM386.861 8.54545C386.861 7.77486 386.745 7.125 386.514 6.59588C386.287 6.06676 385.966 5.66548 385.55 5.39205C385.135 5.11861 384.648 4.98189 384.091 4.98189C383.533 4.98189 383.047 5.11861 382.631 5.39205C382.216 5.66548 381.893 6.06676 381.662 6.59588C381.435 7.125 381.321 7.77486 381.321 8.54545C381.321 9.31605 381.435 9.96591 381.662 10.495C381.893 11.0241 382.216 11.4254 382.631 11.6989C383.047 11.9723 383.533 12.109 384.091 12.109C384.648 12.109 385.135 11.9723 385.55 11.6989C385.966 11.4254 386.287 11.0241 386.514 10.495C386.745 9.96591 386.861 9.31605 386.861 8.54545ZM396.112 10.5163V5.81818H398.381V14H396.202V12.5138H396.117C395.932 12.9933 395.625 13.3786 395.196 13.6697C394.769 13.9609 394.249 14.1065 393.635 14.1065C393.088 14.1065 392.607 13.9822 392.191 13.7337C391.776 13.4851 391.451 13.1317 391.217 12.6737C390.986 12.2156 390.869 11.6669 390.865 11.0277V5.81818H393.134V10.6229C393.138 11.1058 393.267 11.4876 393.523 11.7681C393.779 12.0487 394.121 12.1889 394.551 12.1889C394.825 12.1889 395.08 12.1268 395.318 12.0025C395.556 11.8746 395.748 11.6864 395.893 11.4379C396.043 11.1893 396.115 10.8821 396.112 10.5163ZM404.548 5.81818V7.52273H399.621V5.81818H404.548ZM400.739 3.85795H403.009V11.4858C403.009 11.6953 403.041 11.8587 403.104 11.9759C403.168 12.0895 403.257 12.1694 403.371 12.2156C403.488 12.2617 403.623 12.2848 403.776 12.2848C403.882 12.2848 403.989 12.2759 404.095 12.2582C404.202 12.2369 404.283 12.2209 404.34 12.2102L404.697 13.8988C404.583 13.9343 404.424 13.9751 404.218 14.0213C404.012 14.071 403.761 14.1012 403.467 14.1119C402.92 14.1332 402.44 14.0604 402.028 13.8935C401.62 13.7266 401.302 13.4673 401.075 13.1158C400.848 12.7642 400.736 12.3203 400.739 11.7841V3.85795ZM406.026 17.0682V5.81818H408.263V7.19247H408.365C408.464 6.9723 408.608 6.74858 408.796 6.52131C408.988 6.29048 409.236 6.09872 409.542 5.94602C409.851 5.78977 410.234 5.71165 410.692 5.71165C411.289 5.71165 411.839 5.8679 412.344 6.1804C412.848 6.48935 413.251 6.95632 413.553 7.58132C413.855 8.20277 414.006 8.98224 414.006 9.91974C414.006 10.8324 413.858 11.603 413.563 12.2315C413.272 12.8565 412.875 13.3306 412.37 13.6538C411.87 13.9734 411.308 14.1332 410.687 14.1332C410.247 14.1332 409.872 14.0604 409.563 13.9148C409.258 13.7692 409.007 13.5863 408.812 13.3661C408.617 13.1424 408.468 12.9169 408.365 12.6896H408.295V17.0682H406.026ZM408.247 9.90909C408.247 10.3956 408.315 10.82 408.45 11.1822C408.585 11.5444 408.78 11.8267 409.036 12.0291C409.291 12.228 409.602 12.3274 409.968 12.3274C410.337 12.3274 410.65 12.2262 410.905 12.0238C411.161 11.8178 411.355 11.5337 411.486 11.1715C411.621 10.8058 411.688 10.3849 411.688 9.90909C411.688 9.43679 411.623 9.02131 411.491 8.66264C411.36 8.30398 411.166 8.02344 410.911 7.82102C410.655 7.61861 410.341 7.5174 409.968 7.5174C409.599 7.5174 409.286 7.61506 409.03 7.81037C408.778 8.00568 408.585 8.28267 408.45 8.64133C408.315 9 408.247 9.42259 408.247 9.90909ZM420.765 10.5163V5.81818H423.034V14H420.856V12.5138H420.77C420.586 12.9933 420.279 13.3786 419.849 13.6697C419.423 13.9609 418.903 14.1065 418.288 14.1065C417.741 14.1065 417.26 13.9822 416.845 13.7337C416.429 13.4851 416.104 13.1317 415.87 12.6737C415.639 12.2156 415.522 11.6669 415.518 11.0277V5.81818H417.788V10.6229C417.791 11.1058 417.921 11.4876 418.176 11.7681C418.432 12.0487 418.775 12.1889 419.204 12.1889C419.478 12.1889 419.734 12.1268 419.971 12.0025C420.209 11.8746 420.401 11.6864 420.547 11.4379C420.696 11.1893 420.769 10.8821 420.765 10.5163ZM429.201 5.81818V7.52273H424.274V5.81818H429.201ZM425.393 3.85795H427.662V11.4858C427.662 11.6953 427.694 11.8587 427.758 11.9759C427.822 12.0895 427.91 12.1694 428.024 12.2156C428.141 12.2617 428.276 12.2848 428.429 12.2848C428.535 12.2848 428.642 12.2759 428.749 12.2582C428.855 12.2369 428.937 12.2209 428.994 12.2102L429.35 13.8988C429.237 13.9343 429.077 13.9751 428.871 14.0213C428.665 14.071 428.415 14.1012 428.12 14.1119C427.573 14.1332 427.094 14.0604 426.682 13.8935C426.273 13.7266 425.956 13.4673 425.728 13.1158C425.501 12.7642 425.389 12.3203 425.393 11.7841V3.85795ZM365.644 27.3977C365.644 26.0554 365.818 24.8214 366.166 23.6957C366.518 22.5664 367.019 21.5277 367.669 20.5795H368.777C368.521 20.9311 368.281 21.3643 368.057 21.8793C367.837 22.3906 367.644 22.9535 367.477 23.5678C367.31 24.1786 367.178 24.8107 367.083 25.4641C366.99 26.1175 366.944 26.7621 366.944 27.3977C366.944 28.2429 367.026 29.1005 367.189 29.9705C367.352 30.8406 367.573 31.6484 367.85 32.3942C368.127 33.1399 368.436 33.7472 368.777 34.2159H367.669C367.019 33.2678 366.518 32.2308 366.166 31.1051C365.818 29.9759 365.644 28.7401 365.644 27.3977ZM376.427 25.6506L375.298 25.9702C375.227 25.782 375.122 25.5991 374.983 25.4215C374.848 25.2404 374.664 25.0913 374.429 24.9741C374.195 24.8569 373.895 24.7983 373.529 24.7983C373.029 24.7983 372.611 24.9137 372.277 25.1445C371.947 25.3718 371.782 25.6612 371.782 26.0128C371.782 26.3253 371.896 26.5721 372.123 26.7532C372.35 26.9343 372.705 27.0852 373.188 27.206L374.403 27.5043C375.134 27.6818 375.679 27.9535 376.038 28.3192C376.397 28.6815 376.576 29.1484 376.576 29.7202C376.576 30.1889 376.441 30.608 376.171 30.9773C375.905 31.3466 375.532 31.6378 375.053 31.8509C374.573 32.0639 374.016 32.1705 373.38 32.1705C372.546 32.1705 371.855 31.9893 371.308 31.6271C370.761 31.2649 370.415 30.7358 370.269 30.0398L371.462 29.7415C371.576 30.1818 371.791 30.5121 372.107 30.7322C372.427 30.9524 372.844 31.0625 373.359 31.0625C373.945 31.0625 374.41 30.9382 374.754 30.6896C375.102 30.4375 375.276 30.1357 375.276 29.7841C375.276 29.5 375.177 29.2621 374.978 29.0703C374.779 28.875 374.474 28.7294 374.062 28.6335L372.698 28.3139C371.949 28.1364 371.399 27.8612 371.047 27.4883C370.699 27.1119 370.525 26.6413 370.525 26.0767C370.525 25.6151 370.655 25.2067 370.914 24.8516C371.177 24.4964 371.534 24.2177 371.985 24.0153C372.439 23.8129 372.954 23.7116 373.529 23.7116C374.339 23.7116 374.975 23.8892 375.436 24.2443C375.901 24.5994 376.232 25.0682 376.427 25.6506ZM381.899 32.1705C381.11 32.1705 380.43 31.9964 379.859 31.6484C379.291 31.2969 378.852 30.8068 378.543 30.1783C378.238 29.5462 378.085 28.8111 378.085 27.973C378.085 27.1349 378.238 26.3963 378.543 25.7571C378.852 25.1143 379.282 24.6136 379.832 24.255C380.386 23.8928 381.032 23.7116 381.771 23.7116C382.197 23.7116 382.618 23.7827 383.033 23.9247C383.449 24.0668 383.827 24.2976 384.168 24.6172C384.509 24.9332 384.781 25.3523 384.983 25.8743C385.185 26.3963 385.287 27.0391 385.287 27.8026V28.3352H378.98V27.2486H384.008C384.008 26.7869 383.916 26.375 383.731 26.0128C383.55 25.6506 383.291 25.3647 382.954 25.1552C382.62 24.9457 382.226 24.8409 381.771 24.8409C381.27 24.8409 380.837 24.9652 380.471 25.2138C380.109 25.4588 379.83 25.7784 379.635 26.1726C379.44 26.5668 379.342 26.9893 379.342 27.4403V28.1648C379.342 28.7827 379.449 29.3065 379.662 29.7362C379.878 30.1623 380.178 30.4872 380.562 30.7109C380.945 30.9311 381.391 31.0412 381.899 31.0412C382.229 31.0412 382.527 30.995 382.794 30.9027C383.064 30.8068 383.296 30.6648 383.492 30.4766C383.687 30.2848 383.838 30.0469 383.944 29.7628L385.159 30.1037C385.031 30.5156 384.816 30.8778 384.514 31.1903C384.212 31.4993 383.84 31.7408 383.396 31.9148C382.952 32.0852 382.453 32.1705 381.899 32.1705ZM392.781 35.0682V30.7429H392.675C392.582 30.892 392.451 31.0803 392.281 31.3075C392.11 31.5312 391.867 31.7319 391.551 31.9094C391.235 32.0835 390.814 32.1705 390.288 32.1705C389.607 32.1705 389.005 31.9982 388.483 31.6538C387.961 31.3058 387.552 30.8157 387.258 30.1836C386.963 29.5479 386.815 28.7969 386.815 27.9304C386.815 27.071 386.963 26.3253 387.258 25.6932C387.552 25.0611 387.962 24.5728 388.488 24.2283C389.014 23.8839 389.621 23.7116 390.31 23.7116C390.842 23.7116 391.263 23.8004 391.572 23.978C391.885 24.152 392.123 24.3509 392.286 24.5746C392.453 24.7947 392.582 24.9759 392.675 25.1179H392.824V23.8182H394.038V35.0682H392.781ZM390.459 31.0412C390.963 31.0412 391.389 30.9098 391.737 30.647C392.085 30.3807 392.35 30.0131 392.531 29.5444C392.712 29.0721 392.803 28.527 392.803 27.9091C392.803 27.2983 392.714 26.7638 392.536 26.3058C392.359 25.8441 392.096 25.4854 391.748 25.2298C391.4 24.9705 390.97 24.8409 390.459 24.8409C389.926 24.8409 389.482 24.9776 389.127 25.2511C388.776 25.521 388.511 25.8885 388.333 26.3537C388.159 26.8153 388.072 27.3338 388.072 27.9091C388.072 28.4915 388.161 29.0206 388.339 29.4964C388.52 29.9687 388.786 30.3452 389.138 30.6257C389.493 30.9027 389.933 31.0412 390.459 31.0412ZM401.496 28.6548V23.8182H402.753V32H401.496V30.6151H401.411C401.219 31.0305 400.92 31.3839 400.516 31.6751C400.111 31.9627 399.599 32.1065 398.982 32.1065C398.47 32.1065 398.016 31.9947 397.618 31.771C397.22 31.5437 396.908 31.2028 396.68 30.7482C396.453 30.2901 396.34 29.7131 396.34 29.017V23.8182H397.597V28.9318C397.597 29.5284 397.764 30.0043 398.097 30.3594C398.435 30.7145 398.864 30.892 399.386 30.892C399.699 30.892 400.017 30.8121 400.34 30.6523C400.667 30.4925 400.94 30.2475 401.16 29.9173C401.384 29.587 401.496 29.1662 401.496 28.6548ZM408.486 32.1705C407.697 32.1705 407.017 31.9964 406.446 31.6484C405.877 31.2969 405.439 30.8068 405.13 30.1783C404.825 29.5462 404.672 28.8111 404.672 27.973C404.672 27.1349 404.825 26.3963 405.13 25.7571C405.439 25.1143 405.869 24.6136 406.419 24.255C406.973 23.8928 407.619 23.7116 408.358 23.7116C408.784 23.7116 409.205 23.7827 409.62 23.9247C410.036 24.0668 410.414 24.2976 410.755 24.6172C411.096 24.9332 411.367 25.3523 411.57 25.8743C411.772 26.3963 411.874 27.0391 411.874 27.8026V28.3352H405.567V27.2486H410.595C410.595 26.7869 410.503 26.375 410.318 26.0128C410.137 25.6506 409.878 25.3647 409.54 25.1552C409.207 24.9457 408.812 24.8409 408.358 24.8409C407.857 24.8409 407.424 24.9652 407.058 25.2138C406.696 25.4588 406.417 25.7784 406.222 26.1726C406.027 26.5668 405.929 26.9893 405.929 27.4403V28.1648C405.929 28.7827 406.035 29.3065 406.249 29.7362C406.465 30.1623 406.765 30.4872 407.149 30.7109C407.532 30.9311 407.978 31.0412 408.486 31.0412C408.816 31.0412 409.114 30.995 409.381 30.9027C409.651 30.8068 409.883 30.6648 410.078 30.4766C410.274 30.2848 410.425 30.0469 410.531 29.7628L411.746 30.1037C411.618 30.5156 411.403 30.8778 411.101 31.1903C410.799 31.4993 410.426 31.7408 409.983 31.9148C409.539 32.0852 409.04 32.1705 408.486 32.1705ZM415.043 27.0781V32H413.786V23.8182H415V25.0966H415.107C415.299 24.6811 415.59 24.3473 415.98 24.0952C416.371 23.8395 416.875 23.7116 417.493 23.7116C418.047 23.7116 418.532 23.8253 418.947 24.0526C419.363 24.2763 419.686 24.6172 419.917 25.0753C420.148 25.5298 420.263 26.1051 420.263 26.8011V32H419.006V26.8864C419.006 26.2436 418.839 25.7429 418.505 25.3842C418.171 25.022 417.713 24.8409 417.131 24.8409C416.73 24.8409 416.371 24.9279 416.055 25.1019C415.742 25.2759 415.496 25.5298 415.315 25.8636C415.133 26.1974 415.043 26.6023 415.043 27.0781ZM425.884 32.1705C425.117 32.1705 424.457 31.9893 423.903 31.6271C423.349 31.2649 422.922 30.766 422.624 30.1303C422.326 29.4947 422.177 28.7685 422.177 27.9517C422.177 27.1207 422.329 26.3874 422.635 25.7518C422.944 25.1126 423.373 24.6136 423.924 24.255C424.478 23.8928 425.124 23.7116 425.863 23.7116C426.438 23.7116 426.957 23.8182 427.418 24.0312C427.88 24.2443 428.258 24.5426 428.553 24.9261C428.848 25.3097 429.03 25.7571 429.101 26.2685H427.844C427.748 25.8956 427.535 25.5653 427.205 25.2777C426.878 24.9865 426.438 24.8409 425.884 24.8409C425.394 24.8409 424.964 24.9687 424.595 25.2244C424.229 25.4766 423.943 25.8335 423.737 26.2951C423.535 26.7532 423.434 27.2912 423.434 27.9091C423.434 28.5412 423.533 29.0916 423.732 29.5604C423.935 30.0291 424.219 30.3931 424.584 30.6523C424.954 30.9116 425.387 31.0412 425.884 31.0412C426.211 31.0412 426.507 30.9844 426.774 30.8707C427.04 30.7571 427.265 30.5938 427.45 30.3807C427.635 30.1676 427.766 29.9119 427.844 29.6136H429.101C429.03 30.0966 428.855 30.5316 428.574 30.9187C428.297 31.3022 427.93 31.6076 427.471 31.8349C427.017 32.0586 426.488 32.1705 425.884 32.1705ZM434.37 32.1705C433.581 32.1705 432.901 31.9964 432.329 31.6484C431.761 31.2969 431.323 30.8068 431.014 30.1783C430.708 29.5462 430.556 28.8111 430.556 27.973C430.556 27.1349 430.708 26.3963 431.014 25.7571C431.323 25.1143 431.752 24.6136 432.303 24.255C432.857 23.8928 433.503 23.7116 434.242 23.7116C434.668 23.7116 435.089 23.7827 435.504 23.9247C435.92 24.0668 436.298 24.2976 436.639 24.6172C436.98 24.9332 437.251 25.3523 437.454 25.8743C437.656 26.3963 437.757 27.0391 437.757 27.8026V28.3352H431.451V27.2486H436.479C436.479 26.7869 436.387 26.375 436.202 26.0128C436.021 25.6506 435.762 25.3647 435.424 25.1552C435.09 24.9457 434.696 24.8409 434.242 24.8409C433.741 24.8409 433.308 24.9652 432.942 25.2138C432.58 25.4588 432.301 25.7784 432.106 26.1726C431.91 26.5668 431.813 26.9893 431.813 27.4403V28.1648C431.813 28.7827 431.919 29.3065 432.132 29.7362C432.349 30.1623 432.649 30.4872 433.033 30.7109C433.416 30.9311 433.862 31.0412 434.37 31.0412C434.7 31.0412 434.998 30.995 435.264 30.9027C435.534 30.8068 435.767 30.6648 435.962 30.4766C436.158 30.2848 436.308 30.0469 436.415 29.7628L437.629 30.1037C437.502 30.5156 437.287 30.8778 436.985 31.1903C436.683 31.4993 436.31 31.7408 435.866 31.9148C435.422 32.0852 434.924 32.1705 434.37 32.1705ZM442.354 27.3977C442.354 28.7401 442.178 29.9759 441.827 31.1051C441.479 32.2308 440.98 33.2678 440.33 34.2159H439.222C439.478 33.8643 439.716 33.4311 439.936 32.9162C440.16 32.4048 440.355 31.8437 440.522 31.233C440.689 30.6186 440.818 29.9847 440.911 29.3313C441.007 28.6744 441.055 28.0298 441.055 27.3977C441.055 26.5526 440.973 25.695 440.81 24.8249C440.646 23.9549 440.426 23.147 440.149 22.4013C439.872 21.6555 439.563 21.0483 439.222 20.5795H440.33C440.98 21.5277 441.479 22.5664 441.827 23.6957C442.178 24.8214 442.354 26.0554 442.354 27.3977Z" fill="#505050"/>
<rect x="220" y="131" width="22" height="22" fill="white"/>
<rect x="220.5" y="131.5" width="21" height="21" stroke="#974594" stroke-opacity="0.5"/>
<path d="M230.359 148H226.492V137.091H230.391C231.488 137.091 232.433 137.309 233.225 137.746C234.016 138.179 234.625 138.803 235.052 139.616C235.481 140.429 235.696 141.402 235.696 142.535C235.696 143.671 235.481 144.648 235.052 145.464C234.625 146.281 234.013 146.908 233.214 147.345C232.418 147.782 231.467 148 230.359 148ZM228.798 146.024H230.263C230.945 146.024 231.518 145.903 231.983 145.662C232.452 145.417 232.804 145.038 233.038 144.527C233.276 144.012 233.395 143.348 233.395 142.535C233.395 141.729 233.276 141.07 233.038 140.559C232.804 140.047 232.454 139.671 231.989 139.429C231.524 139.188 230.95 139.067 230.268 139.067H228.798V146.024Z" fill="#974594" fill-opacity="0.5"/>
<path d="M355 91L345 85.2265V96.7735L355 91ZM346 90L107 90V92L346 92V90Z" fill="#505050"/>
<rect x="141" y="37" width="184" height="89" rx="8" fill="#363636" stroke="white" stroke-width="2"/>
<path d="M153.782 21.1921C153.733 20.7051 153.526 20.3268 153.16 20.0572C152.794 19.7875 152.297 19.6527 151.669 19.6527C151.242 19.6527 150.882 19.7131 150.588 19.8338C150.294 19.9505 150.069 20.1135 149.912 20.3228C149.759 20.5321 149.683 20.7695 149.683 21.0352C149.674 21.2565 149.721 21.4497 149.821 21.6147C149.926 21.7797 150.069 21.9226 150.25 22.0433C150.431 22.16 150.64 22.2627 150.878 22.3512C151.115 22.4357 151.369 22.5082 151.638 22.5685L152.749 22.8342C153.289 22.9549 153.784 23.1159 154.234 23.3171C154.685 23.5183 155.076 23.7659 155.406 24.0597C155.736 24.3535 155.991 24.6996 156.172 25.098C156.357 25.4964 156.452 25.9532 156.456 26.4684C156.452 27.225 156.259 27.881 155.876 28.4364C155.498 28.9878 154.951 29.4164 154.234 29.7223C153.522 30.0241 152.663 30.1751 151.657 30.1751C150.658 30.1751 149.789 30.0221 149.049 29.7163C148.312 29.4104 147.737 28.9576 147.322 28.358C146.912 27.7543 146.696 27.0077 146.676 26.1183H149.206C149.234 26.5328 149.353 26.8789 149.562 27.1566C149.775 27.4303 150.059 27.6375 150.413 27.7784C150.771 27.9152 151.176 27.9837 151.626 27.9837C152.069 27.9837 152.453 27.9193 152.779 27.7905C153.109 27.6617 153.365 27.4826 153.546 27.2532C153.727 27.0238 153.818 26.7602 153.818 26.4624C153.818 26.1847 153.735 25.9512 153.57 25.7621C153.409 25.5729 153.172 25.4119 152.858 25.2791C152.548 25.1463 152.168 25.0256 151.717 24.9169L150.371 24.5788C149.328 24.3253 148.505 23.9289 147.902 23.3896C147.298 22.8503 146.998 22.1238 147.002 21.2102C146.998 20.4616 147.197 19.8076 147.6 19.2482C148.006 18.6888 148.564 18.2521 149.272 17.9382C149.98 17.6243 150.785 17.4673 151.687 17.4673C152.604 17.4673 153.405 17.6243 154.089 17.9382C154.778 18.2521 155.313 18.6888 155.695 19.2482C156.078 19.8076 156.275 20.4556 156.287 21.1921H153.782ZM164.921 21.1921C164.873 20.7051 164.666 20.3268 164.299 20.0572C163.933 19.7875 163.436 19.6527 162.808 19.6527C162.382 19.6527 162.022 19.7131 161.728 19.8338C161.434 19.9505 161.209 20.1135 161.052 20.3228C160.899 20.5321 160.822 20.7695 160.822 21.0352C160.814 21.2565 160.86 21.4497 160.961 21.6147C161.066 21.7797 161.209 21.9226 161.39 22.0433C161.571 22.16 161.78 22.2627 162.017 22.3512C162.255 22.4357 162.508 22.5082 162.778 22.5685L163.889 22.8342C164.428 22.9549 164.923 23.1159 165.374 23.3171C165.825 23.5183 166.215 23.7659 166.545 24.0597C166.875 24.3535 167.131 24.6996 167.312 25.098C167.497 25.4964 167.592 25.9532 167.596 26.4684C167.592 27.225 167.398 27.881 167.016 28.4364C166.638 28.9878 166.09 29.4164 165.374 29.7223C164.662 30.0241 163.802 30.1751 162.796 30.1751C161.798 30.1751 160.929 30.0221 160.188 29.7163C159.452 29.4104 158.876 28.9576 158.462 28.358C158.051 27.7543 157.836 27.0077 157.816 26.1183H160.345C160.373 26.5328 160.492 26.8789 160.701 27.1566C160.915 27.4303 161.198 27.6375 161.553 27.7784C161.911 27.9152 162.315 27.9837 162.766 27.9837C163.209 27.9837 163.593 27.9193 163.919 27.7905C164.249 27.6617 164.505 27.4826 164.686 27.2532C164.867 27.0238 164.957 26.7602 164.957 26.4624C164.957 26.1847 164.875 25.9512 164.71 25.7621C164.549 25.5729 164.312 25.4119 163.998 25.2791C163.688 25.1463 163.307 25.0256 162.857 24.9169L161.51 24.5788C160.468 24.3253 159.645 23.9289 159.041 23.3896C158.438 22.8503 158.138 22.1238 158.142 21.2102C158.138 20.4616 158.337 19.8076 158.739 19.2482C159.146 18.6888 159.703 18.2521 160.412 17.9382C161.12 17.6243 161.925 17.4673 162.826 17.4673C163.744 17.4673 164.545 17.6243 165.229 17.9382C165.917 18.2521 166.453 18.6888 166.835 19.2482C167.217 19.8076 167.415 20.4556 167.427 21.1921H164.921ZM169.354 17.6364H172.578L175.982 25.9432H176.127L179.532 17.6364H182.756V30H180.22V21.9528H180.118L176.918 29.9396H175.192L171.992 21.9226H171.889V30H169.354V17.6364Z" fill="#363636"/>
<rect x="149" y="97" width="165" height="23" rx="3" fill="white"/>
<rect x="149" y="54" width="165" height="23" rx="3" fill="white"/>
<path d="M160.161 65.7933V71H157.664V58.9918H160.091V63.5828H160.197C160.4 63.0512 160.728 62.6349 161.182 62.3339C161.635 62.029 162.204 61.8766 162.888 61.8766C163.513 61.8766 164.059 62.0134 164.524 62.287C164.993 62.5567 165.356 62.9457 165.614 63.4538C165.876 63.9581 166.005 64.562 166.001 65.2656V71H163.504V65.7112C163.507 65.1562 163.367 64.7242 163.081 64.4154C162.8 64.1066 162.405 63.9522 161.897 63.9522C161.557 63.9522 161.256 64.0245 160.994 64.1692C160.736 64.3138 160.533 64.5249 160.384 64.8024C160.24 65.076 160.165 65.4063 160.161 65.7933ZM222.804 65.7933V71H220.307V58.9918H222.734V63.5828H222.839C223.043 63.0512 223.371 62.6349 223.825 62.3339C224.278 62.029 224.847 61.8766 225.531 61.8766C226.156 61.8766 226.702 62.0134 227.167 62.287C227.636 62.5567 227.999 62.9457 228.257 63.4538C228.519 63.9581 228.648 64.562 228.644 65.2656V71H226.146V65.7112C226.15 65.1562 226.01 64.7242 225.724 64.4154C225.443 64.1066 225.048 63.9522 224.54 63.9522C224.2 63.9522 223.899 64.0245 223.637 64.1692C223.379 64.3138 223.176 64.5249 223.027 64.8024C222.882 65.076 222.808 65.4063 222.804 65.7933Z" fill="#4C7477"/>
<path d="M167.791 63.3072L168.213 58.9918H169.785L168.8 63.3072H167.791ZM172.357 65.934C172.357 64.4565 172.549 63.0981 172.932 61.859C173.319 60.616 173.87 59.4726 174.585 58.4289H175.805C175.523 58.8159 175.26 59.2928 175.013 59.8596C174.771 60.4225 174.558 61.042 174.374 61.7183C174.191 62.3906 174.046 63.0864 173.94 63.8056C173.839 64.5249 173.788 65.2343 173.788 65.934C173.788 66.8644 173.878 67.8084 174.058 68.7661C174.237 69.7237 174.48 70.613 174.785 71.4339C175.09 72.2548 175.43 72.9232 175.805 73.4392H174.585C173.87 72.3955 173.319 71.2541 172.932 70.015C172.549 68.7719 172.357 67.4116 172.357 65.934ZM181.764 61.9938V63.1665H177.096V61.9938H181.764ZM178.457 59.8361H179.84V68.4201C179.84 68.811 179.897 69.1042 180.01 69.2996C180.128 69.4912 180.276 69.6202 180.456 69.6866C180.64 69.7491 180.833 69.7804 181.037 69.7804C181.189 69.7804 181.314 69.7726 181.412 69.757C181.51 69.7374 181.588 69.7218 181.646 69.7101L181.928 70.9531C181.834 70.9883 181.703 71.0235 181.535 71.0586C181.367 71.0977 181.154 71.1173 180.896 71.1173C180.505 71.1173 180.122 71.0332 179.747 70.8651C179.375 70.6971 179.066 70.441 178.82 70.097C178.578 69.7531 178.457 69.3192 178.457 68.7954V59.8361ZM186.8 65.934C186.8 67.4116 186.607 68.7719 186.22 70.015C185.837 71.2541 185.287 72.3955 184.572 73.4392H183.353C183.634 73.0522 183.896 72.5753 184.138 72.0085C184.385 71.4456 184.6 70.828 184.783 70.1557C184.967 69.4794 185.11 68.7817 185.211 68.0624C185.317 67.3393 185.37 66.6298 185.37 65.934C185.37 65.0037 185.28 64.0597 185.1 63.102C184.92 62.1443 184.678 61.2551 184.373 60.4342C184.068 59.6133 183.728 58.9449 183.353 58.4289H184.572C185.287 59.4726 185.837 60.616 186.22 61.859C186.607 63.0981 186.8 64.4565 186.8 65.934ZM231.372 65.934C231.372 64.4565 231.564 63.0981 231.947 61.859C232.334 60.616 232.885 59.4726 233.6 58.4289H234.82C234.538 58.8159 234.275 59.2928 234.028 59.8596C233.786 60.4225 233.573 61.042 233.389 61.7183C233.205 62.3906 233.061 63.0864 232.955 63.8056C232.854 64.5249 232.803 65.2343 232.803 65.934C232.803 66.8644 232.893 67.8084 233.073 68.7661C233.252 69.7237 233.495 70.613 233.8 71.4339C234.105 72.2548 234.445 72.9232 234.82 73.4392H233.6C232.885 72.3955 232.334 71.2541 231.947 70.015C231.564 68.7719 231.372 67.4116 231.372 65.934ZM240.779 61.9938V63.1665H236.111V61.9938H240.779ZM237.472 59.8361H238.855V68.4201C238.855 68.811 238.912 69.1042 239.025 69.2996C239.143 69.4912 239.291 69.6202 239.471 69.6866C239.655 69.7491 239.848 69.7804 240.051 69.7804C240.204 69.7804 240.329 69.7726 240.427 69.757C240.524 69.7374 240.603 69.7218 240.661 69.7101L240.943 70.9531C240.849 70.9883 240.718 71.0235 240.55 71.0586C240.382 71.0977 240.169 71.1173 239.911 71.1173C239.52 71.1173 239.137 71.0332 238.762 70.8651C238.39 70.6971 238.081 70.441 237.835 70.097C237.593 69.7531 237.472 69.3192 237.472 68.7954V59.8361ZM245.815 65.934C245.815 67.4116 245.622 68.7719 245.235 70.015C244.852 71.2541 244.302 72.3955 243.587 73.4392H242.367C242.649 73.0522 242.911 72.5753 243.153 72.0085C243.399 71.4456 243.614 70.828 243.798 70.1557C243.982 69.4794 244.125 68.7817 244.226 68.0624C244.332 67.3393 244.384 66.6298 244.384 65.934C244.384 65.0037 244.295 64.0597 244.115 63.102C243.935 62.1443 243.693 61.2551 243.388 60.4342C243.083 59.6133 242.743 58.9449 242.367 58.4289H243.587C244.302 59.4726 244.852 60.616 245.235 61.859C245.622 63.0981 245.815 64.4565 245.815 65.934ZM288.13 65.934C288.13 64.4565 288.321 63.0981 288.704 61.859C289.091 60.616 289.642 59.4726 290.358 58.4289H291.577C291.296 58.8159 291.032 59.2928 290.786 59.8596C290.543 60.4225 290.33 61.042 290.147 61.7183C289.963 62.3906 289.818 63.0864 289.713 63.8056C289.611 64.5249 289.56 65.2343 289.56 65.934C289.56 66.8644 289.65 67.8084 289.83 68.7661C290.01 69.7237 290.252 70.613 290.557 71.4339C290.862 72.2548 291.202 72.9232 291.577 73.4392H290.358C289.642 72.3955 289.091 71.2541 288.704 70.015C288.321 68.7719 288.13 67.4116 288.13 65.934ZM297.536 61.9938V63.1665H292.869V61.9938H297.536ZM294.229 59.8361H295.613V68.4201C295.613 68.811 295.67 69.1042 295.783 69.2996C295.9 69.4912 296.049 69.6202 296.228 69.6866C296.412 69.7491 296.606 69.7804 296.809 69.7804C296.961 69.7804 297.087 69.7726 297.184 69.757C297.282 69.7374 297.36 69.7218 297.419 69.7101L297.7 70.9531C297.606 70.9883 297.475 71.0235 297.307 71.0586C297.139 71.0977 296.926 71.1173 296.668 71.1173C296.277 71.1173 295.894 71.0332 295.519 70.8651C295.148 70.6971 294.839 70.441 294.593 70.097C294.35 69.7531 294.229 69.3192 294.229 68.7954V59.8361ZM302.573 65.934C302.573 67.4116 302.379 68.7719 301.992 70.015C301.609 71.2541 301.06 72.3955 300.345 73.4392H299.125C299.406 73.0522 299.668 72.5753 299.911 72.0085C300.157 71.4456 300.372 70.828 300.556 70.1557C300.739 69.4794 300.882 68.7817 300.984 68.0624C301.089 67.3393 301.142 66.6298 301.142 65.934C301.142 65.0037 301.052 64.0597 300.872 63.102C300.692 62.1443 300.45 61.2551 300.145 60.4342C299.84 59.6133 299.5 58.9449 299.125 58.4289H300.345C301.06 59.4726 301.609 60.616 301.992 61.859C302.379 63.0981 302.573 64.4565 302.573 65.934Z" fill="#505050"/>
<path d="M194.423 65.1132V64.1457H201.101V65.1132H194.423ZM194.423 68.4729V67.5054H201.101V68.4729H194.423ZM256.275 70.0208V62.5978H257.278V70.0208H256.275ZM253.062 66.8077V65.8109H260.491V66.8077H253.062Z" fill="#555555"/>
<path d="M210.072 71H207.351L211.497 58.9918H214.769L218.908 71H216.187L213.18 61.7359H213.086L210.072 71ZM209.902 66.28H216.328V68.2618H209.902V66.28Z" fill="#978545"/>
<path d="M267.017 71V58.9918H271.825C272.709 58.9918 273.445 59.1227 274.036 59.3846C274.626 59.6465 275.07 60.0101 275.367 60.4752C275.664 60.9365 275.812 61.4681 275.812 62.0701C275.812 62.5391 275.718 62.9515 275.531 63.3072C275.343 63.659 275.085 63.9483 274.757 64.175C274.432 64.3978 274.061 64.5561 273.643 64.65V64.7672C274.1 64.7868 274.528 64.9158 274.927 65.1542C275.329 65.3927 275.656 65.7269 275.906 66.1568C276.156 66.5829 276.281 67.0911 276.281 67.6813C276.281 68.3185 276.123 68.8872 275.806 69.3876C275.494 69.884 275.03 70.2768 274.417 70.5661C273.803 70.8554 273.047 71 272.148 71H267.017ZM269.556 68.9244H271.626C272.333 68.9244 272.849 68.7895 273.174 68.5198C273.498 68.2462 273.66 67.8826 273.66 67.4292C273.66 67.0969 273.58 66.8038 273.42 66.5497C273.26 66.2956 273.031 66.0963 272.734 65.9516C272.441 65.807 272.091 65.7347 271.684 65.7347H269.556V68.9244ZM269.556 64.0167H271.438C271.786 64.0167 272.095 63.9561 272.365 63.8349C272.638 63.7099 272.853 63.534 273.01 63.3072C273.17 63.0805 273.25 62.8089 273.25 62.4922C273.25 62.0583 273.096 61.7085 272.787 61.4427C272.482 61.1769 272.048 61.044 271.485 61.044H269.556V64.0167Z" fill="#4B9745"/>
<path d="M279.974 61.9938L281.627 65.1425L283.322 61.9938H285.884L283.275 66.4969L285.954 71H283.404L281.627 67.8865L279.88 71H277.3L279.974 66.4969L277.394 61.9938H279.974Z" fill="#BE3B3B"/>
<path d="M190.681 117.4C190.364 117.4 190.067 117.374 189.789 117.324C189.516 117.277 189.289 117.216 189.109 117.142L189.672 115.277C189.965 115.367 190.229 115.416 190.464 115.424C190.702 115.432 190.907 115.377 191.079 115.26C191.255 115.142 191.398 114.943 191.507 114.662L191.654 114.281L188.423 105.016H191.05L192.915 111.63H193.008L194.891 105.016H197.535L194.034 114.996C193.866 115.481 193.638 115.903 193.348 116.262C193.063 116.626 192.702 116.905 192.264 117.101C191.826 117.3 191.298 117.4 190.681 117.4Z" fill="#743BBE"/>
<path d="M199.575 108.957C199.575 107.479 199.767 106.121 200.15 104.882C200.537 103.639 201.088 102.495 201.803 101.451H203.023C202.742 101.838 202.478 102.315 202.231 102.882C201.989 103.445 201.776 104.065 201.592 104.741C201.409 105.413 201.264 106.109 201.158 106.828C201.057 107.547 201.006 108.257 201.006 108.957C201.006 109.887 201.096 110.831 201.276 111.789C201.456 112.746 201.698 113.636 202.003 114.456C202.308 115.277 202.648 115.946 203.023 116.462H201.803C201.088 115.418 200.537 114.277 200.15 113.038C199.767 111.794 199.575 110.434 199.575 108.957ZM208.982 105.016V106.189H204.314V105.016H208.982ZM205.675 102.859H207.059V111.443C207.059 111.834 207.115 112.127 207.229 112.322C207.346 112.514 207.494 112.643 207.674 112.709C207.858 112.772 208.051 112.803 208.255 112.803C208.407 112.803 208.532 112.795 208.63 112.78C208.728 112.76 208.806 112.744 208.864 112.733L209.146 113.976C209.052 114.011 208.921 114.046 208.753 114.081C208.585 114.12 208.372 114.14 208.114 114.14C207.723 114.14 207.34 114.056 206.965 113.888C206.593 113.72 206.285 113.464 206.038 113.12C205.796 112.776 205.675 112.342 205.675 111.818V102.859ZM214.018 108.957C214.018 110.434 213.825 111.794 213.438 113.038C213.055 114.277 212.506 115.418 211.79 116.462H210.571C210.852 116.075 211.114 115.598 211.356 115.031C211.603 114.468 211.818 113.851 212.001 113.178C212.185 112.502 212.328 111.804 212.429 111.085C212.535 110.362 212.588 109.652 212.588 108.957C212.588 108.026 212.498 107.082 212.318 106.125C212.138 105.167 211.896 104.278 211.591 103.457C211.286 102.636 210.946 101.967 210.571 101.451H211.79C212.506 102.495 213.055 103.639 213.438 104.882C213.825 106.121 214.018 107.479 214.018 108.957ZM258.655 108.957C258.655 107.479 258.846 106.121 259.229 104.882C259.616 103.639 260.168 102.495 260.883 101.451H262.102C261.821 101.838 261.557 102.315 261.311 102.882C261.069 103.445 260.856 104.065 260.672 104.741C260.488 105.413 260.343 106.109 260.238 106.828C260.136 107.547 260.085 108.257 260.085 108.957C260.085 109.887 260.175 110.831 260.355 111.789C260.535 112.746 260.777 113.636 261.082 114.456C261.387 115.277 261.727 115.946 262.102 116.462H260.883C260.168 115.418 259.616 114.277 259.229 113.038C258.846 111.794 258.655 110.434 258.655 108.957ZM268.061 105.016V106.189H263.394V105.016H268.061ZM264.754 102.859H266.138V111.443C266.138 111.834 266.195 112.127 266.308 112.322C266.425 112.514 266.574 112.643 266.754 112.709C266.937 112.772 267.131 112.803 267.334 112.803C267.486 112.803 267.612 112.795 267.709 112.78C267.807 112.76 267.885 112.744 267.944 112.733L268.225 113.976C268.131 114.011 268.001 114.046 267.832 114.081C267.664 114.12 267.451 114.14 267.193 114.14C266.802 114.14 266.419 114.056 266.044 113.888C265.673 113.72 265.364 113.464 265.118 113.12C264.875 112.776 264.754 112.342 264.754 111.818V102.859ZM273.098 108.957C273.098 110.434 272.904 111.794 272.517 113.038C272.134 114.277 271.585 115.418 270.87 116.462H269.65C269.932 116.075 270.193 115.598 270.436 115.031C270.682 114.468 270.897 113.851 271.081 113.178C271.264 112.502 271.407 111.804 271.509 111.085C271.614 110.362 271.667 109.652 271.667 108.957C271.667 108.026 271.577 107.082 271.397 106.125C271.218 105.167 270.975 104.278 270.67 103.457C270.365 102.636 270.025 101.967 269.65 101.451H270.87C271.585 102.495 272.134 103.639 272.517 104.882C272.904 106.121 273.098 107.479 273.098 108.957Z" fill="#505050"/>
<path d="M221.641 108.136V107.168H228.319V108.136H221.641ZM221.641 111.495V110.528H228.319V111.495H221.641Z" fill="#555555"/>
<path d="M245.815 106.218H243.247C243.2 105.886 243.105 105.591 242.96 105.333C242.815 105.071 242.63 104.848 242.403 104.665C242.176 104.481 241.914 104.34 241.617 104.242C241.324 104.145 241.006 104.096 240.662 104.096C240.04 104.096 239.499 104.25 239.037 104.559C238.576 104.864 238.218 105.31 237.964 105.896C237.71 106.478 237.583 107.186 237.583 108.018C237.583 108.875 237.71 109.594 237.964 110.176C238.222 110.759 238.582 111.198 239.043 111.495C239.504 111.793 240.038 111.941 240.644 111.941C240.984 111.941 241.299 111.896 241.588 111.806C241.881 111.716 242.141 111.585 242.368 111.413C242.594 111.237 242.782 111.024 242.931 110.774C243.083 110.524 243.189 110.239 243.247 109.918L245.815 109.93C245.749 110.481 245.583 111.013 245.317 111.525C245.055 112.033 244.701 112.488 244.256 112.891C243.814 113.29 243.286 113.606 242.673 113.841C242.063 114.071 241.373 114.187 240.603 114.187C239.532 114.187 238.574 113.944 237.73 113.46C236.889 112.975 236.225 112.273 235.736 111.355C235.252 110.436 235.009 109.324 235.009 108.018C235.009 106.709 235.255 105.595 235.748 104.676C236.241 103.758 236.909 103.058 237.753 102.577C238.598 102.093 239.547 101.85 240.603 101.85C241.299 101.85 241.944 101.948 242.538 102.143C243.136 102.339 243.666 102.624 244.127 102.999C244.588 103.371 244.963 103.826 245.253 104.366C245.546 104.905 245.733 105.523 245.815 106.218Z" fill="#0847A6"/>
<path d="M250.087 108.816V114.023H247.589V102.014H250.017V106.605H250.122C250.325 106.074 250.654 105.657 251.107 105.356C251.561 105.052 252.129 104.899 252.813 104.899C253.439 104.899 253.984 105.036 254.449 105.31C254.918 105.579 255.282 105.968 255.54 106.476C255.802 106.981 255.931 107.585 255.927 108.288V114.023H253.429V108.734C253.433 108.179 253.292 107.747 253.007 107.438C252.725 107.129 252.331 106.975 251.822 106.975C251.482 106.975 251.181 107.047 250.92 107.192C250.662 107.336 250.458 107.547 250.31 107.825C250.165 108.099 250.091 108.429 250.087 108.816Z" fill="#4C7477"/>
<path d="M157.115 94.1364C156.524 94.1364 156.005 93.9957 155.559 93.7145C155.116 93.4332 154.77 93.0398 154.52 92.5341C154.272 92.0284 154.149 91.4375 154.149 90.7614C154.149 90.0795 154.272 89.4844 154.52 88.9759C154.77 88.4673 155.116 88.0724 155.559 87.7912C156.005 87.5099 156.524 87.3693 157.115 87.3693C157.706 87.3693 158.223 87.5099 158.666 87.7912C159.112 88.0724 159.458 88.4673 159.706 88.9759C159.956 89.4844 160.081 90.0795 160.081 90.7614C160.081 91.4375 159.956 92.0284 159.706 92.5341C159.458 93.0398 159.112 93.4332 158.666 93.7145C158.223 93.9957 157.706 94.1364 157.115 94.1364ZM157.115 93.233C157.564 93.233 157.933 93.1179 158.223 92.8878C158.512 92.6577 158.727 92.3551 158.866 91.9801C159.005 91.6051 159.075 91.1989 159.075 90.7614C159.075 90.3239 159.005 89.9162 158.866 89.5384C158.727 89.1605 158.512 88.8551 158.223 88.6222C157.933 88.3892 157.564 88.2727 157.115 88.2727C156.666 88.2727 156.297 88.3892 156.007 88.6222C155.717 88.8551 155.502 89.1605 155.363 89.5384C155.224 89.9162 155.154 90.3239 155.154 90.7614C155.154 91.1989 155.224 91.6051 155.363 91.9801C155.502 92.3551 155.717 92.6577 156.007 92.8878C156.297 93.1179 156.666 93.233 157.115 93.233ZM165.741 91.3239V87.4545H166.746V94H165.741V92.892H165.673C165.519 93.2244 165.281 93.5071 164.957 93.7401C164.633 93.9702 164.224 94.0852 163.729 94.0852C163.32 94.0852 162.957 93.9957 162.638 93.8168C162.32 93.6349 162.07 93.3622 161.888 92.9986C161.707 92.6321 161.616 92.1705 161.616 91.6136V87.4545H162.621V91.5455C162.621 92.0227 162.755 92.4034 163.022 92.6875C163.292 92.9716 163.636 93.1136 164.053 93.1136C164.303 93.1136 164.558 93.0497 164.816 92.9219C165.077 92.794 165.296 92.598 165.472 92.3338C165.651 92.0696 165.741 91.733 165.741 91.3239ZM171.435 87.4545V88.3068H168.043V87.4545H171.435ZM169.032 85.8864H170.037V92.125C170.037 92.4091 170.078 92.6222 170.161 92.7642C170.246 92.9034 170.354 92.9972 170.485 93.0455C170.618 93.0909 170.759 93.1136 170.907 93.1136C171.017 93.1136 171.108 93.108 171.179 93.0966C171.25 93.0824 171.307 93.071 171.35 93.0625L171.554 93.9659C171.486 93.9915 171.391 94.017 171.269 94.0426C171.147 94.071 170.992 94.0852 170.804 94.0852C170.52 94.0852 170.242 94.0241 169.969 93.902C169.699 93.7798 169.475 93.5938 169.296 93.3438C169.12 93.0938 169.032 92.7784 169.032 92.3977V85.8864ZM172.948 96.4545V87.4545H173.919V88.4943H174.039C174.113 88.3807 174.215 88.2358 174.346 88.0597C174.479 87.8807 174.669 87.7216 174.917 87.5824C175.167 87.4403 175.505 87.3693 175.931 87.3693C176.482 87.3693 176.968 87.5071 177.388 87.7827C177.809 88.0582 178.137 88.4489 178.373 88.9545C178.608 89.4602 178.726 90.0568 178.726 90.7443C178.726 91.4375 178.608 92.0384 178.373 92.5469C178.137 93.0526 177.81 93.4446 177.392 93.723C176.975 93.9986 176.493 94.1364 175.948 94.1364C175.527 94.1364 175.191 94.0668 174.938 93.9276C174.685 93.7855 174.49 93.625 174.354 93.446C174.218 93.2642 174.113 93.1136 174.039 92.9943H173.953V96.4545H172.948ZM173.936 90.7273C173.936 91.2216 174.009 91.6577 174.154 92.0355C174.299 92.4105 174.51 92.7045 174.789 92.9176C175.067 93.1278 175.408 93.233 175.811 93.233C176.232 93.233 176.583 93.1222 176.864 92.9006C177.148 92.6761 177.361 92.375 177.503 91.9972C177.648 91.6165 177.721 91.1932 177.721 90.7273C177.721 90.267 177.65 89.8523 177.507 89.483C177.368 89.1108 177.157 88.8168 176.873 88.6009C176.591 88.3821 176.238 88.2727 175.811 88.2727C175.402 88.2727 175.059 88.3764 174.78 88.5838C174.502 88.7884 174.292 89.0753 174.15 89.4446C174.007 89.8111 173.936 90.2386 173.936 90.7273ZM184.385 91.3239V87.4545H185.391V94H184.385V92.892H184.317C184.164 93.2244 183.925 93.5071 183.601 93.7401C183.277 93.9702 182.868 94.0852 182.374 94.0852C181.965 94.0852 181.601 93.9957 181.283 93.8168C180.965 93.6349 180.715 93.3622 180.533 92.9986C180.351 92.6321 180.26 92.1705 180.26 91.6136V87.4545H181.266V91.5455C181.266 92.0227 181.4 92.4034 181.667 92.6875C181.936 92.9716 182.28 93.1136 182.698 93.1136C182.948 93.1136 183.202 93.0497 183.461 92.9219C183.722 92.794 183.941 92.598 184.117 92.3338C184.296 92.0696 184.385 91.733 184.385 91.3239ZM190.08 87.4545V88.3068H186.688V87.4545H190.08ZM187.676 85.8864H188.682V92.125C188.682 92.4091 188.723 92.6222 188.805 92.7642C188.891 92.9034 188.999 92.9972 189.129 93.0455C189.263 93.0909 189.403 93.1136 189.551 93.1136C189.662 93.1136 189.753 93.108 189.824 93.0966C189.895 93.0824 189.952 93.071 189.994 93.0625L190.199 93.9659C190.131 93.9915 190.036 94.017 189.913 94.0426C189.791 94.071 189.636 94.0852 189.449 94.0852C189.165 94.0852 188.886 94.0241 188.614 93.902C188.344 93.7798 188.119 93.5938 187.94 93.3438C187.764 93.0938 187.676 92.7784 187.676 92.3977V85.8864ZM197.712 94.1364C197.081 94.1364 196.537 93.9972 196.08 93.7188C195.625 93.4375 195.274 93.0455 195.027 92.5426C194.783 92.0369 194.661 91.4489 194.661 90.7784C194.661 90.108 194.783 89.517 195.027 89.0057C195.274 88.4915 195.618 88.0909 196.058 87.804C196.501 87.5142 197.018 87.3693 197.609 87.3693C197.95 87.3693 198.287 87.4261 198.619 87.5398C198.952 87.6534 199.254 87.8381 199.527 88.0938C199.8 88.3466 200.017 88.6818 200.179 89.0994C200.341 89.517 200.422 90.0312 200.422 90.642V91.0682H195.376V90.1989H199.399C199.399 89.8295 199.325 89.5 199.178 89.2102C199.033 88.9205 198.825 88.6918 198.555 88.5241C198.288 88.3565 197.973 88.2727 197.609 88.2727C197.209 88.2727 196.862 88.3722 196.57 88.571C196.28 88.767 196.057 89.0227 195.901 89.3381C195.744 89.6534 195.666 89.9915 195.666 90.3523V90.9318C195.666 91.4261 195.751 91.8452 195.922 92.1889C196.095 92.5298 196.335 92.7898 196.642 92.9688C196.949 93.1449 197.305 93.233 197.712 93.233C197.976 93.233 198.214 93.196 198.428 93.1222C198.643 93.0455 198.83 92.9318 198.986 92.7812C199.142 92.6278 199.263 92.4375 199.348 92.2102L200.32 92.483C200.217 92.8125 200.045 93.1023 199.804 93.3523C199.563 93.5994 199.264 93.7926 198.909 93.9318C198.554 94.0682 198.155 94.1364 197.712 94.1364ZM206.418 96.4545V92.9943H206.332C206.259 93.1136 206.153 93.2642 206.017 93.446C205.881 93.625 205.686 93.7855 205.433 93.9276C205.18 94.0668 204.844 94.1364 204.423 94.1364C203.878 94.1364 203.396 93.9986 202.979 93.723C202.561 93.4446 202.234 93.0526 201.999 92.5469C201.763 92.0384 201.645 91.4375 201.645 90.7443C201.645 90.0568 201.763 89.4602 201.999 88.9545C202.234 88.4489 202.563 88.0582 202.983 87.7827C203.403 87.5071 203.889 87.3693 204.44 87.3693C204.866 87.3693 205.203 87.4403 205.45 87.5824C205.7 87.7216 205.891 87.8807 206.021 88.0597C206.155 88.2358 206.259 88.3807 206.332 88.4943H206.452V87.4545H207.423V96.4545H206.418ZM204.56 93.233C204.963 93.233 205.304 93.1278 205.582 92.9176C205.861 92.7045 206.072 92.4105 206.217 92.0355C206.362 91.6577 206.435 91.2216 206.435 90.7273C206.435 90.2386 206.364 89.8111 206.222 89.4446C206.08 89.0753 205.869 88.7884 205.591 88.5838C205.313 88.3764 204.969 88.2727 204.56 88.2727C204.134 88.2727 203.778 88.3821 203.494 88.6009C203.213 88.8168 203.001 89.1108 202.859 89.483C202.72 89.8523 202.651 90.267 202.651 90.7273C202.651 91.1932 202.722 91.6165 202.864 91.9972C203.009 92.375 203.222 92.6761 203.503 92.9006C203.787 93.1222 204.139 93.233 204.56 93.233ZM213.389 91.3239V87.4545H214.395V94H213.389V92.892H213.321C213.168 93.2244 212.929 93.5071 212.605 93.7401C212.281 93.9702 211.872 94.0852 211.378 94.0852C210.969 94.0852 210.605 93.9957 210.287 93.8168C209.969 93.6349 209.719 93.3622 209.537 92.9986C209.355 92.6321 209.264 92.1705 209.264 91.6136V87.4545H210.27V91.5455C210.27 92.0227 210.403 92.4034 210.67 92.6875C210.94 92.9716 211.284 93.1136 211.702 93.1136C211.952 93.1136 212.206 93.0497 212.464 92.9219C212.726 92.794 212.945 92.598 213.121 92.3338C213.3 92.0696 213.389 91.733 213.389 91.3239ZM218.163 94.1534C217.748 94.1534 217.372 94.0753 217.034 93.919C216.696 93.7599 216.427 93.5312 216.228 93.233C216.029 92.9318 215.93 92.5682 215.93 92.142C215.93 91.767 216.004 91.4631 216.152 91.2301C216.299 90.9943 216.497 90.8097 216.744 90.6761C216.991 90.5426 217.264 90.4432 217.562 90.3778C217.863 90.3097 218.166 90.2557 218.47 90.2159C218.868 90.1648 219.19 90.1264 219.437 90.1009C219.687 90.0724 219.869 90.0256 219.983 89.9602C220.099 89.8949 220.157 89.7812 220.157 89.6193V89.5852C220.157 89.1648 220.042 88.8381 219.812 88.6051C219.585 88.3722 219.24 88.2557 218.777 88.2557C218.297 88.2557 217.92 88.3608 217.647 88.571C217.375 88.7812 217.183 89.0057 217.072 89.2443L216.118 88.9034C216.288 88.5057 216.515 88.196 216.799 87.9744C217.086 87.75 217.399 87.5937 217.737 87.5057C218.078 87.4148 218.413 87.3693 218.743 87.3693C218.953 87.3693 219.194 87.3949 219.467 87.446C219.743 87.4943 220.008 87.5952 220.264 87.7486C220.522 87.902 220.737 88.1335 220.907 88.4432C221.078 88.7528 221.163 89.1676 221.163 89.6875V94H220.157V93.1136H220.106C220.038 93.2557 219.924 93.4077 219.765 93.5696C219.606 93.7315 219.395 93.8693 219.13 93.983C218.866 94.0966 218.544 94.1534 218.163 94.1534ZM218.316 93.25C218.714 93.25 219.049 93.1719 219.322 93.0156C219.598 92.8594 219.805 92.6577 219.944 92.4105C220.086 92.1634 220.157 91.9034 220.157 91.6307V90.7102C220.115 90.7614 220.021 90.8082 219.876 90.8509C219.734 90.8906 219.569 90.9261 219.382 90.9574C219.197 90.9858 219.017 91.0114 218.841 91.0341C218.667 91.054 218.527 91.071 218.419 91.0852C218.157 91.1193 217.913 91.1747 217.686 91.2514C217.461 91.3253 217.279 91.4375 217.14 91.5881C217.004 91.7358 216.936 91.9375 216.936 92.1932C216.936 92.5426 217.065 92.8068 217.324 92.9858C217.585 93.1619 217.916 93.25 218.316 93.25ZM225.845 87.4545V88.3068H222.453V87.4545H225.845ZM223.442 85.8864H224.447V92.125C224.447 92.4091 224.489 92.6222 224.571 92.7642C224.656 92.9034 224.764 92.9972 224.895 93.0455C225.028 93.0909 225.169 93.1136 225.317 93.1136C225.428 93.1136 225.518 93.108 225.589 93.0966C225.661 93.0824 225.717 93.071 225.76 93.0625L225.964 93.9659C225.896 93.9915 225.801 94.017 225.679 94.0426C225.557 94.071 225.402 94.0852 225.214 94.0852C224.93 94.0852 224.652 94.0241 224.379 93.902C224.109 93.7798 223.885 93.5938 223.706 93.3438C223.53 93.0938 223.442 92.7784 223.442 92.3977V85.8864ZM227.358 94V87.4545H228.364V94H227.358ZM227.869 86.3636C227.673 86.3636 227.504 86.2969 227.362 86.1634C227.223 86.0298 227.153 85.8693 227.153 85.6818C227.153 85.4943 227.223 85.3338 227.362 85.2003C227.504 85.0668 227.673 85 227.869 85C228.065 85 228.233 85.0668 228.372 85.2003C228.514 85.3338 228.585 85.4943 228.585 85.6818C228.585 85.8693 228.514 86.0298 228.372 86.1634C228.233 86.2969 228.065 86.3636 227.869 86.3636ZM232.865 94.1364C232.274 94.1364 231.755 93.9957 231.309 93.7145C230.866 93.4332 230.52 93.0398 230.27 92.5341C230.022 92.0284 229.899 91.4375 229.899 90.7614C229.899 90.0795 230.022 89.4844 230.27 88.9759C230.52 88.4673 230.866 88.0724 231.309 87.7912C231.755 87.5099 232.274 87.3693 232.865 87.3693C233.456 87.3693 233.973 87.5099 234.416 87.7912C234.862 88.0724 235.208 88.4673 235.456 88.9759C235.706 89.4844 235.831 90.0795 235.831 90.7614C235.831 91.4375 235.706 92.0284 235.456 92.5341C235.208 93.0398 234.862 93.4332 234.416 93.7145C233.973 93.9957 233.456 94.1364 232.865 94.1364ZM232.865 93.233C233.314 93.233 233.683 93.1179 233.973 92.8878C234.262 92.6577 234.477 92.3551 234.616 91.9801C234.755 91.6051 234.825 91.1989 234.825 90.7614C234.825 90.3239 234.755 89.9162 234.616 89.5384C234.477 89.1605 234.262 88.8551 233.973 88.6222C233.683 88.3892 233.314 88.2727 232.865 88.2727C232.416 88.2727 232.047 88.3892 231.757 88.6222C231.467 88.8551 231.252 89.1605 231.113 89.5384C230.974 89.9162 230.904 90.3239 230.904 90.7614C230.904 91.1989 230.974 91.6051 231.113 91.9801C231.252 92.3551 231.467 92.6577 231.757 92.8878C232.047 93.1179 232.416 93.233 232.865 93.233ZM238.371 90.0625V94H237.366V87.4545H238.337V88.4773H238.423C238.576 88.1449 238.809 87.8778 239.121 87.6761C239.434 87.4716 239.837 87.3693 240.332 87.3693C240.775 87.3693 241.163 87.4602 241.495 87.642C241.827 87.821 242.086 88.0938 242.271 88.4602C242.455 88.8239 242.548 89.2841 242.548 89.8409V94H241.542V89.9091C241.542 89.3949 241.408 88.9943 241.141 88.7074C240.874 88.4176 240.508 88.2727 240.042 88.2727C239.721 88.2727 239.434 88.3423 239.181 88.4815C238.931 88.6207 238.734 88.8239 238.589 89.0909C238.444 89.358 238.371 89.6818 238.371 90.0625Z" fill="white"/>
<path d="M158.328 45.9205L157.425 46.1761C157.368 46.0256 157.284 45.8793 157.173 45.7372C157.066 45.5923 156.918 45.473 156.73 45.3793C156.543 45.2855 156.303 45.2386 156.01 45.2386C155.61 45.2386 155.276 45.331 155.009 45.5156C154.744 45.6974 154.612 45.929 154.612 46.2102C154.612 46.4602 154.703 46.6577 154.885 46.8026C155.067 46.9474 155.351 47.0682 155.737 47.1648L156.709 47.4034C157.294 47.5455 157.73 47.7628 158.017 48.0554C158.304 48.3452 158.448 48.7187 158.448 49.1761C158.448 49.5511 158.34 49.8864 158.124 50.1818C157.911 50.4773 157.612 50.7102 157.229 50.8807C156.845 51.0511 156.399 51.1364 155.891 51.1364C155.223 51.1364 154.671 50.9915 154.233 50.7017C153.796 50.4119 153.519 49.9886 153.402 49.4318L154.357 49.1932C154.448 49.5455 154.619 49.8097 154.872 49.9858C155.128 50.1619 155.462 50.25 155.874 50.25C156.343 50.25 156.715 50.1506 156.99 49.9517C157.269 49.75 157.408 49.5085 157.408 49.2273C157.408 49 157.328 48.8097 157.169 48.6562C157.01 48.5 156.766 48.3835 156.436 48.3068L155.345 48.0511C154.746 47.9091 154.306 47.6889 154.024 47.3906C153.746 47.0895 153.607 46.7131 153.607 46.2614C153.607 45.892 153.71 45.5653 153.918 45.2812C154.128 44.9972 154.414 44.7741 154.774 44.6122C155.138 44.4503 155.55 44.3693 156.01 44.3693C156.658 44.3693 157.166 44.5114 157.536 44.7955C157.908 45.0795 158.172 45.4545 158.328 45.9205ZM162.808 44.4545V45.3068H159.416V44.4545H162.808ZM160.405 42.8864H161.41V49.125C161.41 49.4091 161.452 49.6222 161.534 49.7642C161.619 49.9034 161.727 49.9972 161.858 50.0455C161.991 50.0909 162.132 50.1136 162.28 50.1136C162.39 50.1136 162.481 50.108 162.552 50.0966C162.623 50.0824 162.68 50.071 162.723 50.0625L162.927 50.9659C162.859 50.9915 162.764 51.017 162.642 51.0426C162.52 51.071 162.365 51.0852 162.177 51.0852C161.893 51.0852 161.615 51.0241 161.342 50.902C161.072 50.7798 160.848 50.5938 160.669 50.3438C160.493 50.0938 160.405 49.7784 160.405 49.3977V42.8864ZM166.247 51.1534C165.832 51.1534 165.456 51.0753 165.118 50.919C164.78 50.7599 164.511 50.5312 164.312 50.233C164.113 49.9318 164.014 49.5682 164.014 49.142C164.014 48.767 164.088 48.4631 164.236 48.2301C164.383 47.9943 164.581 47.8097 164.828 47.6761C165.075 47.5426 165.348 47.4432 165.646 47.3778C165.947 47.3097 166.25 47.2557 166.554 47.2159C166.952 47.1648 167.274 47.1264 167.521 47.1009C167.771 47.0724 167.953 47.0256 168.067 46.9602C168.183 46.8949 168.241 46.7812 168.241 46.6193V46.5852C168.241 46.1648 168.126 45.8381 167.896 45.6051C167.669 45.3722 167.324 45.2557 166.861 45.2557C166.381 45.2557 166.004 45.3608 165.731 45.571C165.459 45.7812 165.267 46.0057 165.156 46.2443L164.202 45.9034C164.372 45.5057 164.599 45.196 164.883 44.9744C165.17 44.75 165.483 44.5937 165.821 44.5057C166.162 44.4148 166.497 44.3693 166.827 44.3693C167.037 44.3693 167.278 44.3949 167.551 44.446C167.827 44.4943 168.092 44.5952 168.348 44.7486C168.606 44.902 168.821 45.1335 168.991 45.4432C169.162 45.7528 169.247 46.1676 169.247 46.6875V51H168.241V50.1136H168.19C168.122 50.2557 168.008 50.4077 167.849 50.5696C167.69 50.7315 167.479 50.8693 167.214 50.983C166.95 51.0966 166.628 51.1534 166.247 51.1534ZM166.4 50.25C166.798 50.25 167.133 50.1719 167.406 50.0156C167.682 49.8594 167.889 49.6577 168.028 49.4105C168.17 49.1634 168.241 48.9034 168.241 48.6307V47.7102C168.199 47.7614 168.105 47.8082 167.96 47.8509C167.818 47.8906 167.653 47.9261 167.466 47.9574C167.281 47.9858 167.101 48.0114 166.925 48.0341C166.751 48.054 166.611 48.071 166.503 48.0852C166.241 48.1193 165.997 48.1747 165.77 48.2514C165.545 48.3253 165.363 48.4375 165.224 48.5881C165.088 48.7358 165.02 48.9375 165.02 49.1932C165.02 49.5426 165.149 49.8068 165.407 49.9858C165.669 50.1619 166 50.25 166.4 50.25ZM173.929 44.4545V45.3068H170.537V44.4545H173.929ZM171.526 42.8864H172.531V49.125C172.531 49.4091 172.573 49.6222 172.655 49.7642C172.74 49.9034 172.848 49.9972 172.979 50.0455C173.112 50.0909 173.253 50.1136 173.401 50.1136C173.512 50.1136 173.602 50.108 173.673 50.0966C173.744 50.0824 173.801 50.071 173.844 50.0625L174.048 50.9659C173.98 50.9915 173.885 51.017 173.763 51.0426C173.641 51.071 173.486 51.0852 173.298 51.0852C173.014 51.0852 172.736 51.0241 172.463 50.902C172.193 50.7798 171.969 50.5938 171.79 50.3438C171.614 50.0938 171.526 49.7784 171.526 49.3977V42.8864ZM178.116 51.1364C177.485 51.1364 176.941 50.9972 176.484 50.7188C176.029 50.4375 175.678 50.0455 175.431 49.5426C175.187 49.0369 175.065 48.4489 175.065 47.7784C175.065 47.108 175.187 46.517 175.431 46.0057C175.678 45.4915 176.022 45.0909 176.463 44.804C176.906 44.5142 177.423 44.3693 178.014 44.3693C178.355 44.3693 178.691 44.4261 179.024 44.5398C179.356 44.6534 179.659 44.8381 179.931 45.0938C180.204 45.3466 180.421 45.6818 180.583 46.0994C180.745 46.517 180.826 47.0312 180.826 47.642V48.0682H175.781V47.1989H179.803C179.803 46.8295 179.73 46.5 179.582 46.2102C179.437 45.9205 179.23 45.6918 178.96 45.5241C178.693 45.3565 178.377 45.2727 178.014 45.2727C177.613 45.2727 177.267 45.3722 176.974 45.571C176.684 45.767 176.461 46.0227 176.305 46.3381C176.149 46.6534 176.07 46.9915 176.07 47.3523V47.9318C176.07 48.4261 176.156 48.8452 176.326 49.1889C176.499 49.5298 176.74 49.7898 177.046 49.9688C177.353 50.1449 177.71 50.233 178.116 50.233C178.38 50.233 178.619 50.196 178.832 50.1222C179.048 50.0455 179.234 49.9318 179.39 49.7812C179.546 49.6278 179.667 49.4375 179.752 49.2102L180.724 49.483C180.622 49.8125 180.45 50.1023 180.208 50.3523C179.967 50.5994 179.669 50.7926 179.313 50.9318C178.958 51.0682 178.559 51.1364 178.116 51.1364ZM188.475 51.1364C187.845 51.1364 187.301 50.9972 186.843 50.7188C186.389 50.4375 186.038 50.0455 185.791 49.5426C185.546 49.0369 185.424 48.4489 185.424 47.7784C185.424 47.108 185.546 46.517 185.791 46.0057C186.038 45.4915 186.382 45.0909 186.822 44.804C187.265 44.5142 187.782 44.3693 188.373 44.3693C188.714 44.3693 189.051 44.4261 189.383 44.5398C189.715 44.6534 190.018 44.8381 190.291 45.0938C190.563 45.3466 190.781 45.6818 190.943 46.0994C191.105 46.517 191.186 47.0312 191.186 47.642V48.0682H186.14V47.1989H190.163C190.163 46.8295 190.089 46.5 189.941 46.2102C189.796 45.9205 189.589 45.6918 189.319 45.5241C189.052 45.3565 188.737 45.2727 188.373 45.2727C187.972 45.2727 187.626 45.3722 187.333 45.571C187.044 45.767 186.82 46.0227 186.664 46.3381C186.508 46.6534 186.43 46.9915 186.43 47.3523V47.9318C186.43 48.4261 186.515 48.8452 186.686 49.1889C186.859 49.5298 187.099 49.7898 187.406 49.9688C187.713 50.1449 188.069 50.233 188.475 50.233C188.74 50.233 188.978 50.196 189.191 50.1222C189.407 50.0455 189.593 49.9318 189.749 49.7812C189.906 49.6278 190.026 49.4375 190.112 49.2102L191.083 49.483C190.981 49.8125 190.809 50.1023 190.568 50.3523C190.326 50.5994 190.028 50.7926 189.673 50.9318C189.318 51.0682 188.919 51.1364 188.475 51.1364ZM197.181 53.4545V49.9943H197.096C197.022 50.1136 196.917 50.2642 196.781 50.446C196.644 50.625 196.45 50.7855 196.197 50.9276C195.944 51.0668 195.607 51.1364 195.187 51.1364C194.642 51.1364 194.16 50.9986 193.742 50.723C193.325 50.4446 192.998 50.0526 192.762 49.5469C192.526 49.0384 192.409 48.4375 192.409 47.7443C192.409 47.0568 192.526 46.4602 192.762 45.9545C192.998 45.4489 193.326 45.0582 193.747 44.7827C194.167 44.5071 194.653 44.3693 195.204 44.3693C195.63 44.3693 195.967 44.4403 196.214 44.5824C196.464 44.7216 196.654 44.8807 196.785 45.0597C196.919 45.2358 197.022 45.3807 197.096 45.4943H197.215V44.4545H198.187V53.4545H197.181ZM195.323 50.233C195.727 50.233 196.068 50.1278 196.346 49.9176C196.624 49.7045 196.836 49.4105 196.981 49.0355C197.126 48.6577 197.198 48.2216 197.198 47.7273C197.198 47.2386 197.127 46.8111 196.985 46.4446C196.843 46.0753 196.633 45.7884 196.355 45.5838C196.076 45.3764 195.732 45.2727 195.323 45.2727C194.897 45.2727 194.542 45.3821 194.258 45.6009C193.977 45.8168 193.765 46.1108 193.623 46.483C193.484 46.8523 193.414 47.267 193.414 47.7273C193.414 48.1932 193.485 48.6165 193.627 48.9972C193.772 49.375 193.985 49.6761 194.267 49.9006C194.551 50.1222 194.903 50.233 195.323 50.233ZM204.153 48.3239V44.4545H205.159V51H204.153V49.892H204.085C203.931 50.2244 203.693 50.5071 203.369 50.7401C203.045 50.9702 202.636 51.0852 202.142 51.0852C201.732 51.0852 201.369 50.9957 201.051 50.8168C200.732 50.6349 200.482 50.3622 200.301 49.9986C200.119 49.6321 200.028 49.1705 200.028 48.6136V44.4545H201.034V48.5455C201.034 49.0227 201.167 49.4034 201.434 49.6875C201.704 49.9716 202.048 50.1136 202.465 50.1136C202.715 50.1136 202.97 50.0497 203.228 49.9219C203.49 49.794 203.708 49.598 203.884 49.3338C204.063 49.0696 204.153 48.733 204.153 48.3239ZM208.927 51.1534C208.512 51.1534 208.135 51.0753 207.797 50.919C207.459 50.7599 207.191 50.5312 206.992 50.233C206.793 49.9318 206.694 49.5682 206.694 49.142C206.694 48.767 206.768 48.4631 206.915 48.2301C207.063 47.9943 207.26 47.8097 207.508 47.6761C207.755 47.5426 208.028 47.4432 208.326 47.3778C208.627 47.3097 208.93 47.2557 209.233 47.2159C209.631 47.1648 209.954 47.1264 210.201 47.1009C210.451 47.0724 210.633 47.0256 210.746 46.9602C210.863 46.8949 210.921 46.7812 210.921 46.6193V46.5852C210.921 46.1648 210.806 45.8381 210.576 45.6051C210.349 45.3722 210.003 45.2557 209.54 45.2557C209.06 45.2557 208.684 45.3608 208.411 45.571C208.138 45.7812 207.947 46.0057 207.836 46.2443L206.881 45.9034C207.052 45.5057 207.279 45.196 207.563 44.9744C207.85 44.75 208.162 44.5937 208.501 44.5057C208.841 44.4148 209.177 44.3693 209.506 44.3693C209.716 44.3693 209.958 44.3949 210.231 44.446C210.506 44.4943 210.772 44.5952 211.028 44.7486C211.286 44.902 211.501 45.1335 211.671 45.4432C211.841 45.7528 211.927 46.1676 211.927 46.6875V51H210.921V50.1136H210.87C210.802 50.2557 210.688 50.4077 210.529 50.5696C210.37 50.7315 210.158 50.8693 209.894 50.983C209.63 51.0966 209.307 51.1534 208.927 51.1534ZM209.08 50.25C209.478 50.25 209.813 50.1719 210.086 50.0156C210.361 49.8594 210.569 49.6577 210.708 49.4105C210.85 49.1634 210.921 48.9034 210.921 48.6307V47.7102C210.878 47.7614 210.785 47.8082 210.64 47.8509C210.498 47.8906 210.333 47.9261 210.145 47.9574C209.961 47.9858 209.78 48.0114 209.604 48.0341C209.431 48.054 209.29 48.071 209.182 48.0852C208.921 48.1193 208.677 48.1747 208.449 48.2514C208.225 48.3253 208.043 48.4375 207.904 48.5881C207.768 48.7358 207.699 48.9375 207.699 49.1932C207.699 49.5426 207.829 49.8068 208.087 49.9858C208.349 50.1619 208.68 50.25 209.08 50.25ZM216.609 44.4545V45.3068H213.217V44.4545H216.609ZM214.205 42.8864H215.211V49.125C215.211 49.4091 215.252 49.6222 215.335 49.7642C215.42 49.9034 215.528 49.9972 215.659 50.0455C215.792 50.0909 215.933 50.1136 216.08 50.1136C216.191 50.1136 216.282 50.108 216.353 50.0966C216.424 50.0824 216.481 50.071 216.524 50.0625L216.728 50.9659C216.66 50.9915 216.565 51.017 216.443 51.0426C216.32 51.071 216.166 51.0852 215.978 51.0852C215.694 51.0852 215.416 51.0241 215.143 50.902C214.873 50.7798 214.649 50.5938 214.47 50.3438C214.294 50.0938 214.205 49.7784 214.205 49.3977V42.8864ZM218.122 51V44.4545H219.127V51H218.122ZM218.633 43.3636C218.437 43.3636 218.268 43.2969 218.126 43.1634C217.987 43.0298 217.917 42.8693 217.917 42.6818C217.917 42.4943 217.987 42.3338 218.126 42.2003C218.268 42.0668 218.437 42 218.633 42C218.829 42 218.997 42.0668 219.136 42.2003C219.278 42.3338 219.349 42.4943 219.349 42.6818C219.349 42.8693 219.278 43.0298 219.136 43.1634C218.997 43.2969 218.829 43.3636 218.633 43.3636ZM223.628 51.1364C223.037 51.1364 222.519 50.9957 222.073 50.7145C221.63 50.4332 221.283 50.0398 221.033 49.5341C220.786 49.0284 220.662 48.4375 220.662 47.7614C220.662 47.0795 220.786 46.4844 221.033 45.9759C221.283 45.4673 221.63 45.0724 222.073 44.7912C222.519 44.5099 223.037 44.3693 223.628 44.3693C224.219 44.3693 224.736 44.5099 225.18 44.7912C225.626 45.0724 225.972 45.4673 226.219 45.9759C226.469 46.4844 226.594 47.0795 226.594 47.7614C226.594 48.4375 226.469 49.0284 226.219 49.5341C225.972 50.0398 225.626 50.4332 225.18 50.7145C224.736 50.9957 224.219 51.1364 223.628 51.1364ZM223.628 50.233C224.077 50.233 224.447 50.1179 224.736 49.8878C225.026 49.6577 225.241 49.3551 225.38 48.9801C225.519 48.6051 225.589 48.1989 225.589 47.7614C225.589 47.3239 225.519 46.9162 225.38 46.5384C225.241 46.1605 225.026 45.8551 224.736 45.6222C224.447 45.3892 224.077 45.2727 223.628 45.2727C223.18 45.2727 222.81 45.3892 222.52 45.6222C222.231 45.8551 222.016 46.1605 221.877 46.5384C221.738 46.9162 221.668 47.3239 221.668 47.7614C221.668 48.1989 221.738 48.6051 221.877 48.9801C222.016 49.3551 222.231 49.6577 222.52 49.8878C222.81 50.1179 223.18 50.233 223.628 50.233ZM229.135 47.0625V51H228.129V44.4545H229.101V45.4773H229.186C229.34 45.1449 229.573 44.8778 229.885 44.6761C230.198 44.4716 230.601 44.3693 231.095 44.3693C231.539 44.3693 231.926 44.4602 232.259 44.642C232.591 44.821 232.85 45.0938 233.034 45.4602C233.219 45.8239 233.311 46.2841 233.311 46.8409V51H232.306V46.9091C232.306 46.3949 232.172 45.9943 231.905 45.7074C231.638 45.4176 231.271 45.2727 230.806 45.2727C230.485 45.2727 230.198 45.3423 229.945 45.4815C229.695 45.6207 229.497 45.8239 229.352 46.0909C229.208 46.358 229.135 46.6818 229.135 47.0625Z" fill="white"/>
<path d="M193.692 160.92L192.737 161.176C192.703 161.023 192.643 160.875 192.558 160.733C192.476 160.588 192.348 160.47 192.175 160.379C192.004 160.286 191.771 160.239 191.476 160.239C191.075 160.239 190.727 160.331 190.432 160.516C190.136 160.697 189.967 160.929 189.925 161.21C189.882 161.457 189.939 161.655 190.095 161.803C190.251 161.95 190.513 162.071 190.879 162.165L191.817 162.403C192.379 162.548 192.78 162.766 193.018 163.055C193.26 163.342 193.342 163.716 193.266 164.176C193.203 164.551 193.04 164.886 192.776 165.182C192.511 165.477 192.173 165.71 191.761 165.881C191.349 166.051 190.891 166.136 190.385 166.136C189.712 166.136 189.18 165.991 188.791 165.702C188.402 165.409 188.195 164.986 188.169 164.432L189.175 164.193C189.2 164.543 189.325 164.807 189.55 164.986C189.777 165.162 190.095 165.25 190.504 165.25C190.973 165.25 191.364 165.151 191.676 164.952C191.989 164.75 192.166 164.509 192.209 164.227C192.251 163.997 192.206 163.805 192.072 163.652C191.942 163.499 191.714 163.384 191.391 163.307L190.351 163.051C189.771 162.906 189.365 162.685 189.132 162.386C188.902 162.088 188.825 161.713 188.902 161.261C188.964 160.892 189.124 160.565 189.379 160.281C189.638 159.997 189.962 159.774 190.351 159.612C190.743 159.45 191.169 159.369 191.629 159.369C192.277 159.369 192.761 159.511 193.082 159.795C193.403 160.077 193.607 160.452 193.692 160.92ZM195.802 163.614L195.99 162.369H196.194L199.552 159.455H200.797L197.234 162.54H197.149L195.802 163.614ZM194.473 166L195.922 157.273H196.927L195.478 166H194.473ZM198.632 166L196.62 162.761L197.439 162.062L199.91 166H198.632ZM201 166L202.091 159.455H203.097L202.006 166H201ZM202.901 158.347C202.705 158.347 202.536 158.28 202.393 158.146C202.254 158.013 202.185 157.852 202.185 157.665C202.185 157.477 202.254 157.317 202.393 157.183C202.536 157.05 202.705 156.983 202.901 156.983C203.097 156.983 203.264 157.05 203.403 157.183C203.545 157.317 203.616 157.477 203.616 157.665C203.616 157.852 203.545 158.013 203.403 158.146C203.264 158.28 203.097 158.347 202.901 158.347ZM203.439 168.455L204.947 159.455H205.919L205.748 160.494H205.868C205.958 160.381 206.083 160.236 206.243 160.06C206.404 159.881 206.622 159.722 206.895 159.582C207.17 159.44 207.521 159.369 207.947 159.369C208.498 159.369 208.96 159.507 209.332 159.783C209.704 160.058 209.967 160.449 210.12 160.955C210.274 161.46 210.294 162.057 210.18 162.744C210.066 163.438 209.849 164.038 209.528 164.547C209.207 165.053 208.815 165.445 208.352 165.723C207.889 165.999 207.385 166.136 206.839 166.136C206.419 166.136 206.093 166.067 205.863 165.928C205.633 165.786 205.466 165.625 205.36 165.446C205.255 165.264 205.174 165.114 205.118 164.994H205.032L204.453 168.455H203.439ZM205.39 162.727C205.311 163.222 205.311 163.658 205.39 164.036C205.473 164.411 205.636 164.705 205.88 164.918C206.127 165.128 206.453 165.233 206.856 165.233C207.277 165.233 207.645 165.122 207.96 164.901C208.278 164.676 208.539 164.375 208.744 163.997C208.951 163.616 209.095 163.193 209.174 162.727C209.248 162.267 209.245 161.852 209.166 161.483C209.086 161.111 208.924 160.817 208.68 160.601C208.436 160.382 208.1 160.273 207.674 160.273C207.265 160.273 206.903 160.376 206.588 160.584C206.275 160.788 206.017 161.075 205.812 161.445C205.61 161.811 205.47 162.239 205.39 162.727ZM217.189 166.136C216.572 166.136 216.067 165.991 215.672 165.702C215.28 165.412 215.007 165.013 214.854 164.504C214.7 163.996 214.678 163.415 214.786 162.761C214.893 162.097 215.112 161.51 215.442 161.001C215.771 160.49 216.182 160.091 216.673 159.804C217.165 159.514 217.706 159.369 218.297 159.369C218.757 159.369 219.158 159.455 219.499 159.625C219.839 159.795 220.102 160.034 220.287 160.341C220.472 160.648 220.558 161.006 220.547 161.415H219.541C219.513 161.116 219.385 160.852 219.158 160.622C218.933 160.389 218.601 160.273 218.161 160.273C217.768 160.273 217.408 160.375 217.078 160.58C216.749 160.781 216.472 161.067 216.247 161.436C216.023 161.803 215.871 162.233 215.791 162.727C215.706 163.233 215.713 163.673 215.812 164.048C215.912 164.423 216.092 164.714 216.354 164.922C216.615 165.129 216.945 165.233 217.342 165.233C217.604 165.233 217.848 165.188 218.075 165.097C218.303 165.006 218.504 164.875 218.68 164.705C218.857 164.534 218.996 164.33 219.098 164.091H220.104C219.979 164.477 219.778 164.825 219.503 165.135C219.227 165.442 218.893 165.686 218.501 165.868C218.109 166.047 217.672 166.136 217.189 166.136ZM223.952 166.136C223.349 166.136 222.845 165.993 222.439 165.706C222.033 165.419 221.746 165.017 221.578 164.5C221.413 163.983 221.386 163.381 221.497 162.693C221.605 162.023 221.82 161.439 222.141 160.942C222.464 160.442 222.866 160.055 223.347 159.783C223.83 159.507 224.361 159.369 224.94 159.369C225.543 159.369 226.045 159.514 226.449 159.804C226.855 160.091 227.142 160.494 227.31 161.014C227.477 161.531 227.506 162.136 227.395 162.83C227.287 163.494 227.07 164.075 226.743 164.572C226.419 165.067 226.017 165.452 225.537 165.727C225.06 166 224.531 166.136 223.952 166.136ZM223.969 165.233C224.429 165.233 224.828 165.115 225.166 164.879C225.507 164.643 225.783 164.332 225.993 163.946C226.206 163.56 226.349 163.142 226.423 162.693C226.491 162.267 226.489 161.871 226.415 161.504C226.341 161.135 226.183 160.838 225.942 160.614C225.7 160.386 225.361 160.273 224.923 160.273C224.463 160.273 224.061 160.392 223.717 160.631C223.376 160.869 223.101 161.183 222.891 161.572C222.68 161.962 222.54 162.381 222.469 162.83C222.401 163.256 222.402 163.652 222.473 164.018C222.547 164.382 222.705 164.676 222.946 164.901C223.19 165.122 223.531 165.233 223.969 165.233ZM230.064 162.062L229.416 166H228.41L229.501 159.455H230.473L230.302 160.477H230.387C230.592 160.145 230.869 159.878 231.218 159.676C231.568 159.472 231.99 159.369 232.484 159.369C232.922 159.369 233.291 159.46 233.592 159.642C233.896 159.821 234.11 160.094 234.235 160.46C234.363 160.824 234.382 161.284 234.291 161.841L233.592 166H232.586L233.268 161.909C233.353 161.398 233.287 160.997 233.068 160.707C232.852 160.418 232.51 160.273 232.041 160.273C231.717 160.273 231.417 160.342 231.142 160.482C230.869 160.621 230.637 160.824 230.447 161.091C230.26 161.358 230.132 161.682 230.064 162.062ZM237.083 162.062L236.435 166H235.43L236.521 159.455H237.492L237.322 160.477H237.407C237.612 160.145 237.888 159.878 238.238 159.676C238.587 159.472 239.009 159.369 239.504 159.369C239.941 159.369 240.31 159.46 240.612 159.642C240.915 159.821 241.13 160.094 241.255 160.46C241.383 160.824 241.401 161.284 241.31 161.841L240.612 166H239.606L240.288 161.909C240.373 161.398 240.306 160.997 240.087 160.707C239.871 160.418 239.529 160.273 239.06 160.273C238.737 160.273 238.437 160.342 238.161 160.482C237.888 160.621 237.657 160.824 237.467 161.091C237.279 161.358 237.151 161.682 237.083 162.062ZM245.176 166.136C244.549 166.136 244.03 165.997 243.621 165.719C243.212 165.438 242.926 165.045 242.765 164.543C242.603 164.037 242.577 163.449 242.688 162.778C242.799 162.108 243.019 161.517 243.348 161.006C243.678 160.491 244.088 160.091 244.58 159.804C245.071 159.514 245.611 159.369 246.199 159.369C246.54 159.369 246.868 159.426 247.184 159.54C247.499 159.653 247.772 159.838 248.002 160.094C248.232 160.347 248.392 160.682 248.483 161.099C248.574 161.517 248.569 162.031 248.466 162.642L248.398 163.068H243.353L243.489 162.199H247.512C247.577 161.83 247.56 161.5 247.461 161.21C247.364 160.92 247.195 160.692 246.953 160.524C246.715 160.357 246.412 160.273 246.046 160.273C245.668 160.273 245.316 160.375 244.989 160.58C244.662 160.781 244.39 161.037 244.171 161.347C243.952 161.653 243.816 161.966 243.762 162.284L243.642 163.034C243.557 163.577 243.57 164.009 243.681 164.33C243.794 164.651 243.992 164.882 244.273 165.024C244.554 165.163 244.907 165.233 245.33 165.233C245.6 165.233 245.848 165.196 246.076 165.122C246.303 165.045 246.506 164.932 246.685 164.781C246.864 164.628 247.015 164.437 247.137 164.21L248.057 164.483C247.901 164.812 247.681 165.102 247.397 165.352C247.115 165.599 246.786 165.793 246.408 165.932C246.033 166.068 245.623 166.136 245.176 166.136ZM252.099 166.136C251.483 166.136 250.977 165.991 250.582 165.702C250.19 165.412 249.917 165.013 249.764 164.504C249.61 163.996 249.588 163.415 249.696 162.761C249.804 162.097 250.022 161.51 250.352 161.001C250.681 160.49 251.092 160.091 251.583 159.804C252.075 159.514 252.616 159.369 253.207 159.369C253.667 159.369 254.068 159.455 254.409 159.625C254.75 159.795 255.012 160.034 255.197 160.341C255.382 160.648 255.468 161.006 255.457 161.415H254.451C254.423 161.116 254.295 160.852 254.068 160.622C253.843 160.389 253.511 160.273 253.071 160.273C252.679 160.273 252.318 160.375 251.988 160.58C251.659 160.781 251.382 161.067 251.157 161.436C250.933 161.803 250.781 162.233 250.701 162.727C250.616 163.233 250.623 163.673 250.723 164.048C250.822 164.423 251.002 164.714 251.264 164.922C251.525 165.129 251.855 165.233 252.252 165.233C252.514 165.233 252.758 165.188 252.985 165.097C253.213 165.006 253.414 164.875 253.591 164.705C253.767 164.534 253.906 164.33 254.008 164.091H255.014C254.889 164.477 254.689 164.825 254.413 165.135C254.137 165.442 253.804 165.686 253.412 165.868C253.02 166.047 252.582 166.136 252.099 166.136ZM260.098 159.455L259.961 160.307H256.569L256.706 159.455H260.098ZM257.95 157.886H258.956L257.916 164.125C257.87 164.409 257.877 164.622 257.937 164.764C258 164.903 258.093 164.997 258.218 165.045C258.346 165.091 258.484 165.114 258.632 165.114C258.743 165.114 258.833 165.108 258.904 165.097C258.975 165.082 259.032 165.071 259.075 165.062L259.143 165.966C259.066 165.991 258.963 166.017 258.832 166.043C258.704 166.071 258.547 166.085 258.359 166.085C258.075 166.085 257.808 166.024 257.558 165.902C257.308 165.78 257.116 165.594 256.983 165.344C256.849 165.094 256.814 164.778 256.876 164.398L257.95 157.886ZM260.52 166L261.61 159.455H262.616L261.525 166H260.52ZM262.42 158.347C262.224 158.347 262.055 158.28 261.913 158.146C261.774 158.013 261.704 157.852 261.704 157.665C261.704 157.477 261.774 157.317 261.913 157.183C262.055 157.05 262.224 156.983 262.42 156.983C262.616 156.983 262.784 157.05 262.923 157.183C263.065 157.317 263.136 157.477 263.136 157.665C263.136 157.852 263.065 158.013 262.923 158.146C262.784 158.28 262.616 158.347 262.42 158.347ZM266.069 166.136C265.467 166.136 264.962 165.993 264.556 165.706C264.15 165.419 263.863 165.017 263.695 164.5C263.531 163.983 263.504 163.381 263.614 162.693C263.722 162.023 263.937 161.439 264.258 160.942C264.582 160.442 264.984 160.055 265.464 159.783C265.947 159.507 266.478 159.369 267.058 159.369C267.66 159.369 268.163 159.514 268.566 159.804C268.972 160.091 269.259 160.494 269.427 161.014C269.594 161.531 269.623 162.136 269.512 162.83C269.404 163.494 269.187 164.075 268.86 164.572C268.536 165.067 268.134 165.452 267.654 165.727C267.177 166 266.648 166.136 266.069 166.136ZM266.086 165.233C266.546 165.233 266.945 165.115 267.283 164.879C267.624 164.643 267.9 164.332 268.11 163.946C268.323 163.56 268.467 163.142 268.54 162.693C268.609 162.267 268.606 161.871 268.532 161.504C268.458 161.135 268.3 160.838 268.059 160.614C267.817 160.386 267.478 160.273 267.04 160.273C266.58 160.273 266.178 160.392 265.835 160.631C265.494 160.869 265.218 161.183 265.008 161.572C264.798 161.962 264.657 162.381 264.586 162.83C264.518 163.256 264.519 163.652 264.59 164.018C264.664 164.382 264.822 164.676 265.063 164.901C265.308 165.122 265.648 165.233 266.086 165.233ZM272.181 162.062L271.533 166H270.527L271.618 159.455H272.59L272.419 160.477H272.505C272.709 160.145 272.986 159.878 273.336 159.676C273.685 159.472 274.107 159.369 274.601 159.369C275.039 159.369 275.408 159.46 275.709 159.642C276.013 159.821 276.228 160.094 276.353 160.46C276.48 160.824 276.499 161.284 276.408 161.841L275.709 166H274.703L275.385 161.909C275.471 161.398 275.404 160.997 275.185 160.707C274.969 160.418 274.627 160.273 274.158 160.273C273.834 160.273 273.534 160.342 273.259 160.482C272.986 160.621 272.755 160.824 272.564 161.091C272.377 161.358 272.249 161.682 272.181 162.062Z" fill="#505050" fill-opacity="0.8"/>
</svg>
