<svg width="372" height="118" viewBox="0 0 372 118" fill="none" xmlns="http://www.w3.org/2000/svg">
<rect width="372" height="118" fill="white"/>
<path d="M49.9257 18.3636C49.9257 17.4687 50.0417 16.6461 50.2737 15.8956C50.5081 15.1428 50.8419 14.4503 51.2751 13.8182H52.0138C51.8433 14.0526 51.6835 14.3414 51.5344 14.6847C51.3876 15.0256 51.2586 15.4008 51.1473 15.8104C51.036 16.2176 50.9484 16.639 50.8845 17.0746C50.8229 17.5102 50.7922 17.9399 50.7922 18.3636C50.7922 18.9271 50.8466 19.4988 50.9555 20.0788C51.0644 20.6589 51.2112 21.1974 51.3959 21.6946C51.5805 22.1918 51.7865 22.5966 52.0138 22.9091H51.2751C50.8419 22.277 50.5081 21.5857 50.2737 20.8352C50.0417 20.0824 49.9257 19.2585 49.9257 18.3636ZM79.0734 18.9318C79.0734 19.8267 78.9562 20.6506 78.7219 21.4034C78.4898 22.1539 78.1572 22.8452 77.724 23.4773H76.9854C77.1558 23.2429 77.3144 22.9541 77.4612 22.6108C77.6104 22.2699 77.7406 21.8958 77.8518 21.4886C77.9631 21.0791 78.0495 20.6565 78.1111 20.2209C78.175 19.7829 78.2069 19.3532 78.2069 18.9318C78.2069 18.3684 78.1525 17.7966 78.0436 17.2166C77.9347 16.6366 77.7879 16.098 77.6032 15.6009C77.4186 15.1037 77.2126 14.6989 76.9854 14.3864H77.724C78.1572 15.0185 78.4898 15.7109 78.7219 16.4638C78.9562 17.2143 79.0734 18.0369 79.0734 18.9318Z" fill="#505050"/>
<path d="M54.2448 14.7273V22H53.3641V14.7273H54.2448ZM56.735 18.7188V22H55.8969V16.5455H56.7066V17.3977H56.7776C56.9055 17.1207 57.0996 16.8982 57.36 16.7301C57.6204 16.5597 57.9566 16.4744 58.3685 16.4744C58.7378 16.4744 59.061 16.5502 59.338 16.7017C59.615 16.8509 59.8304 17.0781 59.9843 17.3835C60.1382 17.6866 60.2151 18.0701 60.2151 18.5341V22H59.377V18.5909C59.377 18.1624 59.2658 17.8286 59.0432 17.5895C58.8207 17.348 58.5153 17.2273 58.127 17.2273C57.8595 17.2273 57.6204 17.2853 57.4097 17.4013C57.2014 17.5173 57.0368 17.6866 56.9161 17.9091C56.7954 18.1316 56.735 18.4015 56.735 18.7188ZM61.7465 24.0455V16.5455H62.5562V17.4119H62.6556C62.7172 17.3172 62.8024 17.1965 62.9113 17.0497C63.0226 16.9006 63.1812 16.768 63.3872 16.652C63.5955 16.5336 63.8772 16.4744 64.2323 16.4744C64.6916 16.4744 65.0964 16.5893 65.4468 16.8189C65.7972 17.0485 66.0706 17.3741 66.2671 17.7955C66.4636 18.2169 66.5619 18.714 66.5619 19.2869C66.5619 19.8646 66.4636 20.3653 66.2671 20.7891C66.0706 21.2105 65.7984 21.5372 65.4504 21.7692C65.1024 21.9988 64.7011 22.1136 64.2465 22.1136C63.8962 22.1136 63.6156 22.0556 63.4049 21.9396C63.1942 21.8213 63.032 21.6875 62.9184 21.5384C62.8048 21.3868 62.7172 21.2614 62.6556 21.1619H62.5846V24.0455H61.7465ZM62.5704 19.2727C62.5704 19.6847 62.6308 20.0481 62.7515 20.3629C62.8722 20.6754 63.0486 20.9205 63.2806 21.098C63.5126 21.2732 63.7967 21.3608 64.1329 21.3608C64.4833 21.3608 64.7757 21.2685 65.01 21.0838C65.2468 20.8968 65.4243 20.6458 65.5427 20.331C65.6634 20.0137 65.7238 19.661 65.7238 19.2727C65.7238 18.8892 65.6646 18.5436 65.5463 18.2358C65.4302 17.9257 65.2539 17.6806 65.0171 17.5007C64.7828 17.3184 64.488 17.2273 64.1329 17.2273C63.792 17.2273 63.5055 17.3137 63.2735 17.4865C63.0415 17.657 62.8663 17.8961 62.748 18.2038C62.6296 18.5092 62.5704 18.8655 62.5704 19.2727ZM71.2778 19.7699V16.5455H72.1159V22H71.2778V21.0767H71.221C71.0931 21.3537 70.8943 21.5893 70.6244 21.7834C70.3545 21.9751 70.0136 22.071 69.6017 22.071C69.2607 22.071 68.9577 21.9964 68.6926 21.8473C68.4274 21.6958 68.2191 21.4685 68.0676 21.1655C67.916 20.8601 67.8403 20.4754 67.8403 20.0114V16.5455H68.6784V19.9545C68.6784 20.3523 68.7896 20.6695 69.0122 20.9062C69.2371 21.143 69.5235 21.2614 69.8715 21.2614C70.0799 21.2614 70.2918 21.2081 70.5072 21.1016C70.725 20.995 70.9073 20.8317 71.0541 20.6115C71.2032 20.3913 71.2778 20.1108 71.2778 19.7699ZM76.023 16.5455V17.2557H73.1963V16.5455H76.023ZM74.0202 15.2386H74.8582V20.4375C74.8582 20.6742 74.8925 20.8518 74.9612 20.9702C75.0322 21.0862 75.1222 21.1643 75.2311 21.2045C75.3424 21.2424 75.4595 21.2614 75.5827 21.2614C75.675 21.2614 75.7507 21.2566 75.8099 21.2472C75.8691 21.2353 75.9165 21.2259 75.952 21.2188L76.1224 21.9716C76.0656 21.9929 75.9863 22.0142 75.8845 22.0355C75.7827 22.0592 75.6537 22.071 75.4974 22.071C75.2607 22.071 75.0287 22.0201 74.8014 21.9183C74.5765 21.8165 74.3895 21.6615 74.2403 21.4531C74.0935 21.2448 74.0202 20.982 74.0202 20.6648V15.2386Z" fill="#BE3B3B"/>
<path d="M55.9013 107.672V106.727H61.5298V107.672H59.2607V114H58.1669V107.672H55.9013ZM62.6884 114V108.545H63.7502V114H62.6884ZM63.2246 107.704C63.04 107.704 62.8813 107.642 62.7488 107.519C62.6185 107.394 62.5534 107.245 62.5534 107.072C62.5534 106.897 62.6185 106.747 62.7488 106.624C62.8813 106.499 63.04 106.436 63.2246 106.436C63.4093 106.436 63.5667 106.499 63.6969 106.624C63.8295 106.747 63.8958 106.897 63.8958 107.072C63.8958 107.245 63.8295 107.394 63.6969 107.519C63.5667 107.642 63.4093 107.704 63.2246 107.704ZM65.1786 114V108.545H66.1978V109.433H66.2653C66.3789 109.133 66.5647 108.898 66.8228 108.73C67.0808 108.56 67.3898 108.474 67.7496 108.474C68.1142 108.474 68.4196 108.56 68.6658 108.73C68.9144 108.901 69.0979 109.135 69.2163 109.433H69.2731C69.4033 109.142 69.6104 108.91 69.8945 108.737C70.1786 108.562 70.5172 108.474 70.9102 108.474C71.4049 108.474 71.8086 108.629 72.1211 108.94C72.436 109.25 72.5934 109.717 72.5934 110.342V114H71.5316V110.442C71.5316 110.072 71.431 109.805 71.2298 109.639C71.0285 109.473 70.7882 109.391 70.5089 109.391C70.1632 109.391 69.8945 109.497 69.7028 109.71C69.511 109.921 69.4151 110.192 69.4151 110.523V114H68.3569V110.374C68.3569 110.078 68.2646 109.84 68.0799 109.661C67.8952 109.481 67.6549 109.391 67.359 109.391C67.1578 109.391 66.9719 109.444 66.8015 109.55C66.6334 109.655 66.4973 109.8 66.3931 109.987C66.2913 110.174 66.2404 110.391 66.2404 110.637V114H65.1786ZM76.3674 114.11C75.83 114.11 75.3671 113.995 74.9789 113.766C74.593 113.534 74.2947 113.208 74.084 112.789C73.8757 112.368 73.7715 111.874 73.7715 111.308C73.7715 110.75 73.8757 110.257 74.084 109.831C74.2947 109.405 74.5882 109.072 74.9647 108.833C75.3435 108.594 75.7862 108.474 76.2928 108.474C76.6006 108.474 76.8989 108.525 77.1877 108.627C77.4765 108.729 77.7357 108.889 77.9654 109.107C78.195 109.324 78.3761 109.607 78.5087 109.955C78.6413 110.301 78.7076 110.721 78.7076 111.216V111.592H74.3716V110.797H77.6671C77.6671 110.518 77.6103 110.27 77.4966 110.055C77.383 109.837 77.2232 109.665 77.0172 109.54C76.8136 109.414 76.5745 109.352 76.2999 109.352C76.0016 109.352 75.7412 109.425 75.5186 109.572C75.2985 109.716 75.128 109.906 75.0073 110.14C74.8889 110.372 74.8297 110.624 74.8297 110.896V111.518C74.8297 111.882 74.8936 112.192 75.0215 112.448C75.1517 112.704 75.3328 112.899 75.5648 113.034C75.7968 113.167 76.0679 113.233 76.378 113.233C76.5792 113.233 76.7627 113.205 76.9284 113.148C77.0942 113.089 77.2374 113.001 77.3581 112.885C77.4789 112.769 77.5712 112.626 77.6351 112.455L78.6401 112.636C78.5596 112.932 78.4152 113.192 78.2069 113.414C78.0009 113.634 77.7417 113.806 77.4292 113.929C77.119 114.05 76.7651 114.11 76.3674 114.11ZM85.5328 108.545L85.3944 109.398H82.415L82.5534 108.545H85.5328ZM83.5655 107.239H84.6273L83.7679 112.398C83.7348 112.604 83.7407 112.759 83.7857 112.864C83.8307 112.965 83.8993 113.035 83.9917 113.073C84.0864 113.109 84.1917 113.126 84.3077 113.126C84.3929 113.126 84.4675 113.121 84.5314 113.109C84.5953 113.097 84.6462 113.087 84.6841 113.08L84.7409 113.957C84.6699 113.981 84.574 114.005 84.4533 114.028C84.3349 114.054 84.1905 114.069 84.0201 114.071C83.7407 114.076 83.4886 114.026 83.2637 113.922C83.0388 113.815 82.8707 113.654 82.7594 113.439C82.6481 113.221 82.6209 112.948 82.6777 112.619L83.5655 107.239Z" fill="#505050"/>
<path d="M9 102.08C8.57197 102.08 8.20739 101.963 7.90625 101.73C7.60511 101.495 7.375 101.155 7.21591 100.71C7.05682 100.263 6.97727 99.7235 6.97727 99.0909C6.97727 98.4621 7.05682 97.9252 7.21591 97.4801C7.37689 97.0331 7.60795 96.6922 7.90909 96.4574C8.21212 96.2206 8.57576 96.1023 9 96.1023C9.42424 96.1023 9.78693 96.2206 10.0881 96.4574C10.3911 96.6922 10.6222 97.0331 10.7812 97.4801C10.9422 97.9252 11.0227 98.4621 11.0227 99.0909C11.0227 99.7235 10.9432 100.263 10.7841 100.71C10.625 101.155 10.3949 101.495 10.0938 101.73C9.79261 101.963 9.42803 102.08 9 102.08ZM9 101.455C9.42424 101.455 9.75379 101.25 9.98864 100.841C10.2235 100.432 10.3409 99.8485 10.3409 99.0909C10.3409 98.5871 10.2869 98.1581 10.179 97.804C10.0729 97.4498 9.91951 97.1799 9.71875 96.9943C9.51989 96.8087 9.2803 96.7159 9 96.7159C8.57955 96.7159 8.25095 96.9233 8.0142 97.3381C7.77746 97.7509 7.65909 98.3352 7.65909 99.0909C7.65909 99.5947 7.71212 100.023 7.81818 100.375C7.92424 100.727 8.0767 100.995 8.27557 101.179C8.47633 101.363 8.7178 101.455 9 101.455Z" fill="#505050"/>
<path d="M39.7884 96.1818V102H39.0838V96.9205H39.0497L37.6293 97.8636V97.1477L39.0838 96.1818H39.7884Z" fill="#505050"/>
<path d="M67.1804 102V101.489L69.1009 99.3864C69.3262 99.1402 69.5118 98.9261 69.6577 98.7443C69.8035 98.5606 69.9115 98.3883 69.9815 98.2273C70.0535 98.0644 70.0895 97.8939 70.0895 97.7159C70.0895 97.5114 70.0402 97.3343 69.9418 97.1847C69.8452 97.035 69.7126 96.9195 69.544 96.8381C69.3755 96.7566 69.1861 96.7159 68.9759 96.7159C68.7524 96.7159 68.5573 96.7623 68.3906 96.8551C68.2259 96.946 68.098 97.0739 68.0071 97.2386C67.9181 97.4034 67.8736 97.5966 67.8736 97.8182H67.2031C67.2031 97.4773 67.2817 97.178 67.4389 96.9205C67.5961 96.6629 67.8101 96.4621 68.081 96.3182C68.3537 96.1742 68.6596 96.1023 68.9986 96.1023C69.3395 96.1023 69.6416 96.1742 69.9048 96.3182C70.1681 96.4621 70.3745 96.6562 70.5241 96.9006C70.6738 97.1449 70.7486 97.4167 70.7486 97.7159C70.7486 97.9299 70.7098 98.1392 70.6321 98.3438C70.5563 98.5464 70.4238 98.7727 70.2344 99.0227C70.0469 99.2708 69.7865 99.5739 69.4531 99.9318L68.1463 101.33V101.375H70.8509V102H67.1804Z" fill="#505050"/>
<path d="M99.0213 102.08C98.6463 102.08 98.312 102.015 98.0185 101.886C97.7268 101.758 97.4948 101.579 97.3224 101.349C97.152 101.118 97.0592 100.85 97.044 100.545H97.7599C97.7751 100.733 97.8395 100.895 97.9531 101.031C98.0668 101.166 98.2154 101.27 98.3991 101.344C98.5829 101.418 98.7865 101.455 99.0099 101.455C99.2599 101.455 99.4815 101.411 99.6747 101.324C99.8679 101.237 100.019 101.116 100.129 100.96C100.239 100.805 100.294 100.625 100.294 100.42C100.294 100.206 100.241 100.018 100.135 99.8551C100.029 99.6903 99.8736 99.5616 99.669 99.4688C99.4645 99.3759 99.2145 99.3295 98.919 99.3295H98.4531V98.7045H98.919C99.1501 98.7045 99.3527 98.6629 99.527 98.5795C99.7031 98.4962 99.8404 98.3788 99.9389 98.2273C100.039 98.0758 100.089 97.8977 100.089 97.6932C100.089 97.4962 100.046 97.3248 99.9588 97.179C99.8717 97.0331 99.7486 96.9195 99.5895 96.8381C99.4323 96.7566 99.2467 96.7159 99.0327 96.7159C98.8319 96.7159 98.6425 96.7528 98.4645 96.8267C98.2884 96.8987 98.1444 97.0038 98.0327 97.142C97.9209 97.2784 97.8603 97.4432 97.8509 97.6364H97.169C97.1804 97.3314 97.2723 97.0644 97.4446 96.8352C97.617 96.6042 97.8423 96.4242 98.1207 96.2955C98.401 96.1667 98.7088 96.1023 99.044 96.1023C99.4039 96.1023 99.7126 96.1752 99.9702 96.321C100.228 96.465 100.426 96.6553 100.564 96.892C100.702 97.1288 100.771 97.3845 100.771 97.6591C100.771 97.9867 100.685 98.2661 100.513 98.4972C100.342 98.7282 100.11 98.8883 99.8168 98.9773V99.0227C100.184 99.0833 100.471 99.2396 100.678 99.4915C100.884 99.7415 100.987 100.051 100.987 100.42C100.987 100.737 100.901 101.021 100.729 101.273C100.558 101.523 100.325 101.72 100.03 101.864C99.7344 102.008 99.3982 102.08 99.0213 102.08Z" fill="#505050"/>
<path d="M126.9 100.807V100.227L129.456 96.1818H129.877V97.0795H129.593L127.661 100.136V100.182H131.104V100.807H126.9ZM129.638 102V100.631V100.361V96.1818H130.309V102H129.638Z" fill="#505050"/>
<path d="M35.8255 10H33.2473V2.72727H35.8468C36.5783 2.72727 37.208 2.87287 37.736 3.16406C38.2639 3.45289 38.6699 3.86837 38.954 4.41051C39.2405 4.95265 39.3837 5.60133 39.3837 6.35653C39.3837 7.11411 39.2405 7.76515 38.954 8.30966C38.6699 8.85417 38.2615 9.27202 37.7289 9.56321C37.1986 9.8544 36.5641 10 35.8255 10ZM34.785 8.68253H35.7615C36.2161 8.68253 36.5984 8.60204 36.9086 8.44105C37.2211 8.2777 37.4554 8.02557 37.6117 7.68466C37.7703 7.34138 37.8496 6.89867 37.8496 6.35653C37.8496 5.81913 37.7703 5.37997 37.6117 5.03906C37.4554 4.69815 37.2222 4.44721 36.9121 4.28622C36.602 4.12524 36.2196 4.04474 35.7651 4.04474H34.785V8.68253ZM40.4943 10V4.54545H42.0071V10H40.4943ZM41.2543 3.84233C41.0294 3.84233 40.8364 3.76776 40.6754 3.61861C40.5168 3.46709 40.4375 3.28598 40.4375 3.07528C40.4375 2.86695 40.5168 2.68821 40.6754 2.53906C40.8364 2.38755 41.0294 2.31179 41.2543 2.31179C41.4792 2.31179 41.6709 2.38755 41.8295 2.53906C41.9905 2.68821 42.071 2.86695 42.071 3.07528C42.071 3.28598 41.9905 3.46709 41.8295 3.61861C41.6709 3.76776 41.4792 3.84233 41.2543 3.84233ZM47.7573 6.10085L46.3723 6.18608C46.3487 6.06771 46.2978 5.96117 46.2196 5.86648C46.1415 5.76941 46.0385 5.69247 45.9107 5.63565C45.7852 5.57647 45.6349 5.54688 45.4597 5.54688C45.2253 5.54688 45.0276 5.59659 44.8667 5.69602C44.7057 5.79309 44.6252 5.9233 44.6252 6.08665C44.6252 6.21686 44.6773 6.32694 44.7814 6.4169C44.8856 6.50687 45.0643 6.57907 45.3176 6.63352L46.3049 6.83239C46.8352 6.94129 47.2305 7.11648 47.4909 7.35795C47.7514 7.59943 47.8816 7.91667 47.8816 8.30966C47.8816 8.66714 47.7762 8.98082 47.5655 9.25071C47.3572 9.5206 47.0707 9.7313 46.7061 9.88281C46.3439 10.032 45.9261 10.1065 45.4526 10.1065C44.7305 10.1065 44.1552 9.9562 43.7267 9.65554C43.3006 9.35251 43.0508 8.94058 42.9775 8.41974L44.4654 8.34162C44.5104 8.56179 44.6193 8.72988 44.7921 8.84588C44.9649 8.95952 45.1863 9.01634 45.4561 9.01634C45.7213 9.01634 45.9344 8.96544 46.0953 8.86364C46.2587 8.75947 46.3416 8.62571 46.3439 8.46236C46.3416 8.32505 46.2836 8.21259 46.1699 8.125C46.0563 8.03504 45.8811 7.96638 45.6444 7.91903L44.6998 7.73082C44.1671 7.62429 43.7705 7.43963 43.5101 7.17685C43.2521 6.91406 43.123 6.57907 43.123 6.17188C43.123 5.8215 43.2177 5.51965 43.4071 5.26634C43.5989 5.01302 43.8676 4.81771 44.2132 4.6804C44.5613 4.54309 44.9685 4.47443 45.4348 4.47443C46.1238 4.47443 46.6659 4.62003 47.0613 4.91122C47.459 5.20241 47.691 5.59896 47.7573 6.10085ZM51.2987 10.1065C50.7399 10.1065 50.2594 9.98816 49.8569 9.75142C49.4568 9.51231 49.149 9.18087 48.9336 8.7571C48.7205 8.33333 48.614 7.84564 48.614 7.29403C48.614 6.73532 48.7217 6.24527 48.9371 5.82386C49.1549 5.40009 49.4639 5.06984 49.864 4.8331C50.2641 4.59399 50.7399 4.47443 51.2915 4.47443C51.7674 4.47443 52.1841 4.56084 52.5415 4.73366C52.899 4.90649 53.1819 5.14915 53.3903 5.46165C53.5986 5.77415 53.7134 6.1411 53.7347 6.5625H52.3072C52.2669 6.29025 52.1604 6.07126 51.9876 5.90554C51.8171 5.73745 51.5934 5.65341 51.3164 5.65341C51.082 5.65341 50.8772 5.71733 50.7021 5.84517C50.5292 5.97064 50.3943 6.15412 50.2972 6.3956C50.2002 6.63707 50.1516 6.92945 50.1516 7.27273C50.1516 7.62074 50.199 7.91667 50.2937 8.16051C50.3907 8.40436 50.5269 8.5902 50.7021 8.71804C50.8772 8.84588 51.082 8.9098 51.3164 8.9098C51.4892 8.9098 51.6443 8.87429 51.7816 8.80327C51.9213 8.73224 52.0361 8.62926 52.1261 8.49432C52.2184 8.35701 52.2788 8.19247 52.3072 8.00071H53.7347C53.7111 8.41738 53.5974 8.78433 53.3938 9.10156C53.1926 9.41643 52.9144 9.66264 52.5593 9.8402C52.2042 10.0178 51.784 10.1065 51.2987 10.1065ZM54.7033 10V4.54545H56.1699V5.49716H56.2267C56.3262 5.15862 56.4931 4.90294 56.7275 4.73011C56.9618 4.55492 57.2317 4.46733 57.5371 4.46733C57.6129 4.46733 57.6945 4.47206 57.7821 4.48153C57.8697 4.491 57.9467 4.50402 58.013 4.5206V5.86293C57.9419 5.84162 57.8437 5.82268 57.7182 5.80611C57.5927 5.78954 57.4779 5.78125 57.3738 5.78125C57.1512 5.78125 56.9524 5.82978 56.7772 5.92685C56.6043 6.02154 56.467 6.15412 56.3652 6.32457C56.2658 6.49503 56.2161 6.69152 56.2161 6.91406V10H54.7033ZM61.027 10.1065C60.4659 10.1065 59.983 9.9929 59.5781 9.76562C59.1757 9.53598 58.8655 9.21165 58.6477 8.79261C58.4299 8.37121 58.321 7.87287 58.321 7.29759C58.321 6.73651 58.4299 6.24408 58.6477 5.82031C58.8655 5.39654 59.1721 5.06629 59.5675 4.82955C59.9652 4.5928 60.4316 4.47443 60.9666 4.47443C61.3265 4.47443 61.6615 4.53243 61.9716 4.64844C62.2841 4.76207 62.5563 4.93371 62.7884 5.16335C63.0227 5.39299 63.205 5.68182 63.3352 6.02983C63.4654 6.37547 63.5305 6.7803 63.5305 7.24432V7.6598H58.9247V6.7223H62.1065C62.1065 6.5045 62.0592 6.31155 61.9645 6.14347C61.8698 5.97538 61.7384 5.84399 61.5703 5.74929C61.4046 5.65223 61.2116 5.60369 60.9915 5.60369C60.7618 5.60369 60.5582 5.65696 60.3807 5.76349C60.2055 5.86766 60.0682 6.00852 59.9688 6.18608C59.8693 6.36127 59.8184 6.55658 59.8161 6.77202V7.66335C59.8161 7.93324 59.8658 8.16643 59.9652 8.36293C60.067 8.55942 60.2102 8.71094 60.3949 8.81747C60.5795 8.92401 60.7985 8.97727 61.0518 8.97727C61.2199 8.97727 61.3738 8.9536 61.5135 8.90625C61.6532 8.8589 61.7727 8.78788 61.8722 8.69318C61.9716 8.59848 62.0473 8.48248 62.0994 8.34517L63.4986 8.4375C63.4276 8.77367 63.282 9.06723 63.0618 9.31818C62.844 9.56676 62.5623 9.76089 62.2166 9.90057C61.8733 10.0379 61.4768 10.1065 61.027 10.1065ZM67.419 4.54545V5.68182H64.1342V4.54545H67.419ZM64.88 3.23864H66.3928V8.32386C66.3928 8.46354 66.4141 8.57244 66.4567 8.65057C66.4993 8.72633 66.5585 8.77959 66.6342 8.81037C66.7124 8.84115 66.8023 8.85653 66.9041 8.85653C66.9751 8.85653 67.0462 8.85062 67.1172 8.83878C67.1882 8.82457 67.2427 8.81392 67.2805 8.80682L67.5185 9.93253C67.4427 9.9562 67.3362 9.98343 67.1989 10.0142C67.0616 10.0473 66.8946 10.0675 66.6982 10.0746C66.3336 10.0888 66.014 10.0402 65.7393 9.92898C65.4671 9.81771 65.2552 9.64489 65.1037 9.41051C64.9522 9.17614 64.8776 8.88021 64.88 8.52273V3.23864ZM70.8317 10.1065C70.2706 10.1065 69.7876 9.9929 69.3828 9.76562C68.9804 9.53598 68.6702 9.21165 68.4524 8.79261C68.2346 8.37121 68.1257 7.87287 68.1257 7.29759C68.1257 6.73651 68.2346 6.24408 68.4524 5.82031C68.6702 5.39654 68.9768 5.06629 69.3722 4.82955C69.7699 4.5928 70.2363 4.47443 70.7713 4.47443C71.1312 4.47443 71.4661 4.53243 71.7763 4.64844C72.0888 4.76207 72.361 4.93371 72.593 5.16335C72.8274 5.39299 73.0097 5.68182 73.1399 6.02983C73.2701 6.37547 73.3352 6.7803 73.3352 7.24432V7.6598H68.7294V6.7223H71.9112C71.9112 6.5045 71.8639 6.31155 71.7692 6.14347C71.6745 5.97538 71.5431 5.84399 71.375 5.74929C71.2093 5.65223 71.0163 5.60369 70.7962 5.60369C70.5665 5.60369 70.3629 5.65696 70.1854 5.76349C70.0102 5.86766 69.8729 6.00852 69.7734 6.18608C69.674 6.36127 69.6231 6.55658 69.6207 6.77202V7.66335C69.6207 7.93324 69.6705 8.16643 69.7699 8.36293C69.8717 8.55942 70.0149 8.71094 70.1996 8.81747C70.3842 8.92401 70.6032 8.97727 70.8565 8.97727C71.0246 8.97727 71.1785 8.9536 71.3182 8.90625C71.4579 8.8589 71.5774 8.78788 71.6768 8.69318C71.7763 8.59848 71.852 8.48248 71.9041 8.34517L73.3033 8.4375C73.2322 8.77367 73.0866 9.06723 72.8665 9.31818C72.6487 9.56676 72.367 9.76089 72.0213 9.90057C71.678 10.0379 71.2815 10.1065 70.8317 10.1065ZM80.6106 4.81889C80.5822 4.53243 80.4603 4.3099 80.2449 4.15128C80.0294 3.99266 79.737 3.91335 79.3677 3.91335C79.1168 3.91335 78.9049 3.94886 78.7321 4.01989C78.5592 4.08854 78.4267 4.18442 78.3343 4.30753C78.2444 4.43063 78.1994 4.57031 78.1994 4.72656C78.1947 4.85677 78.2219 4.97041 78.2811 5.06747C78.3426 5.16454 78.4267 5.24858 78.5332 5.3196C78.6397 5.38826 78.7628 5.44863 78.9025 5.50071C79.0422 5.55043 79.1913 5.59304 79.35 5.62855L80.0034 5.7848C80.3206 5.85582 80.6118 5.95052 80.877 6.06889C81.1421 6.18726 81.3717 6.33286 81.5659 6.50568C81.76 6.6785 81.9103 6.8821 82.0169 7.11648C82.1258 7.35085 82.1814 7.61955 82.1838 7.92259C82.1814 8.36766 82.0678 8.75355 81.8429 9.08026C81.6203 9.40459 81.2984 9.65672 80.877 9.83665C80.4579 10.0142 79.9525 10.103 79.3606 10.103C78.7735 10.103 78.2621 10.013 77.8265 9.8331C77.3933 9.65317 77.0547 9.38684 76.8109 9.03409C76.5694 8.67898 76.4428 8.23982 76.4309 7.71662H77.9189C77.9354 7.96046 78.0053 8.16406 78.1284 8.32741C78.2538 8.4884 78.4208 8.61032 78.6291 8.69318C78.8398 8.77367 79.0777 8.81392 79.3429 8.81392C79.6033 8.81392 79.8294 8.77604 80.0211 8.70028C80.2153 8.62453 80.3656 8.51918 80.4721 8.38423C80.5787 8.24929 80.6319 8.09422 80.6319 7.91903C80.6319 7.75568 80.5834 7.61837 80.4863 7.5071C80.3916 7.39583 80.252 7.30114 80.0673 7.22301C79.885 7.14489 79.6613 7.07386 79.3961 7.00994L78.6042 6.81108C77.9911 6.66193 77.5069 6.42874 77.1518 6.11151C76.7967 5.79427 76.6203 5.36695 76.6227 4.82955C76.6203 4.3892 76.7375 4.0045 76.9743 3.67543C77.2134 3.34635 77.5413 3.08949 77.9579 2.90483C78.3746 2.72017 78.8481 2.62784 79.3784 2.62784C79.9181 2.62784 80.3893 2.72017 80.7917 2.90483C81.1966 3.08949 81.5114 3.34635 81.7363 3.67543C81.9612 4.0045 82.0772 4.38565 82.0843 4.81889H80.6106ZM83.1896 10V4.54545H84.7024V10H83.1896ZM83.9496 3.84233C83.7247 3.84233 83.5317 3.76776 83.3707 3.61861C83.2121 3.46709 83.1328 3.28598 83.1328 3.07528C83.1328 2.86695 83.2121 2.68821 83.3707 2.53906C83.5317 2.38755 83.7247 2.31179 83.9496 2.31179C84.1745 2.31179 84.3662 2.38755 84.5249 2.53906C84.6858 2.68821 84.7663 2.86695 84.7663 3.07528C84.7663 3.28598 84.6858 3.46709 84.5249 3.61861C84.3662 3.76776 84.1745 3.84233 83.9496 3.84233ZM88.3716 12.1591C87.8816 12.1591 87.4614 12.0916 87.111 11.9567C86.763 11.8241 86.486 11.643 86.28 11.4134C86.074 11.1837 85.9403 10.9257 85.8787 10.6392L87.2779 10.451C87.3205 10.5599 87.388 10.6617 87.4803 10.7564C87.5726 10.8511 87.6945 10.9268 87.8461 10.9837C87.9999 11.0429 88.187 11.0724 88.4071 11.0724C88.7362 11.0724 89.0073 10.992 89.2203 10.831C89.4358 10.6723 89.5435 10.406 89.5435 10.032V9.03409H89.4796C89.4133 9.18561 89.3139 9.32884 89.1813 9.46378C89.0487 9.59872 88.8783 9.70881 88.6699 9.79403C88.4616 9.87926 88.213 9.92188 87.9242 9.92188C87.5146 9.92188 87.1417 9.82718 86.8056 9.63778C86.4718 9.44602 86.2054 9.15365 86.0066 8.76065C85.8101 8.36529 85.7118 7.86577 85.7118 7.26207C85.7118 6.64418 85.8124 6.12808 86.0137 5.71378C86.2149 5.29948 86.4824 4.98935 86.8162 4.78338C87.1524 4.57741 87.5205 4.47443 87.9206 4.47443C88.226 4.47443 88.4817 4.52652 88.6877 4.63068C88.8936 4.73248 89.0594 4.86032 89.1848 5.0142C89.3127 5.16572 89.4109 5.31487 89.4796 5.46165H89.5364V4.54545H91.0385V10.0533C91.0385 10.5173 90.9249 10.9055 90.6976 11.218C90.4703 11.5305 90.1555 11.7649 89.753 11.9212C89.3529 12.0798 88.8925 12.1591 88.3716 12.1591ZM88.4036 8.78551C88.6474 8.78551 88.8534 8.72514 89.0215 8.6044C89.1919 8.4813 89.3221 8.30611 89.4121 8.07884C89.5044 7.8492 89.5506 7.57457 89.5506 7.25497C89.5506 6.93537 89.5056 6.65838 89.4157 6.42401C89.3257 6.18726 89.1955 6.00379 89.025 5.87358C88.8546 5.74337 88.6474 5.67827 88.4036 5.67827C88.155 5.67827 87.9455 5.74574 87.775 5.88068C87.6046 6.01326 87.4756 6.19792 87.388 6.43466C87.3004 6.6714 87.2566 6.94484 87.2566 7.25497C87.2566 7.56984 87.3004 7.84209 87.388 8.07173C87.4779 8.29901 87.6069 8.47538 87.775 8.60085C87.9455 8.72396 88.155 8.78551 88.4036 8.78551ZM93.7551 6.84659V10H92.2424V4.54545H93.6841V5.50781H93.748C93.8688 5.19058 94.0712 4.93963 94.3553 4.75497C94.6394 4.56795 94.9838 4.47443 95.3887 4.47443C95.7675 4.47443 96.0977 4.55729 96.3794 4.72301C96.6612 4.88873 96.8801 5.12547 97.0364 5.43324C97.1926 5.73864 97.2708 6.10322 97.2708 6.52699V10H95.758V6.79688C95.7604 6.46307 95.6751 6.20265 95.5023 6.01562C95.3295 5.82623 95.0916 5.73153 94.7885 5.73153C94.5849 5.73153 94.405 5.77533 94.2488 5.86293C94.0949 5.95052 93.9741 6.07836 93.8865 6.24645C93.8013 6.41217 93.7575 6.61222 93.7551 6.84659ZM100.018 10.103C99.6705 10.103 99.3603 10.0426 99.0881 9.92188C98.8158 9.79877 98.6004 9.61766 98.4418 9.37855C98.2855 9.13707 98.2074 8.83641 98.2074 8.47656C98.2074 8.17353 98.263 7.91903 98.3743 7.71307C98.4856 7.5071 98.6371 7.34138 98.8288 7.21591C99.0206 7.09044 99.2384 6.99574 99.4822 6.93182C99.7285 6.8679 99.9865 6.82292 100.256 6.79688C100.574 6.76373 100.829 6.73295 101.023 6.70455C101.218 6.67377 101.358 6.62879 101.446 6.5696C101.534 6.51042 101.577 6.42282 101.577 6.30682V6.28551C101.577 6.06061 101.506 5.8866 101.364 5.76349C101.225 5.64039 101.026 5.57884 100.768 5.57884C100.496 5.57884 100.279 5.6392 100.118 5.75994C99.9569 5.87831 99.8504 6.02746 99.7983 6.20739L98.3991 6.09375C98.4702 5.76231 98.6098 5.47585 98.8182 5.23438C99.0265 4.99053 99.2952 4.8035 99.6243 4.6733C99.9557 4.54072 100.339 4.47443 100.775 4.47443C101.078 4.47443 101.368 4.50994 101.645 4.58097C101.924 4.65199 102.172 4.76207 102.387 4.91122C102.605 5.06037 102.777 5.25213 102.902 5.48651C103.027 5.71851 103.09 5.99669 103.09 6.32102V10H101.656V9.24361H101.613C101.525 9.41406 101.408 9.56439 101.261 9.6946C101.115 9.82244 100.938 9.92306 100.732 9.99645C100.526 10.0675 100.288 10.103 100.018 10.103ZM100.452 9.05895C100.674 9.05895 100.871 9.01515 101.041 8.92756C101.212 8.83759 101.345 8.71686 101.442 8.56534C101.54 8.41383 101.588 8.24219 101.588 8.05043V7.47159C101.541 7.50237 101.476 7.53078 101.393 7.55682C101.312 7.58049 101.221 7.60298 101.119 7.62429C101.018 7.64323 100.916 7.66098 100.814 7.67756C100.712 7.69176 100.62 7.70478 100.537 7.71662C100.359 7.74266 100.204 7.78409 100.072 7.84091C99.9392 7.89773 99.8362 7.97467 99.7628 8.07173C99.6894 8.16643 99.6527 8.2848 99.6527 8.42685C99.6527 8.63281 99.7273 8.79025 99.8764 8.89915C100.028 9.00568 100.22 9.05895 100.452 9.05895ZM105.777 2.72727V10H104.264V2.72727H105.777Z" fill="#505050"/>
<path d="M149.49 35V29.1818H150.72V31.5824H153.217V29.1818H154.445V35H153.217V32.5966H150.72V35H149.49ZM157.408 35.0852C156.966 35.0852 156.585 34.9915 156.263 34.804C155.943 34.6146 155.696 34.3513 155.521 34.0142C155.347 33.6752 155.26 33.2822 155.26 32.8352C155.26 32.3845 155.347 31.9905 155.521 31.6534C155.696 31.3144 155.943 31.0511 156.263 30.8636C156.585 30.6742 156.966 30.5795 157.408 30.5795C157.849 30.5795 158.23 30.6742 158.55 30.8636C158.872 31.0511 159.12 31.3144 159.294 31.6534C159.468 31.9905 159.555 32.3845 159.555 32.8352C159.555 33.2822 159.468 33.6752 159.294 34.0142C159.12 34.3513 158.872 34.6146 158.55 34.804C158.23 34.9915 157.849 35.0852 157.408 35.0852ZM157.413 34.1477C157.614 34.1477 157.782 34.0909 157.916 33.9773C158.051 33.8617 158.152 33.7045 158.22 33.5057C158.29 33.3068 158.325 33.0805 158.325 32.8267C158.325 32.5729 158.29 32.3466 158.22 32.1477C158.152 31.9489 158.051 31.7917 157.916 31.6761C157.782 31.5606 157.614 31.5028 157.413 31.5028C157.211 31.5028 157.04 31.5606 156.902 31.6761C156.766 31.7917 156.662 31.9489 156.592 32.1477C156.524 32.3466 156.49 32.5729 156.49 32.8267C156.49 33.0805 156.524 33.3068 156.592 33.5057C156.662 33.7045 156.766 33.8617 156.902 33.9773C157.04 34.0909 157.211 34.1477 157.413 34.1477ZM161.553 29.1818V35H160.342V29.1818H161.553ZM164.13 35.071C163.799 35.071 163.498 34.9858 163.229 34.8153C162.962 34.643 162.75 34.3902 162.593 34.0568C162.438 33.7216 162.36 33.3106 162.36 32.8239C162.36 32.3239 162.441 31.9081 162.602 31.5767C162.763 31.2434 162.977 30.9943 163.244 30.8295C163.513 30.6629 163.807 30.5795 164.127 30.5795C164.371 30.5795 164.575 30.6212 164.738 30.7045C164.903 30.786 165.035 30.8883 165.136 31.0114C165.238 31.1326 165.316 31.2519 165.369 31.3693H165.406V29.1818H166.613V35H165.42V34.3011H165.369C165.312 34.4223 165.231 34.5426 165.127 34.6619C165.025 34.7794 164.891 34.8769 164.727 34.9545C164.564 35.0322 164.365 35.071 164.13 35.071ZM164.513 34.108C164.709 34.108 164.873 34.0549 165.008 33.9489C165.144 33.8409 165.248 33.6903 165.32 33.4972C165.394 33.304 165.431 33.0777 165.431 32.8182C165.431 32.5587 165.395 32.3333 165.323 32.142C165.251 31.9508 165.147 31.803 165.011 31.6989C164.874 31.5947 164.709 31.5426 164.513 31.5426C164.315 31.5426 164.147 31.5966 164.011 31.7045C163.874 31.8125 163.771 31.9621 163.701 32.1534C163.631 32.3447 163.596 32.5663 163.596 32.8182C163.596 33.072 163.631 33.2964 163.701 33.4915C163.773 33.6847 163.876 33.8362 164.011 33.946C164.147 34.054 164.315 34.108 164.513 34.108ZM171.818 35.0909C171.398 35.0909 171.035 34.9981 170.73 34.8125C170.427 34.625 170.193 34.3636 170.028 34.0284C169.866 33.6913 169.784 33.2992 169.784 32.8523C169.784 32.4053 169.866 32.0114 170.028 31.6705C170.193 31.3277 170.422 31.0606 170.716 30.8693C171.011 30.6761 171.356 30.5795 171.75 30.5795C171.977 30.5795 172.202 30.6174 172.423 30.6932C172.645 30.7689 172.847 30.892 173.028 31.0625C173.21 31.2311 173.355 31.4545 173.463 31.733C173.571 32.0114 173.625 32.3542 173.625 32.7614V33.0455H170.261V32.4659H172.943C172.943 32.2197 172.894 32 172.795 31.8068C172.699 31.6136 172.561 31.4612 172.381 31.3494C172.203 31.2377 171.992 31.1818 171.75 31.1818C171.483 31.1818 171.252 31.2481 171.057 31.3807C170.864 31.5114 170.715 31.6818 170.611 31.892C170.507 32.1023 170.455 32.3277 170.455 32.5682V32.9545C170.455 33.2841 170.511 33.5634 170.625 33.7926C170.741 34.0199 170.901 34.1932 171.105 34.3125C171.31 34.4299 171.547 34.4886 171.818 34.4886C171.994 34.4886 172.153 34.464 172.295 34.4148C172.439 34.3636 172.563 34.2879 172.668 34.1875C172.772 34.0852 172.852 33.9583 172.909 33.8068L173.557 33.9886C173.489 34.2083 173.374 34.4015 173.213 34.5682C173.052 34.733 172.853 34.8617 172.616 34.9545C172.38 35.0455 172.114 35.0909 171.818 35.0909ZM175.929 35.1023C175.652 35.1023 175.402 35.0502 175.176 34.946C174.951 34.84 174.772 34.6875 174.639 34.4886C174.507 34.2879 174.44 34.0455 174.44 33.7614C174.44 33.5114 174.49 33.3087 174.588 33.1534C174.687 32.9962 174.818 32.8731 174.983 32.7841C175.148 32.6951 175.33 32.6288 175.528 32.5852C175.729 32.5398 175.931 32.5038 176.134 32.4773C176.399 32.4432 176.614 32.4176 176.778 32.4006C176.945 32.3816 177.066 32.3504 177.142 32.3068C177.22 32.2633 177.259 32.1875 177.259 32.0795V32.0568C177.259 31.7765 177.182 31.5587 177.028 31.4034C176.877 31.2481 176.647 31.1705 176.338 31.1705C176.018 31.1705 175.767 31.2405 175.585 31.3807C175.403 31.5208 175.276 31.6705 175.202 31.8295L174.565 31.6023C174.679 31.3371 174.83 31.1307 175.02 30.983C175.211 30.8333 175.42 30.7292 175.645 30.6705C175.872 30.6098 176.096 30.5795 176.315 30.5795C176.455 30.5795 176.616 30.5966 176.798 30.6307C176.982 30.6629 177.159 30.7301 177.33 30.8324C177.502 30.9347 177.645 31.089 177.759 31.2955C177.872 31.5019 177.929 31.7784 177.929 32.125V35H177.259V34.4091H177.224C177.179 34.5038 177.103 34.6051 176.997 34.7131C176.891 34.821 176.75 34.9129 176.574 34.9886C176.398 35.0644 176.183 35.1023 175.929 35.1023ZM176.031 34.5C176.296 34.5 176.52 34.4479 176.702 34.3438C176.885 34.2396 177.024 34.1051 177.116 33.9403C177.211 33.7756 177.259 33.6023 177.259 33.4205V32.8068C177.23 32.8409 177.168 32.8722 177.071 32.9006C176.976 32.9271 176.866 32.9508 176.741 32.9716C176.618 32.9905 176.498 33.0076 176.381 33.0227C176.265 33.036 176.171 33.0473 176.099 33.0568C175.925 33.0795 175.762 33.1165 175.611 33.1676C175.461 33.2169 175.34 33.2917 175.247 33.392C175.156 33.4905 175.111 33.625 175.111 33.7955C175.111 34.0284 175.197 34.2045 175.369 34.3239C175.544 34.4413 175.764 34.5 176.031 34.5ZM180.925 35.0909C180.516 35.0909 180.164 34.9943 179.869 34.8011C179.573 34.608 179.346 34.3419 179.187 34.0028C179.028 33.6638 178.948 33.2765 178.948 32.8409C178.948 32.3977 179.03 32.0066 179.192 31.6676C179.357 31.3267 179.586 31.0606 179.88 30.8693C180.175 30.6761 180.52 30.5795 180.914 30.5795C181.221 30.5795 181.497 30.6364 181.744 30.75C181.99 30.8636 182.192 31.0227 182.349 31.2273C182.506 31.4318 182.603 31.6705 182.641 31.9432H181.971C181.92 31.7443 181.806 31.5682 181.63 31.4148C181.456 31.2595 181.221 31.1818 180.925 31.1818C180.664 31.1818 180.435 31.25 180.238 31.3864C180.043 31.5208 179.89 31.7112 179.781 31.9574C179.673 32.2017 179.619 32.4886 179.619 32.8182C179.619 33.1553 179.672 33.4489 179.778 33.6989C179.886 33.9489 180.037 34.143 180.232 34.2812C180.429 34.4195 180.66 34.4886 180.925 34.4886C181.1 34.4886 181.258 34.4583 181.4 34.3977C181.542 34.3371 181.662 34.25 181.761 34.1364C181.859 34.0227 181.929 33.8864 181.971 33.7273H182.641C182.603 33.9848 182.51 34.2169 182.36 34.4233C182.212 34.6278 182.016 34.7907 181.772 34.9119C181.53 35.0312 181.247 35.0909 180.925 35.0909ZM184.292 32.375V35H183.621V29.1818H184.292V31.3182H184.349C184.451 31.0928 184.604 30.9138 184.809 30.7812C185.015 30.6468 185.29 30.5795 185.633 30.5795C185.93 30.5795 186.191 30.6392 186.414 30.7585C186.638 30.8759 186.811 31.0568 186.934 31.3011C187.059 31.5436 187.121 31.8523 187.121 32.2273V35H186.451V32.2727C186.451 31.9261 186.361 31.6581 186.181 31.4688C186.003 31.2775 185.756 31.1818 185.44 31.1818C185.22 31.1818 185.023 31.2282 184.849 31.321C184.676 31.4138 184.54 31.5492 184.44 31.7273C184.341 31.9053 184.292 32.1212 184.292 32.375ZM194.166 30.6364L192.553 35H191.871L190.257 30.6364H190.984L192.189 34.1136H192.234L193.439 30.6364H194.166ZM196.202 35.1023C195.926 35.1023 195.675 35.0502 195.45 34.946C195.224 34.84 195.045 34.6875 194.913 34.4886C194.78 34.2879 194.714 34.0455 194.714 33.7614C194.714 33.5114 194.763 33.3087 194.862 33.1534C194.96 32.9962 195.092 32.8731 195.256 32.7841C195.421 32.6951 195.603 32.6288 195.802 32.5852C196.003 32.5398 196.204 32.5038 196.407 32.4773C196.672 32.4432 196.887 32.4176 197.052 32.4006C197.219 32.3816 197.34 32.3504 197.415 32.3068C197.493 32.2633 197.532 32.1875 197.532 32.0795V32.0568C197.532 31.7765 197.455 31.5587 197.302 31.4034C197.15 31.2481 196.92 31.1705 196.612 31.1705C196.291 31.1705 196.04 31.2405 195.859 31.3807C195.677 31.5208 195.549 31.6705 195.475 31.8295L194.839 31.6023C194.952 31.3371 195.104 31.1307 195.293 30.983C195.485 30.8333 195.693 30.7292 195.918 30.6705C196.146 30.6098 196.369 30.5795 196.589 30.5795C196.729 30.5795 196.89 30.5966 197.072 30.6307C197.255 30.6629 197.433 30.7301 197.603 30.8324C197.775 30.9347 197.918 31.089 198.032 31.2955C198.146 31.5019 198.202 31.7784 198.202 32.125V35H197.532V34.4091H197.498C197.452 34.5038 197.377 34.6051 197.271 34.7131C197.165 34.821 197.023 34.9129 196.847 34.9886C196.671 35.0644 196.456 35.1023 196.202 35.1023ZM196.305 34.5C196.57 34.5 196.793 34.4479 196.975 34.3438C197.159 34.2396 197.297 34.1051 197.39 33.9403C197.485 33.7756 197.532 33.6023 197.532 33.4205V32.8068C197.504 32.8409 197.441 32.8722 197.344 32.9006C197.25 32.9271 197.14 32.9508 197.015 32.9716C196.892 32.9905 196.772 33.0076 196.654 33.0227C196.539 33.036 196.445 33.0473 196.373 33.0568C196.199 33.0795 196.036 33.1165 195.884 33.1676C195.735 33.2169 195.613 33.2917 195.521 33.392C195.43 33.4905 195.384 33.625 195.384 33.7955C195.384 34.0284 195.47 34.2045 195.643 34.3239C195.817 34.4413 196.038 34.5 196.305 34.5ZM200.097 29.1818V35H199.426V29.1818H200.097ZM204.075 33.2159V30.6364H204.745V35H204.075V34.2614H204.029C203.927 34.483 203.768 34.6714 203.552 34.8267C203.336 34.9801 203.063 35.0568 202.734 35.0568C202.461 35.0568 202.219 34.9972 202.006 34.8778C201.794 34.7566 201.628 34.5748 201.506 34.3324C201.385 34.0881 201.325 33.7803 201.325 33.4091V30.6364H201.995V33.3636C201.995 33.6818 202.084 33.9356 202.262 34.125C202.442 34.3144 202.671 34.4091 202.95 34.4091C203.116 34.4091 203.286 34.3665 203.458 34.2812C203.632 34.196 203.778 34.0653 203.896 33.8892C204.015 33.7131 204.075 33.4886 204.075 33.2159ZM207.803 35.0909C207.382 35.0909 207.019 34.9981 206.714 34.8125C206.411 34.625 206.178 34.3636 206.013 34.0284C205.85 33.6913 205.768 33.2992 205.768 32.8523C205.768 32.4053 205.85 32.0114 206.013 31.6705C206.178 31.3277 206.407 31.0606 206.7 30.8693C206.996 30.6761 207.34 30.5795 207.734 30.5795C207.962 30.5795 208.186 30.6174 208.408 30.6932C208.629 30.7689 208.831 30.892 209.013 31.0625C209.195 31.2311 209.339 31.4545 209.447 31.733C209.555 32.0114 209.609 32.3542 209.609 32.7614V33.0455H206.246V32.4659H208.928C208.928 32.2197 208.878 32 208.78 31.8068C208.683 31.6136 208.545 31.4612 208.365 31.3494C208.187 31.2377 207.977 31.1818 207.734 31.1818C207.467 31.1818 207.236 31.2481 207.041 31.3807C206.848 31.5114 206.699 31.6818 206.595 31.892C206.491 32.1023 206.439 32.3277 206.439 32.5682V32.9545C206.439 33.2841 206.496 33.5634 206.609 33.7926C206.725 34.0199 206.885 34.1932 207.089 34.3125C207.294 34.4299 207.532 34.4886 207.803 34.4886C207.979 34.4886 208.138 34.464 208.28 34.4148C208.424 34.3636 208.548 34.2879 208.652 34.1875C208.756 34.0852 208.837 33.9583 208.893 33.8068L209.541 33.9886C209.473 34.2083 209.358 34.4015 209.197 34.5682C209.036 34.733 208.838 34.8617 208.601 34.9545C208.364 35.0455 208.098 35.0909 207.803 35.0909ZM156.493 43.2159V40.6364H157.163V45H156.493V44.2614H156.447C156.345 44.483 156.186 44.6714 155.97 44.8267C155.754 44.9801 155.481 45.0568 155.152 45.0568C154.879 45.0568 154.636 44.9972 154.424 44.8778C154.212 44.7566 154.046 44.5748 153.924 44.3324C153.803 44.0881 153.743 43.7803 153.743 43.4091V40.6364H154.413V43.3636C154.413 43.6818 154.502 43.9356 154.68 44.125C154.86 44.3144 155.089 44.4091 155.368 44.4091C155.534 44.4091 155.704 44.3665 155.876 44.2812C156.05 44.196 156.196 44.0653 156.314 43.8892C156.433 43.7131 156.493 43.4886 156.493 43.2159ZM159.061 42.375V45H158.391V40.6364H159.039V41.3182H159.096C159.198 41.0966 159.353 40.9186 159.561 40.7841C159.77 40.6477 160.039 40.5795 160.368 40.5795C160.664 40.5795 160.922 40.6402 161.144 40.7614C161.365 40.8807 161.538 41.0625 161.661 41.3068C161.784 41.5492 161.846 41.8561 161.846 42.2273V45H161.175V42.2727C161.175 41.9299 161.086 41.6629 160.908 41.4716C160.73 41.2784 160.486 41.1818 160.175 41.1818C159.961 41.1818 159.77 41.2282 159.601 41.321C159.435 41.4138 159.303 41.5492 159.206 41.7273C159.11 41.9053 159.061 42.1212 159.061 42.375ZM164.968 40.6364V41.2045H162.707V40.6364H164.968ZM163.366 39.5909H164.037V43.75C164.037 43.9394 164.064 44.0814 164.119 44.1761C164.176 44.2689 164.248 44.3314 164.335 44.3636C164.424 44.3939 164.518 44.4091 164.616 44.4091C164.69 44.4091 164.751 44.4053 164.798 44.3977C164.845 44.3883 164.883 44.3807 164.912 44.375L165.048 44.9773C165.002 44.9943 164.939 45.0114 164.858 45.0284C164.776 45.0473 164.673 45.0568 164.548 45.0568C164.359 45.0568 164.173 45.0161 163.991 44.9347C163.811 44.8532 163.662 44.7292 163.542 44.5625C163.425 44.3958 163.366 44.1856 163.366 43.9318V39.5909ZM165.977 45V40.6364H166.647V45H165.977ZM166.318 39.9091C166.187 39.9091 166.074 39.8646 165.98 39.7756C165.887 39.6866 165.841 39.5795 165.841 39.4545C165.841 39.3295 165.887 39.2225 165.98 39.1335C166.074 39.0445 166.187 39 166.318 39C166.449 39 166.56 39.0445 166.653 39.1335C166.748 39.2225 166.795 39.3295 166.795 39.4545C166.795 39.5795 166.748 39.6866 166.653 39.7756C166.56 39.8646 166.449 39.9091 166.318 39.9091ZM168.546 39.1818V45H167.875V39.1818H168.546ZM173.012 45L171.683 40.6364H172.387L173.331 43.9773H173.376L174.308 40.6364H175.024L175.944 43.9659H175.99L176.933 40.6364H177.637L176.308 45H175.649L174.694 41.6477H174.626L173.672 45H173.012ZM180.205 45.0909C179.784 45.0909 179.422 44.9981 179.117 44.8125C178.814 44.625 178.58 44.3636 178.415 44.0284C178.252 43.6913 178.171 43.2992 178.171 42.8523C178.171 42.4053 178.252 42.0114 178.415 41.6705C178.58 41.3277 178.809 41.0606 179.103 40.8693C179.398 40.6761 179.743 40.5795 180.137 40.5795C180.364 40.5795 180.588 40.6174 180.81 40.6932C181.032 40.7689 181.233 40.892 181.415 41.0625C181.597 41.2311 181.742 41.4545 181.85 41.733C181.958 42.0114 182.012 42.3542 182.012 42.7614V43.0455H178.648V42.4659H181.33C181.33 42.2197 181.281 42 181.182 41.8068C181.086 41.6136 180.947 41.4612 180.767 41.3494C180.589 41.2377 180.379 41.1818 180.137 41.1818C179.87 41.1818 179.639 41.2481 179.444 41.3807C179.25 41.5114 179.102 41.6818 178.998 41.892C178.893 42.1023 178.841 42.3277 178.841 42.5682V42.9545C178.841 43.2841 178.898 43.5634 179.012 43.7926C179.127 44.0199 179.287 44.1932 179.492 44.3125C179.696 44.4299 179.934 44.4886 180.205 44.4886C180.381 44.4886 180.54 44.464 180.682 44.4148C180.826 44.3636 180.95 44.2879 181.054 44.1875C181.158 44.0852 181.239 43.9583 181.296 43.8068L181.944 43.9886C181.875 44.2083 181.761 44.4015 181.6 44.5682C181.439 44.733 181.24 44.8617 181.003 44.9545C180.766 45.0455 180.5 45.0909 180.205 45.0909ZM185.282 45V40.6364H185.929V41.2955H185.975C186.054 41.0795 186.198 40.9044 186.407 40.7699C186.615 40.6354 186.85 40.5682 187.111 40.5682C187.16 40.5682 187.222 40.5691 187.296 40.571C187.37 40.5729 187.426 40.5758 187.463 40.5795V41.2614C187.441 41.2557 187.389 41.2472 187.307 41.2358C187.228 41.2225 187.143 41.2159 187.054 41.2159C186.842 41.2159 186.653 41.2604 186.486 41.3494C186.321 41.4366 186.191 41.5578 186.094 41.7131C185.999 41.8665 185.952 42.0417 185.952 42.2386V45H185.282ZM189.955 45.0909C189.534 45.0909 189.172 44.9981 188.867 44.8125C188.564 44.625 188.33 44.3636 188.165 44.0284C188.002 43.6913 187.921 43.2992 187.921 42.8523C187.921 42.4053 188.002 42.0114 188.165 41.6705C188.33 41.3277 188.559 41.0606 188.853 40.8693C189.148 40.6761 189.493 40.5795 189.887 40.5795C190.114 40.5795 190.338 40.6174 190.56 40.6932C190.782 40.7689 190.983 40.892 191.165 41.0625C191.347 41.2311 191.492 41.4545 191.6 41.733C191.708 42.0114 191.762 42.3542 191.762 42.7614V43.0455H188.398V42.4659H191.08C191.08 42.2197 191.031 42 190.932 41.8068C190.836 41.6136 190.697 41.4612 190.517 41.3494C190.339 41.2377 190.129 41.1818 189.887 41.1818C189.62 41.1818 189.389 41.2481 189.194 41.3807C189 41.5114 188.852 41.6818 188.748 41.892C188.643 42.1023 188.591 42.3277 188.591 42.5682V42.9545C188.591 43.2841 188.648 43.5634 188.762 43.7926C188.877 44.0199 189.037 44.1932 189.242 44.3125C189.446 44.4299 189.684 44.4886 189.955 44.4886C190.131 44.4886 190.29 44.464 190.432 44.4148C190.576 44.3636 190.7 44.2879 190.804 44.1875C190.908 44.0852 190.989 43.9583 191.046 43.8068L191.694 43.9886C191.625 44.2083 191.511 44.4015 191.35 44.5682C191.189 44.733 190.99 44.8617 190.753 44.9545C190.516 45.0455 190.25 45.0909 189.955 45.0909ZM194.066 45.1023C193.789 45.1023 193.538 45.0502 193.313 44.946C193.087 44.84 192.908 44.6875 192.776 44.4886C192.643 44.2879 192.577 44.0455 192.577 43.7614C192.577 43.5114 192.626 43.3087 192.725 43.1534C192.823 42.9962 192.955 42.8731 193.12 42.7841C193.284 42.6951 193.466 42.6288 193.665 42.5852C193.866 42.5398 194.068 42.5038 194.27 42.4773C194.535 42.4432 194.75 42.4176 194.915 42.4006C195.082 42.3816 195.203 42.3504 195.279 42.3068C195.356 42.2633 195.395 42.1875 195.395 42.0795V42.0568C195.395 41.7765 195.319 41.5587 195.165 41.4034C195.014 41.2481 194.783 41.1705 194.475 41.1705C194.155 41.1705 193.904 41.2405 193.722 41.3807C193.54 41.5208 193.412 41.6705 193.338 41.8295L192.702 41.6023C192.816 41.3371 192.967 41.1307 193.157 40.983C193.348 40.8333 193.556 40.7292 193.782 40.6705C194.009 40.6098 194.232 40.5795 194.452 40.5795C194.592 40.5795 194.753 40.5966 194.935 40.6307C195.119 40.6629 195.296 40.7301 195.466 40.8324C195.639 40.9347 195.782 41.089 195.895 41.2955C196.009 41.5019 196.066 41.7784 196.066 42.125V45H195.395V44.4091H195.361C195.316 44.5038 195.24 44.6051 195.134 44.7131C195.028 44.821 194.887 44.9129 194.711 44.9886C194.534 45.0644 194.319 45.1023 194.066 45.1023ZM194.168 44.5C194.433 44.5 194.657 44.4479 194.838 44.3438C195.022 44.2396 195.16 44.1051 195.253 43.9403C195.348 43.7756 195.395 43.6023 195.395 43.4205V42.8068C195.367 42.8409 195.304 42.8722 195.208 42.9006C195.113 42.9271 195.003 42.9508 194.878 42.9716C194.755 42.9905 194.635 43.0076 194.517 43.0227C194.402 43.036 194.308 43.0473 194.236 43.0568C194.062 43.0795 193.899 43.1165 193.748 43.1676C193.598 43.2169 193.477 43.2917 193.384 43.392C193.293 43.4905 193.248 43.625 193.248 43.7955C193.248 44.0284 193.334 44.2045 193.506 44.3239C193.68 44.4413 193.901 44.5 194.168 44.5ZM199.062 45.0909C198.653 45.0909 198.301 44.9943 198.005 44.8011C197.71 44.608 197.483 44.3419 197.324 44.0028C197.164 43.6638 197.085 43.2765 197.085 42.8409C197.085 42.3977 197.166 42.0066 197.329 41.6676C197.494 41.3267 197.723 41.0606 198.017 40.8693C198.312 40.6761 198.657 40.5795 199.051 40.5795C199.358 40.5795 199.634 40.6364 199.88 40.75C200.127 40.8636 200.328 41.0227 200.485 41.2273C200.643 41.4318 200.74 41.6705 200.778 41.9432H200.108C200.056 41.7443 199.943 41.5682 199.767 41.4148C199.592 41.2595 199.358 41.1818 199.062 41.1818C198.801 41.1818 198.572 41.25 198.375 41.3864C198.18 41.5208 198.027 41.7112 197.917 41.9574C197.809 42.2017 197.755 42.4886 197.755 42.8182C197.755 43.1553 197.808 43.4489 197.914 43.6989C198.022 43.9489 198.174 44.143 198.369 44.2812C198.566 44.4195 198.797 44.4886 199.062 44.4886C199.236 44.4886 199.395 44.4583 199.537 44.3977C199.679 44.3371 199.799 44.25 199.897 44.1364C199.996 44.0227 200.066 43.8864 200.108 43.7273H200.778C200.74 43.9848 200.646 44.2169 200.497 44.4233C200.349 44.6278 200.153 44.7907 199.909 44.9119C199.666 45.0312 199.384 45.0909 199.062 45.0909ZM202.429 42.375V45H201.758V39.1818H202.429V41.3182H202.485C202.588 41.0928 202.741 40.9138 202.946 40.7812C203.152 40.6468 203.427 40.5795 203.77 40.5795C204.067 40.5795 204.327 40.6392 204.551 40.7585C204.774 40.8759 204.948 41.0568 205.071 41.3011C205.196 41.5436 205.258 41.8523 205.258 42.2273V45H204.588V42.2727C204.588 41.9261 204.498 41.6581 204.318 41.4688C204.14 41.2775 203.893 41.1818 203.576 41.1818C203.357 41.1818 203.16 41.2282 202.985 41.321C202.813 41.4138 202.677 41.5492 202.576 41.7273C202.478 41.9053 202.429 42.1212 202.429 42.375ZM166.738 55.1023C166.461 55.1023 166.21 55.0502 165.985 54.946C165.759 54.84 165.58 54.6875 165.448 54.4886C165.315 54.2879 165.249 54.0455 165.249 53.7614C165.249 53.5114 165.298 53.3087 165.397 53.1534C165.495 52.9962 165.627 52.8731 165.792 52.7841C165.956 52.6951 166.138 52.6288 166.337 52.5852C166.538 52.5398 166.739 52.5038 166.942 52.4773C167.207 52.4432 167.422 52.4176 167.587 52.4006C167.754 52.3816 167.875 52.3504 167.951 52.3068C168.028 52.2633 168.067 52.1875 168.067 52.0795V52.0568C168.067 51.7765 167.99 51.5587 167.837 51.4034C167.685 51.2481 167.455 51.1705 167.147 51.1705C166.827 51.1705 166.576 51.2405 166.394 51.3807C166.212 51.5208 166.084 51.6705 166.01 51.8295L165.374 51.6023C165.488 51.3371 165.639 51.1307 165.828 50.983C166.02 50.8333 166.228 50.7292 166.453 50.6705C166.681 50.6098 166.904 50.5795 167.124 50.5795C167.264 50.5795 167.425 50.5966 167.607 50.6307C167.791 50.6629 167.968 50.7301 168.138 50.8324C168.31 50.9347 168.453 51.089 168.567 51.2955C168.681 51.5019 168.738 51.7784 168.738 52.125V55H168.067V54.4091H168.033C167.988 54.5038 167.912 54.6051 167.806 54.7131C167.7 54.821 167.559 54.9129 167.382 54.9886C167.206 55.0644 166.991 55.1023 166.738 55.1023ZM166.84 54.5C167.105 54.5 167.328 54.4479 167.51 54.3438C167.694 54.2396 167.832 54.1051 167.925 53.9403C168.02 53.7756 168.067 53.6023 168.067 53.4205V52.8068C168.039 52.8409 167.976 52.8722 167.88 52.9006C167.785 52.9271 167.675 52.9508 167.55 52.9716C167.427 52.9905 167.307 53.0076 167.189 53.0227C167.074 53.036 166.98 53.0473 166.908 53.0568C166.734 53.0795 166.571 53.1165 166.419 53.1676C166.27 53.2169 166.149 53.2917 166.056 53.392C165.965 53.4905 165.919 53.625 165.919 53.7955C165.919 54.0284 166.006 54.2045 166.178 54.3239C166.352 54.4413 166.573 54.5 166.84 54.5ZM170.632 52.375V55H169.961V50.6364H170.609V51.3182H170.666C170.768 51.0966 170.923 50.9186 171.132 50.7841C171.34 50.6477 171.609 50.5795 171.939 50.5795C172.234 50.5795 172.493 50.6402 172.714 50.7614C172.936 50.8807 173.108 51.0625 173.231 51.3068C173.354 51.5492 173.416 51.8561 173.416 52.2273V55H172.745V52.2727C172.745 51.9299 172.656 51.6629 172.478 51.4716C172.3 51.2784 172.056 51.1818 171.745 51.1818C171.531 51.1818 171.34 51.2282 171.172 51.321C171.005 51.4138 170.873 51.5492 170.777 51.7273C170.68 51.9053 170.632 52.1212 170.632 52.375ZM176.414 55.0909C176.02 55.0909 175.674 54.9972 175.377 54.8097C175.081 54.6222 174.85 54.3598 174.684 54.0227C174.519 53.6856 174.436 53.2917 174.436 52.8409C174.436 52.3864 174.519 51.9896 174.684 51.6506C174.85 51.3116 175.081 51.0483 175.377 50.8608C175.674 50.6733 176.02 50.5795 176.414 50.5795C176.808 50.5795 177.152 50.6733 177.448 50.8608C177.745 51.0483 177.976 51.3116 178.141 51.6506C178.308 51.9896 178.391 52.3864 178.391 52.8409C178.391 53.2917 178.308 53.6856 178.141 54.0227C177.976 54.3598 177.745 54.6222 177.448 54.8097C177.152 54.9972 176.808 55.0909 176.414 55.0909ZM176.414 54.4886C176.713 54.4886 176.959 54.4119 177.152 54.2585C177.346 54.1051 177.489 53.9034 177.581 53.6534C177.674 53.4034 177.721 53.1326 177.721 52.8409C177.721 52.5492 177.674 52.2775 177.581 52.0256C177.489 51.7737 177.346 51.5701 177.152 51.4148C176.959 51.2595 176.713 51.1818 176.414 51.1818C176.114 51.1818 175.868 51.2595 175.675 51.4148C175.482 51.5701 175.339 51.7737 175.246 52.0256C175.153 52.2775 175.107 52.5492 175.107 52.8409C175.107 53.1326 175.153 53.4034 175.246 53.6534C175.339 53.9034 175.482 54.1051 175.675 54.2585C175.868 54.4119 176.114 54.4886 176.414 54.4886ZM181.312 50.6364V51.2045H179.051V50.6364H181.312ZM179.71 49.5909H180.38V53.75C180.38 53.9394 180.408 54.0814 180.463 54.1761C180.52 54.2689 180.592 54.3314 180.679 54.3636C180.768 54.3939 180.861 54.4091 180.96 54.4091C181.034 54.4091 181.094 54.4053 181.142 54.3977C181.189 54.3883 181.227 54.3807 181.255 54.375L181.392 54.9773C181.346 54.9943 181.283 55.0114 181.201 55.0284C181.12 55.0473 181.017 55.0568 180.892 55.0568C180.702 55.0568 180.517 55.0161 180.335 54.9347C180.155 54.8532 180.005 54.7292 179.886 54.5625C179.769 54.3958 179.71 54.1856 179.71 53.9318V49.5909ZM183.085 52.375V55H182.414V49.1818H183.085V51.3182H183.142C183.244 51.0928 183.397 50.9138 183.602 50.7812C183.808 50.6468 184.083 50.5795 184.426 50.5795C184.723 50.5795 184.984 50.6392 185.207 50.7585C185.431 50.8759 185.604 51.0568 185.727 51.3011C185.852 51.5436 185.914 51.8523 185.914 52.2273V55H185.244V52.2727C185.244 51.9261 185.154 51.6581 184.974 51.4688C184.796 51.2775 184.549 51.1818 184.233 51.1818C184.013 51.1818 183.816 51.2282 183.642 51.321C183.469 51.4138 183.333 51.5492 183.233 51.7273C183.134 51.9053 183.085 52.1212 183.085 52.375ZM188.971 55.0909C188.55 55.0909 188.187 54.9981 187.882 54.8125C187.579 54.625 187.346 54.3636 187.181 54.0284C187.018 53.6913 186.936 53.2992 186.936 52.8523C186.936 52.4053 187.018 52.0114 187.181 51.6705C187.346 51.3277 187.575 51.0606 187.868 50.8693C188.164 50.6761 188.508 50.5795 188.902 50.5795C189.13 50.5795 189.354 50.6174 189.576 50.6932C189.797 50.7689 189.999 50.892 190.181 51.0625C190.363 51.2311 190.507 51.4545 190.615 51.733C190.723 52.0114 190.777 52.3542 190.777 52.7614V53.0455H187.414V52.4659H190.096C190.096 52.2197 190.046 52 189.948 51.8068C189.851 51.6136 189.713 51.4612 189.533 51.3494C189.355 51.2377 189.145 51.1818 188.902 51.1818C188.635 51.1818 188.404 51.2481 188.209 51.3807C188.016 51.5114 187.867 51.6818 187.763 51.892C187.659 52.1023 187.607 52.3277 187.607 52.5682V52.9545C187.607 53.2841 187.664 53.5634 187.777 53.7926C187.893 54.0199 188.053 54.1932 188.257 54.3125C188.462 54.4299 188.7 54.4886 188.971 54.4886C189.147 54.4886 189.306 54.464 189.448 54.4148C189.592 54.3636 189.716 54.2879 189.82 54.1875C189.924 54.0852 190.005 53.9583 190.061 53.8068L190.709 53.9886C190.641 54.2083 190.526 54.4015 190.365 54.5682C190.204 54.733 190.006 54.8617 189.769 54.9545C189.532 55.0455 189.266 55.0909 188.971 55.0909ZM191.797 55V50.6364H192.445V51.2955H192.49C192.57 51.0795 192.714 50.9044 192.922 50.7699C193.131 50.6354 193.365 50.5682 193.627 50.5682C193.676 50.5682 193.738 50.5691 193.811 50.571C193.885 50.5729 193.941 50.5758 193.979 50.5795V51.2614C193.956 51.2557 193.904 51.2472 193.823 51.2358C193.743 51.2225 193.659 51.2159 193.57 51.2159C193.358 51.2159 193.168 51.2604 193.002 51.3494C192.837 51.4366 192.706 51.5578 192.61 51.7131C192.515 51.8665 192.468 52.0417 192.468 52.2386V55H191.797Z" fill="#505050"/>
<line x1="9.5" y1="33" x2="9.5" y2="92" stroke="#505050"/>
<line x1="149" y1="92.5" x2="4" y2="92.5" stroke="#505050"/>
<line x1="39.5" y1="47" x2="39.5" y2="92" stroke="#6B6B6B" stroke-dasharray="2 2"/>
<line x1="68.5" y1="65" x2="68.5" y2="92" stroke="#6B6B6B" stroke-dasharray="2 2"/>
<line x1="99.5" y1="52" x2="99.5" y2="92" stroke="#6B6B6B" stroke-dasharray="2 2"/>
<line x1="129.5" y1="62" x2="129.5" y2="92" stroke="#6B6B6B" stroke-dasharray="2 2"/>
<circle cx="39.5" cy="47.5" r="3.5" fill="#BE3B3B"/>
<circle cx="9.5" cy="58.5" r="3.5" fill="#BE3B3B"/>
<circle cx="68.5" cy="65.5" r="3.5" fill="#BE3B3B"/>
<circle cx="99.5" cy="51.5" r="3.5" fill="#BE3B3B"/>
<circle cx="129.5" cy="62.5" r="3.5" fill="#BE3B3B"/>
<path d="M266.926 18.3636C266.926 17.4687 267.042 16.6461 267.274 15.8956C267.508 15.1428 267.842 14.4503 268.275 13.8182H269.014C268.843 14.0526 268.684 14.3414 268.534 14.6847C268.388 15.0256 268.259 15.4008 268.147 15.8104C268.036 16.2176 267.948 16.639 267.884 17.0746C267.823 17.5102 267.792 17.9399 267.792 18.3636C267.792 18.9271 267.847 19.4988 267.956 20.0788C268.064 20.6589 268.211 21.1974 268.396 21.6946C268.581 22.1918 268.786 22.5966 269.014 22.9091H268.275C267.842 22.277 267.508 21.5857 267.274 20.8352C267.042 20.0824 266.926 19.2585 266.926 18.3636ZM296.073 18.9318C296.073 19.8267 295.956 20.6506 295.722 21.4034C295.49 22.1539 295.157 22.8452 294.724 23.4773H293.985C294.156 23.2429 294.314 22.9541 294.461 22.6108C294.61 22.2699 294.741 21.8958 294.852 21.4886C294.963 21.0791 295.05 20.6565 295.111 20.2209C295.175 19.7829 295.207 19.3532 295.207 18.9318C295.207 18.3684 295.152 17.7966 295.044 17.2166C294.935 16.6366 294.788 16.098 294.603 15.6009C294.419 15.1037 294.213 14.6989 293.985 14.3864H294.724C295.157 15.0185 295.49 15.7109 295.722 16.4638C295.956 17.2143 296.073 18.0369 296.073 18.9318Z" fill="#505050"/>
<path d="M271.245 14.7273V22H270.364V14.7273H271.245ZM273.735 18.7188V22H272.897V16.5455H273.707V17.3977H273.778C273.905 17.1207 274.1 16.8982 274.36 16.7301C274.62 16.5597 274.957 16.4744 275.369 16.4744C275.738 16.4744 276.061 16.5502 276.338 16.7017C276.615 16.8509 276.83 17.0781 276.984 17.3835C277.138 17.6866 277.215 18.0701 277.215 18.5341V22H276.377V18.5909C276.377 18.1624 276.266 17.8286 276.043 17.5895C275.821 17.348 275.515 17.2273 275.127 17.2273C274.86 17.2273 274.62 17.2853 274.41 17.4013C274.201 17.5173 274.037 17.6866 273.916 17.9091C273.795 18.1316 273.735 18.4015 273.735 18.7188ZM278.747 24.0455V16.5455H279.556V17.4119H279.656C279.717 17.3172 279.802 17.1965 279.911 17.0497C280.023 16.9006 280.181 16.768 280.387 16.652C280.595 16.5336 280.877 16.4744 281.232 16.4744C281.692 16.4744 282.096 16.5893 282.447 16.8189C282.797 17.0485 283.071 17.3741 283.267 17.7955C283.464 18.2169 283.562 18.714 283.562 19.2869C283.562 19.8646 283.464 20.3653 283.267 20.7891C283.071 21.2105 282.798 21.5372 282.45 21.7692C282.102 21.9988 281.701 22.1136 281.247 22.1136C280.896 22.1136 280.616 22.0556 280.405 21.9396C280.194 21.8213 280.032 21.6875 279.918 21.5384C279.805 21.3868 279.717 21.2614 279.656 21.1619H279.585V24.0455H278.747ZM279.57 19.2727C279.57 19.6847 279.631 20.0481 279.752 20.3629C279.872 20.6754 280.049 20.9205 280.281 21.098C280.513 21.2732 280.797 21.3608 281.133 21.3608C281.483 21.3608 281.776 21.2685 282.01 21.0838C282.247 20.8968 282.424 20.6458 282.543 20.331C282.663 20.0137 282.724 19.661 282.724 19.2727C282.724 18.8892 282.665 18.5436 282.546 18.2358C282.43 17.9257 282.254 17.6806 282.017 17.5007C281.783 17.3184 281.488 17.2273 281.133 17.2273C280.792 17.2273 280.506 17.3137 280.274 17.4865C280.042 17.657 279.866 17.8961 279.748 18.2038C279.63 18.5092 279.57 18.8655 279.57 19.2727ZM288.278 19.7699V16.5455H289.116V22H288.278V21.0767H288.221C288.093 21.3537 287.894 21.5893 287.624 21.7834C287.354 21.9751 287.014 22.071 286.602 22.071C286.261 22.071 285.958 21.9964 285.693 21.8473C285.427 21.6958 285.219 21.4685 285.068 21.1655C284.916 20.8601 284.84 20.4754 284.84 20.0114V16.5455H285.678V19.9545C285.678 20.3523 285.79 20.6695 286.012 20.9062C286.237 21.143 286.524 21.2614 286.872 21.2614C287.08 21.2614 287.292 21.2081 287.507 21.1016C287.725 20.995 287.907 20.8317 288.054 20.6115C288.203 20.3913 288.278 20.1108 288.278 19.7699ZM293.023 16.5455V17.2557H290.196V16.5455H293.023ZM291.02 15.2386H291.858V20.4375C291.858 20.6742 291.893 20.8518 291.961 20.9702C292.032 21.0862 292.122 21.1643 292.231 21.2045C292.342 21.2424 292.46 21.2614 292.583 21.2614C292.675 21.2614 292.751 21.2566 292.81 21.2472C292.869 21.2353 292.916 21.2259 292.952 21.2188L293.122 21.9716C293.066 21.9929 292.986 22.0142 292.884 22.0355C292.783 22.0592 292.654 22.071 292.497 22.071C292.261 22.071 292.029 22.0201 291.801 21.9183C291.576 21.8165 291.389 21.6615 291.24 21.4531C291.094 21.2448 291.02 20.982 291.02 20.6648V15.2386Z" fill="#BE3B3B"/>
<path d="M272.901 107.672V106.727H278.53V107.672H276.261V114H275.167V107.672H272.901ZM279.688 114V108.545H280.75V114H279.688ZM280.225 107.704C280.04 107.704 279.881 107.642 279.749 107.519C279.619 107.394 279.553 107.245 279.553 107.072C279.553 106.897 279.619 106.747 279.749 106.624C279.881 106.499 280.04 106.436 280.225 106.436C280.409 106.436 280.567 106.499 280.697 106.624C280.829 106.747 280.896 106.897 280.896 107.072C280.896 107.245 280.829 107.394 280.697 107.519C280.567 107.642 280.409 107.704 280.225 107.704ZM282.179 114V108.545H283.198V109.433H283.265C283.379 109.133 283.565 108.898 283.823 108.73C284.081 108.56 284.39 108.474 284.75 108.474C285.114 108.474 285.42 108.56 285.666 108.73C285.914 108.901 286.098 109.135 286.216 109.433H286.273C286.403 109.142 286.61 108.91 286.895 108.737C287.179 108.562 287.517 108.474 287.91 108.474C288.405 108.474 288.809 108.629 289.121 108.94C289.436 109.25 289.593 109.717 289.593 110.342V114H288.532V110.442C288.532 110.072 288.431 109.805 288.23 109.639C288.029 109.473 287.788 109.391 287.509 109.391C287.163 109.391 286.895 109.497 286.703 109.71C286.511 109.921 286.415 110.192 286.415 110.523V114H285.357V110.374C285.357 110.078 285.265 109.84 285.08 109.661C284.895 109.481 284.655 109.391 284.359 109.391C284.158 109.391 283.972 109.444 283.801 109.55C283.633 109.655 283.497 109.8 283.393 109.987C283.291 110.174 283.24 110.391 283.24 110.637V114H282.179ZM293.367 114.11C292.83 114.11 292.367 113.995 291.979 113.766C291.593 113.534 291.295 113.208 291.084 112.789C290.876 112.368 290.771 111.874 290.771 111.308C290.771 110.75 290.876 110.257 291.084 109.831C291.295 109.405 291.588 109.072 291.965 108.833C292.343 108.594 292.786 108.474 293.293 108.474C293.601 108.474 293.899 108.525 294.188 108.627C294.477 108.729 294.736 108.889 294.965 109.107C295.195 109.324 295.376 109.607 295.509 109.955C295.641 110.301 295.708 110.721 295.708 111.216V111.592H291.372V110.797H294.667C294.667 110.518 294.61 110.27 294.497 110.055C294.383 109.837 294.223 109.665 294.017 109.54C293.814 109.414 293.575 109.352 293.3 109.352C293.002 109.352 292.741 109.425 292.519 109.572C292.298 109.716 292.128 109.906 292.007 110.14C291.889 110.372 291.83 110.624 291.83 110.896V111.518C291.83 111.882 291.894 112.192 292.021 112.448C292.152 112.704 292.333 112.899 292.565 113.034C292.797 113.167 293.068 113.233 293.378 113.233C293.579 113.233 293.763 113.205 293.928 113.148C294.094 113.089 294.237 113.001 294.358 112.885C294.479 112.769 294.571 112.626 294.635 112.455L295.64 112.636C295.56 112.932 295.415 113.192 295.207 113.414C295.001 113.634 294.742 113.806 294.429 113.929C294.119 114.05 293.765 114.11 293.367 114.11ZM302.533 108.545L302.394 109.398H299.415L299.553 108.545H302.533ZM300.566 107.239H301.627L300.768 112.398C300.735 112.604 300.741 112.759 300.786 112.864C300.831 112.965 300.899 113.035 300.992 113.073C301.086 113.109 301.192 113.126 301.308 113.126C301.393 113.126 301.468 113.121 301.531 113.109C301.595 113.097 301.646 113.087 301.684 113.08L301.741 113.957C301.67 113.981 301.574 114.005 301.453 114.028C301.335 114.054 301.191 114.069 301.02 114.071C300.741 114.076 300.489 114.026 300.264 113.922C300.039 113.815 299.871 113.654 299.759 113.439C299.648 113.221 299.621 112.948 299.678 112.619L300.566 107.239Z" fill="#505050"/>
<path d="M226 102.08C225.572 102.08 225.207 101.963 224.906 101.73C224.605 101.495 224.375 101.155 224.216 100.71C224.057 100.263 223.977 99.7235 223.977 99.0909C223.977 98.4621 224.057 97.9252 224.216 97.4801C224.377 97.0331 224.608 96.6922 224.909 96.4574C225.212 96.2206 225.576 96.1023 226 96.1023C226.424 96.1023 226.787 96.2206 227.088 96.4574C227.391 96.6922 227.622 97.0331 227.781 97.4801C227.942 97.9252 228.023 98.4621 228.023 99.0909C228.023 99.7235 227.943 100.263 227.784 100.71C227.625 101.155 227.395 101.495 227.094 101.73C226.793 101.963 226.428 102.08 226 102.08ZM226 101.455C226.424 101.455 226.754 101.25 226.989 100.841C227.223 100.432 227.341 99.8485 227.341 99.0909C227.341 98.5871 227.287 98.1581 227.179 97.804C227.073 97.4498 226.92 97.1799 226.719 96.9943C226.52 96.8087 226.28 96.7159 226 96.7159C225.58 96.7159 225.251 96.9233 225.014 97.3381C224.777 97.7509 224.659 98.3352 224.659 99.0909C224.659 99.5947 224.712 100.023 224.818 100.375C224.924 100.727 225.077 100.995 225.276 101.179C225.476 101.363 225.718 101.455 226 101.455Z" fill="#505050"/>
<path d="M256.788 96.1818V102H256.084V96.9205H256.05L254.629 97.8636V97.1477L256.084 96.1818H256.788Z" fill="#505050"/>
<path d="M284.18 102V101.489L286.101 99.3864C286.326 99.1402 286.512 98.9261 286.658 98.7443C286.804 98.5606 286.911 98.3883 286.982 98.2273C287.054 98.0644 287.089 97.8939 287.089 97.7159C287.089 97.5114 287.04 97.3343 286.942 97.1847C286.845 97.035 286.713 96.9195 286.544 96.8381C286.375 96.7566 286.186 96.7159 285.976 96.7159C285.752 96.7159 285.557 96.7623 285.391 96.8551C285.226 96.946 285.098 97.0739 285.007 97.2386C284.918 97.4034 284.874 97.5966 284.874 97.8182H284.203C284.203 97.4773 284.282 97.178 284.439 96.9205C284.596 96.6629 284.81 96.4621 285.081 96.3182C285.354 96.1742 285.66 96.1023 285.999 96.1023C286.339 96.1023 286.642 96.1742 286.905 96.3182C287.168 96.4621 287.375 96.6562 287.524 96.9006C287.674 97.1449 287.749 97.4167 287.749 97.7159C287.749 97.9299 287.71 98.1392 287.632 98.3438C287.556 98.5464 287.424 98.7727 287.234 99.0227C287.047 99.2708 286.786 99.5739 286.453 99.9318L285.146 101.33V101.375H287.851V102H284.18Z" fill="#505050"/>
<path d="M316.021 102.08C315.646 102.08 315.312 102.015 315.018 101.886C314.727 101.758 314.495 101.579 314.322 101.349C314.152 101.118 314.059 100.85 314.044 100.545H314.76C314.775 100.733 314.839 100.895 314.953 101.031C315.067 101.166 315.215 101.27 315.399 101.344C315.583 101.418 315.786 101.455 316.01 101.455C316.26 101.455 316.482 101.411 316.675 101.324C316.868 101.237 317.019 101.116 317.129 100.96C317.239 100.805 317.294 100.625 317.294 100.42C317.294 100.206 317.241 100.018 317.135 99.8551C317.029 99.6903 316.874 99.5616 316.669 99.4688C316.464 99.3759 316.214 99.3295 315.919 99.3295H315.453V98.7045H315.919C316.15 98.7045 316.353 98.6629 316.527 98.5795C316.703 98.4962 316.84 98.3788 316.939 98.2273C317.039 98.0758 317.089 97.8977 317.089 97.6932C317.089 97.4962 317.046 97.3248 316.959 97.179C316.872 97.0331 316.749 96.9195 316.589 96.8381C316.432 96.7566 316.247 96.7159 316.033 96.7159C315.832 96.7159 315.643 96.7528 315.464 96.8267C315.288 96.8987 315.144 97.0038 315.033 97.142C314.921 97.2784 314.86 97.4432 314.851 97.6364H314.169C314.18 97.3314 314.272 97.0644 314.445 96.8352C314.617 96.6042 314.842 96.4242 315.121 96.2955C315.401 96.1667 315.709 96.1023 316.044 96.1023C316.404 96.1023 316.713 96.1752 316.97 96.321C317.228 96.465 317.426 96.6553 317.564 96.892C317.702 97.1288 317.771 97.3845 317.771 97.6591C317.771 97.9867 317.685 98.2661 317.513 98.4972C317.342 98.7282 317.11 98.8883 316.817 98.9773V99.0227C317.184 99.0833 317.471 99.2396 317.678 99.4915C317.884 99.7415 317.987 100.051 317.987 100.42C317.987 100.737 317.901 101.021 317.729 101.273C317.558 101.523 317.325 101.72 317.03 101.864C316.734 102.008 316.398 102.08 316.021 102.08Z" fill="#505050"/>
<path d="M343.9 100.807V100.227L346.456 96.1818H346.877V97.0795H346.593L344.661 100.136V100.182H348.104V100.807H343.9ZM346.638 102V100.631V100.361V96.1818H347.309V102H346.638Z" fill="#505050"/>
<path d="M248.769 5.27344H247.213C247.185 5.07221 247.127 4.89347 247.039 4.73722C246.952 4.5786 246.839 4.44366 246.702 4.33239C246.565 4.22112 246.406 4.13589 246.226 4.0767C246.049 4.01752 245.856 3.98793 245.647 3.98793C245.271 3.98793 244.943 4.08144 244.664 4.26847C244.384 4.45312 244.168 4.72301 244.014 5.07812C243.86 5.43087 243.783 5.85937 243.783 6.36364C243.783 6.8821 243.86 7.31771 244.014 7.67045C244.17 8.0232 244.388 8.28954 244.667 8.46946C244.947 8.64938 245.27 8.73935 245.637 8.73935C245.843 8.73935 246.033 8.71212 246.208 8.65767C246.386 8.60322 246.543 8.52391 246.681 8.41974C246.818 8.31321 246.932 8.18419 247.022 8.03267C247.114 7.88116 247.178 7.70833 247.213 7.5142L248.769 7.52131C248.728 7.85511 248.628 8.17708 248.467 8.48722C248.308 8.79498 248.094 9.07079 247.824 9.31463C247.557 9.55611 247.237 9.74787 246.865 9.88991C246.496 10.0296 246.078 10.0994 245.612 10.0994C244.963 10.0994 244.383 9.95265 243.872 9.65909C243.363 9.36553 242.96 8.94058 242.664 8.38423C242.371 7.82789 242.224 7.15436 242.224 6.36364C242.224 5.57055 242.373 4.89583 242.671 4.33949C242.97 3.78314 243.375 3.35937 243.886 3.06818C244.397 2.77462 244.973 2.62784 245.612 2.62784C246.033 2.62784 246.424 2.68703 246.784 2.8054C247.146 2.92377 247.467 3.09659 247.746 3.32386C248.025 3.54877 248.253 3.82457 248.428 4.15128C248.605 4.47798 248.719 4.85204 248.769 5.27344ZM252.307 10.1065C251.756 10.1065 251.279 9.98935 250.876 9.75497C250.476 9.51823 250.167 9.18916 249.949 8.76776C249.732 8.34399 249.623 7.85275 249.623 7.29403C249.623 6.73059 249.732 6.23816 249.949 5.81676C250.167 5.39299 250.476 5.06392 250.876 4.82955C251.279 4.5928 251.756 4.47443 252.307 4.47443C252.859 4.47443 253.335 4.5928 253.735 4.82955C254.137 5.06392 254.448 5.39299 254.665 5.81676C254.883 6.23816 254.992 6.73059 254.992 7.29403C254.992 7.85275 254.883 8.34399 254.665 8.76776C254.448 9.18916 254.137 9.51823 253.735 9.75497C253.335 9.98935 252.859 10.1065 252.307 10.1065ZM252.315 8.93466C252.565 8.93466 252.775 8.86364 252.943 8.72159C253.111 8.57718 253.238 8.38068 253.323 8.1321C253.411 7.88352 253.454 7.60062 253.454 7.28338C253.454 6.96615 253.411 6.68324 253.323 6.43466C253.238 6.18608 253.111 5.98958 252.943 5.84517C252.775 5.70076 252.565 5.62855 252.315 5.62855C252.061 5.62855 251.848 5.70076 251.675 5.84517C251.505 5.98958 251.376 6.18608 251.288 6.43466C251.203 6.68324 251.16 6.96615 251.16 7.28338C251.16 7.60062 251.203 7.88352 251.288 8.1321C251.376 8.38068 251.505 8.57718 251.675 8.72159C251.848 8.86364 252.061 8.93466 252.315 8.93466ZM257.489 6.84659V10H255.976V4.54545H257.418V5.50781H257.481C257.602 5.19058 257.805 4.93963 258.089 4.75497C258.373 4.56795 258.717 4.47443 259.122 4.47443C259.501 4.47443 259.831 4.55729 260.113 4.72301C260.395 4.88873 260.614 5.12547 260.77 5.43324C260.926 5.73864 261.004 6.10322 261.004 6.52699V10H259.491V6.79688C259.494 6.46307 259.409 6.20265 259.236 6.01562C259.063 5.82623 258.825 5.73153 258.522 5.73153C258.318 5.73153 258.138 5.77533 257.982 5.86293C257.828 5.95052 257.708 6.07836 257.62 6.24645C257.535 6.41217 257.491 6.61222 257.489 6.84659ZM265.098 4.54545V5.68182H261.813V4.54545H265.098ZM262.559 3.23864H264.071V8.32386C264.071 8.46354 264.093 8.57244 264.135 8.65057C264.178 8.72633 264.237 8.77959 264.313 8.81037C264.391 8.84115 264.481 8.85653 264.583 8.85653C264.654 8.85653 264.725 8.85062 264.796 8.83878C264.867 8.82457 264.921 8.81392 264.959 8.80682L265.197 9.93253C265.121 9.9562 265.015 9.98343 264.878 10.0142C264.74 10.0473 264.573 10.0675 264.377 10.0746C264.012 10.0888 263.693 10.0402 263.418 9.92898C263.146 9.81771 262.934 9.64489 262.782 9.41051C262.631 9.17614 262.556 8.88021 262.559 8.52273V3.23864ZM266.083 10V4.54545H267.596V10H266.083ZM266.843 3.84233C266.618 3.84233 266.425 3.76776 266.264 3.61861C266.106 3.46709 266.026 3.28598 266.026 3.07528C266.026 2.86695 266.106 2.68821 266.264 2.53906C266.425 2.38755 266.618 2.31179 266.843 2.31179C267.068 2.31179 267.26 2.38755 267.418 2.53906C267.579 2.68821 267.66 2.86695 267.66 3.07528C267.66 3.28598 267.579 3.46709 267.418 3.61861C267.26 3.76776 267.068 3.84233 266.843 3.84233ZM270.321 6.84659V10H268.808V4.54545H270.25V5.50781H270.313C270.434 5.19058 270.637 4.93963 270.921 4.75497C271.205 4.56795 271.549 4.47443 271.954 4.47443C272.333 4.47443 272.663 4.55729 272.945 4.72301C273.227 4.88873 273.446 5.12547 273.602 5.43324C273.758 5.73864 273.836 6.10322 273.836 6.52699V10H272.323V6.79688C272.326 6.46307 272.241 6.20265 272.068 6.01562C271.895 5.82623 271.657 5.73153 271.354 5.73153C271.15 5.73153 270.97 5.77533 270.814 5.86293C270.66 5.95052 270.54 6.07836 270.452 6.24645C270.367 6.41217 270.323 6.61222 270.321 6.84659ZM278.526 7.67756V4.54545H280.039V10H278.587V9.00923H278.53C278.407 9.32884 278.202 9.5857 277.916 9.77983C277.631 9.97396 277.285 10.071 276.875 10.071C276.511 10.071 276.19 9.98816 275.913 9.82244C275.636 9.65672 275.419 9.42116 275.263 9.11577C275.109 8.81037 275.031 8.4446 275.028 8.01847V4.54545H276.541V7.74858C276.544 8.07055 276.63 8.32505 276.801 8.51207C276.971 8.6991 277.199 8.79261 277.486 8.79261C277.668 8.79261 277.839 8.75118 277.997 8.66832C278.156 8.5831 278.284 8.45762 278.381 8.2919C278.48 8.12618 278.529 7.9214 278.526 7.67756ZM283.714 10.1065C283.162 10.1065 282.685 9.98935 282.283 9.75497C281.882 9.51823 281.574 9.18916 281.356 8.76776C281.138 8.34399 281.029 7.85275 281.029 7.29403C281.029 6.73059 281.138 6.23816 281.356 5.81676C281.574 5.39299 281.882 5.06392 282.283 4.82955C282.685 4.5928 283.162 4.47443 283.714 4.47443C284.265 4.47443 284.741 4.5928 285.141 4.82955C285.544 5.06392 285.854 5.39299 286.072 5.81676C286.289 6.23816 286.398 6.73059 286.398 7.29403C286.398 7.85275 286.289 8.34399 286.072 8.76776C285.854 9.18916 285.544 9.51823 285.141 9.75497C284.741 9.98935 284.265 10.1065 283.714 10.1065ZM283.721 8.93466C283.972 8.93466 284.181 8.86364 284.349 8.72159C284.517 8.57718 284.644 8.38068 284.729 8.1321C284.817 7.88352 284.861 7.60062 284.861 7.28338C284.861 6.96615 284.817 6.68324 284.729 6.43466C284.644 6.18608 284.517 5.98958 284.349 5.84517C284.181 5.70076 283.972 5.62855 283.721 5.62855C283.467 5.62855 283.254 5.70076 283.082 5.84517C282.911 5.98958 282.782 6.18608 282.695 6.43466C282.609 6.68324 282.567 6.96615 282.567 7.28338C282.567 7.60062 282.609 7.88352 282.695 8.1321C282.782 8.38068 282.911 8.57718 283.082 8.72159C283.254 8.86364 283.467 8.93466 283.721 8.93466ZM290.88 7.67756V4.54545H292.393V10H290.94V9.00923H290.883C290.76 9.32884 290.556 9.5857 290.269 9.77983C289.985 9.97396 289.638 10.071 289.229 10.071C288.864 10.071 288.543 9.98816 288.266 9.82244C287.989 9.65672 287.773 9.42116 287.616 9.11577C287.463 8.81037 287.384 8.4446 287.382 8.01847V4.54545H288.895V7.74858C288.897 8.07055 288.984 8.32505 289.154 8.51207C289.324 8.6991 289.553 8.79261 289.839 8.79261C290.022 8.79261 290.192 8.75118 290.351 8.66832C290.509 8.5831 290.637 8.45762 290.734 8.2919C290.834 8.12618 290.882 7.9214 290.88 7.67756ZM298.141 6.10085L296.756 6.18608C296.732 6.06771 296.682 5.96117 296.603 5.86648C296.525 5.76941 296.422 5.69247 296.294 5.63565C296.169 5.57647 296.019 5.54688 295.843 5.54688C295.609 5.54688 295.411 5.59659 295.25 5.69602C295.089 5.79309 295.009 5.9233 295.009 6.08665C295.009 6.21686 295.061 6.32694 295.165 6.4169C295.269 6.50687 295.448 6.57907 295.701 6.63352L296.689 6.83239C297.219 6.94129 297.614 7.11648 297.875 7.35795C298.135 7.59943 298.265 7.91667 298.265 8.30966C298.265 8.66714 298.16 8.98082 297.949 9.25071C297.741 9.5206 297.455 9.7313 297.09 9.88281C296.728 10.032 296.31 10.1065 295.836 10.1065C295.114 10.1065 294.539 9.9562 294.111 9.65554C293.684 9.35251 293.435 8.94058 293.361 8.41974L294.849 8.34162C294.894 8.56179 295.003 8.72988 295.176 8.84588C295.349 8.95952 295.57 9.01634 295.84 9.01634C296.105 9.01634 296.318 8.96544 296.479 8.86364C296.642 8.75947 296.725 8.62571 296.728 8.46236C296.725 8.32505 296.667 8.21259 296.554 8.125C296.44 8.03504 296.265 7.96638 296.028 7.91903L295.084 7.73082C294.551 7.62429 294.154 7.43963 293.894 7.17685C293.636 6.91406 293.507 6.57907 293.507 6.17188C293.507 5.8215 293.602 5.51965 293.791 5.26634C293.983 5.01302 294.251 4.81771 294.597 4.6804C294.945 4.54309 295.352 4.47443 295.819 4.47443C296.508 4.47443 297.05 4.62003 297.445 4.91122C297.843 5.20241 298.075 5.59896 298.141 6.10085ZM305.506 4.81889C305.478 4.53243 305.356 4.3099 305.14 4.15128C304.925 3.99266 304.633 3.91335 304.263 3.91335C304.012 3.91335 303.8 3.94886 303.628 4.01989C303.455 4.08854 303.322 4.18442 303.23 4.30753C303.14 4.43063 303.095 4.57031 303.095 4.72656C303.09 4.85677 303.117 4.97041 303.177 5.06747C303.238 5.16454 303.322 5.24858 303.429 5.3196C303.535 5.38826 303.658 5.44863 303.798 5.50071C303.938 5.55043 304.087 5.59304 304.245 5.62855L304.899 5.7848C305.216 5.85582 305.507 5.95052 305.772 6.06889C306.038 6.18726 306.267 6.33286 306.461 6.50568C306.656 6.6785 306.806 6.8821 306.912 7.11648C307.021 7.35085 307.077 7.61955 307.079 7.92259C307.077 8.36766 306.963 8.75355 306.738 9.08026C306.516 9.40459 306.194 9.65672 305.772 9.83665C305.353 10.0142 304.848 10.103 304.256 10.103C303.669 10.103 303.158 10.013 302.722 9.8331C302.289 9.65317 301.95 9.38684 301.706 9.03409C301.465 8.67898 301.338 8.23982 301.326 7.71662H302.814C302.831 7.96046 302.901 8.16406 303.024 8.32741C303.149 8.4884 303.316 8.61032 303.525 8.69318C303.735 8.77367 303.973 8.81392 304.238 8.81392C304.499 8.81392 304.725 8.77604 304.917 8.70028C305.111 8.62453 305.261 8.51918 305.368 8.38423C305.474 8.24929 305.527 8.09422 305.527 7.91903C305.527 7.75568 305.479 7.61837 305.382 7.5071C305.287 7.39583 305.147 7.30114 304.963 7.22301C304.781 7.14489 304.557 7.07386 304.292 7.00994L303.5 6.81108C302.887 6.66193 302.402 6.42874 302.047 6.11151C301.692 5.79427 301.516 5.36695 301.518 4.82955C301.516 4.3892 301.633 4.0045 301.87 3.67543C302.109 3.34635 302.437 3.08949 302.853 2.90483C303.27 2.72017 303.744 2.62784 304.274 2.62784C304.814 2.62784 305.285 2.72017 305.687 2.90483C306.092 3.08949 306.407 3.34635 306.632 3.67543C306.857 4.0045 306.973 4.38565 306.98 4.81889H305.506ZM308.085 10V4.54545H309.598V10H308.085ZM308.845 3.84233C308.62 3.84233 308.427 3.76776 308.266 3.61861C308.108 3.46709 308.028 3.28598 308.028 3.07528C308.028 2.86695 308.108 2.68821 308.266 2.53906C308.427 2.38755 308.62 2.31179 308.845 2.31179C309.07 2.31179 309.262 2.38755 309.42 2.53906C309.581 2.68821 309.662 2.86695 309.662 3.07528C309.662 3.28598 309.581 3.46709 309.42 3.61861C309.262 3.76776 309.07 3.84233 308.845 3.84233ZM313.267 12.1591C312.777 12.1591 312.357 12.0916 312.006 11.9567C311.658 11.8241 311.381 11.643 311.176 11.4134C310.97 11.1837 310.836 10.9257 310.774 10.6392L312.173 10.451C312.216 10.5599 312.283 10.6617 312.376 10.7564C312.468 10.8511 312.59 10.9268 312.742 10.9837C312.895 11.0429 313.082 11.0724 313.303 11.0724C313.632 11.0724 313.903 10.992 314.116 10.831C314.331 10.6723 314.439 10.406 314.439 10.032V9.03409H314.375C314.309 9.18561 314.209 9.32884 314.077 9.46378C313.944 9.59872 313.774 9.70881 313.565 9.79403C313.357 9.87926 313.109 9.92188 312.82 9.92188C312.41 9.92188 312.037 9.82718 311.701 9.63778C311.367 9.44602 311.101 9.15365 310.902 8.76065C310.706 8.36529 310.607 7.86577 310.607 7.26207C310.607 6.64418 310.708 6.12808 310.909 5.71378C311.11 5.29948 311.378 4.98935 311.712 4.78338C312.048 4.57741 312.416 4.47443 312.816 4.47443C313.122 4.47443 313.377 4.52652 313.583 4.63068C313.789 4.73248 313.955 4.86032 314.08 5.0142C314.208 5.16572 314.306 5.31487 314.375 5.46165H314.432V4.54545H315.934V10.0533C315.934 10.5173 315.82 10.9055 315.593 11.218C315.366 11.5305 315.051 11.7649 314.649 11.9212C314.248 12.0798 313.788 12.1591 313.267 12.1591ZM313.299 8.78551C313.543 8.78551 313.749 8.72514 313.917 8.6044C314.087 8.4813 314.218 8.30611 314.308 8.07884C314.4 7.8492 314.446 7.57457 314.446 7.25497C314.446 6.93537 314.401 6.65838 314.311 6.42401C314.221 6.18726 314.091 6.00379 313.921 5.87358C313.75 5.74337 313.543 5.67827 313.299 5.67827C313.051 5.67827 312.841 5.74574 312.671 5.88068C312.5 6.01326 312.371 6.19792 312.283 6.43466C312.196 6.6714 312.152 6.94484 312.152 7.25497C312.152 7.56984 312.196 7.84209 312.283 8.07173C312.373 8.29901 312.502 8.47538 312.671 8.60085C312.841 8.72396 313.051 8.78551 313.299 8.78551ZM318.651 6.84659V10H317.138V4.54545H318.58V5.50781H318.644C318.764 5.19058 318.967 4.93963 319.251 4.75497C319.535 4.56795 319.879 4.47443 320.284 4.47443C320.663 4.47443 320.993 4.55729 321.275 4.72301C321.557 4.88873 321.776 5.12547 321.932 5.43324C322.088 5.73864 322.166 6.10322 322.166 6.52699V10H320.653V6.79688C320.656 6.46307 320.571 6.20265 320.398 6.01562C320.225 5.82623 319.987 5.73153 319.684 5.73153C319.48 5.73153 319.301 5.77533 319.144 5.86293C318.99 5.95052 318.87 6.07836 318.782 6.24645C318.697 6.41217 318.653 6.61222 318.651 6.84659ZM324.914 10.103C324.566 10.103 324.256 10.0426 323.984 9.92188C323.711 9.79877 323.496 9.61766 323.337 9.37855C323.181 9.13707 323.103 8.83641 323.103 8.47656C323.103 8.17353 323.159 7.91903 323.27 7.71307C323.381 7.5071 323.533 7.34138 323.724 7.21591C323.916 7.09044 324.134 6.99574 324.378 6.93182C324.624 6.8679 324.882 6.82292 325.152 6.79688C325.469 6.76373 325.725 6.73295 325.919 6.70455C326.113 6.67377 326.254 6.62879 326.342 6.5696C326.429 6.51042 326.473 6.42282 326.473 6.30682V6.28551C326.473 6.06061 326.402 5.8866 326.26 5.76349C326.12 5.64039 325.921 5.57884 325.663 5.57884C325.391 5.57884 325.174 5.6392 325.013 5.75994C324.852 5.87831 324.746 6.02746 324.694 6.20739L323.295 6.09375C323.366 5.76231 323.505 5.47585 323.714 5.23438C323.922 4.99053 324.191 4.8035 324.52 4.6733C324.851 4.54072 325.235 4.47443 325.67 4.47443C325.973 4.47443 326.263 4.50994 326.54 4.58097C326.82 4.65199 327.067 4.76207 327.283 4.91122C327.5 5.06037 327.672 5.25213 327.797 5.48651C327.923 5.71851 327.986 5.99669 327.986 6.32102V10H326.551V9.24361H326.508C326.421 9.41406 326.304 9.56439 326.157 9.6946C326.01 9.82244 325.834 9.92306 325.628 9.99645C325.422 10.0675 325.184 10.103 324.914 10.103ZM325.347 9.05895C325.57 9.05895 325.766 9.01515 325.937 8.92756C326.107 8.83759 326.241 8.71686 326.338 8.56534C326.435 8.41383 326.484 8.24219 326.484 8.05043V7.47159C326.436 7.50237 326.371 7.53078 326.288 7.55682C326.208 7.58049 326.117 7.60298 326.015 7.62429C325.913 7.64323 325.811 7.66098 325.709 7.67756C325.608 7.69176 325.515 7.70478 325.432 7.71662C325.255 7.74266 325.1 7.78409 324.967 7.84091C324.835 7.89773 324.732 7.97467 324.658 8.07173C324.585 8.16643 324.548 8.2848 324.548 8.42685C324.548 8.63281 324.623 8.79025 324.772 8.89915C324.923 9.00568 325.115 9.05895 325.347 9.05895ZM330.672 2.72727V10H329.159V2.72727H330.672Z" fill="#505050"/>
<line x1="226.5" y1="33" x2="226.5" y2="92" stroke="#505050"/>
<line x1="366" y1="92.5" x2="221" y2="92.5" stroke="#505050"/>
<line x1="256" y1="47.75" x2="285" y2="47.75" stroke="#BE3B3B" stroke-width="0.5"/>
<line x1="227" y1="58.75" x2="256" y2="58.75" stroke="#BE3B3B" stroke-width="0.5"/>
<line x1="256.25" y1="49" x2="256.25" y2="59" stroke="#505050" stroke-width="0.5" stroke-dasharray="1 1"/>
<line x1="285.25" y1="47.5" x2="285.25" y2="65.5" stroke="#505050" stroke-width="0.5" stroke-dasharray="1 1"/>
<line x1="316.25" y1="50" x2="316.25" y2="66" stroke="#505050" stroke-width="0.5" stroke-dasharray="1 1"/>
<line x1="346.25" y1="51.5" x2="346.25" y2="63.5" stroke="#505050" stroke-width="0.5" stroke-dasharray="1 1"/>
<line x1="287" y1="65.75" x2="316" y2="65.75" stroke="#BE3B3B" stroke-width="0.5"/>
<line x1="317" y1="51.75" x2="346" y2="51.75" stroke="#BE3B3B" stroke-width="0.5"/>
<line x1="317" y1="45.75" x2="346" y2="45.75" stroke="#333333" stroke-width="0.5"/>
<line x1="345.75" y1="47" x2="345.75" y2="44" stroke="#333333" stroke-width="0.5"/>
<line x1="316.75" y1="47" x2="316.75" y2="44" stroke="#333333" stroke-width="0.5"/>
<line x1="347" y1="62.75" x2="366" y2="62.75" stroke="#BE3B3B" stroke-width="0.5"/>
<circle cx="256.5" cy="47.5" r="3.5" fill="#BE3B3B"/>
<circle cx="285.5" cy="65.5" r="3.5" fill="#BE3B3B"/>
<circle cx="316.5" cy="51.5" r="3.5" fill="#BE3B3B"/>
<circle cx="346.5" cy="62.5" r="3.5" fill="#BE3B3B"/>
<circle cx="226.5" cy="58.5" r="3.5" fill="#BE3B3B"/>
<path d="M211 59L201 53.2265L201 64.7735L211 59ZM152 60L202 60L202 58L152 58L152 60Z" fill="#505050" fill-opacity="0.5"/>
<path d="M312.284 36.6136L311.648 36.7841C311.625 36.6818 311.585 36.5833 311.528 36.4886C311.473 36.392 311.388 36.3134 311.273 36.2528C311.159 36.1903 311.004 36.1591 310.807 36.1591C310.54 36.1591 310.308 36.2206 310.111 36.3438C309.914 36.465 309.801 36.6193 309.773 36.8068C309.744 36.9716 309.782 37.1032 309.886 37.2017C309.991 37.3002 310.165 37.3807 310.409 37.4432L311.034 37.6023C311.409 37.6989 311.676 37.8437 311.835 38.0369C311.996 38.2282 312.051 38.4773 312 38.7841C311.958 39.0341 311.849 39.2576 311.673 39.4545C311.497 39.6515 311.272 39.8068 310.997 39.9205C310.723 40.0341 310.417 40.0909 310.08 40.0909C309.631 40.0909 309.277 39.9943 309.017 39.8011C308.758 39.6061 308.619 39.3239 308.602 38.9545L309.273 38.7955C309.29 39.0284 309.373 39.2045 309.523 39.3239C309.674 39.4413 309.886 39.5 310.159 39.5C310.472 39.5 310.732 39.4337 310.94 39.3011C311.149 39.1667 311.267 39.0057 311.295 38.8182C311.324 38.6648 311.294 38.5369 311.205 38.4347C311.117 38.3324 310.966 38.2557 310.75 38.2045L310.057 38.0341C309.67 37.9375 309.4 37.7898 309.244 37.5909C309.091 37.392 309.04 37.142 309.091 36.8409C309.133 36.5947 309.239 36.3769 309.409 36.1875C309.581 35.9981 309.797 35.8494 310.057 35.7415C310.318 35.6335 310.602 35.5795 310.909 35.5795C311.341 35.5795 311.664 35.6742 311.878 35.8636C312.092 36.0511 312.227 36.3011 312.284 36.6136ZM315.43 35.6364L315.339 36.2045H313.077L313.168 35.6364H315.43ZM313.998 34.5909H314.668L313.975 38.75C313.945 38.9394 313.95 39.0814 313.989 39.1761C314.031 39.2689 314.094 39.3314 314.177 39.3636C314.262 39.3939 314.354 39.4091 314.452 39.4091C314.526 39.4091 314.587 39.4053 314.634 39.3977C314.682 39.3883 314.719 39.3807 314.748 39.375L314.793 39.9773C314.742 39.9943 314.673 40.0114 314.586 40.0284C314.501 40.0473 314.396 40.0568 314.271 40.0568C314.081 40.0568 313.903 40.0161 313.737 39.9347C313.57 39.8532 313.442 39.7292 313.353 39.5625C313.264 39.3958 313.24 39.1856 313.282 38.9318L313.998 34.5909ZM317.482 40.0909C317.064 40.0909 316.718 39.9981 316.445 39.8125C316.173 39.625 315.982 39.3636 315.874 39.0284C315.766 38.6913 315.749 38.2992 315.823 37.8523C315.897 37.4053 316.044 37.0114 316.263 36.6705C316.483 36.3277 316.757 36.0606 317.085 35.8693C317.412 35.6761 317.772 35.5795 318.164 35.5795C318.391 35.5795 318.61 35.6174 318.82 35.6932C319.031 35.7689 319.212 35.892 319.366 36.0625C319.519 36.2311 319.626 36.4545 319.687 36.733C319.747 37.0114 319.744 37.3542 319.675 37.7614L319.63 38.0455H316.266L316.357 37.4659H319.039C319.083 37.2197 319.071 37 319.005 36.8068C318.941 36.6136 318.828 36.4612 318.667 36.3494C318.508 36.2377 318.306 36.1818 318.062 36.1818C317.81 36.1818 317.575 36.25 317.357 36.3864C317.139 36.5208 316.958 36.6913 316.812 36.8977C316.666 37.1023 316.575 37.3106 316.539 37.5227L316.46 38.0227C316.403 38.3845 316.411 38.6723 316.485 38.8864C316.561 39.1004 316.692 39.2547 316.88 39.3494C317.067 39.4422 317.302 39.4886 317.585 39.4886C317.764 39.4886 317.93 39.464 318.082 39.4148C318.233 39.3636 318.369 39.2879 318.488 39.1875C318.607 39.0852 318.708 38.9583 318.789 38.8068L319.403 38.9886C319.299 39.2083 319.152 39.4015 318.962 39.5682C318.775 39.733 318.555 39.8617 318.303 39.9545C318.053 40.0455 317.78 40.0909 317.482 40.0909ZM320.063 41.6364L321.069 35.6364H321.717L321.603 36.3295H321.683C321.743 36.2538 321.826 36.1572 321.933 36.0398C322.04 35.9205 322.185 35.8144 322.367 35.7216C322.551 35.6269 322.785 35.5795 323.069 35.5795C323.436 35.5795 323.744 35.6714 323.992 35.8551C324.24 36.0388 324.415 36.2992 324.518 36.6364C324.62 36.9735 324.633 37.3712 324.558 37.8295C324.482 38.2917 324.337 38.6922 324.123 39.0312C323.909 39.3684 323.647 39.6297 323.339 39.8153C323.03 39.9991 322.694 40.0909 322.33 40.0909C322.05 40.0909 321.833 40.0445 321.68 39.9517C321.526 39.857 321.415 39.75 321.344 39.6307C321.274 39.5095 321.22 39.4091 321.183 39.3295H321.126L320.739 41.6364H320.063ZM321.364 37.8182C321.311 38.1477 321.311 38.4384 321.364 38.6903C321.419 38.9403 321.528 39.1364 321.691 39.2784C321.856 39.4186 322.073 39.4886 322.342 39.4886C322.622 39.4886 322.867 39.4148 323.077 39.267C323.29 39.1174 323.464 38.9167 323.6 38.6648C323.738 38.411 323.834 38.1288 323.887 37.8182C323.936 37.5114 323.934 37.2348 323.881 36.9886C323.828 36.7405 323.72 36.5445 323.558 36.4006C323.395 36.2547 323.171 36.1818 322.887 36.1818C322.614 36.1818 322.373 36.2509 322.163 36.3892C321.954 36.5256 321.782 36.7169 321.646 36.9631C321.511 37.2074 321.417 37.4924 321.364 37.8182ZM331.128 36.6136L330.491 36.7841C330.469 36.6818 330.429 36.5833 330.372 36.4886C330.317 36.392 330.232 36.3134 330.116 36.2528C330.003 36.1903 329.848 36.1591 329.651 36.1591C329.384 36.1591 329.152 36.2206 328.955 36.3438C328.758 36.465 328.645 36.6193 328.616 36.8068C328.588 36.9716 328.626 37.1032 328.73 37.2017C328.834 37.3002 329.009 37.3807 329.253 37.4432L329.878 37.6023C330.253 37.6989 330.52 37.8437 330.679 38.0369C330.84 38.2282 330.895 38.4773 330.844 38.7841C330.802 39.0341 330.693 39.2576 330.517 39.4545C330.341 39.6515 330.116 39.8068 329.841 39.9205C329.566 40.0341 329.26 40.0909 328.923 40.0909C328.474 40.0909 328.12 39.9943 327.861 39.8011C327.601 39.6061 327.463 39.3239 327.446 38.9545L328.116 38.7955C328.134 39.0284 328.217 39.2045 328.366 39.3239C328.518 39.4413 328.73 39.5 329.003 39.5C329.315 39.5 329.576 39.4337 329.784 39.3011C329.992 39.1667 330.111 39.0057 330.139 38.8182C330.168 38.6648 330.137 38.5369 330.048 38.4347C329.961 38.3324 329.81 38.2557 329.594 38.2045L328.901 38.0341C328.514 37.9375 328.243 37.7898 328.088 37.5909C327.935 37.392 327.884 37.142 327.935 36.8409C327.976 36.5947 328.082 36.3769 328.253 36.1875C328.425 35.9981 328.641 35.8494 328.901 35.7415C329.162 35.6335 329.446 35.5795 329.753 35.5795C330.185 35.5795 330.508 35.6742 330.722 35.8636C330.936 36.0511 331.071 36.3011 331.128 36.6136ZM331.648 40L332.376 35.6364H333.046L332.319 40H331.648ZM332.915 34.8977C332.785 34.8977 332.672 34.8532 332.577 34.7642C332.485 34.6752 332.438 34.5682 332.438 34.4432C332.438 34.3182 332.485 34.2112 332.577 34.1222C332.672 34.0331 332.785 33.9886 332.915 33.9886C333.046 33.9886 333.158 34.0331 333.251 34.1222C333.345 34.2112 333.393 34.3182 333.393 34.4432C333.393 34.5682 333.345 34.6752 333.251 34.7642C333.158 34.8532 333.046 34.8977 332.915 34.8977ZM333.422 40L333.513 39.4886L336.513 36.3068L336.524 36.2614H334.126L334.229 35.6364H337.49L337.399 36.1705L334.467 39.3295L334.456 39.375H336.945L336.842 40H333.422ZM339.568 40.0909C339.15 40.0909 338.804 39.9981 338.531 39.8125C338.259 39.625 338.068 39.3636 337.96 39.0284C337.852 38.6913 337.835 38.2992 337.909 37.8523C337.983 37.4053 338.13 37.0114 338.349 36.6705C338.569 36.3277 338.843 36.0606 339.17 35.8693C339.498 35.6761 339.858 35.5795 340.25 35.5795C340.477 35.5795 340.696 35.6174 340.906 35.6932C341.116 35.7689 341.298 35.892 341.452 36.0625C341.605 36.2311 341.712 36.4545 341.773 36.733C341.833 37.0114 341.83 37.3542 341.761 37.7614L341.716 38.0455H338.352L338.443 37.4659H341.125C341.169 37.2197 341.157 37 341.091 36.8068C341.027 36.6136 340.914 36.4612 340.753 36.3494C340.594 36.2377 340.392 36.1818 340.148 36.1818C339.896 36.1818 339.661 36.25 339.443 36.3864C339.225 36.5208 339.044 36.6913 338.898 36.8977C338.752 37.1023 338.661 37.3106 338.625 37.5227L338.545 38.0227C338.489 38.3845 338.497 38.6723 338.571 38.8864C338.647 39.1004 338.778 39.2547 338.966 39.3494C339.153 39.4422 339.388 39.4886 339.67 39.4886C339.85 39.4886 340.016 39.464 340.168 39.4148C340.319 39.3636 340.455 39.2879 340.574 39.1875C340.693 39.0852 340.794 38.9583 340.875 38.8068L341.489 38.9886C341.384 39.2083 341.238 39.4015 341.048 39.5682C340.861 39.733 340.641 39.8617 340.389 39.9545C340.139 40.0455 339.866 40.0909 339.568 40.0909ZM345.274 37.0909C345.274 36.375 345.367 35.7169 345.553 35.1165C345.74 34.5142 346.007 33.9602 346.354 33.4545H346.945C346.808 33.642 346.68 33.8731 346.561 34.1477C346.444 34.4205 346.34 34.7206 346.251 35.0483C346.162 35.3741 346.092 35.7112 346.041 36.0597C345.992 36.4081 345.967 36.7519 345.967 37.0909C345.967 37.5417 346.011 37.9991 346.098 38.4631C346.185 38.9271 346.303 39.358 346.45 39.7557C346.598 40.1534 346.763 40.4773 346.945 40.7273H346.354C346.007 40.2216 345.74 39.6686 345.553 39.0682C345.367 38.4659 345.274 37.8068 345.274 37.0909ZM347.525 40L349.661 34.1818H350.388L352.525 40H347.525ZM348.491 39.375H351.559L350.048 35.1023H350.002L348.491 39.375ZM354.772 37.0909C354.772 37.8068 354.678 38.4659 354.491 39.0682C354.305 39.6686 354.039 40.2216 353.692 40.7273H353.102C353.238 40.5398 353.365 40.3087 353.482 40.0341C353.602 39.7614 353.706 39.4621 353.795 39.1364C353.884 38.8087 353.953 38.4706 354.002 38.1222C354.053 37.7718 354.079 37.428 354.079 37.0909C354.079 36.6402 354.035 36.1828 353.948 35.7188C353.861 35.2547 353.744 34.8239 353.596 34.4261C353.448 34.0284 353.283 33.7045 353.102 33.4545H353.692C354.039 33.9602 354.305 34.5142 354.491 35.1165C354.678 35.7169 354.772 36.375 354.772 37.0909Z" fill="#333333"/>
</svg>
