<svg width="372" height="119" viewBox="0 0 372 119" fill="none" xmlns="http://www.w3.org/2000/svg">
<rect width="372" height="119" fill="white"/>
<path d="M45.6435 18.3636C45.6435 17.4687 45.7595 16.6461 45.9915 15.8956C46.2259 15.1428 46.5597 14.4503 46.9929 13.8182H47.7315C47.5611 14.0526 47.4013 14.3414 47.2521 14.6847C47.1054 15.0256 46.9763 15.4008 46.8651 15.8104C46.7538 16.2176 46.6662 16.639 46.6023 17.0746C46.5407 17.5102 46.5099 17.9399 46.5099 18.3636C46.5099 18.9271 46.5644 19.4988 46.6733 20.0788C46.7822 20.6589 46.929 21.1974 47.1136 21.6946C47.2983 22.1918 47.5043 22.5966 47.7315 22.9091H46.9929C46.5597 22.277 46.2259 21.5857 45.9915 20.8352C45.7595 20.0824 45.6435 19.2585 45.6435 18.3636ZM83.3556 18.9318C83.3556 19.8267 83.2385 20.6506 83.0041 21.4034C82.7721 22.1539 82.4395 22.8452 82.0062 23.4773H81.2676C81.438 23.2429 81.5967 22.9541 81.7434 22.6108C81.8926 22.2699 82.0228 21.8958 82.1341 21.4886C82.2453 21.0791 82.3317 20.6565 82.3933 20.2209C82.4572 19.7829 82.4892 19.3532 82.4892 18.9318C82.4892 18.3684 82.4347 17.7966 82.3258 17.2166C82.2169 16.6366 82.0701 16.098 81.8855 15.6009C81.7008 15.1037 81.4949 14.6989 81.2676 14.3864H82.0062C82.4395 15.0185 82.7721 15.7109 83.0041 16.4638C83.2385 17.2143 83.3556 18.0369 83.3556 18.9318Z" fill="#505050"/>
<path d="M55.2182 18.3636C55.2182 19.1307 55.0797 19.7936 54.8027 20.3523C54.5257 20.911 54.1458 21.3419 53.6628 21.6449C53.1799 21.9479 52.6283 22.0994 52.008 22.0994C51.3877 22.0994 50.8361 21.9479 50.3532 21.6449C49.8702 21.3419 49.4902 20.911 49.2132 20.3523C48.9363 19.7936 48.7978 19.1307 48.7978 18.3636C48.7978 17.5966 48.9363 16.9337 49.2132 16.375C49.4902 15.8163 49.8702 15.3854 50.3532 15.0824C50.8361 14.7794 51.3877 14.6278 52.008 14.6278C52.6283 14.6278 53.1799 14.7794 53.6628 15.0824C54.1458 15.3854 54.5257 15.8163 54.8027 16.375C55.0797 16.9337 55.2182 17.5966 55.2182 18.3636ZM54.3659 18.3636C54.3659 17.7339 54.2606 17.2024 54.0499 16.7692C53.8416 16.3359 53.5587 16.008 53.2012 15.7855C52.8461 15.563 52.4483 15.4517 52.008 15.4517C51.5676 15.4517 51.1687 15.563 50.8113 15.7855C50.4561 16.008 50.1732 16.3359 49.9625 16.7692C49.7542 17.2024 49.65 17.7339 49.65 18.3636C49.65 18.9934 49.7542 19.5249 49.9625 19.9581C50.1732 20.3913 50.4561 20.7192 50.8113 20.9418C51.1687 21.1643 51.5676 21.2756 52.008 21.2756C52.4483 21.2756 52.8461 21.1643 53.2012 20.9418C53.5587 20.7192 53.8416 20.3913 54.0499 19.9581C54.2606 19.5249 54.3659 18.9934 54.3659 18.3636ZM60.0229 19.7699V16.5455H60.861V22H60.0229V21.0767H59.9661C59.8382 21.3537 59.6394 21.5893 59.3695 21.7834C59.0996 21.9751 58.7587 22.071 58.3468 22.071C58.0059 22.071 57.7028 21.9964 57.4377 21.8473C57.1725 21.6958 56.9642 21.4685 56.8127 21.1655C56.6612 20.8601 56.5854 20.4754 56.5854 20.0114V16.5455H57.4235V19.9545C57.4235 20.3523 57.5347 20.6695 57.7573 20.9062C57.9822 21.143 58.2686 21.2614 58.6167 21.2614C58.825 21.2614 59.0369 21.2081 59.2523 21.1016C59.4701 20.995 59.6524 20.8317 59.7992 20.6115C59.9483 20.3913 60.0229 20.1108 60.0229 19.7699ZM64.7681 16.5455V17.2557H61.9414V16.5455H64.7681ZM62.7653 15.2386H63.6033V20.4375C63.6033 20.6742 63.6377 20.8518 63.7063 20.9702C63.7773 21.0862 63.8673 21.1643 63.9762 21.2045C64.0875 21.2424 64.2047 21.2614 64.3278 21.2614C64.4201 21.2614 64.4959 21.2566 64.555 21.2472C64.6142 21.2353 64.6616 21.2259 64.6971 21.2188L64.8675 21.9716C64.8107 21.9929 64.7314 22.0142 64.6296 22.0355C64.5278 22.0592 64.3988 22.071 64.2425 22.071C64.0058 22.071 63.7738 22.0201 63.5465 21.9183C63.3216 21.8165 63.1346 21.6615 62.9854 21.4531C62.8387 21.2448 62.7653 20.982 62.7653 20.6648V15.2386ZM66.0288 24.0455V16.5455H66.8384V17.4119H66.9379C66.9994 17.3172 67.0846 17.1965 67.1935 17.0497C67.3048 16.9006 67.4634 16.768 67.6694 16.652C67.8777 16.5336 68.1594 16.4744 68.5146 16.4744C68.9738 16.4744 69.3787 16.5893 69.729 16.8189C70.0794 17.0485 70.3529 17.3741 70.5494 17.7955C70.7459 18.2169 70.8441 18.714 70.8441 19.2869C70.8441 19.8646 70.7459 20.3653 70.5494 20.7891C70.3529 21.2105 70.0806 21.5372 69.7326 21.7692C69.3846 21.9988 68.9833 22.1136 68.5288 22.1136C68.1784 22.1136 67.8978 22.0556 67.6871 21.9396C67.4764 21.8213 67.3143 21.6875 67.2006 21.5384C67.087 21.3868 66.9994 21.2614 66.9379 21.1619H66.8668V24.0455H66.0288ZM66.8526 19.2727C66.8526 19.6847 66.913 20.0481 67.0337 20.3629C67.1545 20.6754 67.3308 20.9205 67.5629 21.098C67.7949 21.2732 68.079 21.3608 68.4151 21.3608C68.7655 21.3608 69.0579 21.2685 69.2923 21.0838C69.529 20.8968 69.7066 20.6458 69.8249 20.331C69.9457 20.0137 70.006 19.661 70.006 19.2727C70.006 18.8892 69.9469 18.5436 69.8285 18.2358C69.7125 17.9257 69.5361 17.6806 69.2994 17.5007C69.065 17.3184 68.7702 17.2273 68.4151 17.2273C68.0742 17.2273 67.7878 17.3137 67.5558 17.4865C67.3237 17.657 67.1486 17.8961 67.0302 18.2038C66.9118 18.5092 66.8526 18.8655 66.8526 19.2727ZM75.56 19.7699V16.5455H76.3981V22H75.56V21.0767H75.5032C75.3754 21.3537 75.1765 21.5893 74.9066 21.7834C74.6367 21.9751 74.2958 22.071 73.8839 22.071C73.543 22.071 73.2399 21.9964 72.9748 21.8473C72.7096 21.6958 72.5013 21.4685 72.3498 21.1655C72.1983 20.8601 72.1225 20.4754 72.1225 20.0114V16.5455H72.9606V19.9545C72.9606 20.3523 73.0719 20.6695 73.2944 20.9062C73.5193 21.143 73.8058 21.2614 74.1538 21.2614C74.3621 21.2614 74.574 21.2081 74.7894 21.1016C75.0072 20.995 75.1895 20.8317 75.3363 20.6115C75.4854 20.3913 75.56 20.1108 75.56 19.7699ZM80.3052 16.5455V17.2557H77.4785V16.5455H80.3052ZM78.3024 15.2386H79.1404V20.4375C79.1404 20.6742 79.1748 20.8518 79.2434 20.9702C79.3145 21.0862 79.4044 21.1643 79.5133 21.2045C79.6246 21.2424 79.7418 21.2614 79.8649 21.2614C79.9572 21.2614 80.033 21.2566 80.0922 21.2472C80.1513 21.2353 80.1987 21.2259 80.2342 21.2188L80.4047 21.9716C80.3478 21.9929 80.2685 22.0142 80.1667 22.0355C80.0649 22.0592 79.9359 22.071 79.7797 22.071C79.5429 22.071 79.3109 22.0201 79.0836 21.9183C78.8587 21.8165 78.6717 21.6615 78.5225 21.4531C78.3758 21.2448 78.3024 20.982 78.3024 20.6648V15.2386Z" fill="#743BBE"/>
<path d="M55.9013 107.672V106.727H61.5298V107.672H59.2607V114H58.1669V107.672H55.9013ZM62.6884 114V108.545H63.7502V114H62.6884ZM63.2246 107.704C63.04 107.704 62.8813 107.642 62.7488 107.519C62.6185 107.394 62.5534 107.245 62.5534 107.072C62.5534 106.897 62.6185 106.747 62.7488 106.624C62.8813 106.499 63.04 106.436 63.2246 106.436C63.4093 106.436 63.5667 106.499 63.6969 106.624C63.8295 106.747 63.8958 106.897 63.8958 107.072C63.8958 107.245 63.8295 107.394 63.6969 107.519C63.5667 107.642 63.4093 107.704 63.2246 107.704ZM65.1786 114V108.545H66.1978V109.433H66.2653C66.3789 109.133 66.5647 108.898 66.8228 108.73C67.0808 108.56 67.3898 108.474 67.7496 108.474C68.1142 108.474 68.4196 108.56 68.6658 108.73C68.9144 108.901 69.0979 109.135 69.2163 109.433H69.2731C69.4033 109.142 69.6104 108.91 69.8945 108.737C70.1786 108.562 70.5172 108.474 70.9102 108.474C71.4049 108.474 71.8086 108.629 72.1211 108.94C72.436 109.25 72.5934 109.717 72.5934 110.342V114H71.5316V110.442C71.5316 110.072 71.431 109.805 71.2298 109.639C71.0285 109.473 70.7882 109.391 70.5089 109.391C70.1632 109.391 69.8945 109.497 69.7028 109.71C69.511 109.921 69.4151 110.192 69.4151 110.523V114H68.3569V110.374C68.3569 110.078 68.2646 109.84 68.0799 109.661C67.8952 109.481 67.6549 109.391 67.359 109.391C67.1578 109.391 66.9719 109.444 66.8015 109.55C66.6334 109.655 66.4973 109.8 66.3931 109.987C66.2913 110.174 66.2404 110.391 66.2404 110.637V114H65.1786ZM76.3674 114.11C75.83 114.11 75.3671 113.995 74.9789 113.766C74.593 113.534 74.2947 113.208 74.084 112.789C73.8757 112.368 73.7715 111.874 73.7715 111.308C73.7715 110.75 73.8757 110.257 74.084 109.831C74.2947 109.405 74.5882 109.072 74.9647 108.833C75.3435 108.594 75.7862 108.474 76.2928 108.474C76.6006 108.474 76.8989 108.525 77.1877 108.627C77.4765 108.729 77.7357 108.889 77.9654 109.107C78.195 109.324 78.3761 109.607 78.5087 109.955C78.6413 110.301 78.7076 110.721 78.7076 111.216V111.592H74.3716V110.797H77.6671C77.6671 110.518 77.6103 110.27 77.4966 110.055C77.383 109.837 77.2232 109.665 77.0172 109.54C76.8136 109.414 76.5745 109.352 76.2999 109.352C76.0016 109.352 75.7412 109.425 75.5186 109.572C75.2985 109.716 75.128 109.906 75.0073 110.14C74.8889 110.372 74.8297 110.624 74.8297 110.896V111.518C74.8297 111.882 74.8936 112.192 75.0215 112.448C75.1517 112.704 75.3328 112.899 75.5648 113.034C75.7968 113.167 76.0679 113.233 76.378 113.233C76.5792 113.233 76.7627 113.205 76.9284 113.148C77.0942 113.089 77.2374 113.001 77.3581 112.885C77.4789 112.769 77.5712 112.626 77.6351 112.455L78.6401 112.636C78.5596 112.932 78.4152 113.192 78.2069 113.414C78.0009 113.634 77.7417 113.806 77.4292 113.929C77.119 114.05 76.7651 114.11 76.3674 114.11ZM85.5328 108.545L85.3944 109.398H82.415L82.5534 108.545H85.5328ZM83.5655 107.239H84.6273L83.7679 112.398C83.7348 112.604 83.7407 112.759 83.7857 112.864C83.8307 112.965 83.8993 113.035 83.9917 113.073C84.0864 113.109 84.1917 113.126 84.3077 113.126C84.3929 113.126 84.4675 113.121 84.5314 113.109C84.5953 113.097 84.6462 113.087 84.6841 113.08L84.7409 113.957C84.6699 113.981 84.574 114.005 84.4533 114.028C84.3349 114.054 84.1905 114.069 84.0201 114.071C83.7407 114.076 83.4886 114.026 83.2637 113.922C83.0388 113.815 82.8707 113.654 82.7594 113.439C82.6481 113.221 82.6209 112.948 82.6777 112.619L83.5655 107.239Z" fill="#505050"/>
<path d="M9 102.08C8.57197 102.08 8.20739 101.963 7.90625 101.73C7.60511 101.495 7.375 101.155 7.21591 100.71C7.05682 100.263 6.97727 99.7235 6.97727 99.0909C6.97727 98.4621 7.05682 97.9252 7.21591 97.4801C7.37689 97.0331 7.60795 96.6922 7.90909 96.4574C8.21212 96.2206 8.57576 96.1023 9 96.1023C9.42424 96.1023 9.78693 96.2206 10.0881 96.4574C10.3911 96.6922 10.6222 97.0331 10.7812 97.4801C10.9422 97.9252 11.0227 98.4621 11.0227 99.0909C11.0227 99.7235 10.9432 100.263 10.7841 100.71C10.625 101.155 10.3949 101.495 10.0938 101.73C9.79261 101.963 9.42803 102.08 9 102.08ZM9 101.455C9.42424 101.455 9.75379 101.25 9.98864 100.841C10.2235 100.432 10.3409 99.8485 10.3409 99.0909C10.3409 98.5871 10.2869 98.1581 10.179 97.804C10.0729 97.4498 9.91951 97.1799 9.71875 96.9943C9.51989 96.8087 9.2803 96.7159 9 96.7159C8.57955 96.7159 8.25095 96.9233 8.0142 97.3381C7.77746 97.7509 7.65909 98.3352 7.65909 99.0909C7.65909 99.5947 7.71212 100.023 7.81818 100.375C7.92424 100.727 8.0767 100.995 8.27557 101.179C8.47633 101.363 8.7178 101.455 9 101.455Z" fill="#505050"/>
<path d="M39.7884 96.1818V102H39.0838V96.9205H39.0497L37.6293 97.8636V97.1477L39.0838 96.1818H39.7884Z" fill="#505050"/>
<path d="M67.1804 102V101.489L69.1009 99.3864C69.3262 99.1402 69.5118 98.9261 69.6577 98.7443C69.8035 98.5606 69.9115 98.3883 69.9815 98.2273C70.0535 98.0644 70.0895 97.8939 70.0895 97.7159C70.0895 97.5114 70.0402 97.3343 69.9418 97.1847C69.8452 97.035 69.7126 96.9195 69.544 96.8381C69.3755 96.7566 69.1861 96.7159 68.9759 96.7159C68.7524 96.7159 68.5573 96.7623 68.3906 96.8551C68.2259 96.946 68.098 97.0739 68.0071 97.2386C67.9181 97.4034 67.8736 97.5966 67.8736 97.8182H67.2031C67.2031 97.4773 67.2817 97.178 67.4389 96.9205C67.5961 96.6629 67.8101 96.4621 68.081 96.3182C68.3537 96.1742 68.6596 96.1023 68.9986 96.1023C69.3395 96.1023 69.6416 96.1742 69.9048 96.3182C70.1681 96.4621 70.3745 96.6562 70.5241 96.9006C70.6738 97.1449 70.7486 97.4167 70.7486 97.7159C70.7486 97.9299 70.7098 98.1392 70.6321 98.3438C70.5563 98.5464 70.4238 98.7727 70.2344 99.0227C70.0469 99.2708 69.7865 99.5739 69.4531 99.9318L68.1463 101.33V101.375H70.8509V102H67.1804Z" fill="#505050"/>
<path d="M99.0213 102.08C98.6463 102.08 98.312 102.015 98.0185 101.886C97.7268 101.758 97.4948 101.579 97.3224 101.349C97.152 101.118 97.0592 100.85 97.044 100.545H97.7599C97.7751 100.733 97.8395 100.895 97.9531 101.031C98.0668 101.166 98.2154 101.27 98.3991 101.344C98.5829 101.418 98.7865 101.455 99.0099 101.455C99.2599 101.455 99.4815 101.411 99.6747 101.324C99.8679 101.237 100.019 101.116 100.129 100.96C100.239 100.805 100.294 100.625 100.294 100.42C100.294 100.206 100.241 100.018 100.135 99.8551C100.029 99.6903 99.8736 99.5616 99.669 99.4688C99.4645 99.3759 99.2145 99.3295 98.919 99.3295H98.4531V98.7045H98.919C99.1501 98.7045 99.3527 98.6629 99.527 98.5795C99.7031 98.4962 99.8404 98.3788 99.9389 98.2273C100.039 98.0758 100.089 97.8977 100.089 97.6932C100.089 97.4962 100.046 97.3248 99.9588 97.179C99.8717 97.0331 99.7486 96.9195 99.5895 96.8381C99.4323 96.7566 99.2467 96.7159 99.0327 96.7159C98.8319 96.7159 98.6425 96.7528 98.4645 96.8267C98.2884 96.8987 98.1444 97.0038 98.0327 97.142C97.9209 97.2784 97.8603 97.4432 97.8509 97.6364H97.169C97.1804 97.3314 97.2723 97.0644 97.4446 96.8352C97.617 96.6042 97.8423 96.4242 98.1207 96.2955C98.401 96.1667 98.7088 96.1023 99.044 96.1023C99.4039 96.1023 99.7126 96.1752 99.9702 96.321C100.228 96.465 100.426 96.6553 100.564 96.892C100.702 97.1288 100.771 97.3845 100.771 97.6591C100.771 97.9867 100.685 98.2661 100.513 98.4972C100.342 98.7282 100.11 98.8883 99.8168 98.9773V99.0227C100.184 99.0833 100.471 99.2396 100.678 99.4915C100.884 99.7415 100.987 100.051 100.987 100.42C100.987 100.737 100.901 101.021 100.729 101.273C100.558 101.523 100.325 101.72 100.03 101.864C99.7344 102.008 99.3982 102.08 99.0213 102.08Z" fill="#505050"/>
<path d="M126.9 100.807V100.227L129.456 96.1818H129.877V97.0795H129.593L127.661 100.136V100.182H131.104V100.807H126.9ZM129.638 102V100.631V100.361V96.1818H130.309V102H129.638Z" fill="#505050"/>
<path d="M34.8791 5.27344H33.3237C33.2953 5.07221 33.2373 4.89347 33.1497 4.73722C33.0621 4.5786 32.9496 4.44366 32.8123 4.33239C32.675 4.22112 32.5164 4.13589 32.3365 4.0767C32.1589 4.01752 31.966 3.98793 31.7576 3.98793C31.3812 3.98793 31.0533 4.08144 30.774 4.26847C30.4946 4.45312 30.278 4.72301 30.1241 5.07812C29.9702 5.43087 29.8933 5.85937 29.8933 6.36364C29.8933 6.8821 29.9702 7.31771 30.1241 7.67045C30.2804 8.0232 30.4982 8.28954 30.7775 8.46946C31.0569 8.64938 31.38 8.73935 31.747 8.73935C31.9529 8.73935 32.1435 8.71212 32.3187 8.65767C32.4963 8.60322 32.6537 8.52391 32.791 8.41974C32.9283 8.31321 33.042 8.18419 33.1319 8.03267C33.2243 7.88116 33.2882 7.70833 33.3237 7.5142L34.8791 7.52131C34.8388 7.85511 34.7382 8.17708 34.5772 8.48722C34.4186 8.79498 34.2044 9.07079 33.9345 9.31463C33.667 9.55611 33.3474 9.74787 32.9757 9.88991C32.6064 10.0296 32.1885 10.0994 31.7221 10.0994C31.0734 10.0994 30.4934 9.95265 29.9821 9.65909C29.4731 9.36553 29.0706 8.94058 28.7747 8.38423C28.4811 7.82789 28.3343 7.15436 28.3343 6.36364C28.3343 5.57055 28.4835 4.89583 28.7818 4.33949C29.0801 3.78314 29.4849 3.35937 29.9963 3.06818C30.5076 2.77462 31.0829 2.62784 31.7221 2.62784C32.1435 2.62784 32.5342 2.68703 32.894 2.8054C33.2562 2.92377 33.577 3.09659 33.8564 3.32386C34.1357 3.54877 34.363 3.82457 34.5382 4.15128C34.7157 4.47798 34.8294 4.85204 34.8791 5.27344ZM38.4178 10.1065C37.8662 10.1065 37.3891 9.98935 36.9867 9.75497C36.5866 9.51823 36.2776 9.18916 36.0598 8.76776C35.842 8.34399 35.7331 7.85275 35.7331 7.29403C35.7331 6.73059 35.842 6.23816 36.0598 5.81676C36.2776 5.39299 36.5866 5.06392 36.9867 4.82955C37.3891 4.5928 37.8662 4.47443 38.4178 4.47443C38.9694 4.47443 39.4453 4.5928 39.8453 4.82955C40.2478 5.06392 40.5579 5.39299 40.7757 5.81676C40.9935 6.23816 41.1025 6.73059 41.1025 7.29403C41.1025 7.85275 40.9935 8.34399 40.7757 8.76776C40.5579 9.18916 40.2478 9.51823 39.8453 9.75497C39.4453 9.98935 38.9694 10.1065 38.4178 10.1065ZM38.4249 8.93466C38.6758 8.93466 38.8854 8.86364 39.0534 8.72159C39.2215 8.57718 39.3482 8.38068 39.4334 8.1321C39.521 7.88352 39.5648 7.60062 39.5648 7.28338C39.5648 6.96615 39.521 6.68324 39.4334 6.43466C39.3482 6.18608 39.2215 5.98958 39.0534 5.84517C38.8854 5.70076 38.6758 5.62855 38.4249 5.62855C38.1716 5.62855 37.9585 5.70076 37.7857 5.84517C37.6152 5.98958 37.4862 6.18608 37.3986 6.43466C37.3134 6.68324 37.2708 6.96615 37.2708 7.28338C37.2708 7.60062 37.3134 7.88352 37.3986 8.1321C37.4862 8.38068 37.6152 8.57718 37.7857 8.72159C37.9585 8.86364 38.1716 8.93466 38.4249 8.93466ZM43.5989 6.84659V10H42.0861V4.54545H43.5279V5.50781H43.5918C43.7125 5.19058 43.915 4.93963 44.199 4.75497C44.4831 4.56795 44.8276 4.47443 45.2324 4.47443C45.6112 4.47443 45.9415 4.55729 46.2232 4.72301C46.5049 4.88873 46.7239 5.12547 46.8801 5.43324C47.0364 5.73864 47.1145 6.10322 47.1145 6.52699V10H45.6017V6.79688C45.6041 6.46307 45.5189 6.20265 45.3461 6.01562C45.1732 5.82623 44.9353 5.73153 44.6323 5.73153C44.4287 5.73153 44.2488 5.77533 44.0925 5.86293C43.9386 5.95052 43.8179 6.07836 43.7303 6.24645C43.6451 6.41217 43.6013 6.61222 43.5989 6.84659ZM51.2081 4.54545V5.68182H47.9233V4.54545H51.2081ZM48.669 3.23864H50.1818V8.32386C50.1818 8.46354 50.2031 8.57244 50.2457 8.65057C50.2884 8.72633 50.3475 8.77959 50.4233 8.81037C50.5014 8.84115 50.5914 8.85653 50.6932 8.85653C50.7642 8.85653 50.8352 8.85062 50.9062 8.83878C50.9773 8.82457 51.0317 8.81392 51.0696 8.80682L51.3075 9.93253C51.2318 9.9562 51.1252 9.98343 50.9879 10.0142C50.8506 10.0473 50.6837 10.0675 50.4872 10.0746C50.1226 10.0888 49.803 10.0402 49.5284 9.92898C49.2562 9.81771 49.0443 9.64489 48.8928 9.41051C48.7412 9.17614 48.6667 8.88021 48.669 8.52273V3.23864ZM52.1935 10V4.54545H53.7063V10H52.1935ZM52.9535 3.84233C52.7286 3.84233 52.5356 3.76776 52.3746 3.61861C52.216 3.46709 52.1367 3.28598 52.1367 3.07528C52.1367 2.86695 52.216 2.68821 52.3746 2.53906C52.5356 2.38755 52.7286 2.31179 52.9535 2.31179C53.1784 2.31179 53.3701 2.38755 53.5288 2.53906C53.6897 2.68821 53.7702 2.86695 53.7702 3.07528C53.7702 3.28598 53.6897 3.46709 53.5288 3.61861C53.3701 3.76776 53.1784 3.84233 52.9535 3.84233ZM56.4309 6.84659V10H54.9181V4.54545H56.3599V5.50781H56.4238C56.5446 5.19058 56.747 4.93963 57.0311 4.75497C57.3152 4.56795 57.6596 4.47443 58.0645 4.47443C58.4432 4.47443 58.7735 4.55729 59.0552 4.72301C59.3369 4.88873 59.5559 5.12547 59.7122 5.43324C59.8684 5.73864 59.9466 6.10322 59.9466 6.52699V10H58.4338V6.79688C58.4361 6.46307 58.3509 6.20265 58.1781 6.01562C58.0053 5.82623 57.7673 5.73153 57.4643 5.73153C57.2607 5.73153 57.0808 5.77533 56.9245 5.86293C56.7707 5.95052 56.6499 6.07836 56.5623 6.24645C56.4771 6.41217 56.4333 6.61222 56.4309 6.84659ZM63.6033 10.1065C63.0517 10.1065 62.5747 9.98935 62.1722 9.75497C61.7721 9.51823 61.4632 9.18916 61.2454 8.76776C61.0276 8.34399 60.9187 7.85275 60.9187 7.29403C60.9187 6.73059 61.0276 6.23816 61.2454 5.81676C61.4632 5.39299 61.7721 5.06392 62.1722 4.82955C62.5747 4.5928 63.0517 4.47443 63.6033 4.47443C64.1549 4.47443 64.6308 4.5928 65.0309 4.82955C65.4334 5.06392 65.7435 5.39299 65.9613 5.81676C66.1791 6.23816 66.288 6.73059 66.288 7.29403C66.288 7.85275 66.1791 8.34399 65.9613 8.76776C65.7435 9.18916 65.4334 9.51823 65.0309 9.75497C64.6308 9.98935 64.1549 10.1065 63.6033 10.1065ZM63.6104 8.93466C63.8614 8.93466 64.0709 8.86364 64.239 8.72159C64.4071 8.57718 64.5337 8.38068 64.619 8.1321C64.7066 7.88352 64.7504 7.60062 64.7504 7.28338C64.7504 6.96615 64.7066 6.68324 64.619 6.43466C64.5337 6.18608 64.4071 5.98958 64.239 5.84517C64.0709 5.70076 63.8614 5.62855 63.6104 5.62855C63.3571 5.62855 63.1441 5.70076 62.9712 5.84517C62.8008 5.98958 62.6718 6.18608 62.5842 6.43466C62.4989 6.68324 62.4563 6.96615 62.4563 7.28338C62.4563 7.60062 62.4989 7.88352 62.5842 8.1321C62.6718 8.38068 62.8008 8.57718 62.9712 8.72159C63.1441 8.86364 63.3571 8.93466 63.6104 8.93466ZM70.7695 7.67756V4.54545H72.2823V10H70.8299V9.00923H70.7731C70.65 9.32884 70.4452 9.5857 70.1587 9.77983C69.8746 9.97396 69.5278 10.071 69.1183 10.071C68.7537 10.071 68.4329 9.98816 68.1559 9.82244C67.8789 9.65672 67.6623 9.42116 67.506 9.11577C67.3522 8.81037 67.274 8.4446 67.2717 8.01847V4.54545H68.7844V7.74858C68.7868 8.07055 68.8732 8.32505 69.0437 8.51207C69.2141 8.6991 69.4426 8.79261 69.729 8.79261C69.9113 8.79261 70.0818 8.75118 70.2404 8.66832C70.399 8.5831 70.5269 8.45762 70.6239 8.2919C70.7234 8.12618 70.7719 7.9214 70.7695 7.67756ZM78.0307 6.10085L76.6458 6.18608C76.6221 6.06771 76.5712 5.96117 76.4931 5.86648C76.415 5.76941 76.312 5.69247 76.1841 5.63565C76.0587 5.57647 75.9083 5.54688 75.7331 5.54688C75.4988 5.54688 75.3011 5.59659 75.1401 5.69602C74.9791 5.79309 74.8986 5.9233 74.8986 6.08665C74.8986 6.21686 74.9507 6.32694 75.0549 6.4169C75.159 6.50687 75.3378 6.57907 75.5911 6.63352L76.5783 6.83239C77.1086 6.94129 77.504 7.11648 77.7644 7.35795C78.0248 7.59943 78.155 7.91667 78.155 8.30966C78.155 8.66714 78.0497 8.98082 77.839 9.25071C77.6306 9.5206 77.3442 9.7313 76.9796 9.88281C76.6174 10.032 76.1995 10.1065 75.726 10.1065C75.004 10.1065 74.4287 9.9562 74.0002 9.65554C73.574 9.35251 73.3243 8.94058 73.2509 8.41974L74.7388 8.34162C74.7838 8.56179 74.8927 8.72988 75.0655 8.84588C75.2383 8.95952 75.4597 9.01634 75.7296 9.01634C75.9947 9.01634 76.2078 8.96544 76.3688 8.86364C76.5321 8.75947 76.615 8.62571 76.6174 8.46236C76.615 8.32505 76.557 8.21259 76.4434 8.125C76.3297 8.03504 76.1545 7.96638 75.9178 7.91903L74.9732 7.73082C74.4405 7.62429 74.044 7.43963 73.7836 7.17685C73.5255 6.91406 73.3965 6.57907 73.3965 6.17188C73.3965 5.8215 73.4912 5.51965 73.6806 5.26634C73.8723 5.01302 74.141 4.81771 74.4867 4.6804C74.8347 4.54309 75.2419 4.47443 75.7083 4.47443C76.3972 4.47443 76.9393 4.62003 77.3347 4.91122C77.7324 5.20241 77.9644 5.59896 78.0307 6.10085ZM85.3958 4.81889C85.3674 4.53243 85.2454 4.3099 85.03 4.15128C84.8146 3.99266 84.5222 3.91335 84.1529 3.91335C83.9019 3.91335 83.69 3.94886 83.5172 4.01989C83.3444 4.08854 83.2118 4.18442 83.1195 4.30753C83.0295 4.43063 82.9846 4.57031 82.9846 4.72656C82.9798 4.85677 83.007 4.97041 83.0662 5.06747C83.1278 5.16454 83.2118 5.24858 83.3184 5.3196C83.4249 5.38826 83.548 5.44863 83.6877 5.50071C83.8274 5.55043 83.9765 5.59304 84.1351 5.62855L84.7885 5.7848C85.1058 5.85582 85.397 5.95052 85.6621 6.06889C85.9273 6.18726 86.1569 6.33286 86.351 6.50568C86.5452 6.6785 86.6955 6.8821 86.802 7.11648C86.9109 7.35085 86.9666 7.61955 86.9689 7.92259C86.9666 8.36766 86.8529 8.75355 86.628 9.08026C86.4055 9.40459 86.0835 9.65672 85.6621 9.83665C85.2431 10.0142 84.7376 10.103 84.1458 10.103C83.5587 10.103 83.0473 10.013 82.6117 9.8331C82.1784 9.65317 81.8399 9.38684 81.5961 9.03409C81.3546 8.67898 81.2279 8.23982 81.2161 7.71662H82.704C82.7206 7.96046 82.7904 8.16406 82.9135 8.32741C83.039 8.4884 83.2059 8.61032 83.4142 8.69318C83.6249 8.77367 83.8629 8.81392 84.128 8.81392C84.3884 8.81392 84.6145 8.77604 84.8063 8.70028C85.0004 8.62453 85.1507 8.51918 85.2573 8.38423C85.3638 8.24929 85.4171 8.09422 85.4171 7.91903C85.4171 7.75568 85.3685 7.61837 85.2715 7.5071C85.1768 7.39583 85.0371 7.30114 84.8525 7.22301C84.6702 7.14489 84.4464 7.07386 84.1813 7.00994L83.3894 6.81108C82.7762 6.66193 82.2921 6.42874 81.937 6.11151C81.5819 5.79427 81.4055 5.36695 81.4078 4.82955C81.4055 4.3892 81.5227 4.0045 81.7594 3.67543C81.9985 3.34635 82.3264 3.08949 82.7431 2.90483C83.1597 2.72017 83.6332 2.62784 84.1635 2.62784C84.7033 2.62784 85.1744 2.72017 85.5769 2.90483C85.9817 3.08949 86.2966 3.34635 86.5215 3.67543C86.7464 4.0045 86.8624 4.38565 86.8695 4.81889H85.3958ZM87.9748 10V4.54545H89.4876V10H87.9748ZM88.7347 3.84233C88.5098 3.84233 88.3169 3.76776 88.1559 3.61861C87.9973 3.46709 87.918 3.28598 87.918 3.07528C87.918 2.86695 87.9973 2.68821 88.1559 2.53906C88.3169 2.38755 88.5098 2.31179 88.7347 2.31179C88.9596 2.31179 89.1514 2.38755 89.31 2.53906C89.471 2.68821 89.5515 2.86695 89.5515 3.07528C89.5515 3.28598 89.471 3.46709 89.31 3.61861C89.1514 3.76776 88.9596 3.84233 88.7347 3.84233ZM93.1568 12.1591C92.6667 12.1591 92.2465 12.0916 91.8961 11.9567C91.5481 11.8241 91.2711 11.643 91.0652 11.4134C90.8592 11.1837 90.7254 10.9257 90.6639 10.6392L92.063 10.451C92.1056 10.5599 92.1731 10.6617 92.2654 10.7564C92.3578 10.8511 92.4797 10.9268 92.6312 10.9837C92.7851 11.0429 92.9721 11.0724 93.1923 11.0724C93.5214 11.0724 93.7924 10.992 94.0055 10.831C94.2209 10.6723 94.3287 10.406 94.3287 10.032V9.03409H94.2647C94.1984 9.18561 94.099 9.32884 93.9664 9.46378C93.8339 9.59872 93.6634 9.70881 93.4551 9.79403C93.2467 9.87926 92.9982 9.92188 92.7093 9.92188C92.2998 9.92188 91.9269 9.82718 91.5907 9.63778C91.2569 9.44602 90.9906 9.15365 90.7917 8.76065C90.5952 8.36529 90.497 7.86577 90.497 7.26207C90.497 6.64418 90.5976 6.12808 90.7988 5.71378C91.0001 5.29948 91.2676 4.98935 91.6014 4.78338C91.9376 4.57741 92.3057 4.47443 92.7058 4.47443C93.0112 4.47443 93.2669 4.52652 93.4728 4.63068C93.6788 4.73248 93.8445 4.86032 93.97 5.0142C94.0978 5.16572 94.1961 5.31487 94.2647 5.46165H94.3216V4.54545H95.8237V10.0533C95.8237 10.5173 95.71 10.9055 95.4828 11.218C95.2555 11.5305 94.9406 11.7649 94.5382 11.9212C94.1381 12.0798 93.6776 12.1591 93.1568 12.1591ZM93.1887 8.78551C93.4326 8.78551 93.6386 8.72514 93.8066 8.6044C93.9771 8.4813 94.1073 8.30611 94.1973 8.07884C94.2896 7.8492 94.3358 7.57457 94.3358 7.25497C94.3358 6.93537 94.2908 6.65838 94.2008 6.42401C94.1109 6.18726 93.9806 6.00379 93.8102 5.87358C93.6397 5.74337 93.4326 5.67827 93.1887 5.67827C92.9402 5.67827 92.7306 5.74574 92.5602 5.88068C92.3897 6.01326 92.2607 6.19792 92.1731 6.43466C92.0855 6.6714 92.0417 6.94484 92.0417 7.25497C92.0417 7.56984 92.0855 7.84209 92.1731 8.07173C92.2631 8.29901 92.3921 8.47538 92.5602 8.60085C92.7306 8.72396 92.9402 8.78551 93.1887 8.78551ZM98.5403 6.84659V10H97.0275V4.54545H98.4693V5.50781H98.5332C98.6539 5.19058 98.8564 4.93963 99.1404 4.75497C99.4245 4.56795 99.769 4.47443 100.174 4.47443C100.553 4.47443 100.883 4.55729 101.165 4.72301C101.446 4.88873 101.665 5.12547 101.822 5.43324C101.978 5.73864 102.056 6.10322 102.056 6.52699V10H100.543V6.79688C100.546 6.46307 100.46 6.20265 100.287 6.01562C100.115 5.82623 99.8767 5.73153 99.5737 5.73153C99.3701 5.73153 99.1902 5.77533 99.0339 5.86293C98.88 5.95052 98.7593 6.07836 98.6717 6.24645C98.5865 6.41217 98.5427 6.61222 98.5403 6.84659ZM104.804 10.103C104.456 10.103 104.145 10.0426 103.873 9.92188C103.601 9.79877 103.386 9.61766 103.227 9.37855C103.071 9.13707 102.993 8.83641 102.993 8.47656C102.993 8.17353 103.048 7.91903 103.159 7.71307C103.271 7.5071 103.422 7.34138 103.614 7.21591C103.806 7.09044 104.024 6.99574 104.267 6.93182C104.514 6.8679 104.772 6.82292 105.042 6.79688C105.359 6.76373 105.614 6.73295 105.809 6.70455C106.003 6.67377 106.144 6.62879 106.231 6.5696C106.319 6.51042 106.363 6.42282 106.363 6.30682V6.28551C106.363 6.06061 106.292 5.8866 106.15 5.76349C106.01 5.64039 105.811 5.57884 105.553 5.57884C105.281 5.57884 105.064 5.6392 104.903 5.75994C104.742 5.87831 104.636 6.02746 104.583 6.20739L103.184 6.09375C103.255 5.76231 103.395 5.47585 103.603 5.23438C103.812 4.99053 104.08 4.8035 104.409 4.6733C104.741 4.54072 105.124 4.47443 105.56 4.47443C105.863 4.47443 106.153 4.50994 106.43 4.58097C106.709 4.65199 106.957 4.76207 107.172 4.91122C107.39 5.06037 107.562 5.25213 107.687 5.48651C107.813 5.71851 107.875 5.99669 107.875 6.32102V10H106.441V9.24361H106.398C106.31 9.41406 106.193 9.56439 106.047 9.6946C105.9 9.82244 105.723 9.92306 105.517 9.99645C105.311 10.0675 105.074 10.103 104.804 10.103ZM105.237 9.05895C105.459 9.05895 105.656 9.01515 105.826 8.92756C105.997 8.83759 106.131 8.71686 106.228 8.56534C106.325 8.41383 106.373 8.24219 106.373 8.05043V7.47159C106.326 7.50237 106.261 7.53078 106.178 7.55682C106.097 7.58049 106.006 7.60298 105.904 7.62429C105.803 7.64323 105.701 7.66098 105.599 7.67756C105.497 7.69176 105.405 7.70478 105.322 7.71662C105.145 7.74266 104.989 7.78409 104.857 7.84091C104.724 7.89773 104.621 7.97467 104.548 8.07173C104.475 8.16643 104.438 8.2848 104.438 8.42685C104.438 8.63281 104.512 8.79025 104.662 8.89915C104.813 9.00568 105.005 9.05895 105.237 9.05895ZM110.562 2.72727V10H109.049V2.72727H110.562Z" fill="#505050"/>
<path d="M158.709 39.8551C158.686 39.6259 158.589 39.4479 158.416 39.321C158.244 39.1941 158.01 39.1307 157.714 39.1307C157.514 39.1307 157.344 39.1591 157.206 39.2159C157.068 39.2708 156.962 39.3475 156.888 39.446C156.816 39.5445 156.78 39.6562 156.78 39.7812C156.776 39.8854 156.798 39.9763 156.845 40.054C156.894 40.1316 156.962 40.1989 157.047 40.2557C157.132 40.3106 157.231 40.3589 157.342 40.4006C157.454 40.4403 157.573 40.4744 157.7 40.5028L158.223 40.6278C158.477 40.6847 158.71 40.7604 158.922 40.8551C159.134 40.9498 159.318 41.0663 159.473 41.2045C159.628 41.3428 159.749 41.5057 159.834 41.6932C159.921 41.8807 159.965 42.0956 159.967 42.3381C159.965 42.6941 159.875 43.0028 159.695 43.2642C159.517 43.5237 159.259 43.7254 158.922 43.8693C158.587 44.0114 158.182 44.0824 157.709 44.0824C157.239 44.0824 156.83 44.0104 156.482 43.8665C156.135 43.7225 155.864 43.5095 155.669 43.2273C155.476 42.9432 155.375 42.5919 155.365 42.1733H156.555C156.569 42.3684 156.625 42.5312 156.723 42.6619C156.823 42.7907 156.957 42.8883 157.124 42.9545C157.292 43.0189 157.482 43.0511 157.695 43.0511C157.903 43.0511 158.084 43.0208 158.237 42.9602C158.393 42.8996 158.513 42.8153 158.598 42.7074C158.683 42.5994 158.726 42.4754 158.726 42.3352C158.726 42.2045 158.687 42.0947 158.609 42.0057C158.534 41.9167 158.422 41.8409 158.274 41.7784C158.128 41.7159 157.949 41.6591 157.737 41.608L157.104 41.4489C156.613 41.3295 156.226 41.143 155.942 40.8892C155.658 40.6354 155.517 40.2936 155.518 39.8636C155.517 39.5114 155.61 39.2036 155.8 38.9403C155.991 38.6771 156.253 38.4716 156.587 38.3239C156.92 38.1761 157.299 38.1023 157.723 38.1023C158.155 38.1023 158.532 38.1761 158.854 38.3239C159.178 38.4716 159.429 38.6771 159.609 38.9403C159.789 39.2036 159.882 39.5085 159.888 39.8551H158.709ZM162.016 44.0824C161.738 44.0824 161.49 44.0341 161.272 43.9375C161.054 43.839 160.882 43.6941 160.755 43.5028C160.63 43.3097 160.567 43.0691 160.567 42.7812C160.567 42.5388 160.612 42.3352 160.701 42.1705C160.79 42.0057 160.911 41.8731 161.065 41.7727C161.218 41.6723 161.392 41.5966 161.587 41.5455C161.784 41.4943 161.991 41.4583 162.207 41.4375C162.46 41.411 162.665 41.3864 162.82 41.3636C162.976 41.339 163.088 41.303 163.158 41.2557C163.228 41.2083 163.263 41.1383 163.263 41.0455V41.0284C163.263 40.8485 163.207 40.7093 163.093 40.6108C162.981 40.5123 162.822 40.4631 162.616 40.4631C162.398 40.4631 162.225 40.5114 162.096 40.608C161.967 40.7027 161.882 40.822 161.84 40.9659L160.721 40.875C160.778 40.6098 160.889 40.3807 161.056 40.1875C161.223 39.9924 161.438 39.8428 161.701 39.7386C161.966 39.6326 162.273 39.5795 162.621 39.5795C162.864 39.5795 163.096 39.608 163.317 39.6648C163.541 39.7216 163.739 39.8097 163.911 39.929C164.085 40.0483 164.223 40.2017 164.323 40.3892C164.424 40.5748 164.474 40.7973 164.474 41.0568V44H163.326V43.3949H163.292C163.222 43.5312 163.128 43.6515 163.011 43.7557C162.893 43.858 162.752 43.9384 162.587 43.9972C162.423 44.054 162.232 44.0824 162.016 44.0824ZM162.363 43.2472C162.541 43.2472 162.698 43.2121 162.835 43.142C162.971 43.0701 163.078 42.9735 163.156 42.8523C163.233 42.7311 163.272 42.5937 163.272 42.4403V41.9773C163.234 42.0019 163.182 42.0246 163.116 42.0455C163.051 42.0644 162.978 42.0824 162.897 42.0994C162.816 42.1146 162.734 42.1288 162.653 42.142C162.571 42.1534 162.497 42.1638 162.431 42.1733C162.289 42.1941 162.165 42.2273 162.059 42.2727C161.953 42.3182 161.871 42.3797 161.812 42.4574C161.753 42.5331 161.724 42.6278 161.724 42.7415C161.724 42.9062 161.783 43.0322 161.903 43.1193C162.024 43.2045 162.177 43.2472 162.363 43.2472ZM165.413 44V39.6364H166.566V40.4062H166.617C166.708 40.1506 166.86 39.9489 167.072 39.8011C167.284 39.6534 167.538 39.5795 167.833 39.5795C168.132 39.5795 168.387 39.6544 168.597 39.804C168.808 39.9517 168.948 40.1525 169.018 40.4062H169.063C169.152 40.1562 169.313 39.9564 169.546 39.8068C169.781 39.6553 170.058 39.5795 170.379 39.5795C170.786 39.5795 171.116 39.7093 171.37 39.9688C171.626 40.2263 171.754 40.5919 171.754 41.0653V44H170.546V41.304C170.546 41.0616 170.482 40.8797 170.353 40.7585C170.224 40.6373 170.063 40.5767 169.87 40.5767C169.65 40.5767 169.479 40.6468 169.356 40.7869C169.233 40.9252 169.171 41.108 169.171 41.3352V44H167.998V41.2784C167.998 41.0644 167.936 40.8939 167.813 40.767C167.692 40.6402 167.532 40.5767 167.333 40.5767C167.199 40.5767 167.077 40.6108 166.969 40.679C166.863 40.7453 166.779 40.839 166.717 40.9602C166.654 41.0795 166.623 41.2197 166.623 41.3807V44H165.413ZM172.71 45.6364V39.6364H173.903V40.3693H173.957C174.01 40.2519 174.086 40.1326 174.187 40.0114C174.289 39.8883 174.422 39.786 174.585 39.7045C174.749 39.6212 174.954 39.5795 175.198 39.5795C175.516 39.5795 175.81 39.6629 176.079 39.8295C176.348 39.9943 176.563 40.2434 176.724 40.5767C176.885 40.9081 176.965 41.3239 176.965 41.8239C176.965 42.3106 176.887 42.7216 176.729 43.0568C176.574 43.3902 176.362 43.643 176.093 43.8153C175.826 43.9858 175.527 44.071 175.195 44.071C174.96 44.071 174.761 44.0322 174.596 43.9545C174.433 43.8769 174.299 43.7794 174.195 43.6619C174.091 43.5426 174.012 43.4223 173.957 43.3011H173.92V45.6364H172.71ZM173.894 41.8182C173.894 42.0777 173.93 42.304 174.002 42.4972C174.074 42.6903 174.178 42.8409 174.315 42.9489C174.451 43.0549 174.617 43.108 174.812 43.108C175.009 43.108 175.175 43.054 175.312 42.946C175.448 42.8362 175.551 42.6847 175.621 42.4915C175.693 42.2964 175.729 42.072 175.729 41.8182C175.729 41.5663 175.694 41.3447 175.624 41.1534C175.554 40.9621 175.451 40.8125 175.315 40.7045C175.178 40.5966 175.011 40.5426 174.812 40.5426C174.615 40.5426 174.448 40.5947 174.312 40.6989C174.177 40.803 174.074 40.9508 174.002 41.142C173.93 41.3333 173.894 41.5587 173.894 41.8182ZM178.982 38.1818V44H177.772V38.1818H178.982ZM181.94 44.0852C181.491 44.0852 181.105 43.9943 180.781 43.8125C180.459 43.6288 180.211 43.3693 180.037 43.0341C179.863 42.697 179.776 42.2983 179.776 41.8381C179.776 41.3892 179.863 40.9953 180.037 40.6562C180.211 40.3172 180.456 40.053 180.773 39.8636C181.091 39.6742 181.464 39.5795 181.892 39.5795C182.18 39.5795 182.448 39.6259 182.696 39.7188C182.946 39.8097 183.164 39.947 183.349 40.1307C183.537 40.3144 183.683 40.5455 183.787 40.8239C183.891 41.1004 183.943 41.4242 183.943 41.7955V42.1278H180.259V41.3778H182.804C182.804 41.2036 182.766 41.0492 182.69 40.9148C182.615 40.7803 182.509 40.6752 182.375 40.5994C182.242 40.5218 182.088 40.483 181.912 40.483C181.728 40.483 181.565 40.5256 181.423 40.6108C181.283 40.6941 181.173 40.8068 181.094 40.9489C181.014 41.089 180.973 41.2453 180.972 41.4176V42.1307C180.972 42.3466 181.011 42.5331 181.091 42.6903C181.172 42.8475 181.287 42.9688 181.435 43.054C181.582 43.1392 181.758 43.1818 181.96 43.1818C182.095 43.1818 182.218 43.1629 182.33 43.125C182.441 43.0871 182.537 43.0303 182.616 42.9545C182.696 42.8788 182.757 42.786 182.798 42.6761L183.918 42.75C183.861 43.0189 183.744 43.2538 183.568 43.4545C183.394 43.6534 183.169 43.8087 182.892 43.9205C182.617 44.0303 182.3 44.0852 181.94 44.0852ZM189.057 39.6364V40.2045H186.705V39.6364H189.057ZM187.409 44V39.0341C187.409 38.7841 187.468 38.5758 187.585 38.4091C187.703 38.2424 187.855 38.1174 188.043 38.0341C188.23 37.9508 188.428 37.9091 188.636 37.9091C188.801 37.9091 188.936 37.9223 189.04 37.9489C189.144 37.9754 189.222 38 189.273 38.0227L189.08 38.6023C189.045 38.5909 188.998 38.5767 188.938 38.5597C188.879 38.5426 188.801 38.5341 188.705 38.5341C188.483 38.5341 188.323 38.59 188.224 38.7017C188.128 38.8134 188.08 38.9773 188.08 39.1932V44H187.409ZM189.996 44V39.6364H190.644V40.2955H190.69C190.769 40.0795 190.913 39.9044 191.121 39.7699C191.33 39.6354 191.565 39.5682 191.826 39.5682C191.875 39.5682 191.937 39.5691 192.011 39.571C192.085 39.5729 192.14 39.5758 192.178 39.5795V40.2614C192.156 40.2557 192.103 40.2472 192.022 40.2358C191.942 40.2225 191.858 40.2159 191.769 40.2159C191.557 40.2159 191.368 40.2604 191.201 40.3494C191.036 40.4366 190.906 40.5578 190.809 40.7131C190.714 40.8665 190.667 41.0417 190.667 41.2386V44H189.996ZM194.613 44.0909C194.219 44.0909 193.873 43.9972 193.576 43.8097C193.281 43.6222 193.049 43.3598 192.883 43.0227C192.718 42.6856 192.636 42.2917 192.636 41.8409C192.636 41.3864 192.718 40.9896 192.883 40.6506C193.049 40.3116 193.281 40.0483 193.576 39.8608C193.873 39.6733 194.219 39.5795 194.613 39.5795C195.007 39.5795 195.352 39.6733 195.647 39.8608C195.944 40.0483 196.175 40.3116 196.34 40.6506C196.507 40.9896 196.59 41.3864 196.59 41.8409C196.59 42.2917 196.507 42.6856 196.34 43.0227C196.175 43.3598 195.944 43.6222 195.647 43.8097C195.352 43.9972 195.007 44.0909 194.613 44.0909ZM194.613 43.4886C194.912 43.4886 195.158 43.4119 195.352 43.2585C195.545 43.1051 195.688 42.9034 195.781 42.6534C195.873 42.4034 195.92 42.1326 195.92 41.8409C195.92 41.5492 195.873 41.2775 195.781 41.0256C195.688 40.7737 195.545 40.5701 195.352 40.4148C195.158 40.2595 194.912 40.1818 194.613 40.1818C194.314 40.1818 194.067 40.2595 193.874 40.4148C193.681 40.5701 193.538 40.7737 193.445 41.0256C193.353 41.2775 193.306 41.5492 193.306 41.8409C193.306 42.1326 193.353 42.4034 193.445 42.6534C193.538 42.9034 193.681 43.1051 193.874 43.2585C194.067 43.4119 194.314 43.4886 194.613 43.4886ZM197.614 44V39.6364H198.261V40.3182H198.318C198.409 40.0852 198.556 39.9044 198.759 39.7756C198.961 39.6449 199.205 39.5795 199.489 39.5795C199.777 39.5795 200.016 39.6449 200.207 39.7756C200.401 39.9044 200.551 40.0852 200.659 40.3182H200.705C200.816 40.0928 200.984 39.9138 201.207 39.7812C201.431 39.6468 201.699 39.5795 202.011 39.5795C202.402 39.5795 202.721 39.7017 202.969 39.946C203.217 40.1884 203.341 40.5663 203.341 41.0795V44H202.67V41.0795C202.67 40.7576 202.582 40.5275 202.406 40.3892C202.23 40.2509 202.023 40.1818 201.784 40.1818C201.477 40.1818 201.24 40.2746 201.071 40.4602C200.902 40.6439 200.818 40.8769 200.818 41.1591V44H200.136V41.0114C200.136 40.7633 200.056 40.5634 199.895 40.4119C199.734 40.2585 199.527 40.1818 199.273 40.1818C199.098 40.1818 198.936 40.2282 198.784 40.321C198.634 40.4138 198.513 40.5426 198.42 40.7074C198.33 40.8703 198.284 41.0587 198.284 41.2727V44H197.614ZM163.773 49.6364L163.683 50.2045H161.421L161.512 49.6364H163.773ZM162.342 48.5909H163.012L162.319 52.75C162.289 52.9394 162.293 53.0814 162.333 53.1761C162.375 53.2689 162.437 53.3314 162.521 53.3636C162.606 53.3939 162.698 53.4091 162.796 53.4091C162.87 53.4091 162.931 53.4053 162.978 53.3977C163.025 53.3883 163.063 53.3807 163.092 53.375L163.137 53.9773C163.086 53.9943 163.017 54.0114 162.93 54.0284C162.844 54.0473 162.739 54.0568 162.614 54.0568C162.425 54.0568 162.247 54.0161 162.08 53.9347C161.914 53.8532 161.786 53.7292 161.697 53.5625C161.608 53.3958 161.584 53.1856 161.626 52.9318L162.342 48.5909ZM164.055 54L164.782 49.6364H165.452L164.725 54H164.055ZM165.322 48.8977C165.191 48.8977 165.078 48.8532 164.984 48.7642C164.891 48.6752 164.844 48.5682 164.844 48.4432C164.844 48.3182 164.891 48.2112 164.984 48.1222C165.078 48.0331 165.191 47.9886 165.322 47.9886C165.452 47.9886 165.564 48.0331 165.657 48.1222C165.752 48.2112 165.799 48.3182 165.799 48.4432C165.799 48.5682 165.752 48.6752 165.657 48.7642C165.564 48.8532 165.452 48.8977 165.322 48.8977ZM165.953 54L166.68 49.6364H167.328L167.214 50.3182H167.271C167.402 50.0852 167.579 49.9044 167.803 49.7756C168.028 49.6449 168.283 49.5795 168.567 49.5795C168.851 49.5795 169.079 49.6449 169.251 49.7756C169.424 49.9044 169.544 50.0852 169.612 50.3182H169.658C169.805 50.0909 170.002 49.911 170.249 49.7784C170.497 49.6458 170.777 49.5795 171.089 49.5795C171.476 49.5795 171.773 49.7017 171.982 49.946C172.192 50.1903 172.254 50.5682 172.169 51.0795L171.68 54H171.01L171.499 51.0795C171.55 50.7557 171.499 50.5256 171.345 50.3892C171.194 50.2509 170.999 50.1818 170.76 50.1818C170.453 50.1818 170.2 50.2737 170.001 50.4574C169.803 50.6411 169.68 50.875 169.635 51.1591L169.158 54H168.476L168.976 51.0114C169.016 50.7614 168.968 50.5606 168.834 50.4091C168.699 50.2576 168.504 50.1818 168.249 50.1818C168.074 50.1818 167.904 50.2292 167.737 50.3239C167.571 50.4167 167.428 50.5455 167.308 50.7102C167.189 50.8731 167.112 51.0606 167.078 51.2727L166.624 54H165.953ZM174.724 54.0909C174.306 54.0909 173.96 53.9981 173.688 53.8125C173.415 53.625 173.224 53.3636 173.116 53.0284C173.009 52.6913 172.991 52.2992 173.065 51.8523C173.139 51.4053 173.286 51.0114 173.506 50.6705C173.725 50.3277 173.999 50.0606 174.327 49.8693C174.654 49.6761 175.014 49.5795 175.406 49.5795C175.634 49.5795 175.852 49.6174 176.062 49.6932C176.273 49.7689 176.455 49.892 176.608 50.0625C176.761 50.2311 176.868 50.4545 176.929 50.733C176.99 51.0114 176.986 51.3542 176.918 51.7614L176.872 52.0455H173.509L173.599 51.4659H176.281C176.325 51.2197 176.313 51 176.247 50.8068C176.183 50.6136 176.07 50.4612 175.909 50.3494C175.75 50.2377 175.548 50.1818 175.304 50.1818C175.052 50.1818 174.817 50.25 174.599 50.3864C174.382 50.5208 174.2 50.6913 174.054 50.8977C173.908 51.1023 173.817 51.3106 173.781 51.5227L173.702 52.0227C173.645 52.3845 173.653 52.6723 173.727 52.8864C173.803 53.1004 173.935 53.2547 174.122 53.3494C174.31 53.4422 174.545 53.4886 174.827 53.4886C175.007 53.4886 175.172 53.464 175.324 53.4148C175.475 53.3636 175.611 53.2879 175.73 53.1875C175.849 53.0852 175.95 52.9583 176.031 52.8068L176.645 52.9886C176.541 53.2083 176.394 53.4015 176.205 53.5682C176.017 53.733 175.797 53.8617 175.545 53.9545C175.295 54.0455 175.022 54.0909 174.724 54.0909ZM181.237 50.6136L180.601 50.7841C180.578 50.6818 180.538 50.5833 180.482 50.4886C180.427 50.392 180.341 50.3134 180.226 50.2528C180.112 50.1903 179.957 50.1591 179.76 50.1591C179.493 50.1591 179.261 50.2206 179.064 50.3438C178.867 50.465 178.754 50.6193 178.726 50.8068C178.697 50.9716 178.735 51.1032 178.839 51.2017C178.944 51.3002 179.118 51.3807 179.362 51.4432L179.987 51.6023C180.362 51.6989 180.629 51.8437 180.788 52.0369C180.949 52.2282 181.004 52.4773 180.953 52.7841C180.911 53.0341 180.803 53.2576 180.626 53.4545C180.45 53.6515 180.225 53.8068 179.95 53.9205C179.676 54.0341 179.37 54.0909 179.033 54.0909C178.584 54.0909 178.23 53.9943 177.97 53.8011C177.711 53.6061 177.572 53.3239 177.555 52.9545L178.226 52.7955C178.243 53.0284 178.326 53.2045 178.476 53.3239C178.627 53.4413 178.839 53.5 179.112 53.5C179.425 53.5 179.685 53.4337 179.893 53.3011C180.102 53.1667 180.22 53.0057 180.249 52.8182C180.277 52.6648 180.247 52.5369 180.158 52.4347C180.071 52.3324 179.919 52.2557 179.703 52.2045L179.01 52.0341C178.624 51.9375 178.353 51.7898 178.197 51.5909C178.044 51.392 177.993 51.142 178.044 50.8409C178.086 50.5947 178.192 50.3769 178.362 50.1875C178.535 49.9981 178.75 49.8494 179.01 49.7415C179.271 49.6335 179.555 49.5795 179.862 49.5795C180.294 49.5795 180.617 49.6742 180.831 49.8636C181.045 50.0511 181.18 50.3011 181.237 50.6136ZM184.383 49.6364L184.292 50.2045H182.031L182.121 49.6364H184.383ZM182.951 48.5909H183.621L182.928 52.75C182.898 52.9394 182.903 53.0814 182.942 53.1761C182.984 53.2689 183.047 53.3314 183.13 53.3636C183.215 53.3939 183.307 53.4091 183.406 53.4091C183.479 53.4091 183.54 53.4053 183.587 53.3977C183.635 53.3883 183.673 53.3807 183.701 53.375L183.746 53.9773C183.695 53.9943 183.626 54.0114 183.539 54.0284C183.454 54.0473 183.349 54.0568 183.224 54.0568C183.034 54.0568 182.856 54.0161 182.69 53.9347C182.523 53.8532 182.395 53.7292 182.306 53.5625C182.217 53.3958 182.193 53.1856 182.235 52.9318L182.951 48.5909ZM186.435 54.0909C186.017 54.0909 185.671 53.9981 185.398 53.8125C185.126 53.625 184.935 53.3636 184.827 53.0284C184.719 52.6913 184.702 52.2992 184.776 51.8523C184.85 51.4053 184.997 51.0114 185.217 50.6705C185.436 50.3277 185.71 50.0606 186.038 49.8693C186.365 49.6761 186.725 49.5795 187.117 49.5795C187.344 49.5795 187.563 49.6174 187.773 49.6932C187.984 49.7689 188.165 49.892 188.319 50.0625C188.472 50.2311 188.579 50.4545 188.64 50.733C188.701 51.0114 188.697 51.3542 188.629 51.7614L188.583 52.0455H185.219L185.31 51.4659H187.992C188.036 51.2197 188.024 51 187.958 50.8068C187.894 50.6136 187.781 50.4612 187.62 50.3494C187.461 50.2377 187.259 50.1818 187.015 50.1818C186.763 50.1818 186.528 50.25 186.31 50.3864C186.093 50.5208 185.911 50.6913 185.765 50.8977C185.619 51.1023 185.528 51.3106 185.492 51.5227L185.413 52.0227C185.356 52.3845 185.364 52.6723 185.438 52.8864C185.514 53.1004 185.646 53.2547 185.833 53.3494C186.021 53.4422 186.255 53.4886 186.538 53.4886C186.718 53.4886 186.883 53.464 187.035 53.4148C187.186 53.3636 187.322 53.2879 187.441 53.1875C187.56 53.0852 187.661 52.9583 187.742 52.8068L188.356 52.9886C188.252 53.2083 188.105 53.4015 187.915 53.5682C187.728 53.733 187.508 53.8617 187.256 53.9545C187.006 54.0455 186.733 54.0909 186.435 54.0909ZM189.016 55.6364L190.022 49.6364H190.67L190.556 50.3295H190.636C190.696 50.2538 190.78 50.1572 190.886 50.0398C190.994 49.9205 191.138 49.8144 191.32 49.7216C191.504 49.6269 191.738 49.5795 192.022 49.5795C192.389 49.5795 192.697 49.6714 192.945 49.8551C193.193 50.0388 193.369 50.2992 193.471 50.6364C193.573 50.9735 193.586 51.3712 193.511 51.8295C193.435 52.2917 193.29 52.6922 193.076 53.0312C192.862 53.3684 192.601 53.6297 192.292 53.8153C191.983 53.9991 191.647 54.0909 191.283 54.0909C191.003 54.0909 190.786 54.0445 190.633 53.9517C190.479 53.857 190.368 53.75 190.298 53.6307C190.228 53.5095 190.174 53.4091 190.136 53.3295H190.079L189.692 55.6364H189.016ZM190.317 51.8182C190.264 52.1477 190.264 52.4384 190.317 52.6903C190.372 52.9403 190.481 53.1364 190.644 53.2784C190.809 53.4186 191.026 53.4886 191.295 53.4886C191.575 53.4886 191.82 53.4148 192.031 53.267C192.243 53.1174 192.417 52.9167 192.553 52.6648C192.692 52.411 192.787 52.1288 192.84 51.8182C192.889 51.5114 192.888 51.2348 192.835 50.9886C192.781 50.7405 192.674 50.5445 192.511 50.4006C192.348 50.2547 192.124 50.1818 191.84 50.1818C191.567 50.1818 191.326 50.2509 191.116 50.3892C190.907 50.5256 190.735 50.7169 190.599 50.9631C190.464 51.2074 190.371 51.4924 190.317 51.8182ZM197.831 50.6136L197.195 50.7841C197.172 50.6818 197.132 50.5833 197.075 50.4886C197.02 50.392 196.935 50.3134 196.82 50.2528C196.706 50.1903 196.551 50.1591 196.354 50.1591C196.087 50.1591 195.855 50.2206 195.658 50.3438C195.461 50.465 195.348 50.6193 195.32 50.8068C195.291 50.9716 195.329 51.1032 195.433 51.2017C195.537 51.3002 195.712 51.3807 195.956 51.4432L196.581 51.6023C196.956 51.6989 197.223 51.8437 197.382 52.0369C197.543 52.2282 197.598 52.4773 197.547 52.7841C197.505 53.0341 197.396 53.2576 197.22 53.4545C197.044 53.6515 196.819 53.8068 196.544 53.9205C196.269 54.0341 195.964 54.0909 195.626 54.0909C195.178 54.0909 194.823 53.9943 194.564 53.8011C194.304 53.6061 194.166 53.3239 194.149 52.9545L194.82 52.7955C194.837 53.0284 194.92 53.2045 195.07 53.3239C195.221 53.4413 195.433 53.5 195.706 53.5C196.018 53.5 196.279 53.4337 196.487 53.3011C196.696 53.1667 196.814 53.0057 196.842 52.8182C196.871 52.6648 196.84 52.5369 196.751 52.4347C196.664 52.3324 196.513 52.2557 196.297 52.2045L195.604 52.0341C195.217 51.9375 194.946 51.7898 194.791 51.5909C194.638 51.392 194.587 51.142 194.638 50.8409C194.679 50.5947 194.786 50.3769 194.956 50.1875C195.128 49.9981 195.344 49.8494 195.604 49.7415C195.865 49.6335 196.149 49.5795 196.456 49.5795C196.888 49.5795 197.211 49.6742 197.425 49.8636C197.639 50.0511 197.774 50.3011 197.831 50.6136Z" fill="#505050"/>
<line x1="9.5" y1="33" x2="9.5" y2="92" stroke="#505050"/>
<line x1="149" y1="92.5" x2="4" y2="92.5" stroke="#505050"/>
<path d="M211 59L201 53.2265L201 64.7735L211 59ZM152 60L202 60L202 58L152 58L152 60Z" fill="#505050" fill-opacity="0.5"/>
<path d="M9.5 42C21.2157 48.0531 27.7843 51.4469 39.5 57.5C51.2157 63.5531 57.5313 42.7164 69 45.5C81.1694 48.4536 87.5046 72.826 100 72C112.077 71.2016 129.5 62.5 129.5 62.5" stroke="#743BBE"/>
<path d="M275.643 18.3636C275.643 17.4687 275.759 16.6461 275.991 15.8956C276.226 15.1428 276.56 14.4503 276.993 13.8182H277.732C277.561 14.0526 277.401 14.3414 277.252 14.6847C277.105 15.0256 276.976 15.4008 276.865 15.8104C276.754 16.2176 276.666 16.639 276.602 17.0746C276.541 17.5102 276.51 17.9399 276.51 18.3636C276.51 18.9271 276.564 19.4988 276.673 20.0788C276.782 20.6589 276.929 21.1974 277.114 21.6946C277.298 22.1918 277.504 22.5966 277.732 22.9091H276.993C276.56 22.277 276.226 21.5857 275.991 20.8352C275.759 20.0824 275.643 19.2585 275.643 18.3636ZM313.356 18.9318C313.356 19.8267 313.238 20.6506 313.004 21.4034C312.772 22.1539 312.439 22.8452 312.006 23.4773H311.268C311.438 23.2429 311.597 22.9541 311.743 22.6108C311.893 22.2699 312.023 21.8958 312.134 21.4886C312.245 21.0791 312.332 20.6565 312.393 20.2209C312.457 19.7829 312.489 19.3532 312.489 18.9318C312.489 18.3684 312.435 17.7966 312.326 17.2166C312.217 16.6366 312.07 16.098 311.885 15.6009C311.701 15.1037 311.495 14.6989 311.268 14.3864H312.006C312.439 15.0185 312.772 15.7109 313.004 16.4638C313.238 17.2143 313.356 18.0369 313.356 18.9318Z" fill="#505050"/>
<path d="M285.218 18.3636C285.218 19.1307 285.08 19.7936 284.803 20.3523C284.526 20.911 284.146 21.3419 283.663 21.6449C283.18 21.9479 282.628 22.0994 282.008 22.0994C281.388 22.0994 280.836 21.9479 280.353 21.6449C279.87 21.3419 279.49 20.911 279.213 20.3523C278.936 19.7936 278.798 19.1307 278.798 18.3636C278.798 17.5966 278.936 16.9337 279.213 16.375C279.49 15.8163 279.87 15.3854 280.353 15.0824C280.836 14.7794 281.388 14.6278 282.008 14.6278C282.628 14.6278 283.18 14.7794 283.663 15.0824C284.146 15.3854 284.526 15.8163 284.803 16.375C285.08 16.9337 285.218 17.5966 285.218 18.3636ZM284.366 18.3636C284.366 17.7339 284.261 17.2024 284.05 16.7692C283.842 16.3359 283.559 16.008 283.201 15.7855C282.846 15.563 282.448 15.4517 282.008 15.4517C281.568 15.4517 281.169 15.563 280.811 15.7855C280.456 16.008 280.173 16.3359 279.963 16.7692C279.754 17.2024 279.65 17.7339 279.65 18.3636C279.65 18.9934 279.754 19.5249 279.963 19.9581C280.173 20.3913 280.456 20.7192 280.811 20.9418C281.169 21.1643 281.568 21.2756 282.008 21.2756C282.448 21.2756 282.846 21.1643 283.201 20.9418C283.559 20.7192 283.842 20.3913 284.05 19.9581C284.261 19.5249 284.366 18.9934 284.366 18.3636ZM290.023 19.7699V16.5455H290.861V22H290.023V21.0767H289.966C289.838 21.3537 289.639 21.5893 289.369 21.7834C289.1 21.9751 288.759 22.071 288.347 22.071C288.006 22.071 287.703 21.9964 287.438 21.8473C287.173 21.6958 286.964 21.4685 286.813 21.1655C286.661 20.8601 286.585 20.4754 286.585 20.0114V16.5455H287.423V19.9545C287.423 20.3523 287.535 20.6695 287.757 20.9062C287.982 21.143 288.269 21.2614 288.617 21.2614C288.825 21.2614 289.037 21.2081 289.252 21.1016C289.47 20.995 289.652 20.8317 289.799 20.6115C289.948 20.3913 290.023 20.1108 290.023 19.7699ZM294.768 16.5455V17.2557H291.941V16.5455H294.768ZM292.765 15.2386H293.603V20.4375C293.603 20.6742 293.638 20.8518 293.706 20.9702C293.777 21.0862 293.867 21.1643 293.976 21.2045C294.087 21.2424 294.205 21.2614 294.328 21.2614C294.42 21.2614 294.496 21.2566 294.555 21.2472C294.614 21.2353 294.662 21.2259 294.697 21.2188L294.868 21.9716C294.811 21.9929 294.731 22.0142 294.63 22.0355C294.528 22.0592 294.399 22.071 294.243 22.071C294.006 22.071 293.774 22.0201 293.547 21.9183C293.322 21.8165 293.135 21.6615 292.985 21.4531C292.839 21.2448 292.765 20.982 292.765 20.6648V15.2386ZM296.029 24.0455V16.5455H296.838V17.4119H296.938C296.999 17.3172 297.085 17.1965 297.194 17.0497C297.305 16.9006 297.463 16.768 297.669 16.652C297.878 16.5336 298.159 16.4744 298.515 16.4744C298.974 16.4744 299.379 16.5893 299.729 16.8189C300.079 17.0485 300.353 17.3741 300.549 17.7955C300.746 18.2169 300.844 18.714 300.844 19.2869C300.844 19.8646 300.746 20.3653 300.549 20.7891C300.353 21.2105 300.081 21.5372 299.733 21.7692C299.385 21.9988 298.983 22.1136 298.529 22.1136C298.178 22.1136 297.898 22.0556 297.687 21.9396C297.476 21.8213 297.314 21.6875 297.201 21.5384C297.087 21.3868 296.999 21.2614 296.938 21.1619H296.867V24.0455H296.029ZM296.853 19.2727C296.853 19.6847 296.913 20.0481 297.034 20.3629C297.154 20.6754 297.331 20.9205 297.563 21.098C297.795 21.2732 298.079 21.3608 298.415 21.3608C298.766 21.3608 299.058 21.2685 299.292 21.0838C299.529 20.8968 299.707 20.6458 299.825 20.331C299.946 20.0137 300.006 19.661 300.006 19.2727C300.006 18.8892 299.947 18.5436 299.828 18.2358C299.712 17.9257 299.536 17.6806 299.299 17.5007C299.065 17.3184 298.77 17.2273 298.415 17.2273C298.074 17.2273 297.788 17.3137 297.556 17.4865C297.324 17.657 297.149 17.8961 297.03 18.2038C296.912 18.5092 296.853 18.8655 296.853 19.2727ZM305.56 19.7699V16.5455H306.398V22H305.56V21.0767H305.503C305.375 21.3537 305.176 21.5893 304.907 21.7834C304.637 21.9751 304.296 22.071 303.884 22.071C303.543 22.071 303.24 21.9964 302.975 21.8473C302.71 21.6958 302.501 21.4685 302.35 21.1655C302.198 20.8601 302.123 20.4754 302.123 20.0114V16.5455H302.961V19.9545C302.961 20.3523 303.072 20.6695 303.294 20.9062C303.519 21.143 303.806 21.2614 304.154 21.2614C304.362 21.2614 304.574 21.2081 304.789 21.1016C305.007 20.995 305.19 20.8317 305.336 20.6115C305.485 20.3913 305.56 20.1108 305.56 19.7699ZM310.305 16.5455V17.2557H307.479V16.5455H310.305ZM308.302 15.2386H309.14V20.4375C309.14 20.6742 309.175 20.8518 309.243 20.9702C309.314 21.0862 309.404 21.1643 309.513 21.2045C309.625 21.2424 309.742 21.2614 309.865 21.2614C309.957 21.2614 310.033 21.2566 310.092 21.2472C310.151 21.2353 310.199 21.2259 310.234 21.2188L310.405 21.9716C310.348 21.9929 310.269 22.0142 310.167 22.0355C310.065 22.0592 309.936 22.071 309.78 22.071C309.543 22.071 309.311 22.0201 309.084 21.9183C308.859 21.8165 308.672 21.6615 308.523 21.4531C308.376 21.2448 308.302 20.982 308.302 20.6648V15.2386Z" fill="#743BBE"/>
<path d="M275.901 107.672V106.727H281.53V107.672H279.261V114H278.167V107.672H275.901ZM282.688 114V108.545H283.75V114H282.688ZM283.225 107.704C283.04 107.704 282.881 107.642 282.749 107.519C282.619 107.394 282.553 107.245 282.553 107.072C282.553 106.897 282.619 106.747 282.749 106.624C282.881 106.499 283.04 106.436 283.225 106.436C283.409 106.436 283.567 106.499 283.697 106.624C283.829 106.747 283.896 106.897 283.896 107.072C283.896 107.245 283.829 107.394 283.697 107.519C283.567 107.642 283.409 107.704 283.225 107.704ZM285.179 114V108.545H286.198V109.433H286.265C286.379 109.133 286.565 108.898 286.823 108.73C287.081 108.56 287.39 108.474 287.75 108.474C288.114 108.474 288.42 108.56 288.666 108.73C288.914 108.901 289.098 109.135 289.216 109.433H289.273C289.403 109.142 289.61 108.91 289.895 108.737C290.179 108.562 290.517 108.474 290.91 108.474C291.405 108.474 291.809 108.629 292.121 108.94C292.436 109.25 292.593 109.717 292.593 110.342V114H291.532V110.442C291.532 110.072 291.431 109.805 291.23 109.639C291.029 109.473 290.788 109.391 290.509 109.391C290.163 109.391 289.895 109.497 289.703 109.71C289.511 109.921 289.415 110.192 289.415 110.523V114H288.357V110.374C288.357 110.078 288.265 109.84 288.08 109.661C287.895 109.481 287.655 109.391 287.359 109.391C287.158 109.391 286.972 109.444 286.801 109.55C286.633 109.655 286.497 109.8 286.393 109.987C286.291 110.174 286.24 110.391 286.24 110.637V114H285.179ZM296.367 114.11C295.83 114.11 295.367 113.995 294.979 113.766C294.593 113.534 294.295 113.208 294.084 112.789C293.876 112.368 293.771 111.874 293.771 111.308C293.771 110.75 293.876 110.257 294.084 109.831C294.295 109.405 294.588 109.072 294.965 108.833C295.343 108.594 295.786 108.474 296.293 108.474C296.601 108.474 296.899 108.525 297.188 108.627C297.477 108.729 297.736 108.889 297.965 109.107C298.195 109.324 298.376 109.607 298.509 109.955C298.641 110.301 298.708 110.721 298.708 111.216V111.592H294.372V110.797H297.667C297.667 110.518 297.61 110.27 297.497 110.055C297.383 109.837 297.223 109.665 297.017 109.54C296.814 109.414 296.575 109.352 296.3 109.352C296.002 109.352 295.741 109.425 295.519 109.572C295.298 109.716 295.128 109.906 295.007 110.14C294.889 110.372 294.83 110.624 294.83 110.896V111.518C294.83 111.882 294.894 112.192 295.021 112.448C295.152 112.704 295.333 112.899 295.565 113.034C295.797 113.167 296.068 113.233 296.378 113.233C296.579 113.233 296.763 113.205 296.928 113.148C297.094 113.089 297.237 113.001 297.358 112.885C297.479 112.769 297.571 112.626 297.635 112.455L298.64 112.636C298.56 112.932 298.415 113.192 298.207 113.414C298.001 113.634 297.742 113.806 297.429 113.929C297.119 114.05 296.765 114.11 296.367 114.11ZM305.533 108.545L305.394 109.398H302.415L302.553 108.545H305.533ZM303.566 107.239H304.627L303.768 112.398C303.735 112.604 303.741 112.759 303.786 112.864C303.831 112.965 303.899 113.035 303.992 113.073C304.086 113.109 304.192 113.126 304.308 113.126C304.393 113.126 304.468 113.121 304.531 113.109C304.595 113.097 304.646 113.087 304.684 113.08L304.741 113.957C304.67 113.981 304.574 114.005 304.453 114.028C304.335 114.054 304.191 114.069 304.02 114.071C303.741 114.076 303.489 114.026 303.264 113.922C303.039 113.815 302.871 113.654 302.759 113.439C302.648 113.221 302.621 112.948 302.678 112.619L303.566 107.239Z" fill="#505050"/>
<path d="M229 102.08C228.572 102.08 228.207 101.963 227.906 101.73C227.605 101.495 227.375 101.155 227.216 100.71C227.057 100.263 226.977 99.7235 226.977 99.0909C226.977 98.4621 227.057 97.9252 227.216 97.4801C227.377 97.0331 227.608 96.6922 227.909 96.4574C228.212 96.2206 228.576 96.1023 229 96.1023C229.424 96.1023 229.787 96.2206 230.088 96.4574C230.391 96.6922 230.622 97.0331 230.781 97.4801C230.942 97.9252 231.023 98.4621 231.023 99.0909C231.023 99.7235 230.943 100.263 230.784 100.71C230.625 101.155 230.395 101.495 230.094 101.73C229.793 101.963 229.428 102.08 229 102.08ZM229 101.455C229.424 101.455 229.754 101.25 229.989 100.841C230.223 100.432 230.341 99.8485 230.341 99.0909C230.341 98.5871 230.287 98.1581 230.179 97.804C230.073 97.4498 229.92 97.1799 229.719 96.9943C229.52 96.8087 229.28 96.7159 229 96.7159C228.58 96.7159 228.251 96.9233 228.014 97.3381C227.777 97.7509 227.659 98.3352 227.659 99.0909C227.659 99.5947 227.712 100.023 227.818 100.375C227.924 100.727 228.077 100.995 228.276 101.179C228.476 101.363 228.718 101.455 229 101.455Z" fill="#505050"/>
<path d="M259.788 96.1818V102H259.084V96.9205H259.05L257.629 97.8636V97.1477L259.084 96.1818H259.788Z" fill="#505050"/>
<path d="M287.18 102V101.489L289.101 99.3864C289.326 99.1402 289.512 98.9261 289.658 98.7443C289.804 98.5606 289.911 98.3883 289.982 98.2273C290.054 98.0644 290.089 97.8939 290.089 97.7159C290.089 97.5114 290.04 97.3343 289.942 97.1847C289.845 97.035 289.713 96.9195 289.544 96.8381C289.375 96.7566 289.186 96.7159 288.976 96.7159C288.752 96.7159 288.557 96.7623 288.391 96.8551C288.226 96.946 288.098 97.0739 288.007 97.2386C287.918 97.4034 287.874 97.5966 287.874 97.8182H287.203C287.203 97.4773 287.282 97.178 287.439 96.9205C287.596 96.6629 287.81 96.4621 288.081 96.3182C288.354 96.1742 288.66 96.1023 288.999 96.1023C289.339 96.1023 289.642 96.1742 289.905 96.3182C290.168 96.4621 290.375 96.6562 290.524 96.9006C290.674 97.1449 290.749 97.4167 290.749 97.7159C290.749 97.9299 290.71 98.1392 290.632 98.3438C290.556 98.5464 290.424 98.7727 290.234 99.0227C290.047 99.2708 289.786 99.5739 289.453 99.9318L288.146 101.33V101.375H290.851V102H287.18Z" fill="#505050"/>
<path d="M319.021 102.08C318.646 102.08 318.312 102.015 318.018 101.886C317.727 101.758 317.495 101.579 317.322 101.349C317.152 101.118 317.059 100.85 317.044 100.545H317.76C317.775 100.733 317.839 100.895 317.953 101.031C318.067 101.166 318.215 101.27 318.399 101.344C318.583 101.418 318.786 101.455 319.01 101.455C319.26 101.455 319.482 101.411 319.675 101.324C319.868 101.237 320.019 101.116 320.129 100.96C320.239 100.805 320.294 100.625 320.294 100.42C320.294 100.206 320.241 100.018 320.135 99.8551C320.029 99.6903 319.874 99.5616 319.669 99.4688C319.464 99.3759 319.214 99.3295 318.919 99.3295H318.453V98.7045H318.919C319.15 98.7045 319.353 98.6629 319.527 98.5795C319.703 98.4962 319.84 98.3788 319.939 98.2273C320.039 98.0758 320.089 97.8977 320.089 97.6932C320.089 97.4962 320.046 97.3248 319.959 97.179C319.872 97.0331 319.749 96.9195 319.589 96.8381C319.432 96.7566 319.247 96.7159 319.033 96.7159C318.832 96.7159 318.643 96.7528 318.464 96.8267C318.288 96.8987 318.144 97.0038 318.033 97.142C317.921 97.2784 317.86 97.4432 317.851 97.6364H317.169C317.18 97.3314 317.272 97.0644 317.445 96.8352C317.617 96.6042 317.842 96.4242 318.121 96.2955C318.401 96.1667 318.709 96.1023 319.044 96.1023C319.404 96.1023 319.713 96.1752 319.97 96.321C320.228 96.465 320.426 96.6553 320.564 96.892C320.702 97.1288 320.771 97.3845 320.771 97.6591C320.771 97.9867 320.685 98.2661 320.513 98.4972C320.342 98.7282 320.11 98.8883 319.817 98.9773V99.0227C320.184 99.0833 320.471 99.2396 320.678 99.4915C320.884 99.7415 320.987 100.051 320.987 100.42C320.987 100.737 320.901 101.021 320.729 101.273C320.558 101.523 320.325 101.72 320.03 101.864C319.734 102.008 319.398 102.08 319.021 102.08Z" fill="#505050"/>
<path d="M346.9 100.807V100.227L349.456 96.1818H349.877V97.0795H349.593L347.661 100.136V100.182H351.104V100.807H346.9ZM349.638 102V100.631V100.361V96.1818H350.309V102H349.638Z" fill="#505050"/>
<path d="M265.825 10H263.247V2.72727H265.847C266.578 2.72727 267.208 2.87287 267.736 3.16406C268.264 3.45289 268.67 3.86837 268.954 4.41051C269.24 4.95265 269.384 5.60133 269.384 6.35653C269.384 7.11411 269.24 7.76515 268.954 8.30966C268.67 8.85417 268.262 9.27202 267.729 9.56321C267.199 9.8544 266.564 10 265.825 10ZM264.785 8.68253H265.762C266.216 8.68253 266.598 8.60204 266.909 8.44105C267.221 8.2777 267.455 8.02557 267.612 7.68466C267.77 7.34138 267.85 6.89867 267.85 6.35653C267.85 5.81913 267.77 5.37997 267.612 5.03906C267.455 4.69815 267.222 4.44721 266.912 4.28622C266.602 4.12524 266.22 4.04474 265.765 4.04474H264.785V8.68253ZM270.494 10V4.54545H272.007V10H270.494ZM271.254 3.84233C271.029 3.84233 270.836 3.76776 270.675 3.61861C270.517 3.46709 270.438 3.28598 270.438 3.07528C270.438 2.86695 270.517 2.68821 270.675 2.53906C270.836 2.38755 271.029 2.31179 271.254 2.31179C271.479 2.31179 271.671 2.38755 271.83 2.53906C271.991 2.68821 272.071 2.86695 272.071 3.07528C272.071 3.28598 271.991 3.46709 271.83 3.61861C271.671 3.76776 271.479 3.84233 271.254 3.84233ZM277.757 6.10085L276.372 6.18608C276.349 6.06771 276.298 5.96117 276.22 5.86648C276.142 5.76941 276.039 5.69247 275.911 5.63565C275.785 5.57647 275.635 5.54688 275.46 5.54688C275.225 5.54688 275.028 5.59659 274.867 5.69602C274.706 5.79309 274.625 5.9233 274.625 6.08665C274.625 6.21686 274.677 6.32694 274.781 6.4169C274.886 6.50687 275.064 6.57907 275.318 6.63352L276.305 6.83239C276.835 6.94129 277.231 7.11648 277.491 7.35795C277.751 7.59943 277.882 7.91667 277.882 8.30966C277.882 8.66714 277.776 8.98082 277.566 9.25071C277.357 9.5206 277.071 9.7313 276.706 9.88281C276.344 10.032 275.926 10.1065 275.453 10.1065C274.731 10.1065 274.155 9.9562 273.727 9.65554C273.301 9.35251 273.051 8.94058 272.977 8.41974L274.465 8.34162C274.51 8.56179 274.619 8.72988 274.792 8.84588C274.965 8.95952 275.186 9.01634 275.456 9.01634C275.721 9.01634 275.934 8.96544 276.095 8.86364C276.259 8.75947 276.342 8.62571 276.344 8.46236C276.342 8.32505 276.284 8.21259 276.17 8.125C276.056 8.03504 275.881 7.96638 275.644 7.91903L274.7 7.73082C274.167 7.62429 273.771 7.43963 273.51 7.17685C273.252 6.91406 273.123 6.57907 273.123 6.17188C273.123 5.8215 273.218 5.51965 273.407 5.26634C273.599 5.01302 273.868 4.81771 274.213 4.6804C274.561 4.54309 274.968 4.47443 275.435 4.47443C276.124 4.47443 276.666 4.62003 277.061 4.91122C277.459 5.20241 277.691 5.59896 277.757 6.10085ZM281.299 10.1065C280.74 10.1065 280.259 9.98816 279.857 9.75142C279.457 9.51231 279.149 9.18087 278.934 8.7571C278.721 8.33333 278.614 7.84564 278.614 7.29403C278.614 6.73532 278.722 6.24527 278.937 5.82386C279.155 5.40009 279.464 5.06984 279.864 4.8331C280.264 4.59399 280.74 4.47443 281.292 4.47443C281.767 4.47443 282.184 4.56084 282.542 4.73366C282.899 4.90649 283.182 5.14915 283.39 5.46165C283.599 5.77415 283.713 6.1411 283.735 6.5625H282.307C282.267 6.29025 282.16 6.07126 281.988 5.90554C281.817 5.73745 281.593 5.65341 281.316 5.65341C281.082 5.65341 280.877 5.71733 280.702 5.84517C280.529 5.97064 280.394 6.15412 280.297 6.3956C280.2 6.63707 280.152 6.92945 280.152 7.27273C280.152 7.62074 280.199 7.91667 280.294 8.16051C280.391 8.40436 280.527 8.5902 280.702 8.71804C280.877 8.84588 281.082 8.9098 281.316 8.9098C281.489 8.9098 281.644 8.87429 281.782 8.80327C281.921 8.73224 282.036 8.62926 282.126 8.49432C282.218 8.35701 282.279 8.19247 282.307 8.00071H283.735C283.711 8.41738 283.597 8.78433 283.394 9.10156C283.193 9.41643 282.914 9.66264 282.559 9.8402C282.204 10.0178 281.784 10.1065 281.299 10.1065ZM284.703 10V4.54545H286.17V5.49716H286.227C286.326 5.15862 286.493 4.90294 286.727 4.73011C286.962 4.55492 287.232 4.46733 287.537 4.46733C287.613 4.46733 287.695 4.47206 287.782 4.48153C287.87 4.491 287.947 4.50402 288.013 4.5206V5.86293C287.942 5.84162 287.844 5.82268 287.718 5.80611C287.593 5.78954 287.478 5.78125 287.374 5.78125C287.151 5.78125 286.952 5.82978 286.777 5.92685C286.604 6.02154 286.467 6.15412 286.365 6.32457C286.266 6.49503 286.216 6.69152 286.216 6.91406V10H284.703ZM291.027 10.1065C290.466 10.1065 289.983 9.9929 289.578 9.76562C289.176 9.53598 288.866 9.21165 288.648 8.79261C288.43 8.37121 288.321 7.87287 288.321 7.29759C288.321 6.73651 288.43 6.24408 288.648 5.82031C288.866 5.39654 289.172 5.06629 289.567 4.82955C289.965 4.5928 290.432 4.47443 290.967 4.47443C291.326 4.47443 291.661 4.53243 291.972 4.64844C292.284 4.76207 292.556 4.93371 292.788 5.16335C293.023 5.39299 293.205 5.68182 293.335 6.02983C293.465 6.37547 293.531 6.7803 293.531 7.24432V7.6598H288.925V6.7223H292.107C292.107 6.5045 292.059 6.31155 291.964 6.14347C291.87 5.97538 291.738 5.84399 291.57 5.74929C291.405 5.65223 291.212 5.60369 290.991 5.60369C290.762 5.60369 290.558 5.65696 290.381 5.76349C290.205 5.86766 290.068 6.00852 289.969 6.18608C289.869 6.36127 289.818 6.55658 289.816 6.77202V7.66335C289.816 7.93324 289.866 8.16643 289.965 8.36293C290.067 8.55942 290.21 8.71094 290.395 8.81747C290.58 8.92401 290.799 8.97727 291.052 8.97727C291.22 8.97727 291.374 8.9536 291.513 8.90625C291.653 8.8589 291.773 8.78788 291.872 8.69318C291.972 8.59848 292.047 8.48248 292.099 8.34517L293.499 8.4375C293.428 8.77367 293.282 9.06723 293.062 9.31818C292.844 9.56676 292.562 9.76089 292.217 9.90057C291.873 10.0379 291.477 10.1065 291.027 10.1065ZM297.419 4.54545V5.68182H294.134V4.54545H297.419ZM294.88 3.23864H296.393V8.32386C296.393 8.46354 296.414 8.57244 296.457 8.65057C296.499 8.72633 296.558 8.77959 296.634 8.81037C296.712 8.84115 296.802 8.85653 296.904 8.85653C296.975 8.85653 297.046 8.85062 297.117 8.83878C297.188 8.82457 297.243 8.81392 297.281 8.80682L297.518 9.93253C297.443 9.9562 297.336 9.98343 297.199 10.0142C297.062 10.0473 296.895 10.0675 296.698 10.0746C296.334 10.0888 296.014 10.0402 295.739 9.92898C295.467 9.81771 295.255 9.64489 295.104 9.41051C294.952 9.17614 294.878 8.88021 294.88 8.52273V3.23864ZM300.832 10.1065C300.271 10.1065 299.788 9.9929 299.383 9.76562C298.98 9.53598 298.67 9.21165 298.452 8.79261C298.235 8.37121 298.126 7.87287 298.126 7.29759C298.126 6.73651 298.235 6.24408 298.452 5.82031C298.67 5.39654 298.977 5.06629 299.372 4.82955C299.77 4.5928 300.236 4.47443 300.771 4.47443C301.131 4.47443 301.466 4.53243 301.776 4.64844C302.089 4.76207 302.361 4.93371 302.593 5.16335C302.827 5.39299 303.01 5.68182 303.14 6.02983C303.27 6.37547 303.335 6.7803 303.335 7.24432V7.6598H298.729V6.7223H301.911C301.911 6.5045 301.864 6.31155 301.769 6.14347C301.674 5.97538 301.543 5.84399 301.375 5.74929C301.209 5.65223 301.016 5.60369 300.796 5.60369C300.567 5.60369 300.363 5.65696 300.185 5.76349C300.01 5.86766 299.873 6.00852 299.773 6.18608C299.674 6.36127 299.623 6.55658 299.621 6.77202V7.66335C299.621 7.93324 299.67 8.16643 299.77 8.36293C299.872 8.55942 300.015 8.71094 300.2 8.81747C300.384 8.92401 300.603 8.97727 300.857 8.97727C301.025 8.97727 301.179 8.9536 301.318 8.90625C301.458 8.8589 301.577 8.78788 301.677 8.69318C301.776 8.59848 301.852 8.48248 301.904 8.34517L303.303 8.4375C303.232 8.77367 303.087 9.06723 302.866 9.31818C302.649 9.56676 302.367 9.76089 302.021 9.90057C301.678 10.0379 301.281 10.1065 300.832 10.1065ZM310.611 4.81889C310.582 4.53243 310.46 4.3099 310.245 4.15128C310.029 3.99266 309.737 3.91335 309.368 3.91335C309.117 3.91335 308.905 3.94886 308.732 4.01989C308.559 4.08854 308.427 4.18442 308.334 4.30753C308.244 4.43063 308.199 4.57031 308.199 4.72656C308.195 4.85677 308.222 4.97041 308.281 5.06747C308.343 5.16454 308.427 5.24858 308.533 5.3196C308.64 5.38826 308.763 5.44863 308.903 5.50071C309.042 5.55043 309.191 5.59304 309.35 5.62855L310.003 5.7848C310.321 5.85582 310.612 5.95052 310.877 6.06889C311.142 6.18726 311.372 6.33286 311.566 6.50568C311.76 6.6785 311.91 6.8821 312.017 7.11648C312.126 7.35085 312.181 7.61955 312.184 7.92259C312.181 8.36766 312.068 8.75355 311.843 9.08026C311.62 9.40459 311.298 9.65672 310.877 9.83665C310.458 10.0142 309.952 10.103 309.361 10.103C308.773 10.103 308.262 10.013 307.827 9.8331C307.393 9.65317 307.055 9.38684 306.811 9.03409C306.569 8.67898 306.443 8.23982 306.431 7.71662H307.919C307.935 7.96046 308.005 8.16406 308.128 8.32741C308.254 8.4884 308.421 8.61032 308.629 8.69318C308.84 8.77367 309.078 8.81392 309.343 8.81392C309.603 8.81392 309.829 8.77604 310.021 8.70028C310.215 8.62453 310.366 8.51918 310.472 8.38423C310.579 8.24929 310.632 8.09422 310.632 7.91903C310.632 7.75568 310.583 7.61837 310.486 7.5071C310.392 7.39583 310.252 7.30114 310.067 7.22301C309.885 7.14489 309.661 7.07386 309.396 7.00994L308.604 6.81108C307.991 6.66193 307.507 6.42874 307.152 6.11151C306.797 5.79427 306.62 5.36695 306.623 4.82955C306.62 4.3892 306.738 4.0045 306.974 3.67543C307.213 3.34635 307.541 3.08949 307.958 2.90483C308.375 2.72017 308.848 2.62784 309.378 2.62784C309.918 2.62784 310.389 2.72017 310.792 2.90483C311.197 3.08949 311.511 3.34635 311.736 3.67543C311.961 4.0045 312.077 4.38565 312.084 4.81889H310.611ZM313.19 10V4.54545H314.702V10H313.19ZM313.95 3.84233C313.725 3.84233 313.532 3.76776 313.371 3.61861C313.212 3.46709 313.133 3.28598 313.133 3.07528C313.133 2.86695 313.212 2.68821 313.371 2.53906C313.532 2.38755 313.725 2.31179 313.95 2.31179C314.174 2.31179 314.366 2.38755 314.525 2.53906C314.686 2.68821 314.766 2.86695 314.766 3.07528C314.766 3.28598 314.686 3.46709 314.525 3.61861C314.366 3.76776 314.174 3.84233 313.95 3.84233ZM318.372 12.1591C317.882 12.1591 317.461 12.0916 317.111 11.9567C316.763 11.8241 316.486 11.643 316.28 11.4134C316.074 11.1837 315.94 10.9257 315.879 10.6392L317.278 10.451C317.32 10.5599 317.388 10.6617 317.48 10.7564C317.573 10.8511 317.695 10.9268 317.846 10.9837C318 11.0429 318.187 11.0724 318.407 11.0724C318.736 11.0724 319.007 10.992 319.22 10.831C319.436 10.6723 319.544 10.406 319.544 10.032V9.03409H319.48C319.413 9.18561 319.314 9.32884 319.181 9.46378C319.049 9.59872 318.878 9.70881 318.67 9.79403C318.462 9.87926 318.213 9.92188 317.924 9.92188C317.515 9.92188 317.142 9.82718 316.806 9.63778C316.472 9.44602 316.205 9.15365 316.007 8.76065C315.81 8.36529 315.712 7.86577 315.712 7.26207C315.712 6.64418 315.812 6.12808 316.014 5.71378C316.215 5.29948 316.482 4.98935 316.816 4.78338C317.152 4.57741 317.521 4.47443 317.921 4.47443C318.226 4.47443 318.482 4.52652 318.688 4.63068C318.894 4.73248 319.059 4.86032 319.185 5.0142C319.313 5.16572 319.411 5.31487 319.48 5.46165H319.536V4.54545H321.039V10.0533C321.039 10.5173 320.925 10.9055 320.698 11.218C320.47 11.5305 320.155 11.7649 319.753 11.9212C319.353 12.0798 318.892 12.1591 318.372 12.1591ZM318.404 8.78551C318.647 8.78551 318.853 8.72514 319.021 8.6044C319.192 8.4813 319.322 8.30611 319.412 8.07884C319.504 7.8492 319.551 7.57457 319.551 7.25497C319.551 6.93537 319.506 6.65838 319.416 6.42401C319.326 6.18726 319.195 6.00379 319.025 5.87358C318.855 5.74337 318.647 5.67827 318.404 5.67827C318.155 5.67827 317.945 5.74574 317.775 5.88068C317.605 6.01326 317.476 6.19792 317.388 6.43466C317.3 6.6714 317.257 6.94484 317.257 7.25497C317.257 7.56984 317.3 7.84209 317.388 8.07173C317.478 8.29901 317.607 8.47538 317.775 8.60085C317.945 8.72396 318.155 8.78551 318.404 8.78551ZM323.755 6.84659V10H322.242V4.54545H323.684V5.50781H323.748C323.869 5.19058 324.071 4.93963 324.355 4.75497C324.639 4.56795 324.984 4.47443 325.389 4.47443C325.767 4.47443 326.098 4.55729 326.379 4.72301C326.661 4.88873 326.88 5.12547 327.036 5.43324C327.193 5.73864 327.271 6.10322 327.271 6.52699V10H325.758V6.79688C325.76 6.46307 325.675 6.20265 325.502 6.01562C325.329 5.82623 325.092 5.73153 324.789 5.73153C324.585 5.73153 324.405 5.77533 324.249 5.86293C324.095 5.95052 323.974 6.07836 323.887 6.24645C323.801 6.41217 323.758 6.61222 323.755 6.84659ZM330.018 10.103C329.67 10.103 329.36 10.0426 329.088 9.92188C328.816 9.79877 328.6 9.61766 328.442 9.37855C328.286 9.13707 328.207 8.83641 328.207 8.47656C328.207 8.17353 328.263 7.91903 328.374 7.71307C328.486 7.5071 328.637 7.34138 328.829 7.21591C329.021 7.09044 329.238 6.99574 329.482 6.93182C329.728 6.8679 329.987 6.82292 330.256 6.79688C330.574 6.76373 330.829 6.73295 331.023 6.70455C331.218 6.67377 331.358 6.62879 331.446 6.5696C331.534 6.51042 331.577 6.42282 331.577 6.30682V6.28551C331.577 6.06061 331.506 5.8866 331.364 5.76349C331.225 5.64039 331.026 5.57884 330.768 5.57884C330.496 5.57884 330.279 5.6392 330.118 5.75994C329.957 5.87831 329.85 6.02746 329.798 6.20739L328.399 6.09375C328.47 5.76231 328.61 5.47585 328.818 5.23438C329.027 4.99053 329.295 4.8035 329.624 4.6733C329.956 4.54072 330.339 4.47443 330.775 4.47443C331.078 4.47443 331.368 4.50994 331.645 4.58097C331.924 4.65199 332.172 4.76207 332.387 4.91122C332.605 5.06037 332.777 5.25213 332.902 5.48651C333.027 5.71851 333.09 5.99669 333.09 6.32102V10H331.656V9.24361H331.613C331.525 9.41406 331.408 9.56439 331.261 9.6946C331.115 9.82244 330.938 9.92306 330.732 9.99645C330.526 10.0675 330.288 10.103 330.018 10.103ZM330.452 9.05895C330.674 9.05895 330.871 9.01515 331.041 8.92756C331.212 8.83759 331.345 8.71686 331.442 8.56534C331.54 8.41383 331.588 8.24219 331.588 8.05043V7.47159C331.541 7.50237 331.476 7.53078 331.393 7.55682C331.312 7.58049 331.221 7.60298 331.119 7.62429C331.018 7.64323 330.916 7.66098 330.814 7.67756C330.712 7.69176 330.62 7.70478 330.537 7.71662C330.359 7.74266 330.204 7.78409 330.072 7.84091C329.939 7.89773 329.836 7.97467 329.763 8.07173C329.689 8.16643 329.653 8.2848 329.653 8.42685C329.653 8.63281 329.727 8.79025 329.876 8.89915C330.028 9.00568 330.22 9.05895 330.452 9.05895ZM335.777 2.72727V10H334.264V2.72727H335.777Z" fill="#505050"/>
<line x1="229.5" y1="33" x2="229.5" y2="92" stroke="#505050"/>
<line x1="369" y1="92.5" x2="224" y2="92.5" stroke="#505050"/>
<line x1="259.5" y1="57" x2="259.5" y2="92" stroke="#6B6B6B" stroke-dasharray="2 2"/>
<line x1="288.5" y1="46" x2="288.5" y2="92" stroke="#6B6B6B" stroke-dasharray="2 2"/>
<line x1="319.5" y1="72" x2="319.5" y2="92" stroke="#6B6B6B" stroke-dasharray="2 2"/>
<line x1="349.5" y1="62" x2="349.5" y2="92" stroke="#6B6B6B" stroke-dasharray="2 2"/>
<circle cx="259.5" cy="57.5" r="3.5" fill="#743BBE"/>
<circle cx="229.5" cy="42.5" r="3.5" fill="#743BBE"/>
<circle cx="288.5" cy="45.5" r="3.5" fill="#743BBE"/>
<circle cx="319.5" cy="71.5" r="3.5" fill="#743BBE"/>
<circle cx="349.5" cy="62.5" r="3.5" fill="#743BBE"/>
<path d="M229.5 42C241.216 48.0531 247.784 51.4469 259.5 57.5C271.216 63.5531 277.531 42.7164 289 45.5C301.169 48.4536 307.505 72.826 320 72C332.077 71.2016 349.5 62.5 349.5 62.5" stroke="#743BBE"/>
</svg>
