<svg width="495" height="253" viewBox="0 0 495 253" fill="none" xmlns="http://www.w3.org/2000/svg">
<g clip-path="url(#clip0_50_119)">
<rect width="495" height="253" fill="white"/>
<path d="M365 91L355 85.2265V96.7735L365 91ZM356 90L117 90V92L356 92V90Z" fill="#505050"/>
<rect x="151" y="37" width="184" height="89" rx="8" fill="#9B9B9B" stroke="white" stroke-width="2"/>
<rect x="162" y="50" width="163" height="63" rx="8" fill="white" stroke="white" stroke-width="2"/>
<path d="M171.44 69.6392V75H168.869V62.6364H171.368V67.3633H171.477C171.686 66.8159 172.024 66.3873 172.491 66.0774C172.958 65.7635 173.543 65.6065 174.247 65.6065C174.891 65.6065 175.453 65.7474 175.932 66.0291C176.415 66.3068 176.789 66.7073 177.055 67.2305C177.324 67.7496 177.457 68.3714 177.453 69.0959V75H174.881V69.5547C174.885 68.9832 174.74 68.5385 174.447 68.2205C174.157 67.9026 173.75 67.7436 173.227 67.7436C172.877 67.7436 172.567 67.8181 172.298 67.967C172.032 68.1159 171.823 68.3332 171.67 68.619C171.521 68.9007 171.444 69.2408 171.44 69.6392ZM179.441 67.4297L179.875 62.6364H182.206L181.191 67.4297H179.441ZM185.01 69.7841C185.01 68.2628 185.207 66.8642 185.601 65.5884C186 64.3086 186.567 63.1314 187.304 62.0568H188.56C188.27 62.4553 187.998 62.9463 187.745 63.5298C187.495 64.1094 187.276 64.7473 187.087 65.4435C186.897 66.1358 186.748 66.8522 186.64 67.5927C186.535 68.3332 186.483 69.0637 186.483 69.7841C186.483 70.742 186.575 71.7139 186.761 72.6999C186.946 73.686 187.195 74.6016 187.509 75.4467C187.823 76.2919 188.173 76.9801 188.56 77.5114H187.304C186.567 76.4368 186 75.2616 185.601 73.9858C185.207 72.706 185.01 71.3054 185.01 69.7841ZM194.695 65.7273V66.9347H189.889V65.7273H194.695ZM191.29 63.5057H192.714V72.3438C192.714 72.7462 192.773 73.0481 192.89 73.2493C193.01 73.4465 193.163 73.5793 193.348 73.6477C193.537 73.7121 193.737 73.7443 193.946 73.7443C194.103 73.7443 194.232 73.7363 194.332 73.7202C194.433 73.7 194.513 73.6839 194.574 73.6719L194.864 74.9517C194.767 74.9879 194.632 75.0241 194.459 75.0604C194.286 75.1006 194.067 75.1207 193.801 75.1207C193.399 75.1207 193.004 75.0342 192.618 74.8612C192.236 74.6881 191.918 74.4245 191.664 74.0703C191.414 73.7161 191.29 73.2694 191.29 72.7301V63.5057ZM199.88 69.7841C199.88 71.3054 199.681 72.706 199.283 73.9858C198.888 75.2616 198.323 76.4368 197.586 77.5114H196.331C196.62 77.1129 196.89 76.6219 197.14 76.0384C197.393 75.4588 197.614 74.8229 197.804 74.1307C197.993 73.4344 198.14 72.716 198.244 71.9755C198.353 71.2309 198.407 70.5005 198.407 69.7841C198.407 68.8262 198.315 67.8543 198.13 66.8683C197.944 65.8822 197.695 64.9666 197.381 64.1214C197.067 63.2763 196.717 62.5881 196.331 62.0568H197.586C198.323 63.1314 198.888 64.3086 199.283 65.5884C199.681 66.8642 199.88 68.2628 199.88 69.7841ZM207.511 69.0355V67.7315H214.948V69.0355H207.511ZM207.511 72.6094V71.3054H214.948V72.6094H207.511ZM223.974 75H221.173L225.441 62.6364H228.809L233.071 75H230.27L227.173 65.4616H227.077L223.974 75ZM223.799 70.1403H230.415V72.1808H223.799V70.1403ZM237.083 69.6392V75H234.511V62.6364H237.01V67.3633H237.119C237.328 66.8159 237.666 66.3873 238.133 66.0774C238.6 65.7635 239.186 65.6065 239.89 65.6065C240.534 65.6065 241.095 65.7474 241.574 66.0291C242.057 66.3068 242.432 66.7073 242.697 67.2305C242.967 67.7496 243.1 68.3714 243.096 69.0959V75H240.524V69.5547C240.528 68.9832 240.383 68.5385 240.089 68.2205C239.799 67.9026 239.393 67.7436 238.87 67.7436C238.52 67.7436 238.21 67.8181 237.94 67.967C237.674 68.1159 237.465 68.3332 237.312 68.619C237.163 68.9007 237.087 69.2408 237.083 69.6392ZM245.904 69.7841C245.904 68.2628 246.102 66.8642 246.496 65.5884C246.894 64.3086 247.462 63.1314 248.198 62.0568H249.454C249.164 62.4553 248.893 62.9463 248.639 63.5298C248.39 64.1094 248.17 64.7473 247.981 65.4435C247.792 66.1358 247.643 66.8522 247.534 67.5927C247.43 68.3332 247.377 69.0637 247.377 69.7841C247.377 70.742 247.47 71.7139 247.655 72.6999C247.84 73.686 248.09 74.6016 248.404 75.4467C248.718 76.2919 249.068 76.9801 249.454 77.5114H248.198C247.462 76.4368 246.894 75.2616 246.496 73.9858C246.102 72.706 245.904 71.3054 245.904 69.7841ZM255.589 65.7273V66.9347H250.784V65.7273H255.589ZM252.184 63.5057H253.609V72.3438C253.609 72.7462 253.667 73.0481 253.784 73.2493C253.905 73.4465 254.058 73.5793 254.243 73.6477C254.432 73.7121 254.631 73.7443 254.841 73.7443C254.997 73.7443 255.126 73.7363 255.227 73.7202C255.327 73.7 255.408 73.6839 255.468 73.6719L255.758 74.9517C255.662 74.9879 255.527 75.0241 255.354 75.0604C255.181 75.1006 254.961 75.1207 254.696 75.1207C254.293 75.1207 253.899 75.0342 253.512 74.8612C253.13 74.6881 252.812 74.4245 252.559 74.0703C252.309 73.7161 252.184 73.2694 252.184 72.7301V63.5057ZM260.775 69.7841C260.775 71.3054 260.576 72.706 260.177 73.9858C259.783 75.2616 259.217 76.4368 258.481 77.5114H257.225C257.515 77.1129 257.785 76.6219 258.034 76.0384C258.288 75.4588 258.509 74.8229 258.698 74.1307C258.887 73.4344 259.034 72.716 259.139 71.9755C259.247 71.2309 259.302 70.5005 259.302 69.7841C259.302 68.8262 259.209 67.8543 259.024 66.8683C258.839 65.8822 258.589 64.9666 258.276 64.1214C257.962 63.2763 257.611 62.5881 257.225 62.0568H258.481C259.217 63.1314 259.783 64.3086 260.177 65.5884C260.576 66.8642 260.775 68.2628 260.775 69.7841ZM271.448 74.1548V66.1861H272.8V74.1548H271.448ZM268.14 70.8466V69.4943H276.109V70.8466H268.14ZM282.737 75V62.6364H287.687C288.597 62.6364 289.356 62.7712 289.963 63.0408C290.571 63.3105 291.028 63.6848 291.334 64.1637C291.64 64.6386 291.793 65.186 291.793 65.8058C291.793 66.2887 291.696 66.7133 291.503 67.0795C291.31 67.4418 291.044 67.7396 290.706 67.973C290.372 68.2024 289.99 68.3654 289.559 68.462V68.5827C290.03 68.6029 290.47 68.7357 290.881 68.9812C291.296 69.2267 291.632 69.5708 291.889 70.0135C292.147 70.4522 292.276 70.9754 292.276 71.5831C292.276 72.2391 292.113 72.8247 291.787 73.3398C291.465 73.851 290.988 74.2554 290.356 74.5533C289.724 74.8511 288.945 75 288.019 75H282.737ZM285.351 72.8629H287.482C288.211 72.8629 288.742 72.7241 289.076 72.4464C289.41 72.1647 289.577 71.7904 289.577 71.3235C289.577 70.9814 289.495 70.6796 289.33 70.418C289.164 70.1564 288.929 69.9511 288.623 69.8022C288.321 69.6533 287.961 69.5788 287.543 69.5788H285.351V72.8629ZM285.351 67.81H287.289C287.647 67.81 287.965 67.7476 288.243 67.6229C288.525 67.4941 288.746 67.313 288.907 67.0795C289.072 66.8461 289.154 66.5664 289.154 66.2404C289.154 65.7937 288.995 65.4335 288.678 65.1598C288.364 64.8861 287.917 64.7493 287.337 64.7493H285.351V67.81ZM296.077 65.7273L297.78 68.9691L299.524 65.7273H302.163L299.476 70.3636L302.235 75H299.609L297.78 71.7944L295.981 75H293.324L296.077 70.3636L293.421 65.7273H296.077ZM304.475 69.7841C304.475 68.2628 304.672 66.8642 305.066 65.5884C305.465 64.3086 306.032 63.1314 306.769 62.0568H308.024C307.735 62.4553 307.463 62.9463 307.209 63.5298C306.96 64.1094 306.741 64.7473 306.551 65.4435C306.362 66.1358 306.213 66.8522 306.105 67.5927C306 68.3332 305.948 69.0637 305.948 69.7841C305.948 70.742 306.04 71.7139 306.225 72.6999C306.41 73.686 306.66 74.6016 306.974 75.4467C307.288 76.2919 307.638 76.9801 308.024 77.5114H306.769C306.032 76.4368 305.465 75.2616 305.066 73.9858C304.672 72.706 304.475 71.3054 304.475 69.7841ZM314.159 65.7273V66.9347H309.354V65.7273H314.159ZM310.755 63.5057H312.179V72.3438C312.179 72.7462 312.238 73.0481 312.354 73.2493C312.475 73.4465 312.628 73.5793 312.813 73.6477C313.002 73.7121 313.202 73.7443 313.411 73.7443C313.568 73.7443 313.697 73.7363 313.797 73.7202C313.898 73.7 313.978 73.6839 314.039 73.6719L314.328 74.9517C314.232 74.9879 314.097 75.0241 313.924 75.0604C313.751 75.1006 313.532 75.1207 313.266 75.1207C312.863 75.1207 312.469 75.0342 312.083 74.8612C311.7 74.6881 311.382 74.4245 311.129 74.0703C310.879 73.7161 310.755 73.2694 310.755 72.7301V63.5057ZM319.345 69.7841C319.345 71.3054 319.146 72.706 318.747 73.9858C318.353 75.2616 317.788 76.4368 317.051 77.5114H315.795C316.085 77.1129 316.355 76.6219 316.604 76.0384C316.858 75.4588 317.079 74.8229 317.268 74.1307C317.458 73.4344 317.604 72.716 317.709 71.9755C317.818 71.2309 317.872 70.5005 317.872 69.7841C317.872 68.8262 317.78 67.8543 317.594 66.8683C317.409 65.8822 317.16 64.9666 316.846 64.1214C316.532 63.2763 316.182 62.5881 315.795 62.0568H317.051C317.788 63.1314 318.353 64.3086 318.747 65.5884C319.146 66.8642 319.345 68.2628 319.345 69.7841Z" fill="#4C4C4C" fill-opacity="0.5"/>
<path d="M167.983 26.9648H165.339C165.291 26.6228 165.192 26.3189 165.043 26.0533C164.894 25.7836 164.703 25.5542 164.47 25.3651C164.236 25.1759 163.967 25.031 163.661 24.9304C163.359 24.8298 163.031 24.7795 162.677 24.7795C162.037 24.7795 161.48 24.9384 161.005 25.2564C160.53 25.5703 160.161 26.0291 159.9 26.6328C159.638 27.2325 159.507 27.9609 159.507 28.8182C159.507 29.6996 159.638 30.4401 159.9 31.0398C160.165 31.6394 160.536 32.0922 161.011 32.3981C161.486 32.704 162.035 32.8569 162.659 32.8569C163.009 32.8569 163.333 32.8106 163.631 32.718C163.933 32.6255 164.2 32.4906 164.434 32.3136C164.667 32.1325 164.86 31.9131 165.013 31.6555C165.17 31.398 165.279 31.1042 165.339 30.7741L167.983 30.7862C167.915 31.3537 167.744 31.901 167.47 32.4283C167.201 32.9515 166.836 33.4203 166.377 33.8349C165.923 34.2454 165.379 34.5714 164.748 34.8129C164.12 35.0503 163.409 35.169 162.616 35.169C161.514 35.169 160.528 34.9195 159.658 34.4205C158.793 33.9214 158.109 33.199 157.606 32.2532C157.107 31.3074 156.857 30.1624 156.857 28.8182C156.857 27.4699 157.111 26.3229 157.618 25.3771C158.125 24.4313 158.813 23.7109 159.683 23.2159C160.552 22.7169 161.53 22.4673 162.616 22.4673C163.333 22.4673 163.997 22.5679 164.609 22.7692C165.224 22.9704 165.77 23.2642 166.245 23.6506C166.72 24.0329 167.106 24.5018 167.404 25.0572C167.706 25.6126 167.899 26.2485 167.983 26.9648ZM173.999 35.1811C173.061 35.1811 172.25 34.9819 171.566 34.5835C170.886 34.181 170.361 33.6216 169.991 32.9052C169.62 32.1848 169.435 31.3497 169.435 30.3999C169.435 29.442 169.62 28.6049 169.991 27.8885C170.361 27.1681 170.886 26.6087 171.566 26.2102C172.25 25.8078 173.061 25.6065 173.999 25.6065C174.937 25.6065 175.746 25.8078 176.426 26.2102C177.11 26.6087 177.637 27.1681 178.008 27.8885C178.378 28.6049 178.563 29.442 178.563 30.3999C178.563 31.3497 178.378 32.1848 178.008 32.9052C177.637 33.6216 177.11 34.181 176.426 34.5835C175.746 34.9819 174.937 35.1811 173.999 35.1811ZM174.011 33.1889C174.438 33.1889 174.794 33.0682 175.08 32.8267C175.365 32.5812 175.581 32.2472 175.726 31.8246C175.875 31.402 175.949 30.921 175.949 30.3817C175.949 29.8424 175.875 29.3615 175.726 28.9389C175.581 28.5163 175.365 28.1823 175.08 27.9368C174.794 27.6913 174.438 27.5685 174.011 27.5685C173.581 27.5685 173.218 27.6913 172.925 27.9368C172.635 28.1823 172.415 28.5163 172.267 28.9389C172.122 29.3615 172.049 29.8424 172.049 30.3817C172.049 30.921 172.122 31.402 172.267 31.8246C172.415 32.2472 172.635 32.5812 172.925 32.8267C173.218 33.0682 173.581 33.1889 174.011 33.1889ZM182.807 29.6392V35H180.235V25.7273H182.686V27.3633H182.795C183 26.824 183.344 26.3974 183.827 26.0835C184.31 25.7655 184.896 25.6065 185.584 25.6065C186.228 25.6065 186.789 25.7474 187.268 26.0291C187.747 26.3108 188.119 26.7133 188.385 27.2365C188.651 27.7557 188.784 28.3755 188.784 29.0959V35H186.212V29.5547C186.216 28.9872 186.071 28.5445 185.777 28.2266C185.483 27.9046 185.079 27.7436 184.564 27.7436C184.218 27.7436 183.912 27.8181 183.646 27.967C183.385 28.1159 183.179 28.3332 183.03 28.619C182.885 28.9007 182.811 29.2408 182.807 29.6392ZM195.743 25.7273V27.6591H190.158V25.7273H195.743ZM191.426 23.5057H193.998V32.1506C193.998 32.388 194.034 32.5732 194.107 32.706C194.179 32.8348 194.28 32.9253 194.408 32.9776C194.541 33.0299 194.694 33.0561 194.867 33.0561C194.988 33.0561 195.109 33.046 195.229 33.0259C195.35 33.0018 195.443 32.9837 195.507 32.9716L195.912 34.8853C195.783 34.9255 195.602 34.9718 195.368 35.0241C195.135 35.0805 194.851 35.1147 194.517 35.1268C193.897 35.1509 193.354 35.0684 192.887 34.8793C192.424 34.6901 192.064 34.3963 191.807 33.9979C191.549 33.5994 191.422 33.0964 191.426 32.4886V23.5057ZM197.418 35V25.7273H199.99V35H197.418ZM198.71 24.532C198.327 24.532 197.999 24.4052 197.726 24.1516C197.456 23.8941 197.321 23.5862 197.321 23.228C197.321 22.8738 197.456 22.57 197.726 22.3164C197.999 22.0588 198.327 21.93 198.71 21.93C199.092 21.93 199.418 22.0588 199.688 22.3164C199.961 22.57 200.098 22.8738 200.098 23.228C200.098 23.5862 199.961 23.8941 199.688 24.1516C199.418 24.4052 199.092 24.532 198.71 24.532ZM204.621 29.6392V35H202.05V25.7273H204.501V27.3633H204.609C204.815 26.824 205.159 26.3974 205.642 26.0835C206.125 25.7655 206.71 25.6065 207.398 25.6065C208.042 25.6065 208.604 25.7474 209.083 26.0291C209.562 26.3108 209.934 26.7133 210.2 27.2365C210.465 27.7557 210.598 28.3755 210.598 29.0959V35H208.026V29.5547C208.03 28.9872 207.885 28.5445 207.592 28.2266C207.298 27.9046 206.893 27.7436 206.378 27.7436C206.032 27.7436 205.726 27.8181 205.461 27.967C205.199 28.1159 204.994 28.3332 204.845 28.619C204.7 28.9007 204.625 29.2408 204.621 29.6392ZM218.571 31.0518V25.7273H221.143V35H218.674V33.3157H218.577C218.368 33.859 218.02 34.2957 217.533 34.6257C217.05 34.9557 216.46 35.1207 215.764 35.1207C215.144 35.1207 214.599 34.9799 214.128 34.6982C213.657 34.4164 213.289 34.016 213.023 33.4968C212.762 32.9776 212.629 32.3558 212.625 31.6314V25.7273H215.197V31.1726C215.201 31.7199 215.348 32.1526 215.637 32.4705C215.927 32.7885 216.315 32.9474 216.802 32.9474C217.112 32.9474 217.402 32.877 217.672 32.7362C217.941 32.5913 218.159 32.378 218.324 32.0962C218.493 31.8145 218.575 31.4664 218.571 31.0518ZM227.39 35.1811C226.452 35.1811 225.641 34.9819 224.957 34.5835C224.277 34.181 223.751 33.6216 223.381 32.9052C223.011 32.1848 222.826 31.3497 222.826 30.3999C222.826 29.442 223.011 28.6049 223.381 27.8885C223.751 27.1681 224.277 26.6087 224.957 26.2102C225.641 25.8078 226.452 25.6065 227.39 25.6065C228.327 25.6065 229.136 25.8078 229.817 26.2102C230.501 26.6087 231.028 27.1681 231.398 27.8885C231.769 28.6049 231.954 29.442 231.954 30.3999C231.954 31.3497 231.769 32.1848 231.398 32.9052C231.028 33.6216 230.501 34.181 229.817 34.5835C229.136 34.9819 228.327 35.1811 227.39 35.1811ZM227.402 33.1889C227.828 33.1889 228.185 33.0682 228.47 32.8267C228.756 32.5812 228.971 32.2472 229.116 31.8246C229.265 31.402 229.34 30.921 229.34 30.3817C229.34 29.8424 229.265 29.3615 229.116 28.9389C228.971 28.5163 228.756 28.1823 228.47 27.9368C228.185 27.6913 227.828 27.5685 227.402 27.5685C226.971 27.5685 226.609 27.6913 226.315 27.9368C226.025 28.1823 225.806 28.5163 225.657 28.9389C225.512 29.3615 225.44 29.8424 225.44 30.3817C225.44 30.921 225.512 31.402 225.657 31.8246C225.806 32.2472 226.025 32.5812 226.315 32.8267C226.609 33.0682 226.971 33.1889 227.402 33.1889ZM239.572 31.0518V25.7273H242.144V35H239.675V33.3157H239.578C239.369 33.859 239.021 34.2957 238.534 34.6257C238.051 34.9557 237.461 35.1207 236.765 35.1207C236.145 35.1207 235.6 34.9799 235.129 34.6982C234.658 34.4164 234.29 34.016 234.024 33.4968C233.763 32.9776 233.63 32.3558 233.626 31.6314V25.7273H236.198V31.1726C236.202 31.7199 236.349 32.1526 236.638 32.4705C236.928 32.7885 237.316 32.9474 237.803 32.9474C238.113 32.9474 238.403 32.877 238.673 32.7362C238.942 32.5913 239.16 32.378 239.325 32.0962C239.494 31.8145 239.576 31.4664 239.572 31.0518ZM251.916 28.3714L249.562 28.5163C249.522 28.3151 249.435 28.134 249.302 27.973C249.169 27.808 248.994 27.6772 248.777 27.5806C248.564 27.48 248.308 27.4297 248.01 27.4297C247.612 27.4297 247.276 27.5142 247.002 27.6832C246.729 27.8482 246.592 28.0696 246.592 28.3473C246.592 28.5687 246.68 28.7558 246.857 28.9087C247.034 29.0617 247.338 29.1844 247.769 29.277L249.447 29.6151C250.349 29.8002 251.021 30.098 251.464 30.5085C251.906 30.919 252.128 31.4583 252.128 32.1264C252.128 32.7341 251.948 33.2674 251.59 33.7262C251.236 34.185 250.749 34.5432 250.129 34.8008C249.514 35.0543 248.803 35.1811 247.998 35.1811C246.771 35.1811 245.793 34.9255 245.064 34.4144C244.34 33.8993 243.915 33.199 243.791 32.3136L246.32 32.1808C246.397 32.555 246.582 32.8408 246.875 33.038C247.169 33.2312 247.546 33.3278 248.004 33.3278C248.455 33.3278 248.817 33.2412 249.091 33.0682C249.369 32.8911 249.51 32.6637 249.514 32.386C249.51 32.1526 249.411 31.9614 249.218 31.8125C249.025 31.6596 248.727 31.5429 248.324 31.4624L246.718 31.1424C245.813 30.9613 245.139 30.6474 244.696 30.2006C244.257 29.7539 244.038 29.1844 244.038 28.4922C244.038 27.8965 244.199 27.3834 244.521 26.9528C244.847 26.5221 245.304 26.1901 245.891 25.9567C246.483 25.7232 247.175 25.6065 247.968 25.6065C249.139 25.6065 250.061 25.854 250.733 26.3491C251.409 26.8441 251.804 27.5182 251.916 28.3714ZM264.437 26.1921C264.389 25.7051 264.181 25.3268 263.815 25.0572C263.449 24.7875 262.952 24.6527 262.324 24.6527C261.897 24.6527 261.537 24.7131 261.243 24.8338C260.95 24.9505 260.724 25.1135 260.567 25.3228C260.414 25.5321 260.338 25.7695 260.338 26.0352C260.33 26.2565 260.376 26.4497 260.477 26.6147C260.581 26.7797 260.724 26.9226 260.905 27.0433C261.086 27.16 261.296 27.2627 261.533 27.3512C261.771 27.4357 262.024 27.5082 262.294 27.5685L263.405 27.8342C263.944 27.9549 264.439 28.1159 264.89 28.3171C265.34 28.5183 265.731 28.7659 266.061 29.0597C266.391 29.3535 266.646 29.6996 266.828 30.098C267.013 30.4964 267.107 30.9532 267.111 31.4684C267.107 32.225 266.914 32.881 266.532 33.4364C266.153 33.9878 265.606 34.4164 264.89 34.7223C264.177 35.0241 263.318 35.1751 262.312 35.1751C261.314 35.1751 260.444 35.0221 259.704 34.7163C258.967 34.4104 258.392 33.9576 257.977 33.358C257.567 32.7543 257.352 32.0077 257.331 31.1183H259.861C259.889 31.5328 260.008 31.8789 260.217 32.1566C260.43 32.4303 260.714 32.6375 261.068 32.7784C261.426 32.9152 261.831 32.9837 262.282 32.9837C262.724 32.9837 263.109 32.9193 263.435 32.7905C263.765 32.6617 264.02 32.4826 264.201 32.2532C264.383 32.0238 264.473 31.7602 264.473 31.4624C264.473 31.1847 264.391 30.9512 264.226 30.7621C264.065 30.5729 263.827 30.4119 263.513 30.2791C263.203 30.1463 262.823 30.0256 262.372 29.9169L261.026 29.5788C259.984 29.3253 259.161 28.9289 258.557 28.3896C257.953 27.8503 257.653 27.1238 257.657 26.2102C257.653 25.4616 257.853 24.8076 258.255 24.2482C258.662 23.6888 259.219 23.2521 259.927 22.9382C260.636 22.6243 261.441 22.4673 262.342 22.4673C263.26 22.4673 264.061 22.6243 264.745 22.9382C265.433 23.2521 265.968 23.6888 266.351 24.2482C266.733 24.8076 266.93 25.4556 266.942 26.1921H264.437ZM275.577 26.1921C275.528 25.7051 275.321 25.3268 274.955 25.0572C274.588 24.7875 274.091 24.6527 273.464 24.6527C273.037 24.6527 272.677 24.7131 272.383 24.8338C272.089 24.9505 271.864 25.1135 271.707 25.3228C271.554 25.5321 271.477 25.7695 271.477 26.0352C271.469 26.2565 271.516 26.4497 271.616 26.6147C271.721 26.7797 271.864 26.9226 272.045 27.0433C272.226 27.16 272.435 27.2627 272.673 27.3512C272.91 27.4357 273.164 27.5082 273.433 27.5685L274.544 27.8342C275.084 27.9549 275.579 28.1159 276.029 28.3171C276.48 28.5183 276.87 28.7659 277.2 29.0597C277.53 29.3535 277.786 29.6996 277.967 30.098C278.152 30.4964 278.247 30.9532 278.251 31.4684C278.247 32.225 278.054 32.881 277.671 33.4364C277.293 33.9878 276.746 34.4164 276.029 34.7223C275.317 35.0241 274.458 35.1751 273.452 35.1751C272.453 35.1751 271.584 35.0221 270.844 34.7163C270.107 34.4104 269.532 33.9576 269.117 33.358C268.706 32.7543 268.491 32.0077 268.471 31.1183H271.001C271.029 31.5328 271.147 31.8789 271.357 32.1566C271.57 32.4303 271.854 32.6375 272.208 32.7784C272.566 32.9152 272.971 32.9837 273.421 32.9837C273.864 32.9837 274.248 32.9193 274.574 32.7905C274.904 32.6617 275.16 32.4826 275.341 32.2532C275.522 32.0238 275.613 31.7602 275.613 31.4624C275.613 31.1847 275.53 30.9512 275.365 30.7621C275.204 30.5729 274.967 30.4119 274.653 30.2791C274.343 30.1463 273.963 30.0256 273.512 29.9169L272.166 29.5788C271.123 29.3253 270.3 28.9289 269.697 28.3896C269.093 27.8503 268.793 27.1238 268.797 26.2102C268.793 25.4616 268.992 24.8076 269.395 24.2482C269.801 23.6888 270.359 23.2521 271.067 22.9382C271.775 22.6243 272.58 22.4673 273.482 22.4673C274.399 22.4673 275.2 22.6243 275.884 22.9382C276.573 23.2521 277.108 23.6888 277.49 24.2482C277.873 24.8076 278.07 25.4556 278.082 26.1921H275.577ZM280.009 22.6364H283.233L286.638 30.9432H286.783L290.187 22.6364H293.411V35H290.876V26.9528H290.773L287.573 34.9396H285.847L282.647 26.9226H282.545V35H280.009V22.6364Z" fill="#363636" fill-opacity="0.5"/>
<path d="M200.983 104.477C200.657 104.477 200.351 104.451 200.065 104.399C199.783 104.35 199.55 104.288 199.365 104.212L199.944 102.292C200.246 102.384 200.518 102.435 200.759 102.443C201.005 102.451 201.216 102.395 201.393 102.274C201.574 102.153 201.721 101.948 201.834 101.658L201.985 101.266L198.658 91.7273H201.363L203.283 98.5369H203.379L205.317 91.7273H208.04L204.436 102.002C204.263 102.501 204.027 102.936 203.729 103.306C203.436 103.68 203.063 103.968 202.613 104.169C202.162 104.375 201.619 104.477 200.983 104.477ZM210.141 95.7841C210.141 94.2628 210.338 92.8642 210.732 91.5884C211.131 90.3086 211.698 89.1314 212.435 88.0568H213.69C213.401 88.4553 213.129 88.9463 212.875 89.5298C212.626 90.1094 212.407 90.7473 212.217 91.4435C212.028 92.1358 211.879 92.8522 211.771 93.5927C211.666 94.3332 211.614 95.0637 211.614 95.7841C211.614 96.742 211.706 97.7139 211.891 98.6999C212.077 99.686 212.326 100.602 212.64 101.447C212.954 102.292 213.304 102.98 213.69 103.511H212.435C211.698 102.437 211.131 101.262 210.732 99.9858C210.338 98.706 210.141 97.3054 210.141 95.7841ZM219.825 91.7273V92.9347H215.02V91.7273H219.825ZM216.421 89.5057H217.845V98.3438C217.845 98.7462 217.904 99.0481 218.02 99.2493C218.141 99.4465 218.294 99.5793 218.479 99.6477C218.668 99.7121 218.868 99.7443 219.077 99.7443C219.234 99.7443 219.363 99.7363 219.463 99.7202C219.564 99.7 219.644 99.6839 219.705 99.6719L219.994 100.952C219.898 100.988 219.763 101.024 219.59 101.06C219.417 101.101 219.198 101.121 218.932 101.121C218.529 101.121 218.135 101.034 217.749 100.861C217.366 100.688 217.048 100.424 216.795 100.07C216.545 99.7161 216.421 99.2694 216.421 98.7301V89.5057ZM225.011 95.7841C225.011 97.3054 224.812 98.706 224.413 99.9858C224.019 101.262 223.454 102.437 222.717 103.511H221.461C221.751 103.113 222.021 102.622 222.27 102.038C222.524 101.459 222.745 100.823 222.934 100.131C223.124 99.4344 223.27 98.716 223.375 97.9755C223.484 97.2309 223.538 96.5005 223.538 95.7841C223.538 94.8262 223.446 93.8543 223.26 92.8683C223.075 91.8822 222.826 90.9666 222.512 90.1214C222.198 89.2763 221.848 88.5881 221.461 88.0568H222.717C223.454 89.1314 224.019 90.3086 224.413 91.5884C224.812 92.8642 225.011 94.2628 225.011 95.7841ZM233.489 95.0355V93.7315H240.926V95.0355H233.489ZM233.489 98.6094V97.3054H240.926V98.6094H233.489ZM258.729 92.9648H256.085C256.036 92.6228 255.938 92.3189 255.789 92.0533C255.64 91.7836 255.449 91.5542 255.215 91.3651C254.982 91.1759 254.712 91.031 254.406 90.9304C254.105 90.8298 253.777 90.7795 253.422 90.7795C252.783 90.7795 252.225 90.9384 251.75 91.2564C251.275 91.5703 250.907 92.0291 250.645 92.6328C250.384 93.2325 250.253 93.9609 250.253 94.8182C250.253 95.6996 250.384 96.4401 250.645 97.0398C250.911 97.6394 251.281 98.0922 251.756 98.3981C252.231 98.704 252.781 98.8569 253.404 98.8569C253.754 98.8569 254.078 98.8106 254.376 98.718C254.678 98.6255 254.946 98.4906 255.179 98.3136C255.413 98.1325 255.606 97.9131 255.759 97.6555C255.916 97.398 256.024 97.1042 256.085 96.7741L258.729 96.7862C258.66 97.3537 258.489 97.901 258.216 98.4283C257.946 98.9515 257.582 99.4203 257.123 99.8349C256.668 100.245 256.125 100.571 255.493 100.813C254.865 101.05 254.155 101.169 253.362 101.169C252.259 101.169 251.273 100.92 250.404 100.42C249.539 99.9214 248.855 99.199 248.351 98.2532C247.852 97.3074 247.603 96.1624 247.603 94.8182C247.603 93.4699 247.856 92.3229 248.364 91.3771C248.871 90.4313 249.559 89.7109 250.428 89.2159C251.297 88.7169 252.275 88.4673 253.362 88.4673C254.078 88.4673 254.743 88.5679 255.354 88.7692C255.97 88.9704 256.515 89.2642 256.99 89.6506C257.465 90.0329 257.852 90.5018 258.149 91.0572C258.451 91.6126 258.644 92.2485 258.729 92.9648ZM263.127 95.6392V101H260.555V88.6364H263.054V93.3633H263.163C263.372 92.8159 263.71 92.3873 264.177 92.0774C264.644 91.7635 265.23 91.6065 265.934 91.6065C266.578 91.6065 267.139 91.7474 267.618 92.0291C268.101 92.3068 268.476 92.7073 268.741 93.2305C269.011 93.7496 269.144 94.3714 269.14 95.0959V101H266.568V95.5547C266.572 94.9832 266.427 94.5385 266.133 94.2205C265.843 93.9026 265.437 93.7436 264.914 93.7436C264.564 93.7436 264.254 93.8181 263.984 93.967C263.718 94.1159 263.509 94.3332 263.356 94.619C263.207 94.9007 263.131 95.2408 263.127 95.6392ZM271.948 95.7841C271.948 94.2628 272.145 92.8642 272.54 91.5884C272.938 90.3086 273.506 89.1314 274.242 88.0568H275.498C275.208 88.4553 274.937 88.9463 274.683 89.5298C274.433 90.1094 274.214 90.7473 274.025 91.4435C273.836 92.1358 273.687 92.8522 273.578 93.5927C273.474 94.3332 273.421 95.0637 273.421 95.7841C273.421 96.742 273.514 97.7139 273.699 98.6999C273.884 99.686 274.134 100.602 274.448 101.447C274.761 102.292 275.112 102.98 275.498 103.511H274.242C273.506 102.437 272.938 101.262 272.54 99.9858C272.145 98.706 271.948 97.3054 271.948 95.7841ZM281.633 91.7273V92.9347H276.828V91.7273H281.633ZM278.228 89.5057H279.653V98.3438C279.653 98.7462 279.711 99.0481 279.828 99.2493C279.949 99.4465 280.102 99.5793 280.287 99.6477C280.476 99.7121 280.675 99.7443 280.884 99.7443C281.041 99.7443 281.17 99.7363 281.271 99.7202C281.371 99.7 281.452 99.6839 281.512 99.6719L281.802 100.952C281.705 100.988 281.571 101.024 281.398 101.06C281.225 101.101 281.005 101.121 280.74 101.121C280.337 101.121 279.943 101.034 279.556 100.861C279.174 100.688 278.856 100.424 278.602 100.07C278.353 99.7161 278.228 99.2694 278.228 98.7301V89.5057ZM286.819 95.7841C286.819 97.3054 286.62 98.706 286.221 99.9858C285.827 101.262 285.261 102.437 284.525 103.511H283.269C283.559 103.113 283.828 102.622 284.078 102.038C284.332 101.459 284.553 100.823 284.742 100.131C284.931 99.4344 285.078 98.716 285.183 97.9755C285.291 97.2309 285.346 96.5005 285.346 95.7841C285.346 94.8262 285.253 93.8543 285.068 92.8683C284.883 91.8822 284.633 90.9666 284.319 90.1214C284.006 89.2763 283.655 88.5881 283.269 88.0568H284.525C285.261 89.1314 285.827 90.3086 286.221 91.5884C286.62 92.8642 286.819 94.2628 286.819 95.7841Z" fill="#4C4C4C" fill-opacity="0.5"/>
<path d="M55 90.3709C55.7638 83.4569 59.534 80 66.3104 80C76.4751 80 77.7046 103 89.8523 103C99.9903 103 102 91.7377 102 90.3709" stroke="#BE3B3B" stroke-width="4" stroke-linecap="round" stroke-linejoin="round"/>
<path d="M390 90.3709C390.764 83.4569 394.534 80 401.31 80C411.475 80 412.705 103 424.852 103C434.99 103 437 91.7377 437 90.3709" stroke="#743BBE" stroke-width="4" stroke-linecap="round" stroke-linejoin="round"/>
<path d="M58.1604 3.09091V14H55.8539V3.09091H58.1604ZM62.2846 9.26989V14H60.0154V5.81818H62.178V7.26172H62.2739C62.455 6.78587 62.7587 6.40945 63.1848 6.13246C63.6109 5.85192 64.1276 5.71165 64.7349 5.71165C65.303 5.71165 65.7984 5.83594 66.221 6.08452C66.6436 6.3331 66.9721 6.68821 67.2065 7.14986C67.4408 7.60795 67.558 8.15483 67.558 8.79048V14H65.2888V9.19531C65.2924 8.6946 65.1646 8.30398 64.9053 8.02344C64.6461 7.73935 64.2892 7.5973 63.8347 7.5973C63.5293 7.5973 63.2594 7.663 63.025 7.79439C62.7942 7.92578 62.6131 8.11754 62.4817 8.36967C62.3538 8.61825 62.2881 8.91832 62.2846 9.26989ZM69.3465 17.0682V5.81818H71.5837V7.19247H71.6849C71.7843 6.9723 71.9281 6.74858 72.1163 6.52131C72.3081 6.29048 72.5567 6.09872 72.8621 5.94602C73.171 5.78977 73.5546 5.71165 74.0127 5.71165C74.6092 5.71165 75.1597 5.8679 75.6639 6.1804C76.1682 6.48935 76.5712 6.95632 76.8731 7.58132C77.1749 8.20277 77.3259 8.98224 77.3259 9.91974C77.3259 10.8324 77.1785 11.603 76.8837 12.2315C76.5926 12.8565 76.1948 13.3306 75.6906 13.6538C75.1899 13.9734 74.6288 14.1332 74.0073 14.1332C73.567 14.1332 73.1923 14.0604 72.8834 13.9148C72.578 13.7692 72.3276 13.5863 72.1323 13.3661C71.937 13.1424 71.7879 12.9169 71.6849 12.6896H71.6156V17.0682H69.3465ZM71.5677 9.90909C71.5677 10.3956 71.6352 10.82 71.7701 11.1822C71.9051 11.5444 72.1004 11.8267 72.356 12.0291C72.6117 12.228 72.9225 12.3274 73.2882 12.3274C73.6575 12.3274 73.97 12.2262 74.2257 12.0238C74.4814 11.8178 74.6749 11.5337 74.8063 11.1715C74.9413 10.8058 75.0087 10.3849 75.0087 9.90909C75.0087 9.43679 74.943 9.02131 74.8117 8.66264C74.6803 8.30398 74.4867 8.02344 74.231 7.82102C73.9754 7.61861 73.6611 7.5174 73.2882 7.5174C72.9189 7.5174 72.6064 7.61506 72.3507 7.81037C72.0986 8.00568 71.9051 8.28267 71.7701 8.64133C71.6352 9 71.5677 9.42259 71.5677 9.90909ZM84.0854 10.5163V5.81818H86.3546V14H84.176V12.5138H84.0908C83.9061 12.9933 83.5989 13.3786 83.1693 13.6697C82.7431 13.9609 82.2229 14.1065 81.6085 14.1065C81.0617 14.1065 80.5805 13.9822 80.165 13.7337C79.7495 13.4851 79.4246 13.1317 79.1902 12.6737C78.9594 12.2156 78.8422 11.6669 78.8386 11.0277V5.81818H81.1078V10.6229C81.1114 11.1058 81.241 11.4876 81.4967 11.7681C81.7524 12.0487 82.095 12.1889 82.5247 12.1889C82.7982 12.1889 83.0538 12.1268 83.2918 12.0025C83.5297 11.8746 83.7215 11.6864 83.8671 11.4379C84.0162 11.1893 84.089 10.8821 84.0854 10.5163ZM92.5216 5.81818V7.52273H87.5944V5.81818H92.5216ZM88.713 3.85795H90.9822V11.4858C90.9822 11.6953 91.0142 11.8587 91.0781 11.9759C91.142 12.0895 91.2308 12.1694 91.3444 12.2156C91.4616 12.2617 91.5965 12.2848 91.7492 12.2848C91.8558 12.2848 91.9623 12.2759 92.0688 12.2582C92.1754 12.2369 92.2571 12.2209 92.3139 12.2102L92.6708 13.8988C92.5571 13.9343 92.3973 13.9751 92.1914 14.0213C91.9854 14.071 91.735 14.1012 91.4403 14.1119C90.8934 14.1332 90.414 14.0604 90.0021 13.8935C89.5937 13.7266 89.2759 13.4673 89.0486 13.1158C88.8213 12.7642 88.7095 12.3203 88.713 11.7841V3.85795ZM35.6444 27.3977C35.6444 26.0554 35.8184 24.8214 36.1664 23.6957C36.518 22.5664 37.0187 21.5277 37.6685 20.5795H38.7765C38.5208 20.9311 38.2811 21.3643 38.0574 21.8793C37.8372 22.3906 37.6437 22.9535 37.4768 23.5678C37.3099 24.1786 37.1785 24.8107 37.0826 25.4641C36.9903 26.1175 36.9441 26.7621 36.9441 27.3977C36.9441 28.2429 37.0258 29.1005 37.1891 29.9705C37.3525 30.8406 37.5727 31.6484 37.8497 32.3942C38.1266 33.1399 38.4356 33.7472 38.7765 34.2159H37.6685C37.0187 33.2678 36.518 32.2308 36.1664 31.1051C35.8184 29.9759 35.6444 28.7401 35.6444 27.3977ZM46.427 25.6506L45.2977 25.9702C45.2267 25.782 45.1219 25.5991 44.9834 25.4215C44.8485 25.2404 44.6638 25.0913 44.4295 24.9741C44.1951 24.8569 43.895 24.7983 43.5293 24.7983C43.0285 24.7983 42.6113 24.9137 42.2775 25.1445C41.9472 25.3718 41.7821 25.6612 41.7821 26.0128C41.7821 26.3253 41.8957 26.5721 42.123 26.7532C42.3503 26.9343 42.7054 27.0852 43.1883 27.206L44.4028 27.5043C45.1344 27.6818 45.6795 27.9535 46.0381 28.3192C46.3968 28.6815 46.5761 29.1484 46.5761 29.7202C46.5761 30.1889 46.4412 30.608 46.1713 30.9773C45.905 31.3466 45.5321 31.6378 45.0527 31.8509C44.5733 32.0639 44.0158 32.1705 43.3801 32.1705C42.5456 32.1705 41.8549 31.9893 41.308 31.6271C40.7611 31.2649 40.4149 30.7358 40.2693 30.0398L41.4625 29.7415C41.5761 30.1818 41.791 30.5121 42.107 30.7322C42.4266 30.9524 42.8439 31.0625 43.3588 31.0625C43.9447 31.0625 44.4099 30.9382 44.7544 30.6896C45.1024 30.4375 45.2764 30.1357 45.2764 29.7841C45.2764 29.5 45.177 29.2621 44.9781 29.0703C44.7793 28.875 44.4739 28.7294 44.0619 28.6335L42.6983 28.3139C41.949 28.1364 41.3986 27.8612 41.047 27.4883C40.699 27.1119 40.525 26.6413 40.525 26.0767C40.525 25.6151 40.6546 25.2067 40.9138 24.8516C41.1766 24.4964 41.5335 24.2177 41.9845 24.0153C42.4391 23.8129 42.954 23.7116 43.5293 23.7116C44.3389 23.7116 44.9746 23.8892 45.4362 24.2443C45.9014 24.5994 46.2317 25.0682 46.427 25.6506ZM51.8988 32.1705C51.1105 32.1705 50.4304 31.9964 49.8587 31.6484C49.2905 31.2969 48.852 30.8068 48.543 30.1783C48.2376 29.5462 48.0849 28.8111 48.0849 27.973C48.0849 27.1349 48.2376 26.3963 48.543 25.7571C48.852 25.1143 49.2816 24.6136 49.8321 24.255C50.3861 23.8928 51.0324 23.7116 51.771 23.7116C52.1971 23.7116 52.6179 23.7827 53.0334 23.9247C53.4489 24.0668 53.8271 24.2976 54.168 24.6172C54.5089 24.9332 54.7806 25.3523 54.983 25.8743C55.1854 26.3963 55.2866 27.0391 55.2866 27.8026V28.3352H48.9798V27.2486H54.0082C54.0082 26.7869 53.9159 26.375 53.7312 26.0128C53.5501 25.6506 53.2909 25.3647 52.9535 25.1552C52.6197 24.9457 52.2255 24.8409 51.771 24.8409C51.2703 24.8409 50.837 24.9652 50.4713 25.2138C50.1091 25.4588 49.8303 25.7784 49.635 26.1726C49.4397 26.5668 49.342 26.9893 49.342 27.4403V28.1648C49.342 28.7827 49.4486 29.3065 49.6616 29.7362C49.8782 30.1623 50.1783 30.4872 50.5618 30.7109C50.9454 30.9311 51.391 31.0412 51.8988 31.0412C52.2291 31.0412 52.5274 30.995 52.7937 30.9027C53.0636 30.8068 53.2962 30.6648 53.4915 30.4766C53.6868 30.2848 53.8378 30.0469 53.9443 29.7628L55.1588 30.1037C55.0309 30.5156 54.8161 30.8778 54.5142 31.1903C54.2124 31.4993 53.8395 31.7408 53.3956 31.9148C52.9517 32.0852 52.4528 32.1705 51.8988 32.1705ZM62.7813 35.0682V30.7429H62.6748C62.5824 30.892 62.451 31.0803 62.2806 31.3075C62.1101 31.5312 61.8669 31.7319 61.5508 31.9094C61.2348 32.0835 60.814 32.1705 60.2884 32.1705C59.6066 32.1705 59.0047 31.9982 58.4826 31.6538C57.9606 31.3058 57.5522 30.8157 57.2575 30.1836C56.9628 29.5479 56.8154 28.7969 56.8154 27.9304C56.8154 27.071 56.9628 26.3253 57.2575 25.6932C57.5522 25.0611 57.9624 24.5728 58.488 24.2283C59.0135 23.8839 59.6208 23.7116 60.3097 23.7116C60.8424 23.7116 61.2632 23.8004 61.5721 23.978C61.8846 24.152 62.1226 24.3509 62.2859 24.5746C62.4528 24.7947 62.5824 24.9759 62.6748 25.1179H62.8239V23.8182H64.0384V35.0682H62.7813ZM60.4589 31.0412C60.9631 31.0412 61.3892 30.9098 61.7373 30.647C62.0853 30.3807 62.3498 30.0131 62.5309 29.5444C62.712 29.0721 62.8026 28.527 62.8026 27.9091C62.8026 27.2983 62.7138 26.7638 62.5363 26.3058C62.3587 25.8441 62.0959 25.4854 61.7479 25.2298C61.3999 24.9705 60.9702 24.8409 60.4589 24.8409C59.9262 24.8409 59.4823 24.9776 59.1272 25.2511C58.7756 25.521 58.5111 25.8885 58.3335 26.3537C58.1595 26.8153 58.0725 27.3338 58.0725 27.9091C58.0725 28.4915 58.1613 29.0206 58.3388 29.4964C58.5199 29.9687 58.7863 30.3452 59.1378 30.6257C59.4929 30.9027 59.9333 31.0412 60.4589 31.0412ZM71.4958 28.6548V23.8182H72.7529V32H71.4958V30.6151H71.4106C71.2188 31.0305 70.9205 31.3839 70.5157 31.6751C70.1108 31.9627 69.5995 32.1065 68.9816 32.1065C68.4702 32.1065 68.0157 31.9947 67.6179 31.771C67.2202 31.5437 66.9077 31.2028 66.6804 30.7482C66.4532 30.2901 66.3395 29.7131 66.3395 29.017V23.8182H67.5966V28.9318C67.5966 29.5284 67.7635 30.0043 68.0973 30.3594C68.4347 30.7145 68.8644 30.892 69.3864 30.892C69.6989 30.892 70.0167 30.8121 70.3399 30.6523C70.6666 30.4925 70.94 30.2475 71.1602 29.9173C71.3839 29.587 71.4958 29.1662 71.4958 28.6548ZM78.4858 32.1705C77.6974 32.1705 77.0174 31.9964 76.4456 31.6484C75.8774 31.2969 75.4389 30.8068 75.1299 30.1783C74.8245 29.5462 74.6718 28.8111 74.6718 27.973C74.6718 27.1349 74.8245 26.3963 75.1299 25.7571C75.4389 25.1143 75.8686 24.6136 76.419 24.255C76.973 23.8928 77.6193 23.7116 78.3579 23.7116C78.784 23.7116 79.2049 23.7827 79.6203 23.9247C80.0358 24.0668 80.414 24.2976 80.7549 24.6172C81.0958 24.9332 81.3675 25.3523 81.5699 25.8743C81.7723 26.3963 81.8735 27.0391 81.8735 27.8026V28.3352H75.5667V27.2486H80.5951C80.5951 26.7869 80.5028 26.375 80.3181 26.0128C80.137 25.6506 79.8778 25.3647 79.5404 25.1552C79.2066 24.9457 78.8125 24.8409 78.3579 24.8409C77.8572 24.8409 77.424 24.9652 77.0582 25.2138C76.696 25.4588 76.4172 25.7784 76.2219 26.1726C76.0266 26.5668 75.9289 26.9893 75.9289 27.4403V28.1648C75.9289 28.7827 76.0355 29.3065 76.2485 29.7362C76.4652 30.1623 76.7652 30.4872 77.1487 30.7109C77.5323 30.9311 77.9779 31.0412 78.4858 31.0412C78.816 31.0412 79.1143 30.995 79.3806 30.9027C79.6505 30.8068 79.8831 30.6648 80.0784 30.4766C80.2737 30.2848 80.4247 30.0469 80.5312 29.7628L81.7457 30.1037C81.6179 30.5156 81.403 30.8778 81.1012 31.1903C80.7993 31.4993 80.4264 31.7408 79.9826 31.9148C79.5387 32.0852 79.0397 32.1705 78.4858 32.1705ZM85.0429 27.0781V32H83.7858V23.8182H85.0003V25.0966H85.1068C85.2986 24.6811 85.5898 24.3473 85.9804 24.0952C86.371 23.8395 86.8753 23.7116 87.4932 23.7116C88.0472 23.7116 88.5319 23.8253 88.9474 24.0526C89.3629 24.2763 89.686 24.6172 89.9169 25.0753C90.1477 25.5298 90.2631 26.1051 90.2631 26.8011V32H89.006V26.8864C89.006 26.2436 88.8391 25.7429 88.5053 25.3842C88.1715 25.022 87.7134 24.8409 87.131 24.8409C86.7297 24.8409 86.371 24.9279 86.055 25.1019C85.7425 25.2759 85.4957 25.5298 85.3146 25.8636C85.1335 26.1974 85.0429 26.6023 85.0429 27.0781ZM95.8841 32.1705C95.1171 32.1705 94.4565 31.9893 93.9026 31.6271C93.3486 31.2649 92.9225 30.766 92.6242 30.1303C92.3259 29.4947 92.1767 28.7685 92.1767 27.9517C92.1767 27.1207 92.3294 26.3874 92.6348 25.7518C92.9438 25.1126 93.3734 24.6136 93.9239 24.255C94.4778 23.8928 95.1242 23.7116 95.8628 23.7116C96.4381 23.7116 96.9565 23.8182 97.4182 24.0312C97.8798 24.2443 98.258 24.5426 98.5528 24.9261C98.8475 25.3097 99.0304 25.7571 99.1014 26.2685H97.8443C97.7484 25.8956 97.5354 25.5653 97.2051 25.2777C96.8784 24.9865 96.4381 24.8409 95.8841 24.8409C95.394 24.8409 94.9644 24.9687 94.595 25.2244C94.2293 25.4766 93.9434 25.8335 93.7374 26.2951C93.535 26.7532 93.4338 27.2912 93.4338 27.9091C93.4338 28.5412 93.5332 29.0916 93.7321 29.5604C93.9345 30.0291 94.2186 30.3931 94.5844 30.6523C94.9537 30.9116 95.3869 31.0412 95.8841 31.0412C96.2108 31.0412 96.5073 30.9844 96.7737 30.8707C97.04 30.7571 97.2655 30.5938 97.4502 30.3807C97.6348 30.1676 97.7662 29.9119 97.8443 29.6136H99.1014C99.0304 30.0966 98.8546 30.5316 98.5741 30.9187C98.2971 31.3022 97.9296 31.6076 97.4715 31.8349C97.0169 32.0586 96.4878 32.1705 95.8841 32.1705ZM104.37 32.1705C103.581 32.1705 102.901 31.9964 102.329 31.6484C101.761 31.2969 101.323 30.8068 101.014 30.1783C100.708 29.5462 100.556 28.8111 100.556 27.973C100.556 27.1349 100.708 26.3963 101.014 25.7571C101.323 25.1143 101.752 24.6136 102.303 24.255C102.857 23.8928 103.503 23.7116 104.242 23.7116C104.668 23.7116 105.089 23.7827 105.504 23.9247C105.92 24.0668 106.298 24.2976 106.639 24.6172C106.98 24.9332 107.251 25.3523 107.454 25.8743C107.656 26.3963 107.757 27.0391 107.757 27.8026V28.3352H101.451V27.2486H106.479C106.479 26.7869 106.387 26.375 106.202 26.0128C106.021 25.6506 105.762 25.3647 105.424 25.1552C105.09 24.9457 104.696 24.8409 104.242 24.8409C103.741 24.8409 103.308 24.9652 102.942 25.2138C102.58 25.4588 102.301 25.7784 102.106 26.1726C101.91 26.5668 101.813 26.9893 101.813 27.4403V28.1648C101.813 28.7827 101.919 29.3065 102.132 29.7362C102.349 30.1623 102.649 30.4872 103.033 30.7109C103.416 30.9311 103.862 31.0412 104.37 31.0412C104.7 31.0412 104.998 30.995 105.264 30.9027C105.534 30.8068 105.767 30.6648 105.962 30.4766C106.158 30.2848 106.308 30.0469 106.415 29.7628L107.629 30.1037C107.502 30.5156 107.287 30.8778 106.985 31.1903C106.683 31.4993 106.31 31.7408 105.866 31.9148C105.422 32.0852 104.924 32.1705 104.37 32.1705ZM112.354 27.3977C112.354 28.7401 112.178 29.9759 111.827 31.1051C111.479 32.2308 110.98 33.2678 110.33 34.2159H109.222C109.478 33.8643 109.716 33.4311 109.936 32.9162C110.16 32.4048 110.355 31.8437 110.522 31.233C110.689 30.6186 110.818 29.9847 110.911 29.3313C111.007 28.6744 111.055 28.0298 111.055 27.3977C111.055 26.5526 110.973 25.695 110.81 24.8249C110.646 23.9549 110.426 23.147 110.149 22.4013C109.872 21.6555 109.563 21.0483 109.222 20.5795H110.33C110.98 21.5277 111.479 22.5664 111.827 23.6957C112.178 24.8214 112.354 26.0554 112.354 27.3977Z" fill="#505050"/>
<path d="M399.199 8.54545C399.199 9.73509 398.974 10.7472 398.523 11.5817C398.075 12.4162 397.464 13.0536 396.69 13.494C395.92 13.9308 395.053 14.1491 394.091 14.1491C393.121 14.1491 392.251 13.929 391.481 13.4886C390.71 13.0483 390.101 12.4109 389.654 11.5763C389.206 10.7418 388.982 9.73153 388.982 8.54545C388.982 7.35582 389.206 6.34375 389.654 5.50923C390.101 4.67472 390.71 4.03906 391.481 3.60227C392.251 3.16193 393.121 2.94176 394.091 2.94176C395.053 2.94176 395.92 3.16193 396.69 3.60227C397.464 4.03906 398.075 4.67472 398.523 5.50923C398.974 6.34375 399.199 7.35582 399.199 8.54545ZM396.861 8.54545C396.861 7.77486 396.745 7.125 396.514 6.59588C396.287 6.06676 395.966 5.66548 395.55 5.39205C395.135 5.11861 394.648 4.98189 394.091 4.98189C393.533 4.98189 393.047 5.11861 392.631 5.39205C392.216 5.66548 391.893 6.06676 391.662 6.59588C391.435 7.125 391.321 7.77486 391.321 8.54545C391.321 9.31605 391.435 9.96591 391.662 10.495C391.893 11.0241 392.216 11.4254 392.631 11.6989C393.047 11.9723 393.533 12.109 394.091 12.109C394.648 12.109 395.135 11.9723 395.55 11.6989C395.966 11.4254 396.287 11.0241 396.514 10.495C396.745 9.96591 396.861 9.31605 396.861 8.54545ZM406.112 10.5163V5.81818H408.381V14H406.202V12.5138H406.117C405.932 12.9933 405.625 13.3786 405.196 13.6697C404.769 13.9609 404.249 14.1065 403.635 14.1065C403.088 14.1065 402.607 13.9822 402.191 13.7337C401.776 13.4851 401.451 13.1317 401.217 12.6737C400.986 12.2156 400.869 11.6669 400.865 11.0277V5.81818H403.134V10.6229C403.138 11.1058 403.267 11.4876 403.523 11.7681C403.779 12.0487 404.121 12.1889 404.551 12.1889C404.825 12.1889 405.08 12.1268 405.318 12.0025C405.556 11.8746 405.748 11.6864 405.893 11.4379C406.043 11.1893 406.115 10.8821 406.112 10.5163ZM414.548 5.81818V7.52273H409.621V5.81818H414.548ZM410.739 3.85795H413.009V11.4858C413.009 11.6953 413.041 11.8587 413.104 11.9759C413.168 12.0895 413.257 12.1694 413.371 12.2156C413.488 12.2617 413.623 12.2848 413.776 12.2848C413.882 12.2848 413.989 12.2759 414.095 12.2582C414.202 12.2369 414.283 12.2209 414.34 12.2102L414.697 13.8988C414.583 13.9343 414.424 13.9751 414.218 14.0213C414.012 14.071 413.761 14.1012 413.467 14.1119C412.92 14.1332 412.44 14.0604 412.028 13.8935C411.62 13.7266 411.302 13.4673 411.075 13.1158C410.848 12.7642 410.736 12.3203 410.739 11.7841V3.85795ZM416.026 17.0682V5.81818H418.263V7.19247H418.365C418.464 6.9723 418.608 6.74858 418.796 6.52131C418.988 6.29048 419.236 6.09872 419.542 5.94602C419.851 5.78977 420.234 5.71165 420.692 5.71165C421.289 5.71165 421.839 5.8679 422.344 6.1804C422.848 6.48935 423.251 6.95632 423.553 7.58132C423.855 8.20277 424.006 8.98224 424.006 9.91974C424.006 10.8324 423.858 11.603 423.563 12.2315C423.272 12.8565 422.875 13.3306 422.37 13.6538C421.87 13.9734 421.308 14.1332 420.687 14.1332C420.247 14.1332 419.872 14.0604 419.563 13.9148C419.258 13.7692 419.007 13.5863 418.812 13.3661C418.617 13.1424 418.468 12.9169 418.365 12.6896H418.295V17.0682H416.026ZM418.247 9.90909C418.247 10.3956 418.315 10.82 418.45 11.1822C418.585 11.5444 418.78 11.8267 419.036 12.0291C419.291 12.228 419.602 12.3274 419.968 12.3274C420.337 12.3274 420.65 12.2262 420.905 12.0238C421.161 11.8178 421.355 11.5337 421.486 11.1715C421.621 10.8058 421.688 10.3849 421.688 9.90909C421.688 9.43679 421.623 9.02131 421.491 8.66264C421.36 8.30398 421.166 8.02344 420.911 7.82102C420.655 7.61861 420.341 7.5174 419.968 7.5174C419.599 7.5174 419.286 7.61506 419.03 7.81037C418.778 8.00568 418.585 8.28267 418.45 8.64133C418.315 9 418.247 9.42259 418.247 9.90909ZM430.765 10.5163V5.81818H433.034V14H430.856V12.5138H430.77C430.586 12.9933 430.279 13.3786 429.849 13.6697C429.423 13.9609 428.903 14.1065 428.288 14.1065C427.741 14.1065 427.26 13.9822 426.845 13.7337C426.429 13.4851 426.104 13.1317 425.87 12.6737C425.639 12.2156 425.522 11.6669 425.518 11.0277V5.81818H427.788V10.6229C427.791 11.1058 427.921 11.4876 428.176 11.7681C428.432 12.0487 428.775 12.1889 429.204 12.1889C429.478 12.1889 429.734 12.1268 429.971 12.0025C430.209 11.8746 430.401 11.6864 430.547 11.4379C430.696 11.1893 430.769 10.8821 430.765 10.5163ZM439.201 5.81818V7.52273H434.274V5.81818H439.201ZM435.393 3.85795H437.662V11.4858C437.662 11.6953 437.694 11.8587 437.758 11.9759C437.822 12.0895 437.91 12.1694 438.024 12.2156C438.141 12.2617 438.276 12.2848 438.429 12.2848C438.535 12.2848 438.642 12.2759 438.749 12.2582C438.855 12.2369 438.937 12.2209 438.994 12.2102L439.35 13.8988C439.237 13.9343 439.077 13.9751 438.871 14.0213C438.665 14.071 438.415 14.1012 438.12 14.1119C437.573 14.1332 437.094 14.0604 436.682 13.8935C436.273 13.7266 435.956 13.4673 435.728 13.1158C435.501 12.7642 435.389 12.3203 435.393 11.7841V3.85795ZM375.644 27.3977C375.644 26.0554 375.818 24.8214 376.166 23.6957C376.518 22.5664 377.019 21.5277 377.669 20.5795H378.777C378.521 20.9311 378.281 21.3643 378.057 21.8793C377.837 22.3906 377.644 22.9535 377.477 23.5678C377.31 24.1786 377.178 24.8107 377.083 25.4641C376.99 26.1175 376.944 26.7621 376.944 27.3977C376.944 28.2429 377.026 29.1005 377.189 29.9705C377.352 30.8406 377.573 31.6484 377.85 32.3942C378.127 33.1399 378.436 33.7472 378.777 34.2159H377.669C377.019 33.2678 376.518 32.2308 376.166 31.1051C375.818 29.9759 375.644 28.7401 375.644 27.3977ZM386.427 25.6506L385.298 25.9702C385.227 25.782 385.122 25.5991 384.983 25.4215C384.848 25.2404 384.664 25.0913 384.429 24.9741C384.195 24.8569 383.895 24.7983 383.529 24.7983C383.029 24.7983 382.611 24.9137 382.277 25.1445C381.947 25.3718 381.782 25.6612 381.782 26.0128C381.782 26.3253 381.896 26.5721 382.123 26.7532C382.35 26.9343 382.705 27.0852 383.188 27.206L384.403 27.5043C385.134 27.6818 385.679 27.9535 386.038 28.3192C386.397 28.6815 386.576 29.1484 386.576 29.7202C386.576 30.1889 386.441 30.608 386.171 30.9773C385.905 31.3466 385.532 31.6378 385.053 31.8509C384.573 32.0639 384.016 32.1705 383.38 32.1705C382.546 32.1705 381.855 31.9893 381.308 31.6271C380.761 31.2649 380.415 30.7358 380.269 30.0398L381.462 29.7415C381.576 30.1818 381.791 30.5121 382.107 30.7322C382.427 30.9524 382.844 31.0625 383.359 31.0625C383.945 31.0625 384.41 30.9382 384.754 30.6896C385.102 30.4375 385.276 30.1357 385.276 29.7841C385.276 29.5 385.177 29.2621 384.978 29.0703C384.779 28.875 384.474 28.7294 384.062 28.6335L382.698 28.3139C381.949 28.1364 381.399 27.8612 381.047 27.4883C380.699 27.1119 380.525 26.6413 380.525 26.0767C380.525 25.6151 380.655 25.2067 380.914 24.8516C381.177 24.4964 381.534 24.2177 381.985 24.0153C382.439 23.8129 382.954 23.7116 383.529 23.7116C384.339 23.7116 384.975 23.8892 385.436 24.2443C385.901 24.5994 386.232 25.0682 386.427 25.6506ZM391.899 32.1705C391.11 32.1705 390.43 31.9964 389.859 31.6484C389.291 31.2969 388.852 30.8068 388.543 30.1783C388.238 29.5462 388.085 28.8111 388.085 27.973C388.085 27.1349 388.238 26.3963 388.543 25.7571C388.852 25.1143 389.282 24.6136 389.832 24.255C390.386 23.8928 391.032 23.7116 391.771 23.7116C392.197 23.7116 392.618 23.7827 393.033 23.9247C393.449 24.0668 393.827 24.2976 394.168 24.6172C394.509 24.9332 394.781 25.3523 394.983 25.8743C395.185 26.3963 395.287 27.0391 395.287 27.8026V28.3352H388.98V27.2486H394.008C394.008 26.7869 393.916 26.375 393.731 26.0128C393.55 25.6506 393.291 25.3647 392.954 25.1552C392.62 24.9457 392.226 24.8409 391.771 24.8409C391.27 24.8409 390.837 24.9652 390.471 25.2138C390.109 25.4588 389.83 25.7784 389.635 26.1726C389.44 26.5668 389.342 26.9893 389.342 27.4403V28.1648C389.342 28.7827 389.449 29.3065 389.662 29.7362C389.878 30.1623 390.178 30.4872 390.562 30.7109C390.945 30.9311 391.391 31.0412 391.899 31.0412C392.229 31.0412 392.527 30.995 392.794 30.9027C393.064 30.8068 393.296 30.6648 393.492 30.4766C393.687 30.2848 393.838 30.0469 393.944 29.7628L395.159 30.1037C395.031 30.5156 394.816 30.8778 394.514 31.1903C394.212 31.4993 393.84 31.7408 393.396 31.9148C392.952 32.0852 392.453 32.1705 391.899 32.1705ZM402.781 35.0682V30.7429H402.675C402.582 30.892 402.451 31.0803 402.281 31.3075C402.11 31.5312 401.867 31.7319 401.551 31.9094C401.235 32.0835 400.814 32.1705 400.288 32.1705C399.607 32.1705 399.005 31.9982 398.483 31.6538C397.961 31.3058 397.552 30.8157 397.258 30.1836C396.963 29.5479 396.815 28.7969 396.815 27.9304C396.815 27.071 396.963 26.3253 397.258 25.6932C397.552 25.0611 397.962 24.5728 398.488 24.2283C399.014 23.8839 399.621 23.7116 400.31 23.7116C400.842 23.7116 401.263 23.8004 401.572 23.978C401.885 24.152 402.123 24.3509 402.286 24.5746C402.453 24.7947 402.582 24.9759 402.675 25.1179H402.824V23.8182H404.038V35.0682H402.781ZM400.459 31.0412C400.963 31.0412 401.389 30.9098 401.737 30.647C402.085 30.3807 402.35 30.0131 402.531 29.5444C402.712 29.0721 402.803 28.527 402.803 27.9091C402.803 27.2983 402.714 26.7638 402.536 26.3058C402.359 25.8441 402.096 25.4854 401.748 25.2298C401.4 24.9705 400.97 24.8409 400.459 24.8409C399.926 24.8409 399.482 24.9776 399.127 25.2511C398.776 25.521 398.511 25.8885 398.333 26.3537C398.159 26.8153 398.072 27.3338 398.072 27.9091C398.072 28.4915 398.161 29.0206 398.339 29.4964C398.52 29.9687 398.786 30.3452 399.138 30.6257C399.493 30.9027 399.933 31.0412 400.459 31.0412ZM411.496 28.6548V23.8182H412.753V32H411.496V30.6151H411.411C411.219 31.0305 410.92 31.3839 410.516 31.6751C410.111 31.9627 409.599 32.1065 408.982 32.1065C408.47 32.1065 408.016 31.9947 407.618 31.771C407.22 31.5437 406.908 31.2028 406.68 30.7482C406.453 30.2901 406.34 29.7131 406.34 29.017V23.8182H407.597V28.9318C407.597 29.5284 407.764 30.0043 408.097 30.3594C408.435 30.7145 408.864 30.892 409.386 30.892C409.699 30.892 410.017 30.8121 410.34 30.6523C410.667 30.4925 410.94 30.2475 411.16 29.9173C411.384 29.587 411.496 29.1662 411.496 28.6548ZM418.486 32.1705C417.697 32.1705 417.017 31.9964 416.446 31.6484C415.877 31.2969 415.439 30.8068 415.13 30.1783C414.825 29.5462 414.672 28.8111 414.672 27.973C414.672 27.1349 414.825 26.3963 415.13 25.7571C415.439 25.1143 415.869 24.6136 416.419 24.255C416.973 23.8928 417.619 23.7116 418.358 23.7116C418.784 23.7116 419.205 23.7827 419.62 23.9247C420.036 24.0668 420.414 24.2976 420.755 24.6172C421.096 24.9332 421.367 25.3523 421.57 25.8743C421.772 26.3963 421.874 27.0391 421.874 27.8026V28.3352H415.567V27.2486H420.595C420.595 26.7869 420.503 26.375 420.318 26.0128C420.137 25.6506 419.878 25.3647 419.54 25.1552C419.207 24.9457 418.812 24.8409 418.358 24.8409C417.857 24.8409 417.424 24.9652 417.058 25.2138C416.696 25.4588 416.417 25.7784 416.222 26.1726C416.027 26.5668 415.929 26.9893 415.929 27.4403V28.1648C415.929 28.7827 416.035 29.3065 416.249 29.7362C416.465 30.1623 416.765 30.4872 417.149 30.7109C417.532 30.9311 417.978 31.0412 418.486 31.0412C418.816 31.0412 419.114 30.995 419.381 30.9027C419.651 30.8068 419.883 30.6648 420.078 30.4766C420.274 30.2848 420.425 30.0469 420.531 29.7628L421.746 30.1037C421.618 30.5156 421.403 30.8778 421.101 31.1903C420.799 31.4993 420.426 31.7408 419.983 31.9148C419.539 32.0852 419.04 32.1705 418.486 32.1705ZM425.043 27.0781V32H423.786V23.8182H425V25.0966H425.107C425.299 24.6811 425.59 24.3473 425.98 24.0952C426.371 23.8395 426.875 23.7116 427.493 23.7116C428.047 23.7116 428.532 23.8253 428.947 24.0526C429.363 24.2763 429.686 24.6172 429.917 25.0753C430.148 25.5298 430.263 26.1051 430.263 26.8011V32H429.006V26.8864C429.006 26.2436 428.839 25.7429 428.505 25.3842C428.171 25.022 427.713 24.8409 427.131 24.8409C426.73 24.8409 426.371 24.9279 426.055 25.1019C425.742 25.2759 425.496 25.5298 425.315 25.8636C425.133 26.1974 425.043 26.6023 425.043 27.0781ZM435.884 32.1705C435.117 32.1705 434.457 31.9893 433.903 31.6271C433.349 31.2649 432.922 30.766 432.624 30.1303C432.326 29.4947 432.177 28.7685 432.177 27.9517C432.177 27.1207 432.329 26.3874 432.635 25.7518C432.944 25.1126 433.373 24.6136 433.924 24.255C434.478 23.8928 435.124 23.7116 435.863 23.7116C436.438 23.7116 436.957 23.8182 437.418 24.0312C437.88 24.2443 438.258 24.5426 438.553 24.9261C438.848 25.3097 439.03 25.7571 439.101 26.2685H437.844C437.748 25.8956 437.535 25.5653 437.205 25.2777C436.878 24.9865 436.438 24.8409 435.884 24.8409C435.394 24.8409 434.964 24.9687 434.595 25.2244C434.229 25.4766 433.943 25.8335 433.737 26.2951C433.535 26.7532 433.434 27.2912 433.434 27.9091C433.434 28.5412 433.533 29.0916 433.732 29.5604C433.935 30.0291 434.219 30.3931 434.584 30.6523C434.954 30.9116 435.387 31.0412 435.884 31.0412C436.211 31.0412 436.507 30.9844 436.774 30.8707C437.04 30.7571 437.265 30.5938 437.45 30.3807C437.635 30.1676 437.766 29.9119 437.844 29.6136H439.101C439.03 30.0966 438.855 30.5316 438.574 30.9187C438.297 31.3022 437.93 31.6076 437.471 31.8349C437.017 32.0586 436.488 32.1705 435.884 32.1705ZM444.37 32.1705C443.581 32.1705 442.901 31.9964 442.329 31.6484C441.761 31.2969 441.323 30.8068 441.014 30.1783C440.708 29.5462 440.556 28.8111 440.556 27.973C440.556 27.1349 440.708 26.3963 441.014 25.7571C441.323 25.1143 441.752 24.6136 442.303 24.255C442.857 23.8928 443.503 23.7116 444.242 23.7116C444.668 23.7116 445.089 23.7827 445.504 23.9247C445.92 24.0668 446.298 24.2976 446.639 24.6172C446.98 24.9332 447.251 25.3523 447.454 25.8743C447.656 26.3963 447.757 27.0391 447.757 27.8026V28.3352H441.451V27.2486H446.479C446.479 26.7869 446.387 26.375 446.202 26.0128C446.021 25.6506 445.762 25.3647 445.424 25.1552C445.09 24.9457 444.696 24.8409 444.242 24.8409C443.741 24.8409 443.308 24.9652 442.942 25.2138C442.58 25.4588 442.301 25.7784 442.106 26.1726C441.91 26.5668 441.813 26.9893 441.813 27.4403V28.1648C441.813 28.7827 441.919 29.3065 442.132 29.7362C442.349 30.1623 442.649 30.4872 443.033 30.7109C443.416 30.9311 443.862 31.0412 444.37 31.0412C444.7 31.0412 444.998 30.995 445.264 30.9027C445.534 30.8068 445.767 30.6648 445.962 30.4766C446.158 30.2848 446.308 30.0469 446.415 29.7628L447.629 30.1037C447.502 30.5156 447.287 30.8778 446.985 31.1903C446.683 31.4993 446.31 31.7408 445.866 31.9148C445.422 32.0852 444.924 32.1705 444.37 32.1705ZM452.354 27.3977C452.354 28.7401 452.178 29.9759 451.827 31.1051C451.479 32.2308 450.98 33.2678 450.33 34.2159H449.222C449.478 33.8643 449.716 33.4311 449.936 32.9162C450.16 32.4048 450.355 31.8437 450.522 31.233C450.689 30.6186 450.818 29.9847 450.911 29.3313C451.007 28.6744 451.055 28.0298 451.055 27.3977C451.055 26.5526 450.973 25.695 450.81 24.8249C450.646 23.9549 450.426 23.147 450.149 22.4013C449.872 21.6555 449.563 21.0483 449.222 20.5795H450.33C450.98 21.5277 451.479 22.5664 451.827 23.6957C452.178 24.8214 452.354 26.0554 452.354 27.3977Z" fill="#505050"/>
<path d="M365 191L355 185.226V196.774L365 191ZM356 190L117 190V192L356 192V190Z" fill="#505050"/>
<circle cx="55" cy="190" r="3" fill="#BE3B3B"/>
<circle cx="67" cy="180" r="3" fill="#BE3B3B"/>
<circle cx="78" cy="191" r="3" fill="#BE3B3B"/>
<circle cx="90" cy="203" r="3" fill="#BE3B3B"/>
<circle cx="102" cy="191" r="3" fill="#BE3B3B"/>
<circle cx="393" cy="190" r="3" fill="#743BBE"/>
<circle cx="405" cy="180" r="3" fill="#743BBE"/>
<circle cx="416" cy="191" r="3" fill="#743BBE"/>
<circle cx="428" cy="203" r="3" fill="#743BBE"/>
<circle cx="440" cy="191" r="3" fill="#743BBE"/>
<path d="M365 191L355 185.226V196.774L365 191ZM356 190L117 190V192L356 192V190Z" fill="#505050"/>
<rect x="151" y="137" width="184" height="89" rx="8" fill="#363636" stroke="white" stroke-width="2"/>
<path d="M161.457 247H157.075V234.636H161.494C162.737 234.636 163.808 234.884 164.705 235.379C165.603 235.87 166.293 236.576 166.776 237.498C167.263 238.42 167.506 239.522 167.506 240.806C167.506 242.094 167.263 243.201 166.776 244.126C166.293 245.052 165.599 245.762 164.693 246.257C163.792 246.752 162.713 247 161.457 247ZM159.689 244.76H161.349C162.121 244.76 162.771 244.623 163.299 244.35C163.83 244.072 164.228 243.643 164.494 243.064C164.764 242.48 164.898 241.728 164.898 240.806C164.898 239.893 164.764 239.146 164.494 238.566C164.228 237.987 163.832 237.56 163.305 237.287C162.777 237.013 162.127 236.876 161.355 236.876H159.689V244.76ZM169.394 247V237.727H171.966V247H169.394ZM170.686 236.532C170.304 236.532 169.976 236.405 169.702 236.152C169.433 235.894 169.298 235.586 169.298 235.228C169.298 234.874 169.433 234.57 169.702 234.316C169.976 234.059 170.304 233.93 170.686 233.93C171.069 233.93 171.395 234.059 171.664 234.316C171.938 234.57 172.075 234.874 172.075 235.228C172.075 235.586 171.938 235.894 171.664 236.152C171.395 236.405 171.069 236.532 170.686 236.532ZM181.741 240.371L179.387 240.516C179.347 240.315 179.26 240.134 179.127 239.973C178.995 239.808 178.82 239.677 178.602 239.581C178.389 239.48 178.133 239.43 177.836 239.43C177.437 239.43 177.101 239.514 176.827 239.683C176.554 239.848 176.417 240.07 176.417 240.347C176.417 240.569 176.505 240.756 176.683 240.909C176.86 241.062 177.163 241.184 177.594 241.277L179.272 241.615C180.174 241.8 180.846 242.098 181.289 242.509C181.731 242.919 181.953 243.458 181.953 244.126C181.953 244.734 181.774 245.267 181.415 245.726C181.061 246.185 180.574 246.543 179.955 246.801C179.339 247.054 178.628 247.181 177.824 247.181C176.596 247.181 175.618 246.926 174.89 246.414C174.165 245.899 173.741 245.199 173.616 244.314L176.145 244.181C176.222 244.555 176.407 244.841 176.701 245.038C176.994 245.231 177.371 245.328 177.83 245.328C178.28 245.328 178.643 245.241 178.916 245.068C179.194 244.891 179.335 244.664 179.339 244.386C179.335 244.153 179.236 243.961 179.043 243.812C178.85 243.66 178.552 243.543 178.15 243.462L176.544 243.142C175.638 242.961 174.964 242.647 174.521 242.201C174.083 241.754 173.863 241.184 173.863 240.492C173.863 239.897 174.024 239.383 174.346 238.953C174.672 238.522 175.129 238.19 175.717 237.957C176.308 237.723 177 237.607 177.793 237.607C178.964 237.607 179.886 237.854 180.558 238.349C181.234 238.844 181.629 239.518 181.741 240.371ZM187.762 247.181C186.812 247.181 185.995 246.98 185.311 246.577C184.631 246.171 184.107 245.607 183.741 244.887C183.379 244.167 183.198 243.338 183.198 242.4C183.198 241.45 183.381 240.617 183.747 239.901C184.118 239.18 184.643 238.619 185.323 238.216C186.003 237.81 186.812 237.607 187.75 237.607C188.559 237.607 189.267 237.753 189.875 238.047C190.482 238.341 190.963 238.754 191.318 239.285C191.672 239.816 191.867 240.44 191.903 241.156H189.476C189.408 240.693 189.227 240.321 188.933 240.039C188.643 239.754 188.263 239.611 187.792 239.611C187.394 239.611 187.045 239.719 186.748 239.937C186.454 240.15 186.224 240.462 186.059 240.873C185.894 241.283 185.812 241.78 185.812 242.364C185.812 242.955 185.892 243.458 186.053 243.873C186.218 244.287 186.45 244.603 186.748 244.821C187.045 245.038 187.394 245.147 187.792 245.147C188.086 245.147 188.349 245.086 188.583 244.966C188.82 244.845 189.015 244.67 189.168 244.44C189.325 244.207 189.428 243.927 189.476 243.601H191.903C191.863 244.31 191.67 244.933 191.324 245.473C190.982 246.008 190.509 246.426 189.905 246.728C189.301 247.03 188.587 247.181 187.762 247.181ZM193.55 247V237.727H196.043V239.345H196.14C196.309 238.77 196.592 238.335 196.991 238.041C197.389 237.743 197.848 237.594 198.367 237.594C198.496 237.594 198.635 237.603 198.784 237.619C198.933 237.635 199.063 237.657 199.176 237.685V239.967C199.055 239.931 198.888 239.899 198.675 239.87C198.462 239.842 198.267 239.828 198.089 239.828C197.711 239.828 197.373 239.911 197.075 240.076C196.781 240.237 196.548 240.462 196.375 240.752C196.206 241.042 196.121 241.376 196.121 241.754V247H193.55ZM204.3 247.181C203.346 247.181 202.525 246.988 201.837 246.602C201.153 246.211 200.626 245.66 200.255 244.947C199.885 244.231 199.7 243.384 199.7 242.406C199.7 241.452 199.885 240.615 200.255 239.895C200.626 239.174 201.147 238.613 201.819 238.21C202.495 237.808 203.288 237.607 204.197 237.607C204.809 237.607 205.379 237.705 205.906 237.902C206.437 238.096 206.9 238.387 207.294 238.778C207.693 239.168 208.003 239.659 208.224 240.251C208.445 240.838 208.556 241.527 208.556 242.315V243.022H200.726V241.428H206.135C206.135 241.058 206.055 240.73 205.894 240.444C205.733 240.158 205.509 239.935 205.224 239.774C204.942 239.609 204.614 239.526 204.24 239.526C203.849 239.526 203.503 239.617 203.201 239.798C202.903 239.975 202.67 240.214 202.501 240.516C202.332 240.814 202.245 241.146 202.241 241.512V243.028C202.241 243.487 202.326 243.883 202.495 244.217C202.668 244.551 202.911 244.809 203.225 244.99C203.539 245.171 203.912 245.261 204.342 245.261C204.628 245.261 204.89 245.221 205.127 245.141C205.364 245.06 205.568 244.939 205.737 244.778C205.906 244.617 206.035 244.42 206.123 244.187L208.502 244.344C208.381 244.915 208.133 245.414 207.759 245.841C207.389 246.263 206.91 246.594 206.322 246.831C205.739 247.064 205.065 247.181 204.3 247.181ZM215.166 237.727V239.659H209.582V237.727H215.166ZM210.85 235.506H213.422V244.151C213.422 244.388 213.458 244.573 213.53 244.706C213.603 244.835 213.704 244.925 213.832 244.978C213.965 245.03 214.118 245.056 214.291 245.056C214.412 245.056 214.533 245.046 214.653 245.026C214.774 245.002 214.867 244.984 214.931 244.972L215.335 246.885C215.207 246.926 215.026 246.972 214.792 247.024C214.559 247.08 214.275 247.115 213.941 247.127C213.321 247.151 212.778 247.068 212.311 246.879C211.848 246.69 211.488 246.396 211.23 245.998C210.973 245.599 210.846 245.096 210.85 244.489V235.506ZM220.968 247.181C220.014 247.181 219.193 246.988 218.505 246.602C217.821 246.211 217.293 245.66 216.923 244.947C216.553 244.231 216.368 243.384 216.368 242.406C216.368 241.452 216.553 240.615 216.923 239.895C217.293 239.174 217.815 238.613 218.487 238.21C219.163 237.808 219.956 237.607 220.865 237.607C221.477 237.607 222.047 237.705 222.574 237.902C223.105 238.096 223.568 238.387 223.962 238.778C224.361 239.168 224.671 239.659 224.892 240.251C225.113 240.838 225.224 241.527 225.224 242.315V243.022H217.394V241.428H222.803C222.803 241.058 222.723 240.73 222.562 240.444C222.401 240.158 222.177 239.935 221.892 239.774C221.61 239.609 221.282 239.526 220.908 239.526C220.517 239.526 220.171 239.617 219.869 239.798C219.571 239.975 219.338 240.214 219.169 240.516C219 240.814 218.913 241.146 218.909 241.512V243.028C218.909 243.487 218.994 243.883 219.163 244.217C219.336 244.551 219.579 244.809 219.893 244.99C220.207 245.171 220.58 245.261 221.01 245.261C221.296 245.261 221.558 245.221 221.795 245.141C222.032 245.06 222.236 244.939 222.405 244.778C222.574 244.617 222.703 244.42 222.791 244.187L225.17 244.344C225.049 244.915 224.801 245.414 224.427 245.841C224.057 246.263 223.578 246.594 222.99 246.831C222.407 247.064 221.733 247.181 220.968 247.181ZM237.592 238.192C237.544 237.705 237.337 237.327 236.97 237.057C236.604 236.788 236.107 236.653 235.479 236.653C235.053 236.653 234.692 236.713 234.399 236.834C234.105 236.951 233.879 237.114 233.722 237.323C233.57 237.532 233.493 237.77 233.493 238.035C233.485 238.257 233.531 238.45 233.632 238.615C233.737 238.78 233.879 238.923 234.061 239.043C234.242 239.16 234.451 239.263 234.688 239.351C234.926 239.436 235.179 239.508 235.449 239.569L236.56 239.834C237.099 239.955 237.594 240.116 238.045 240.317C238.496 240.518 238.886 240.766 239.216 241.06C239.546 241.353 239.802 241.7 239.983 242.098C240.168 242.496 240.262 242.953 240.267 243.468C240.262 244.225 240.069 244.881 239.687 245.436C239.309 245.988 238.761 246.416 238.045 246.722C237.333 247.024 236.473 247.175 235.467 247.175C234.469 247.175 233.6 247.022 232.859 246.716C232.123 246.41 231.547 245.958 231.133 245.358C230.722 244.754 230.507 244.008 230.487 243.118H233.016C233.044 243.533 233.163 243.879 233.372 244.157C233.586 244.43 233.869 244.638 234.224 244.778C234.582 244.915 234.986 244.984 235.437 244.984C235.88 244.984 236.264 244.919 236.59 244.79C236.92 244.662 237.176 244.483 237.357 244.253C237.538 244.024 237.628 243.76 237.628 243.462C237.628 243.185 237.546 242.951 237.381 242.762C237.22 242.573 236.982 242.412 236.669 242.279C236.359 242.146 235.978 242.026 235.528 241.917L234.181 241.579C233.139 241.325 232.316 240.929 231.712 240.39C231.108 239.85 230.809 239.124 230.813 238.21C230.809 237.462 231.008 236.808 231.41 236.248C231.817 235.689 232.374 235.252 233.083 234.938C233.791 234.624 234.596 234.467 235.497 234.467C236.415 234.467 237.216 234.624 237.9 234.938C238.588 235.252 239.124 235.689 239.506 236.248C239.888 236.808 240.085 237.456 240.097 238.192H237.592ZM248.732 238.192C248.684 237.705 248.476 237.327 248.11 237.057C247.744 236.788 247.247 236.653 246.619 236.653C246.192 236.653 245.832 236.713 245.538 236.834C245.244 236.951 245.019 237.114 244.862 237.323C244.709 237.532 244.633 237.77 244.633 238.035C244.625 238.257 244.671 238.45 244.772 238.615C244.876 238.78 245.019 238.923 245.2 239.043C245.381 239.16 245.591 239.263 245.828 239.351C246.065 239.436 246.319 239.508 246.589 239.569L247.699 239.834C248.239 239.955 248.734 240.116 249.185 240.317C249.635 240.518 250.026 240.766 250.356 241.06C250.686 241.353 250.941 241.7 251.122 242.098C251.308 242.496 251.402 242.953 251.406 243.468C251.402 244.225 251.209 244.881 250.827 245.436C250.448 245.988 249.901 246.416 249.185 246.722C248.472 247.024 247.613 247.175 246.607 247.175C245.609 247.175 244.739 247.022 243.999 246.716C243.262 246.41 242.687 245.958 242.272 245.358C241.862 244.754 241.646 244.008 241.626 243.118H244.156C244.184 243.533 244.303 243.879 244.512 244.157C244.725 244.43 245.009 244.638 245.363 244.778C245.721 244.915 246.126 244.984 246.577 244.984C247.019 244.984 247.404 244.919 247.73 244.79C248.06 244.662 248.315 244.483 248.496 244.253C248.677 244.024 248.768 243.76 248.768 243.462C248.768 243.185 248.686 242.951 248.521 242.762C248.36 242.573 248.122 242.412 247.808 242.279C247.498 242.146 247.118 242.026 246.667 241.917L245.321 241.579C244.279 241.325 243.456 240.929 242.852 240.39C242.248 239.85 241.948 239.124 241.952 238.21C241.948 237.462 242.148 236.808 242.55 236.248C242.956 235.689 243.514 235.252 244.222 234.938C244.931 234.624 245.735 234.467 246.637 234.467C247.555 234.467 248.355 234.624 249.04 234.938C249.728 235.252 250.263 235.689 250.646 236.248C251.028 236.808 251.225 237.456 251.237 238.192H248.732ZM253.164 234.636H256.388L259.793 242.943H259.938L263.343 234.636H266.566V247H264.031V238.953H263.928L260.729 246.94H259.002L255.803 238.923H255.7V247H253.164V234.636Z" fill="#363636"/>
<rect x="159" y="197" width="165" height="23" rx="3" fill="white"/>
<rect x="159" y="154" width="165" height="23" rx="3" fill="white"/>
<path d="M188.954 165.793V171H186.456V158.992H188.884V163.583H188.989C189.193 163.051 189.521 162.635 189.975 162.334C190.428 162.029 190.997 161.877 191.681 161.877C192.306 161.877 192.851 162.013 193.317 162.287C193.786 162.557 194.149 162.946 194.407 163.454C194.669 163.958 194.798 164.562 194.794 165.266V171H192.296V165.711C192.3 165.156 192.16 164.724 191.874 164.415C191.593 164.107 191.198 163.952 190.69 163.952C190.35 163.952 190.049 164.025 189.787 164.169C189.529 164.314 189.326 164.525 189.177 164.802C189.032 165.076 188.958 165.406 188.954 165.793ZM234.651 165.793V171H232.153V158.992H234.58V163.583H234.686C234.889 163.051 235.217 162.635 235.671 162.334C236.124 162.029 236.693 161.877 237.377 161.877C238.002 161.877 238.548 162.013 239.013 162.287C239.482 162.557 239.845 162.946 240.103 163.454C240.365 163.958 240.494 164.562 240.49 165.266V171H237.993V165.711C237.997 165.156 237.856 164.724 237.571 164.415C237.289 164.107 236.894 163.952 236.386 163.952C236.046 163.952 235.745 164.025 235.483 164.169C235.225 164.314 235.022 164.525 234.873 164.802C234.729 165.076 234.654 165.406 234.651 165.793Z" fill="#4C7477"/>
<path d="M206.269 165.113V164.146H212.947V165.113H206.269ZM206.269 168.473V167.505H212.947V168.473H206.269ZM265.445 170.021V162.598H266.448V170.021H265.445ZM262.232 166.808V165.811H269.661V166.808H262.232Z" fill="#555555"/>
<path d="M221.918 171H219.198L223.343 158.992H226.615L230.754 171H228.034L225.026 161.736H224.932L221.918 171ZM221.748 166.28H228.174V168.262H221.748V166.28Z" fill="#978545"/>
<path d="M276.187 171V158.992H280.995C281.878 158.992 282.615 159.123 283.205 159.385C283.795 159.647 284.239 160.01 284.536 160.475C284.833 160.936 284.982 161.468 284.982 162.07C284.982 162.539 284.888 162.952 284.7 163.307C284.513 163.659 284.255 163.948 283.926 164.175C283.602 164.398 283.231 164.556 282.812 164.65V164.767C283.27 164.787 283.698 164.916 284.096 165.154C284.499 165.393 284.825 165.727 285.076 166.157C285.326 166.583 285.451 167.091 285.451 167.681C285.451 168.318 285.293 168.887 284.976 169.388C284.663 169.884 284.2 170.277 283.586 170.566C282.973 170.855 282.216 171 281.317 171H276.187ZM278.726 168.924H280.795C281.503 168.924 282.019 168.79 282.343 168.52C282.668 168.246 282.83 167.883 282.83 167.429C282.83 167.097 282.75 166.804 282.59 166.55C282.429 166.296 282.201 166.096 281.904 165.952C281.61 165.807 281.261 165.735 280.854 165.735H278.726V168.924ZM278.726 164.017H280.608C280.956 164.017 281.264 163.956 281.534 163.835C281.808 163.71 282.023 163.534 282.179 163.307C282.339 163.081 282.419 162.809 282.419 162.492C282.419 162.058 282.265 161.708 281.956 161.443C281.651 161.177 281.218 161.044 280.655 161.044H278.726V164.017Z" fill="#4B9745"/>
<path d="M289.143 161.994L290.797 165.142L292.491 161.994H295.054L292.444 166.497L295.124 171H292.573L290.797 167.887L289.05 171H286.47L289.143 166.497L286.563 161.994H289.143Z" fill="#BE3B3B"/>
<path d="M297.283 171.94L297.276 171.113H297.418L299.975 168.545H300.774L298.249 171.074L298.192 171.085L297.283 171.94ZM296.708 174V166.727H297.34V174H296.708ZM300.106 174L297.89 171.198L298.345 170.761L300.916 174H300.106Z" fill="#4C4C4C"/>
<path d="M197.283 171.94L197.276 171.113H197.418L199.975 168.545H200.774L198.249 171.074L198.192 171.085L197.283 171.94ZM196.708 174V166.727H197.34V174H196.708ZM200.106 174L197.89 171.198L198.345 170.761L200.916 174H200.106Z" fill="#4C4C4C"/>
<path d="M243.02 171.94L243.013 171.113H243.155L245.712 168.545H246.511L243.986 171.074L243.929 171.085L243.02 171.94ZM242.445 174V166.727H243.077V174H242.445ZM245.843 174L243.627 171.198L244.082 170.761L246.653 174H245.843ZM250.184 170.584V171.18H247.158V170.584H250.184ZM253.991 166.727V174H253.326V167.423H253.284L251.579 168.556V167.867L253.298 166.727H253.991Z" fill="#4C4C4C"/>
<path d="M223.283 215.94L223.276 215.113H223.418L225.975 212.545H226.774L224.249 215.074L224.192 215.085L223.283 215.94ZM222.708 218V210.727H223.34V218H222.708ZM226.106 218L223.89 215.198L224.345 214.761L226.916 218H226.106Z" fill="#4C4C4C"/>
<path d="M270.283 215.94L270.276 215.113H270.418L272.975 212.545H273.774L271.249 215.074L271.192 215.085L270.283 215.94ZM269.708 218V210.727H270.34V218H269.708ZM273.106 218L270.89 215.198L271.345 214.761L273.916 218H273.106Z" fill="#4C4C4C"/>
<path d="M216.732 217.4C216.416 217.4 216.119 217.374 215.841 217.324C215.567 217.277 215.341 217.216 215.161 217.142L215.724 215.277C216.017 215.367 216.281 215.416 216.515 215.424C216.754 215.432 216.959 215.377 217.131 215.26C217.307 215.142 217.45 214.943 217.559 214.662L217.706 214.281L214.475 205.016H217.102L218.966 211.63H219.06L220.942 205.016H223.587L220.086 214.996C219.918 215.481 219.689 215.903 219.4 216.262C219.115 216.626 218.753 216.905 218.315 217.101C217.878 217.3 217.35 217.4 216.732 217.4Z" fill="#743BBE"/>
<path d="M233.551 208.136V207.168H240.23V208.136H233.551ZM233.551 211.495V210.528H240.23V211.495H233.551Z" fill="#555555"/>
<path d="M257.726 206.218H255.158C255.111 205.886 255.015 205.591 254.871 205.333C254.726 205.071 254.54 204.848 254.314 204.665C254.087 204.481 253.825 204.34 253.528 204.242C253.235 204.145 252.916 204.096 252.572 204.096C251.951 204.096 251.409 204.25 250.948 204.559C250.487 204.864 250.129 205.31 249.875 205.896C249.621 206.478 249.494 207.186 249.494 208.018C249.494 208.875 249.621 209.594 249.875 210.176C250.133 210.759 250.493 211.198 250.954 211.495C251.415 211.793 251.949 211.941 252.555 211.941C252.895 211.941 253.209 211.896 253.499 211.806C253.792 211.716 254.052 211.585 254.278 211.413C254.505 211.237 254.693 211.024 254.841 210.774C254.994 210.524 255.099 210.239 255.158 209.918L257.726 209.93C257.66 210.481 257.494 211.013 257.228 211.525C256.966 212.033 256.612 212.488 256.167 212.891C255.725 213.29 255.197 213.606 254.583 213.841C253.974 214.071 253.284 214.187 252.514 214.187C251.443 214.187 250.485 213.944 249.641 213.46C248.8 212.975 248.136 212.273 247.647 211.355C247.162 210.436 246.92 209.324 246.92 208.018C246.92 206.709 247.166 205.595 247.659 204.676C248.151 203.758 248.82 203.058 249.664 202.577C250.508 202.093 251.458 201.85 252.514 201.85C253.209 201.85 253.854 201.948 254.449 202.143C255.047 202.339 255.576 202.624 256.038 202.999C256.499 203.371 256.874 203.826 257.163 204.366C257.456 204.905 257.644 205.523 257.726 206.218Z" fill="#0847A6"/>
<path d="M261.998 208.816V214.023H259.5V202.014H261.927V206.605H262.033C262.236 206.074 262.564 205.657 263.018 205.356C263.471 205.052 264.04 204.899 264.724 204.899C265.35 204.899 265.895 205.036 266.36 205.31C266.829 205.579 267.193 205.968 267.451 206.476C267.712 206.981 267.841 207.585 267.838 208.288V214.023H265.34V208.734C265.344 208.179 265.203 207.747 264.918 207.438C264.636 207.129 264.241 206.975 263.733 206.975C263.393 206.975 263.092 207.047 262.83 207.192C262.572 207.336 262.369 207.547 262.22 207.825C262.076 208.099 262.002 208.429 261.998 208.816Z" fill="#4C7477"/>
<path d="M167.115 194.136C166.524 194.136 166.005 193.996 165.559 193.714C165.116 193.433 164.77 193.04 164.52 192.534C164.272 192.028 164.149 191.437 164.149 190.761C164.149 190.08 164.272 189.484 164.52 188.976C164.77 188.467 165.116 188.072 165.559 187.791C166.005 187.51 166.524 187.369 167.115 187.369C167.706 187.369 168.223 187.51 168.666 187.791C169.112 188.072 169.458 188.467 169.706 188.976C169.956 189.484 170.081 190.08 170.081 190.761C170.081 191.437 169.956 192.028 169.706 192.534C169.458 193.04 169.112 193.433 168.666 193.714C168.223 193.996 167.706 194.136 167.115 194.136ZM167.115 193.233C167.564 193.233 167.933 193.118 168.223 192.888C168.512 192.658 168.727 192.355 168.866 191.98C169.005 191.605 169.075 191.199 169.075 190.761C169.075 190.324 169.005 189.916 168.866 189.538C168.727 189.161 168.512 188.855 168.223 188.622C167.933 188.389 167.564 188.273 167.115 188.273C166.666 188.273 166.297 188.389 166.007 188.622C165.717 188.855 165.502 189.161 165.363 189.538C165.224 189.916 165.154 190.324 165.154 190.761C165.154 191.199 165.224 191.605 165.363 191.98C165.502 192.355 165.717 192.658 166.007 192.888C166.297 193.118 166.666 193.233 167.115 193.233ZM175.741 191.324V187.455H176.746V194H175.741V192.892H175.673C175.519 193.224 175.281 193.507 174.957 193.74C174.633 193.97 174.224 194.085 173.729 194.085C173.32 194.085 172.957 193.996 172.638 193.817C172.32 193.635 172.07 193.362 171.888 192.999C171.707 192.632 171.616 192.17 171.616 191.614V187.455H172.621V191.545C172.621 192.023 172.755 192.403 173.022 192.688C173.292 192.972 173.636 193.114 174.053 193.114C174.303 193.114 174.558 193.05 174.816 192.922C175.077 192.794 175.296 192.598 175.472 192.334C175.651 192.07 175.741 191.733 175.741 191.324ZM181.435 187.455V188.307H178.043V187.455H181.435ZM179.032 185.886H180.037V192.125C180.037 192.409 180.078 192.622 180.161 192.764C180.246 192.903 180.354 192.997 180.485 193.045C180.618 193.091 180.759 193.114 180.907 193.114C181.017 193.114 181.108 193.108 181.179 193.097C181.25 193.082 181.307 193.071 181.35 193.062L181.554 193.966C181.486 193.991 181.391 194.017 181.269 194.043C181.147 194.071 180.992 194.085 180.804 194.085C180.52 194.085 180.242 194.024 179.969 193.902C179.699 193.78 179.475 193.594 179.296 193.344C179.12 193.094 179.032 192.778 179.032 192.398V185.886ZM182.948 196.455V187.455H183.919V188.494H184.039C184.113 188.381 184.215 188.236 184.346 188.06C184.479 187.881 184.669 187.722 184.917 187.582C185.167 187.44 185.505 187.369 185.931 187.369C186.482 187.369 186.968 187.507 187.388 187.783C187.809 188.058 188.137 188.449 188.373 188.955C188.608 189.46 188.726 190.057 188.726 190.744C188.726 191.438 188.608 192.038 188.373 192.547C188.137 193.053 187.81 193.445 187.392 193.723C186.975 193.999 186.493 194.136 185.948 194.136C185.527 194.136 185.191 194.067 184.938 193.928C184.685 193.786 184.49 193.625 184.354 193.446C184.218 193.264 184.113 193.114 184.039 192.994H183.953V196.455H182.948ZM183.936 190.727C183.936 191.222 184.009 191.658 184.154 192.036C184.299 192.411 184.51 192.705 184.789 192.918C185.067 193.128 185.408 193.233 185.811 193.233C186.232 193.233 186.583 193.122 186.864 192.901C187.148 192.676 187.361 192.375 187.503 191.997C187.648 191.616 187.721 191.193 187.721 190.727C187.721 190.267 187.65 189.852 187.507 189.483C187.368 189.111 187.157 188.817 186.873 188.601C186.591 188.382 186.238 188.273 185.811 188.273C185.402 188.273 185.059 188.376 184.78 188.584C184.502 188.788 184.292 189.075 184.15 189.445C184.007 189.811 183.936 190.239 183.936 190.727ZM194.385 191.324V187.455H195.391V194H194.385V192.892H194.317C194.164 193.224 193.925 193.507 193.601 193.74C193.277 193.97 192.868 194.085 192.374 194.085C191.965 194.085 191.601 193.996 191.283 193.817C190.965 193.635 190.715 193.362 190.533 192.999C190.351 192.632 190.26 192.17 190.26 191.614V187.455H191.266V191.545C191.266 192.023 191.4 192.403 191.667 192.688C191.936 192.972 192.28 193.114 192.698 193.114C192.948 193.114 193.202 193.05 193.461 192.922C193.722 192.794 193.941 192.598 194.117 192.334C194.296 192.07 194.385 191.733 194.385 191.324ZM200.08 187.455V188.307H196.688V187.455H200.08ZM197.676 185.886H198.682V192.125C198.682 192.409 198.723 192.622 198.805 192.764C198.891 192.903 198.999 192.997 199.129 193.045C199.263 193.091 199.403 193.114 199.551 193.114C199.662 193.114 199.753 193.108 199.824 193.097C199.895 193.082 199.952 193.071 199.994 193.062L200.199 193.966C200.131 193.991 200.036 194.017 199.913 194.043C199.791 194.071 199.636 194.085 199.449 194.085C199.165 194.085 198.886 194.024 198.614 193.902C198.344 193.78 198.119 193.594 197.94 193.344C197.764 193.094 197.676 192.778 197.676 192.398V185.886ZM207.712 194.136C207.081 194.136 206.537 193.997 206.08 193.719C205.625 193.438 205.274 193.045 205.027 192.543C204.783 192.037 204.661 191.449 204.661 190.778C204.661 190.108 204.783 189.517 205.027 189.006C205.274 188.491 205.618 188.091 206.058 187.804C206.501 187.514 207.018 187.369 207.609 187.369C207.95 187.369 208.287 187.426 208.619 187.54C208.952 187.653 209.254 187.838 209.527 188.094C209.8 188.347 210.017 188.682 210.179 189.099C210.341 189.517 210.422 190.031 210.422 190.642V191.068H205.376V190.199H209.399C209.399 189.83 209.325 189.5 209.178 189.21C209.033 188.92 208.825 188.692 208.555 188.524C208.288 188.357 207.973 188.273 207.609 188.273C207.209 188.273 206.862 188.372 206.57 188.571C206.28 188.767 206.057 189.023 205.901 189.338C205.744 189.653 205.666 189.991 205.666 190.352V190.932C205.666 191.426 205.751 191.845 205.922 192.189C206.095 192.53 206.335 192.79 206.642 192.969C206.949 193.145 207.305 193.233 207.712 193.233C207.976 193.233 208.214 193.196 208.428 193.122C208.643 193.045 208.83 192.932 208.986 192.781C209.142 192.628 209.263 192.437 209.348 192.21L210.32 192.483C210.217 192.812 210.045 193.102 209.804 193.352C209.563 193.599 209.264 193.793 208.909 193.932C208.554 194.068 208.155 194.136 207.712 194.136ZM216.418 196.455V192.994H216.332C216.259 193.114 216.153 193.264 216.017 193.446C215.881 193.625 215.686 193.786 215.433 193.928C215.18 194.067 214.844 194.136 214.423 194.136C213.878 194.136 213.396 193.999 212.979 193.723C212.561 193.445 212.234 193.053 211.999 192.547C211.763 192.038 211.645 191.438 211.645 190.744C211.645 190.057 211.763 189.46 211.999 188.955C212.234 188.449 212.563 188.058 212.983 187.783C213.403 187.507 213.889 187.369 214.44 187.369C214.866 187.369 215.203 187.44 215.45 187.582C215.7 187.722 215.891 187.881 216.021 188.06C216.155 188.236 216.259 188.381 216.332 188.494H216.452V187.455H217.423V196.455H216.418ZM214.56 193.233C214.963 193.233 215.304 193.128 215.582 192.918C215.861 192.705 216.072 192.411 216.217 192.036C216.362 191.658 216.435 191.222 216.435 190.727C216.435 190.239 216.364 189.811 216.222 189.445C216.08 189.075 215.869 188.788 215.591 188.584C215.313 188.376 214.969 188.273 214.56 188.273C214.134 188.273 213.778 188.382 213.494 188.601C213.213 188.817 213.001 189.111 212.859 189.483C212.72 189.852 212.651 190.267 212.651 190.727C212.651 191.193 212.722 191.616 212.864 191.997C213.009 192.375 213.222 192.676 213.503 192.901C213.787 193.122 214.139 193.233 214.56 193.233ZM223.389 191.324V187.455H224.395V194H223.389V192.892H223.321C223.168 193.224 222.929 193.507 222.605 193.74C222.281 193.97 221.872 194.085 221.378 194.085C220.969 194.085 220.605 193.996 220.287 193.817C219.969 193.635 219.719 193.362 219.537 192.999C219.355 192.632 219.264 192.17 219.264 191.614V187.455H220.27V191.545C220.27 192.023 220.403 192.403 220.67 192.688C220.94 192.972 221.284 193.114 221.702 193.114C221.952 193.114 222.206 193.05 222.464 192.922C222.726 192.794 222.945 192.598 223.121 192.334C223.3 192.07 223.389 191.733 223.389 191.324ZM228.163 194.153C227.748 194.153 227.372 194.075 227.034 193.919C226.696 193.76 226.427 193.531 226.228 193.233C226.029 192.932 225.93 192.568 225.93 192.142C225.93 191.767 226.004 191.463 226.152 191.23C226.299 190.994 226.497 190.81 226.744 190.676C226.991 190.543 227.264 190.443 227.562 190.378C227.863 190.31 228.166 190.256 228.47 190.216C228.868 190.165 229.19 190.126 229.437 190.101C229.687 190.072 229.869 190.026 229.983 189.96C230.099 189.895 230.157 189.781 230.157 189.619V189.585C230.157 189.165 230.042 188.838 229.812 188.605C229.585 188.372 229.24 188.256 228.777 188.256C228.297 188.256 227.92 188.361 227.647 188.571C227.375 188.781 227.183 189.006 227.072 189.244L226.118 188.903C226.288 188.506 226.515 188.196 226.799 187.974C227.086 187.75 227.399 187.594 227.737 187.506C228.078 187.415 228.413 187.369 228.743 187.369C228.953 187.369 229.194 187.395 229.467 187.446C229.743 187.494 230.008 187.595 230.264 187.749C230.522 187.902 230.737 188.134 230.907 188.443C231.078 188.753 231.163 189.168 231.163 189.688V194H230.157V193.114H230.106C230.038 193.256 229.924 193.408 229.765 193.57C229.606 193.732 229.395 193.869 229.13 193.983C228.866 194.097 228.544 194.153 228.163 194.153ZM228.316 193.25C228.714 193.25 229.049 193.172 229.322 193.016C229.598 192.859 229.805 192.658 229.944 192.411C230.086 192.163 230.157 191.903 230.157 191.631V190.71C230.115 190.761 230.021 190.808 229.876 190.851C229.734 190.891 229.569 190.926 229.382 190.957C229.197 190.986 229.017 191.011 228.841 191.034C228.667 191.054 228.527 191.071 228.419 191.085C228.157 191.119 227.913 191.175 227.686 191.251C227.461 191.325 227.279 191.437 227.14 191.588C227.004 191.736 226.936 191.937 226.936 192.193C226.936 192.543 227.065 192.807 227.324 192.986C227.585 193.162 227.916 193.25 228.316 193.25ZM235.845 187.455V188.307H232.453V187.455H235.845ZM233.442 185.886H234.447V192.125C234.447 192.409 234.489 192.622 234.571 192.764C234.656 192.903 234.764 192.997 234.895 193.045C235.028 193.091 235.169 193.114 235.317 193.114C235.428 193.114 235.518 193.108 235.589 193.097C235.661 193.082 235.717 193.071 235.76 193.062L235.964 193.966C235.896 193.991 235.801 194.017 235.679 194.043C235.557 194.071 235.402 194.085 235.214 194.085C234.93 194.085 234.652 194.024 234.379 193.902C234.109 193.78 233.885 193.594 233.706 193.344C233.53 193.094 233.442 192.778 233.442 192.398V185.886ZM237.358 194V187.455H238.364V194H237.358ZM237.869 186.364C237.673 186.364 237.504 186.297 237.362 186.163C237.223 186.03 237.153 185.869 237.153 185.682C237.153 185.494 237.223 185.334 237.362 185.2C237.504 185.067 237.673 185 237.869 185C238.065 185 238.233 185.067 238.372 185.2C238.514 185.334 238.585 185.494 238.585 185.682C238.585 185.869 238.514 186.03 238.372 186.163C238.233 186.297 238.065 186.364 237.869 186.364ZM242.865 194.136C242.274 194.136 241.755 193.996 241.309 193.714C240.866 193.433 240.52 193.04 240.27 192.534C240.022 192.028 239.899 191.437 239.899 190.761C239.899 190.08 240.022 189.484 240.27 188.976C240.52 188.467 240.866 188.072 241.309 187.791C241.755 187.51 242.274 187.369 242.865 187.369C243.456 187.369 243.973 187.51 244.416 187.791C244.862 188.072 245.208 188.467 245.456 188.976C245.706 189.484 245.831 190.08 245.831 190.761C245.831 191.437 245.706 192.028 245.456 192.534C245.208 193.04 244.862 193.433 244.416 193.714C243.973 193.996 243.456 194.136 242.865 194.136ZM242.865 193.233C243.314 193.233 243.683 193.118 243.973 192.888C244.262 192.658 244.477 192.355 244.616 191.98C244.755 191.605 244.825 191.199 244.825 190.761C244.825 190.324 244.755 189.916 244.616 189.538C244.477 189.161 244.262 188.855 243.973 188.622C243.683 188.389 243.314 188.273 242.865 188.273C242.416 188.273 242.047 188.389 241.757 188.622C241.467 188.855 241.252 189.161 241.113 189.538C240.974 189.916 240.904 190.324 240.904 190.761C240.904 191.199 240.974 191.605 241.113 191.98C241.252 192.355 241.467 192.658 241.757 192.888C242.047 193.118 242.416 193.233 242.865 193.233ZM248.371 190.062V194H247.366V187.455H248.337V188.477H248.423C248.576 188.145 248.809 187.878 249.121 187.676C249.434 187.472 249.837 187.369 250.332 187.369C250.775 187.369 251.163 187.46 251.495 187.642C251.827 187.821 252.086 188.094 252.271 188.46C252.455 188.824 252.548 189.284 252.548 189.841V194H251.542V189.909C251.542 189.395 251.408 188.994 251.141 188.707C250.874 188.418 250.508 188.273 250.042 188.273C249.721 188.273 249.434 188.342 249.181 188.482C248.931 188.621 248.734 188.824 248.589 189.091C248.444 189.358 248.371 189.682 248.371 190.062Z" fill="white"/>
<path d="M168.328 145.92L167.425 146.176C167.368 146.026 167.284 145.879 167.173 145.737C167.066 145.592 166.918 145.473 166.73 145.379C166.543 145.286 166.303 145.239 166.01 145.239C165.61 145.239 165.276 145.331 165.009 145.516C164.744 145.697 164.612 145.929 164.612 146.21C164.612 146.46 164.703 146.658 164.885 146.803C165.067 146.947 165.351 147.068 165.737 147.165L166.709 147.403C167.294 147.545 167.73 147.763 168.017 148.055C168.304 148.345 168.448 148.719 168.448 149.176C168.448 149.551 168.34 149.886 168.124 150.182C167.911 150.477 167.612 150.71 167.229 150.881C166.845 151.051 166.399 151.136 165.891 151.136C165.223 151.136 164.671 150.991 164.233 150.702C163.796 150.412 163.519 149.989 163.402 149.432L164.357 149.193C164.448 149.545 164.619 149.81 164.872 149.986C165.128 150.162 165.462 150.25 165.874 150.25C166.343 150.25 166.715 150.151 166.99 149.952C167.269 149.75 167.408 149.509 167.408 149.227C167.408 149 167.328 148.81 167.169 148.656C167.01 148.5 166.766 148.384 166.436 148.307L165.345 148.051C164.746 147.909 164.306 147.689 164.024 147.391C163.746 147.089 163.607 146.713 163.607 146.261C163.607 145.892 163.71 145.565 163.918 145.281C164.128 144.997 164.414 144.774 164.774 144.612C165.138 144.45 165.55 144.369 166.01 144.369C166.658 144.369 167.166 144.511 167.536 144.795C167.908 145.08 168.172 145.455 168.328 145.92ZM172.808 144.455V145.307H169.416V144.455H172.808ZM170.405 142.886H171.41V149.125C171.41 149.409 171.452 149.622 171.534 149.764C171.619 149.903 171.727 149.997 171.858 150.045C171.991 150.091 172.132 150.114 172.28 150.114C172.39 150.114 172.481 150.108 172.552 150.097C172.623 150.082 172.68 150.071 172.723 150.062L172.927 150.966C172.859 150.991 172.764 151.017 172.642 151.043C172.52 151.071 172.365 151.085 172.177 151.085C171.893 151.085 171.615 151.024 171.342 150.902C171.072 150.78 170.848 150.594 170.669 150.344C170.493 150.094 170.405 149.778 170.405 149.398V142.886ZM176.247 151.153C175.832 151.153 175.456 151.075 175.118 150.919C174.78 150.76 174.511 150.531 174.312 150.233C174.113 149.932 174.014 149.568 174.014 149.142C174.014 148.767 174.088 148.463 174.236 148.23C174.383 147.994 174.581 147.81 174.828 147.676C175.075 147.543 175.348 147.443 175.646 147.378C175.947 147.31 176.25 147.256 176.554 147.216C176.952 147.165 177.274 147.126 177.521 147.101C177.771 147.072 177.953 147.026 178.067 146.96C178.183 146.895 178.241 146.781 178.241 146.619V146.585C178.241 146.165 178.126 145.838 177.896 145.605C177.669 145.372 177.324 145.256 176.861 145.256C176.381 145.256 176.004 145.361 175.731 145.571C175.459 145.781 175.267 146.006 175.156 146.244L174.202 145.903C174.372 145.506 174.599 145.196 174.883 144.974C175.17 144.75 175.483 144.594 175.821 144.506C176.162 144.415 176.497 144.369 176.827 144.369C177.037 144.369 177.278 144.395 177.551 144.446C177.827 144.494 178.092 144.595 178.348 144.749C178.606 144.902 178.821 145.134 178.991 145.443C179.162 145.753 179.247 146.168 179.247 146.688V151H178.241V150.114H178.19C178.122 150.256 178.008 150.408 177.849 150.57C177.69 150.732 177.479 150.869 177.214 150.983C176.95 151.097 176.628 151.153 176.247 151.153ZM176.4 150.25C176.798 150.25 177.133 150.172 177.406 150.016C177.682 149.859 177.889 149.658 178.028 149.411C178.17 149.163 178.241 148.903 178.241 148.631V147.71C178.199 147.761 178.105 147.808 177.96 147.851C177.818 147.891 177.653 147.926 177.466 147.957C177.281 147.986 177.101 148.011 176.925 148.034C176.751 148.054 176.611 148.071 176.503 148.085C176.241 148.119 175.997 148.175 175.77 148.251C175.545 148.325 175.363 148.437 175.224 148.588C175.088 148.736 175.02 148.937 175.02 149.193C175.02 149.543 175.149 149.807 175.407 149.986C175.669 150.162 176 150.25 176.4 150.25ZM183.929 144.455V145.307H180.537V144.455H183.929ZM181.526 142.886H182.531V149.125C182.531 149.409 182.573 149.622 182.655 149.764C182.74 149.903 182.848 149.997 182.979 150.045C183.112 150.091 183.253 150.114 183.401 150.114C183.512 150.114 183.602 150.108 183.673 150.097C183.744 150.082 183.801 150.071 183.844 150.062L184.048 150.966C183.98 150.991 183.885 151.017 183.763 151.043C183.641 151.071 183.486 151.085 183.298 151.085C183.014 151.085 182.736 151.024 182.463 150.902C182.193 150.78 181.969 150.594 181.79 150.344C181.614 150.094 181.526 149.778 181.526 149.398V142.886ZM188.116 151.136C187.485 151.136 186.941 150.997 186.484 150.719C186.029 150.438 185.678 150.045 185.431 149.543C185.187 149.037 185.065 148.449 185.065 147.778C185.065 147.108 185.187 146.517 185.431 146.006C185.678 145.491 186.022 145.091 186.463 144.804C186.906 144.514 187.423 144.369 188.014 144.369C188.355 144.369 188.691 144.426 189.024 144.54C189.356 144.653 189.659 144.838 189.931 145.094C190.204 145.347 190.421 145.682 190.583 146.099C190.745 146.517 190.826 147.031 190.826 147.642V148.068H185.781V147.199H189.803C189.803 146.83 189.73 146.5 189.582 146.21C189.437 145.92 189.23 145.692 188.96 145.524C188.693 145.357 188.377 145.273 188.014 145.273C187.613 145.273 187.267 145.372 186.974 145.571C186.684 145.767 186.461 146.023 186.305 146.338C186.149 146.653 186.07 146.991 186.07 147.352V147.932C186.07 148.426 186.156 148.845 186.326 149.189C186.499 149.53 186.74 149.79 187.046 149.969C187.353 150.145 187.71 150.233 188.116 150.233C188.38 150.233 188.619 150.196 188.832 150.122C189.048 150.045 189.234 149.932 189.39 149.781C189.546 149.628 189.667 149.437 189.752 149.21L190.724 149.483C190.622 149.812 190.45 150.102 190.208 150.352C189.967 150.599 189.669 150.793 189.313 150.932C188.958 151.068 188.559 151.136 188.116 151.136ZM198.475 151.136C197.845 151.136 197.301 150.997 196.843 150.719C196.389 150.438 196.038 150.045 195.791 149.543C195.546 149.037 195.424 148.449 195.424 147.778C195.424 147.108 195.546 146.517 195.791 146.006C196.038 145.491 196.382 145.091 196.822 144.804C197.265 144.514 197.782 144.369 198.373 144.369C198.714 144.369 199.051 144.426 199.383 144.54C199.715 144.653 200.018 144.838 200.291 145.094C200.563 145.347 200.781 145.682 200.943 146.099C201.105 146.517 201.186 147.031 201.186 147.642V148.068H196.14V147.199H200.163C200.163 146.83 200.089 146.5 199.941 146.21C199.796 145.92 199.589 145.692 199.319 145.524C199.052 145.357 198.737 145.273 198.373 145.273C197.972 145.273 197.626 145.372 197.333 145.571C197.044 145.767 196.82 146.023 196.664 146.338C196.508 146.653 196.43 146.991 196.43 147.352V147.932C196.43 148.426 196.515 148.845 196.686 149.189C196.859 149.53 197.099 149.79 197.406 149.969C197.713 150.145 198.069 150.233 198.475 150.233C198.74 150.233 198.978 150.196 199.191 150.122C199.407 150.045 199.593 149.932 199.749 149.781C199.906 149.628 200.026 149.437 200.112 149.21L201.083 149.483C200.981 149.812 200.809 150.102 200.568 150.352C200.326 150.599 200.028 150.793 199.673 150.932C199.318 151.068 198.919 151.136 198.475 151.136ZM207.181 153.455V149.994H207.096C207.022 150.114 206.917 150.264 206.781 150.446C206.644 150.625 206.45 150.786 206.197 150.928C205.944 151.067 205.607 151.136 205.187 151.136C204.642 151.136 204.16 150.999 203.742 150.723C203.325 150.445 202.998 150.053 202.762 149.547C202.526 149.038 202.409 148.438 202.409 147.744C202.409 147.057 202.526 146.46 202.762 145.955C202.998 145.449 203.326 145.058 203.747 144.783C204.167 144.507 204.653 144.369 205.204 144.369C205.63 144.369 205.967 144.44 206.214 144.582C206.464 144.722 206.654 144.881 206.785 145.06C206.919 145.236 207.022 145.381 207.096 145.494H207.215V144.455H208.187V153.455H207.181ZM205.323 150.233C205.727 150.233 206.068 150.128 206.346 149.918C206.624 149.705 206.836 149.411 206.981 149.036C207.126 148.658 207.198 148.222 207.198 147.727C207.198 147.239 207.127 146.811 206.985 146.445C206.843 146.075 206.633 145.788 206.355 145.584C206.076 145.376 205.732 145.273 205.323 145.273C204.897 145.273 204.542 145.382 204.258 145.601C203.977 145.817 203.765 146.111 203.623 146.483C203.484 146.852 203.414 147.267 203.414 147.727C203.414 148.193 203.485 148.616 203.627 148.997C203.772 149.375 203.985 149.676 204.267 149.901C204.551 150.122 204.903 150.233 205.323 150.233ZM214.153 148.324V144.455H215.159V151H214.153V149.892H214.085C213.931 150.224 213.693 150.507 213.369 150.74C213.045 150.97 212.636 151.085 212.142 151.085C211.732 151.085 211.369 150.996 211.051 150.817C210.732 150.635 210.482 150.362 210.301 149.999C210.119 149.632 210.028 149.17 210.028 148.614V144.455H211.034V148.545C211.034 149.023 211.167 149.403 211.434 149.688C211.704 149.972 212.048 150.114 212.465 150.114C212.715 150.114 212.97 150.05 213.228 149.922C213.49 149.794 213.708 149.598 213.884 149.334C214.063 149.07 214.153 148.733 214.153 148.324ZM218.927 151.153C218.512 151.153 218.135 151.075 217.797 150.919C217.459 150.76 217.191 150.531 216.992 150.233C216.793 149.932 216.694 149.568 216.694 149.142C216.694 148.767 216.768 148.463 216.915 148.23C217.063 147.994 217.26 147.81 217.508 147.676C217.755 147.543 218.028 147.443 218.326 147.378C218.627 147.31 218.93 147.256 219.233 147.216C219.631 147.165 219.954 147.126 220.201 147.101C220.451 147.072 220.633 147.026 220.746 146.96C220.863 146.895 220.921 146.781 220.921 146.619V146.585C220.921 146.165 220.806 145.838 220.576 145.605C220.349 145.372 220.003 145.256 219.54 145.256C219.06 145.256 218.684 145.361 218.411 145.571C218.138 145.781 217.947 146.006 217.836 146.244L216.881 145.903C217.052 145.506 217.279 145.196 217.563 144.974C217.85 144.75 218.162 144.594 218.501 144.506C218.841 144.415 219.177 144.369 219.506 144.369C219.716 144.369 219.958 144.395 220.231 144.446C220.506 144.494 220.772 144.595 221.028 144.749C221.286 144.902 221.501 145.134 221.671 145.443C221.841 145.753 221.927 146.168 221.927 146.688V151H220.921V150.114H220.87C220.802 150.256 220.688 150.408 220.529 150.57C220.37 150.732 220.158 150.869 219.894 150.983C219.63 151.097 219.307 151.153 218.927 151.153ZM219.08 150.25C219.478 150.25 219.813 150.172 220.086 150.016C220.361 149.859 220.569 149.658 220.708 149.411C220.85 149.163 220.921 148.903 220.921 148.631V147.71C220.878 147.761 220.785 147.808 220.64 147.851C220.498 147.891 220.333 147.926 220.145 147.957C219.961 147.986 219.78 148.011 219.604 148.034C219.431 148.054 219.29 148.071 219.182 148.085C218.921 148.119 218.677 148.175 218.449 148.251C218.225 148.325 218.043 148.437 217.904 148.588C217.768 148.736 217.699 148.937 217.699 149.193C217.699 149.543 217.829 149.807 218.087 149.986C218.349 150.162 218.68 150.25 219.08 150.25ZM226.609 144.455V145.307H223.217V144.455H226.609ZM224.205 142.886H225.211V149.125C225.211 149.409 225.252 149.622 225.335 149.764C225.42 149.903 225.528 149.997 225.659 150.045C225.792 150.091 225.933 150.114 226.08 150.114C226.191 150.114 226.282 150.108 226.353 150.097C226.424 150.082 226.481 150.071 226.524 150.062L226.728 150.966C226.66 150.991 226.565 151.017 226.443 151.043C226.32 151.071 226.166 151.085 225.978 151.085C225.694 151.085 225.416 151.024 225.143 150.902C224.873 150.78 224.649 150.594 224.47 150.344C224.294 150.094 224.205 149.778 224.205 149.398V142.886ZM228.122 151V144.455H229.127V151H228.122ZM228.633 143.364C228.437 143.364 228.268 143.297 228.126 143.163C227.987 143.03 227.917 142.869 227.917 142.682C227.917 142.494 227.987 142.334 228.126 142.2C228.268 142.067 228.437 142 228.633 142C228.829 142 228.997 142.067 229.136 142.2C229.278 142.334 229.349 142.494 229.349 142.682C229.349 142.869 229.278 143.03 229.136 143.163C228.997 143.297 228.829 143.364 228.633 143.364ZM233.628 151.136C233.037 151.136 232.519 150.996 232.073 150.714C231.63 150.433 231.283 150.04 231.033 149.534C230.786 149.028 230.662 148.437 230.662 147.761C230.662 147.08 230.786 146.484 231.033 145.976C231.283 145.467 231.63 145.072 232.073 144.791C232.519 144.51 233.037 144.369 233.628 144.369C234.219 144.369 234.736 144.51 235.18 144.791C235.626 145.072 235.972 145.467 236.219 145.976C236.469 146.484 236.594 147.08 236.594 147.761C236.594 148.437 236.469 149.028 236.219 149.534C235.972 150.04 235.626 150.433 235.18 150.714C234.736 150.996 234.219 151.136 233.628 151.136ZM233.628 150.233C234.077 150.233 234.447 150.118 234.736 149.888C235.026 149.658 235.241 149.355 235.38 148.98C235.519 148.605 235.589 148.199 235.589 147.761C235.589 147.324 235.519 146.916 235.38 146.538C235.241 146.161 235.026 145.855 234.736 145.622C234.447 145.389 234.077 145.273 233.628 145.273C233.18 145.273 232.81 145.389 232.52 145.622C232.231 145.855 232.016 146.161 231.877 146.538C231.738 146.916 231.668 147.324 231.668 147.761C231.668 148.199 231.738 148.605 231.877 148.98C232.016 149.355 232.231 149.658 232.52 149.888C232.81 150.118 233.18 150.233 233.628 150.233ZM239.135 147.062V151H238.129V144.455H239.101V145.477H239.186C239.34 145.145 239.573 144.878 239.885 144.676C240.198 144.472 240.601 144.369 241.095 144.369C241.539 144.369 241.926 144.46 242.259 144.642C242.591 144.821 242.85 145.094 243.034 145.46C243.219 145.824 243.311 146.284 243.311 146.841V151H242.306V146.909C242.306 146.395 242.172 145.994 241.905 145.707C241.638 145.418 241.271 145.273 240.806 145.273C240.485 145.273 240.198 145.342 239.945 145.482C239.695 145.621 239.497 145.824 239.352 146.091C239.208 146.358 239.135 146.682 239.135 147.062Z" fill="white"/>
<line x1="220" y1="157.5" x2="230" y2="157.5" stroke="#978545"/>
<line x1="276" y1="157.5" x2="285" y2="157.5" stroke="#4B9745"/>
</g>
<defs>
<clipPath id="clip0_50_119">
<rect width="495" height="253" fill="white"/>
</clipPath>
</defs>
</svg>
