<svg width="546" height="217" viewBox="0 0 546 217" fill="none" xmlns="http://www.w3.org/2000/svg">
<rect width="546" height="217" fill="white"/>
<path d="M151 56L146.67 63.5L155.33 63.5L151 56ZM151.75 117L151.75 62.75L150.25 62.75L150.25 117L151.75 117Z" fill="#DDDDDD"/>
<rect x="109.699" y="72.0081" width="84.1238" height="31.2732" rx="8" fill="#E4E9FE" stroke="#4C5877" stroke-width="2"/>
<path d="M131.821 92.0081V83.2808H133.402V86.9754H137.446V83.2808H139.032V92.0081H137.446V88.3007H133.402V92.0081H131.821ZM140.683 92.0081V85.4626H142.225V92.0081H140.683ZM141.458 84.5337C141.214 84.5337 141.004 84.4527 140.828 84.2908C140.652 84.126 140.564 83.9285 140.564 83.6984C140.564 83.4655 140.652 83.268 140.828 83.1061C141.004 82.9413 141.214 82.8589 141.458 82.8589C141.706 82.8589 141.916 82.9413 142.089 83.1061C142.265 83.268 142.353 83.4655 142.353 83.6984C142.353 83.9285 142.265 84.126 142.089 84.2908C141.916 84.4527 141.706 84.5337 141.458 84.5337ZM146.241 92.1231C145.727 92.1231 145.266 91.991 144.86 91.7268C144.454 91.4626 144.133 91.0791 143.897 90.5763C143.661 90.0734 143.543 89.4626 143.543 88.7439C143.543 88.0166 143.663 87.403 143.901 86.903C144.143 86.4001 144.468 86.0209 144.877 85.7652C145.286 85.5067 145.742 85.3774 146.245 85.3774C146.629 85.3774 146.944 85.4427 147.191 85.5734C147.438 85.7013 147.634 85.8561 147.779 86.0379C147.924 86.2169 148.036 86.3859 148.116 86.545H148.18V83.2808H149.727V92.0081H148.209V90.9768H148.116C148.036 91.1359 147.921 91.305 147.771 91.4839C147.62 91.6601 147.421 91.8106 147.174 91.9356C146.927 92.0606 146.616 92.1231 146.241 92.1231ZM146.671 90.8575C146.998 90.8575 147.276 90.7695 147.506 90.5933C147.736 90.4143 147.911 90.1658 148.03 89.8476C148.15 89.5294 148.209 89.1587 148.209 88.7354C148.209 88.3121 148.15 87.9442 148.03 87.6317C147.914 87.3192 147.741 87.0763 147.511 86.903C147.283 86.7297 147.004 86.643 146.671 86.643C146.327 86.643 146.04 86.7325 145.81 86.9115C145.58 87.0905 145.407 87.3376 145.29 87.653C145.174 87.9683 145.116 88.3291 145.116 88.7354C145.116 89.1445 145.174 89.5095 145.29 89.8305C145.41 90.1487 145.584 90.4001 145.815 90.5848C146.048 90.7666 146.333 90.8575 146.671 90.8575ZM153.799 92.1231C153.285 92.1231 152.825 91.991 152.419 91.7268C152.012 91.4626 151.691 91.0791 151.456 90.5763C151.22 90.0734 151.102 89.4626 151.102 88.7439C151.102 88.0166 151.221 87.403 151.46 86.903C151.701 86.4001 152.027 86.0209 152.436 85.7652C152.845 85.5067 153.301 85.3774 153.804 85.3774C154.187 85.3774 154.502 85.4427 154.75 85.5734C154.997 85.7013 155.193 85.8561 155.338 86.0379C155.483 86.2169 155.595 86.3859 155.674 86.545H155.738V83.2808H157.285V92.0081H155.768V90.9768H155.674C155.595 91.1359 155.48 91.305 155.329 91.4839C155.179 91.6601 154.98 91.8106 154.733 91.9356C154.485 92.0606 154.174 92.1231 153.799 92.1231ZM154.23 90.8575C154.556 90.8575 154.835 90.7695 155.065 90.5933C155.295 90.4143 155.47 90.1658 155.589 89.8476C155.708 89.5294 155.768 89.1587 155.768 88.7354C155.768 88.3121 155.708 87.9442 155.589 87.6317C155.473 87.3192 155.299 87.0763 155.069 86.903C154.842 86.7297 154.562 86.643 154.23 86.643C153.886 86.643 153.599 86.7325 153.369 86.9115C153.139 87.0905 152.966 87.3376 152.849 87.653C152.733 87.9683 152.674 88.3291 152.674 88.7354C152.674 89.1445 152.733 89.5095 152.849 89.8305C152.968 90.1487 153.143 90.4001 153.373 90.5848C153.606 90.7666 153.892 90.8575 154.23 90.8575ZM161.827 92.1359C161.17 92.1359 160.604 91.9996 160.126 91.7268C159.652 91.4513 159.287 91.0621 159.031 90.5592C158.776 90.0535 158.648 89.4584 158.648 88.7737C158.648 88.1004 158.776 87.5095 159.031 87.001C159.29 86.4896 159.651 86.0919 160.114 85.8078C160.577 85.5209 161.121 85.3774 161.746 85.3774C162.149 85.3774 162.53 85.4427 162.888 85.5734C163.249 85.7013 163.567 85.9001 163.842 86.17C164.121 86.4399 164.339 86.7837 164.499 87.2013C164.658 87.616 164.737 88.1104 164.737 88.6842V89.1572H159.372V88.1175H163.258C163.256 87.822 163.192 87.5592 163.067 87.3291C162.942 87.0962 162.767 86.9129 162.543 86.7794C162.321 86.6459 162.062 86.5791 161.767 86.5791C161.452 86.5791 161.175 86.6558 160.936 86.8092C160.697 86.9598 160.511 87.1587 160.378 87.4058C160.247 87.6501 160.18 87.9186 160.178 88.2112V89.1189C160.178 89.4996 160.247 89.8263 160.386 90.099C160.526 90.3689 160.72 90.5763 160.97 90.7212C161.22 90.8632 161.513 90.9342 161.848 90.9342C162.072 90.9342 162.276 90.903 162.457 90.8405C162.639 90.7751 162.797 90.68 162.93 90.555C163.064 90.43 163.165 90.2751 163.233 90.0905L164.673 90.2524C164.582 90.6331 164.409 90.9655 164.153 91.2496C163.901 91.5308 163.577 91.7496 163.182 91.9058C162.787 92.0592 162.335 92.1359 161.827 92.1359ZM167.585 88.1729V92.0081H166.042V85.4626H167.517V86.5748H167.593C167.744 86.2084 167.984 85.9172 168.314 85.7013C168.646 85.4854 169.056 85.3774 169.545 85.3774C169.997 85.3774 170.39 85.474 170.725 85.6672C171.064 85.8604 171.325 86.1402 171.51 86.5067C171.697 86.8731 171.789 87.3177 171.787 87.8405V92.0081H170.244V88.0791C170.244 87.6416 170.13 87.2993 169.903 87.0521C169.679 86.805 169.367 86.6814 168.97 86.6814C168.7 86.6814 168.46 86.741 168.25 86.8604C168.042 86.9768 167.879 87.1459 167.76 87.3675C167.643 87.5891 167.585 87.8575 167.585 88.1729Z" fill="#4C5877"/>
<rect x="127.424" y="123.96" width="48.1185" height="31.2732" rx="15.6366" fill="#F1F1F1" stroke="#828282" stroke-width="2"/>
<path d="M138.942 135.233V143.96H137.362V135.233H138.942ZM142.129 140.125V143.96H140.586V137.415H142.061V138.527H142.137C142.288 138.16 142.528 137.869 142.858 137.653C143.19 137.437 143.6 137.329 144.089 137.329C144.541 137.329 144.934 137.426 145.27 137.619C145.608 137.812 145.869 138.092 146.054 138.459C146.241 138.825 146.333 139.27 146.331 139.793V143.96H144.788V140.031C144.788 139.594 144.674 139.251 144.447 139.004C144.223 138.757 143.912 138.633 143.514 138.633C143.244 138.633 143.004 138.693 142.794 138.812C142.586 138.929 142.423 139.098 142.304 139.32C142.187 139.541 142.129 139.81 142.129 140.125ZM147.899 146.415V137.415H149.416V138.497H149.505C149.585 138.338 149.697 138.169 149.842 137.99C149.987 137.808 150.183 137.653 150.43 137.526C150.677 137.395 150.993 137.329 151.376 137.329C151.882 137.329 152.338 137.459 152.744 137.717C153.153 137.973 153.477 138.352 153.716 138.855C153.957 139.355 154.078 139.969 154.078 140.696C154.078 141.415 153.96 142.026 153.724 142.528C153.488 143.031 153.167 143.415 152.761 143.679C152.355 143.943 151.895 144.075 151.38 144.075C151.005 144.075 150.694 144.013 150.447 143.888C150.2 143.763 150.001 143.612 149.85 143.436C149.703 143.257 149.588 143.088 149.505 142.929H149.441V146.415H147.899ZM149.412 140.687C149.412 141.111 149.471 141.481 149.591 141.8C149.713 142.118 149.887 142.366 150.115 142.545C150.345 142.722 150.623 142.81 150.95 142.81C151.291 142.81 151.576 142.719 151.806 142.537C152.037 142.352 152.21 142.101 152.326 141.783C152.446 141.462 152.505 141.097 152.505 140.687C152.505 140.281 152.447 139.92 152.331 139.605C152.214 139.29 152.041 139.043 151.811 138.864C151.581 138.685 151.294 138.595 150.95 138.595C150.62 138.595 150.341 138.682 150.11 138.855C149.88 139.028 149.706 139.271 149.586 139.584C149.47 139.896 149.412 140.264 149.412 140.687ZM159.571 141.207V137.415H161.113V143.96H159.618V142.797H159.549C159.402 143.163 159.159 143.463 158.821 143.696C158.485 143.929 158.072 144.045 157.581 144.045C157.152 144.045 156.772 143.95 156.443 143.76C156.116 143.567 155.86 143.287 155.676 142.92C155.491 142.551 155.399 142.105 155.399 141.582V137.415H156.941V141.344C156.941 141.758 157.055 142.088 157.282 142.332C157.51 142.577 157.808 142.699 158.177 142.699C158.404 142.699 158.625 142.643 158.838 142.533C159.051 142.422 159.225 142.257 159.362 142.038C159.501 141.817 159.571 141.54 159.571 141.207ZM165.968 137.415V138.608H162.205V137.415H165.968ZM163.134 135.847H164.677V141.991C164.677 142.199 164.708 142.358 164.771 142.469C164.836 142.577 164.921 142.651 165.026 142.69C165.131 142.73 165.248 142.75 165.376 142.75C165.472 142.75 165.56 142.743 165.64 142.729C165.722 142.714 165.785 142.702 165.827 142.69L166.087 143.896C166.005 143.925 165.887 143.956 165.734 143.99C165.583 144.024 165.398 144.044 165.18 144.05C164.793 144.061 164.445 144.003 164.136 143.875C163.826 143.744 163.58 143.543 163.398 143.27C163.219 142.997 163.131 142.656 163.134 142.247V135.847Z" fill="#828282"/>
<rect x="127.424" y="17" width="48.1185" height="31.2732" rx="15.6366" fill="#F1F1F1" stroke="#828282" stroke-width="2"/>
<path d="M139.886 32.6364C139.886 33.5767 139.71 34.3821 139.358 35.0526C139.009 35.7202 138.531 36.2315 137.926 36.5866C137.324 36.9418 136.641 37.1193 135.876 37.1193C135.112 37.1193 134.428 36.9418 133.822 36.5866C133.22 36.2287 132.743 35.7159 132.391 35.0483C132.041 34.3778 131.866 33.5739 131.866 32.6364C131.866 31.696 132.041 30.892 132.391 30.2244C132.743 29.554 133.22 29.0412 133.822 28.6861C134.428 28.331 135.112 28.1534 135.876 28.1534C136.641 28.1534 137.324 28.331 137.926 28.6861C138.531 29.0412 139.009 29.554 139.358 30.2244C139.71 30.892 139.886 31.696 139.886 32.6364ZM138.297 32.6364C138.297 31.9744 138.193 31.4162 137.986 30.9616C137.781 30.5043 137.497 30.1591 137.134 29.9261C136.77 29.6903 136.351 29.5724 135.876 29.5724C135.402 29.5724 134.983 29.6903 134.619 29.9261C134.256 30.1591 133.97 30.5043 133.763 30.9616C133.558 31.4162 133.456 31.9744 133.456 32.6364C133.456 33.2983 133.558 33.858 133.763 34.3153C133.97 34.7699 134.256 35.1151 134.619 35.3509C134.983 35.5838 135.402 35.7003 135.876 35.7003C136.351 35.7003 136.77 35.5838 137.134 35.3509C137.497 35.1151 137.781 34.7699 137.986 34.3153C138.193 33.858 138.297 33.2983 138.297 32.6364ZM145.485 34.2472V30.4545H147.027V37H145.532V35.8366H145.463C145.316 36.2031 145.073 36.5028 144.735 36.7358C144.399 36.9687 143.986 37.0852 143.495 37.0852C143.066 37.0852 142.686 36.9901 142.357 36.7997C142.03 36.6065 141.774 36.3267 141.59 35.9602C141.405 35.5909 141.313 35.1449 141.313 34.6222V30.4545H142.855V34.3835C142.855 34.7983 142.969 35.1278 143.196 35.3722C143.424 35.6165 143.722 35.7386 144.091 35.7386C144.319 35.7386 144.539 35.6832 144.752 35.5724C144.965 35.4616 145.14 35.2969 145.276 35.0781C145.415 34.8565 145.485 34.5795 145.485 34.2472ZM151.882 30.4545V31.6477H148.119V30.4545H151.882ZM149.048 28.8864H150.591V35.0312C150.591 35.2386 150.622 35.3977 150.685 35.5085C150.75 35.6165 150.835 35.6903 150.94 35.7301C151.045 35.7699 151.162 35.7898 151.29 35.7898C151.386 35.7898 151.474 35.7827 151.554 35.7685C151.636 35.7543 151.699 35.7415 151.741 35.7301L152.001 36.9361C151.919 36.9645 151.801 36.9957 151.648 37.0298C151.497 37.0639 151.312 37.0838 151.094 37.0895C150.707 37.1009 150.359 37.0426 150.05 36.9148C149.74 36.7841 149.494 36.5824 149.312 36.3097C149.134 36.0369 149.045 35.696 149.048 35.2869V28.8864ZM153.172 39.4545V30.4545H154.689V31.5369H154.779C154.858 31.3778 154.971 31.2088 155.115 31.0298C155.26 30.848 155.456 30.6932 155.703 30.5653C155.951 30.4347 156.266 30.3693 156.649 30.3693C157.155 30.3693 157.611 30.4986 158.017 30.7571C158.426 31.0128 158.75 31.392 158.989 31.8949C159.23 32.3949 159.351 33.0085 159.351 33.7358C159.351 34.4545 159.233 35.0653 158.998 35.5682C158.762 36.071 158.441 36.4545 158.034 36.7188C157.628 36.983 157.168 37.1151 156.654 37.1151C156.279 37.1151 155.968 37.0526 155.721 36.9276C155.473 36.8026 155.274 36.652 155.124 36.4759C154.976 36.2969 154.861 36.1278 154.779 35.9688H154.715V39.4545H153.172ZM154.685 33.7273C154.685 34.1506 154.745 34.5213 154.864 34.8395C154.986 35.1577 155.161 35.4062 155.388 35.5852C155.618 35.7614 155.897 35.8494 156.223 35.8494C156.564 35.8494 156.85 35.7585 157.08 35.5767C157.31 35.392 157.483 35.1406 157.6 34.8224C157.719 34.5014 157.779 34.1364 157.779 33.7273C157.779 33.321 157.721 32.9602 157.604 32.6449C157.488 32.3295 157.314 32.0824 157.084 31.9034C156.854 31.7244 156.567 31.6349 156.223 31.6349C155.894 31.6349 155.614 31.7216 155.384 31.8949C155.154 32.0682 154.979 32.3111 154.86 32.6236C154.743 32.9361 154.685 33.304 154.685 33.7273ZM164.844 34.2472V30.4545H166.387V37H164.891V35.8366H164.823C164.675 36.2031 164.432 36.5028 164.094 36.7358C163.759 36.9687 163.346 37.0852 162.854 37.0852C162.425 37.0852 162.046 36.9901 161.716 36.7997C161.39 36.6065 161.134 36.3267 160.949 35.9602C160.765 35.5909 160.672 35.1449 160.672 34.6222V30.4545H162.215V34.3835C162.215 34.7983 162.328 35.1278 162.556 35.3722C162.783 35.6165 163.081 35.7386 163.451 35.7386C163.678 35.7386 163.898 35.6832 164.111 35.5724C164.324 35.4616 164.499 35.2969 164.635 35.0781C164.774 34.8565 164.844 34.5795 164.844 34.2472ZM171.241 30.4545V31.6477H167.479V30.4545H171.241ZM168.408 28.8864H169.95V35.0312C169.95 35.2386 169.982 35.3977 170.044 35.5085C170.109 35.6165 170.195 35.6903 170.3 35.7301C170.405 35.7699 170.521 35.7898 170.649 35.7898C170.746 35.7898 170.834 35.7827 170.913 35.7685C170.996 35.7543 171.058 35.7415 171.101 35.7301L171.361 36.9361C171.278 36.9645 171.161 36.9957 171.007 37.0298C170.857 37.0639 170.672 37.0838 170.453 37.0895C170.067 37.1009 169.719 37.0426 169.409 36.9148C169.099 36.7841 168.854 36.5824 168.672 36.3097C168.493 36.0369 168.405 35.696 168.408 35.2869V28.8864Z" fill="#828282"/>
<path d="M119.395 104.013L116.137 108.779L121.893 109.218L119.395 104.013ZM119.895 71.3137C119.895 63.5517 117.133 58.3482 112.89 55.5517C108.662 52.7656 103.072 52.4403 97.5458 54.2011C86.4881 57.7248 75.5 69.646 75.5 87.6633H76.5C76.5 70.0781 87.2095 58.5444 97.8494 55.1539C103.173 53.4576 108.431 53.8104 112.34 56.3867C116.233 58.9525 118.895 63.7956 118.895 71.3137H119.895ZM75.5 87.6633C75.5 104.74 85.3704 116.408 95.8136 120.613C101.031 122.713 106.43 122.964 110.81 121.037C115.213 119.101 118.506 115.001 119.546 108.582L118.559 108.422C117.565 114.552 114.459 118.34 110.408 120.122C106.334 121.914 101.224 121.713 96.1871 119.685C86.1213 115.632 76.5 104.331 76.5 87.6633H75.5Z" fill="#828282"/>
<path d="M379 56L374.67 63.5L383.33 63.5L379 56ZM379.75 117L379.75 62.75L378.25 62.75L378.25 117L379.75 117Z" fill="#DDDDDD"/>
<rect x="337.699" y="72.0081" width="84.1238" height="31.2732" rx="8" fill="#BAFBFF" stroke="#4C7477" stroke-width="2"/>
<path d="M373.557 93.0081V82.8263H375.401V87.1366H380.119V82.8263H381.969V93.0081H380.119V88.6828H375.401V93.0081H373.557Z" fill="#4C7477"/>
<rect x="355.424" y="123.96" width="48.1185" height="31.2732" rx="15.6366" fill="#F6ECEC" stroke="#BE3B3B" stroke-width="2"/>
<path d="M375.196 134.778L377.438 138.507H377.517L379.769 134.778H381.872L378.735 139.869L381.922 144.96H379.784L377.517 141.256H377.438L375.171 144.96H373.043L376.259 139.869L373.083 134.778H375.196Z" fill="#BE3B3B"/>
<rect x="355.424" y="17" width="48.1185" height="31.2732" rx="15.6366" fill="#F6ECF5" stroke="#743BBE" stroke-width="2"/>
<path d="M377.493 40.8636C377.248 40.8636 377.021 40.8438 376.812 40.804C376.607 40.7675 376.443 40.7244 376.32 40.6747L376.738 39.2727C376.999 39.349 377.233 39.3854 377.439 39.3821C377.644 39.3788 377.825 39.3142 377.98 39.1882C378.14 39.0656 378.274 38.8601 378.383 38.5717L378.537 38.1591L375.768 30.3636H377.677L379.437 36.1307H379.517L381.282 30.3636H383.196L380.138 38.9247C379.996 39.3291 379.807 39.6754 379.571 39.9638C379.336 40.2554 379.048 40.4775 378.706 40.63C378.368 40.7857 377.964 40.8636 377.493 40.8636Z" fill="#743BBE"/>
<path d="M384.077 41.6136L384.06 40.3693H384.265L387.129 37.4545H388.373L385.322 40.5398H385.237L384.077 41.6136ZM383.14 44V35.2727H384.146V44H383.14ZM387.299 44L384.742 40.7614L385.458 40.0625L388.577 44H387.299Z" fill="#828282"/>
<path d="M385.077 94.6136L385.06 93.3693H385.265L388.129 90.4545H389.373L386.322 93.5398H386.237L385.077 94.6136ZM384.14 97V88.2727H385.146V97H384.14ZM388.299 97L385.742 93.7614L386.458 93.0625L389.577 97H388.299Z" fill="#4C7477"/>
<path d="M384.077 146.614L384.06 145.369H384.265L387.129 142.455H388.373L385.322 145.54H385.237L384.077 146.614ZM383.14 149V140.273H384.146V149H383.14ZM387.299 149L384.742 145.761L385.458 145.062L388.577 149H387.299Z" fill="#828282"/>
<path d="M392.738 59.2173H391.144C391.099 58.956 391.015 58.7244 390.893 58.5227C390.771 58.3182 390.619 58.1449 390.437 58.0028C390.255 57.8608 390.048 57.7543 389.815 57.6832C389.585 57.6094 389.336 57.5724 389.069 57.5724C388.594 57.5724 388.174 57.6918 387.808 57.9304C387.441 58.1662 387.154 58.5128 386.947 58.9702C386.739 59.4247 386.636 59.9801 386.636 60.6364C386.636 61.304 386.739 61.8665 386.947 62.3239C387.157 62.7784 387.444 63.1222 387.808 63.3551C388.174 63.5852 388.593 63.7003 389.065 63.7003C389.326 63.7003 389.57 63.6662 389.798 63.598C390.028 63.527 390.234 63.4233 390.415 63.2869C390.6 63.1506 390.755 62.983 390.88 62.7841C391.008 62.5852 391.096 62.358 391.144 62.1023L392.738 62.1108C392.678 62.5256 392.549 62.9148 392.35 63.2784C392.154 63.642 391.897 63.9631 391.579 64.2415C391.261 64.517 390.888 64.733 390.462 64.8892C390.036 65.0426 389.563 65.1193 389.043 65.1193C388.276 65.1193 387.592 64.9418 386.989 64.5866C386.387 64.2315 385.913 63.7188 385.566 63.0483C385.219 62.3778 385.046 61.5739 385.046 60.6364C385.046 59.696 385.221 58.892 385.57 58.2244C385.92 57.554 386.396 57.0412 386.998 56.6861C387.6 56.331 388.282 56.1534 389.043 56.1534C389.529 56.1534 389.981 56.2216 390.398 56.358C390.816 56.4943 391.188 56.6946 391.515 56.9588C391.842 57.2202 392.11 57.5412 392.32 57.9219C392.533 58.2997 392.673 58.7315 392.738 59.2173Z" fill="#828282"/>
<path d="M347.395 104.013L344.137 108.779L349.893 109.218L347.395 104.013ZM347.895 71.3137C347.895 63.5517 345.133 58.3482 340.89 55.5517C336.662 52.7656 331.072 52.4403 325.546 54.2011C314.488 57.7248 303.5 69.646 303.5 87.6633H304.5C304.5 70.0781 315.21 58.5444 325.849 55.1539C331.173 53.4576 336.431 53.8104 340.34 56.3867C344.233 58.9525 346.895 63.7956 346.895 71.3137H347.895ZM303.5 87.6633C303.5 104.74 313.37 116.408 323.814 120.613C329.031 122.713 334.43 122.964 338.81 121.037C343.213 119.101 346.506 115.001 347.546 108.582L346.559 108.422C345.565 114.552 342.459 118.34 338.408 120.122C334.334 121.914 329.224 121.713 324.187 119.685C314.121 115.632 304.5 104.331 304.5 87.6633H303.5Z" fill="#828282"/>
<line x1="247.5" y1="212" x2="247.5" y2="6" stroke="#848484" stroke-opacity="0.4" stroke-dasharray="2 2"/>
<path d="M136.996 208V197.091H141.3C142.124 197.091 142.827 197.238 143.409 197.533C143.995 197.824 144.441 198.238 144.746 198.774C145.055 199.307 145.21 199.934 145.21 200.654C145.21 201.379 145.054 202.002 144.741 202.524C144.429 203.043 143.976 203.44 143.383 203.717C142.793 203.994 142.079 204.133 141.241 204.133H138.36V202.279H140.869C141.309 202.279 141.675 202.219 141.966 202.098C142.257 201.977 142.474 201.796 142.616 201.555C142.761 201.313 142.834 201.013 142.834 200.654C142.834 200.292 142.761 199.987 142.616 199.738C142.474 199.49 142.255 199.301 141.96 199.174C141.669 199.042 141.302 198.977 140.858 198.977H139.302V208H136.996ZM142.887 203.036L145.599 208H143.052L140.4 203.036H142.887ZM155.964 197.091V208H153.972L149.226 201.134H149.146V208H146.84V197.091H148.864L153.573 203.952H153.669V197.091H155.964ZM166.995 197.091V208H165.002L160.256 201.134H160.176V208H157.87V197.091H159.894L164.603 203.952H164.699V197.091H166.995Z" fill="#505050"/>
<path d="M369.174 182.228C369.132 181.799 368.949 181.465 368.626 181.227C368.302 180.989 367.864 180.87 367.31 180.87C366.933 180.87 366.616 180.923 366.356 181.03C366.097 181.133 365.898 181.277 365.76 181.461C365.625 181.646 365.557 181.855 365.557 182.09C365.55 182.285 365.591 182.456 365.68 182.601C365.772 182.747 365.898 182.873 366.058 182.979C366.218 183.082 366.403 183.173 366.612 183.251C366.822 183.326 367.045 183.39 367.283 183.443L368.263 183.677C368.739 183.784 369.176 183.926 369.574 184.103C369.971 184.281 370.316 184.499 370.607 184.759C370.898 185.018 371.124 185.323 371.284 185.675C371.447 186.026 371.53 186.429 371.534 186.884C371.53 187.551 371.36 188.13 371.023 188.62C370.689 189.107 370.206 189.485 369.574 189.755C368.945 190.021 368.187 190.154 367.299 190.154C366.419 190.154 365.652 190.02 364.998 189.75C364.348 189.48 363.84 189.08 363.475 188.551C363.112 188.018 362.922 187.36 362.905 186.575H365.137C365.161 186.941 365.266 187.246 365.451 187.491C365.639 187.733 365.889 187.915 366.202 188.04C366.518 188.161 366.875 188.221 367.273 188.221C367.663 188.221 368.002 188.164 368.29 188.05C368.581 187.937 368.807 187.779 368.966 187.576C369.126 187.374 369.206 187.141 369.206 186.879C369.206 186.634 369.133 186.428 368.988 186.261C368.846 186.094 368.636 185.952 368.359 185.835C368.086 185.717 367.75 185.611 367.352 185.515L366.165 185.217C365.245 184.993 364.519 184.643 363.986 184.167C363.453 183.691 363.189 183.05 363.192 182.244C363.189 181.584 363.365 181.007 363.72 180.513C364.078 180.02 364.57 179.634 365.195 179.357C365.82 179.08 366.53 178.942 367.326 178.942C368.136 178.942 368.842 179.08 369.446 179.357C370.053 179.634 370.525 180.02 370.863 180.513C371.2 181.007 371.374 181.578 371.385 182.228H369.174ZM379.003 182.228C378.961 181.799 378.778 181.465 378.455 181.227C378.132 180.989 377.693 180.87 377.139 180.87C376.763 180.87 376.445 180.923 376.186 181.03C375.926 181.133 375.727 181.277 375.589 181.461C375.454 181.646 375.386 181.855 375.386 182.09C375.379 182.285 375.42 182.456 375.509 182.601C375.601 182.747 375.727 182.873 375.887 182.979C376.047 183.082 376.232 183.173 376.441 183.251C376.651 183.326 376.874 183.39 377.112 183.443L378.092 183.677C378.568 183.784 379.005 183.926 379.403 184.103C379.801 184.281 380.145 184.499 380.436 184.759C380.727 185.018 380.953 185.323 381.113 185.675C381.276 186.026 381.36 186.429 381.363 186.884C381.36 187.551 381.189 188.13 380.852 188.62C380.518 189.107 380.035 189.485 379.403 189.755C378.774 190.021 378.016 190.154 377.128 190.154C376.248 190.154 375.481 190.02 374.827 189.75C374.177 189.48 373.67 189.08 373.304 188.551C372.942 188.018 372.752 187.36 372.734 186.575H374.966C374.991 186.941 375.095 187.246 375.28 187.491C375.468 187.733 375.719 187.915 376.031 188.04C376.347 188.161 376.704 188.221 377.102 188.221C377.492 188.221 377.831 188.164 378.119 188.05C378.41 187.937 378.636 187.779 378.796 187.576C378.955 187.374 379.035 187.141 379.035 186.879C379.035 186.634 378.962 186.428 378.817 186.261C378.675 186.094 378.465 185.952 378.188 185.835C377.915 185.717 377.579 185.611 377.182 185.515L375.994 185.217C375.074 184.993 374.348 184.643 373.815 184.167C373.282 183.691 373.018 183.05 373.021 182.244C373.018 181.584 373.194 181.007 373.549 180.513C373.907 180.02 374.399 179.634 375.024 179.357C375.649 179.08 376.36 178.942 377.155 178.942C377.965 178.942 378.671 179.08 379.275 179.357C379.882 179.634 380.355 180.02 380.692 180.513C381.029 181.007 381.203 181.578 381.214 182.228H379.003ZM382.914 179.091H385.759L388.763 186.42H388.891L391.895 179.091H394.74V190H392.503V182.9H392.412L389.589 189.947H388.065L385.242 182.873H385.152V190H382.914V179.091ZM340.564 202.545C340.564 201.203 340.738 199.969 341.086 198.843C341.437 197.714 341.938 196.675 342.588 195.727H343.696C343.44 196.079 343.201 196.512 342.977 197.027C342.757 197.538 342.563 198.101 342.396 198.716C342.229 199.326 342.098 199.958 342.002 200.612C341.91 201.265 341.864 201.91 341.864 202.545C341.864 203.391 341.945 204.248 342.109 205.118C342.272 205.988 342.492 206.796 342.769 207.542C343.046 208.288 343.355 208.895 343.696 209.364H342.588C341.938 208.415 341.437 207.379 341.086 206.253C340.738 205.124 340.564 203.888 340.564 202.545ZM345.721 208V197.091H349.407C350.26 197.091 350.959 197.237 351.506 197.528C352.053 197.815 352.458 198.211 352.721 198.716C352.983 199.22 353.115 199.793 353.115 200.436C353.115 201.079 352.983 201.649 352.721 202.146C352.458 202.643 352.055 203.034 351.512 203.318C350.968 203.598 350.274 203.739 349.429 203.739H346.446V202.545H349.386C349.969 202.545 350.437 202.46 350.792 202.29C351.151 202.119 351.41 201.878 351.57 201.565C351.733 201.249 351.815 200.873 351.815 200.436C351.815 199.999 351.733 199.618 351.57 199.291C351.407 198.964 351.146 198.712 350.787 198.534C350.428 198.353 349.954 198.263 349.365 198.263H347.042V208H345.721ZM350.856 203.099L353.541 208H352.007L349.365 203.099H350.856ZM358.488 208.17C357.7 208.17 357.02 207.996 356.448 207.648C355.88 207.297 355.441 206.807 355.132 206.178C354.827 205.546 354.674 204.811 354.674 203.973C354.674 203.135 354.827 202.396 355.132 201.757C355.441 201.114 355.871 200.614 356.421 200.255C356.975 199.893 357.622 199.712 358.36 199.712C358.786 199.712 359.207 199.783 359.623 199.925C360.038 200.067 360.416 200.298 360.757 200.617C361.098 200.933 361.37 201.352 361.572 201.874C361.775 202.396 361.876 203.039 361.876 203.803V204.335H355.569V203.249H360.598C360.598 202.787 360.505 202.375 360.321 202.013C360.139 201.651 359.88 201.365 359.543 201.155C359.209 200.946 358.815 200.841 358.36 200.841C357.86 200.841 357.426 200.965 357.061 201.214C356.698 201.459 356.42 201.778 356.224 202.173C356.029 202.567 355.931 202.989 355.931 203.44V204.165C355.931 204.783 356.038 205.306 356.251 205.736C356.468 206.162 356.768 206.487 357.151 206.711C357.535 206.931 357.98 207.041 358.488 207.041C358.818 207.041 359.117 206.995 359.383 206.903C359.653 206.807 359.886 206.665 360.081 206.477C360.276 206.285 360.427 206.047 360.534 205.763L361.748 206.104C361.62 206.516 361.405 206.878 361.104 207.19C360.802 207.499 360.429 207.741 359.985 207.915C359.541 208.085 359.042 208.17 358.488 208.17ZM367.112 208.17C366.345 208.17 365.685 207.989 365.131 207.627C364.577 207.265 364.15 206.766 363.852 206.13C363.554 205.495 363.405 204.768 363.405 203.952C363.405 203.121 363.557 202.387 363.863 201.752C364.172 201.113 364.601 200.614 365.152 200.255C365.706 199.893 366.352 199.712 367.091 199.712C367.666 199.712 368.185 199.818 368.646 200.031C369.108 200.244 369.486 200.543 369.781 200.926C370.076 201.31 370.258 201.757 370.329 202.268H369.072C368.976 201.896 368.763 201.565 368.433 201.278C368.106 200.987 367.666 200.841 367.112 200.841C366.622 200.841 366.192 200.969 365.823 201.224C365.457 201.477 365.171 201.833 364.965 202.295C364.763 202.753 364.662 203.291 364.662 203.909C364.662 204.541 364.761 205.092 364.96 205.56C365.163 206.029 365.447 206.393 365.812 206.652C366.182 206.912 366.615 207.041 367.112 207.041C367.439 207.041 367.735 206.984 368.002 206.871C368.268 206.757 368.494 206.594 368.678 206.381C368.863 206.168 368.994 205.912 369.072 205.614H370.329C370.258 206.097 370.083 206.532 369.802 206.919C369.525 207.302 369.158 207.608 368.699 207.835C368.245 208.059 367.716 208.17 367.112 208.17ZM377.323 204.655V199.818H378.581V208H377.323V206.615H377.238C377.046 207.031 376.748 207.384 376.343 207.675C375.938 207.963 375.427 208.107 374.809 208.107C374.298 208.107 373.843 207.995 373.446 207.771C373.048 207.544 372.735 207.203 372.508 206.748C372.281 206.29 372.167 205.713 372.167 205.017V199.818H373.424V204.932C373.424 205.528 373.591 206.004 373.925 206.359C374.262 206.714 374.692 206.892 375.214 206.892C375.527 206.892 375.844 206.812 376.168 206.652C376.494 206.493 376.768 206.248 376.988 205.917C377.212 205.587 377.323 205.166 377.323 204.655ZM380.883 208V199.818H382.097V201.054H382.183C382.332 200.649 382.602 200.321 382.992 200.069C383.383 199.816 383.823 199.69 384.313 199.69C384.406 199.69 384.521 199.692 384.66 199.696C384.798 199.699 384.903 199.705 384.974 199.712V200.99C384.931 200.979 384.834 200.963 384.681 200.942C384.532 200.917 384.374 200.905 384.207 200.905C383.809 200.905 383.454 200.988 383.142 201.155C382.833 201.319 382.588 201.546 382.406 201.837C382.229 202.125 382.14 202.453 382.14 202.822V208H380.883ZM386.464 208V199.818H387.679V201.054H387.764C387.913 200.649 388.183 200.321 388.573 200.069C388.964 199.816 389.404 199.69 389.894 199.69C389.987 199.69 390.102 199.692 390.241 199.696C390.379 199.699 390.484 199.705 390.555 199.712V200.99C390.512 200.979 390.415 200.963 390.262 200.942C390.113 200.917 389.955 200.905 389.788 200.905C389.39 200.905 389.035 200.988 388.723 201.155C388.414 201.319 388.169 201.546 387.987 201.837C387.81 202.125 387.721 202.453 387.721 202.822V208H386.464ZM395.226 208.17C394.438 208.17 393.758 207.996 393.186 207.648C392.618 207.297 392.18 206.807 391.871 206.178C391.565 205.546 391.413 204.811 391.413 203.973C391.413 203.135 391.565 202.396 391.871 201.757C392.18 201.114 392.609 200.614 393.16 200.255C393.714 199.893 394.36 199.712 395.099 199.712C395.525 199.712 395.946 199.783 396.361 199.925C396.777 200.067 397.155 200.298 397.496 200.617C397.837 200.933 398.108 201.352 398.311 201.874C398.513 202.396 398.614 203.039 398.614 203.803V204.335H392.307V203.249H397.336C397.336 202.787 397.244 202.375 397.059 202.013C396.878 201.651 396.619 201.365 396.281 201.155C395.947 200.946 395.553 200.841 395.099 200.841C394.598 200.841 394.165 200.965 393.799 201.214C393.437 201.459 393.158 201.778 392.963 202.173C392.767 202.567 392.67 202.989 392.67 203.44V204.165C392.67 204.783 392.776 205.306 392.989 205.736C393.206 206.162 393.506 206.487 393.889 206.711C394.273 206.931 394.719 207.041 395.226 207.041C395.557 207.041 395.855 206.995 396.121 206.903C396.391 206.807 396.624 206.665 396.819 206.477C397.014 206.285 397.165 206.047 397.272 205.763L398.486 206.104C398.359 206.516 398.144 206.878 397.842 207.19C397.54 207.499 397.167 207.741 396.723 207.915C396.279 208.085 395.78 208.17 395.226 208.17ZM401.784 203.078V208H400.527V199.818H401.741V201.097H401.848C402.039 200.681 402.331 200.347 402.721 200.095C403.112 199.839 403.616 199.712 404.234 199.712C404.788 199.712 405.273 199.825 405.688 200.053C406.104 200.276 406.427 200.617 406.658 201.075C406.888 201.53 407.004 202.105 407.004 202.801V208H405.747V202.886C405.747 202.244 405.58 201.743 405.246 201.384C404.912 201.022 404.454 200.841 403.872 200.841C403.47 200.841 403.112 200.928 402.796 201.102C402.483 201.276 402.236 201.53 402.055 201.864C401.874 202.197 401.784 202.602 401.784 203.078ZM412.859 199.818V200.884H408.619V199.818H412.859ZM409.855 197.858H411.112V205.656C411.112 206.011 411.164 206.278 411.267 206.455C411.373 206.629 411.508 206.746 411.671 206.807C411.838 206.864 412.014 206.892 412.199 206.892C412.337 206.892 412.451 206.885 412.54 206.871C412.628 206.853 412.699 206.839 412.753 206.828L413.008 207.957C412.923 207.989 412.804 208.021 412.651 208.053C412.499 208.089 412.305 208.107 412.071 208.107C411.716 208.107 411.368 208.03 411.027 207.877C410.689 207.725 410.409 207.492 410.185 207.18C409.965 206.867 409.855 206.473 409.855 205.997V197.858ZM417.435 203.398C417.435 204.74 417.259 205.976 416.907 207.105C416.559 208.231 416.061 209.268 415.411 210.216H414.303C414.558 209.864 414.796 209.431 415.017 208.916C415.24 208.405 415.436 207.844 415.602 207.233C415.769 206.619 415.899 205.985 415.991 205.331C416.087 204.674 416.135 204.03 416.135 203.398C416.135 202.553 416.053 201.695 415.89 200.825C415.727 199.955 415.507 199.147 415.23 198.401C414.953 197.656 414.644 197.048 414.303 196.58H415.411C416.061 197.528 416.559 198.566 416.907 199.696C417.259 200.821 417.435 202.055 417.435 203.398Z" fill="#505050"/>
<path d="M385.861 119V110.273H389.202C389.832 110.273 390.357 110.372 390.774 110.571C391.195 110.767 391.509 111.036 391.716 111.376C391.926 111.717 392.031 112.104 392.031 112.536C392.031 112.891 391.963 113.195 391.827 113.447C391.69 113.697 391.507 113.901 391.277 114.057C391.047 114.213 390.79 114.325 390.506 114.393V114.479C390.815 114.496 391.112 114.591 391.396 114.764C391.683 114.935 391.918 115.176 392.099 115.489C392.281 115.801 392.372 116.179 392.372 116.622C392.372 117.074 392.263 117.48 392.044 117.841C391.825 118.199 391.496 118.482 391.055 118.689C390.615 118.896 390.061 119 389.393 119H385.861ZM387.442 117.679H389.142C389.716 117.679 390.129 117.57 390.382 117.351C390.638 117.129 390.766 116.845 390.766 116.499C390.766 116.24 390.702 116.007 390.574 115.8C390.446 115.589 390.264 115.425 390.028 115.305C389.793 115.183 389.511 115.122 389.185 115.122H387.442V117.679ZM387.442 113.984H389.006C389.278 113.984 389.524 113.935 389.743 113.835C389.962 113.733 390.134 113.589 390.259 113.405C390.386 113.217 390.45 112.996 390.45 112.74C390.45 112.402 390.331 112.124 390.092 111.905C389.857 111.686 389.506 111.577 389.04 111.577H387.442V113.984Z" fill="#828282"/>
<path d="M294.506 90H292.818L295.891 81.2727H297.842L300.919 90H299.232L296.901 83.0625H296.832L294.506 90ZM294.561 86.5781H299.163V87.848H294.561V86.5781Z" fill="#828282"/>
<line x1="294" y1="79.5" x2="300" y2="79.5" stroke="#828282"/>
<line x1="386" y1="108.5" x2="392" y2="108.5" stroke="#828282"/>
</svg>
