<svg width="630" height="157" viewBox="0 0 630 157" fill="none" xmlns="http://www.w3.org/2000/svg">
<g clip-path="url(#clip0_144_800)">
<rect width="630" height="157" fill="white"/>
<path d="M234.967 24.2727C234.967 22.125 235.245 20.1506 235.802 18.3494C236.365 16.5426 237.166 14.8807 238.206 13.3636H239.978C239.569 13.9261 239.186 14.6193 238.828 15.4432C238.475 16.2614 238.166 17.1619 237.899 18.1449C237.632 19.1222 237.422 20.1335 237.268 21.179C237.12 22.2244 237.047 23.2557 237.047 24.2727C237.047 25.625 237.177 26.9972 237.439 28.3892C237.7 29.7812 238.052 31.0739 238.495 32.267C238.939 33.4602 239.433 34.4318 239.978 35.1818H238.206C237.166 33.6648 236.365 32.0057 235.802 30.2045C235.245 28.3977 234.967 26.4205 234.967 24.2727ZM242.912 33V31.4659L248.674 25.1591C249.35 24.4205 249.907 23.7784 250.344 23.233C250.782 22.6818 251.105 22.1648 251.316 21.6818C251.532 21.1932 251.64 20.6818 251.64 20.1477C251.64 19.5341 251.492 19.0028 251.196 18.554C250.907 18.1051 250.509 17.7585 250.003 17.5142C249.498 17.2699 248.929 17.1477 248.299 17.1477C247.628 17.1477 247.043 17.2869 246.543 17.5653C246.049 17.8381 245.665 18.2216 245.392 18.7159C245.125 19.2102 244.992 19.7898 244.992 20.4545H242.98C242.98 19.4318 243.216 18.5341 243.688 17.7614C244.159 16.9886 244.801 16.3864 245.614 15.9545C246.432 15.5227 247.35 15.3068 248.367 15.3068C249.39 15.3068 250.296 15.5227 251.086 15.9545C251.875 16.3864 252.495 16.9687 252.944 17.7017C253.392 18.4347 253.617 19.25 253.617 20.1477C253.617 20.7898 253.5 21.4176 253.267 22.0312C253.04 22.6392 252.642 23.3182 252.074 24.0682C251.512 24.8125 250.73 25.7216 249.73 26.7955L245.81 30.9886V31.125H253.924V33H242.912ZM260.904 25.4318L259.642 33H256.02L258.202 19.9091H261.654L261.279 22.2188H261.424C261.838 21.4517 262.424 20.8466 263.179 20.4034C263.941 19.9602 264.807 19.7386 265.779 19.7386C266.688 19.7386 267.446 19.9375 268.054 20.3352C268.668 20.733 269.1 21.2983 269.35 22.0312C269.605 22.7642 269.648 23.642 269.478 24.6648L268.08 33H264.449L265.736 25.3125C265.867 24.5114 265.765 23.8864 265.429 23.4375C265.1 22.983 264.569 22.7557 263.836 22.7557C263.347 22.7557 262.898 22.8608 262.489 23.071C262.08 23.2812 261.736 23.5881 261.458 23.9915C261.185 24.3892 261 24.8693 260.904 25.4318ZM283.212 29.6932V18.8949H284.669V29.6932H283.212ZM278.542 25.0227V23.5653H289.34V25.0227H278.542ZM305.833 15.5455V33H304.24V17.2159H304.137L300.047 19.9347V18.2812L304.172 15.5455H305.833ZM314.876 24.2727C314.876 26.3182 314.618 28.25 314.1 30.0682C313.583 31.8864 312.842 33.5909 311.876 35.1818H310.495C310.91 34.5114 311.288 33.7528 311.629 32.9062C311.975 32.0597 312.274 31.1562 312.524 30.196C312.774 29.2358 312.967 28.2528 313.103 27.2472C313.24 26.2415 313.308 25.25 313.308 24.2727C313.308 22.9602 313.189 21.6364 312.95 20.3011C312.711 18.9659 312.379 17.6989 311.953 16.5C311.532 15.3011 311.047 14.2557 310.495 13.3636H311.876C312.842 14.9602 313.583 16.6676 314.1 18.4858C314.618 20.304 314.876 22.233 314.876 24.2727ZM347.145 24.2727C347.145 22.2273 347.404 20.2955 347.921 18.4773C348.438 16.6591 349.179 14.9545 350.145 13.3636H351.526C351.111 14.0341 350.73 14.7926 350.384 15.6392C350.043 16.4858 349.748 17.3892 349.498 18.3494C349.248 19.3097 349.054 20.2926 348.918 21.2983C348.782 22.2983 348.713 23.2898 348.713 24.2727C348.713 25.5852 348.833 26.9091 349.071 28.2443C349.31 29.5795 349.64 30.8466 350.06 32.0455C350.486 33.2443 350.975 34.2898 351.526 35.1818H350.145C349.179 33.5852 348.438 31.8778 347.921 30.0597C347.404 28.2415 347.145 26.3125 347.145 24.2727ZM354.775 33V31.8324L360.477 25.4233C361.221 24.5824 361.821 23.8636 362.275 23.267C362.73 22.6705 363.059 22.1193 363.264 21.6136C363.474 21.108 363.579 20.5824 363.579 20.0369C363.579 19.3722 363.423 18.7926 363.11 18.2983C362.804 17.7983 362.38 17.4091 361.841 17.1307C361.301 16.8523 360.693 16.7131 360.017 16.7131C359.301 16.7131 358.673 16.8665 358.133 17.1733C357.599 17.4801 357.184 17.9006 356.889 18.4347C356.593 18.9687 356.446 19.5824 356.446 20.2756H354.92C354.92 19.3097 355.142 18.4545 355.585 17.7102C356.034 16.9602 356.645 16.3722 357.417 15.946C358.196 15.5199 359.076 15.3068 360.059 15.3068C361.031 15.3068 361.895 15.517 362.65 15.9375C363.406 16.3523 364 16.9176 364.431 17.6335C364.863 18.3494 365.079 19.1506 365.079 20.0369C365.079 20.679 364.966 21.3011 364.738 21.9034C364.517 22.5057 364.133 23.1761 363.588 23.9148C363.042 24.6534 362.287 25.5568 361.321 26.625L356.991 31.4574V31.5682H365.625V33H354.775ZM371.75 29.233L372.475 24.8778H373.003L378.04 19.9091H382.208L375.492 26.4886H374.623L371.75 29.233ZM367.838 33L370.736 15.5455H374.367L371.469 33H367.838ZM376.02 33L373.123 27.2983L375.961 24.733L380.273 33H376.02ZM395.29 29.6932V18.8949H396.748V29.6932H395.29ZM390.62 25.0227V23.5653H401.418V25.0227H390.62ZM417.912 15.5455V33H416.318V17.2159H416.216L412.125 19.9347V18.2812L416.25 15.5455H417.912ZM426.954 24.2727C426.954 26.3182 426.696 28.25 426.179 30.0682C425.662 31.8864 424.92 33.5909 423.954 35.1818H422.574C422.988 34.5114 423.366 33.7528 423.707 32.9062C424.054 32.0597 424.352 31.1562 424.602 30.196C424.852 29.2358 425.045 28.2528 425.181 27.2472C425.318 26.2415 425.386 25.25 425.386 24.2727C425.386 22.9602 425.267 21.6364 425.028 20.3011C424.789 18.9659 424.457 17.6989 424.031 16.5C423.61 15.3011 423.125 14.2557 422.574 13.3636H423.954C424.92 14.9602 425.662 16.6676 426.179 18.4858C426.696 20.304 426.954 22.233 426.954 24.2727Z" fill="#555555"/>
<path d="M321.381 6.36364V18H319.972V7.84091H319.904L317.063 9.72727V8.29545L319.972 6.36364H321.381ZM328.864 5.81818L325.114 19.75H323.887L327.637 5.81818H328.864ZM330.431 18V16.9773L334.272 12.7727C334.723 12.2803 335.094 11.8523 335.386 11.4886C335.677 11.1212 335.893 10.7765 336.033 10.4545C336.177 10.1288 336.249 9.78788 336.249 9.43182C336.249 9.02273 336.151 8.66856 335.954 8.36932C335.761 8.07008 335.496 7.83901 335.158 7.67614C334.821 7.51326 334.442 7.43182 334.022 7.43182C333.575 7.43182 333.185 7.52462 332.852 7.71023C332.522 7.89205 332.266 8.14773 332.085 8.47727C331.906 8.80682 331.817 9.19318 331.817 9.63636H330.477C330.477 8.95455 330.634 8.35606 330.948 7.84091C331.263 7.32576 331.691 6.92424 332.232 6.63636C332.778 6.34848 333.389 6.20455 334.067 6.20455C334.749 6.20455 335.353 6.34848 335.88 6.63636C336.406 6.92424 336.819 7.3125 337.119 7.80114C337.418 8.28977 337.567 8.83333 337.567 9.43182C337.567 9.85985 337.49 10.2784 337.335 10.6875C337.183 11.0928 336.918 11.5455 336.539 12.0455C336.164 12.5417 335.643 13.1477 334.977 13.8636L332.363 16.6591V16.75H337.772V18H330.431Z" fill="#555555"/>
<path d="M168.173 87.75L167.31 93H165.969L167.423 84.2727H168.719L168.491 85.6364H168.605C168.878 85.1932 169.247 84.8371 169.713 84.5682C170.179 84.2955 170.741 84.1591 171.401 84.1591C171.984 84.1591 172.476 84.2803 172.878 84.5227C173.283 84.7614 173.569 85.125 173.736 85.6136C173.906 86.0985 173.931 86.7121 173.81 87.4545L172.878 93H171.537L172.446 87.5455C172.56 86.8636 172.471 86.3295 172.179 85.9432C171.891 85.5568 171.435 85.3636 170.81 85.3636C170.378 85.3636 169.978 85.4564 169.611 85.642C169.247 85.8277 168.938 86.0985 168.685 86.4545C168.435 86.8106 168.264 87.2424 168.173 87.75ZM177.101 89.8182L177.351 88.1591H177.624L182.101 84.2727H183.76L179.01 88.3864H178.896L177.101 89.8182ZM175.328 93L177.26 81.3636H178.601L176.669 93H175.328ZM180.874 93L178.192 88.6818L179.283 87.75L182.578 93H180.874Z" fill="#555555"/>
<path d="M435.381 6.36364V18H433.972V7.84091H433.904L431.063 9.72727V8.29545L433.972 6.36364H435.381ZM442.864 5.81818L439.114 19.75H437.887L441.637 5.81818H442.864ZM444.431 18V16.9773L448.272 12.7727C448.723 12.2803 449.094 11.8523 449.386 11.4886C449.677 11.1212 449.893 10.7765 450.033 10.4545C450.177 10.1288 450.249 9.78788 450.249 9.43182C450.249 9.02273 450.151 8.66856 449.954 8.36932C449.761 8.07008 449.496 7.83901 449.158 7.67614C448.821 7.51326 448.442 7.43182 448.022 7.43182C447.575 7.43182 447.185 7.52462 446.852 7.71023C446.522 7.89205 446.266 8.14773 446.085 8.47727C445.906 8.80682 445.817 9.19318 445.817 9.63636H444.477C444.477 8.95455 444.634 8.35606 444.948 7.84091C445.263 7.32576 445.691 6.92424 446.232 6.63636C446.778 6.34848 447.389 6.20455 448.067 6.20455C448.749 6.20455 449.353 6.34848 449.88 6.63636C450.406 6.92424 450.819 7.3125 451.119 7.80114C451.418 8.28977 451.567 8.83333 451.567 9.43182C451.567 9.85985 451.49 10.2784 451.335 10.6875C451.183 11.0928 450.918 11.5455 450.539 12.0455C450.164 12.5417 449.643 13.1477 448.977 13.8636L446.363 16.6591V16.75H451.772V18H444.431Z" fill="#555555"/>
<path d="M241.564 81.4318L240.303 89H236.68L238.862 75.9091H242.314L241.939 78.2188H242.084C242.499 77.4517 243.084 76.8466 243.839 76.4034C244.601 75.9602 245.467 75.7386 246.439 75.7386C247.348 75.7386 248.107 75.9375 248.714 76.3352C249.328 76.733 249.76 77.2983 250.01 78.0312C250.266 78.7642 250.308 79.642 250.138 80.6648L248.74 89H245.109L246.396 81.3125C246.527 80.5114 246.425 79.8864 246.089 79.4375C245.76 78.983 245.229 78.7557 244.496 78.7557C244.007 78.7557 243.558 78.8608 243.149 79.071C242.74 79.2812 242.396 79.5881 242.118 79.9915C241.845 80.3892 241.661 80.8693 241.564 81.4318ZM264.931 85.9318V74.6818H266.84V85.9318H264.931ZM260.261 81.2614V79.3523H271.511V81.2614H260.261ZM288.49 71.5455V89H286.376V73.7614H286.274L282.013 76.5909V74.4432L286.376 71.5455H288.49Z" fill="#555555"/>
<path d="M245 142.239C243.716 142.239 242.622 141.889 241.719 141.19C240.815 140.486 240.125 139.466 239.648 138.131C239.17 136.79 238.932 135.17 238.932 133.273C238.932 131.386 239.17 129.776 239.648 128.44C240.131 127.099 240.824 126.077 241.727 125.372C242.636 124.662 243.727 124.307 245 124.307C246.273 124.307 247.361 124.662 248.264 125.372C249.173 126.077 249.866 127.099 250.344 128.44C250.827 129.776 251.068 131.386 251.068 133.273C251.068 135.17 250.83 136.79 250.352 138.131C249.875 139.466 249.185 140.486 248.281 141.19C247.378 141.889 246.284 142.239 245 142.239ZM245 140.364C246.273 140.364 247.261 139.75 247.966 138.523C248.67 137.295 249.023 135.545 249.023 133.273C249.023 131.761 248.861 130.474 248.537 129.412C248.219 128.349 247.759 127.54 247.156 126.983C246.56 126.426 245.841 126.148 245 126.148C243.739 126.148 242.753 126.77 242.043 128.014C241.332 129.253 240.977 131.006 240.977 133.273C240.977 134.784 241.136 136.068 241.455 137.125C241.773 138.182 242.23 138.986 242.827 139.537C243.429 140.088 244.153 140.364 245 140.364Z" fill="#555555"/>
<path d="M145.936 88H140.993L148.525 66.1818H154.47L161.991 88H157.048L151.583 71.1676H151.412L145.936 88ZM145.627 79.424H157.303V83.0249H145.627V79.424Z" fill="#978545"/>
<path d="M490.665 129.136C490.034 129.136 489.49 128.997 489.033 128.719C488.578 128.438 488.227 128.045 487.98 127.543C487.736 127.037 487.614 126.449 487.614 125.778C487.614 125.108 487.736 124.517 487.98 124.006C488.227 123.491 488.571 123.091 489.011 122.804C489.455 122.514 489.972 122.369 490.562 122.369C490.903 122.369 491.24 122.426 491.572 122.54C491.905 122.653 492.207 122.838 492.48 123.094C492.753 123.347 492.97 123.682 493.132 124.099C493.294 124.517 493.375 125.031 493.375 125.642V126.068H488.33V125.199H492.352C492.352 124.83 492.278 124.5 492.131 124.21C491.986 123.92 491.778 123.692 491.509 123.524C491.241 123.357 490.926 123.273 490.562 123.273C490.162 123.273 489.815 123.372 489.523 123.571C489.233 123.767 489.01 124.023 488.854 124.338C488.697 124.653 488.619 124.991 488.619 125.352V125.932C488.619 126.426 488.705 126.845 488.875 127.189C489.048 127.53 489.288 127.79 489.595 127.969C489.902 128.145 490.259 128.233 490.665 128.233C490.929 128.233 491.168 128.196 491.381 128.122C491.597 128.045 491.783 127.932 491.939 127.781C492.095 127.628 492.216 127.437 492.301 127.21L493.273 127.483C493.17 127.812 492.999 128.102 492.757 128.352C492.516 128.599 492.217 128.793 491.862 128.932C491.507 129.068 491.108 129.136 490.665 129.136ZM500.058 122.455L497.637 129H496.615L494.194 122.455H495.285L497.092 127.67H497.16L498.967 122.455H500.058ZM503.895 129.136C503.265 129.136 502.721 128.997 502.263 128.719C501.809 128.438 501.458 128.045 501.211 127.543C500.966 127.037 500.844 126.449 500.844 125.778C500.844 125.108 500.966 124.517 501.211 124.006C501.458 123.491 501.801 123.091 502.242 122.804C502.685 122.514 503.202 122.369 503.793 122.369C504.134 122.369 504.471 122.426 504.803 122.54C505.135 122.653 505.438 122.838 505.711 123.094C505.983 123.347 506.201 123.682 506.363 124.099C506.525 124.517 506.605 125.031 506.605 125.642V126.068H501.56V125.199H505.583C505.583 124.83 505.509 124.5 505.361 124.21C505.216 123.92 505.009 123.692 504.739 123.524C504.472 123.357 504.157 123.273 503.793 123.273C503.392 123.273 503.046 123.372 502.753 123.571C502.463 123.767 502.24 124.023 502.084 124.338C501.928 124.653 501.85 124.991 501.85 125.352V125.932C501.85 126.426 501.935 126.845 502.105 127.189C502.279 127.53 502.519 127.79 502.826 127.969C503.132 128.145 503.489 128.233 503.895 128.233C504.159 128.233 504.398 128.196 504.611 128.122C504.827 128.045 505.013 127.932 505.169 127.781C505.326 127.628 505.446 127.437 505.532 127.21L506.503 127.483C506.401 127.812 506.229 128.102 505.988 128.352C505.746 128.599 505.448 128.793 505.093 128.932C504.738 129.068 504.338 129.136 503.895 129.136ZM508.135 129V122.455H509.107V123.443H509.175C509.294 123.119 509.51 122.857 509.823 122.655C510.135 122.453 510.488 122.352 510.88 122.352C510.953 122.352 511.046 122.354 511.157 122.357C511.267 122.359 511.351 122.364 511.408 122.369V123.392C511.374 123.384 511.296 123.371 511.174 123.354C511.054 123.334 510.928 123.324 510.794 123.324C510.476 123.324 510.192 123.391 509.942 123.524C509.695 123.655 509.499 123.837 509.354 124.07C509.212 124.3 509.141 124.562 509.141 124.858V129H508.135ZM513.447 131.455C513.277 131.455 513.125 131.44 512.991 131.412C512.858 131.386 512.765 131.361 512.714 131.335L512.97 130.449C513.214 130.511 513.43 130.534 513.618 130.517C513.805 130.5 513.971 130.416 514.116 130.266C514.264 130.118 514.399 129.878 514.521 129.545L514.708 129.034L512.288 122.455H513.379L515.186 127.67H515.254L517.061 122.455H518.152L515.373 129.955C515.248 130.293 515.093 130.572 514.909 130.794C514.724 131.018 514.51 131.185 514.265 131.293C514.024 131.401 513.751 131.455 513.447 131.455ZM522.326 122.455V123.307H518.934V122.455H522.326ZM519.922 120.886H520.928V127.125C520.928 127.409 520.969 127.622 521.051 127.764C521.137 127.903 521.245 127.997 521.375 128.045C521.509 128.091 521.65 128.114 521.797 128.114C521.908 128.114 521.999 128.108 522.07 128.097C522.141 128.082 522.198 128.071 522.24 128.062L522.445 128.966C522.377 128.991 522.282 129.017 522.159 129.043C522.037 129.071 521.882 129.085 521.695 129.085C521.411 129.085 521.132 129.024 520.86 128.902C520.59 128.78 520.365 128.594 520.186 128.344C520.01 128.094 519.922 127.778 519.922 127.398V120.886ZM524.985 125.062V129H523.979V120.273H524.985V123.477H525.07C525.223 123.139 525.453 122.871 525.76 122.672C526.07 122.47 526.482 122.369 526.996 122.369C527.442 122.369 527.833 122.459 528.168 122.638C528.503 122.814 528.763 123.085 528.948 123.452C529.135 123.815 529.229 124.278 529.229 124.841V129H528.223V124.909C528.223 124.389 528.088 123.987 527.819 123.703C527.551 123.416 527.181 123.273 526.706 123.273C526.377 123.273 526.081 123.342 525.82 123.482C525.561 123.621 525.357 123.824 525.206 124.091C525.059 124.358 524.985 124.682 524.985 125.062ZM531.069 129V122.455H532.075V129H531.069ZM531.58 121.364C531.384 121.364 531.215 121.297 531.073 121.163C530.934 121.03 530.864 120.869 530.864 120.682C530.864 120.494 530.934 120.334 531.073 120.2C531.215 120.067 531.384 120 531.58 120C531.776 120 531.944 120.067 532.083 120.2C532.225 120.334 532.296 120.494 532.296 120.682C532.296 120.869 532.225 121.03 532.083 121.163C531.944 121.297 531.776 121.364 531.58 121.364ZM534.922 125.062V129H533.917V122.455H534.888V123.477H534.973C535.127 123.145 535.36 122.878 535.672 122.676C535.985 122.472 536.388 122.369 536.882 122.369C537.326 122.369 537.713 122.46 538.046 122.642C538.378 122.821 538.637 123.094 538.821 123.46C539.006 123.824 539.098 124.284 539.098 124.841V129H538.093V124.909C538.093 124.395 537.959 123.994 537.692 123.707C537.425 123.418 537.059 123.273 536.593 123.273C536.272 123.273 535.985 123.342 535.732 123.482C535.482 123.621 535.284 123.824 535.14 124.091C534.995 124.358 534.922 124.682 534.922 125.062ZM543.578 131.591C543.092 131.591 542.675 131.528 542.325 131.403C541.976 131.281 541.685 131.119 541.452 130.918C541.222 130.719 541.038 130.506 540.902 130.278L541.703 129.716C541.794 129.835 541.909 129.972 542.048 130.125C542.188 130.281 542.378 130.416 542.619 130.53C542.864 130.646 543.183 130.705 543.578 130.705C544.107 130.705 544.543 130.577 544.886 130.321C545.23 130.065 545.402 129.665 545.402 129.119V127.79H545.317C545.243 127.909 545.138 128.057 545.001 128.233C544.868 128.406 544.675 128.561 544.422 128.697C544.172 128.831 543.834 128.898 543.408 128.898C542.879 128.898 542.405 128.773 541.984 128.523C541.567 128.273 541.236 127.909 540.991 127.432C540.75 126.955 540.629 126.375 540.629 125.693C540.629 125.023 540.747 124.439 540.983 123.942C541.219 123.442 541.547 123.055 541.967 122.783C542.388 122.507 542.874 122.369 543.425 122.369C543.851 122.369 544.189 122.44 544.439 122.582C544.692 122.722 544.885 122.881 545.018 123.06C545.155 123.236 545.26 123.381 545.334 123.494H545.436V122.455H546.408V129.188C546.408 129.75 546.28 130.207 546.024 130.56C545.771 130.915 545.43 131.175 545.001 131.339C544.575 131.507 544.101 131.591 543.578 131.591ZM543.544 127.994C543.947 127.994 544.288 127.902 544.567 127.717C544.845 127.533 545.057 127.267 545.202 126.92C545.347 126.574 545.419 126.159 545.419 125.676C545.419 125.205 545.348 124.788 545.206 124.428C545.064 124.067 544.854 123.784 544.575 123.58C544.297 123.375 543.953 123.273 543.544 123.273C543.118 123.273 542.763 123.381 542.479 123.597C542.197 123.812 541.986 124.102 541.844 124.466C541.705 124.83 541.635 125.233 541.635 125.676C541.635 126.131 541.706 126.533 541.848 126.882C541.993 127.229 542.206 127.501 542.487 127.7C542.771 127.896 543.124 127.994 543.544 127.994ZM553.294 129.124C552.876 129.124 552.504 129.051 552.178 128.906C551.851 128.759 551.592 128.541 551.402 128.254C551.214 127.964 551.121 127.604 551.121 127.172C551.121 126.808 551.188 126.503 551.321 126.256C551.455 126.009 551.636 125.81 551.866 125.659C552.097 125.509 552.358 125.395 552.651 125.318C552.946 125.241 553.256 125.188 553.58 125.156C553.96 125.116 554.267 125.08 554.5 125.045C554.733 125.009 554.902 124.955 555.007 124.884C555.112 124.812 555.165 124.707 555.165 124.568V124.543C555.165 124.273 555.08 124.064 554.909 123.916C554.741 123.768 554.503 123.695 554.193 123.695C553.866 123.695 553.607 123.767 553.413 123.912C553.22 124.054 553.092 124.233 553.03 124.449L551.351 124.312C551.436 123.915 551.604 123.571 551.854 123.281C552.104 122.989 552.426 122.764 552.821 122.608C553.219 122.449 553.679 122.369 554.202 122.369C554.565 122.369 554.913 122.412 555.246 122.497C555.581 122.582 555.878 122.714 556.136 122.893C556.398 123.072 556.604 123.303 556.754 123.584C556.905 123.862 556.98 124.196 556.98 124.585V129H555.259V128.092H555.207C555.102 128.297 554.962 128.477 554.786 128.634C554.609 128.787 554.398 128.908 554.151 128.996C553.903 129.081 553.618 129.124 553.294 129.124ZM553.814 127.871C554.081 127.871 554.317 127.818 554.521 127.713C554.726 127.605 554.886 127.46 555.003 127.278C555.119 127.097 555.178 126.891 555.178 126.661V125.966C555.121 126.003 555.043 126.037 554.943 126.068C554.847 126.097 554.737 126.124 554.615 126.149C554.493 126.172 554.371 126.193 554.249 126.213C554.126 126.23 554.016 126.246 553.916 126.26C553.703 126.291 553.517 126.341 553.358 126.409C553.199 126.477 553.075 126.57 552.987 126.686C552.899 126.8 552.855 126.942 552.855 127.112C552.855 127.359 552.945 127.548 553.124 127.679C553.305 127.807 553.536 127.871 553.814 127.871ZM558.423 129V120.273H560.238V123.554H560.293C560.373 123.378 560.488 123.199 560.638 123.017C560.792 122.832 560.991 122.679 561.235 122.557C561.482 122.432 561.789 122.369 562.156 122.369C562.633 122.369 563.073 122.494 563.477 122.744C563.88 122.991 564.202 123.365 564.444 123.865C564.685 124.362 564.806 124.986 564.806 125.736C564.806 126.466 564.688 127.082 564.452 127.585C564.219 128.085 563.901 128.464 563.498 128.723C563.097 128.979 562.648 129.107 562.151 129.107C561.799 129.107 561.499 129.048 561.252 128.932C561.008 128.815 560.808 128.669 560.651 128.493C560.495 128.314 560.376 128.134 560.293 127.952H560.212V129H558.423ZM560.2 125.727C560.2 126.116 560.254 126.456 560.362 126.746C560.469 127.036 560.626 127.261 560.83 127.423C561.035 127.582 561.283 127.662 561.576 127.662C561.871 127.662 562.121 127.581 562.326 127.419C562.531 127.254 562.685 127.027 562.79 126.737C562.898 126.445 562.952 126.108 562.952 125.727C562.952 125.349 562.9 125.017 562.795 124.73C562.69 124.443 562.535 124.219 562.33 124.057C562.126 123.895 561.874 123.814 561.576 123.814C561.281 123.814 561.031 123.892 560.826 124.048C560.624 124.205 560.469 124.426 560.362 124.713C560.254 125 560.2 125.338 560.2 125.727ZM568.975 129.128C568.313 129.128 567.74 128.987 567.257 128.706C566.777 128.422 566.407 128.027 566.145 127.521C565.884 127.013 565.753 126.423 565.753 125.753C565.753 125.077 565.884 124.486 566.145 123.98C566.407 123.472 566.777 123.077 567.257 122.795C567.74 122.511 568.313 122.369 568.975 122.369C569.637 122.369 570.208 122.511 570.688 122.795C571.171 123.077 571.543 123.472 571.804 123.98C572.066 124.486 572.196 125.077 572.196 125.753C572.196 126.423 572.066 127.013 571.804 127.521C571.543 128.027 571.171 128.422 570.688 128.706C570.208 128.987 569.637 129.128 568.975 129.128ZM568.983 127.722C569.284 127.722 569.536 127.636 569.738 127.466C569.939 127.293 570.091 127.057 570.194 126.759C570.299 126.46 570.351 126.121 570.351 125.74C570.351 125.359 570.299 125.02 570.194 124.722C570.091 124.423 569.939 124.187 569.738 124.014C569.536 123.841 569.284 123.754 568.983 123.754C568.679 123.754 568.424 123.841 568.216 124.014C568.012 124.187 567.857 124.423 567.752 124.722C567.65 125.02 567.598 125.359 567.598 125.74C567.598 126.121 567.65 126.46 567.752 126.759C567.857 127.057 568.012 127.293 568.216 127.466C568.424 127.636 568.679 127.722 568.983 127.722ZM579.268 122.455L576.98 129H574.934L572.646 122.455H574.564L575.923 127.138H575.991L577.346 122.455H579.268ZM582.969 129.128C582.296 129.128 581.716 128.991 581.23 128.719C580.748 128.443 580.375 128.054 580.114 127.551C579.853 127.045 579.722 126.447 579.722 125.757C579.722 125.084 579.853 124.493 580.114 123.984C580.375 123.476 580.743 123.08 581.218 122.795C581.695 122.511 582.255 122.369 582.897 122.369C583.328 122.369 583.73 122.439 584.103 122.578C584.478 122.714 584.804 122.92 585.083 123.196C585.364 123.472 585.583 123.818 585.739 124.236C585.895 124.651 585.973 125.136 585.973 125.693V126.192H580.446V125.067H584.265C584.265 124.805 584.208 124.574 584.094 124.372C583.98 124.17 583.823 124.013 583.621 123.899C583.422 123.783 583.191 123.724 582.926 123.724C582.651 123.724 582.407 123.788 582.194 123.916C581.983 124.041 581.819 124.21 581.699 124.423C581.58 124.634 581.519 124.868 581.516 125.126V126.196C581.516 126.52 581.576 126.8 581.695 127.036C581.817 127.271 581.989 127.453 582.211 127.581C582.432 127.709 582.695 127.773 582.999 127.773C583.201 127.773 583.385 127.744 583.553 127.688C583.721 127.631 583.864 127.545 583.983 127.432C584.103 127.318 584.194 127.179 584.256 127.014L585.935 127.125C585.85 127.528 585.675 127.881 585.411 128.182C585.15 128.48 584.811 128.713 584.397 128.881C583.985 129.045 583.509 129.128 582.969 129.128ZM593.576 122.455V123.307H590.184V122.455H593.576ZM591.172 120.886H592.178V127.125C592.178 127.409 592.219 127.622 592.301 127.764C592.387 127.903 592.495 127.997 592.625 128.045C592.759 128.091 592.9 128.114 593.047 128.114C593.158 128.114 593.249 128.108 593.32 128.097C593.391 128.082 593.448 128.071 593.49 128.062L593.695 128.966C593.627 128.991 593.532 129.017 593.409 129.043C593.287 129.071 593.132 129.085 592.945 129.085C592.661 129.085 592.382 129.024 592.11 128.902C591.84 128.78 591.615 128.594 591.436 128.344C591.26 128.094 591.172 127.778 591.172 127.398V120.886ZM596.235 125.062V129H595.229V120.273H596.235V123.477H596.32C596.473 123.139 596.703 122.871 597.01 122.672C597.32 122.47 597.732 122.369 598.246 122.369C598.692 122.369 599.083 122.459 599.418 122.638C599.753 122.814 600.013 123.085 600.198 123.452C600.385 123.815 600.479 124.278 600.479 124.841V129H599.473V124.909C599.473 124.389 599.338 123.987 599.069 123.703C598.801 123.416 598.431 123.273 597.956 123.273C597.627 123.273 597.331 123.342 597.07 123.482C596.811 123.621 596.607 123.824 596.456 124.091C596.309 124.358 596.235 124.682 596.235 125.062ZM605.063 129.136C604.433 129.136 603.888 128.997 603.431 128.719C602.977 128.438 602.626 128.045 602.379 127.543C602.134 127.037 602.012 126.449 602.012 125.778C602.012 125.108 602.134 124.517 602.379 124.006C602.626 123.491 602.969 123.091 603.41 122.804C603.853 122.514 604.37 122.369 604.961 122.369C605.302 122.369 605.638 122.426 605.971 122.54C606.303 122.653 606.606 122.838 606.879 123.094C607.151 123.347 607.369 123.682 607.531 124.099C607.692 124.517 607.773 125.031 607.773 125.642V126.068H602.728V125.199H606.751C606.751 124.83 606.677 124.5 606.529 124.21C606.384 123.92 606.177 123.692 605.907 123.524C605.64 123.357 605.325 123.273 604.961 123.273C604.56 123.273 604.214 123.372 603.921 123.571C603.631 123.767 603.408 124.023 603.252 124.338C603.096 124.653 603.018 124.991 603.018 125.352V125.932C603.018 126.426 603.103 126.845 603.273 127.189C603.447 127.53 603.687 127.79 603.994 127.969C604.3 128.145 604.657 128.233 605.063 128.233C605.327 128.233 605.566 128.196 605.779 128.122C605.995 128.045 606.181 127.932 606.337 127.781C606.494 127.628 606.614 127.437 606.7 127.21L607.671 127.483C607.569 127.812 607.397 128.102 607.156 128.352C606.914 128.599 606.616 128.793 606.261 128.932C605.906 129.068 605.506 129.136 605.063 129.136ZM490.392 144.136C489.847 144.136 489.365 143.999 488.947 143.723C488.53 143.445 488.203 143.053 487.967 142.547C487.732 142.038 487.614 141.438 487.614 140.744C487.614 140.057 487.732 139.46 487.967 138.955C488.203 138.449 488.531 138.058 488.952 137.783C489.372 137.507 489.858 137.369 490.409 137.369C490.835 137.369 491.172 137.44 491.419 137.582C491.669 137.722 491.859 137.881 491.99 138.06C492.124 138.236 492.227 138.381 492.301 138.494H492.386V135.273H493.392V144H492.42V142.994H492.301C492.227 143.114 492.122 143.264 491.986 143.446C491.849 143.625 491.655 143.786 491.402 143.928C491.149 144.067 490.813 144.136 490.392 144.136ZM490.528 143.233C490.932 143.233 491.273 143.128 491.551 142.918C491.83 142.705 492.041 142.411 492.186 142.036C492.331 141.658 492.403 141.222 492.403 140.727C492.403 140.239 492.332 139.811 492.19 139.445C492.048 139.075 491.838 138.788 491.56 138.584C491.281 138.376 490.938 138.273 490.528 138.273C490.102 138.273 489.747 138.382 489.463 138.601C489.182 138.817 488.97 139.111 488.828 139.483C488.689 139.852 488.619 140.267 488.619 140.727C488.619 141.193 488.69 141.616 488.832 141.997C488.977 142.375 489.19 142.676 489.472 142.901C489.756 143.122 490.108 143.233 490.528 143.233ZM495.374 144V137.455H496.379V144H495.374ZM495.885 136.364C495.689 136.364 495.52 136.297 495.378 136.163C495.239 136.03 495.169 135.869 495.169 135.682C495.169 135.494 495.239 135.334 495.378 135.2C495.52 135.067 495.689 135 495.885 135C496.081 135 496.249 135.067 496.388 135.2C496.53 135.334 496.601 135.494 496.601 135.682C496.601 135.869 496.53 136.03 496.388 136.163C496.249 136.297 496.081 136.364 495.885 136.364ZM500.147 144.153C499.733 144.153 499.356 144.075 499.018 143.919C498.68 143.76 498.412 143.531 498.213 143.233C498.014 142.932 497.914 142.568 497.914 142.142C497.914 141.767 497.988 141.463 498.136 141.23C498.284 140.994 498.481 140.81 498.728 140.676C498.975 140.543 499.248 140.443 499.547 140.378C499.848 140.31 500.15 140.256 500.454 140.216C500.852 140.165 501.174 140.126 501.422 140.101C501.672 140.072 501.853 140.026 501.967 139.96C502.083 139.895 502.142 139.781 502.142 139.619V139.585C502.142 139.165 502.027 138.838 501.797 138.605C501.569 138.372 501.224 138.256 500.761 138.256C500.281 138.256 499.904 138.361 499.632 138.571C499.359 138.781 499.167 139.006 499.056 139.244L498.102 138.903C498.272 138.506 498.5 138.196 498.784 137.974C499.071 137.75 499.383 137.594 499.721 137.506C500.062 137.415 500.397 137.369 500.727 137.369C500.937 137.369 501.179 137.395 501.451 137.446C501.727 137.494 501.993 137.595 502.248 137.749C502.507 137.902 502.721 138.134 502.892 138.443C503.062 138.753 503.147 139.168 503.147 139.688V144H502.142V143.114H502.091C502.022 143.256 501.909 143.408 501.75 143.57C501.591 143.732 501.379 143.869 501.115 143.983C500.85 144.097 500.528 144.153 500.147 144.153ZM500.301 143.25C500.699 143.25 501.034 143.172 501.306 143.016C501.582 142.859 501.789 142.658 501.929 142.411C502.071 142.163 502.142 141.903 502.142 141.631V140.71C502.099 140.761 502.005 140.808 501.86 140.851C501.718 140.891 501.554 140.926 501.366 140.957C501.181 140.986 501.001 141.011 500.825 141.034C500.652 141.054 500.511 141.071 500.403 141.085C500.142 141.119 499.897 141.175 499.67 141.251C499.446 141.325 499.264 141.437 499.125 141.588C498.988 141.736 498.92 141.937 498.92 142.193C498.92 142.543 499.049 142.807 499.308 142.986C499.569 143.162 499.9 143.25 500.301 143.25ZM507.625 146.591C507.139 146.591 506.722 146.528 506.372 146.403C506.023 146.281 505.732 146.119 505.499 145.918C505.268 145.719 505.085 145.506 504.949 145.278L505.75 144.716C505.841 144.835 505.956 144.972 506.095 145.125C506.234 145.281 506.425 145.416 506.666 145.53C506.911 145.646 507.23 145.705 507.625 145.705C508.153 145.705 508.589 145.577 508.933 145.321C509.277 145.065 509.449 144.665 509.449 144.119V142.79H509.364C509.29 142.909 509.185 143.057 509.048 143.233C508.915 143.406 508.722 143.561 508.469 143.697C508.219 143.831 507.881 143.898 507.455 143.898C506.926 143.898 506.452 143.773 506.031 143.523C505.614 143.273 505.283 142.909 505.038 142.432C504.797 141.955 504.676 141.375 504.676 140.693C504.676 140.023 504.794 139.439 505.03 138.942C505.266 138.442 505.594 138.055 506.014 137.783C506.435 137.507 506.92 137.369 507.472 137.369C507.898 137.369 508.236 137.44 508.486 137.582C508.739 137.722 508.932 137.881 509.065 138.06C509.202 138.236 509.307 138.381 509.381 138.494H509.483V137.455H510.455V144.188C510.455 144.75 510.327 145.207 510.071 145.56C509.818 145.915 509.477 146.175 509.048 146.339C508.622 146.507 508.148 146.591 507.625 146.591ZM507.591 142.994C507.994 142.994 508.335 142.902 508.614 142.717C508.892 142.533 509.104 142.267 509.249 141.92C509.393 141.574 509.466 141.159 509.466 140.676C509.466 140.205 509.395 139.788 509.253 139.428C509.111 139.067 508.901 138.784 508.622 138.58C508.344 138.375 508 138.273 507.591 138.273C507.165 138.273 506.81 138.381 506.526 138.597C506.244 138.812 506.033 139.102 505.891 139.466C505.751 139.83 505.682 140.233 505.682 140.676C505.682 141.131 505.753 141.533 505.895 141.882C506.04 142.229 506.253 142.501 506.534 142.7C506.818 142.896 507.17 142.994 507.591 142.994ZM514.955 144.136C514.364 144.136 513.845 143.996 513.399 143.714C512.956 143.433 512.609 143.04 512.359 142.534C512.112 142.028 511.989 141.437 511.989 140.761C511.989 140.08 512.112 139.484 512.359 138.976C512.609 138.467 512.956 138.072 513.399 137.791C513.845 137.51 514.364 137.369 514.955 137.369C515.545 137.369 516.063 137.51 516.506 137.791C516.952 138.072 517.298 138.467 517.545 138.976C517.795 139.484 517.92 140.08 517.92 140.761C517.92 141.437 517.795 142.028 517.545 142.534C517.298 143.04 516.952 143.433 516.506 143.714C516.063 143.996 515.545 144.136 514.955 144.136ZM514.955 143.233C515.403 143.233 515.773 143.118 516.062 142.888C516.352 142.658 516.567 142.355 516.706 141.98C516.845 141.605 516.915 141.199 516.915 140.761C516.915 140.324 516.845 139.916 516.706 139.538C516.567 139.161 516.352 138.855 516.062 138.622C515.773 138.389 515.403 138.273 514.955 138.273C514.506 138.273 514.136 138.389 513.847 138.622C513.557 138.855 513.342 139.161 513.203 139.538C513.064 139.916 512.994 140.324 512.994 140.761C512.994 141.199 513.064 141.605 513.203 141.98C513.342 142.355 513.557 142.658 513.847 142.888C514.136 143.118 514.506 143.233 514.955 143.233ZM520.461 140.062V144H519.456V137.455H520.427V138.477H520.512C520.666 138.145 520.899 137.878 521.211 137.676C521.524 137.472 521.927 137.369 522.422 137.369C522.865 137.369 523.252 137.46 523.585 137.642C523.917 137.821 524.176 138.094 524.36 138.46C524.545 138.824 524.637 139.284 524.637 139.841V144H523.632V139.909C523.632 139.395 523.498 138.994 523.231 138.707C522.964 138.418 522.598 138.273 522.132 138.273C521.811 138.273 521.524 138.342 521.271 138.482C521.021 138.621 520.824 138.824 520.679 139.091C520.534 139.358 520.461 139.682 520.461 140.062ZM528.401 144.153C527.987 144.153 527.61 144.075 527.272 143.919C526.934 143.76 526.665 143.531 526.467 143.233C526.268 142.932 526.168 142.568 526.168 142.142C526.168 141.767 526.242 141.463 526.39 141.23C526.538 140.994 526.735 140.81 526.982 140.676C527.229 140.543 527.502 140.443 527.8 140.378C528.102 140.31 528.404 140.256 528.708 140.216C529.106 140.165 529.428 140.126 529.675 140.101C529.925 140.072 530.107 140.026 530.221 139.96C530.337 139.895 530.396 139.781 530.396 139.619V139.585C530.396 139.165 530.281 138.838 530.05 138.605C529.823 138.372 529.478 138.256 529.015 138.256C528.535 138.256 528.158 138.361 527.886 138.571C527.613 138.781 527.421 139.006 527.31 139.244L526.356 138.903C526.526 138.506 526.754 138.196 527.038 137.974C527.325 137.75 527.637 137.594 527.975 137.506C528.316 137.415 528.651 137.369 528.981 137.369C529.191 137.369 529.433 137.395 529.705 137.446C529.981 137.494 530.246 137.595 530.502 137.749C530.761 137.902 530.975 138.134 531.146 138.443C531.316 138.753 531.401 139.168 531.401 139.688V144H530.396V143.114H530.344C530.276 143.256 530.163 143.408 530.004 143.57C529.844 143.732 529.633 143.869 529.369 143.983C529.104 144.097 528.782 144.153 528.401 144.153ZM528.555 143.25C528.952 143.25 529.288 143.172 529.56 143.016C529.836 142.859 530.043 142.658 530.183 142.411C530.325 142.163 530.396 141.903 530.396 141.631V140.71C530.353 140.761 530.259 140.808 530.114 140.851C529.972 140.891 529.808 140.926 529.62 140.957C529.435 140.986 529.255 141.011 529.079 141.034C528.906 141.054 528.765 141.071 528.657 141.085C528.396 141.119 528.151 141.175 527.924 141.251C527.7 141.325 527.518 141.437 527.379 141.588C527.242 141.736 527.174 141.937 527.174 142.193C527.174 142.543 527.303 142.807 527.562 142.986C527.823 143.162 528.154 143.25 528.555 143.25ZM534.243 135.273V144H533.237V135.273H534.243Z" fill="#505050"/>
<path d="M491.21 78.4545V79.3068H487.818V78.4545H491.21ZM488.807 76.8864H489.813V83.125C489.813 83.4091 489.854 83.6222 489.936 83.7642C490.021 83.9034 490.129 83.9972 490.26 84.0455C490.394 84.0909 490.534 84.1136 490.682 84.1136C490.793 84.1136 490.884 84.108 490.955 84.0966C491.026 84.0824 491.083 84.071 491.125 84.0625L491.33 84.9659C491.262 84.9915 491.166 85.017 491.044 85.0426C490.922 85.071 490.767 85.0852 490.58 85.0852C490.296 85.0852 490.017 85.0241 489.744 84.902C489.475 84.7798 489.25 84.5938 489.071 84.3438C488.895 84.0938 488.807 83.7784 488.807 83.3977V76.8864ZM493.869 81.0625V85H492.864V76.2727H493.869V79.4773H493.955C494.108 79.1392 494.338 78.8707 494.645 78.6719C494.955 78.4702 495.367 78.3693 495.881 78.3693C496.327 78.3693 496.718 78.4588 497.053 78.6378C497.388 78.8139 497.648 79.0852 497.833 79.4517C498.02 79.8153 498.114 80.2784 498.114 80.8409V85H497.108V80.9091C497.108 80.3892 496.973 79.9872 496.703 79.7031C496.436 79.4162 496.066 79.2727 495.591 79.2727C495.262 79.2727 494.966 79.3423 494.705 79.4815C494.446 79.6207 494.242 79.8239 494.091 80.0909C493.943 80.358 493.869 80.6818 493.869 81.0625ZM502.698 85.1364C502.067 85.1364 501.523 84.9972 501.066 84.7188C500.611 84.4375 500.26 84.0455 500.013 83.5426C499.769 83.0369 499.647 82.4489 499.647 81.7784C499.647 81.108 499.769 80.517 500.013 80.0057C500.26 79.4915 500.604 79.0909 501.045 78.804C501.488 78.5142 502.005 78.3693 502.596 78.3693C502.937 78.3693 503.273 78.4261 503.606 78.5398C503.938 78.6534 504.241 78.8381 504.513 79.0938C504.786 79.3466 505.003 79.6818 505.165 80.0994C505.327 80.517 505.408 81.0312 505.408 81.642V82.0682H500.363V81.1989H504.385C504.385 80.8295 504.312 80.5 504.164 80.2102C504.019 79.9205 503.812 79.6918 503.542 79.5241C503.275 79.3565 502.959 79.2727 502.596 79.2727C502.195 79.2727 501.849 79.3722 501.556 79.571C501.266 79.767 501.043 80.0227 500.887 80.3381C500.731 80.6534 500.653 80.9915 500.653 81.3523V81.9318C500.653 82.4261 500.738 82.8452 500.908 83.1889C501.081 83.5298 501.322 83.7898 501.628 83.9688C501.935 84.1449 502.292 84.233 502.698 84.233C502.962 84.233 503.201 84.196 503.414 84.1222C503.63 84.0455 503.816 83.9318 503.972 83.7812C504.128 83.6278 504.249 83.4375 504.334 83.2102L505.306 83.483C505.204 83.8125 505.032 84.1023 504.79 84.3523C504.549 84.5994 504.251 84.7926 503.895 84.9318C503.54 85.0682 503.141 85.1364 502.698 85.1364ZM512.785 85.1364C512.239 85.1364 511.758 84.9986 511.34 84.723C510.922 84.4446 510.596 84.0526 510.36 83.5469C510.124 83.0384 510.006 82.4375 510.006 81.7443C510.006 81.0568 510.124 80.4602 510.36 79.9545C510.596 79.4489 510.924 79.0582 511.344 78.7827C511.765 78.5071 512.251 78.3693 512.802 78.3693C513.228 78.3693 513.564 78.4403 513.812 78.5824C514.062 78.7216 514.252 78.8807 514.383 79.0597C514.516 79.2358 514.62 79.3807 514.694 79.4943H514.779V76.2727H515.785V85H514.813V83.9943H514.694C514.62 84.1136 514.515 84.2642 514.378 84.446C514.242 84.625 514.047 84.7855 513.795 84.9276C513.542 85.0668 513.205 85.1364 512.785 85.1364ZM512.921 84.233C513.324 84.233 513.665 84.1278 513.944 83.9176C514.222 83.7045 514.434 83.4105 514.579 83.0355C514.724 82.6577 514.796 82.2216 514.796 81.7273C514.796 81.2386 514.725 80.8111 514.583 80.4446C514.441 80.0753 514.231 79.7884 513.952 79.5838C513.674 79.3764 513.33 79.2727 512.921 79.2727C512.495 79.2727 512.14 79.3821 511.856 79.6009C511.574 79.8168 511.363 80.1108 511.221 80.483C511.081 80.8523 511.012 81.267 511.012 81.7273C511.012 82.1932 511.083 82.6165 511.225 82.9972C511.37 83.375 511.583 83.6761 511.864 83.9006C512.148 84.1222 512.501 84.233 512.921 84.233ZM517.766 85V78.4545H518.772V85H517.766ZM518.278 77.3636C518.081 77.3636 517.912 77.2969 517.77 77.1634C517.631 77.0298 517.562 76.8693 517.562 76.6818C517.562 76.4943 517.631 76.3338 517.77 76.2003C517.912 76.0668 518.081 76 518.278 76C518.474 76 518.641 76.0668 518.78 76.2003C518.922 76.3338 518.993 76.4943 518.993 76.6818C518.993 76.8693 518.922 77.0298 518.78 77.1634C518.641 77.2969 518.474 77.3636 518.278 77.3636ZM522.54 85.1534C522.125 85.1534 521.749 85.0753 521.411 84.919C521.073 84.7599 520.804 84.5312 520.605 84.233C520.406 83.9318 520.307 83.5682 520.307 83.142C520.307 82.767 520.381 82.4631 520.529 82.2301C520.676 81.9943 520.874 81.8097 521.121 81.6761C521.368 81.5426 521.641 81.4432 521.939 81.3778C522.24 81.3097 522.543 81.2557 522.847 81.2159C523.244 81.1648 523.567 81.1264 523.814 81.1009C524.064 81.0724 524.246 81.0256 524.36 80.9602C524.476 80.8949 524.534 80.7812 524.534 80.6193V80.5852C524.534 80.1648 524.419 79.8381 524.189 79.6051C523.962 79.3722 523.617 79.2557 523.154 79.2557C522.673 79.2557 522.297 79.3608 522.024 79.571C521.752 79.7812 521.56 80.0057 521.449 80.2443L520.494 79.9034C520.665 79.5057 520.892 79.196 521.176 78.9744C521.463 78.75 521.776 78.5937 522.114 78.5057C522.455 78.4148 522.79 78.3693 523.119 78.3693C523.33 78.3693 523.571 78.3949 523.844 78.446C524.119 78.4943 524.385 78.5952 524.641 78.7486C524.899 78.902 525.114 79.1335 525.284 79.4432C525.455 79.7528 525.54 80.1676 525.54 80.6875V85H524.534V84.1136H524.483C524.415 84.2557 524.301 84.4077 524.142 84.5696C523.983 84.7315 523.771 84.8693 523.507 84.983C523.243 85.0966 522.921 85.1534 522.54 85.1534ZM522.693 84.25C523.091 84.25 523.426 84.1719 523.699 84.0156C523.975 83.8594 524.182 83.6577 524.321 83.4105C524.463 83.1634 524.534 82.9034 524.534 82.6307V81.7102C524.492 81.7614 524.398 81.8082 524.253 81.8509C524.111 81.8906 523.946 81.9261 523.759 81.9574C523.574 81.9858 523.394 82.0114 523.218 82.0341C523.044 82.054 522.904 82.071 522.796 82.0852C522.534 82.1193 522.29 82.1747 522.063 82.2514C521.838 82.3253 521.656 82.4375 521.517 82.5881C521.381 82.7358 521.313 82.9375 521.313 83.1932C521.313 83.5426 521.442 83.8068 521.7 83.9858C521.962 84.1619 522.293 84.25 522.693 84.25ZM530.018 87.5909C529.532 87.5909 529.114 87.5284 528.765 87.4034C528.415 87.2812 528.124 87.1193 527.891 86.9176C527.661 86.7188 527.478 86.5057 527.341 86.2784L528.143 85.7159C528.233 85.8352 528.349 85.9716 528.488 86.125C528.627 86.2812 528.817 86.4162 529.059 86.5298C529.303 86.6463 529.623 86.7045 530.018 86.7045C530.546 86.7045 530.982 86.5767 531.326 86.321C531.67 86.0653 531.841 85.6648 531.841 85.1193V83.7898H531.756C531.682 83.9091 531.577 84.0568 531.441 84.233C531.307 84.4062 531.114 84.5611 530.861 84.6974C530.611 84.831 530.273 84.8977 529.847 84.8977C529.319 84.8977 528.844 84.7727 528.424 84.5227C528.006 84.2727 527.675 83.9091 527.431 83.4318C527.189 82.9545 527.069 82.375 527.069 81.6932C527.069 81.0227 527.187 80.4389 527.422 79.9418C527.658 79.4418 527.986 79.0554 528.407 78.7827C528.827 78.5071 529.313 78.3693 529.864 78.3693C530.29 78.3693 530.628 78.4403 530.878 78.5824C531.131 78.7216 531.324 78.8807 531.458 79.0597C531.594 79.2358 531.699 79.3807 531.773 79.4943H531.876V78.4545H532.847V85.1875C532.847 85.75 532.719 86.2074 532.464 86.5597C532.211 86.9148 531.87 87.1747 531.441 87.3395C531.015 87.5071 530.54 87.5909 530.018 87.5909ZM529.983 83.9943C530.387 83.9943 530.728 83.902 531.006 83.7173C531.285 83.5327 531.496 83.267 531.641 82.9205C531.786 82.5739 531.858 82.1591 531.858 81.6761C531.858 81.2045 531.787 80.7884 531.645 80.4276C531.503 80.0668 531.293 79.7841 531.015 79.5795C530.736 79.375 530.393 79.2727 529.983 79.2727C529.557 79.2727 529.202 79.3807 528.918 79.5966C528.637 79.8125 528.425 80.1023 528.283 80.4659C528.144 80.8295 528.074 81.233 528.074 81.6761C528.074 82.1307 528.145 82.5327 528.287 82.8821C528.432 83.2287 528.645 83.5014 528.927 83.7003C529.211 83.8963 529.563 83.9943 529.983 83.9943ZM537.347 85.1364C536.756 85.1364 536.238 84.9957 535.792 84.7145C535.349 84.4332 535.002 84.0398 534.752 83.5341C534.505 83.0284 534.381 82.4375 534.381 81.7614C534.381 81.0795 534.505 80.4844 534.752 79.9759C535.002 79.4673 535.349 79.0724 535.792 78.7912C536.238 78.5099 536.756 78.3693 537.347 78.3693C537.938 78.3693 538.455 78.5099 538.898 78.7912C539.344 79.0724 539.691 79.4673 539.938 79.9759C540.188 80.4844 540.313 81.0795 540.313 81.7614C540.313 82.4375 540.188 83.0284 539.938 83.5341C539.691 84.0398 539.344 84.4332 538.898 84.7145C538.455 84.9957 537.938 85.1364 537.347 85.1364ZM537.347 84.233C537.796 84.233 538.165 84.1179 538.455 83.8878C538.745 83.6577 538.959 83.3551 539.099 82.9801C539.238 82.6051 539.307 82.1989 539.307 81.7614C539.307 81.3239 539.238 80.9162 539.099 80.5384C538.959 80.1605 538.745 79.8551 538.455 79.6222C538.165 79.3892 537.796 79.2727 537.347 79.2727C536.898 79.2727 536.529 79.3892 536.239 79.6222C535.949 79.8551 535.735 80.1605 535.596 80.5384C535.456 80.9162 535.387 81.3239 535.387 81.7614C535.387 82.1989 535.456 82.6051 535.596 82.9801C535.735 83.3551 535.949 83.6577 536.239 83.8878C536.529 84.1179 536.898 84.233 537.347 84.233ZM542.854 81.0625V85H541.848V78.4545H542.82V79.4773H542.905C543.058 79.1449 543.291 78.8778 543.604 78.6761C543.916 78.4716 544.32 78.3693 544.814 78.3693C545.257 78.3693 545.645 78.4602 545.977 78.642C546.31 78.821 546.568 79.0938 546.753 79.4602C546.938 79.8239 547.03 80.2841 547.03 80.8409V85H546.024V80.9091C546.024 80.3949 545.891 79.9943 545.624 79.7074C545.357 79.4176 544.99 79.2727 544.524 79.2727C544.203 79.2727 543.916 79.3423 543.664 79.4815C543.414 79.6207 543.216 79.8239 543.071 80.0909C542.926 80.358 542.854 80.6818 542.854 81.0625ZM550.794 85.1534C550.379 85.1534 550.003 85.0753 549.665 84.919C549.327 84.7599 549.058 84.5312 548.859 84.233C548.66 83.9318 548.561 83.5682 548.561 83.142C548.561 82.767 548.635 82.4631 548.782 82.2301C548.93 81.9943 549.128 81.8097 549.375 81.6761C549.622 81.5426 549.895 81.4432 550.193 81.3778C550.494 81.3097 550.797 81.2557 551.101 81.2159C551.498 81.1648 551.821 81.1264 552.068 81.1009C552.318 81.0724 552.5 81.0256 552.613 80.9602C552.73 80.8949 552.788 80.7812 552.788 80.6193V80.5852C552.788 80.1648 552.673 79.8381 552.443 79.6051C552.216 79.3722 551.871 79.2557 551.407 79.2557C550.927 79.2557 550.551 79.3608 550.278 79.571C550.006 79.7812 549.814 80.0057 549.703 80.2443L548.748 79.9034C548.919 79.5057 549.146 79.196 549.43 78.9744C549.717 78.75 550.03 78.5937 550.368 78.5057C550.709 78.4148 551.044 78.3693 551.373 78.3693C551.584 78.3693 551.825 78.3949 552.098 78.446C552.373 78.4943 552.639 78.5952 552.895 78.7486C553.153 78.902 553.368 79.1335 553.538 79.4432C553.709 79.7528 553.794 80.1676 553.794 80.6875V85H552.788V84.1136H552.737C552.669 84.2557 552.555 84.4077 552.396 84.5696C552.237 84.7315 552.025 84.8693 551.761 84.983C551.497 85.0966 551.175 85.1534 550.794 85.1534ZM550.947 84.25C551.345 84.25 551.68 84.1719 551.953 84.0156C552.229 83.8594 552.436 83.6577 552.575 83.4105C552.717 83.1634 552.788 82.9034 552.788 82.6307V81.7102C552.746 81.7614 552.652 81.8082 552.507 81.8509C552.365 81.8906 552.2 81.9261 552.013 81.9574C551.828 81.9858 551.648 82.0114 551.471 82.0341C551.298 82.054 551.157 82.071 551.05 82.0852C550.788 82.1193 550.544 82.1747 550.317 82.2514C550.092 82.3253 549.91 82.4375 549.771 82.5881C549.635 82.7358 549.567 82.9375 549.567 83.1932C549.567 83.5426 549.696 83.8068 549.954 83.9858C550.216 84.1619 550.547 84.25 550.947 84.25ZM556.635 76.2727V85H555.629V76.2727H556.635Z" fill="#505050"/>
<path d="M490.665 24.1364C490.034 24.1364 489.49 23.9972 489.033 23.7188C488.578 23.4375 488.227 23.0455 487.98 22.5426C487.736 22.0369 487.614 21.4489 487.614 20.7784C487.614 20.108 487.736 19.517 487.98 19.0057C488.227 18.4915 488.571 18.0909 489.011 17.804C489.455 17.5142 489.972 17.3693 490.562 17.3693C490.903 17.3693 491.24 17.4261 491.572 17.5398C491.905 17.6534 492.207 17.8381 492.48 18.0938C492.753 18.3466 492.97 18.6818 493.132 19.0994C493.294 19.517 493.375 20.0312 493.375 20.642V21.0682H488.33V20.1989H492.352C492.352 19.8295 492.278 19.5 492.131 19.2102C491.986 18.9205 491.778 18.6918 491.509 18.5241C491.241 18.3565 490.926 18.2727 490.562 18.2727C490.162 18.2727 489.815 18.3722 489.523 18.571C489.233 18.767 489.01 19.0227 488.854 19.3381C488.697 19.6534 488.619 19.9915 488.619 20.3523V20.9318C488.619 21.4261 488.705 21.8452 488.875 22.1889C489.048 22.5298 489.288 22.7898 489.595 22.9688C489.902 23.1449 490.259 23.233 490.665 23.233C490.929 23.233 491.168 23.196 491.381 23.1222C491.597 23.0455 491.783 22.9318 491.939 22.7812C492.095 22.6278 492.216 22.4375 492.301 22.2102L493.273 22.483C493.17 22.8125 492.999 23.1023 492.757 23.3523C492.516 23.5994 492.217 23.7926 491.862 23.9318C491.507 24.0682 491.108 24.1364 490.665 24.1364ZM500.058 17.4545L497.637 24H496.615L494.194 17.4545H495.285L497.092 22.6705H497.16L498.967 17.4545H500.058ZM503.895 24.1364C503.265 24.1364 502.721 23.9972 502.263 23.7188C501.809 23.4375 501.458 23.0455 501.211 22.5426C500.966 22.0369 500.844 21.4489 500.844 20.7784C500.844 20.108 500.966 19.517 501.211 19.0057C501.458 18.4915 501.801 18.0909 502.242 17.804C502.685 17.5142 503.202 17.3693 503.793 17.3693C504.134 17.3693 504.471 17.4261 504.803 17.5398C505.135 17.6534 505.438 17.8381 505.711 18.0938C505.983 18.3466 506.201 18.6818 506.363 19.0994C506.525 19.517 506.605 20.0312 506.605 20.642V21.0682H501.56V20.1989H505.583C505.583 19.8295 505.509 19.5 505.361 19.2102C505.216 18.9205 505.009 18.6918 504.739 18.5241C504.472 18.3565 504.157 18.2727 503.793 18.2727C503.392 18.2727 503.046 18.3722 502.753 18.571C502.463 18.767 502.24 19.0227 502.084 19.3381C501.928 19.6534 501.85 19.9915 501.85 20.3523V20.9318C501.85 21.4261 501.935 21.8452 502.105 22.1889C502.279 22.5298 502.519 22.7898 502.826 22.9688C503.132 23.1449 503.489 23.233 503.895 23.233C504.159 23.233 504.398 23.196 504.611 23.1222C504.827 23.0455 505.013 22.9318 505.169 22.7812C505.326 22.6278 505.446 22.4375 505.532 22.2102L506.503 22.483C506.401 22.8125 506.229 23.1023 505.988 23.3523C505.746 23.5994 505.448 23.7926 505.093 23.9318C504.738 24.0682 504.338 24.1364 503.895 24.1364ZM508.135 24V17.4545H509.107V18.4432H509.175C509.294 18.1193 509.51 17.8565 509.823 17.6548C510.135 17.4531 510.488 17.3523 510.88 17.3523C510.953 17.3523 511.046 17.3537 511.157 17.3565C511.267 17.3594 511.351 17.3636 511.408 17.3693V18.392C511.374 18.3835 511.296 18.3707 511.174 18.3537C511.054 18.3338 510.928 18.3239 510.794 18.3239C510.476 18.3239 510.192 18.3906 509.942 18.5241C509.695 18.6548 509.499 18.8366 509.354 19.0696C509.212 19.2997 509.141 19.5625 509.141 19.858V24H508.135ZM513.447 26.4545C513.277 26.4545 513.125 26.4403 512.991 26.4119C512.858 26.3864 512.765 26.3608 512.714 26.3352L512.97 25.4489C513.214 25.5114 513.43 25.5341 513.618 25.517C513.805 25.5 513.971 25.4162 514.116 25.2656C514.264 25.1179 514.399 24.8778 514.521 24.5455L514.708 24.0341L512.288 17.4545H513.379L515.186 22.6705H515.254L517.061 17.4545H518.152L515.373 24.9545C515.248 25.2926 515.093 25.5724 514.909 25.794C514.724 26.0185 514.51 26.1847 514.265 26.2926C514.024 26.4006 513.751 26.4545 513.447 26.4545ZM522.326 17.4545V18.3068H518.934V17.4545H522.326ZM519.922 15.8864H520.928V22.125C520.928 22.4091 520.969 22.6222 521.051 22.7642C521.137 22.9034 521.245 22.9972 521.375 23.0455C521.509 23.0909 521.65 23.1136 521.797 23.1136C521.908 23.1136 521.999 23.108 522.07 23.0966C522.141 23.0824 522.198 23.071 522.24 23.0625L522.445 23.9659C522.377 23.9915 522.282 24.017 522.159 24.0426C522.037 24.071 521.882 24.0852 521.695 24.0852C521.411 24.0852 521.132 24.0241 520.86 23.902C520.59 23.7798 520.365 23.5938 520.186 23.3438C520.01 23.0938 519.922 22.7784 519.922 22.3977V15.8864ZM524.985 20.0625V24H523.979V15.2727H524.985V18.4773H525.07C525.223 18.1392 525.453 17.8707 525.76 17.6719C526.07 17.4702 526.482 17.3693 526.996 17.3693C527.442 17.3693 527.833 17.4588 528.168 17.6378C528.503 17.8139 528.763 18.0852 528.948 18.4517C529.135 18.8153 529.229 19.2784 529.229 19.8409V24H528.223V19.9091C528.223 19.3892 528.088 18.9872 527.819 18.7031C527.551 18.4162 527.181 18.2727 526.706 18.2727C526.377 18.2727 526.081 18.3423 525.82 18.4815C525.561 18.6207 525.357 18.8239 525.206 19.0909C525.059 19.358 524.985 19.6818 524.985 20.0625ZM531.069 24V17.4545H532.075V24H531.069ZM531.58 16.3636C531.384 16.3636 531.215 16.2969 531.073 16.1634C530.934 16.0298 530.864 15.8693 530.864 15.6818C530.864 15.4943 530.934 15.3338 531.073 15.2003C531.215 15.0668 531.384 15 531.58 15C531.776 15 531.944 15.0668 532.083 15.2003C532.225 15.3338 532.296 15.4943 532.296 15.6818C532.296 15.8693 532.225 16.0298 532.083 16.1634C531.944 16.2969 531.776 16.3636 531.58 16.3636ZM534.922 20.0625V24H533.917V17.4545H534.888V18.4773H534.973C535.127 18.1449 535.36 17.8778 535.672 17.6761C535.985 17.4716 536.388 17.3693 536.882 17.3693C537.326 17.3693 537.713 17.4602 538.046 17.642C538.378 17.821 538.637 18.0938 538.821 18.4602C539.006 18.8239 539.098 19.2841 539.098 19.8409V24H538.093V19.9091C538.093 19.3949 537.959 18.9943 537.692 18.7074C537.425 18.4176 537.059 18.2727 536.593 18.2727C536.272 18.2727 535.985 18.3423 535.732 18.4815C535.482 18.6207 535.284 18.8239 535.14 19.0909C534.995 19.358 534.922 19.6818 534.922 20.0625ZM543.578 26.5909C543.092 26.5909 542.675 26.5284 542.325 26.4034C541.976 26.2812 541.685 26.1193 541.452 25.9176C541.222 25.7188 541.038 25.5057 540.902 25.2784L541.703 24.7159C541.794 24.8352 541.909 24.9716 542.048 25.125C542.188 25.2812 542.378 25.4162 542.619 25.5298C542.864 25.6463 543.183 25.7045 543.578 25.7045C544.107 25.7045 544.543 25.5767 544.886 25.321C545.23 25.0653 545.402 24.6648 545.402 24.1193V22.7898H545.317C545.243 22.9091 545.138 23.0568 545.001 23.233C544.868 23.4062 544.675 23.5611 544.422 23.6974C544.172 23.831 543.834 23.8977 543.408 23.8977C542.879 23.8977 542.405 23.7727 541.984 23.5227C541.567 23.2727 541.236 22.9091 540.991 22.4318C540.75 21.9545 540.629 21.375 540.629 20.6932C540.629 20.0227 540.747 19.4389 540.983 18.9418C541.219 18.4418 541.547 18.0554 541.967 17.7827C542.388 17.5071 542.874 17.3693 543.425 17.3693C543.851 17.3693 544.189 17.4403 544.439 17.5824C544.692 17.7216 544.885 17.8807 545.018 18.0597C545.155 18.2358 545.26 18.3807 545.334 18.4943H545.436V17.4545H546.408V24.1875C546.408 24.75 546.28 25.2074 546.024 25.5597C545.771 25.9148 545.43 26.1747 545.001 26.3395C544.575 26.5071 544.101 26.5909 543.578 26.5909ZM543.544 22.9943C543.947 22.9943 544.288 22.902 544.567 22.7173C544.845 22.5327 545.057 22.267 545.202 21.9205C545.347 21.5739 545.419 21.1591 545.419 20.6761C545.419 20.2045 545.348 19.7884 545.206 19.4276C545.064 19.0668 544.854 18.7841 544.575 18.5795C544.297 18.375 543.953 18.2727 543.544 18.2727C543.118 18.2727 542.763 18.3807 542.479 18.5966C542.197 18.8125 541.986 19.1023 541.844 19.4659C541.705 19.8295 541.635 20.233 541.635 20.6761C541.635 21.1307 541.706 21.5327 541.848 21.8821C541.993 22.2287 542.206 22.5014 542.487 22.7003C542.771 22.8963 543.124 22.9943 543.544 22.9943ZM551.462 24V15.2727H553.277V18.554H553.332C553.412 18.3778 553.527 18.1989 553.678 18.017C553.831 17.8324 554.03 17.679 554.274 17.5568C554.521 17.4318 554.828 17.3693 555.195 17.3693C555.672 17.3693 556.112 17.4943 556.516 17.7443C556.919 17.9915 557.241 18.3651 557.483 18.8651C557.724 19.3622 557.845 19.9858 557.845 20.7358C557.845 21.4659 557.727 22.0824 557.491 22.5852C557.259 23.0852 556.94 23.4645 556.537 23.723C556.136 23.9787 555.688 24.1065 555.19 24.1065C554.838 24.1065 554.538 24.0483 554.291 23.9318C554.047 23.8153 553.847 23.669 553.69 23.4929C553.534 23.3139 553.415 23.1335 553.332 22.9517H553.251V24H551.462ZM553.239 20.7273C553.239 21.1165 553.293 21.456 553.401 21.7457C553.509 22.0355 553.665 22.2614 553.869 22.4233C554.074 22.5824 554.322 22.6619 554.615 22.6619C554.911 22.6619 555.161 22.581 555.365 22.419C555.57 22.2543 555.724 22.027 555.83 21.7372C555.938 21.4446 555.991 21.108 555.991 20.7273C555.991 20.3494 555.939 20.017 555.834 19.7301C555.729 19.4432 555.574 19.2187 555.369 19.0568C555.165 18.8949 554.913 18.8139 554.615 18.8139C554.32 18.8139 554.07 18.892 553.865 19.0483C553.663 19.2045 553.509 19.4261 553.401 19.7131C553.293 20 553.239 20.3381 553.239 20.7273ZM562.039 24.1278C561.366 24.1278 560.787 23.9915 560.301 23.7188C559.818 23.4432 559.446 23.054 559.184 22.5511C558.923 22.0455 558.792 21.4474 558.792 20.7571C558.792 20.0838 558.923 19.4929 559.184 18.9844C559.446 18.4759 559.814 18.0795 560.288 17.7955C560.765 17.5114 561.325 17.3693 561.967 17.3693C562.399 17.3693 562.801 17.4389 563.173 17.5781C563.548 17.7145 563.875 17.9205 564.153 18.196C564.434 18.4716 564.653 18.8182 564.809 19.2358C564.966 19.6506 565.044 20.1364 565.044 20.6932V21.1918H559.517V20.0668H563.335C563.335 19.8054 563.278 19.5739 563.164 19.3722C563.051 19.1705 562.893 19.0128 562.691 18.8991C562.493 18.7827 562.261 18.7244 561.997 18.7244C561.721 18.7244 561.477 18.7884 561.264 18.9162C561.054 19.0412 560.889 19.2102 560.77 19.4233C560.65 19.6335 560.589 19.8679 560.586 20.1264V21.196C560.586 21.5199 560.646 21.7997 560.765 22.0355C560.887 22.2713 561.059 22.4531 561.281 22.581C561.502 22.7088 561.765 22.7727 562.069 22.7727C562.271 22.7727 562.456 22.7443 562.623 22.6875C562.791 22.6307 562.934 22.5455 563.054 22.4318C563.173 22.3182 563.264 22.179 563.326 22.0142L565.005 22.125C564.92 22.5284 564.745 22.8807 564.481 23.1818C564.22 23.4801 563.882 23.7131 563.467 23.8807C563.055 24.0455 562.579 24.1278 562.039 24.1278ZM568.044 15.2727V24H566.228V15.2727H568.044ZM572.455 24.1278C571.793 24.1278 571.221 23.9872 570.738 23.706C570.258 23.4219 569.887 23.027 569.626 22.5213C569.364 22.0128 569.234 21.4233 569.234 20.7528C569.234 20.0767 569.364 19.4858 569.626 18.9801C569.887 18.4716 570.258 18.0767 570.738 17.7955C571.221 17.5114 571.793 17.3693 572.455 17.3693C573.117 17.3693 573.688 17.5114 574.168 17.7955C574.651 18.0767 575.023 18.4716 575.285 18.9801C575.546 19.4858 575.677 20.0767 575.677 20.7528C575.677 21.4233 575.546 22.0128 575.285 22.5213C575.023 23.027 574.651 23.4219 574.168 23.706C573.688 23.9872 573.117 24.1278 572.455 24.1278ZM572.464 22.7216C572.765 22.7216 573.016 22.6364 573.218 22.4659C573.42 22.2926 573.572 22.0568 573.674 21.7585C573.779 21.4602 573.832 21.1207 573.832 20.7401C573.832 20.3594 573.779 20.0199 573.674 19.7216C573.572 19.4233 573.42 19.1875 573.218 19.0142C573.016 18.8409 572.765 18.7543 572.464 18.7543C572.16 18.7543 571.904 18.8409 571.697 19.0142C571.492 19.1875 571.337 19.4233 571.232 19.7216C571.13 20.0199 571.079 20.3594 571.079 20.7401C571.079 21.1207 571.13 21.4602 571.232 21.7585C571.337 22.0568 571.492 22.2926 571.697 22.4659C571.904 22.6364 572.16 22.7216 572.464 22.7216ZM577.984 24L576.203 17.4545H578.04L579.054 21.8523H579.114L580.17 17.4545H581.973L583.047 21.8267H583.102L584.099 17.4545H585.932L584.155 24H582.233L581.108 19.8835H581.027L579.902 24H577.984ZM593.318 17.4545V18.3068H589.926V17.4545H593.318ZM590.914 15.8864H591.92V22.125C591.92 22.4091 591.961 22.6222 592.044 22.7642C592.129 22.9034 592.237 22.9972 592.368 23.0455C592.501 23.0909 592.642 23.1136 592.789 23.1136C592.9 23.1136 592.991 23.108 593.062 23.0966C593.133 23.0824 593.19 23.071 593.233 23.0625L593.437 23.9659C593.369 23.9915 593.274 24.017 593.152 24.0426C593.029 24.071 592.875 24.0852 592.687 24.0852C592.403 24.0852 592.125 24.0241 591.852 23.902C591.582 23.7798 591.358 23.5938 591.179 23.3438C591.002 23.0938 590.914 22.7784 590.914 22.3977V15.8864ZM595.977 20.0625V24H594.971V15.2727H595.977V18.4773H596.062C596.216 18.1392 596.446 17.8707 596.752 17.6719C597.062 17.4702 597.474 17.3693 597.988 17.3693C598.434 17.3693 598.825 17.4588 599.16 17.6378C599.495 17.8139 599.755 18.0852 599.94 18.4517C600.127 18.8153 600.221 19.2784 600.221 19.8409V24H599.216V19.9091C599.216 19.3892 599.081 18.9872 598.811 18.7031C598.544 18.4162 598.173 18.2727 597.699 18.2727C597.369 18.2727 597.074 18.3423 596.812 18.4815C596.554 18.6207 596.349 18.8239 596.199 19.0909C596.051 19.358 595.977 19.6818 595.977 20.0625ZM604.805 24.1364C604.175 24.1364 603.631 23.9972 603.173 23.7188C602.719 23.4375 602.368 23.0455 602.121 22.5426C601.876 22.0369 601.754 21.4489 601.754 20.7784C601.754 20.108 601.876 19.517 602.121 19.0057C602.368 18.4915 602.712 18.0909 603.152 17.804C603.595 17.5142 604.112 17.3693 604.703 17.3693C605.044 17.3693 605.381 17.4261 605.713 17.5398C606.045 17.6534 606.348 17.8381 606.621 18.0938C606.893 18.3466 607.111 18.6818 607.273 19.0994C607.435 19.517 607.516 20.0312 607.516 20.642V21.0682H602.47V20.1989H606.493C606.493 19.8295 606.419 19.5 606.271 19.2102C606.126 18.9205 605.919 18.6918 605.649 18.5241C605.382 18.3565 605.067 18.2727 604.703 18.2727C604.303 18.2727 603.956 18.3722 603.663 18.571C603.374 18.767 603.151 19.0227 602.994 19.3381C602.838 19.6534 602.76 19.9915 602.76 20.3523V20.9318C602.76 21.4261 602.845 21.8452 603.016 22.1889C603.189 22.5298 603.429 22.7898 603.736 22.9688C604.043 23.1449 604.399 23.233 604.805 23.233C605.07 23.233 605.308 23.196 605.521 23.1222C605.737 23.0455 605.923 22.9318 606.08 22.7812C606.236 22.6278 606.357 22.4375 606.442 22.2102L607.413 22.483C607.311 22.8125 607.139 23.1023 606.898 23.3523C606.656 23.5994 606.358 23.7926 606.003 23.9318C605.648 24.0682 605.249 24.1364 604.805 24.1364ZM490.392 39.1364C489.847 39.1364 489.365 38.9986 488.947 38.723C488.53 38.4446 488.203 38.0526 487.967 37.5469C487.732 37.0384 487.614 36.4375 487.614 35.7443C487.614 35.0568 487.732 34.4602 487.967 33.9545C488.203 33.4489 488.531 33.0582 488.952 32.7827C489.372 32.5071 489.858 32.3693 490.409 32.3693C490.835 32.3693 491.172 32.4403 491.419 32.5824C491.669 32.7216 491.859 32.8807 491.99 33.0597C492.124 33.2358 492.227 33.3807 492.301 33.4943H492.386V30.2727H493.392V39H492.42V37.9943H492.301C492.227 38.1136 492.122 38.2642 491.986 38.446C491.849 38.625 491.655 38.7855 491.402 38.9276C491.149 39.0668 490.813 39.1364 490.392 39.1364ZM490.528 38.233C490.932 38.233 491.273 38.1278 491.551 37.9176C491.83 37.7045 492.041 37.4105 492.186 37.0355C492.331 36.6577 492.403 36.2216 492.403 35.7273C492.403 35.2386 492.332 34.8111 492.19 34.4446C492.048 34.0753 491.838 33.7884 491.56 33.5838C491.281 33.3764 490.938 33.2727 490.528 33.2727C490.102 33.2727 489.747 33.3821 489.463 33.6009C489.182 33.8168 488.97 34.1108 488.828 34.483C488.689 34.8523 488.619 35.267 488.619 35.7273C488.619 36.1932 488.69 36.6165 488.832 36.9972C488.977 37.375 489.19 37.6761 489.472 37.9006C489.756 38.1222 490.108 38.233 490.528 38.233ZM495.374 39V32.4545H496.379V39H495.374ZM495.885 31.3636C495.689 31.3636 495.52 31.2969 495.378 31.1634C495.239 31.0298 495.169 30.8693 495.169 30.6818C495.169 30.4943 495.239 30.3338 495.378 30.2003C495.52 30.0668 495.689 30 495.885 30C496.081 30 496.249 30.0668 496.388 30.2003C496.53 30.3338 496.601 30.4943 496.601 30.6818C496.601 30.8693 496.53 31.0298 496.388 31.1634C496.249 31.2969 496.081 31.3636 495.885 31.3636ZM500.147 39.1534C499.733 39.1534 499.356 39.0753 499.018 38.919C498.68 38.7599 498.412 38.5312 498.213 38.233C498.014 37.9318 497.914 37.5682 497.914 37.142C497.914 36.767 497.988 36.4631 498.136 36.2301C498.284 35.9943 498.481 35.8097 498.728 35.6761C498.975 35.5426 499.248 35.4432 499.547 35.3778C499.848 35.3097 500.15 35.2557 500.454 35.2159C500.852 35.1648 501.174 35.1264 501.422 35.1009C501.672 35.0724 501.853 35.0256 501.967 34.9602C502.083 34.8949 502.142 34.7812 502.142 34.6193V34.5852C502.142 34.1648 502.027 33.8381 501.797 33.6051C501.569 33.3722 501.224 33.2557 500.761 33.2557C500.281 33.2557 499.904 33.3608 499.632 33.571C499.359 33.7812 499.167 34.0057 499.056 34.2443L498.102 33.9034C498.272 33.5057 498.5 33.196 498.784 32.9744C499.071 32.75 499.383 32.5937 499.721 32.5057C500.062 32.4148 500.397 32.3693 500.727 32.3693C500.937 32.3693 501.179 32.3949 501.451 32.446C501.727 32.4943 501.993 32.5952 502.248 32.7486C502.507 32.902 502.721 33.1335 502.892 33.4432C503.062 33.7528 503.147 34.1676 503.147 34.6875V39H502.142V38.1136H502.091C502.022 38.2557 501.909 38.4077 501.75 38.5696C501.591 38.7315 501.379 38.8693 501.115 38.983C500.85 39.0966 500.528 39.1534 500.147 39.1534ZM500.301 38.25C500.699 38.25 501.034 38.1719 501.306 38.0156C501.582 37.8594 501.789 37.6577 501.929 37.4105C502.071 37.1634 502.142 36.9034 502.142 36.6307V35.7102C502.099 35.7614 502.005 35.8082 501.86 35.8509C501.718 35.8906 501.554 35.9261 501.366 35.9574C501.181 35.9858 501.001 36.0114 500.825 36.0341C500.652 36.054 500.511 36.071 500.403 36.0852C500.142 36.1193 499.897 36.1747 499.67 36.2514C499.446 36.3253 499.264 36.4375 499.125 36.5881C498.988 36.7358 498.92 36.9375 498.92 37.1932C498.92 37.5426 499.049 37.8068 499.308 37.9858C499.569 38.1619 499.9 38.25 500.301 38.25ZM507.625 41.5909C507.139 41.5909 506.722 41.5284 506.372 41.4034C506.023 41.2812 505.732 41.1193 505.499 40.9176C505.268 40.7188 505.085 40.5057 504.949 40.2784L505.75 39.7159C505.841 39.8352 505.956 39.9716 506.095 40.125C506.234 40.2812 506.425 40.4162 506.666 40.5298C506.911 40.6463 507.23 40.7045 507.625 40.7045C508.153 40.7045 508.589 40.5767 508.933 40.321C509.277 40.0653 509.449 39.6648 509.449 39.1193V37.7898H509.364C509.29 37.9091 509.185 38.0568 509.048 38.233C508.915 38.4062 508.722 38.5611 508.469 38.6974C508.219 38.831 507.881 38.8977 507.455 38.8977C506.926 38.8977 506.452 38.7727 506.031 38.5227C505.614 38.2727 505.283 37.9091 505.038 37.4318C504.797 36.9545 504.676 36.375 504.676 35.6932C504.676 35.0227 504.794 34.4389 505.03 33.9418C505.266 33.4418 505.594 33.0554 506.014 32.7827C506.435 32.5071 506.92 32.3693 507.472 32.3693C507.898 32.3693 508.236 32.4403 508.486 32.5824C508.739 32.7216 508.932 32.8807 509.065 33.0597C509.202 33.2358 509.307 33.3807 509.381 33.4943H509.483V32.4545H510.455V39.1875C510.455 39.75 510.327 40.2074 510.071 40.5597C509.818 40.9148 509.477 41.1747 509.048 41.3395C508.622 41.5071 508.148 41.5909 507.625 41.5909ZM507.591 37.9943C507.994 37.9943 508.335 37.902 508.614 37.7173C508.892 37.5327 509.104 37.267 509.249 36.9205C509.393 36.5739 509.466 36.1591 509.466 35.6761C509.466 35.2045 509.395 34.7884 509.253 34.4276C509.111 34.0668 508.901 33.7841 508.622 33.5795C508.344 33.375 508 33.2727 507.591 33.2727C507.165 33.2727 506.81 33.3807 506.526 33.5966C506.244 33.8125 506.033 34.1023 505.891 34.4659C505.751 34.8295 505.682 35.233 505.682 35.6761C505.682 36.1307 505.753 36.5327 505.895 36.8821C506.04 37.2287 506.253 37.5014 506.534 37.7003C506.818 37.8963 507.17 37.9943 507.591 37.9943ZM514.955 39.1364C514.364 39.1364 513.845 38.9957 513.399 38.7145C512.956 38.4332 512.609 38.0398 512.359 37.5341C512.112 37.0284 511.989 36.4375 511.989 35.7614C511.989 35.0795 512.112 34.4844 512.359 33.9759C512.609 33.4673 512.956 33.0724 513.399 32.7912C513.845 32.5099 514.364 32.3693 514.955 32.3693C515.545 32.3693 516.063 32.5099 516.506 32.7912C516.952 33.0724 517.298 33.4673 517.545 33.9759C517.795 34.4844 517.92 35.0795 517.92 35.7614C517.92 36.4375 517.795 37.0284 517.545 37.5341C517.298 38.0398 516.952 38.4332 516.506 38.7145C516.063 38.9957 515.545 39.1364 514.955 39.1364ZM514.955 38.233C515.403 38.233 515.773 38.1179 516.062 37.8878C516.352 37.6577 516.567 37.3551 516.706 36.9801C516.845 36.6051 516.915 36.1989 516.915 35.7614C516.915 35.3239 516.845 34.9162 516.706 34.5384C516.567 34.1605 516.352 33.8551 516.062 33.6222C515.773 33.3892 515.403 33.2727 514.955 33.2727C514.506 33.2727 514.136 33.3892 513.847 33.6222C513.557 33.8551 513.342 34.1605 513.203 34.5384C513.064 34.9162 512.994 35.3239 512.994 35.7614C512.994 36.1989 513.064 36.6051 513.203 36.9801C513.342 37.3551 513.557 37.6577 513.847 37.8878C514.136 38.1179 514.506 38.233 514.955 38.233ZM520.461 35.0625V39H519.456V32.4545H520.427V33.4773H520.512C520.666 33.1449 520.899 32.8778 521.211 32.6761C521.524 32.4716 521.927 32.3693 522.422 32.3693C522.865 32.3693 523.252 32.4602 523.585 32.642C523.917 32.821 524.176 33.0938 524.36 33.4602C524.545 33.8239 524.637 34.2841 524.637 34.8409V39H523.632V34.9091C523.632 34.3949 523.498 33.9943 523.231 33.7074C522.964 33.4176 522.598 33.2727 522.132 33.2727C521.811 33.2727 521.524 33.3423 521.271 33.4815C521.021 33.6207 520.824 33.8239 520.679 34.0909C520.534 34.358 520.461 34.6818 520.461 35.0625ZM528.401 39.1534C527.987 39.1534 527.61 39.0753 527.272 38.919C526.934 38.7599 526.665 38.5312 526.467 38.233C526.268 37.9318 526.168 37.5682 526.168 37.142C526.168 36.767 526.242 36.4631 526.39 36.2301C526.538 35.9943 526.735 35.8097 526.982 35.6761C527.229 35.5426 527.502 35.4432 527.8 35.3778C528.102 35.3097 528.404 35.2557 528.708 35.2159C529.106 35.1648 529.428 35.1264 529.675 35.1009C529.925 35.0724 530.107 35.0256 530.221 34.9602C530.337 34.8949 530.396 34.7812 530.396 34.6193V34.5852C530.396 34.1648 530.281 33.8381 530.05 33.6051C529.823 33.3722 529.478 33.2557 529.015 33.2557C528.535 33.2557 528.158 33.3608 527.886 33.571C527.613 33.7812 527.421 34.0057 527.31 34.2443L526.356 33.9034C526.526 33.5057 526.754 33.196 527.038 32.9744C527.325 32.75 527.637 32.5937 527.975 32.5057C528.316 32.4148 528.651 32.3693 528.981 32.3693C529.191 32.3693 529.433 32.3949 529.705 32.446C529.981 32.4943 530.246 32.5952 530.502 32.7486C530.761 32.902 530.975 33.1335 531.146 33.4432C531.316 33.7528 531.401 34.1676 531.401 34.6875V39H530.396V38.1136H530.344C530.276 38.2557 530.163 38.4077 530.004 38.5696C529.844 38.7315 529.633 38.8693 529.369 38.983C529.104 39.0966 528.782 39.1534 528.401 39.1534ZM528.555 38.25C528.952 38.25 529.288 38.1719 529.56 38.0156C529.836 37.8594 530.043 37.6577 530.183 37.4105C530.325 37.1634 530.396 36.9034 530.396 36.6307V35.7102C530.353 35.7614 530.259 35.8082 530.114 35.8509C529.972 35.8906 529.808 35.9261 529.62 35.9574C529.435 35.9858 529.255 36.0114 529.079 36.0341C528.906 36.054 528.765 36.071 528.657 36.0852C528.396 36.1193 528.151 36.1747 527.924 36.2514C527.7 36.3253 527.518 36.4375 527.379 36.5881C527.242 36.7358 527.174 36.9375 527.174 37.1932C527.174 37.5426 527.303 37.8068 527.562 37.9858C527.823 38.1619 528.154 38.25 528.555 38.25ZM534.243 30.2727V39H533.237V30.2727H534.243Z" fill="#505050"/>
<path d="M449.646 27.6464C449.451 27.8417 449.451 28.1583 449.646 28.3536L452.828 31.5355C453.024 31.7308 453.34 31.7308 453.536 31.5355C453.731 31.3403 453.731 31.0237 453.536 30.8284L450.707 28L453.536 25.1716C453.731 24.9763 453.731 24.6597 453.536 24.4645C453.34 24.2692 453.024 24.2692 452.828 24.4645L449.646 27.6464ZM481 27.5L450 27.5L450 28.5L481 28.5L481 27.5Z" fill="black" fill-opacity="0.3"/>
<path d="M297.646 80.6464C297.451 80.8417 297.451 81.1583 297.646 81.3535L300.828 84.5355C301.024 84.7308 301.34 84.7308 301.536 84.5355C301.731 84.3403 301.731 84.0237 301.536 83.8284L298.707 81L301.536 78.1716C301.731 77.9763 301.731 77.6597 301.536 77.4645C301.34 77.2692 301.024 77.2692 300.828 77.4645L297.646 80.6464ZM481 80.5L298 80.5L298 81.5L481 81.5L481 80.5Z" fill="black" fill-opacity="0.3"/>
<path d="M258.646 132.646C258.451 132.842 258.451 133.158 258.646 133.354L261.828 136.536C262.024 136.731 262.34 136.731 262.536 136.536C262.731 136.34 262.731 136.024 262.536 135.828L259.707 133L262.536 130.172C262.731 129.976 262.731 129.66 262.536 129.464C262.34 129.269 262.024 129.269 261.828 129.464L258.646 132.646ZM481 132.5L259 132.5L259 133.5L481 133.5L481 132.5Z" fill="black" fill-opacity="0.3"/>
<path d="M3.78249 84V70.9091H5.36772V76.7386H12.3478V70.9091H13.9331V84H12.3478V78.1449H5.36772V84H3.78249ZM16.9022 84V74.1818H18.4107V84H16.9022ZM17.6692 72.5455C17.3752 72.5455 17.1216 72.4453 16.9086 72.245C16.6998 72.0447 16.5953 71.804 16.5953 71.5227C16.5953 71.2415 16.6998 71.0007 16.9086 70.8004C17.1216 70.6001 17.3752 70.5 17.6692 70.5C17.9632 70.5 18.2147 70.6001 18.4235 70.8004C18.6365 71.0007 18.7431 71.2415 18.7431 71.5227C18.7431 71.804 18.6365 72.0447 18.4235 72.245C18.2147 72.4453 17.9632 72.5455 17.6692 72.5455ZM21.3782 84V70.9091H25.8015C26.8285 70.9091 27.668 71.0945 28.32 71.4652C28.9762 71.8317 29.462 72.3281 29.7773 72.9545C30.0927 73.581 30.2504 74.2798 30.2504 75.0511C30.2504 75.8224 30.0927 76.5234 29.7773 77.1541C29.4663 77.7848 28.9847 78.2876 28.3327 78.6626C27.6808 79.0334 26.8455 79.2188 25.8271 79.2188H22.6566V77.8125H25.7759C26.479 77.8125 27.0437 77.6911 27.4698 77.4482C27.896 77.2053 28.2049 76.8771 28.3967 76.4638C28.5927 76.0462 28.6907 75.5753 28.6907 75.0511C28.6907 74.527 28.5927 74.0582 28.3967 73.6449C28.2049 73.2315 27.8938 72.9077 27.4634 72.6733C27.033 72.4347 26.462 72.3153 25.7504 72.3153H22.9634V84H21.3782ZM32.804 84V70.9091H37.2273C38.2543 70.9091 39.0938 71.0945 39.7457 71.4652C40.402 71.8317 40.8878 72.3281 41.2031 72.9545C41.5185 73.581 41.6761 74.2798 41.6761 75.0511C41.6761 75.8224 41.5185 76.5234 41.2031 77.1541C40.892 77.7848 40.4105 78.2876 39.7585 78.6626C39.1065 79.0334 38.2713 79.2188 37.2528 79.2188H34.0824V77.8125H37.2017C37.9048 77.8125 38.4695 77.6911 38.8956 77.4482C39.3217 77.2053 39.6307 76.8771 39.8224 76.4638C40.0185 76.0462 40.1165 75.5753 40.1165 75.0511C40.1165 74.527 40.0185 74.0582 39.8224 73.6449C39.6307 73.2315 39.3196 72.9077 38.8892 72.6733C38.4588 72.4347 37.8878 72.3153 37.1761 72.3153H34.3892V84H32.804ZM55.2752 77.4545C55.2752 78.8352 55.0259 80.0284 54.5273 81.0341C54.0288 82.0398 53.3448 82.8153 52.4755 83.3608C51.6062 83.9062 50.6133 84.179 49.4968 84.179C48.3803 84.179 47.3874 83.9062 46.5181 83.3608C45.6488 82.8153 44.9648 82.0398 44.4663 81.0341C43.9677 80.0284 43.7184 78.8352 43.7184 77.4545C43.7184 76.0739 43.9677 74.8807 44.4663 73.875C44.9648 72.8693 45.6488 72.0938 46.5181 71.5483C47.3874 71.0028 48.3803 70.7301 49.4968 70.7301C50.6133 70.7301 51.6062 71.0028 52.4755 71.5483C53.3448 72.0938 54.0288 72.8693 54.5273 73.875C55.0259 74.8807 55.2752 76.0739 55.2752 77.4545ZM53.7411 77.4545C53.7411 76.321 53.5515 75.3643 53.1722 74.5845C52.7972 73.8047 52.288 73.2145 51.6445 72.8139C51.0053 72.4134 50.2894 72.2131 49.4968 72.2131C48.7042 72.2131 47.9862 72.4134 47.3427 72.8139C46.7035 73.2145 46.1942 73.8047 45.815 74.5845C45.44 75.3643 45.2525 76.321 45.2525 77.4545C45.2525 78.5881 45.44 79.5447 45.815 80.3246C46.1942 81.1044 46.7035 81.6946 47.3427 82.0952C47.9862 82.4957 48.7042 82.696 49.4968 82.696C50.2894 82.696 51.0053 82.4957 51.6445 82.0952C52.288 81.6946 52.7972 81.1044 53.1722 80.3246C53.5515 79.5447 53.7411 78.5881 53.7411 77.4545ZM63.0032 70.9091H64.8952L69.3441 81.7756H69.4975L73.9464 70.9091H75.8384V84H74.3555V74.054H74.2276L70.1367 84H68.7049L64.614 74.054H64.4862V84H63.0032V70.9091ZM81.7015 84.2301C81.0794 84.2301 80.5147 84.1129 80.0076 83.8786C79.5005 83.6399 79.0978 83.2969 78.7995 82.8494C78.5012 82.3977 78.3521 81.8523 78.3521 81.2131C78.3521 80.6506 78.4629 80.1946 78.6845 79.8452C78.9061 79.4915 79.2022 79.2145 79.573 79.0142C79.9437 78.8139 80.3528 78.6648 80.8002 78.5668C81.252 78.4645 81.7058 78.3835 82.1618 78.3239C82.7583 78.2472 83.242 78.1896 83.6127 78.1513C83.9877 78.1087 84.2605 78.0384 84.4309 77.9403C84.6056 77.8423 84.693 77.6719 84.693 77.429V77.3778C84.693 76.7472 84.5204 76.2571 84.1752 75.9077C83.8343 75.5582 83.3166 75.3835 82.622 75.3835C81.9018 75.3835 81.3372 75.5412 80.9281 75.8565C80.519 76.1719 80.2314 76.5085 80.0652 76.8665L78.6333 76.3551C78.889 75.7585 79.2299 75.294 79.6561 74.9616C80.0865 74.625 80.5552 74.3906 81.0623 74.2585C81.5737 74.1222 82.0765 74.054 82.5708 74.054C82.8862 74.054 83.2484 74.0923 83.6575 74.169C84.0708 74.2415 84.4693 74.3928 84.8528 74.6229C85.2406 74.853 85.5623 75.2003 85.818 75.6648C86.0737 76.1293 86.2015 76.7514 86.2015 77.5312V84H84.693V82.6705H84.6163C84.514 82.8835 84.3436 83.1115 84.1049 83.3544C83.8663 83.5973 83.5488 83.804 83.1525 83.9744C82.7562 84.1449 82.2726 84.2301 81.7015 84.2301ZM81.9316 82.875C82.5282 82.875 83.0311 82.7578 83.4402 82.5234C83.8535 82.2891 84.1646 81.9865 84.3734 81.6158C84.5865 81.245 84.693 80.8551 84.693 80.446V79.0653C84.6291 79.142 84.4885 79.2124 84.2711 79.2763C84.0581 79.3359 83.8109 79.3892 83.5297 79.4361C83.2527 79.4787 82.9821 79.517 82.7179 79.5511C82.4579 79.581 82.247 79.6065 82.0851 79.6278C81.693 79.679 81.3265 79.7621 80.9856 79.8771C80.649 79.9879 80.3762 80.1562 80.1674 80.3821C79.9629 80.6037 79.8606 80.9062 79.8606 81.2898C79.8606 81.8139 80.0545 82.2102 80.4423 82.4787C80.8343 82.7429 81.3308 82.875 81.9316 82.875ZM93.2248 74.1818V75.4602H88.1367V74.1818H93.2248ZM89.6197 71.8295H91.1282V81.1875C91.1282 81.6136 91.19 81.9332 91.3136 82.1463C91.4414 82.3551 91.6033 82.4957 91.7994 82.5682C91.9996 82.6364 92.2106 82.6705 92.4322 82.6705C92.5984 82.6705 92.7347 82.6619 92.8413 82.6449C92.9478 82.6236 93.033 82.6065 93.0969 82.5938L93.4038 83.9489C93.3015 83.9872 93.1587 84.0256 92.9755 84.0639C92.7923 84.1065 92.56 84.1278 92.2788 84.1278C91.8526 84.1278 91.435 84.0362 91.0259 83.853C90.6211 83.6697 90.2844 83.3906 90.016 83.0156C89.7518 82.6406 89.6197 82.1676 89.6197 81.5966V71.8295ZM95.494 84V74.1818H96.9513V75.6648H97.0536C97.2326 75.179 97.5565 74.7848 98.0252 74.4822C98.494 74.1797 99.0224 74.0284 99.6104 74.0284C99.7212 74.0284 99.8597 74.0305 100.026 74.0348C100.192 74.0391 100.318 74.0455 100.403 74.054V75.5881C100.352 75.5753 100.235 75.5561 100.051 75.5305C99.8725 75.5007 99.6829 75.4858 99.4826 75.4858C99.0053 75.4858 98.5792 75.5859 98.2042 75.7862C97.8335 75.9822 97.5394 76.255 97.3221 76.6044C97.109 76.9496 97.0025 77.3437 97.0025 77.7869V84H95.494ZM102.191 84V74.1818H103.7V84H102.191ZM102.958 72.5455C102.664 72.5455 102.411 72.4453 102.198 72.245C101.989 72.0447 101.884 71.804 101.884 71.5227C101.884 71.2415 101.989 71.0007 102.198 70.8004C102.411 70.6001 102.664 70.5 102.958 70.5C103.252 70.5 103.504 70.6001 103.713 70.8004C103.926 71.0007 104.032 71.2415 104.032 71.5227C104.032 71.804 103.926 72.0447 103.713 72.245C103.504 72.4453 103.252 72.5455 102.958 72.5455ZM107.588 74.1818L109.94 78.196L112.292 74.1818H114.031L110.86 79.0909L114.031 84H112.292L109.94 80.1903L107.588 84H105.849L108.968 79.0909L105.849 74.1818H107.588Z" fill="#505050" fill-opacity="0.8"/>
<path d="M197.69 78.7836V75.2285C204.097 75.1915 208.429 74.0435 210.688 71.7845C212.984 69.4885 214.132 65.1557 214.132 58.7862V29.6788C214.132 25.6422 214.54 22.1427 215.355 19.1801C216.169 16.1805 217.41 13.6993 219.076 11.7366C220.743 9.77389 222.835 8.31112 225.353 7.34828C227.908 6.38543 230.908 5.90401 234.352 5.90401V9.45912C230.501 9.42208 227.334 10.1072 224.853 11.5144C222.409 12.9216 220.595 15.1251 219.41 18.1247C218.262 21.0873 217.688 24.9386 217.688 29.6788V58.7862C217.688 62.4524 217.336 65.5631 216.632 68.1183C215.929 70.6365 214.799 72.6918 213.244 74.2842C211.688 75.8396 209.633 76.9876 207.078 77.7282C204.523 78.4318 201.393 78.7836 197.69 78.7836ZM234.352 148.108C230.908 148.108 227.908 147.627 225.353 146.664C222.835 145.701 220.743 144.238 219.076 142.276C217.41 140.313 216.169 137.832 215.355 134.832C214.54 131.869 214.132 128.37 214.132 124.333V95.226C214.132 88.8564 212.984 84.5422 210.688 82.2832C208.429 79.9872 204.097 78.8207 197.69 78.7836V75.2285C201.393 75.2656 204.523 75.6544 207.078 76.3951C209.633 77.0987 211.688 78.2282 213.244 79.7835C214.799 81.3389 215.929 83.3942 216.632 85.9494C217.336 88.4676 217.688 91.5598 217.688 95.226V124.333C217.688 129.074 218.262 132.925 219.41 135.888C220.595 138.887 222.409 141.072 224.853 142.442C227.334 143.849 230.501 144.553 234.352 144.553V148.108ZM197.69 78.7836V75.2285H209.689V78.7836H197.69Z" fill="#555555" fill-opacity="0.7"/>
</g>
<defs>
<clipPath id="clip0_144_800">
<rect width="630" height="157" fill="white"/>
</clipPath>
</defs>
</svg>
