<svg width="359" height="125" viewBox="0 0 359 125" fill="none" xmlns="http://www.w3.org/2000/svg">
<rect width="359" height="125" fill="white"/>
<path d="M110.497 17.5455L111.498 19.4524L112.525 17.5455H114.076L112.496 20.2727L114.119 23H112.574L111.498 21.1143L110.44 23H108.877L110.497 20.2727L108.934 17.5455H110.497Z" fill="#BE3B3B"/>
<path d="M115.707 24.3523L115.701 23.6903H115.815L117.86 21.6364H118.499L116.479 23.6591L116.434 23.6676L115.707 24.3523ZM115.246 26V20.1818H115.752V26H115.246ZM117.965 26L116.193 23.7585L116.556 23.4091L118.613 26H117.965Z" fill="#4C4C4C"/>
<rect x="89.25" y="42.25" width="11.5" height="11.5" fill="#F2D8D8" stroke="#BE3B3B" stroke-width="0.5"/>
<rect x="100.75" y="42.25" width="11.5" height="11.5" fill="#DF9D9D" stroke="#BE3B3B" stroke-width="0.5"/>
<rect x="112.25" y="42.25" width="11.5" height="11.5" fill="#CB6262" stroke="#BE3B3B" stroke-width="0.5"/>
<rect x="89.25" y="53.75" width="11.5" height="11.5" fill="#CB6262" stroke="#BE3B3B" stroke-width="0.5"/>
<rect x="100.75" y="53.75" width="11.5" height="11.5" fill="#CB6262" stroke="#BE3B3B" stroke-width="0.5"/>
<rect x="112.25" y="53.75" width="11.5" height="11.5" fill="#F2D8D8" stroke="#BE3B3B" stroke-width="0.5"/>
<rect x="89.25" y="65.25" width="11.5" height="11.5" fill="#F8EBEB" stroke="#BE3B3B" stroke-width="0.5"/>
<rect x="100.75" y="65.25" width="11.5" height="11.5" fill="#F2D8D8" stroke="#BE3B3B" stroke-width="0.5"/>
<rect x="112.25" y="65.25" width="11.5" height="11.5" fill="#DF9D9D" stroke="#BE3B3B" stroke-width="0.5"/>
<rect x="89.25" y="76.75" width="11.5" height="11.5" fill="#DF9D9D" stroke="#BE3B3B" stroke-width="0.5"/>
<rect x="100.75" y="76.75" width="11.5" height="11.5" fill="#DF9D9D" stroke="#BE3B3B" stroke-width="0.5"/>
<rect x="112.25" y="76.75" width="11.5" height="11.5" fill="#CB6262" stroke="#BE3B3B" stroke-width="0.5"/>
<rect x="92.25" y="45.25" width="11.5" height="11.5" fill="#F8EBEB" stroke="#BE3B3B" stroke-width="0.5"/>
<rect x="103.75" y="45.25" width="11.5" height="11.5" fill="#DF9D9D" stroke="#BE3B3B" stroke-width="0.5"/>
<rect x="115.25" y="45.25" width="11.5" height="11.5" fill="#F8EBEB" stroke="#BE3B3B" stroke-width="0.5"/>
<rect x="92.25" y="56.75" width="11.5" height="11.5" fill="#CB6262" stroke="#BE3B3B" stroke-width="0.5"/>
<rect x="103.75" y="56.75" width="11.5" height="11.5" fill="#CB6262" stroke="#BE3B3B" stroke-width="0.5"/>
<rect x="115.25" y="56.75" width="11.5" height="11.5" fill="#F2D8D8" stroke="#BE3B3B" stroke-width="0.5"/>
<rect x="92.25" y="68.25" width="11.5" height="11.5" fill="#DF9D9D" stroke="#BE3B3B" stroke-width="0.5"/>
<rect x="103.75" y="68.25" width="11.5" height="11.5" fill="#F2D8D8" stroke="#BE3B3B" stroke-width="0.5"/>
<rect x="115.25" y="68.25" width="11.5" height="11.5" fill="#DF9D9D" stroke="#BE3B3B" stroke-width="0.5"/>
<rect x="92.25" y="79.75" width="11.5" height="11.5" fill="#F8EBEB" stroke="#BE3B3B" stroke-width="0.5"/>
<rect x="103.75" y="79.75" width="11.5" height="11.5" fill="#DF9D9D" stroke="#BE3B3B" stroke-width="0.5"/>
<rect x="115.25" y="79.75" width="11.5" height="11.5" fill="#CB6262" stroke="#BE3B3B" stroke-width="0.5"/>
<rect x="95.25" y="48.25" width="11.5" height="11.5" fill="#F2D8D8" stroke="#BE3B3B" stroke-width="0.5"/>
<rect x="106.75" y="48.25" width="11.5" height="11.5" fill="#CB6262" stroke="#BE3B3B" stroke-width="0.5"/>
<rect x="118.25" y="48.25" width="11.5" height="11.5" fill="#CB6262" stroke="#BE3B3B" stroke-width="0.5"/>
<rect x="95.25" y="59.75" width="11.5" height="11.5" fill="#F8EBEB" stroke="#BE3B3B" stroke-width="0.5"/>
<rect x="106.75" y="59.75" width="11.5" height="11.5" fill="#CB6262" stroke="#BE3B3B" stroke-width="0.5"/>
<rect x="118.25" y="59.75" width="11.5" height="11.5" fill="#F2D8D8" stroke="#BE3B3B" stroke-width="0.5"/>
<rect x="95.25" y="71.25" width="11.5" height="11.5" fill="#CB6262" stroke="#BE3B3B" stroke-width="0.5"/>
<rect x="106.75" y="71.25" width="11.5" height="11.5" fill="#F2D8D8" stroke="#BE3B3B" stroke-width="0.5"/>
<rect x="118.25" y="71.25" width="11.5" height="11.5" fill="#DF9D9D" stroke="#BE3B3B" stroke-width="0.5"/>
<rect x="95.25" y="82.75" width="11.5" height="11.5" fill="#F8EBEB" stroke="#BE3B3B" stroke-width="0.5"/>
<rect x="106.75" y="82.75" width="11.5" height="11.5" fill="#DF9D9D" stroke="#BE3B3B" stroke-width="0.5"/>
<rect x="118.25" y="82.75" width="11.5" height="11.5" fill="#CB6262" stroke="#BE3B3B" stroke-width="0.5"/>
<rect x="98.25" y="51.25" width="11.5" height="11.5" fill="#F2D8D8" stroke="#BE3B3B" stroke-width="0.5"/>
<rect x="109.75" y="51.25" width="11.5" height="11.5" fill="#DF9D9D" stroke="#BE3B3B" stroke-width="0.5"/>
<rect x="121.25" y="51.25" width="11.5" height="11.5" fill="#CB6262" stroke="#BE3B3B" stroke-width="0.5"/>
<rect x="98.25" y="62.75" width="11.5" height="11.5" fill="#CB6262" stroke="#BE3B3B" stroke-width="0.5"/>
<rect x="109.75" y="62.75" width="11.5" height="11.5" fill="#CB6262" stroke="#BE3B3B" stroke-width="0.5"/>
<rect x="121.25" y="62.75" width="11.5" height="11.5" fill="#F2D8D8" stroke="#BE3B3B" stroke-width="0.5"/>
<rect x="98.25" y="74.25" width="11.5" height="11.5" fill="#DF9D9D" stroke="#BE3B3B" stroke-width="0.5"/>
<rect x="109.75" y="74.25" width="11.5" height="11.5" fill="#F2D8D8" stroke="#BE3B3B" stroke-width="0.5"/>
<rect x="121.25" y="74.25" width="11.5" height="11.5" fill="#DF9D9D" stroke="#BE3B3B" stroke-width="0.5"/>
<rect x="98.25" y="85.75" width="11.5" height="11.5" fill="#F8EBEB" stroke="#BE3B3B" stroke-width="0.5"/>
<rect x="109.75" y="85.75" width="11.5" height="11.5" fill="#DF9D9D" stroke="#BE3B3B" stroke-width="0.5"/>
<rect x="121.25" y="85.75" width="11.5" height="11.5" fill="#CB6262" stroke="#BE3B3B" stroke-width="0.5"/>
<path d="M116.323 110H114.232L115.198 104.182H117.249C117.834 104.182 118.32 104.301 118.706 104.54C119.095 104.778 119.368 105.12 119.527 105.565C119.686 106.009 119.715 106.538 119.613 107.153C119.514 107.748 119.318 108.259 119.025 108.685C118.731 109.109 118.355 109.435 117.897 109.662C117.438 109.887 116.914 110 116.323 110ZM115.638 108.946H116.394C116.759 108.946 117.079 108.878 117.354 108.741C117.631 108.605 117.857 108.395 118.033 108.111C118.211 107.827 118.337 107.463 118.411 107.02C118.481 106.599 118.476 106.259 118.397 105.997C118.319 105.734 118.168 105.542 117.945 105.42C117.721 105.297 117.428 105.236 117.064 105.236H116.255L115.638 108.946Z" fill="#505050"/>
<path d="M139.373 75L140.338 69.1818H141.569L140.773 73.9858H143.267L143.097 75H139.373Z" fill="#505050"/>
<path d="M133.998 45L134.963 39.1818H137.293C137.721 39.1818 138.068 39.2453 138.333 39.3722C138.6 39.4991 138.786 39.6752 138.892 39.9006C138.998 40.1241 139.027 40.3816 138.978 40.6733C138.938 40.9006 138.857 41.0994 138.736 41.2699C138.617 41.4403 138.469 41.5805 138.293 41.6903C138.117 41.8002 137.926 41.8778 137.719 41.9233L137.708 41.9801C137.927 41.9896 138.125 42.0521 138.301 42.1676C138.478 42.2812 138.609 42.4422 138.696 42.6506C138.783 42.8589 138.803 43.1061 138.756 43.392C138.705 43.7008 138.583 43.9763 138.39 44.2188C138.196 44.4593 137.939 44.6496 137.617 44.7898C137.297 44.9299 136.919 45 136.483 45H133.998ZM135.398 43.9943H136.401C136.742 43.9943 137.002 43.928 137.182 43.7955C137.362 43.6629 137.47 43.4877 137.506 43.2699C137.531 43.1089 137.515 42.9669 137.458 42.8438C137.403 42.7206 137.309 42.6241 137.176 42.554C137.046 42.4839 136.88 42.4489 136.679 42.4489H135.651L135.398 43.9943ZM135.793 41.6165H136.705C136.872 41.6165 137.026 41.5871 137.168 41.5284C137.312 41.4678 137.43 41.3826 137.523 41.2727C137.618 41.161 137.677 41.0294 137.702 40.8778C137.736 40.6657 137.689 40.4962 137.56 40.3693C137.433 40.2405 137.234 40.1761 136.963 40.1761H136.032L135.793 41.6165Z" fill="#505050"/>
<path d="M135 51L133.557 53.5L136.443 53.5L135 51ZM135 97L136.443 94.5L133.557 94.5L135 97ZM134.75 53.25L134.75 94.75L135.25 94.75L135.25 53.25L134.75 53.25Z" fill="#505050"/>
<path d="M128 43L128.747 45.7884L130.788 43.7471L128 43ZM134 49L133.253 46.2116L131.212 48.2529L134 49ZM129.414 44.7678L132.232 47.5858L132.586 47.2322L129.768 44.4142L129.414 44.7678Z" fill="#505050"/>
<path d="M98 100L100.5 101.443L100.5 98.5566L98 100ZM133 100L130.5 98.5566L130.5 101.443L133 100ZM100.25 100.25L130.75 100.25L130.75 99.75L100.25 99.75L100.25 100.25Z" fill="#505050"/>
<path d="M97.8283 3.27273V12H95.9831V3.27273H97.8283ZM101.128 8.21591V12H99.3123V5.45455H101.042V6.60938H101.119C101.264 6.22869 101.507 5.92756 101.848 5.70597C102.189 5.48153 102.602 5.36932 103.088 5.36932C103.542 5.36932 103.939 5.46875 104.277 5.66761C104.615 5.86648 104.878 6.15057 105.065 6.51989C105.253 6.88636 105.346 7.32386 105.346 7.83239V12H103.531V8.15625C103.534 7.75568 103.432 7.44318 103.224 7.21875C103.017 6.99148 102.731 6.87784 102.368 6.87784C102.123 6.87784 101.907 6.9304 101.72 7.03551C101.535 7.14062 101.39 7.29403 101.285 7.49574C101.183 7.6946 101.131 7.93466 101.128 8.21591ZM106.777 14.4545V5.45455H108.567V6.55398H108.648C108.727 6.37784 108.843 6.19886 108.993 6.01705C109.146 5.83239 109.345 5.67898 109.59 5.55682C109.837 5.43182 110.144 5.36932 110.51 5.36932C110.987 5.36932 111.428 5.49432 111.831 5.74432C112.235 5.99148 112.557 6.36506 112.798 6.86506C113.04 7.36222 113.161 7.9858 113.161 8.7358C113.161 9.46591 113.043 10.0824 112.807 10.5852C112.574 11.0852 112.256 11.4645 111.852 11.723C111.452 11.9787 111.003 12.1065 110.506 12.1065C110.154 12.1065 109.854 12.0483 109.607 11.9318C109.362 11.8153 109.162 11.669 109.006 11.4929C108.85 11.3139 108.73 11.1335 108.648 10.9517H108.593V14.4545H106.777ZM108.554 8.72727C108.554 9.11648 108.608 9.45597 108.716 9.74574C108.824 10.0355 108.98 10.2614 109.185 10.4233C109.389 10.5824 109.638 10.6619 109.931 10.6619C110.226 10.6619 110.476 10.581 110.681 10.419C110.885 10.2543 111.04 10.027 111.145 9.73722C111.253 9.4446 111.307 9.10795 111.307 8.72727C111.307 8.34943 111.254 8.01705 111.149 7.73011C111.044 7.44318 110.889 7.21875 110.685 7.05682C110.48 6.89489 110.229 6.81392 109.931 6.81392C109.635 6.81392 109.385 6.89205 109.181 7.0483C108.979 7.20455 108.824 7.42614 108.716 7.71307C108.608 8 108.554 8.33807 108.554 8.72727ZM118.568 9.21307V5.45455H120.384V12H118.641V10.8111H118.573C118.425 11.1946 118.179 11.5028 117.835 11.7358C117.494 11.9687 117.078 12.0852 116.587 12.0852C116.149 12.0852 115.764 11.9858 115.432 11.7869C115.1 11.5881 114.84 11.3054 114.652 10.9389C114.468 10.5724 114.374 10.1335 114.371 9.62216V5.45455H116.186V9.2983C116.189 9.68466 116.293 9.99006 116.497 10.2145C116.702 10.4389 116.976 10.5511 117.32 10.5511C117.539 10.5511 117.743 10.5014 117.933 10.402C118.124 10.2997 118.277 10.1491 118.394 9.95028C118.513 9.75142 118.571 9.50568 118.568 9.21307ZM125.317 5.45455V6.81818H121.376V5.45455H125.317ZM122.27 3.88636H124.086V9.98864C124.086 10.1562 124.111 10.2869 124.162 10.3807C124.214 10.4716 124.285 10.5355 124.376 10.5724C124.469 10.6094 124.577 10.6278 124.699 10.6278C124.785 10.6278 124.87 10.6207 124.955 10.6065C125.04 10.5895 125.106 10.5767 125.151 10.5682L125.437 11.919C125.346 11.9474 125.218 11.9801 125.053 12.017C124.888 12.0568 124.688 12.081 124.452 12.0895C124.015 12.1065 123.631 12.0483 123.302 11.9148C122.975 11.7812 122.721 11.5739 122.539 11.2926C122.357 11.0114 122.268 10.6562 122.27 10.2273V3.88636Z" fill="#505050"/>
<path d="M230.108 25.0455C229.916 25.0455 229.736 25.0301 229.568 24.9993C229.402 24.9709 229.265 24.9342 229.156 24.8892L229.497 23.7599C229.675 23.8144 229.835 23.844 229.977 23.8487C230.121 23.8535 230.245 23.8203 230.349 23.7493C230.456 23.6783 230.542 23.5575 230.609 23.3871L230.697 23.1562L228.741 17.5455H230.332L231.461 21.5511H231.518L232.658 17.5455H234.259L232.139 23.5895C232.037 23.883 231.899 24.1387 231.724 24.3565C231.551 24.5767 231.332 24.746 231.067 24.8643C230.802 24.9851 230.482 25.0455 230.108 25.0455Z" fill="#743BBE"/>
<path d="M235.707 24.3523L235.701 23.6903H235.815L237.86 21.6364H238.499L236.479 23.6591L236.434 23.6676L235.707 24.3523ZM235.246 26V20.1818H235.752V26H235.246ZM237.965 26L236.193 23.7585L236.556 23.4091L238.613 26H237.965Z" fill="#4C4C4C"/>
<rect x="246.75" y="91.25" width="11.5" height="11.5" transform="rotate(-180 246.75 91.25)" fill="#9062CB" stroke="#743BBE" stroke-width="0.5"/>
<rect x="235.25" y="91.25" width="11.5" height="11.5" transform="rotate(-180 235.25 91.25)" fill="#B99DDF" stroke="#743BBE" stroke-width="0.5"/>
<rect x="223.75" y="91.25" width="11.5" height="11.5" transform="rotate(-180 223.75 91.25)" fill="#F1EBF8" stroke="#743BBE" stroke-width="0.5"/>
<rect x="246.75" y="79.75" width="11.5" height="11.5" transform="rotate(-180 246.75 79.75)" fill="#F1EBF8" stroke="#743BBE" stroke-width="0.5"/>
<rect x="235.25" y="79.75" width="11.5" height="11.5" transform="rotate(-180 235.25 79.75)" fill="#F1EBF8" stroke="#743BBE" stroke-width="0.5"/>
<rect x="223.75" y="79.75" width="11.5" height="11.5" transform="rotate(-180 223.75 79.75)" fill="#9062CB" stroke="#743BBE" stroke-width="0.5"/>
<rect x="246.75" y="68.25" width="11.5" height="11.5" transform="rotate(-180 246.75 68.25)" fill="#B99DDF" stroke="#743BBE" stroke-width="0.5"/>
<rect x="235.25" y="68.25" width="11.5" height="11.5" transform="rotate(-180 235.25 68.25)" fill="#9062CB" stroke="#743BBE" stroke-width="0.5"/>
<rect x="223.75" y="68.25" width="11.5" height="11.5" transform="rotate(-180 223.75 68.25)" fill="#B99DDF" stroke="#743BBE" stroke-width="0.5"/>
<rect x="246.75" y="56.75" width="11.5" height="11.5" transform="rotate(-180 246.75 56.75)" fill="#D5C4EB" stroke="#743BBE" stroke-width="0.5"/>
<rect x="235.25" y="56.75" width="11.5" height="11.5" transform="rotate(-180 235.25 56.75)" fill="#B99DDF" stroke="#743BBE" stroke-width="0.5"/>
<rect x="223.75" y="56.75" width="11.5" height="11.5" transform="rotate(-180 223.75 56.75)" fill="#F1EBF8" stroke="#743BBE" stroke-width="0.5"/>
<rect x="214.25" y="47.25" width="11.5" height="11.5" fill="#9062CB" stroke="#743BBE" stroke-width="0.5"/>
<rect x="225.75" y="47.25" width="11.5" height="11.5" fill="#B99DDF" stroke="#743BBE" stroke-width="0.5"/>
<rect x="237.25" y="47.25" width="11.5" height="11.5" fill="#F1EBF8" stroke="#743BBE" stroke-width="0.5"/>
<rect x="214.25" y="58.75" width="11.5" height="11.5" fill="#F1EBF8" stroke="#743BBE" stroke-width="0.5"/>
<rect x="225.75" y="58.75" width="11.5" height="11.5" fill="#F1EBF8" stroke="#743BBE" stroke-width="0.5"/>
<rect x="237.25" y="58.75" width="11.5" height="11.5" fill="#9062CB" stroke="#743BBE" stroke-width="0.5"/>
<rect x="214.25" y="70.25" width="11.5" height="11.5" fill="#B99DDF" stroke="#743BBE" stroke-width="0.5"/>
<rect x="225.75" y="70.25" width="11.5" height="11.5" fill="#9062CB" stroke="#743BBE" stroke-width="0.5"/>
<rect x="237.25" y="70.25" width="11.5" height="11.5" fill="#B99DDF" stroke="#743BBE" stroke-width="0.5"/>
<rect x="214.25" y="81.75" width="11.5" height="11.5" fill="#D5C4EB" stroke="#743BBE" stroke-width="0.5"/>
<rect x="225.75" y="81.75" width="11.5" height="11.5" fill="#B99DDF" stroke="#743BBE" stroke-width="0.5"/>
<rect x="237.25" y="81.75" width="11.5" height="11.5" fill="#F1EBF8" stroke="#743BBE" stroke-width="0.5"/>
<rect x="-0.25" y="0.25" width="11.5" height="11.5" transform="matrix(-1 0 0 1 250.5 49)" fill="#9062CB" stroke="#743BBE" stroke-width="0.5"/>
<rect x="-0.25" y="0.25" width="11.5" height="11.5" transform="matrix(-1 0 0 1 239 49)" fill="#B99DDF" stroke="#743BBE" stroke-width="0.5"/>
<rect x="-0.25" y="0.25" width="11.5" height="11.5" transform="matrix(-1 0 0 1 227.5 49)" fill="#F1EBF8" stroke="#743BBE" stroke-width="0.5"/>
<rect x="-0.25" y="0.25" width="11.5" height="11.5" transform="matrix(-1 0 0 1 250.5 60.5)" fill="#F1EBF8" stroke="#743BBE" stroke-width="0.5"/>
<rect x="-0.25" y="0.25" width="11.5" height="11.5" transform="matrix(-1 0 0 1 239 60.5)" fill="#F1EBF8" stroke="#743BBE" stroke-width="0.5"/>
<rect x="-0.25" y="0.25" width="11.5" height="11.5" transform="matrix(-1 0 0 1 227.5 60.5)" fill="#9062CB" stroke="#743BBE" stroke-width="0.5"/>
<rect x="-0.25" y="0.25" width="11.5" height="11.5" transform="matrix(-1 0 0 1 250.5 72)" fill="#B99DDF" stroke="#743BBE" stroke-width="0.5"/>
<rect x="-0.25" y="0.25" width="11.5" height="11.5" transform="matrix(-1 0 0 1 239 72)" fill="#9062CB" stroke="#743BBE" stroke-width="0.5"/>
<rect x="-0.25" y="0.25" width="11.5" height="11.5" transform="matrix(-1 0 0 1 227.5 72)" fill="#B99DDF" stroke="#743BBE" stroke-width="0.5"/>
<rect x="-0.25" y="0.25" width="11.5" height="11.5" transform="matrix(-1 0 0 1 250.5 83.5)" fill="#D5C4EB" stroke="#743BBE" stroke-width="0.5"/>
<rect x="-0.25" y="0.25" width="11.5" height="11.5" transform="matrix(-1 0 0 1 239 83.5)" fill="#B99DDF" stroke="#743BBE" stroke-width="0.5"/>
<rect x="-0.25" y="0.25" width="11.5" height="11.5" transform="matrix(-1 0 0 1 227.5 83.5)" fill="#F1EBF8" stroke="#743BBE" stroke-width="0.5"/>
<rect x="218.25" y="51.25" width="11.5" height="11.5" fill="#9062CB" stroke="#743BBE" stroke-width="0.5"/>
<rect x="229.75" y="51.25" width="11.5" height="11.5" fill="#B99DDF" stroke="#743BBE" stroke-width="0.5"/>
<rect x="241.25" y="51.25" width="11.5" height="11.5" fill="#F1EBF8" stroke="#743BBE" stroke-width="0.5"/>
<rect x="218.25" y="62.75" width="11.5" height="11.5" fill="#F1EBF8" stroke="#743BBE" stroke-width="0.5"/>
<rect x="229.75" y="62.75" width="11.5" height="11.5" fill="#F1EBF8" stroke="#743BBE" stroke-width="0.5"/>
<rect x="241.25" y="62.75" width="11.5" height="11.5" fill="#9062CB" stroke="#743BBE" stroke-width="0.5"/>
<rect x="218.25" y="74.25" width="11.5" height="11.5" fill="#B99DDF" stroke="#743BBE" stroke-width="0.5"/>
<rect x="229.75" y="74.25" width="11.5" height="11.5" fill="#9062CB" stroke="#743BBE" stroke-width="0.5"/>
<rect x="241.25" y="74.25" width="11.5" height="11.5" fill="#B99DDF" stroke="#743BBE" stroke-width="0.5"/>
<rect x="218.25" y="85.75" width="11.5" height="11.5" fill="#D5C4EB" stroke="#743BBE" stroke-width="0.5"/>
<rect x="229.75" y="85.75" width="11.5" height="11.5" fill="#B99DDF" stroke="#743BBE" stroke-width="0.5"/>
<rect x="241.25" y="85.75" width="11.5" height="11.5" fill="#F1EBF8" stroke="#743BBE" stroke-width="0.5"/>
<path d="M217.375 105.636C217.341 105.348 217.202 105.125 216.96 104.966C216.717 104.807 216.42 104.727 216.068 104.727C215.81 104.727 215.585 104.769 215.392 104.852C215.2 104.936 215.051 105.05 214.943 105.196C214.837 105.342 214.784 105.508 214.784 105.693C214.784 105.848 214.821 105.982 214.895 106.094C214.97 106.204 215.067 106.295 215.184 106.369C215.302 106.441 215.425 106.501 215.554 106.548C215.682 106.594 215.801 106.631 215.909 106.659L216.5 106.818C216.651 106.858 216.82 106.913 217.005 106.983C217.193 107.053 217.372 107.149 217.542 107.27C217.715 107.389 217.857 107.543 217.968 107.73C218.08 107.918 218.136 108.148 218.136 108.42C218.136 108.735 218.054 109.019 217.889 109.273C217.726 109.527 217.487 109.728 217.173 109.878C216.86 110.027 216.481 110.102 216.034 110.102C215.617 110.102 215.256 110.035 214.951 109.901C214.648 109.766 214.41 109.579 214.235 109.338C214.063 109.098 213.966 108.818 213.943 108.5H214.67C214.689 108.72 214.763 108.902 214.892 109.045C215.022 109.187 215.187 109.294 215.386 109.364C215.587 109.432 215.803 109.466 216.034 109.466C216.303 109.466 216.544 109.422 216.758 109.335C216.972 109.246 217.142 109.123 217.267 108.966C217.392 108.807 217.454 108.621 217.454 108.409C217.454 108.216 217.4 108.059 217.292 107.938C217.184 107.816 217.042 107.718 216.866 107.642C216.69 107.566 216.5 107.5 216.295 107.443L215.579 107.239C215.125 107.108 214.765 106.921 214.5 106.679C214.234 106.437 214.102 106.119 214.102 105.727C214.102 105.402 214.19 105.117 214.366 104.875C214.544 104.631 214.783 104.441 215.082 104.307C215.383 104.17 215.719 104.102 216.091 104.102C216.466 104.102 216.799 104.17 217.091 104.304C217.382 104.437 217.613 104.618 217.784 104.849C217.956 105.08 218.047 105.343 218.056 105.636H217.375ZM219.203 110V105.636H219.874V110H219.203ZM219.544 104.909C219.414 104.909 219.301 104.865 219.206 104.776C219.114 104.687 219.067 104.58 219.067 104.455C219.067 104.33 219.114 104.223 219.206 104.134C219.301 104.045 219.414 104 219.544 104C219.675 104 219.787 104.045 219.88 104.134C219.974 104.223 220.022 104.33 220.022 104.455C220.022 104.58 219.974 104.687 219.88 104.776C219.787 104.865 219.675 104.909 219.544 104.909ZM220.977 110V109.489L223.454 106.307V106.261H221.056V105.636H224.318V106.17L221.909 109.33V109.375H224.397V110H220.977ZM227.135 110.091C226.714 110.091 226.351 109.998 226.047 109.812C225.743 109.625 225.51 109.364 225.345 109.028C225.182 108.691 225.1 108.299 225.1 107.852C225.1 107.405 225.182 107.011 225.345 106.67C225.51 106.328 225.739 106.061 226.032 105.869C226.328 105.676 226.672 105.58 227.066 105.58C227.294 105.58 227.518 105.617 227.74 105.693C227.961 105.769 228.163 105.892 228.345 106.062C228.527 106.231 228.672 106.455 228.779 106.733C228.887 107.011 228.941 107.354 228.941 107.761V108.045H225.578V107.466H228.26C228.26 107.22 228.21 107 228.112 106.807C228.015 106.614 227.877 106.461 227.697 106.349C227.519 106.238 227.309 106.182 227.066 106.182C226.799 106.182 226.568 106.248 226.373 106.381C226.18 106.511 226.031 106.682 225.927 106.892C225.823 107.102 225.771 107.328 225.771 107.568V107.955C225.771 108.284 225.828 108.563 225.941 108.793C226.057 109.02 226.217 109.193 226.422 109.312C226.626 109.43 226.864 109.489 227.135 109.489C227.311 109.489 227.47 109.464 227.612 109.415C227.756 109.364 227.88 109.288 227.984 109.188C228.088 109.085 228.169 108.958 228.225 108.807L228.873 108.989C228.805 109.208 228.69 109.402 228.529 109.568C228.368 109.733 228.17 109.862 227.933 109.955C227.696 110.045 227.43 110.091 227.135 110.091ZM233.984 110.091C233.59 110.091 233.244 109.997 232.947 109.81C232.652 109.622 232.421 109.36 232.254 109.023C232.089 108.686 232.007 108.292 232.007 107.841C232.007 107.386 232.089 106.99 232.254 106.651C232.421 106.312 232.652 106.048 232.947 105.861C233.244 105.673 233.59 105.58 233.984 105.58C234.378 105.58 234.723 105.673 235.018 105.861C235.315 106.048 235.547 106.312 235.711 106.651C235.878 106.99 235.961 107.386 235.961 107.841C235.961 108.292 235.878 108.686 235.711 109.023C235.547 109.36 235.315 109.622 235.018 109.81C234.723 109.997 234.378 110.091 233.984 110.091ZM233.984 109.489C234.283 109.489 234.529 109.412 234.723 109.259C234.916 109.105 235.059 108.903 235.152 108.653C235.244 108.403 235.291 108.133 235.291 107.841C235.291 107.549 235.244 107.277 235.152 107.026C235.059 106.774 234.916 106.57 234.723 106.415C234.529 106.259 234.283 106.182 233.984 106.182C233.685 106.182 233.439 106.259 233.245 106.415C233.052 106.57 232.909 106.774 232.816 107.026C232.724 107.277 232.677 107.549 232.677 107.841C232.677 108.133 232.724 108.403 232.816 108.653C232.909 108.903 233.052 109.105 233.245 109.259C233.439 109.412 233.685 109.489 233.984 109.489ZM238.928 105.636V106.205H236.576V105.636H238.928ZM237.28 110V105.034C237.28 104.784 237.339 104.576 237.456 104.409C237.574 104.242 237.726 104.117 237.914 104.034C238.101 103.951 238.299 103.909 238.507 103.909C238.672 103.909 238.807 103.922 238.911 103.949C239.015 103.975 239.093 104 239.144 104.023L238.951 104.602C238.917 104.591 238.869 104.577 238.809 104.56C238.75 104.543 238.672 104.534 238.576 104.534C238.354 104.534 238.194 104.59 238.096 104.702C237.999 104.813 237.951 104.977 237.951 105.193V110H237.28ZM242.118 110V105.636H242.788V110H242.118ZM242.458 104.909C242.328 104.909 242.215 104.865 242.12 104.776C242.028 104.687 241.981 104.58 241.981 104.455C241.981 104.33 242.028 104.223 242.12 104.134C242.215 104.045 242.328 104 242.458 104C242.589 104 242.701 104.045 242.794 104.134C242.888 104.223 242.936 104.33 242.936 104.455C242.936 104.58 242.888 104.687 242.794 104.776C242.701 104.865 242.589 104.909 242.458 104.909ZM244.686 107.375V110H244.016V105.636H244.664V106.318H244.721C244.823 106.097 244.978 105.919 245.186 105.784C245.395 105.648 245.664 105.58 245.993 105.58C246.289 105.58 246.547 105.64 246.769 105.761C246.99 105.881 247.163 106.062 247.286 106.307C247.409 106.549 247.471 106.856 247.471 107.227V110H246.8V107.273C246.8 106.93 246.711 106.663 246.533 106.472C246.355 106.278 246.111 106.182 245.8 106.182C245.586 106.182 245.395 106.228 245.226 106.321C245.06 106.414 244.928 106.549 244.831 106.727C244.735 106.905 244.686 107.121 244.686 107.375ZM248.696 111.636V105.636H249.343V106.33H249.423C249.472 106.254 249.54 106.157 249.627 106.04C249.717 105.92 249.843 105.814 250.008 105.722C250.175 105.627 250.4 105.58 250.684 105.58C251.052 105.58 251.376 105.671 251.656 105.855C251.936 106.039 252.155 106.299 252.312 106.636C252.469 106.973 252.548 107.371 252.548 107.83C252.548 108.292 252.469 108.692 252.312 109.031C252.155 109.368 251.937 109.63 251.659 109.815C251.38 109.999 251.059 110.091 250.696 110.091C250.415 110.091 250.191 110.045 250.022 109.952C249.854 109.857 249.724 109.75 249.633 109.631C249.542 109.509 249.472 109.409 249.423 109.33H249.366V111.636H248.696ZM249.355 107.818C249.355 108.148 249.403 108.438 249.5 108.69C249.596 108.94 249.737 109.136 249.923 109.278C250.109 109.419 250.336 109.489 250.605 109.489C250.885 109.489 251.119 109.415 251.306 109.267C251.496 109.117 251.638 108.917 251.733 108.665C251.829 108.411 251.877 108.129 251.877 107.818C251.877 107.511 251.83 107.235 251.735 106.989C251.643 106.741 251.502 106.545 251.312 106.401C251.125 106.255 250.889 106.182 250.605 106.182C250.332 106.182 250.103 106.251 249.917 106.389C249.732 106.526 249.592 106.717 249.497 106.963C249.402 107.207 249.355 107.492 249.355 107.818ZM256.321 108.216V105.636H256.991V110H256.321V109.261H256.275C256.173 109.483 256.014 109.671 255.798 109.827C255.582 109.98 255.309 110.057 254.98 110.057C254.707 110.057 254.465 109.997 254.252 109.878C254.04 109.757 253.874 109.575 253.752 109.332C253.631 109.088 253.571 108.78 253.571 108.409V105.636H254.241V108.364C254.241 108.682 254.33 108.936 254.508 109.125C254.688 109.314 254.917 109.409 255.196 109.409C255.362 109.409 255.532 109.366 255.704 109.281C255.878 109.196 256.024 109.065 256.142 108.889C256.261 108.713 256.321 108.489 256.321 108.216ZM260.117 105.636V106.205H257.855V105.636H260.117ZM258.515 104.591H259.185V108.75C259.185 108.939 259.212 109.081 259.267 109.176C259.324 109.269 259.396 109.331 259.483 109.364C259.572 109.394 259.666 109.409 259.765 109.409C259.838 109.409 259.899 109.405 259.946 109.398C259.994 109.388 260.032 109.381 260.06 109.375L260.196 109.977C260.151 109.994 260.087 110.011 260.006 110.028C259.925 110.047 259.821 110.057 259.696 110.057C259.507 110.057 259.321 110.016 259.14 109.935C258.96 109.853 258.81 109.729 258.691 109.562C258.573 109.396 258.515 109.186 258.515 108.932V104.591ZM222.233 115.636L220.619 120H219.937L218.324 115.636H219.051L220.255 119.114H220.301L221.505 115.636H222.233ZM224.791 120.091C224.37 120.091 224.008 119.998 223.703 119.812C223.4 119.625 223.166 119.364 223.001 119.028C222.838 118.691 222.757 118.299 222.757 117.852C222.757 117.405 222.838 117.011 223.001 116.67C223.166 116.328 223.395 116.061 223.689 115.869C223.984 115.676 224.329 115.58 224.723 115.58C224.95 115.58 225.174 115.617 225.396 115.693C225.618 115.769 225.819 115.892 226.001 116.062C226.183 116.231 226.328 116.455 226.436 116.733C226.544 117.011 226.598 117.354 226.598 117.761V118.045H223.234V117.466H225.916C225.916 117.22 225.867 117 225.768 116.807C225.672 116.614 225.533 116.461 225.353 116.349C225.175 116.238 224.965 116.182 224.723 116.182C224.456 116.182 224.225 116.248 224.029 116.381C223.836 116.511 223.688 116.682 223.583 116.892C223.479 117.102 223.427 117.328 223.427 117.568V117.955C223.427 118.284 223.484 118.563 223.598 118.793C223.713 119.02 223.873 119.193 224.078 119.312C224.282 119.43 224.52 119.489 224.791 119.489C224.967 119.489 225.126 119.464 225.268 119.415C225.412 119.364 225.536 119.288 225.64 119.188C225.744 119.085 225.825 118.958 225.882 118.807L226.529 118.989C226.461 119.208 226.347 119.402 226.186 119.568C226.025 119.733 225.826 119.862 225.589 119.955C225.352 120.045 225.086 120.091 224.791 120.091ZM229.39 120.091C228.981 120.091 228.629 119.994 228.333 119.801C228.038 119.608 227.811 119.342 227.652 119.003C227.493 118.664 227.413 118.277 227.413 117.841C227.413 117.398 227.494 117.007 227.657 116.668C227.822 116.327 228.051 116.061 228.345 115.869C228.64 115.676 228.985 115.58 229.379 115.58C229.686 115.58 229.962 115.636 230.208 115.75C230.455 115.864 230.656 116.023 230.814 116.227C230.971 116.432 231.068 116.67 231.106 116.943H230.436C230.385 116.744 230.271 116.568 230.095 116.415C229.921 116.259 229.686 116.182 229.39 116.182C229.129 116.182 228.9 116.25 228.703 116.386C228.508 116.521 228.355 116.711 228.245 116.957C228.137 117.202 228.083 117.489 228.083 117.818C228.083 118.155 228.136 118.449 228.243 118.699C228.35 118.949 228.502 119.143 228.697 119.281C228.894 119.42 229.125 119.489 229.39 119.489C229.565 119.489 229.723 119.458 229.865 119.398C230.007 119.337 230.127 119.25 230.225 119.136C230.324 119.023 230.394 118.886 230.436 118.727H231.106C231.068 118.985 230.975 119.217 230.825 119.423C230.677 119.628 230.481 119.791 230.237 119.912C229.994 120.031 229.712 120.091 229.39 120.091ZM233.984 115.636V116.205H231.723V115.636H233.984ZM232.382 114.591H233.052V118.75C233.052 118.939 233.08 119.081 233.135 119.176C233.191 119.269 233.263 119.331 233.35 119.364C233.44 119.394 233.533 119.409 233.632 119.409C233.706 119.409 233.766 119.405 233.814 119.398C233.861 119.388 233.899 119.381 233.927 119.375L234.064 119.977C234.018 119.994 233.955 120.011 233.873 120.028C233.792 120.047 233.689 120.057 233.564 120.057C233.374 120.057 233.189 120.016 233.007 119.935C232.827 119.853 232.677 119.729 232.558 119.562C232.44 119.396 232.382 119.186 232.382 118.932V114.591ZM236.718 120.091C236.324 120.091 235.979 119.997 235.681 119.81C235.386 119.622 235.155 119.36 234.988 119.023C234.824 118.686 234.741 118.292 234.741 117.841C234.741 117.386 234.824 116.99 234.988 116.651C235.155 116.312 235.386 116.048 235.681 115.861C235.979 115.673 236.324 115.58 236.718 115.58C237.112 115.58 237.457 115.673 237.752 115.861C238.05 116.048 238.281 116.312 238.446 116.651C238.612 116.99 238.696 117.386 238.696 117.841C238.696 118.292 238.612 118.686 238.446 119.023C238.281 119.36 238.05 119.622 237.752 119.81C237.457 119.997 237.112 120.091 236.718 120.091ZM236.718 119.489C237.018 119.489 237.264 119.412 237.457 119.259C237.65 119.105 237.793 118.903 237.886 118.653C237.979 118.403 238.025 118.133 238.025 117.841C238.025 117.549 237.979 117.277 237.886 117.026C237.793 116.774 237.65 116.57 237.457 116.415C237.264 116.259 237.018 116.182 236.718 116.182C236.419 116.182 236.173 116.259 235.98 116.415C235.787 116.57 235.644 116.774 235.551 117.026C235.458 117.277 235.412 117.549 235.412 117.841C235.412 118.133 235.458 118.403 235.551 118.653C235.644 118.903 235.787 119.105 235.98 119.259C236.173 119.412 236.419 119.489 236.718 119.489ZM239.719 120V115.636H240.367V116.295H240.412C240.492 116.08 240.636 115.904 240.844 115.77C241.052 115.635 241.287 115.568 241.549 115.568C241.598 115.568 241.659 115.569 241.733 115.571C241.807 115.573 241.863 115.576 241.901 115.58V116.261C241.878 116.256 241.826 116.247 241.745 116.236C241.665 116.223 241.581 116.216 241.492 116.216C241.28 116.216 241.09 116.26 240.924 116.349C240.759 116.437 240.628 116.558 240.532 116.713C240.437 116.866 240.39 117.042 240.39 117.239V120H239.719ZM245.184 117.545C245.184 116.83 245.277 116.171 245.463 115.571C245.65 114.969 245.917 114.415 246.264 113.909H246.855C246.718 114.097 246.591 114.328 246.471 114.602C246.354 114.875 246.251 115.175 246.162 115.503C246.073 115.829 246.002 116.166 245.951 116.514C245.902 116.863 245.877 117.206 245.877 117.545C245.877 117.996 245.921 118.454 246.008 118.918C246.095 119.382 246.213 119.812 246.36 120.21C246.508 120.608 246.673 120.932 246.855 121.182H246.264C245.917 120.676 245.65 120.123 245.463 119.523C245.277 118.92 245.184 118.261 245.184 117.545ZM255.096 117.545C255.096 118.261 255.002 118.92 254.815 119.523C254.629 120.123 254.363 120.676 254.017 121.182H253.426C253.562 120.994 253.689 120.763 253.806 120.489C253.926 120.216 254.03 119.917 254.119 119.591C254.208 119.263 254.277 118.925 254.326 118.577C254.377 118.226 254.403 117.883 254.403 117.545C254.403 117.095 254.359 116.637 254.272 116.173C254.185 115.709 254.068 115.278 253.92 114.881C253.772 114.483 253.608 114.159 253.426 113.909H254.017C254.363 114.415 254.629 114.969 254.815 115.571C255.002 116.171 255.096 116.83 255.096 117.545Z" fill="#505050" fill-opacity="0.8"/>
<path d="M249.463 120H247.373L248.338 114.182H250.39C250.975 114.182 251.461 114.301 251.847 114.54C252.235 114.778 252.509 115.12 252.668 115.565C252.827 116.009 252.855 116.538 252.753 117.153C252.655 117.748 252.459 118.259 252.165 118.685C251.872 119.109 251.496 119.435 251.037 119.662C250.579 119.887 250.054 120 249.463 120ZM248.779 118.946H249.534C249.9 118.946 250.22 118.878 250.495 118.741C250.771 118.605 250.998 118.395 251.174 118.111C251.352 117.827 251.478 117.463 251.551 117.02C251.622 116.599 251.617 116.259 251.537 115.997C251.46 115.734 251.309 115.542 251.086 115.42C250.862 115.297 250.569 115.236 250.205 115.236H249.395L248.779 118.946Z" fill="#505050"/>
<path d="M263.294 69.6136L262.692 69.7841C262.654 69.6837 262.598 69.5862 262.525 69.4915C262.453 69.3949 262.354 69.3153 262.229 69.2528C262.104 69.1903 261.944 69.1591 261.749 69.1591C261.482 69.1591 261.259 69.2206 261.081 69.3438C260.905 69.465 260.817 69.6193 260.817 69.8068C260.817 69.9735 260.878 70.1051 260.999 70.2017C261.12 70.2983 261.31 70.3788 261.567 70.4432L262.215 70.6023C262.605 70.697 262.896 70.8419 263.087 71.0369C263.278 71.2301 263.374 71.4792 263.374 71.7841C263.374 72.0341 263.302 72.2576 263.158 72.4545C263.016 72.6515 262.817 72.8068 262.561 72.9205C262.306 73.0341 262.008 73.0909 261.669 73.0909C261.224 73.0909 260.856 72.9943 260.564 72.8011C260.273 72.608 260.088 72.3258 260.01 71.9545L260.647 71.7955C260.707 72.0303 260.822 72.2064 260.99 72.3239C261.161 72.4413 261.383 72.5 261.658 72.5C261.971 72.5 262.219 72.4337 262.402 72.3011C262.588 72.1667 262.681 72.0057 262.681 71.8182C262.681 71.6667 262.628 71.5398 262.522 71.4375C262.416 71.3333 262.253 71.2557 262.033 71.2045L261.306 71.0341C260.906 70.9394 260.613 70.7926 260.425 70.5938C260.239 70.393 260.147 70.142 260.147 69.8409C260.147 69.5947 260.216 69.3769 260.354 69.1875C260.494 68.9981 260.685 68.8494 260.925 68.7415C261.167 68.6335 261.442 68.5795 261.749 68.5795C262.181 68.5795 262.52 68.6742 262.766 68.8636C263.014 69.053 263.19 69.303 263.294 69.6136ZM266.213 73.0909C265.792 73.0909 265.43 72.9981 265.125 72.8125C264.822 72.625 264.588 72.3636 264.423 72.0284C264.26 71.6913 264.179 71.2992 264.179 70.8523C264.179 70.4053 264.26 70.0114 264.423 69.6705C264.588 69.3277 264.817 69.0606 265.11 68.8693C265.406 68.6761 265.751 68.5795 266.145 68.5795C266.372 68.5795 266.596 68.6174 266.818 68.6932C267.039 68.7689 267.241 68.892 267.423 69.0625C267.605 69.2311 267.75 69.4545 267.858 69.733C267.966 70.0114 268.02 70.3542 268.02 70.7614V71.0455H264.656V70.4659H267.338C267.338 70.2197 267.288 70 267.19 69.8068C267.093 69.6136 266.955 69.4612 266.775 69.3494C266.597 69.2377 266.387 69.1818 266.145 69.1818C265.877 69.1818 265.646 69.2481 265.451 69.3807C265.258 69.5114 265.109 69.6818 265.005 69.892C264.901 70.1023 264.849 70.3277 264.849 70.5682V70.9545C264.849 71.2841 264.906 71.5634 265.02 71.7926C265.135 72.0199 265.295 72.1932 265.5 72.3125C265.704 72.4299 265.942 72.4886 266.213 72.4886C266.389 72.4886 266.548 72.464 266.69 72.4148C266.834 72.3636 266.958 72.2879 267.062 72.1875C267.166 72.0852 267.247 71.9583 267.304 71.8068L267.951 71.9886C267.883 72.2083 267.769 72.4015 267.608 72.5682C267.447 72.733 267.248 72.8617 267.011 72.9545C266.774 73.0455 266.508 73.0909 266.213 73.0909ZM272.017 74.6364V72.3295H271.96C271.911 72.4091 271.841 72.5095 271.75 72.6307C271.659 72.75 271.529 72.857 271.36 72.9517C271.192 73.0445 270.967 73.0909 270.687 73.0909C270.324 73.0909 270.002 72.9991 269.724 72.8153C269.446 72.6297 269.228 72.3684 269.071 72.0312C268.913 71.6922 268.835 71.2917 268.835 70.8295C268.835 70.3712 268.913 69.9735 269.071 69.6364C269.228 69.2992 269.447 69.0388 269.727 68.8551C270.007 68.6714 270.331 68.5795 270.699 68.5795C270.983 68.5795 271.207 68.6269 271.372 68.7216C271.538 68.8144 271.665 68.9205 271.752 69.0398C271.842 69.1572 271.911 69.2538 271.96 69.3295H272.039V68.6364H272.687V74.6364H272.017ZM270.778 72.4886C271.047 72.4886 271.274 72.4186 271.46 72.2784C271.645 72.1364 271.787 71.9403 271.883 71.6903C271.98 71.4384 272.028 71.1477 272.028 70.8182C272.028 70.4924 271.981 70.2074 271.886 69.9631C271.791 69.7169 271.651 69.5256 271.466 69.3892C271.28 69.2509 271.051 69.1818 270.778 69.1818C270.494 69.1818 270.257 69.2547 270.068 69.4006C269.88 69.5445 269.739 69.7405 269.645 69.9886C269.552 70.2348 269.505 70.5114 269.505 70.8182C269.505 71.1288 269.553 71.411 269.647 71.6648C269.744 71.9167 269.886 72.1174 270.074 72.267C270.263 72.4148 270.498 72.4886 270.778 72.4886ZM276.664 71.2159V68.6364H277.335V73H276.664V72.2614H276.619C276.517 72.483 276.358 72.6714 276.142 72.8267C275.926 72.9801 275.653 73.0568 275.324 73.0568C275.051 73.0568 274.808 72.9972 274.596 72.8778C274.384 72.7566 274.217 72.5748 274.096 72.3324C273.975 72.0881 273.914 71.7803 273.914 71.4091V68.6364H274.585V71.3636C274.585 71.6818 274.674 71.9356 274.852 72.125C275.032 72.3144 275.261 72.4091 275.539 72.4091C275.706 72.4091 275.876 72.3665 276.048 72.2812C276.222 72.196 276.368 72.0653 276.485 71.8892C276.605 71.7131 276.664 71.4886 276.664 71.2159ZM280.392 73.0909C279.972 73.0909 279.609 72.9981 279.304 72.8125C279.001 72.625 278.767 72.3636 278.603 72.0284C278.44 71.6913 278.358 71.2992 278.358 70.8523C278.358 70.4053 278.44 70.0114 278.603 69.6705C278.767 69.3277 278.997 69.0606 279.29 68.8693C279.586 68.6761 279.93 68.5795 280.324 68.5795C280.551 68.5795 280.776 68.6174 280.998 68.6932C281.219 68.7689 281.421 68.892 281.603 69.0625C281.784 69.2311 281.929 69.4545 282.037 69.733C282.145 70.0114 282.199 70.3542 282.199 70.7614V71.0455H278.836V70.4659H281.517C281.517 70.2197 281.468 70 281.37 69.8068C281.273 69.6136 281.135 69.4612 280.955 69.3494C280.777 69.2377 280.567 69.1818 280.324 69.1818C280.057 69.1818 279.826 69.2481 279.631 69.3807C279.438 69.5114 279.289 69.6818 279.185 69.892C279.081 70.1023 279.029 70.3277 279.029 70.5682V70.9545C279.029 71.2841 279.086 71.5634 279.199 71.7926C279.315 72.0199 279.475 72.1932 279.679 72.3125C279.884 72.4299 280.122 72.4886 280.392 72.4886C280.569 72.4886 280.728 72.464 280.87 72.4148C281.014 72.3636 281.138 72.2879 281.242 72.1875C281.346 72.0852 281.426 71.9583 281.483 71.8068L282.131 71.9886C282.063 72.2083 281.948 72.4015 281.787 72.5682C281.626 72.733 281.427 72.8617 281.191 72.9545C280.954 73.0455 280.688 73.0909 280.392 73.0909ZM283.89 70.375V73H283.219V68.6364H283.867V69.3182H283.924C284.026 69.0966 284.181 68.9186 284.39 68.7841C284.598 68.6477 284.867 68.5795 285.196 68.5795C285.492 68.5795 285.75 68.6402 285.972 68.7614C286.194 68.8807 286.366 69.0625 286.489 69.3068C286.612 69.5492 286.674 69.8561 286.674 70.2273V73H286.003V70.2727C286.003 69.9299 285.914 69.6629 285.736 69.4716C285.558 69.2784 285.314 69.1818 285.003 69.1818C284.789 69.1818 284.598 69.2282 284.429 69.321C284.263 69.4138 284.131 69.5492 284.034 69.7273C283.938 69.9053 283.89 70.1212 283.89 70.375ZM289.672 73.0909C289.262 73.0909 288.91 72.9943 288.615 72.8011C288.319 72.608 288.092 72.3419 287.933 72.0028C287.774 71.6638 287.694 71.2765 287.694 70.8409C287.694 70.3977 287.776 70.0066 287.939 69.6676C288.103 69.3267 288.333 69.0606 288.626 68.8693C288.922 68.6761 289.266 68.5795 289.66 68.5795C289.967 68.5795 290.243 68.6364 290.49 68.75C290.736 68.8636 290.938 69.0227 291.095 69.2273C291.252 69.4318 291.35 69.6705 291.387 69.9432H290.717C290.666 69.7443 290.552 69.5682 290.376 69.4148C290.202 69.2595 289.967 69.1818 289.672 69.1818C289.41 69.1818 289.181 69.25 288.984 69.3864C288.789 69.5208 288.636 69.7112 288.527 69.9574C288.419 70.2017 288.365 70.4886 288.365 70.8182C288.365 71.1553 288.418 71.4489 288.524 71.6989C288.632 71.9489 288.783 72.143 288.978 72.2812C289.175 72.4195 289.406 72.4886 289.672 72.4886C289.846 72.4886 290.004 72.4583 290.146 72.3977C290.288 72.3371 290.408 72.25 290.507 72.1364C290.605 72.0227 290.675 71.8864 290.717 71.7273H291.387C291.35 71.9848 291.256 72.2169 291.106 72.4233C290.958 72.6278 290.762 72.7907 290.518 72.9119C290.276 73.0312 289.993 73.0909 289.672 73.0909ZM294.197 73.0909C293.777 73.0909 293.414 72.9981 293.109 72.8125C292.806 72.625 292.572 72.3636 292.407 72.0284C292.244 71.6913 292.163 71.2992 292.163 70.8523C292.163 70.4053 292.244 70.0114 292.407 69.6705C292.572 69.3277 292.801 69.0606 293.095 68.8693C293.39 68.6761 293.735 68.5795 294.129 68.5795C294.356 68.5795 294.581 68.6174 294.802 68.6932C295.024 68.7689 295.225 68.892 295.407 69.0625C295.589 69.2311 295.734 69.4545 295.842 69.733C295.95 70.0114 296.004 70.3542 296.004 70.7614V71.0455H292.64V70.4659H295.322C295.322 70.2197 295.273 70 295.174 69.8068C295.078 69.6136 294.94 69.4612 294.76 69.3494C294.582 69.2377 294.371 69.1818 294.129 69.1818C293.862 69.1818 293.631 69.2481 293.436 69.3807C293.243 69.5114 293.094 69.6818 292.99 69.892C292.886 70.1023 292.833 70.3277 292.833 70.5682V70.9545C292.833 71.2841 292.89 71.5634 293.004 71.7926C293.119 72.0199 293.279 72.1932 293.484 72.3125C293.689 72.4299 293.926 72.4886 294.197 72.4886C294.373 72.4886 294.532 72.464 294.674 72.4148C294.818 72.3636 294.942 72.2879 295.047 72.1875C295.151 72.0852 295.231 71.9583 295.288 71.8068L295.936 71.9886C295.868 72.2083 295.753 72.4015 295.592 72.5682C295.431 72.733 295.232 72.8617 294.995 72.9545C294.759 73.0455 294.493 73.0909 294.197 73.0909ZM261.073 77.1818V83H260.403V77.1818H261.073ZM264.131 83.0909C263.71 83.0909 263.348 82.9981 263.043 82.8125C262.74 82.625 262.506 82.3636 262.341 82.0284C262.178 81.6913 262.097 81.2992 262.097 80.8523C262.097 80.4053 262.178 80.0114 262.341 79.6705C262.506 79.3277 262.735 79.0606 263.028 78.8693C263.324 78.6761 263.669 78.5795 264.062 78.5795C264.29 78.5795 264.514 78.6174 264.736 78.6932C264.957 78.7689 265.159 78.892 265.341 79.0625C265.523 79.2311 265.668 79.4545 265.776 79.733C265.884 80.0114 265.938 80.3542 265.938 80.7614V81.0455H262.574V80.4659H265.256C265.256 80.2197 265.206 80 265.108 79.8068C265.011 79.6136 264.873 79.4612 264.693 79.3494C264.515 79.2377 264.305 79.1818 264.062 79.1818C263.795 79.1818 263.564 79.2481 263.369 79.3807C263.176 79.5114 263.027 79.6818 262.923 79.892C262.819 80.1023 262.767 80.3277 262.767 80.5682V80.9545C262.767 81.2841 262.824 81.5634 262.938 81.7926C263.053 82.0199 263.213 82.1932 263.418 82.3125C263.622 82.4299 263.86 82.4886 264.131 82.4886C264.307 82.4886 264.466 82.464 264.608 82.4148C264.752 82.3636 264.876 82.2879 264.98 82.1875C265.084 82.0852 265.165 81.9583 265.222 81.8068L265.869 81.9886C265.801 82.2083 265.687 82.4015 265.526 82.5682C265.365 82.733 265.166 82.8617 264.929 82.9545C264.692 83.0455 264.426 83.0909 264.131 83.0909ZM267.628 80.375V83H266.957V78.6364H267.605V79.3182H267.662C267.764 79.0966 267.92 78.9186 268.128 78.7841C268.336 78.6477 268.605 78.5795 268.935 78.5795C269.23 78.5795 269.489 78.6402 269.71 78.7614C269.932 78.8807 270.104 79.0625 270.227 79.3068C270.35 79.5492 270.412 79.8561 270.412 80.2273V83H269.741V80.2727C269.741 79.9299 269.652 79.6629 269.474 79.4716C269.296 79.2784 269.052 79.1818 268.741 79.1818C268.527 79.1818 268.336 79.2282 268.168 79.321C268.001 79.4138 267.869 79.5492 267.773 79.7273C267.676 79.9053 267.628 80.1212 267.628 80.375ZM273.398 84.7273C273.075 84.7273 272.796 84.6856 272.563 84.6023C272.33 84.5208 272.136 84.4129 271.981 84.2784C271.827 84.1458 271.705 84.0038 271.614 83.8523L272.148 83.4773C272.209 83.5568 272.286 83.6477 272.379 83.75C272.471 83.8542 272.598 83.9441 272.759 84.0199C272.922 84.0975 273.135 84.1364 273.398 84.1364C273.751 84.1364 274.041 84.0511 274.271 83.8807C274.5 83.7102 274.614 83.4432 274.614 83.0795V82.1932H274.558C274.508 82.2727 274.438 82.3712 274.347 82.4886C274.258 82.6042 274.129 82.7074 273.961 82.7983C273.794 82.8873 273.569 82.9318 273.285 82.9318C272.933 82.9318 272.616 82.8485 272.336 82.6818C272.058 82.5152 271.837 82.2727 271.674 81.9545C271.513 81.6364 271.433 81.25 271.433 80.7955C271.433 80.3485 271.511 79.9593 271.668 79.6278C271.826 79.2945 272.044 79.0369 272.325 78.8551C272.605 78.6714 272.929 78.5795 273.296 78.5795C273.58 78.5795 273.806 78.6269 273.972 78.7216C274.141 78.8144 274.27 78.9205 274.359 79.0398C274.45 79.1572 274.52 79.2538 274.569 79.3295H274.637V78.6364H275.285V83.125C275.285 83.5 275.2 83.8049 275.029 84.0398C274.861 84.2765 274.633 84.4498 274.347 84.5597C274.063 84.6714 273.747 84.7273 273.398 84.7273ZM273.376 82.3295C273.645 82.3295 273.872 82.268 274.058 82.1449C274.243 82.0218 274.384 81.8447 274.481 81.6136C274.577 81.3826 274.626 81.1061 274.626 80.7841C274.626 80.4697 274.578 80.1922 274.484 79.9517C274.389 79.7112 274.249 79.5227 274.063 79.3864C273.878 79.25 273.648 79.1818 273.376 79.1818C273.092 79.1818 272.855 79.2538 272.665 79.3977C272.478 79.5417 272.337 79.7348 272.242 79.9773C272.149 80.2197 272.103 80.4886 272.103 80.7841C272.103 81.0871 272.15 81.3551 272.245 81.5881C272.342 81.8191 272.484 82.0009 272.671 82.1335C272.861 82.2642 273.095 82.3295 273.376 82.3295ZM278.41 78.6364V79.2045H276.148V78.6364H278.41ZM276.808 77.5909H277.478V81.75C277.478 81.9394 277.505 82.0814 277.56 82.1761C277.617 82.2689 277.689 82.3314 277.776 82.3636C277.865 82.3939 277.959 82.4091 278.058 82.4091C278.131 82.4091 278.192 82.4053 278.239 82.3977C278.287 82.3883 278.325 82.3807 278.353 82.375L278.489 82.9773C278.444 82.9943 278.38 83.0114 278.299 83.0284C278.218 83.0473 278.114 83.0568 277.989 83.0568C277.8 83.0568 277.614 83.0161 277.433 82.9347C277.253 82.8532 277.103 82.7292 276.984 82.5625C276.866 82.3958 276.808 82.1856 276.808 81.9318V77.5909ZM280.183 80.375V83H279.512V77.1818H280.183V79.3182H280.239C280.342 79.0928 280.495 78.9138 280.7 78.7812C280.906 78.6468 281.181 78.5795 281.523 78.5795C281.821 78.5795 282.081 78.6392 282.305 78.7585C282.528 78.8759 282.701 79.0568 282.825 79.3011C282.95 79.5436 283.012 79.8523 283.012 80.2273V83H282.342V80.2727C282.342 79.9261 282.252 79.6581 282.072 79.4688C281.894 79.2775 281.647 79.1818 281.33 79.1818C281.111 79.1818 280.914 79.2282 280.739 79.321C280.567 79.4138 280.431 79.5492 280.33 79.7273C280.232 79.9053 280.183 80.1212 280.183 80.375ZM286.727 80.5455C286.727 79.8295 286.82 79.1714 287.006 78.571C287.193 77.9687 287.46 77.4148 287.807 76.9091H288.398C288.261 77.0966 288.134 77.3277 288.014 77.6023C287.897 77.875 287.794 78.1752 287.705 78.5028C287.616 78.8286 287.545 79.1657 287.494 79.5142C287.445 79.8627 287.42 80.2064 287.42 80.5455C287.42 80.9962 287.464 81.4536 287.551 81.9176C287.638 82.3816 287.756 82.8125 287.903 83.2102C288.051 83.608 288.216 83.9318 288.398 84.1818H287.807C287.46 83.6761 287.193 83.1231 287.006 82.5227C286.82 81.9205 286.727 81.2614 286.727 80.5455ZM295.358 80.5455C295.358 81.2614 295.264 81.9205 295.077 82.5227C294.891 83.1231 294.625 83.6761 294.278 84.1818H293.688C293.824 83.9943 293.951 83.7633 294.068 83.4886C294.188 83.2159 294.292 82.9167 294.381 82.5909C294.47 82.2633 294.539 81.9252 294.588 81.5767C294.639 81.2263 294.665 80.8826 294.665 80.5455C294.665 80.0947 294.621 79.6373 294.534 79.1733C294.447 78.7093 294.33 78.2784 294.182 77.8807C294.034 77.483 293.869 77.1591 293.688 76.9091H294.278C294.625 77.4148 294.891 77.9687 295.077 78.571C295.264 79.1714 295.358 79.8295 295.358 80.5455Z" fill="#505050" fill-opacity="0.8"/>
<path d="M288.915 83L289.881 77.1818H291.112L290.316 81.9858H292.81L292.64 83H288.915Z" fill="#505050"/>
<path d="M254.677 45V39.1818H255.348V41.3295H255.404C255.454 41.2538 255.522 41.1572 255.609 41.0398C255.698 40.9205 255.825 40.8144 255.99 40.7216C256.156 40.6269 256.382 40.5795 256.666 40.5795C257.033 40.5795 257.357 40.6714 257.637 40.8551C257.918 41.0388 258.136 41.2992 258.294 41.6364C258.451 41.9735 258.529 42.3712 258.529 42.8295C258.529 43.2917 258.451 43.6922 258.294 44.0312C258.136 44.3684 257.919 44.6297 257.64 44.8153C257.362 44.9991 257.041 45.0909 256.677 45.0909C256.397 45.0909 256.172 45.0445 256.004 44.9517C255.835 44.857 255.706 44.75 255.615 44.6307C255.524 44.5095 255.454 44.4091 255.404 44.3295H255.325V45H254.677ZM255.336 42.8182C255.336 43.1477 255.385 43.4384 255.481 43.6903C255.578 43.9403 255.719 44.1364 255.904 44.2784C256.09 44.4186 256.317 44.4886 256.586 44.4886C256.867 44.4886 257.1 44.4148 257.288 44.267C257.477 44.1174 257.619 43.9167 257.714 43.6648C257.811 43.411 257.859 43.1288 257.859 42.8182C257.859 42.5114 257.812 42.2348 257.717 41.9886C257.624 41.7405 257.483 41.5445 257.294 41.4006C257.106 41.2547 256.87 41.1818 256.586 41.1818C256.314 41.1818 256.084 41.2509 255.899 41.3892C255.713 41.5256 255.573 41.7169 255.478 41.9631C255.384 42.2074 255.336 42.4924 255.336 42.8182ZM260.839 45.1023C260.563 45.1023 260.312 45.0502 260.086 44.946C259.861 44.84 259.682 44.6875 259.549 44.4886C259.417 44.2879 259.35 44.0455 259.35 43.7614C259.35 43.5114 259.4 43.3087 259.498 43.1534C259.597 42.9962 259.728 42.8731 259.893 42.7841C260.058 42.6951 260.24 42.6288 260.439 42.5852C260.639 42.5398 260.841 42.5038 261.044 42.4773C261.309 42.4432 261.524 42.4176 261.689 42.4006C261.855 42.3816 261.976 42.3504 262.052 42.3068C262.13 42.2633 262.169 42.1875 262.169 42.0795V42.0568C262.169 41.7765 262.092 41.5587 261.939 41.4034C261.787 41.2481 261.557 41.1705 261.248 41.1705C260.928 41.1705 260.677 41.2405 260.495 41.3807C260.314 41.5208 260.186 41.6705 260.112 41.8295L259.475 41.6023C259.589 41.3371 259.741 41.1307 259.93 40.983C260.121 40.8333 260.33 40.7292 260.555 40.6705C260.782 40.6098 261.006 40.5795 261.225 40.5795C261.366 40.5795 261.527 40.5966 261.708 40.6307C261.892 40.6629 262.069 40.7301 262.24 40.8324C262.412 40.9347 262.555 41.089 262.669 41.2955C262.782 41.5019 262.839 41.7784 262.839 42.125V45H262.169V44.4091H262.135C262.089 44.5038 262.013 44.6051 261.907 44.7131C261.801 44.821 261.66 44.9129 261.484 44.9886C261.308 45.0644 261.093 45.1023 260.839 45.1023ZM260.941 44.5C261.207 44.5 261.43 44.4479 261.612 44.3438C261.796 44.2396 261.934 44.1051 262.027 43.9403C262.121 43.7756 262.169 43.6023 262.169 43.4205V42.8068C262.14 42.8409 262.078 42.8722 261.981 42.9006C261.886 42.9271 261.777 42.9508 261.652 42.9716C261.529 42.9905 261.408 43.0076 261.291 43.0227C261.175 43.036 261.082 43.0473 261.01 43.0568C260.835 43.0795 260.672 43.1165 260.521 43.1676C260.371 43.2169 260.25 43.2917 260.157 43.392C260.066 43.4905 260.021 43.625 260.021 43.7955C260.021 44.0284 260.107 44.2045 260.279 44.3239C260.454 44.4413 260.674 44.5 260.941 44.5ZM265.961 40.6364V41.2045H263.699V40.6364H265.961ZM264.358 39.5909H265.029V43.75C265.029 43.9394 265.056 44.0814 265.111 44.1761C265.168 44.2689 265.24 44.3314 265.327 44.3636C265.416 44.3939 265.51 44.4091 265.608 44.4091C265.682 44.4091 265.743 44.4053 265.79 44.3977C265.837 44.3883 265.875 44.3807 265.904 44.375L266.04 44.9773C265.995 44.9943 265.931 45.0114 265.85 45.0284C265.768 45.0473 265.665 45.0568 265.54 45.0568C265.351 45.0568 265.165 45.0161 264.983 44.9347C264.803 44.8532 264.654 44.7292 264.534 44.5625C264.417 44.3958 264.358 44.1856 264.358 43.9318V39.5909ZM268.695 45.0909C268.286 45.0909 267.934 44.9943 267.638 44.8011C267.343 44.608 267.115 44.3419 266.956 44.0028C266.797 43.6638 266.718 43.2765 266.718 42.8409C266.718 42.3977 266.799 42.0066 266.962 41.6676C267.127 41.3267 267.356 41.0606 267.65 40.8693C267.945 40.6761 268.29 40.5795 268.684 40.5795C268.99 40.5795 269.267 40.6364 269.513 40.75C269.759 40.8636 269.961 41.0227 270.118 41.2273C270.275 41.4318 270.373 41.6705 270.411 41.9432H269.74C269.689 41.7443 269.576 41.5682 269.4 41.4148C269.225 41.2595 268.99 41.1818 268.695 41.1818C268.434 41.1818 268.204 41.25 268.007 41.3864C267.812 41.5208 267.66 41.7112 267.55 41.9574C267.442 42.2017 267.388 42.4886 267.388 42.8182C267.388 43.1553 267.441 43.4489 267.547 43.6989C267.655 43.9489 267.807 44.143 268.002 44.2812C268.199 44.4195 268.43 44.4886 268.695 44.4886C268.869 44.4886 269.027 44.4583 269.169 44.3977C269.311 44.3371 269.432 44.25 269.53 44.1364C269.629 44.0227 269.699 43.8864 269.74 43.7273H270.411C270.373 43.9848 270.279 44.2169 270.13 44.4233C269.982 44.6278 269.786 44.7907 269.542 44.9119C269.299 45.0312 269.017 45.0909 268.695 45.0909ZM272.061 42.375V45H271.391V39.1818H272.061V41.3182H272.118C272.221 41.0928 272.374 40.9138 272.578 40.7812C272.785 40.6468 273.06 40.5795 273.402 40.5795C273.7 40.5795 273.96 40.6392 274.184 40.7585C274.407 40.8759 274.58 41.0568 274.703 41.3011C274.828 41.5436 274.891 41.8523 274.891 42.2273V45H274.221V42.2727C274.221 41.9261 274.131 41.6581 273.951 41.4688C273.773 41.2775 273.525 41.1818 273.209 41.1818C272.989 41.1818 272.792 41.2282 272.618 41.321C272.446 41.4138 272.31 41.5492 272.209 41.7273C272.111 41.9053 272.061 42.1212 272.061 42.375ZM281.458 41.6136L280.856 41.7841C280.818 41.6837 280.762 41.5862 280.689 41.4915C280.617 41.3949 280.518 41.3153 280.393 41.2528C280.268 41.1903 280.108 41.1591 279.913 41.1591C279.646 41.1591 279.423 41.2206 279.245 41.3438C279.069 41.465 278.981 41.6193 278.981 41.8068C278.981 41.9735 279.042 42.1051 279.163 42.2017C279.284 42.2983 279.474 42.3788 279.731 42.4432L280.379 42.6023C280.769 42.697 281.06 42.8419 281.251 43.0369C281.442 43.2301 281.538 43.4792 281.538 43.7841C281.538 44.0341 281.466 44.2576 281.322 44.4545C281.18 44.6515 280.981 44.8068 280.725 44.9205C280.47 45.0341 280.172 45.0909 279.833 45.0909C279.388 45.0909 279.02 44.9943 278.728 44.8011C278.437 44.608 278.252 44.3258 278.174 43.9545L278.811 43.7955C278.871 44.0303 278.986 44.2064 279.154 44.3239C279.325 44.4413 279.547 44.5 279.822 44.5C280.135 44.5 280.383 44.4337 280.566 44.3011C280.752 44.1667 280.845 44.0057 280.845 43.8182C280.845 43.6667 280.792 43.5398 280.686 43.4375C280.58 43.3333 280.417 43.2557 280.197 43.2045L279.47 43.0341C279.07 42.9394 278.777 42.7926 278.589 42.5938C278.404 42.393 278.311 42.142 278.311 41.8409C278.311 41.5947 278.38 41.3769 278.518 41.1875C278.658 40.9981 278.849 40.8494 279.089 40.7415C279.332 40.6335 279.606 40.5795 279.913 40.5795C280.345 40.5795 280.684 40.6742 280.93 40.8636C281.178 41.053 281.354 41.303 281.458 41.6136ZM282.547 45V40.6364H283.218V45H282.547ZM282.888 39.9091C282.757 39.9091 282.645 39.8646 282.55 39.7756C282.457 39.6866 282.411 39.5795 282.411 39.4545C282.411 39.3295 282.457 39.2225 282.55 39.1335C282.645 39.0445 282.757 39 282.888 39C283.019 39 283.131 39.0445 283.223 39.1335C283.318 39.2225 283.365 39.3295 283.365 39.4545C283.365 39.5795 283.318 39.6866 283.223 39.7756C283.131 39.8646 283.019 39.9091 282.888 39.9091ZM284.321 45V44.4886L286.798 41.3068V41.2614H284.4V40.6364H287.662V41.1705L285.252 44.3295V44.375H287.741V45H284.321ZM290.478 45.0909C290.058 45.0909 289.695 44.9981 289.39 44.8125C289.087 44.625 288.853 44.3636 288.689 44.0284C288.526 43.6913 288.444 43.2992 288.444 42.8523C288.444 42.4053 288.526 42.0114 288.689 41.6705C288.853 41.3277 289.083 41.0606 289.376 40.8693C289.672 40.6761 290.016 40.5795 290.41 40.5795C290.637 40.5795 290.862 40.6174 291.083 40.6932C291.305 40.7689 291.507 40.892 291.689 41.0625C291.87 41.2311 292.015 41.4545 292.123 41.733C292.231 42.0114 292.285 42.3542 292.285 42.7614V43.0455H288.922V42.4659H291.603C291.603 42.2197 291.554 42 291.456 41.8068C291.359 41.6136 291.221 41.4612 291.041 41.3494C290.863 41.2377 290.653 41.1818 290.41 41.1818C290.143 41.1818 289.912 41.2481 289.717 41.3807C289.524 41.5114 289.375 41.6818 289.271 41.892C289.167 42.1023 289.115 42.3277 289.115 42.5682V42.9545C289.115 43.2841 289.172 43.5634 289.285 43.7926C289.401 44.0199 289.561 44.1932 289.765 44.3125C289.97 44.4299 290.208 44.4886 290.478 44.4886C290.654 44.4886 290.814 44.464 290.956 44.4148C291.1 44.3636 291.224 44.2879 291.328 44.1875C291.432 44.0852 291.512 43.9583 291.569 43.8068L292.217 43.9886C292.149 44.2083 292.034 44.4015 291.873 44.5682C291.712 44.733 291.513 44.8617 291.277 44.9545C291.04 45.0455 290.774 45.0909 290.478 45.0909ZM295.794 42.5455C295.794 41.8295 295.886 41.1714 296.072 40.571C296.26 39.9687 296.527 39.4148 296.873 38.9091H297.464C297.328 39.0966 297.2 39.3277 297.081 39.6023C296.963 39.875 296.86 40.1752 296.771 40.5028C296.682 40.8286 296.612 41.1657 296.561 41.5142C296.511 41.8627 296.487 42.2064 296.487 42.5455C296.487 42.9962 296.53 43.4536 296.618 43.9176C296.705 44.3816 296.822 44.8125 296.97 45.2102C297.118 45.608 297.282 45.9318 297.464 46.1818H296.873C296.527 45.6761 296.26 45.1231 296.072 44.5227C295.886 43.9205 295.794 43.2614 295.794 42.5455ZM305.174 42.5455C305.174 43.2614 305.081 43.9205 304.893 44.5227C304.708 45.1231 304.441 45.6761 304.095 46.1818H303.504C303.64 45.9943 303.767 45.7633 303.885 45.4886C304.004 45.2159 304.108 44.9167 304.197 44.5909C304.286 44.2633 304.355 43.9252 304.404 43.5767C304.456 43.2263 304.481 42.8826 304.481 42.5455C304.481 42.0947 304.438 41.6373 304.35 41.1733C304.263 40.7093 304.146 40.2784 303.998 39.8807C303.85 39.483 303.686 39.1591 303.504 38.9091H304.095C304.441 39.4148 304.708 39.9687 304.893 40.571C305.081 41.1714 305.174 41.8295 305.174 42.5455Z" fill="#505050" fill-opacity="0.8"/>
<path d="M297.982 45L298.948 39.1818H301.277C301.705 39.1818 302.052 39.2453 302.317 39.3722C302.584 39.4991 302.771 39.6752 302.877 39.9006C302.983 40.1241 303.011 40.3816 302.962 40.6733C302.922 40.9006 302.842 41.0994 302.721 41.2699C302.601 41.4403 302.453 41.5805 302.277 41.6903C302.101 41.8002 301.91 41.8778 301.703 41.9233L301.692 41.9801C301.912 41.9896 302.11 42.0521 302.286 42.1676C302.462 42.2812 302.594 42.4422 302.681 42.6506C302.768 42.8589 302.788 43.1061 302.74 43.392C302.689 43.7008 302.567 43.9763 302.374 44.2188C302.181 44.4593 301.923 44.6496 301.601 44.7898C301.281 44.9299 300.903 45 300.468 45H297.982ZM299.382 43.9943H300.385C300.726 43.9943 300.987 43.928 301.167 43.7955C301.346 43.6629 301.454 43.4877 301.49 43.2699C301.515 43.1089 301.499 42.9669 301.442 42.8438C301.387 42.7206 301.293 42.6241 301.161 42.554C301.03 42.4839 300.864 42.4489 300.664 42.4489H299.635L299.382 43.9943ZM299.777 41.6165H300.689C300.856 41.6165 301.01 41.5871 301.152 41.5284C301.296 41.4678 301.415 41.3826 301.507 41.2727C301.602 41.161 301.662 41.0294 301.686 40.8778C301.721 40.6657 301.673 40.4962 301.544 40.3693C301.417 40.2405 301.219 40.1761 300.948 40.1761H300.016L299.777 41.6165Z" fill="#505050"/>
<path d="M255 51L253.557 53.5L256.443 53.5L255 51ZM255 97L256.443 94.5L253.557 94.5L255 97ZM254.75 53.25L254.75 94.75L255.25 94.75L255.25 53.25L254.75 53.25Z" fill="#505050"/>
<path d="M248 43L248.747 45.7884L250.788 43.7471L248 43ZM254 49L253.253 46.2116L251.212 48.2529L254 49ZM249.414 44.7678L252.232 47.5858L252.586 47.2322L249.768 44.4142L249.414 44.7678Z" fill="#505050"/>
<path d="M218 100L220.5 101.443L220.5 98.5566L218 100ZM253 100L250.5 98.5566L250.5 101.443L253 100ZM220.25 100.25L250.75 100.25L250.75 99.75L220.25 99.75L220.25 100.25Z" fill="#505050"/>
<path d="M218.659 7.63636C218.659 8.58807 218.479 9.39773 218.118 10.0653C217.76 10.733 217.271 11.2429 216.652 11.5952C216.036 11.9446 215.343 12.1193 214.573 12.1193C213.797 12.1193 213.101 11.9432 212.485 11.5909C211.868 11.2386 211.381 10.7287 211.023 10.0611C210.665 9.39347 210.486 8.58523 210.486 7.63636C210.486 6.68466 210.665 5.875 211.023 5.20739C211.381 4.53977 211.868 4.03125 212.485 3.68182C213.101 3.32955 213.797 3.15341 214.573 3.15341C215.343 3.15341 216.036 3.32955 216.652 3.68182C217.271 4.03125 217.76 4.53977 218.118 5.20739C218.479 5.875 218.659 6.68466 218.659 7.63636ZM216.789 7.63636C216.789 7.01989 216.696 6.5 216.512 6.0767C216.33 5.65341 216.073 5.33239 215.74 5.11364C215.408 4.89489 215.019 4.78551 214.573 4.78551C214.127 4.78551 213.737 4.89489 213.405 5.11364C213.073 5.33239 212.814 5.65341 212.629 6.0767C212.448 6.5 212.357 7.01989 212.357 7.63636C212.357 8.25284 212.448 8.77273 212.629 9.19602C212.814 9.61932 213.073 9.94034 213.405 10.1591C213.737 10.3778 214.127 10.4872 214.573 10.4872C215.019 10.4872 215.408 10.3778 215.74 10.1591C216.073 9.94034 216.33 9.61932 216.512 9.19602C216.696 8.77273 216.789 8.25284 216.789 7.63636ZM224.189 9.21307V5.45455H226.005V12H224.262V10.8111H224.194C224.046 11.1946 223.8 11.5028 223.456 11.7358C223.116 11.9687 222.699 12.0852 222.208 12.0852C221.77 12.0852 221.385 11.9858 221.053 11.7869C220.721 11.5881 220.461 11.3054 220.273 10.9389C220.089 10.5724 219.995 10.1335 219.992 9.62216V5.45455H221.807V9.2983C221.81 9.68466 221.914 9.99006 222.118 10.2145C222.323 10.4389 222.597 10.5511 222.941 10.5511C223.16 10.5511 223.364 10.5014 223.555 10.402C223.745 10.2997 223.898 10.1491 224.015 9.95028C224.134 9.75142 224.192 9.50568 224.189 9.21307ZM230.938 5.45455V6.81818H226.997V5.45455H230.938ZM227.892 3.88636H229.707V9.98864C229.707 10.1562 229.732 10.2869 229.784 10.3807C229.835 10.4716 229.906 10.5355 229.997 10.5724C230.09 10.6094 230.198 10.6278 230.32 10.6278C230.406 10.6278 230.491 10.6207 230.576 10.6065C230.661 10.5895 230.727 10.5767 230.772 10.5682L231.058 11.919C230.967 11.9474 230.839 11.9801 230.674 12.017C230.509 12.0568 230.309 12.081 230.073 12.0895C229.636 12.1065 229.252 12.0483 228.923 11.9148C228.596 11.7812 228.342 11.5739 228.16 11.2926C227.978 11.0114 227.889 10.6562 227.892 10.2273V3.88636ZM232.121 14.4545V5.45455H233.911V6.55398H233.992C234.071 6.37784 234.186 6.19886 234.337 6.01705C234.49 5.83239 234.689 5.67898 234.933 5.55682C235.181 5.43182 235.487 5.36932 235.854 5.36932C236.331 5.36932 236.771 5.49432 237.175 5.74432C237.578 5.99148 237.901 6.36506 238.142 6.86506C238.384 7.36222 238.504 7.9858 238.504 8.7358C238.504 9.46591 238.387 10.0824 238.151 10.5852C237.918 11.0852 237.6 11.4645 237.196 11.723C236.796 11.9787 236.347 12.1065 235.85 12.1065C235.497 12.1065 235.198 12.0483 234.95 11.9318C234.706 11.8153 234.506 11.669 234.35 11.4929C234.193 11.3139 234.074 11.1335 233.992 10.9517H233.936V14.4545H232.121ZM233.898 8.72727C233.898 9.11648 233.952 9.45597 234.06 9.74574C234.168 10.0355 234.324 10.2614 234.529 10.4233C234.733 10.5824 234.982 10.6619 235.274 10.6619C235.57 10.6619 235.82 10.581 236.024 10.419C236.229 10.2543 236.384 10.027 236.489 9.73722C236.597 9.4446 236.651 9.10795 236.651 8.72727C236.651 8.34943 236.598 8.01705 236.493 7.73011C236.388 7.44318 236.233 7.21875 236.029 7.05682C235.824 6.89489 235.573 6.81392 235.274 6.81392C234.979 6.81392 234.729 6.89205 234.524 7.0483C234.323 7.20455 234.168 7.42614 234.06 7.71307C233.952 8 233.898 8.33807 233.898 8.72727ZM243.912 9.21307V5.45455H245.727V12H243.985V10.8111H243.916C243.769 11.1946 243.523 11.5028 243.179 11.7358C242.838 11.9687 242.422 12.0852 241.931 12.0852C241.493 12.0852 241.108 11.9858 240.776 11.7869C240.443 11.5881 240.183 11.3054 239.996 10.9389C239.811 10.5724 239.718 10.1335 239.715 9.62216V5.45455H241.53V9.2983C241.533 9.68466 241.637 9.99006 241.841 10.2145C242.046 10.4389 242.32 10.5511 242.664 10.5511C242.882 10.5511 243.087 10.5014 243.277 10.402C243.468 10.2997 243.621 10.1491 243.737 9.95028C243.857 9.75142 243.915 9.50568 243.912 9.21307ZM250.661 5.45455V6.81818H246.719V5.45455H250.661ZM247.614 3.88636H249.43V9.98864C249.43 10.1562 249.455 10.2869 249.506 10.3807C249.557 10.4716 249.628 10.5355 249.719 10.5724C249.813 10.6094 249.921 10.6278 250.043 10.6278C250.128 10.6278 250.214 10.6207 250.299 10.6065C250.384 10.5895 250.449 10.5767 250.495 10.5682L250.78 11.919C250.689 11.9474 250.562 11.9801 250.397 12.017C250.232 12.0568 250.032 12.081 249.796 12.0895C249.358 12.1065 248.975 12.0483 248.645 11.9148C248.319 11.7812 248.064 11.5739 247.883 11.2926C247.701 11.0114 247.611 10.6562 247.614 10.2273V3.88636Z" fill="#505050"/>
</svg>
