<svg width="410" height="275" viewBox="0 0 410 275" fill="none" xmlns="http://www.w3.org/2000/svg">
<g clip-path="url(#clip0_105_3079)">
<rect width="410" height="275" fill="white"/>
<rect x="24.5" y="63.5" width="313" height="80" rx="0.5" stroke="#4C4C4C" stroke-dasharray="2 2"/>
<rect x="0.5" y="-0.5" width="313" height="50" rx="0.5" transform="matrix(1 0 0 -1 24 197)" stroke="#4C4C4C" stroke-dasharray="2 2"/>
<path d="M120 61L124.33 53.5L115.67 53.5L120 61ZM119.25 39L119.25 54.25L120.75 54.25L120.75 39L119.25 39Z" fill="#DDDDDD"/>
<path d="M121 211L125.33 203.5L116.67 203.5L121 211ZM120.25 93L120.25 204.25L121.75 204.25L121.75 93L120.25 93Z" fill="#DDDDDD"/>
<path d="M30 211L34.3301 203.5L25.6699 203.5L30 211ZM29.25 40L29.25 204.25L30.75 204.25L30.75 40L29.25 40Z" fill="#DDDDDD"/>
<path d="M300 60L304.33 52.5L295.67 52.5L300 60ZM299.25 39L299.25 53.25L300.75 53.25L300.75 39L299.25 39Z" fill="#DDDDDD"/>
<path d="M301 113L305.33 105.5L296.67 105.5L301 113ZM300.25 93L300.25 106.25L301.75 106.25L301.75 93L300.25 93Z" fill="#DDDDDD"/>
<path d="M263 128L256.104 122.761L255.015 131.353L263 128ZM120.906 110.744L256.209 127.895L256.398 126.407L121.094 109.256L120.906 110.744Z" fill="#DDDDDD"/>
<path d="M301 211L305.33 203.5L296.67 203.5L301 211ZM300.25 150L300.25 204.25L301.75 204.25L301.75 150L300.25 150Z" fill="#DDDDDD"/>
<path d="M82 80L75.6657 74.0943L73.7184 82.5328L82 80ZM29.8314 68.7308L75.2542 79.213L75.5915 77.7514L30.1686 67.2692L29.8314 68.7308Z" fill="#DDDDDD"/>
<path d="M263 80L256.414 74.3766L254.837 82.8921L263 80ZM208.863 70.7375L256.226 79.5084L256.499 78.0334L209.137 69.2625L208.863 70.7375Z" fill="#DDDDDD"/>
<path d="M210 157L214.33 149.5L205.67 149.5L210 157ZM209.25 40L209.25 150.25L210.75 150.25L210.75 40L209.25 40Z" fill="#DDDDDD"/>
<path d="M209 211L213.33 203.5H204.67L209 211ZM208.25 184V204.25H209.75V184H208.25Z" fill="#DDDDDD"/>
<path d="M172 160L167.948 152.346L163.346 159.682L172 160ZM120.601 128.635L165.884 157.048L166.681 155.777L121.399 127.365L120.601 128.635Z" fill="#DDDDDD"/>
<rect x="5.80664" y="2.00002" width="48.1185" height="31.2732" rx="15.6366" fill="#F6ECEC" stroke="#BE3B3B" stroke-width="2"/>
<path d="M24.9052 13.2727L26.8271 16.4688H26.8952L28.8256 13.2727H30.6282L27.9393 17.6364L30.6708 22H28.8384L26.8952 18.8253H26.8271L24.8839 22H23.06L25.8171 17.6364L23.0941 13.2727H24.9052Z" fill="#BE3B3B"/>
<path d="M33.8828 27.1393C33.3478 27.1393 32.892 26.9937 32.5156 26.7025C32.1392 26.4089 31.8516 25.984 31.6527 25.4276C31.4538 24.8689 31.3544 24.1942 31.3544 23.4035C31.3544 22.6175 31.4538 21.9463 31.6527 21.39C31.8539 20.8313 32.1428 20.4051 32.5192 20.1116C32.898 19.8157 33.3525 19.6677 33.8828 19.6677C34.4131 19.6677 34.8665 19.8157 35.2429 20.1116C35.6217 20.4051 35.9105 20.8313 36.1094 21.39C36.3106 21.9463 36.4112 22.6175 36.4112 23.4035C36.4112 24.1942 36.3118 24.8689 36.1129 25.4276C35.9141 25.984 35.6264 26.4089 35.25 26.7025C34.8736 26.9937 34.4179 27.1393 33.8828 27.1393ZM33.8828 26.358C34.4131 26.358 34.825 26.1024 35.1186 25.591C35.4122 25.0796 35.5589 24.3505 35.5589 23.4035C35.5589 22.7738 35.4915 22.2375 35.3565 21.7948C35.224 21.3521 35.0322 21.0148 34.7812 20.7828C34.5327 20.5507 34.2332 20.4347 33.8828 20.4347C33.3572 20.4347 32.9465 20.694 32.6506 21.2124C32.3546 21.7285 32.2067 22.4589 32.2067 23.4035C32.2067 24.0332 32.273 24.5683 32.4055 25.0086C32.5381 25.4489 32.7287 25.7839 32.9773 26.0136C33.2282 26.2432 33.5301 26.358 33.8828 26.358Z" fill="#828282"/>
<rect y="214" width="58" height="31" rx="8" fill="#BAFBFF" stroke="#4C7477" stroke-width="2"/>
<path d="M23.396 234V225.273H24.9769V228.967H29.021V225.273H30.6062V234H29.021V230.293H24.9769V234H23.396Z" fill="#4C7477"/>
<path d="M35 238.099C34.465 238.099 34.0092 237.954 33.6328 237.663C33.2564 237.369 32.9688 236.944 32.7699 236.388C32.571 235.829 32.4716 235.154 32.4716 234.364C32.4716 233.578 32.571 232.906 32.7699 232.35C32.9711 231.791 33.2599 231.365 33.6364 231.072C34.0152 230.776 34.4697 230.628 35 230.628C35.5303 230.628 35.9837 230.776 36.3601 231.072C36.7389 231.365 37.0277 231.791 37.2266 232.35C37.4278 232.906 37.5284 233.578 37.5284 234.364C37.5284 235.154 37.429 235.829 37.2301 236.388C37.0312 236.944 36.7436 237.369 36.3672 237.663C35.9908 237.954 35.535 238.099 35 238.099ZM35 237.318C35.5303 237.318 35.9422 237.062 36.2358 236.551C36.5294 236.04 36.6761 235.311 36.6761 234.364C36.6761 233.734 36.6087 233.198 36.4737 232.755C36.3411 232.312 36.1494 231.975 35.8984 231.743C35.6499 231.511 35.3504 231.395 35 231.395C34.4744 231.395 34.0637 231.654 33.7678 232.173C33.4718 232.689 33.3239 233.419 33.3239 234.364C33.3239 234.993 33.3902 235.528 33.5227 235.969C33.6553 236.409 33.8459 236.744 34.0945 236.974C34.3454 237.203 34.6473 237.318 35 237.318Z" fill="#828282"/>
<rect x="91" y="214" width="58" height="31" rx="8" fill="#BAFBFF" stroke="#4C7477" stroke-width="2"/>
<path d="M114.396 234V225.273H115.977V228.967H120.021V225.273H121.606V234H120.021V230.293H115.977V234H114.396Z" fill="#4C7477"/>
<rect x="182" y="214" width="58" height="31" rx="8" fill="#BAFBFF" stroke="#4C7477" stroke-width="2"/>
<path d="M205.396 234V225.273H206.977V228.967H211.021V225.273H212.606V234H211.021V230.293H206.977V234H205.396Z" fill="#4C7477"/>
<path d="M214.725 238V237.361L217.126 234.733C217.408 234.425 217.64 234.158 217.822 233.93C218.004 233.701 218.139 233.485 218.227 233.284C218.317 233.08 218.362 232.867 218.362 232.645C218.362 232.389 218.3 232.168 218.177 231.981C218.056 231.794 217.891 231.649 217.68 231.548C217.469 231.446 217.233 231.395 216.97 231.395C216.69 231.395 216.447 231.453 216.238 231.569C216.032 231.683 215.873 231.842 215.759 232.048C215.648 232.254 215.592 232.496 215.592 232.773H214.754C214.754 232.347 214.852 231.973 215.049 231.651C215.245 231.329 215.513 231.078 215.851 230.898C216.192 230.718 216.574 230.628 216.998 230.628C217.424 230.628 217.802 230.718 218.131 230.898C218.46 231.078 218.718 231.32 218.905 231.626C219.092 231.931 219.186 232.271 219.186 232.645C219.186 232.912 219.137 233.174 219.04 233.43C218.945 233.683 218.78 233.966 218.543 234.278C218.309 234.589 217.983 234.967 217.566 235.415L215.933 237.162V237.219H219.314V238H214.725Z" fill="#828282"/>
<rect x="95.8066" y="2.00002" width="48.1185" height="31.2732" rx="15.6366" fill="#F6ECEC" stroke="#BE3B3B" stroke-width="2"/>
<path d="M114.905 13.2727L116.827 16.4688H116.895L118.826 13.2727H120.628L117.939 17.6364L120.671 22H118.838L116.895 18.8253H116.827L114.884 22H113.06L115.817 17.6364L113.094 13.2727H114.905Z" fill="#BE3B3B"/>
<path d="M124.868 19.7671V27.0399H123.988V20.6904H123.945L122.169 21.8694V20.9745L123.988 19.7671H124.868Z" fill="#828282"/>
<rect x="185.807" y="2.00002" width="48.1185" height="31.2732" rx="15.6366" fill="#F6ECEC" stroke="#BE3B3B" stroke-width="2"/>
<path d="M204.905 13.2727L206.827 16.4688H206.895L208.826 13.2727H210.628L207.939 17.6364L210.671 22H208.838L206.895 18.8253H206.827L204.884 22H203.06L205.817 17.6364L203.094 13.2727H204.905Z" fill="#BE3B3B"/>
<path d="M211.608 27.0399V26.4007L214.009 23.7728C214.291 23.465 214.523 23.1975 214.705 22.9703C214.887 22.7406 215.022 22.5252 215.11 22.3239C215.2 22.1203 215.245 21.9073 215.245 21.6847C215.245 21.4291 215.183 21.2077 215.06 21.0207C214.939 20.8337 214.774 20.6892 214.563 20.5874C214.352 20.4856 214.115 20.4347 213.853 20.4347C213.573 20.4347 213.329 20.4927 213.121 20.6087C212.915 20.7224 212.755 20.8822 212.642 21.0882C212.53 21.2941 212.475 21.5356 212.475 21.8126H211.637C211.637 21.3864 211.735 21.0124 211.931 20.6904C212.128 20.3685 212.395 20.1175 212.734 19.9376C213.075 19.7577 213.457 19.6677 213.881 19.6677C214.307 19.6677 214.685 19.7577 215.014 19.9376C215.343 20.1175 215.601 20.3602 215.788 20.6656C215.975 20.971 216.069 21.3107 216.069 21.6847C216.069 21.9523 216.02 22.2139 215.923 22.4695C215.828 22.7229 215.663 23.0058 215.426 23.3183C215.191 23.6284 214.866 24.0072 214.449 24.4546L212.816 26.2018V26.2586H216.196V27.0399H211.608Z" fill="#828282"/>
<rect x="275.807" y="2.00002" width="48.1185" height="31.2732" rx="15.6366" fill="#F6ECEC" stroke="#BE3B3B" stroke-width="2"/>
<path d="M294.905 13.2727L296.827 16.4688H296.895L298.826 13.2727H300.628L297.939 17.6364L300.671 22H298.838L296.895 18.8253H296.827L294.884 22H293.06L295.817 17.6364L293.094 13.2727H294.905Z" fill="#BE3B3B"/>
<path d="M303.909 27.1393C303.441 27.1393 303.023 27.0588 302.656 26.8978C302.291 26.7368 302.001 26.5131 301.786 26.2266C301.573 25.9378 301.457 25.6028 301.438 25.2217H302.333C302.352 25.456 302.432 25.6585 302.574 25.8289C302.716 25.997 302.902 26.1272 303.132 26.2195C303.361 26.3119 303.616 26.358 303.895 26.358C304.208 26.358 304.485 26.3036 304.726 26.1947C304.968 26.0858 305.157 25.9343 305.294 25.7401C305.432 25.546 305.5 25.3211 305.5 25.0654C305.5 24.7979 305.434 24.5623 305.301 24.3587C305.169 24.1528 304.975 23.9918 304.719 23.8758C304.463 23.7598 304.151 23.7018 303.782 23.7018H303.199V22.9205H303.782C304.07 22.9205 304.324 22.8685 304.542 22.7643C304.762 22.6601 304.933 22.5133 305.056 22.3239C305.182 22.1346 305.245 21.912 305.245 21.6563C305.245 21.4101 305.19 21.1959 305.081 21.0136C304.972 20.8313 304.819 20.6892 304.62 20.5874C304.423 20.4856 304.191 20.4347 303.924 20.4347C303.673 20.4347 303.436 20.4809 303.213 20.5732C302.993 20.6632 302.813 20.7946 302.674 20.9674C302.534 21.1379 302.458 21.3438 302.446 21.5853H301.594C301.608 21.2042 301.723 20.8703 301.939 20.5839C302.154 20.2951 302.436 20.0702 302.784 19.9092C303.134 19.7482 303.519 19.6677 303.938 19.6677C304.388 19.6677 304.774 19.7588 305.096 19.9411C305.417 20.1211 305.665 20.359 305.838 20.6549C306.011 20.9508 306.097 21.2704 306.097 21.6137C306.097 22.0233 305.989 22.3725 305.774 22.6613C305.561 22.9501 305.271 23.1502 304.904 23.2614V23.3183C305.363 23.394 305.722 23.5893 305.98 23.9042C306.238 24.2167 306.367 24.6038 306.367 25.0654C306.367 25.4608 306.259 25.8159 306.044 26.1308C305.831 26.4433 305.539 26.6895 305.17 26.8694C304.801 27.0493 304.381 27.1393 303.909 27.1393Z" fill="#828282"/>
<rect x="273" y="214" width="58" height="31" rx="8" fill="#BAFBFF" stroke="#4C7477" stroke-width="2"/>
<path d="M296.396 234V225.273H297.977V228.967H302.021V225.273H303.606V234H302.021V230.293H297.977V234H296.396Z" fill="#4C7477"/>
<path d="M308.027 238.099C307.558 238.099 307.14 238.019 306.773 237.858C306.408 237.697 306.118 237.473 305.903 237.187C305.69 236.898 305.574 236.563 305.555 236.182H306.45C306.469 236.416 306.549 236.619 306.691 236.789C306.833 236.957 307.019 237.087 307.249 237.18C307.479 237.272 307.733 237.318 308.012 237.318C308.325 237.318 308.602 237.264 308.843 237.155C309.085 237.046 309.274 236.894 309.412 236.7C309.549 236.506 309.618 236.281 309.618 236.026C309.618 235.758 309.551 235.522 309.419 235.319C309.286 235.113 309.092 234.952 308.836 234.836C308.581 234.72 308.268 234.662 307.899 234.662H307.316V233.881H307.899C308.188 233.881 308.441 233.829 308.659 233.724C308.879 233.62 309.051 233.473 309.174 233.284C309.299 233.095 309.362 232.872 309.362 232.616C309.362 232.37 309.307 232.156 309.199 231.974C309.09 231.791 308.936 231.649 308.737 231.548C308.54 231.446 308.308 231.395 308.041 231.395C307.79 231.395 307.553 231.441 307.331 231.533C307.11 231.623 306.931 231.755 306.791 231.928C306.651 232.098 306.575 232.304 306.564 232.545H305.711C305.725 232.164 305.84 231.83 306.056 231.544C306.271 231.255 306.553 231.03 306.901 230.869C307.251 230.708 307.636 230.628 308.055 230.628C308.505 230.628 308.891 230.719 309.213 230.901C309.535 231.081 309.782 231.319 309.955 231.615C310.128 231.911 310.214 232.231 310.214 232.574C310.214 232.983 310.106 233.333 309.891 233.621C309.678 233.91 309.388 234.11 309.021 234.222V234.278C309.48 234.354 309.839 234.549 310.097 234.864C310.355 235.177 310.484 235.564 310.484 236.026C310.484 236.421 310.376 236.776 310.161 237.091C309.948 237.403 309.657 237.65 309.287 237.83C308.918 238.009 308.498 238.099 308.027 238.099Z" fill="#828282"/>
<rect x="86.5" y="67.5" width="66" height="23" rx="0.5" fill="#D9D9D9" fill-opacity="0.5" stroke="#4C4C4C"/>
<path d="M128.03 81.892V76.8636H129.302V81.892H128.03ZM126.152 80.0135V78.7422H131.18V80.0135H126.152ZM135.011 83V75.7273H137.923C138.458 75.7273 138.904 75.8066 139.262 75.9652C139.619 76.1238 139.888 76.344 140.068 76.6257C140.248 76.9051 140.338 77.227 140.338 77.5916C140.338 77.8757 140.281 78.1255 140.167 78.3409C140.054 78.554 139.897 78.7292 139.699 78.8665C139.502 79.0014 139.277 79.0973 139.024 79.1541V79.2251C139.301 79.237 139.56 79.3151 139.801 79.4595C140.045 79.6039 140.243 79.8063 140.395 80.0668C140.546 80.3248 140.622 80.6326 140.622 80.9901C140.622 81.3759 140.526 81.7204 140.334 82.0234C140.145 82.3241 139.864 82.562 139.493 82.7372C139.121 82.9124 138.663 83 138.118 83H135.011ZM136.549 81.7429H137.802C138.231 81.7429 138.543 81.6612 138.74 81.4979C138.936 81.3321 139.034 81.112 139.034 80.8374C139.034 80.6361 138.986 80.4586 138.889 80.3047C138.792 80.1508 138.653 80.0301 138.473 79.9425C138.296 79.8549 138.084 79.8111 137.838 79.8111H136.549V81.7429ZM136.549 78.7706H137.689C137.899 78.7706 138.086 78.7339 138.25 78.6605C138.415 78.5848 138.546 78.4782 138.64 78.3409C138.737 78.2036 138.786 78.0391 138.786 77.8473C138.786 77.5845 138.692 77.3726 138.505 77.2116C138.321 77.0507 138.058 76.9702 137.717 76.9702H136.549V78.7706ZM142.858 77.5455L143.86 79.4524L144.886 77.5455H146.438L144.857 80.2727L146.48 83H144.936L143.86 81.1143L142.801 83H141.239L142.858 80.2727L141.296 77.5455H142.858Z" fill="#4C4C4C"/>
<rect x="90.5455" y="70.5455" width="31.6364" height="16.9091" rx="4.36364" fill="#BAFBFF" stroke="#4C7477" stroke-width="1.09091"/>
<path d="M102.27 83V75.7273H103.587V78.8061H106.957V75.7273H108.278V83H106.957V79.9105H103.587V83H102.27Z" fill="#4C7477"/>
<path d="M110.636 85.787C110.315 85.787 110.042 85.6996 109.816 85.5249C109.59 85.3487 109.417 85.0938 109.298 84.76C109.179 84.4247 109.119 84.0199 109.119 83.5455C109.119 83.0739 109.179 82.6712 109.298 82.3374C109.419 82.0022 109.592 81.7465 109.818 81.5703C110.045 81.3928 110.318 81.304 110.636 81.304C110.954 81.304 111.226 81.3928 111.452 81.5703C111.68 81.7465 111.853 82.0022 111.972 82.3374C112.093 82.6712 112.153 83.0739 112.153 83.5455C112.153 84.0199 112.094 84.4247 111.974 84.76C111.855 85.0938 111.682 85.3487 111.457 85.5249C111.231 85.6996 110.957 85.787 110.636 85.787ZM110.636 85.3182C110.954 85.3182 111.202 85.1648 111.378 84.858C111.554 84.5512 111.642 84.1137 111.642 83.5455C111.642 83.1676 111.601 82.8459 111.52 82.5803C111.441 82.3147 111.326 82.1122 111.175 81.973C111.026 81.8338 110.846 81.7642 110.636 81.7642C110.321 81.7642 110.074 81.9198 109.897 82.2308C109.719 82.5405 109.631 82.9787 109.631 83.5455C109.631 83.9233 109.67 84.2443 109.75 84.5085C109.829 84.7727 109.944 84.9737 110.093 85.1115C110.243 85.2493 110.425 85.3182 110.636 85.3182Z" fill="#828282"/>
<path d="M348.062 101.638C348.024 101.302 347.867 101.041 347.593 100.857C347.318 100.67 346.973 100.576 346.556 100.576C346.258 100.576 345.999 100.623 345.782 100.718C345.564 100.81 345.395 100.938 345.274 101.102C345.156 101.263 345.096 101.446 345.096 101.652C345.096 101.825 345.137 101.974 345.217 102.099C345.3 102.225 345.408 102.33 345.54 102.415C345.675 102.498 345.82 102.568 345.973 102.625C346.127 102.679 346.275 102.724 346.417 102.76L347.128 102.945C347.36 103.001 347.598 103.078 347.841 103.175C348.085 103.272 348.311 103.4 348.52 103.559C348.728 103.718 348.896 103.914 349.024 104.148C349.154 104.383 349.219 104.663 349.219 104.99C349.219 105.402 349.113 105.768 348.9 106.087C348.689 106.407 348.382 106.659 347.98 106.844C347.58 107.028 347.096 107.121 346.527 107.121C345.983 107.121 345.512 107.034 345.114 106.862C344.716 106.689 344.405 106.444 344.18 106.126C343.955 105.807 343.831 105.428 343.807 104.99H344.908C344.929 105.253 345.015 105.472 345.164 105.647C345.315 105.82 345.508 105.949 345.743 106.034C345.979 106.117 346.239 106.158 346.52 106.158C346.83 106.158 347.106 106.11 347.348 106.013C347.592 105.913 347.783 105.776 347.923 105.601C348.063 105.423 348.133 105.216 348.133 104.979C348.133 104.764 348.071 104.588 347.948 104.45C347.827 104.313 347.663 104.199 347.454 104.109C347.248 104.019 347.015 103.94 346.755 103.871L345.895 103.637C345.313 103.478 344.851 103.245 344.51 102.938C344.172 102.63 344.003 102.223 344.003 101.716C344.003 101.297 344.116 100.931 344.343 100.619C344.571 100.306 344.879 100.063 345.267 99.8906C345.655 99.7154 346.093 99.6278 346.581 99.6278C347.073 99.6278 347.508 99.7143 347.884 99.8871C348.263 100.06 348.561 100.298 348.779 100.601C348.997 100.902 349.11 101.247 349.12 101.638H348.062ZM351.628 107L350.023 101.545H351.12L352.189 105.551H352.242L353.315 101.545H354.412L355.477 105.533H355.53L356.592 101.545H357.69L356.088 107H355.005L353.897 103.062H353.815L352.707 107H351.628ZM360.882 107.11C360.345 107.11 359.882 106.995 359.494 106.766C359.108 106.534 358.809 106.208 358.599 105.789C358.39 105.368 358.286 104.874 358.286 104.308C358.286 103.75 358.39 103.257 358.599 102.831C358.809 102.405 359.103 102.072 359.479 101.833C359.858 101.594 360.301 101.474 360.807 101.474C361.115 101.474 361.414 101.525 361.702 101.627C361.991 101.729 362.25 101.889 362.48 102.107C362.71 102.324 362.891 102.607 363.023 102.955C363.156 103.301 363.222 103.721 363.222 104.216V104.592H358.886V103.797H362.182C362.182 103.518 362.125 103.27 362.011 103.055C361.898 102.837 361.738 102.665 361.532 102.54C361.328 102.414 361.089 102.352 360.815 102.352C360.516 102.352 360.256 102.425 360.033 102.572C359.813 102.716 359.643 102.906 359.522 103.14C359.404 103.372 359.344 103.624 359.344 103.896V104.518C359.344 104.882 359.408 105.192 359.536 105.448C359.666 105.704 359.847 105.899 360.079 106.034C360.311 106.167 360.583 106.233 360.893 106.233C361.094 106.233 361.277 106.205 361.443 106.148C361.609 106.089 361.752 106.001 361.873 105.885C361.994 105.769 362.086 105.626 362.15 105.455L363.155 105.636C363.074 105.932 362.93 106.192 362.722 106.414C362.516 106.634 362.256 106.806 361.944 106.929C361.634 107.05 361.28 107.11 360.882 107.11ZM366.751 107.11C366.214 107.11 365.751 106.995 365.363 106.766C364.977 106.534 364.678 106.208 364.468 105.789C364.259 105.368 364.155 104.874 364.155 104.308C364.155 103.75 364.259 103.257 364.468 102.831C364.678 102.405 364.972 102.072 365.348 101.833C365.727 101.594 366.17 101.474 366.677 101.474C366.984 101.474 367.283 101.525 367.571 101.627C367.86 101.729 368.12 101.889 368.349 102.107C368.579 102.324 368.76 102.607 368.892 102.955C369.025 103.301 369.091 103.721 369.091 104.216V104.592H364.755V103.797H368.051C368.051 103.518 367.994 103.27 367.88 103.055C367.767 102.837 367.607 102.665 367.401 102.54C367.197 102.414 366.958 102.352 366.684 102.352C366.385 102.352 366.125 102.425 365.902 102.572C365.682 102.716 365.512 102.906 365.391 103.14C365.273 103.372 365.214 103.624 365.214 103.896V104.518C365.214 104.882 365.277 105.192 365.405 105.448C365.535 105.704 365.717 105.899 365.949 106.034C366.181 106.167 366.452 106.233 366.762 106.233C366.963 106.233 367.147 106.205 367.312 106.148C367.478 106.089 367.621 106.001 367.742 105.885C367.863 105.769 367.955 105.626 368.019 105.455L369.024 105.636C368.943 105.932 368.799 106.192 368.591 106.414C368.385 106.634 368.125 106.806 367.813 106.929C367.503 107.05 367.149 107.11 366.751 107.11ZM370.269 109.045V101.545H371.306V102.43H371.395C371.457 102.316 371.545 102.185 371.661 102.036C371.777 101.886 371.938 101.756 372.144 101.645C372.35 101.531 372.623 101.474 372.961 101.474C373.402 101.474 373.795 101.586 374.14 101.808C374.486 102.031 374.757 102.352 374.953 102.771C375.152 103.19 375.252 103.694 375.252 104.283C375.252 104.873 375.153 105.378 374.957 105.8C374.76 106.219 374.491 106.542 374.147 106.769C373.804 106.994 373.412 107.107 372.972 107.107C372.64 107.107 372.369 107.051 372.159 106.94C371.95 106.828 371.787 106.698 371.669 106.549C371.55 106.4 371.459 106.267 371.395 106.151H371.331V109.045H370.269ZM371.31 104.273C371.31 104.656 371.366 104.992 371.477 105.281C371.588 105.57 371.749 105.796 371.96 105.96C372.17 106.121 372.429 106.201 372.734 106.201C373.051 106.201 373.316 106.117 373.529 105.949C373.742 105.778 373.903 105.548 374.012 105.256C374.124 104.965 374.179 104.637 374.179 104.273C374.179 103.913 374.125 103.59 374.016 103.303C373.909 103.017 373.748 102.791 373.533 102.625C373.32 102.459 373.054 102.376 372.734 102.376C372.426 102.376 372.166 102.456 371.953 102.614C371.742 102.773 371.582 102.994 371.473 103.278C371.364 103.562 371.31 103.894 371.31 104.273ZM379.655 103.467V104.386H376.431V103.467H379.655ZM383.112 107.107C382.672 107.107 382.279 106.994 381.933 106.769C381.59 106.542 381.32 106.219 381.123 105.8C380.929 105.378 380.832 104.873 380.832 104.283C380.832 103.694 380.931 103.19 381.127 102.771C381.326 102.352 381.598 102.031 381.944 101.808C382.289 101.586 382.681 101.474 383.119 101.474C383.458 101.474 383.73 101.531 383.936 101.645C384.144 101.756 384.305 101.886 384.419 102.036C384.535 102.185 384.625 102.316 384.689 102.43H384.753V99.7273H385.815V107H384.778V106.151H384.689C384.625 106.267 384.533 106.4 384.412 106.549C384.293 106.698 384.13 106.828 383.922 106.94C383.713 107.051 383.444 107.107 383.112 107.107ZM383.347 106.201C383.652 106.201 383.91 106.121 384.121 105.96C384.334 105.796 384.495 105.57 384.604 105.281C384.715 104.992 384.771 104.656 384.771 104.273C384.771 103.894 384.716 103.562 384.607 103.278C384.498 102.994 384.338 102.773 384.128 102.614C383.917 102.456 383.657 102.376 383.347 102.376C383.027 102.376 382.761 102.459 382.547 102.625C382.334 102.791 382.173 103.017 382.065 103.303C381.958 103.59 381.905 103.913 381.905 104.273C381.905 104.637 381.959 104.965 382.068 105.256C382.177 105.548 382.338 105.778 382.551 105.949C382.766 106.117 383.032 106.201 383.347 106.201ZM389.628 107.11C389.116 107.11 388.67 106.993 388.289 106.759C387.908 106.524 387.612 106.196 387.401 105.775C387.19 105.353 387.085 104.861 387.085 104.298C387.085 103.732 387.19 103.237 387.401 102.813C387.612 102.389 387.908 102.06 388.289 101.826C388.67 101.592 389.116 101.474 389.628 101.474C390.139 101.474 390.585 101.592 390.966 101.826C391.348 102.06 391.643 102.389 391.854 102.813C392.065 103.237 392.17 103.732 392.17 104.298C392.17 104.861 392.065 105.353 391.854 105.775C391.643 106.196 391.348 106.524 390.966 106.759C390.585 106.993 390.139 107.11 389.628 107.11ZM389.631 106.219C389.963 106.219 390.237 106.131 390.455 105.956C390.673 105.781 390.834 105.548 390.938 105.256C391.044 104.965 391.098 104.644 391.098 104.294C391.098 103.946 391.044 103.626 390.938 103.335C390.834 103.042 390.673 102.806 390.455 102.629C390.237 102.451 389.963 102.362 389.631 102.362C389.297 102.362 389.02 102.451 388.8 102.629C388.582 102.806 388.42 103.042 388.314 103.335C388.209 103.626 388.157 103.946 388.157 104.294C388.157 104.644 388.209 104.965 388.314 105.256C388.42 105.548 388.582 105.781 388.8 105.956C389.02 106.131 389.297 106.219 389.631 106.219ZM394.372 107L392.767 101.545H393.864L394.933 105.551H394.986L396.059 101.545H397.156L398.221 105.533H398.275L399.336 101.545H400.434L398.832 107H397.749L396.641 103.062H396.559L395.451 107H394.372ZM402.503 103.761V107H401.441V101.545H402.46V102.433H402.528C402.653 102.144 402.85 101.912 403.117 101.737C403.387 101.562 403.727 101.474 404.137 101.474C404.508 101.474 404.834 101.553 405.113 101.709C405.393 101.863 405.609 102.092 405.763 102.398C405.917 102.703 405.994 103.081 405.994 103.531V107H404.932V103.658C404.932 103.263 404.829 102.954 404.623 102.732C404.417 102.507 404.134 102.394 403.774 102.394C403.528 102.394 403.309 102.447 403.117 102.554C402.928 102.661 402.778 102.817 402.666 103.023C402.558 103.226 402.503 103.473 402.503 103.761Z" fill="#4C4C4C"/>
<path d="M348.176 171.638C348.138 171.302 347.982 171.041 347.707 170.857C347.432 170.67 347.087 170.576 346.67 170.576C346.372 170.576 346.114 170.623 345.896 170.718C345.678 170.81 345.509 170.938 345.388 171.102C345.27 171.263 345.211 171.446 345.211 171.652C345.211 171.825 345.251 171.974 345.331 172.099C345.414 172.225 345.522 172.33 345.654 172.415C345.789 172.498 345.934 172.568 346.088 172.625C346.242 172.679 346.39 172.724 346.532 172.76L347.242 172.945C347.474 173.001 347.712 173.078 347.956 173.175C348.199 173.272 348.426 173.4 348.634 173.559C348.842 173.718 349.01 173.914 349.138 174.148C349.268 174.383 349.333 174.663 349.333 174.99C349.333 175.402 349.227 175.768 349.014 176.087C348.803 176.407 348.497 176.659 348.094 176.844C347.694 177.028 347.21 177.121 346.642 177.121C346.097 177.121 345.626 177.034 345.228 176.862C344.831 176.689 344.519 176.444 344.294 176.126C344.069 175.807 343.945 175.428 343.922 174.99H345.022C345.044 175.253 345.129 175.472 345.278 175.647C345.43 175.82 345.623 175.949 345.857 176.034C346.094 176.117 346.353 176.158 346.635 176.158C346.945 176.158 347.221 176.11 347.462 176.013C347.706 175.913 347.898 175.776 348.037 175.601C348.177 175.423 348.247 175.216 348.247 174.979C348.247 174.764 348.185 174.588 348.062 174.45C347.941 174.313 347.777 174.199 347.569 174.109C347.363 174.019 347.129 173.94 346.869 173.871L346.01 173.637C345.427 173.478 344.966 173.245 344.625 172.938C344.286 172.63 344.117 172.223 344.117 171.716C344.117 171.297 344.23 170.931 344.458 170.619C344.685 170.306 344.993 170.063 345.381 169.891C345.769 169.715 346.207 169.628 346.695 169.628C347.187 169.628 347.622 169.714 347.998 169.887C348.377 170.06 348.675 170.298 348.893 170.601C349.111 170.902 349.225 171.247 349.234 171.638H348.176ZM351.742 177L350.137 171.545H351.234L352.303 175.551H352.356L353.429 171.545H354.526L355.591 175.533H355.645L356.706 171.545H357.804L356.202 177H355.119L354.011 173.062H353.93L352.822 177H351.742ZM360.996 177.11C360.459 177.11 359.996 176.995 359.608 176.766C359.222 176.534 358.924 176.208 358.713 175.789C358.505 175.368 358.4 174.874 358.4 174.308C358.4 173.75 358.505 173.257 358.713 172.831C358.924 172.405 359.217 172.072 359.594 171.833C359.972 171.594 360.415 171.474 360.922 171.474C361.229 171.474 361.528 171.525 361.817 171.627C362.105 171.729 362.365 171.889 362.594 172.107C362.824 172.324 363.005 172.607 363.138 172.955C363.27 173.301 363.336 173.721 363.336 174.216V174.592H359.001V173.797H362.296C362.296 173.518 362.239 173.27 362.126 173.055C362.012 172.837 361.852 172.665 361.646 172.54C361.443 172.414 361.203 172.352 360.929 172.352C360.631 172.352 360.37 172.425 360.148 172.572C359.927 172.716 359.757 172.906 359.636 173.14C359.518 173.372 359.459 173.624 359.459 173.896V174.518C359.459 174.882 359.523 175.192 359.65 175.448C359.781 175.704 359.962 175.899 360.194 176.034C360.426 176.167 360.697 176.233 361.007 176.233C361.208 176.233 361.392 176.205 361.557 176.148C361.723 176.089 361.866 176.001 361.987 175.885C362.108 175.769 362.2 175.626 362.264 175.455L363.269 175.636C363.189 175.932 363.044 176.192 362.836 176.414C362.63 176.634 362.371 176.806 362.058 176.929C361.748 177.05 361.394 177.11 360.996 177.11ZM366.865 177.11C366.328 177.11 365.865 176.995 365.477 176.766C365.091 176.534 364.793 176.208 364.582 175.789C364.374 175.368 364.27 174.874 364.27 174.308C364.27 173.75 364.374 173.257 364.582 172.831C364.793 172.405 365.086 172.072 365.463 171.833C365.842 171.594 366.284 171.474 366.791 171.474C367.099 171.474 367.397 171.525 367.686 171.627C367.975 171.729 368.234 171.889 368.463 172.107C368.693 172.324 368.874 172.607 369.007 172.955C369.139 173.301 369.206 173.721 369.206 174.216V174.592H364.87V173.797H368.165C368.165 173.518 368.108 173.27 367.995 173.055C367.881 172.837 367.721 172.665 367.515 172.54C367.312 172.414 367.073 172.352 366.798 172.352C366.5 172.352 366.239 172.425 366.017 172.572C365.797 172.716 365.626 172.906 365.505 173.14C365.387 173.372 365.328 173.624 365.328 173.896V174.518C365.328 174.882 365.392 175.192 365.52 175.448C365.65 175.704 365.831 175.899 366.063 176.034C366.295 176.167 366.566 176.233 366.876 176.233C367.077 176.233 367.261 176.205 367.426 176.148C367.592 176.089 367.735 176.001 367.856 175.885C367.977 175.769 368.069 175.626 368.133 175.455L369.138 175.636C369.058 175.932 368.913 176.192 368.705 176.414C368.499 176.634 368.24 176.806 367.927 176.929C367.617 177.05 367.263 177.11 366.865 177.11ZM370.384 179.045V171.545H371.421V172.43H371.509C371.571 172.316 371.66 172.185 371.776 172.036C371.892 171.886 372.053 171.756 372.259 171.645C372.465 171.531 372.737 171.474 373.075 171.474C373.516 171.474 373.909 171.586 374.254 171.808C374.6 172.031 374.871 172.352 375.068 172.771C375.267 173.19 375.366 173.694 375.366 174.283C375.366 174.873 375.268 175.378 375.071 175.8C374.875 176.219 374.605 176.542 374.262 176.769C373.918 176.994 373.526 177.107 373.086 177.107C372.755 177.107 372.484 177.051 372.273 176.94C372.065 176.828 371.901 176.698 371.783 176.549C371.664 176.4 371.573 176.267 371.509 176.151H371.445V179.045H370.384ZM371.424 174.273C371.424 174.656 371.48 174.992 371.591 175.281C371.702 175.57 371.863 175.796 372.074 175.96C372.285 176.121 372.543 176.201 372.848 176.201C373.165 176.201 373.431 176.117 373.644 175.949C373.857 175.778 374.018 175.548 374.127 175.256C374.238 174.965 374.294 174.637 374.294 174.273C374.294 173.913 374.239 173.59 374.13 173.303C374.024 173.017 373.863 172.791 373.647 172.625C373.434 172.459 373.168 172.376 372.848 172.376C372.54 172.376 372.28 172.456 372.067 172.614C371.856 172.773 371.696 172.994 371.588 173.278C371.479 173.562 371.424 173.894 371.424 174.273ZM379.769 173.467V174.386H376.545V173.467H379.769ZM384.64 174.738V171.545H385.705V177H384.661V176.055H384.604C384.479 176.347 384.278 176.589 384.001 176.783C383.726 176.975 383.384 177.071 382.974 177.071C382.624 177.071 382.314 176.994 382.044 176.84C381.776 176.684 381.566 176.453 381.412 176.148C381.26 175.842 381.184 175.465 381.184 175.015V171.545H382.246V174.887C382.246 175.259 382.349 175.555 382.555 175.775C382.761 175.995 383.029 176.105 383.358 176.105C383.557 176.105 383.754 176.055 383.951 175.956C384.15 175.857 384.314 175.706 384.444 175.505C384.577 175.304 384.642 175.048 384.64 174.738ZM387.132 179.045V171.545H388.169V172.43H388.257C388.319 172.316 388.408 172.185 388.524 172.036C388.64 171.886 388.801 171.756 389.007 171.645C389.213 171.531 389.485 171.474 389.824 171.474C390.264 171.474 390.657 171.586 391.002 171.808C391.348 172.031 391.619 172.352 391.816 172.771C392.015 173.19 392.114 173.694 392.114 174.283C392.114 174.873 392.016 175.378 391.819 175.8C391.623 176.219 391.353 176.542 391.01 176.769C390.666 176.994 390.275 177.107 389.834 177.107C389.503 177.107 389.232 177.051 389.021 176.94C388.813 176.828 388.649 176.698 388.531 176.549C388.413 176.4 388.321 176.267 388.257 176.151H388.194V179.045H387.132ZM388.172 174.273C388.172 174.656 388.228 174.992 388.339 175.281C388.45 175.57 388.611 175.796 388.822 175.96C389.033 176.121 389.291 176.201 389.596 176.201C389.913 176.201 390.179 176.117 390.392 175.949C390.605 175.778 390.766 175.548 390.875 175.256C390.986 174.965 391.042 174.637 391.042 174.273C391.042 173.913 390.987 173.59 390.878 173.303C390.772 173.017 390.611 172.791 390.395 172.625C390.182 172.459 389.916 172.376 389.596 172.376C389.288 172.376 389.028 172.456 388.815 172.614C388.604 172.773 388.444 172.994 388.336 173.278C388.227 173.562 388.172 173.894 388.172 174.273Z" fill="#4C4C4C"/>
<path d="M149.091 80.6364V85H148.563V81.1903H148.537L147.472 81.8977V81.3608L148.563 80.6364H149.091Z" fill="#828282"/>
<rect x="266.5" y="67.5" width="66" height="23" rx="0.5" fill="#D9D9D9" fill-opacity="0.5" stroke="#4C4C4C"/>
<path d="M282.066 83V75.7273H284.978C285.513 75.7273 285.959 75.8066 286.316 75.9652C286.674 76.1238 286.943 76.344 287.123 76.6257C287.302 76.9051 287.392 77.227 287.392 77.5916C287.392 77.8757 287.336 78.1255 287.222 78.3409C287.108 78.554 286.952 78.7292 286.753 78.8665C286.557 79.0014 286.332 79.0973 286.078 79.1541V79.2251C286.355 79.237 286.615 79.3151 286.856 79.4595C287.1 79.6039 287.298 79.8063 287.449 80.0668C287.601 80.3248 287.676 80.6326 287.676 80.9901C287.676 81.3759 287.581 81.7204 287.389 82.0234C287.199 82.3241 286.919 82.562 286.547 82.7372C286.176 82.9124 285.717 83 285.173 83H282.066ZM283.603 81.7429H284.857C285.285 81.7429 285.598 81.6612 285.794 81.4979C285.991 81.3321 286.089 81.112 286.089 80.8374C286.089 80.6361 286.041 80.4586 285.944 80.3047C285.846 80.1508 285.708 80.0301 285.528 79.9425C285.35 79.8549 285.139 79.8111 284.892 79.8111H283.603V81.7429ZM283.603 78.7706H284.743C284.954 78.7706 285.141 78.7339 285.304 78.6605C285.47 78.5848 285.6 78.4782 285.695 78.3409C285.792 78.2036 285.841 78.0391 285.841 77.8473C285.841 77.5845 285.747 77.3726 285.56 77.2116C285.375 77.0507 285.113 76.9702 284.772 76.9702H283.603V78.7706ZM289.913 77.5455L290.914 79.4524L291.941 77.5455H293.492L291.912 80.2727L293.535 83H291.99L290.914 81.1143L289.856 83H288.294L289.913 80.2727L288.35 77.5455H289.913ZM298.864 81.892V76.8636H300.136V81.892H298.864ZM296.986 80.0135V78.7422H302.014V80.0135H296.986ZM305.845 83V75.7273H308.757C309.292 75.7273 309.738 75.8066 310.096 75.9652C310.453 76.1238 310.722 76.344 310.902 76.6257C311.082 76.9051 311.172 77.227 311.172 77.5916C311.172 77.8757 311.115 78.1255 311.001 78.3409C310.888 78.554 310.731 78.7292 310.532 78.8665C310.336 79.0014 310.111 79.0973 309.858 79.1541V79.2251C310.135 79.237 310.394 79.3151 310.635 79.4595C310.879 79.6039 311.077 79.8063 311.229 80.0668C311.38 80.3248 311.456 80.6326 311.456 80.9901C311.456 81.3759 311.36 81.7204 311.168 82.0234C310.979 82.3241 310.698 82.562 310.327 82.7372C309.955 82.9124 309.497 83 308.952 83H305.845ZM307.383 81.7429H308.636C309.065 81.7429 309.377 81.6612 309.574 81.4979C309.77 81.3321 309.868 81.112 309.868 80.8374C309.868 80.6361 309.82 80.4586 309.723 80.3047C309.626 80.1508 309.487 80.0301 309.307 79.9425C309.13 79.8549 308.918 79.8111 308.672 79.8111H307.383V81.7429ZM307.383 78.7706H308.523C308.733 78.7706 308.92 78.7339 309.084 78.6605C309.249 78.5848 309.38 78.4782 309.474 78.3409C309.571 78.2036 309.62 78.0391 309.62 77.8473C309.62 77.5845 309.526 77.3726 309.339 77.2116C309.155 77.0507 308.892 76.9702 308.551 76.9702H307.383V78.7706ZM313.692 77.5455L314.694 79.4524L315.72 77.5455H317.272L315.691 80.2727L317.314 83H315.77L314.694 81.1143L313.635 83H312.073L313.692 80.2727L312.13 77.5455H313.692Z" fill="#4C4C4C"/>
<path d="M294.635 86V85.6165L296.076 84.0398C296.245 83.8551 296.384 83.6946 296.493 83.5582C296.603 83.4205 296.684 83.2912 296.736 83.1705C296.79 83.0483 296.817 82.9205 296.817 82.7869C296.817 82.6335 296.78 82.5007 296.706 82.3885C296.634 82.2763 296.534 82.1896 296.408 82.1286C296.282 82.0675 296.14 82.0369 295.982 82.0369C295.814 82.0369 295.668 82.0717 295.543 82.1413C295.419 82.2095 295.324 82.3054 295.255 82.429C295.189 82.5526 295.155 82.6974 295.155 82.8636H294.652C294.652 82.608 294.711 82.3835 294.829 82.1903C294.947 81.9972 295.108 81.8466 295.311 81.7386C295.515 81.6307 295.745 81.5767 295.999 81.5767C296.255 81.5767 296.481 81.6307 296.679 81.7386C296.876 81.8466 297.031 81.9922 297.143 82.1754C297.255 82.3587 297.311 82.5625 297.311 82.7869C297.311 82.9474 297.282 83.1044 297.224 83.2578C297.167 83.4098 297.068 83.5795 296.926 83.767C296.785 83.9531 296.59 84.1804 296.34 84.4489L295.36 85.4972V85.5312H297.388V86H294.635Z" fill="#828282"/>
<path d="M320.016 86.0597C319.735 86.0597 319.484 86.0114 319.264 85.9148C319.045 85.8182 318.871 85.6839 318.742 85.5121C318.614 85.3388 318.544 85.1378 318.533 84.9091H319.07C319.081 85.0497 319.13 85.1712 319.215 85.2734C319.3 85.3743 319.412 85.4524 319.549 85.5078C319.687 85.5632 319.84 85.5909 320.007 85.5909C320.195 85.5909 320.361 85.5582 320.506 85.4929C320.651 85.4276 320.765 85.3366 320.847 85.2202C320.929 85.1037 320.971 84.9688 320.971 84.8153C320.971 84.6548 320.931 84.5135 320.851 84.3913C320.772 84.2678 320.655 84.1712 320.502 84.1016C320.348 84.032 320.161 83.9972 319.939 83.9972H319.59V83.5284H319.939C320.113 83.5284 320.265 83.4972 320.395 83.4347C320.527 83.3722 320.63 83.2841 320.704 83.1705C320.779 83.0568 320.817 82.9233 320.817 82.7699C320.817 82.6222 320.784 82.4936 320.719 82.3842C320.654 82.2749 320.561 82.1896 320.442 82.1286C320.324 82.0675 320.185 82.0369 320.025 82.0369C319.874 82.0369 319.732 82.0646 319.598 82.12C319.466 82.174 319.358 82.2528 319.275 82.3565C319.191 82.4588 319.145 82.5824 319.138 82.7273H318.627C318.635 82.4986 318.704 82.2983 318.833 82.1264C318.963 81.9531 319.132 81.8182 319.341 81.7216C319.551 81.625 319.782 81.5767 320.033 81.5767C320.303 81.5767 320.534 81.6314 320.728 81.7408C320.921 81.8487 321.069 81.9915 321.173 82.169C321.277 82.3466 321.328 82.5384 321.328 82.7443C321.328 82.9901 321.264 83.1996 321.135 83.3729C321.007 83.5462 320.833 83.6662 320.613 83.733V83.767C320.888 83.8125 321.103 83.9297 321.258 84.1186C321.413 84.3061 321.49 84.5384 321.49 84.8153C321.49 85.0526 321.426 85.2656 321.297 85.4545C321.169 85.642 320.994 85.7898 320.772 85.8977C320.551 86.0057 320.299 86.0597 320.016 86.0597Z" fill="#828282"/>
<rect x="176.5" y="158.5" width="66" height="23" rx="0.5" fill="#D9D9D9" fill-opacity="0.5" stroke="#4C4C4C"/>
<path d="M217.03 172.892V167.864H218.302V172.892H217.03ZM215.152 171.013V169.742H220.18V171.013H215.152ZM224.011 174V166.727H226.923C227.458 166.727 227.904 166.807 228.262 166.965C228.619 167.124 228.888 167.344 229.068 167.626C229.248 167.905 229.338 168.227 229.338 168.592C229.338 168.876 229.281 169.125 229.167 169.341C229.054 169.554 228.897 169.729 228.699 169.866C228.502 170.001 228.277 170.097 228.024 170.154V170.225C228.301 170.237 228.56 170.315 228.801 170.46C229.045 170.604 229.243 170.806 229.395 171.067C229.546 171.325 229.622 171.633 229.622 171.99C229.622 172.376 229.526 172.72 229.334 173.023C229.145 173.324 228.864 173.562 228.493 173.737C228.121 173.912 227.663 174 227.118 174H224.011ZM225.549 172.743H226.802C227.231 172.743 227.543 172.661 227.74 172.498C227.936 172.332 228.034 172.112 228.034 171.837C228.034 171.636 227.986 171.459 227.889 171.305C227.792 171.151 227.653 171.03 227.473 170.942C227.296 170.855 227.084 170.811 226.838 170.811H225.549V172.743ZM225.549 169.771H226.689C226.899 169.771 227.086 169.734 227.25 169.661C227.415 169.585 227.546 169.478 227.64 169.341C227.737 169.204 227.786 169.039 227.786 168.847C227.786 168.585 227.692 168.373 227.505 168.212C227.321 168.051 227.058 167.97 226.717 167.97H225.549V169.771ZM231.858 168.545L232.86 170.452L233.886 168.545H235.438L233.857 171.273L235.48 174H233.936L232.86 172.114L231.801 174H230.239L231.858 171.273L230.296 168.545H231.858Z" fill="#4C4C4C"/>
<rect x="180.545" y="161.545" width="31.6364" height="16.9091" rx="4.36364" fill="#BAFBFF" stroke="#4C7477" stroke-width="1.09091"/>
<path d="M192.27 174V166.727H193.587V169.806H196.957V166.727H198.278V174H196.957V170.911H193.587V174H192.27Z" fill="#4C7477"/>
<path d="M201.174 171.76V175.727H200.693V172.264H200.67L199.702 172.907V172.419L200.693 171.76H201.174Z" fill="#828282"/>
<path d="M236.635 177V176.616L238.076 175.04C238.245 174.855 238.384 174.695 238.493 174.558C238.603 174.42 238.684 174.291 238.736 174.17C238.79 174.048 238.817 173.92 238.817 173.787C238.817 173.634 238.78 173.501 238.706 173.388C238.634 173.276 238.534 173.19 238.408 173.129C238.282 173.067 238.14 173.037 237.982 173.037C237.814 173.037 237.668 173.072 237.543 173.141C237.419 173.21 237.324 173.305 237.255 173.429C237.189 173.553 237.155 173.697 237.155 173.864H236.652C236.652 173.608 236.711 173.384 236.829 173.19C236.947 172.997 237.108 172.847 237.311 172.739C237.515 172.631 237.745 172.577 237.999 172.577C238.255 172.577 238.481 172.631 238.679 172.739C238.876 172.847 239.031 172.992 239.143 173.175C239.255 173.359 239.311 173.562 239.311 173.787C239.311 173.947 239.282 174.104 239.224 174.258C239.167 174.41 239.068 174.58 238.926 174.767C238.785 174.953 238.59 175.18 238.34 175.449L237.36 176.497V176.531H239.388V177H236.635Z" fill="#828282"/>
<rect x="266.5" y="115.5" width="66" height="23" rx="0.5" fill="#D9D9D9" fill-opacity="0.5" stroke="#4C4C4C"/>
<path d="M307.03 129.892V124.864H308.302V129.892H307.03ZM305.152 128.013V126.742H310.18V128.013H305.152ZM314.011 131V123.727H316.923C317.458 123.727 317.904 123.807 318.262 123.965C318.619 124.124 318.888 124.344 319.068 124.626C319.248 124.905 319.338 125.227 319.338 125.592C319.338 125.876 319.281 126.125 319.167 126.341C319.054 126.554 318.897 126.729 318.699 126.866C318.502 127.001 318.277 127.097 318.024 127.154V127.225C318.301 127.237 318.56 127.315 318.801 127.46C319.045 127.604 319.243 127.806 319.395 128.067C319.546 128.325 319.622 128.633 319.622 128.99C319.622 129.376 319.526 129.72 319.334 130.023C319.145 130.324 318.864 130.562 318.493 130.737C318.121 130.912 317.663 131 317.118 131H314.011ZM315.549 129.743H316.802C317.231 129.743 317.543 129.661 317.74 129.498C317.936 129.332 318.034 129.112 318.034 128.837C318.034 128.636 317.986 128.459 317.889 128.305C317.792 128.151 317.653 128.03 317.473 127.942C317.296 127.855 317.084 127.811 316.838 127.811H315.549V129.743ZM315.549 126.771H316.689C316.899 126.771 317.086 126.734 317.25 126.661C317.415 126.585 317.546 126.478 317.64 126.341C317.737 126.204 317.786 126.039 317.786 125.847C317.786 125.585 317.692 125.373 317.505 125.212C317.321 125.051 317.058 124.97 316.717 124.97H315.549V126.771ZM321.858 125.545L322.86 127.452L323.886 125.545H325.438L323.857 128.273L325.48 131H323.936L322.86 129.114L321.801 131H320.239L321.858 128.273L320.296 125.545H321.858Z" fill="#4C4C4C"/>
<rect x="270.545" y="118.545" width="31.6364" height="16.9091" rx="4.36364" fill="#BAFBFF" stroke="#4C7477" stroke-width="1.09091"/>
<path d="M282.27 131V123.727H283.587V126.806H286.957V123.727H288.278V131H286.957V127.911H283.587V131H282.27Z" fill="#4C7477"/>
<path d="M289.396 132.727V132.379L290.705 130.945C290.859 130.777 290.985 130.631 291.085 130.508C291.184 130.382 291.258 130.265 291.305 130.155C291.355 130.044 291.379 129.928 291.379 129.806C291.379 129.667 291.345 129.546 291.278 129.444C291.212 129.342 291.122 129.263 291.007 129.208C290.892 129.152 290.763 129.125 290.62 129.125C290.467 129.125 290.334 129.156 290.221 129.219C290.108 129.281 290.021 129.369 289.959 129.481C289.899 129.593 289.868 129.725 289.868 129.876H289.411C289.411 129.644 289.465 129.44 289.572 129.264C289.679 129.088 289.825 128.951 290.01 128.853C290.196 128.755 290.404 128.706 290.635 128.706C290.868 128.706 291.074 128.755 291.253 128.853C291.433 128.951 291.573 129.084 291.675 129.25C291.777 129.417 291.828 129.602 291.828 129.806C291.828 129.952 291.802 130.095 291.749 130.234C291.697 130.373 291.607 130.527 291.478 130.697C291.35 130.866 291.172 131.073 290.945 131.317L290.054 132.27V132.301H291.898V132.727H289.396Z" fill="#828282"/>
<path d="M328.016 134.06C327.735 134.06 327.484 134.011 327.264 133.915C327.045 133.818 326.871 133.684 326.742 133.512C326.614 133.339 326.544 133.138 326.533 132.909H327.07C327.081 133.05 327.13 133.171 327.215 133.273C327.3 133.374 327.412 133.452 327.549 133.508C327.687 133.563 327.84 133.591 328.007 133.591C328.195 133.591 328.361 133.558 328.506 133.493C328.651 133.428 328.765 133.337 328.847 133.22C328.929 133.104 328.971 132.969 328.971 132.815C328.971 132.655 328.931 132.513 328.851 132.391C328.772 132.268 328.655 132.171 328.502 132.102C328.348 132.032 328.161 131.997 327.939 131.997H327.59V131.528H327.939C328.113 131.528 328.265 131.497 328.395 131.435C328.527 131.372 328.63 131.284 328.704 131.17C328.779 131.057 328.817 130.923 328.817 130.77C328.817 130.622 328.784 130.494 328.719 130.384C328.654 130.275 328.561 130.19 328.442 130.129C328.324 130.067 328.185 130.037 328.025 130.037C327.874 130.037 327.732 130.065 327.598 130.12C327.466 130.174 327.358 130.253 327.275 130.357C327.191 130.459 327.145 130.582 327.138 130.727H326.627C326.635 130.499 326.704 130.298 326.833 130.126C326.963 129.953 327.132 129.818 327.341 129.722C327.551 129.625 327.782 129.577 328.033 129.577C328.303 129.577 328.534 129.631 328.728 129.741C328.921 129.849 329.069 129.991 329.173 130.169C329.277 130.347 329.328 130.538 329.328 130.744C329.328 130.99 329.264 131.2 329.135 131.373C329.007 131.546 328.833 131.666 328.613 131.733V131.767C328.888 131.812 329.103 131.93 329.258 132.119C329.413 132.306 329.49 132.538 329.49 132.815C329.49 133.053 329.426 133.266 329.297 133.455C329.169 133.642 328.994 133.79 328.772 133.898C328.551 134.006 328.299 134.06 328.016 134.06Z" fill="#828282"/>
<path d="M33.9174 51V42.2727H37.2583C37.889 42.2727 38.4132 42.3722 38.8308 42.571C39.2512 42.767 39.5652 43.0355 39.7726 43.3764C39.9828 43.7173 40.0879 44.1037 40.0879 44.5355C40.0879 44.8906 40.0197 45.1946 39.8833 45.4474C39.747 45.6974 39.5637 45.9006 39.3336 46.0568C39.1035 46.2131 38.8464 46.3253 38.5623 46.3935V46.4787C38.872 46.4957 39.1689 46.5909 39.4529 46.7642C39.7399 46.9347 39.9743 47.1761 40.1561 47.4886C40.3379 47.8011 40.4288 48.179 40.4288 48.6222C40.4288 49.0739 40.3194 49.4801 40.1007 49.8409C39.8819 50.1989 39.5524 50.4815 39.112 50.6889C38.6717 50.8963 38.1177 51 37.4501 51H33.9174ZM35.4984 49.679H37.1987C37.7725 49.679 38.1859 49.5696 38.4387 49.3509C38.6944 49.1293 38.8223 48.8452 38.8223 48.4986C38.8223 48.2401 38.7583 48.0071 38.6305 47.7997C38.5027 47.5895 38.3208 47.4247 38.085 47.3054C37.8493 47.1832 37.568 47.1222 37.2413 47.1222H35.4984V49.679ZM35.4984 45.9844H37.0623C37.335 45.9844 37.5808 45.9347 37.7995 45.8352C38.0183 45.733 38.1902 45.5895 38.3152 45.4048C38.443 45.2173 38.5069 44.9957 38.5069 44.7401C38.5069 44.402 38.3876 44.1236 38.149 43.9048C37.9132 43.6861 37.5623 43.5767 37.0964 43.5767H35.4984V45.9844Z" fill="#4C4C4C" fill-opacity="0.7"/>
<line x1="34" y1="40.5399" x2="40" y2="40.5399" stroke="#4C4C4C" stroke-opacity="0.7"/>
<path d="M123.917 51V42.2727H127.258C127.889 42.2727 128.413 42.3722 128.831 42.571C129.251 42.767 129.565 43.0355 129.773 43.3764C129.983 43.7173 130.088 44.1037 130.088 44.5355C130.088 44.8906 130.02 45.1946 129.883 45.4474C129.747 45.6974 129.564 45.9006 129.334 46.0568C129.104 46.2131 128.846 46.3253 128.562 46.3935V46.4787C128.872 46.4957 129.169 46.5909 129.453 46.7642C129.74 46.9347 129.974 47.1761 130.156 47.4886C130.338 47.8011 130.429 48.179 130.429 48.6222C130.429 49.0739 130.319 49.4801 130.101 49.8409C129.882 50.1989 129.552 50.4815 129.112 50.6889C128.672 50.8963 128.118 51 127.45 51H123.917ZM125.498 49.679H127.199C127.773 49.679 128.186 49.5696 128.439 49.3509C128.694 49.1293 128.822 48.8452 128.822 48.4986C128.822 48.2401 128.758 48.0071 128.631 47.7997C128.503 47.5895 128.321 47.4247 128.085 47.3054C127.849 47.1832 127.568 47.1222 127.241 47.1222H125.498V49.679ZM125.498 45.9844H127.062C127.335 45.9844 127.581 45.9347 127.8 45.8352C128.018 45.733 128.19 45.5895 128.315 45.4048C128.443 45.2173 128.507 44.9957 128.507 44.7401C128.507 44.402 128.388 44.1236 128.149 43.9048C127.913 43.6861 127.562 43.5767 127.096 43.5767H125.498V45.9844Z" fill="#4C4C4C" fill-opacity="0.7"/>
<line x1="124" y1="40.5399" x2="130" y2="40.5399" stroke="#4C4C4C" stroke-opacity="0.7"/>
<path d="M213.917 51V42.2727H217.258C217.889 42.2727 218.413 42.3722 218.831 42.571C219.251 42.767 219.565 43.0355 219.773 43.3764C219.983 43.7173 220.088 44.1037 220.088 44.5355C220.088 44.8906 220.02 45.1946 219.883 45.4474C219.747 45.6974 219.564 45.9006 219.334 46.0568C219.104 46.2131 218.846 46.3253 218.562 46.3935V46.4787C218.872 46.4957 219.169 46.5909 219.453 46.7642C219.74 46.9347 219.974 47.1761 220.156 47.4886C220.338 47.8011 220.429 48.179 220.429 48.6222C220.429 49.0739 220.319 49.4801 220.101 49.8409C219.882 50.1989 219.552 50.4815 219.112 50.6889C218.672 50.8963 218.118 51 217.45 51H213.917ZM215.498 49.679H217.199C217.773 49.679 218.186 49.5696 218.439 49.3509C218.694 49.1293 218.822 48.8452 218.822 48.4986C218.822 48.2401 218.758 48.0071 218.631 47.7997C218.503 47.5895 218.321 47.4247 218.085 47.3054C217.849 47.1832 217.568 47.1222 217.241 47.1222H215.498V49.679ZM215.498 45.9844H217.062C217.335 45.9844 217.581 45.9347 217.8 45.8352C218.018 45.733 218.19 45.5895 218.315 45.4048C218.443 45.2173 218.507 44.9957 218.507 44.7401C218.507 44.402 218.388 44.1236 218.149 43.9048C217.913 43.6861 217.562 43.5767 217.096 43.5767H215.498V45.9844Z" fill="#4C4C4C" fill-opacity="0.7"/>
<line x1="214" y1="40.5399" x2="220" y2="40.5399" stroke="#4C4C4C" stroke-opacity="0.7"/>
<path d="M303.917 51V42.2727H307.258C307.889 42.2727 308.413 42.3722 308.831 42.571C309.251 42.767 309.565 43.0355 309.773 43.3764C309.983 43.7173 310.088 44.1037 310.088 44.5355C310.088 44.8906 310.02 45.1946 309.883 45.4474C309.747 45.6974 309.564 45.9006 309.334 46.0568C309.104 46.2131 308.846 46.3253 308.562 46.3935V46.4787C308.872 46.4957 309.169 46.5909 309.453 46.7642C309.74 46.9347 309.974 47.1761 310.156 47.4886C310.338 47.8011 310.429 48.179 310.429 48.6222C310.429 49.0739 310.319 49.4801 310.101 49.8409C309.882 50.1989 309.552 50.4815 309.112 50.6889C308.672 50.8963 308.118 51 307.45 51H303.917ZM305.498 49.679H307.199C307.773 49.679 308.186 49.5696 308.439 49.3509C308.694 49.1293 308.822 48.8452 308.822 48.4986C308.822 48.2401 308.758 48.0071 308.631 47.7997C308.503 47.5895 308.321 47.4247 308.085 47.3054C307.849 47.1832 307.568 47.1222 307.241 47.1222H305.498V49.679ZM305.498 45.9844H307.062C307.335 45.9844 307.581 45.9347 307.8 45.8352C308.018 45.733 308.19 45.5895 308.315 45.4048C308.443 45.2173 308.507 44.9957 308.507 44.7401C308.507 44.402 308.388 44.1236 308.149 43.9048C307.913 43.6861 307.562 43.5767 307.096 43.5767H305.498V45.9844Z" fill="#4C4C4C" fill-opacity="0.7"/>
<line x1="304" y1="40.5399" x2="310" y2="40.5399" stroke="#4C4C4C" stroke-opacity="0.7"/>
<path d="M304.64 167H302.952L306.025 158.273H307.976L311.053 167H309.366L307.035 160.062H306.966L304.64 167ZM304.695 163.578H309.297V164.848H304.695V163.578Z" fill="#4C4C4C" fill-opacity="0.7"/>
<line x1="304" y1="156.54" x2="310" y2="156.54" stroke="#4C4C4C" stroke-opacity="0.7"/>
<path d="M217.64 195H215.952L219.025 186.273H220.976L224.053 195H222.366L220.035 188.062H219.966L217.64 195ZM217.695 191.578H222.297V192.848H217.695V191.578Z" fill="#4C4C4C" fill-opacity="0.7"/>
<line x1="217" y1="184.54" x2="223" y2="184.54" stroke="#4C4C4C" stroke-opacity="0.7"/>
<path d="M125.64 106H123.952L127.025 97.2727H128.976L132.053 106H130.366L128.035 99.0625H127.966L125.64 106ZM125.695 102.578H130.297V103.848H125.695V102.578Z" fill="#4C4C4C" fill-opacity="0.7"/>
<line x1="125" y1="95.5399" x2="131" y2="95.5399" stroke="#4C4C4C" stroke-opacity="0.7"/>
<path d="M304.64 104H302.952L306.025 95.2727H307.976L311.053 104H309.366L307.035 97.0625H306.966L304.64 104ZM304.695 100.578H309.297V101.848H304.695V100.578Z" fill="#4C4C4C" fill-opacity="0.7"/>
<line x1="304" y1="93.5399" x2="310" y2="93.5399" stroke="#4C4C4C" stroke-opacity="0.7"/>
<path d="M126.985 220.727V228H126.105V221.651H126.062L124.287 222.83V221.935L126.105 220.727H126.985Z" fill="#828282"/>
<path d="M95.5666 273V264.273H98.5154C99.2001 264.273 99.7598 264.396 100.194 264.643C100.632 264.888 100.956 265.219 101.166 265.636C101.376 266.054 101.481 266.52 101.481 267.034C101.481 267.548 101.376 268.016 101.166 268.436C100.959 268.857 100.638 269.192 100.203 269.442C99.7683 269.689 99.2115 269.812 98.5325 269.812H96.4189V268.875H98.4984C98.9672 268.875 99.3436 268.794 99.6277 268.632C99.9118 268.47 100.118 268.251 100.246 267.976C100.376 267.697 100.442 267.384 100.442 267.034C100.442 266.685 100.376 266.372 100.246 266.097C100.118 265.821 99.9103 265.605 99.6234 265.449C99.3365 265.29 98.9558 265.21 98.4814 265.21H96.6234V273H95.5666ZM104.974 273.153C104.559 273.153 104.182 273.075 103.844 272.919C103.506 272.76 103.238 272.531 103.039 272.233C102.84 271.932 102.741 271.568 102.741 271.142C102.741 270.767 102.814 270.463 102.962 270.23C103.11 269.994 103.307 269.81 103.555 269.676C103.802 269.543 104.074 269.443 104.373 269.378C104.674 269.31 104.976 269.256 105.28 269.216C105.678 269.165 106.001 269.126 106.248 269.101C106.498 269.072 106.68 269.026 106.793 268.96C106.91 268.895 106.968 268.781 106.968 268.619V268.585C106.968 268.165 106.853 267.838 106.623 267.605C106.395 267.372 106.05 267.256 105.587 267.256C105.107 267.256 104.731 267.361 104.458 267.571C104.185 267.781 103.993 268.006 103.883 268.244L102.928 267.903C103.099 267.506 103.326 267.196 103.61 266.974C103.897 266.75 104.209 266.594 104.547 266.506C104.888 266.415 105.224 266.369 105.553 266.369C105.763 266.369 106.005 266.395 106.278 266.446C106.553 266.494 106.819 266.595 107.074 266.749C107.333 266.902 107.547 267.134 107.718 267.443C107.888 267.753 107.974 268.168 107.974 268.688V273H106.968V272.114H106.917C106.849 272.256 106.735 272.408 106.576 272.57C106.417 272.732 106.205 272.869 105.941 272.983C105.677 273.097 105.354 273.153 104.974 273.153ZM105.127 272.25C105.525 272.25 105.86 272.172 106.133 272.016C106.408 271.859 106.616 271.658 106.755 271.411C106.897 271.163 106.968 270.903 106.968 270.631V269.71C106.925 269.761 106.831 269.808 106.687 269.851C106.545 269.891 106.38 269.926 106.192 269.957C106.008 269.986 105.827 270.011 105.651 270.034C105.478 270.054 105.337 270.071 105.229 270.085C104.968 270.119 104.724 270.175 104.496 270.251C104.272 270.325 104.09 270.437 103.951 270.588C103.814 270.736 103.746 270.937 103.746 271.193C103.746 271.543 103.876 271.807 104.134 271.986C104.395 272.162 104.726 272.25 105.127 272.25ZM109.809 273V266.455H110.781V267.443H110.849C110.968 267.119 111.184 266.857 111.497 266.655C111.809 266.453 112.161 266.352 112.553 266.352C112.627 266.352 112.72 266.354 112.83 266.357C112.941 266.359 113.025 266.364 113.082 266.369V267.392C113.048 267.384 112.97 267.371 112.847 267.354C112.728 267.334 112.602 267.324 112.468 267.324C112.15 267.324 111.866 267.391 111.616 267.524C111.369 267.655 111.173 267.837 111.028 268.07C110.886 268.3 110.815 268.562 110.815 268.858V273H109.809ZM116.2 273.153C115.785 273.153 115.409 273.075 115.071 272.919C114.733 272.76 114.464 272.531 114.265 272.233C114.067 271.932 113.967 271.568 113.967 271.142C113.967 270.767 114.041 270.463 114.189 270.23C114.336 269.994 114.534 269.81 114.781 269.676C115.028 269.543 115.301 269.443 115.599 269.378C115.9 269.31 116.203 269.256 116.507 269.216C116.905 269.165 117.227 269.126 117.474 269.101C117.724 269.072 117.906 269.026 118.02 268.96C118.136 268.895 118.194 268.781 118.194 268.619V268.585C118.194 268.165 118.079 267.838 117.849 267.605C117.622 267.372 117.277 267.256 116.814 267.256C116.334 267.256 115.957 267.361 115.684 267.571C115.412 267.781 115.22 268.006 115.109 268.244L114.155 267.903C114.325 267.506 114.552 267.196 114.836 266.974C115.123 266.75 115.436 266.594 115.774 266.506C116.115 266.415 116.45 266.369 116.78 266.369C116.99 266.369 117.231 266.395 117.504 266.446C117.78 266.494 118.045 266.595 118.301 266.749C118.559 266.902 118.774 267.134 118.944 267.443C119.115 267.753 119.2 268.168 119.2 268.688V273H118.194V272.114H118.143C118.075 272.256 117.961 272.408 117.802 272.57C117.643 272.732 117.432 272.869 117.167 272.983C116.903 273.097 116.581 273.153 116.2 273.153ZM116.354 272.25C116.751 272.25 117.086 272.172 117.359 272.016C117.635 271.859 117.842 271.658 117.981 271.411C118.123 271.163 118.194 270.903 118.194 270.631V269.71C118.152 269.761 118.058 269.808 117.913 269.851C117.771 269.891 117.606 269.926 117.419 269.957C117.234 269.986 117.054 270.011 116.878 270.034C116.704 270.054 116.564 270.071 116.456 270.085C116.194 270.119 115.95 270.175 115.723 270.251C115.498 270.325 115.317 270.437 115.177 270.588C115.041 270.736 114.973 270.937 114.973 271.193C114.973 271.543 115.102 271.807 115.361 271.986C115.622 272.162 115.953 272.25 116.354 272.25ZM122.041 264.273V273H121.036V264.273H122.041ZM124.889 264.273V273H123.883V264.273H124.889ZM129.475 273.136C128.845 273.136 128.301 272.997 127.843 272.719C127.389 272.438 127.038 272.045 126.791 271.543C126.546 271.037 126.424 270.449 126.424 269.778C126.424 269.108 126.546 268.517 126.791 268.006C127.038 267.491 127.382 267.091 127.822 266.804C128.265 266.514 128.782 266.369 129.373 266.369C129.714 266.369 130.051 266.426 130.383 266.54C130.715 266.653 131.018 266.838 131.291 267.094C131.563 267.347 131.781 267.682 131.943 268.099C132.105 268.517 132.186 269.031 132.186 269.642V270.068H127.14V269.199H131.163C131.163 268.83 131.089 268.5 130.941 268.21C130.796 267.92 130.589 267.692 130.319 267.524C130.052 267.357 129.737 267.273 129.373 267.273C128.972 267.273 128.626 267.372 128.333 267.571C128.044 267.767 127.82 268.023 127.664 268.338C127.508 268.653 127.43 268.991 127.43 269.352V269.932C127.43 270.426 127.515 270.845 127.686 271.189C127.859 271.53 128.099 271.79 128.406 271.969C128.713 272.145 129.069 272.233 129.475 272.233C129.74 272.233 129.978 272.196 130.191 272.122C130.407 272.045 130.593 271.932 130.749 271.781C130.906 271.628 131.026 271.437 131.112 271.21L132.083 271.483C131.981 271.812 131.809 272.102 131.568 272.352C131.326 272.599 131.028 272.793 130.673 272.932C130.318 273.068 129.919 273.136 129.475 273.136ZM134.721 264.273V273H133.715V264.273H134.721ZM142.597 273.136C141.983 273.136 141.455 272.991 141.012 272.702C140.569 272.412 140.228 272.013 139.989 271.504C139.751 270.996 139.631 270.415 139.631 269.761C139.631 269.097 139.753 268.51 139.998 268.001C140.245 267.49 140.589 267.091 141.029 266.804C141.472 266.514 141.989 266.369 142.58 266.369C143.04 266.369 143.455 266.455 143.824 266.625C144.194 266.795 144.496 267.034 144.732 267.341C144.968 267.648 145.114 268.006 145.171 268.415H144.165C144.089 268.116 143.918 267.852 143.654 267.622C143.393 267.389 143.04 267.273 142.597 267.273C142.205 267.273 141.861 267.375 141.566 267.58C141.273 267.781 141.045 268.067 140.88 268.436C140.718 268.803 140.637 269.233 140.637 269.727C140.637 270.233 140.716 270.673 140.876 271.048C141.037 271.423 141.265 271.714 141.557 271.922C141.853 272.129 142.199 272.233 142.597 272.233C142.858 272.233 143.096 272.188 143.309 272.097C143.522 272.006 143.702 271.875 143.85 271.705C143.998 271.534 144.103 271.33 144.165 271.091H145.171C145.114 271.477 144.974 271.825 144.749 272.135C144.528 272.442 144.233 272.686 143.867 272.868C143.503 273.047 143.08 273.136 142.597 273.136ZM149.3 273.136C148.709 273.136 148.191 272.996 147.745 272.714C147.302 272.433 146.955 272.04 146.705 271.534C146.458 271.028 146.334 270.437 146.334 269.761C146.334 269.08 146.458 268.484 146.705 267.976C146.955 267.467 147.302 267.072 147.745 266.791C148.191 266.51 148.709 266.369 149.3 266.369C149.891 266.369 150.408 266.51 150.851 266.791C151.297 267.072 151.644 267.467 151.891 267.976C152.141 268.484 152.266 269.08 152.266 269.761C152.266 270.437 152.141 271.028 151.891 271.534C151.644 272.04 151.297 272.433 150.851 272.714C150.408 272.996 149.891 273.136 149.3 273.136ZM149.3 272.233C149.749 272.233 150.118 272.118 150.408 271.888C150.698 271.658 150.912 271.355 151.052 270.98C151.191 270.605 151.26 270.199 151.26 269.761C151.26 269.324 151.191 268.916 151.052 268.538C150.912 268.161 150.698 267.855 150.408 267.622C150.118 267.389 149.749 267.273 149.3 267.273C148.851 267.273 148.482 267.389 148.192 267.622C147.903 267.855 147.688 268.161 147.549 268.538C147.41 268.916 147.34 269.324 147.34 269.761C147.34 270.199 147.41 270.605 147.549 270.98C147.688 271.355 147.903 271.658 148.192 271.888C148.482 272.118 148.851 272.233 149.3 272.233ZM153.801 273V266.455H154.773V267.477H154.858C154.994 267.128 155.215 266.857 155.519 266.663C155.823 266.467 156.188 266.369 156.614 266.369C157.046 266.369 157.405 266.467 157.692 266.663C157.982 266.857 158.208 267.128 158.369 267.477H158.438C158.605 267.139 158.857 266.871 159.192 266.672C159.527 266.47 159.929 266.369 160.398 266.369C160.983 266.369 161.462 266.553 161.834 266.919C162.206 267.283 162.392 267.849 162.392 268.619V273H161.387V268.619C161.387 268.136 161.254 267.791 160.99 267.584C160.726 267.376 160.415 267.273 160.057 267.273C159.597 267.273 159.24 267.412 158.987 267.69C158.735 267.966 158.608 268.315 158.608 268.739V273H157.585V268.517C157.585 268.145 157.465 267.845 157.223 267.618C156.982 267.388 156.671 267.273 156.29 267.273C156.029 267.273 155.784 267.342 155.557 267.482C155.333 267.621 155.151 267.814 155.012 268.061C154.875 268.305 154.807 268.588 154.807 268.909V273H153.801ZM164.231 275.455V266.455H165.203V267.494H165.322C165.396 267.381 165.498 267.236 165.629 267.06C165.762 266.881 165.953 266.722 166.2 266.582C166.45 266.44 166.788 266.369 167.214 266.369C167.765 266.369 168.251 266.507 168.671 266.783C169.092 267.058 169.42 267.449 169.656 267.955C169.892 268.46 170.009 269.057 170.009 269.744C170.009 270.438 169.892 271.038 169.656 271.547C169.42 272.053 169.093 272.445 168.676 272.723C168.258 272.999 167.776 273.136 167.231 273.136C166.811 273.136 166.474 273.067 166.221 272.928C165.968 272.786 165.774 272.625 165.637 272.446C165.501 272.264 165.396 272.114 165.322 271.994H165.237V275.455H164.231ZM165.22 269.727C165.22 270.222 165.292 270.658 165.437 271.036C165.582 271.411 165.794 271.705 166.072 271.918C166.35 272.128 166.691 272.233 167.095 272.233C167.515 272.233 167.866 272.122 168.147 271.901C168.431 271.676 168.644 271.375 168.786 270.997C168.931 270.616 169.004 270.193 169.004 269.727C169.004 269.267 168.933 268.852 168.791 268.483C168.651 268.111 168.44 267.817 168.156 267.601C167.874 267.382 167.521 267.273 167.095 267.273C166.686 267.273 166.342 267.376 166.063 267.584C165.785 267.788 165.575 268.075 165.433 268.445C165.291 268.811 165.22 269.239 165.22 269.727ZM175.669 270.324V266.455H176.674V273H175.669V271.892H175.6C175.447 272.224 175.208 272.507 174.884 272.74C174.561 272.97 174.151 273.085 173.657 273.085C173.248 273.085 172.884 272.996 172.566 272.817C172.248 272.635 171.998 272.362 171.816 271.999C171.634 271.632 171.544 271.17 171.544 270.614V266.455H172.549V270.545C172.549 271.023 172.683 271.403 172.95 271.688C173.22 271.972 173.563 272.114 173.981 272.114C174.231 272.114 174.485 272.05 174.744 271.922C175.005 271.794 175.224 271.598 175.4 271.334C175.579 271.07 175.669 270.733 175.669 270.324ZM181.363 266.455V267.307H177.971V266.455H181.363ZM178.959 264.886H179.965V271.125C179.965 271.409 180.006 271.622 180.089 271.764C180.174 271.903 180.282 271.997 180.412 272.045C180.546 272.091 180.687 272.114 180.834 272.114C180.945 272.114 181.036 272.108 181.107 272.097C181.178 272.082 181.235 272.071 181.278 272.062L181.482 272.966C181.414 272.991 181.319 273.017 181.197 273.043C181.074 273.071 180.92 273.085 180.732 273.085C180.448 273.085 180.17 273.024 179.897 272.902C179.627 272.78 179.403 272.594 179.224 272.344C179.047 272.094 178.959 271.778 178.959 271.398V264.886ZM184.802 273.153C184.387 273.153 184.01 273.075 183.672 272.919C183.334 272.76 183.066 272.531 182.867 272.233C182.668 271.932 182.569 271.568 182.569 271.142C182.569 270.767 182.643 270.463 182.79 270.23C182.938 269.994 183.135 269.81 183.383 269.676C183.63 269.543 183.903 269.443 184.201 269.378C184.502 269.31 184.805 269.256 185.108 269.216C185.506 269.165 185.829 269.126 186.076 269.101C186.326 269.072 186.508 269.026 186.621 268.96C186.738 268.895 186.796 268.781 186.796 268.619V268.585C186.796 268.165 186.681 267.838 186.451 267.605C186.224 267.372 185.878 267.256 185.415 267.256C184.935 267.256 184.559 267.361 184.286 267.571C184.013 267.781 183.822 268.006 183.711 268.244L182.756 267.903C182.927 267.506 183.154 267.196 183.438 266.974C183.725 266.75 184.037 266.594 184.376 266.506C184.716 266.415 185.052 266.369 185.381 266.369C185.591 266.369 185.833 266.395 186.106 266.446C186.381 266.494 186.647 266.595 186.903 266.749C187.161 266.902 187.376 267.134 187.546 267.443C187.716 267.753 187.802 268.168 187.802 268.688V273H186.796V272.114H186.745C186.677 272.256 186.563 272.408 186.404 272.57C186.245 272.732 186.033 272.869 185.769 272.983C185.505 273.097 185.182 273.153 184.802 273.153ZM184.955 272.25C185.353 272.25 185.688 272.172 185.961 272.016C186.236 271.859 186.444 271.658 186.583 271.411C186.725 271.163 186.796 270.903 186.796 270.631V269.71C186.753 269.761 186.66 269.808 186.515 269.851C186.373 269.891 186.208 269.926 186.02 269.957C185.836 269.986 185.655 270.011 185.479 270.034C185.306 270.054 185.165 270.071 185.057 270.085C184.796 270.119 184.552 270.175 184.324 270.251C184.1 270.325 183.918 270.437 183.779 270.588C183.643 270.736 183.574 270.937 183.574 271.193C183.574 271.543 183.704 271.807 183.962 271.986C184.224 272.162 184.555 272.25 184.955 272.25ZM192.484 266.455V267.307H189.092V266.455H192.484ZM190.08 264.886H191.086V271.125C191.086 271.409 191.127 271.622 191.21 271.764C191.295 271.903 191.403 271.997 191.534 272.045C191.667 272.091 191.808 272.114 191.955 272.114C192.066 272.114 192.157 272.108 192.228 272.097C192.299 272.082 192.356 272.071 192.399 272.062L192.603 272.966C192.535 272.991 192.44 273.017 192.318 273.043C192.195 273.071 192.041 273.085 191.853 273.085C191.569 273.085 191.291 273.024 191.018 272.902C190.748 272.78 190.524 272.594 190.345 272.344C190.169 272.094 190.08 271.778 190.08 271.398V264.886ZM193.997 273V266.455H195.002V273H193.997ZM194.508 265.364C194.312 265.364 194.143 265.297 194.001 265.163C193.862 265.03 193.792 264.869 193.792 264.682C193.792 264.494 193.862 264.334 194.001 264.2C194.143 264.067 194.312 264 194.508 264C194.704 264 194.872 264.067 195.011 264.2C195.153 264.334 195.224 264.494 195.224 264.682C195.224 264.869 195.153 265.03 195.011 265.163C194.872 265.297 194.704 265.364 194.508 265.364ZM199.503 273.136C198.912 273.136 198.394 272.996 197.948 272.714C197.505 272.433 197.158 272.04 196.908 271.534C196.661 271.028 196.537 270.437 196.537 269.761C196.537 269.08 196.661 268.484 196.908 267.976C197.158 267.467 197.505 267.072 197.948 266.791C198.394 266.51 198.912 266.369 199.503 266.369C200.094 266.369 200.611 266.51 201.055 266.791C201.501 267.072 201.847 267.467 202.094 267.976C202.344 268.484 202.469 269.08 202.469 269.761C202.469 270.437 202.344 271.028 202.094 271.534C201.847 272.04 201.501 272.433 201.055 272.714C200.611 272.996 200.094 273.136 199.503 273.136ZM199.503 272.233C199.952 272.233 200.322 272.118 200.611 271.888C200.901 271.658 201.116 271.355 201.255 270.98C201.394 270.605 201.464 270.199 201.464 269.761C201.464 269.324 201.394 268.916 201.255 268.538C201.116 268.161 200.901 267.855 200.611 267.622C200.322 267.389 199.952 267.273 199.503 267.273C199.055 267.273 198.685 267.389 198.395 267.622C198.106 267.855 197.891 268.161 197.752 268.538C197.613 268.916 197.543 269.324 197.543 269.761C197.543 270.199 197.613 270.605 197.752 270.98C197.891 271.355 198.106 271.658 198.395 271.888C198.685 272.118 199.055 272.233 199.503 272.233ZM205.01 269.062V273H204.004V266.455H204.976V267.477H205.061C205.215 267.145 205.448 266.878 205.76 266.676C206.073 266.472 206.476 266.369 206.97 266.369C207.414 266.369 207.801 266.46 208.134 266.642C208.466 266.821 208.725 267.094 208.909 267.46C209.094 267.824 209.186 268.284 209.186 268.841V273H208.181V268.909C208.181 268.395 208.047 267.994 207.78 267.707C207.513 267.418 207.146 267.273 206.681 267.273C206.36 267.273 206.073 267.342 205.82 267.482C205.57 267.621 205.372 267.824 205.227 268.091C205.083 268.358 205.01 268.682 205.01 269.062ZM222.257 268.636C222.257 269.588 222.077 270.398 221.716 271.065C221.358 271.733 220.869 272.243 220.25 272.595C219.633 272.945 218.94 273.119 218.17 273.119C217.395 273.119 216.699 272.943 216.082 272.591C215.466 272.239 214.979 271.729 214.621 271.061C214.263 270.393 214.084 269.585 214.084 268.636C214.084 267.685 214.263 266.875 214.621 266.207C214.979 265.54 215.466 265.031 216.082 264.682C216.699 264.33 217.395 264.153 218.17 264.153C218.94 264.153 219.633 264.33 220.25 264.682C220.869 265.031 221.358 265.54 221.716 266.207C222.077 266.875 222.257 267.685 222.257 268.636ZM220.386 268.636C220.386 268.02 220.294 267.5 220.109 267.077C219.927 266.653 219.67 266.332 219.338 266.114C219.006 265.895 218.616 265.786 218.17 265.786C217.724 265.786 217.335 265.895 217.003 266.114C216.67 266.332 216.412 266.653 216.227 267.077C216.045 267.5 215.954 268.02 215.954 268.636C215.954 269.253 216.045 269.773 216.227 270.196C216.412 270.619 216.67 270.94 217.003 271.159C217.335 271.378 217.724 271.487 218.17 271.487C218.616 271.487 219.006 271.378 219.338 271.159C219.67 270.94 219.927 270.619 220.109 270.196C220.294 269.773 220.386 269.253 220.386 268.636ZM223.99 269.501C223.99 268.445 224.131 267.472 224.412 266.582C224.696 265.693 225.129 264.869 225.712 264.111H227.446C227.225 264.392 227.019 264.736 226.828 265.142C226.638 265.545 226.472 265.989 226.33 266.472C226.188 266.955 226.077 267.455 225.997 267.972C225.918 268.486 225.878 268.996 225.878 269.501C225.878 270.175 225.946 270.855 226.083 271.543C226.222 272.227 226.409 272.864 226.645 273.452C226.884 274.04 227.151 274.521 227.446 274.896H225.712C225.129 274.138 224.696 273.314 224.412 272.425C224.131 271.536 223.99 270.561 223.99 269.501ZM230.315 269.216V273H228.5V266.455H230.23V267.609H230.307C230.452 267.229 230.694 266.928 231.035 266.706C231.376 266.482 231.79 266.369 232.275 266.369C232.73 266.369 233.126 266.469 233.464 266.668C233.802 266.866 234.065 267.151 234.253 267.52C234.44 267.886 234.534 268.324 234.534 268.832V273H232.719V269.156C232.721 268.756 232.619 268.443 232.412 268.219C232.204 267.991 231.919 267.878 231.555 267.878C231.311 267.878 231.095 267.93 230.907 268.036C230.723 268.141 230.578 268.294 230.473 268.496C230.371 268.695 230.318 268.935 230.315 269.216ZM239.766 263.864L236.953 274.312H235.389L238.202 263.864H239.766ZM244.122 266.455V267.818H240.18V266.455H244.122ZM241.075 264.886H242.89V270.989C242.89 271.156 242.916 271.287 242.967 271.381C243.018 271.472 243.089 271.536 243.18 271.572C243.274 271.609 243.382 271.628 243.504 271.628C243.589 271.628 243.675 271.621 243.76 271.607C243.845 271.589 243.91 271.577 243.956 271.568L244.241 272.919C244.15 272.947 244.023 272.98 243.858 273.017C243.693 273.057 243.493 273.081 243.257 273.089C242.819 273.107 242.436 273.048 242.106 272.915C241.78 272.781 241.525 272.574 241.344 272.293C241.162 272.011 241.072 271.656 241.075 271.227V264.886ZM248.364 269.501C248.364 270.561 248.222 271.536 247.938 272.425C247.657 273.314 247.225 274.138 246.643 274.896H244.908C245.13 274.615 245.336 274.271 245.526 273.865C245.716 273.459 245.883 273.016 246.025 272.536C246.167 272.053 246.278 271.553 246.357 271.036C246.437 270.518 246.476 270.007 246.476 269.501C246.476 268.828 246.407 268.149 246.268 267.464C246.131 266.777 245.944 266.141 245.705 265.555C245.469 264.967 245.204 264.486 244.908 264.111H246.643C247.225 264.869 247.657 265.693 247.938 266.582C248.222 267.472 248.364 268.445 248.364 269.501Z" fill="#6C6C6C"/>
</g>
<defs>
<clipPath id="clip0_105_3079">
<rect width="410" height="275" fill="white"/>
</clipPath>
</defs>
</svg>
