<svg width="432" height="75" viewBox="0 0 432 75" fill="none" xmlns="http://www.w3.org/2000/svg">
<g clip-path="url(#clip0_110_3457)">
<rect width="432" height="75" fill="white"/>
<path d="M32.9759 47H30.3977V39.7273H32.9972C33.7287 39.7273 34.3584 39.8729 34.8864 40.1641C35.4143 40.4529 35.8203 40.8684 36.1044 41.4105C36.3909 41.9527 36.5341 42.6013 36.5341 43.3565C36.5341 44.1141 36.3909 44.7652 36.1044 45.3097C35.8203 45.8542 35.4119 46.272 34.8793 46.5632C34.349 46.8544 33.7145 47 32.9759 47ZM31.9354 45.6825H32.9119C33.3665 45.6825 33.7488 45.602 34.0589 45.4411C34.3714 45.2777 34.6058 45.0256 34.7621 44.6847C34.9207 44.3414 35 43.8987 35 43.3565C35 42.8191 34.9207 42.38 34.7621 42.0391C34.6058 41.6982 34.3726 41.4472 34.0625 41.2862C33.7524 41.1252 33.37 41.0447 32.9155 41.0447H31.9354V45.6825ZM37.6731 47V39.7273H40.5424C41.0917 39.7273 41.5604 39.8255 41.9487 40.022C42.3393 40.2161 42.6364 40.492 42.84 40.8494C43.046 41.2045 43.149 41.6224 43.149 42.103C43.149 42.5859 43.0448 43.0014 42.8365 43.3494C42.6281 43.6951 42.3263 43.9602 41.9309 44.1449C41.5379 44.3295 41.0621 44.4219 40.5034 44.4219H38.5822V43.1861H40.2548C40.5484 43.1861 40.7922 43.1458 40.9863 43.0653C41.1805 42.9848 41.3249 42.8641 41.4196 42.7031C41.5166 42.5421 41.5652 42.3421 41.5652 42.103C41.5652 41.8615 41.5166 41.6579 41.4196 41.4922C41.3249 41.3265 41.1793 41.201 40.9828 41.1158C40.7886 41.0282 40.5436 40.9844 40.2477 40.9844H39.2108V47H37.6731ZM41.6007 43.6903L43.4082 47H41.7108L39.9423 43.6903H41.6007ZM45.4892 47H43.8414L46.3521 39.7273H48.3336L50.8407 47H49.193L47.3713 41.3892H47.3145L45.4892 47ZM45.3862 44.1413H49.2782V45.3416H45.3862V44.1413ZM51.7161 39.7273H53.6124L55.6152 44.6136H55.7005L57.7033 39.7273H59.5996V47H58.1081V42.2663H58.0478L56.1657 46.9645H55.15L53.2679 42.2486H53.2076V47H51.7161V39.7273Z" fill="#548235"/>
<path d="M12.2233 59.7273V67H11.3426V59.7273H12.2233ZM14.7135 63.7188V67H13.8754V61.5455H14.6851V62.3977H14.7561C14.884 62.1207 15.0781 61.8982 15.3385 61.7301C15.5989 61.5597 15.9351 61.4744 16.347 61.4744C16.7164 61.4744 17.0395 61.5502 17.3165 61.7017C17.5935 61.8509 17.8089 62.0781 17.9628 62.3835C18.1167 62.6866 18.1936 63.0701 18.1936 63.5341V67H17.3556V63.5909C17.3556 63.1624 17.2443 62.8286 17.0218 62.5895C16.7992 62.348 16.4938 62.2273 16.1056 62.2273C15.838 62.2273 15.5989 62.2853 15.3882 62.4013C15.1799 62.5173 15.0154 62.6866 14.8946 62.9091C14.7739 63.1316 14.7135 63.4015 14.7135 63.7188ZM19.7251 67V61.5455H20.5631V67H19.7251ZM20.1512 60.6364C19.9878 60.6364 19.847 60.5807 19.7286 60.4695C19.6126 60.3582 19.5546 60.2244 19.5546 60.0682C19.5546 59.9119 19.6126 59.7782 19.7286 59.6669C19.847 59.5556 19.9878 59.5 20.1512 59.5C20.3145 59.5 20.4542 59.5556 20.5702 59.6669C20.6886 59.7782 20.7478 59.9119 20.7478 60.0682C20.7478 60.2244 20.6886 60.3582 20.5702 60.4695C20.4542 60.5807 20.3145 60.6364 20.1512 60.6364ZM24.4703 61.5455V62.2557H21.6436V61.5455H24.4703ZM22.4674 60.2386H23.3055V65.4375C23.3055 65.6742 23.3398 65.8518 23.4085 65.9702C23.4795 66.0862 23.5695 66.1643 23.6784 66.2045C23.7896 66.2424 23.9068 66.2614 24.0299 66.2614C24.1222 66.2614 24.198 66.2566 24.2572 66.2472C24.3164 66.2353 24.3637 66.2259 24.3992 66.2188L24.5697 66.9716C24.5129 66.9929 24.4336 67.0142 24.3318 67.0355C24.23 67.0592 24.1009 67.071 23.9447 67.071C23.7079 67.071 23.4759 67.0201 23.2487 66.9183C23.0238 66.8165 22.8367 66.6615 22.6876 66.4531C22.5408 66.2448 22.4674 65.982 22.4674 65.6648V60.2386ZM25.7309 67V61.5455H26.569V67H25.7309ZM26.157 60.6364C25.9937 60.6364 25.8528 60.5807 25.7345 60.4695C25.6185 60.3582 25.5605 60.2244 25.5605 60.0682C25.5605 59.9119 25.6185 59.7782 25.7345 59.6669C25.8528 59.5556 25.9937 59.5 26.157 59.5C26.3204 59.5 26.4601 59.5556 26.5761 59.6669C26.6945 59.7782 26.7536 59.9119 26.7536 60.0682C26.7536 60.2244 26.6945 60.3582 26.5761 60.4695C26.4601 60.5807 26.3204 60.6364 26.157 60.6364ZM29.7091 67.1278C29.3634 67.1278 29.0497 67.0627 28.768 66.9325C28.4863 66.8 28.2626 66.6094 28.0969 66.3608C27.9311 66.1098 27.8483 65.8068 27.8483 65.4517C27.8483 65.1392 27.9098 64.8859 28.0329 64.6918C28.156 64.4953 28.3206 64.3414 28.5265 64.2301C28.7325 64.1188 28.9598 64.036 29.2084 63.9815C29.4593 63.9247 29.7114 63.8797 29.9648 63.8466C30.2962 63.804 30.5649 63.772 30.7709 63.7507C30.9792 63.727 31.1307 63.688 31.2254 63.6335C31.3225 63.5791 31.371 63.4844 31.371 63.3494V63.321C31.371 62.9706 31.2751 62.6984 31.0834 62.5043C30.894 62.3101 30.6063 62.2131 30.2204 62.2131C29.8203 62.2131 29.5067 62.3007 29.2794 62.4759C29.0521 62.651 28.8923 62.8381 28.8 63.0369L28.0045 62.7528C28.1466 62.4214 28.336 62.1634 28.5727 61.9787C28.8118 61.7917 29.0722 61.6615 29.354 61.5881C29.6381 61.5123 29.9174 61.4744 30.192 61.4744C30.3672 61.4744 30.5684 61.4957 30.7957 61.5384C31.0254 61.5786 31.2467 61.6626 31.4598 61.7905C31.6752 61.9183 31.854 62.1113 31.996 62.3693C32.1381 62.6274 32.2091 62.973 32.2091 63.4062V67H31.371V66.2614H31.3284C31.2716 66.3797 31.1769 66.5064 31.0443 66.6413C30.9117 66.7763 30.7354 66.8911 30.5152 66.9858C30.295 67.0805 30.0263 67.1278 29.7091 67.1278ZM29.8369 66.375C30.1684 66.375 30.4477 66.3099 30.675 66.1797C30.9046 66.0495 31.0774 65.8814 31.1934 65.6754C31.3118 65.4695 31.371 65.2528 31.371 65.0256V64.2585C31.3355 64.3011 31.2574 64.3402 31.1366 64.3757C31.0183 64.4089 30.8809 64.4384 30.7247 64.4645C30.5708 64.4882 30.4205 64.5095 30.2737 64.5284C30.1293 64.545 30.0121 64.5592 29.9221 64.571C29.7043 64.5994 29.5007 64.6456 29.3113 64.7095C29.1243 64.7711 28.9728 64.8646 28.8568 64.9901C28.7432 65.1132 28.6863 65.2812 28.6863 65.4943C28.6863 65.7855 28.7941 66.0057 29.0095 66.1548C29.2273 66.3016 29.5031 66.375 29.8369 66.375ZM34.5768 59.7273V67H33.7387V59.7273H34.5768ZM41.2964 61.5455V62.2557H38.4697V61.5455H41.2964ZM39.2936 60.2386H40.1317V65.4375C40.1317 65.6742 40.166 65.8518 40.2346 65.9702C40.3057 66.0862 40.3956 66.1643 40.5045 66.2045C40.6158 66.2424 40.733 66.2614 40.8561 66.2614C40.9484 66.2614 41.0242 66.2566 41.0834 66.2472C41.1425 66.2353 41.1899 66.2259 41.2254 66.2188L41.3959 66.9716C41.339 66.9929 41.2597 67.0142 41.1579 67.0355C41.0561 67.0592 40.9271 67.071 40.7709 67.071C40.5341 67.071 40.3021 67.0201 40.0748 66.9183C39.8499 66.8165 39.6629 66.6615 39.5138 66.4531C39.367 66.2448 39.2936 65.982 39.2936 65.6648V60.2386ZM44.7854 67.1136C44.2599 67.1136 43.8065 66.9976 43.4253 66.7656C43.0465 66.5312 42.7542 66.2045 42.5482 65.7855C42.3446 65.3641 42.2428 64.8741 42.2428 64.3153C42.2428 63.7566 42.3446 63.2642 42.5482 62.8381C42.7542 62.4096 43.0406 62.0758 43.4076 61.8366C43.7769 61.5952 44.2078 61.4744 44.7002 61.4744C44.9843 61.4744 45.2648 61.5218 45.5418 61.6165C45.8188 61.7112 46.0709 61.8651 46.2982 62.0781C46.5255 62.2888 46.7066 62.5682 46.8415 62.9162C46.9765 63.2642 47.0439 63.6927 47.0439 64.2017V64.5568H42.8394V63.8324H46.1917C46.1917 63.5246 46.1301 63.25 46.007 63.0085C45.8863 62.767 45.7135 62.5765 45.4885 62.4368C45.266 62.2971 45.0032 62.2273 44.7002 62.2273C44.3664 62.2273 44.0776 62.3101 43.8337 62.4759C43.5922 62.6392 43.4064 62.8523 43.2762 63.1151C43.146 63.3778 43.0809 63.6596 43.0809 63.9602V64.4432C43.0809 64.8551 43.1519 65.2043 43.2939 65.4908C43.4384 65.7749 43.6384 65.9915 43.8941 66.1406C44.1498 66.2874 44.4469 66.3608 44.7854 66.3608C45.0056 66.3608 45.2045 66.33 45.382 66.2685C45.5619 66.2045 45.717 66.1098 45.8472 65.9844C45.9774 65.8565 46.078 65.6979 46.1491 65.5085L46.9587 65.7358C46.8735 66.0104 46.7303 66.2519 46.529 66.4602C46.3278 66.6662 46.0792 66.8272 45.7833 66.9432C45.4874 67.0568 45.1547 67.1136 44.7854 67.1136ZM49.1569 63.7188V67H48.3188V61.5455H49.1285V62.3977H49.1995C49.3273 62.1207 49.5215 61.8982 49.7819 61.7301C50.0423 61.5597 50.3785 61.4744 50.7904 61.4744C51.1597 61.4744 51.4829 61.5502 51.7599 61.7017C52.0368 61.8509 52.2523 62.0781 52.4062 62.3835C52.56 62.6866 52.637 63.0701 52.637 63.5341V67H51.7989V63.5909C51.7989 63.1624 51.6876 62.8286 51.4651 62.5895C51.2426 62.348 50.9372 62.2273 50.5489 62.2273C50.2814 62.2273 50.0423 62.2853 49.8316 62.4013C49.6233 62.5173 49.4587 62.6866 49.338 62.9091C49.2172 63.1316 49.1569 63.4015 49.1569 63.7188ZM58.032 62.767L57.2792 62.9801C57.2319 62.8546 57.162 62.7327 57.0697 62.6143C56.9797 62.4936 56.8566 62.3942 56.7004 62.3161C56.5441 62.2379 56.3441 62.1989 56.1002 62.1989C55.7664 62.1989 55.4883 62.2758 55.2657 62.4297C55.0455 62.5812 54.9355 62.7741 54.9355 63.0085C54.9355 63.2169 55.0112 63.3814 55.1627 63.5021C55.3142 63.6229 55.551 63.7235 55.873 63.804L56.6826 64.0028C57.1703 64.1212 57.5337 64.3023 57.7728 64.5462C58.0119 64.7876 58.1315 65.099 58.1315 65.4801C58.1315 65.7926 58.0415 66.072 57.8616 66.3182C57.684 66.5644 57.4355 66.7585 57.1159 66.9006C56.7963 67.0426 56.4246 67.1136 56.0008 67.1136C55.4445 67.1136 54.984 66.9929 54.6194 66.7514C54.2548 66.5099 54.024 66.1572 53.9269 65.6932L54.7224 65.4943C54.7981 65.7879 54.9414 66.008 55.1521 66.1548C55.3651 66.3016 55.6433 66.375 55.9866 66.375C56.3772 66.375 56.6874 66.2921 56.917 66.1264C57.149 65.9583 57.265 65.7571 57.265 65.5227C57.265 65.3333 57.1987 65.1747 57.0661 65.0469C56.9336 64.9167 56.73 64.8196 56.4553 64.7557L55.5463 64.5426C55.0467 64.4242 54.6798 64.2408 54.4454 63.9922C54.2134 63.7412 54.0974 63.4276 54.0974 63.0511C54.0974 62.7434 54.1838 62.4711 54.3566 62.2344C54.5318 61.9976 54.7697 61.8118 55.0704 61.6768C55.3734 61.5419 55.7167 61.4744 56.1002 61.4744C56.64 61.4744 57.0638 61.5928 57.3715 61.8295C57.6817 62.0663 57.9018 62.3788 58.032 62.767ZM61.6089 67.1136C61.1165 67.1136 60.6845 66.9964 60.3128 66.7621C59.9434 66.5277 59.6546 66.1998 59.4463 65.7784C59.2403 65.357 59.1373 64.8646 59.1373 64.3011C59.1373 63.733 59.2403 63.237 59.4463 62.8132C59.6546 62.3894 59.9434 62.0604 60.3128 61.826C60.6845 61.5916 61.1165 61.4744 61.6089 61.4744C62.1014 61.4744 62.5322 61.5916 62.9015 61.826C63.2732 62.0604 63.5621 62.3894 63.768 62.8132C63.9764 63.237 64.0805 63.733 64.0805 64.3011C64.0805 64.8646 63.9764 65.357 63.768 65.7784C63.5621 66.1998 63.2732 66.5277 62.9015 66.7621C62.5322 66.9964 62.1014 67.1136 61.6089 67.1136ZM61.6089 66.3608C61.983 66.3608 62.2907 66.2649 62.5322 66.0732C62.7737 65.8814 62.9524 65.6293 63.0684 65.3168C63.1845 65.0043 63.2425 64.6657 63.2425 64.3011C63.2425 63.9366 63.1845 63.5968 63.0684 63.282C62.9524 62.9671 62.7737 62.7126 62.5322 62.5185C62.2907 62.3243 61.983 62.2273 61.6089 62.2273C61.2349 62.2273 60.9271 62.3243 60.6856 62.5185C60.4442 62.7126 60.2654 62.9671 60.1494 63.282C60.0334 63.5968 59.9754 63.9366 59.9754 64.3011C59.9754 64.6657 60.0334 65.0043 60.1494 65.3168C60.2654 65.6293 60.4442 65.8814 60.6856 66.0732C60.9271 66.2649 61.2349 66.3608 61.6089 66.3608ZM65.3598 67V61.5455H66.1695V62.3693H66.2263C66.3257 62.0994 66.5057 61.8804 66.7661 61.7124C67.0265 61.5443 67.32 61.4602 67.6468 61.4602C67.7083 61.4602 67.7852 61.4614 67.8776 61.4638C67.9699 61.4661 68.0397 61.4697 68.0871 61.4744V62.3267C68.0587 62.3196 67.9936 62.3089 67.8918 62.2947C67.7923 62.2782 67.687 62.2699 67.5757 62.2699C67.3106 62.2699 67.0738 62.3255 66.8655 62.4368C66.6595 62.5457 66.4962 62.6972 66.3754 62.8913C66.2571 63.0831 66.1979 63.3021 66.1979 63.5483V67H65.3598ZM72.9442 62.767L72.1913 62.9801C72.144 62.8546 72.0741 62.7327 71.9818 62.6143C71.8918 62.4936 71.7687 62.3942 71.6125 62.3161C71.4562 62.2379 71.2562 62.1989 71.0123 62.1989C70.6785 62.1989 70.4004 62.2758 70.1778 62.4297C69.9577 62.5812 69.8476 62.7741 69.8476 63.0085C69.8476 63.2169 69.9233 63.3814 70.0748 63.5021C70.2264 63.6229 70.4631 63.7235 70.7851 63.804L71.5947 64.0028C72.0824 64.1212 72.4458 64.3023 72.6849 64.5462C72.924 64.7876 73.0436 65.099 73.0436 65.4801C73.0436 65.7926 72.9536 66.072 72.7737 66.3182C72.5961 66.5644 72.3476 66.7585 72.028 66.9006C71.7084 67.0426 71.3367 67.1136 70.9129 67.1136C70.3566 67.1136 69.8961 66.9929 69.5315 66.7514C69.1669 66.5099 68.9361 66.1572 68.839 65.6932L69.6345 65.4943C69.7103 65.7879 69.8535 66.008 70.0642 66.1548C70.2773 66.3016 70.5554 66.375 70.8987 66.375C71.2893 66.375 71.5995 66.2921 71.8291 66.1264C72.0611 65.9583 72.1771 65.7571 72.1771 65.5227C72.1771 65.3333 72.1108 65.1747 71.9782 65.0469C71.8457 64.9167 71.6421 64.8196 71.3675 64.7557L70.4584 64.5426C69.9588 64.4242 69.5919 64.2408 69.3575 63.9922C69.1255 63.7412 69.0095 63.4276 69.0095 63.0511C69.0095 62.7434 69.0959 62.4711 69.2687 62.2344C69.4439 61.9976 69.6818 61.8118 69.9825 61.6768C70.2855 61.5419 70.6288 61.4744 71.0123 61.4744C71.5521 61.4744 71.9759 61.5928 72.2836 61.8295C72.5938 62.0663 72.814 62.3788 72.9442 62.767Z" fill="#6C6C6C"/>
<path d="M76.4742 10.1136C75.9628 10.1136 75.5225 9.9929 75.1531 9.75142C74.7838 9.50994 74.4997 9.17732 74.3009 8.75355C74.102 8.32978 74.0026 7.84564 74.0026 7.30114C74.0026 6.74716 74.1044 6.25829 74.308 5.83452C74.5139 5.40838 74.8004 5.07576 75.1673 4.83665C75.5367 4.59517 75.9675 4.47443 76.46 4.47443C76.8435 4.47443 77.1891 4.54545 77.4969 4.6875C77.8047 4.82955 78.0568 5.02841 78.2533 5.28409C78.4498 5.53977 78.5717 5.83807 78.6191 6.17898H77.781C77.7171 5.9304 77.575 5.71023 77.3548 5.51847C77.137 5.32434 76.8435 5.22727 76.4742 5.22727C76.1475 5.22727 75.861 5.3125 75.6148 5.48295C75.3709 5.65104 75.1804 5.88897 75.0431 6.19673C74.9081 6.50213 74.8406 6.8608 74.8406 7.27273C74.8406 7.69413 74.9069 8.06108 75.0395 8.37358C75.1744 8.68608 75.3638 8.92874 75.6077 9.10156C75.8539 9.27438 76.1427 9.3608 76.4742 9.3608C76.692 9.3608 76.8896 9.32292 77.0672 9.24716C77.2448 9.1714 77.3951 9.0625 77.5182 8.92045C77.6413 8.77841 77.7289 8.60795 77.781 8.40909H78.6191C78.5717 8.73106 78.4545 9.02107 78.2675 9.27912C78.0828 9.5348 77.8378 9.7384 77.5324 9.88991C77.2294 10.0391 76.8766 10.1136 76.4742 10.1136ZM82.0601 10.1136C81.5677 10.1136 81.1356 9.99645 80.7639 9.76207C80.3946 9.5277 80.1058 9.19981 79.8975 8.77841C79.6915 8.35701 79.5885 7.86458 79.5885 7.30114C79.5885 6.73295 79.6915 6.23698 79.8975 5.81321C80.1058 5.38944 80.3946 5.06037 80.7639 4.82599C81.1356 4.59162 81.5677 4.47443 82.0601 4.47443C82.5525 4.47443 82.9834 4.59162 83.3527 4.82599C83.7244 5.06037 84.0132 5.38944 84.2192 5.81321C84.4275 6.23698 84.5317 6.73295 84.5317 7.30114C84.5317 7.86458 84.4275 8.35701 84.2192 8.77841C84.0132 9.19981 83.7244 9.5277 83.3527 9.76207C82.9834 9.99645 82.5525 10.1136 82.0601 10.1136ZM82.0601 9.3608C82.4342 9.3608 82.7419 9.26491 82.9834 9.07315C83.2249 8.88139 83.4036 8.62926 83.5196 8.31676C83.6356 8.00426 83.6936 7.66572 83.6936 7.30114C83.6936 6.93655 83.6356 6.59683 83.5196 6.28196C83.4036 5.96709 83.2249 5.71259 82.9834 5.51847C82.7419 5.32434 82.4342 5.22727 82.0601 5.22727C81.686 5.22727 81.3783 5.32434 81.1368 5.51847C80.8953 5.71259 80.7166 5.96709 80.6006 6.28196C80.4846 6.59683 80.4266 6.93655 80.4266 7.30114C80.4266 7.66572 80.4846 8.00426 80.6006 8.31676C80.7166 8.62926 80.8953 8.88139 81.1368 9.07315C81.3783 9.26491 81.686 9.3608 82.0601 9.3608ZM85.811 12.0455V4.54545H86.6206V5.41193H86.7201C86.7816 5.31723 86.8669 5.1965 86.9758 5.04972C87.087 4.90057 87.2456 4.76799 87.4516 4.65199C87.6599 4.53362 87.9417 4.47443 88.2968 4.47443C88.7561 4.47443 89.1609 4.58925 89.5113 4.81889C89.8617 5.04853 90.1351 5.37405 90.3316 5.79545C90.5281 6.21686 90.6263 6.71402 90.6263 7.28693C90.6263 7.86458 90.5281 8.36529 90.3316 8.78906C90.1351 9.21046 89.8628 9.53717 89.5148 9.76918C89.1668 9.99882 88.7655 10.1136 88.311 10.1136C87.9606 10.1136 87.6801 10.0556 87.4694 9.93963C87.2587 9.82126 87.0965 9.6875 86.9829 9.53835C86.8692 9.38684 86.7816 9.26136 86.7201 9.16193H86.6491V12.0455H85.811ZM86.6349 7.27273C86.6349 7.68466 86.6952 8.04806 86.816 8.36293C86.9367 8.67543 87.1131 8.92045 87.3451 9.09801C87.5771 9.2732 87.8612 9.3608 88.1974 9.3608C88.5477 9.3608 88.8401 9.26847 89.0745 9.08381C89.3112 8.89678 89.4888 8.64583 89.6072 8.33097C89.7279 8.01373 89.7883 7.66098 89.7883 7.27273C89.7883 6.8892 89.7291 6.54356 89.6107 6.2358C89.4947 5.92566 89.3183 5.68063 89.0816 5.50071C88.8472 5.31842 88.5525 5.22727 88.1974 5.22727C87.8564 5.22727 87.57 5.31368 87.338 5.48651C87.106 5.65696 86.9308 5.89607 86.8124 6.20384C86.694 6.50923 86.6349 6.86553 86.6349 7.27273ZM92.2492 12.0455C92.1072 12.0455 91.9805 12.0336 91.8692 12.0099C91.758 11.9886 91.681 11.9673 91.6384 11.946L91.8515 11.2074C92.0551 11.2595 92.235 11.2784 92.3912 11.2642C92.5475 11.25 92.686 11.1802 92.8067 11.0547C92.9298 10.9316 93.0423 10.7315 93.1441 10.4545L93.3003 10.0284L91.2833 4.54545H92.1924L93.6981 8.89205H93.7549L95.2606 4.54545H96.1697L93.8543 10.7955C93.7501 11.0772 93.6211 11.3104 93.4672 11.495C93.3134 11.6821 93.1346 11.8205 92.931 11.9105C92.7298 12.0005 92.5025 12.0455 92.2492 12.0455Z" fill="#6C6C6C"/>
<path d="M166.474 10.1136C165.963 10.1136 165.522 9.9929 165.153 9.75142C164.784 9.50994 164.5 9.17732 164.301 8.75355C164.102 8.32978 164.003 7.84564 164.003 7.30114C164.003 6.74716 164.104 6.25829 164.308 5.83452C164.514 5.40838 164.8 5.07576 165.167 4.83665C165.537 4.59517 165.968 4.47443 166.46 4.47443C166.843 4.47443 167.189 4.54545 167.497 4.6875C167.805 4.82955 168.057 5.02841 168.253 5.28409C168.45 5.53977 168.572 5.83807 168.619 6.17898H167.781C167.717 5.9304 167.575 5.71023 167.355 5.51847C167.137 5.32434 166.843 5.22727 166.474 5.22727C166.147 5.22727 165.861 5.3125 165.615 5.48295C165.371 5.65104 165.18 5.88897 165.043 6.19673C164.908 6.50213 164.841 6.8608 164.841 7.27273C164.841 7.69413 164.907 8.06108 165.04 8.37358C165.174 8.68608 165.364 8.92874 165.608 9.10156C165.854 9.27438 166.143 9.3608 166.474 9.3608C166.692 9.3608 166.89 9.32292 167.067 9.24716C167.245 9.1714 167.395 9.0625 167.518 8.92045C167.641 8.77841 167.729 8.60795 167.781 8.40909H168.619C168.572 8.73106 168.455 9.02107 168.267 9.27912C168.083 9.5348 167.838 9.7384 167.532 9.88991C167.229 10.0391 166.877 10.1136 166.474 10.1136ZM172.06 10.1136C171.568 10.1136 171.136 9.99645 170.764 9.76207C170.395 9.5277 170.106 9.19981 169.897 8.77841C169.691 8.35701 169.589 7.86458 169.589 7.30114C169.589 6.73295 169.691 6.23698 169.897 5.81321C170.106 5.38944 170.395 5.06037 170.764 4.82599C171.136 4.59162 171.568 4.47443 172.06 4.47443C172.553 4.47443 172.983 4.59162 173.353 4.82599C173.724 5.06037 174.013 5.38944 174.219 5.81321C174.428 6.23698 174.532 6.73295 174.532 7.30114C174.532 7.86458 174.428 8.35701 174.219 8.77841C174.013 9.19981 173.724 9.5277 173.353 9.76207C172.983 9.99645 172.553 10.1136 172.06 10.1136ZM172.06 9.3608C172.434 9.3608 172.742 9.26491 172.983 9.07315C173.225 8.88139 173.404 8.62926 173.52 8.31676C173.636 8.00426 173.694 7.66572 173.694 7.30114C173.694 6.93655 173.636 6.59683 173.52 6.28196C173.404 5.96709 173.225 5.71259 172.983 5.51847C172.742 5.32434 172.434 5.22727 172.06 5.22727C171.686 5.22727 171.378 5.32434 171.137 5.51847C170.895 5.71259 170.717 5.96709 170.601 6.28196C170.485 6.59683 170.427 6.93655 170.427 7.30114C170.427 7.66572 170.485 8.00426 170.601 8.31676C170.717 8.62926 170.895 8.88139 171.137 9.07315C171.378 9.26491 171.686 9.3608 172.06 9.3608ZM175.811 12.0455V4.54545H176.621V5.41193H176.72C176.782 5.31723 176.867 5.1965 176.976 5.04972C177.087 4.90057 177.246 4.76799 177.452 4.65199C177.66 4.53362 177.942 4.47443 178.297 4.47443C178.756 4.47443 179.161 4.58925 179.511 4.81889C179.862 5.04853 180.135 5.37405 180.332 5.79545C180.528 6.21686 180.626 6.71402 180.626 7.28693C180.626 7.86458 180.528 8.36529 180.332 8.78906C180.135 9.21046 179.863 9.53717 179.515 9.76918C179.167 9.99882 178.766 10.1136 178.311 10.1136C177.961 10.1136 177.68 10.0556 177.469 9.93963C177.259 9.82126 177.097 9.6875 176.983 9.53835C176.869 9.38684 176.782 9.26136 176.72 9.16193H176.649V12.0455H175.811ZM176.635 7.27273C176.635 7.68466 176.695 8.04806 176.816 8.36293C176.937 8.67543 177.113 8.92045 177.345 9.09801C177.577 9.2732 177.861 9.3608 178.197 9.3608C178.548 9.3608 178.84 9.26847 179.074 9.08381C179.311 8.89678 179.489 8.64583 179.607 8.33097C179.728 8.01373 179.788 7.66098 179.788 7.27273C179.788 6.8892 179.729 6.54356 179.611 6.2358C179.495 5.92566 179.318 5.68063 179.082 5.50071C178.847 5.31842 178.552 5.22727 178.197 5.22727C177.856 5.22727 177.57 5.31368 177.338 5.48651C177.106 5.65696 176.931 5.89607 176.812 6.20384C176.694 6.50923 176.635 6.86553 176.635 7.27273ZM182.249 12.0455C182.107 12.0455 181.98 12.0336 181.869 12.0099C181.758 11.9886 181.681 11.9673 181.638 11.946L181.851 11.2074C182.055 11.2595 182.235 11.2784 182.391 11.2642C182.547 11.25 182.686 11.1802 182.807 11.0547C182.93 10.9316 183.042 10.7315 183.144 10.4545L183.3 10.0284L181.283 4.54545H182.192L183.698 8.89205H183.755L185.261 4.54545H186.17L183.854 10.7955C183.75 11.0772 183.621 11.3104 183.467 11.495C183.313 11.6821 183.135 11.8205 182.931 11.9105C182.73 12.0005 182.503 12.0455 182.249 12.0455Z" fill="#6C6C6C"/>
<path d="M253.474 10.1136C252.963 10.1136 252.522 9.9929 252.153 9.75142C251.784 9.50994 251.5 9.17732 251.301 8.75355C251.102 8.32978 251.003 7.84564 251.003 7.30114C251.003 6.74716 251.104 6.25829 251.308 5.83452C251.514 5.40838 251.8 5.07576 252.167 4.83665C252.537 4.59517 252.968 4.47443 253.46 4.47443C253.843 4.47443 254.189 4.54545 254.497 4.6875C254.805 4.82955 255.057 5.02841 255.253 5.28409C255.45 5.53977 255.572 5.83807 255.619 6.17898H254.781C254.717 5.9304 254.575 5.71023 254.355 5.51847C254.137 5.32434 253.843 5.22727 253.474 5.22727C253.147 5.22727 252.861 5.3125 252.615 5.48295C252.371 5.65104 252.18 5.88897 252.043 6.19673C251.908 6.50213 251.841 6.8608 251.841 7.27273C251.841 7.69413 251.907 8.06108 252.04 8.37358C252.174 8.68608 252.364 8.92874 252.608 9.10156C252.854 9.27438 253.143 9.3608 253.474 9.3608C253.692 9.3608 253.89 9.32292 254.067 9.24716C254.245 9.1714 254.395 9.0625 254.518 8.92045C254.641 8.77841 254.729 8.60795 254.781 8.40909H255.619C255.572 8.73106 255.455 9.02107 255.267 9.27912C255.083 9.5348 254.838 9.7384 254.532 9.88991C254.229 10.0391 253.877 10.1136 253.474 10.1136ZM259.06 10.1136C258.568 10.1136 258.136 9.99645 257.764 9.76207C257.395 9.5277 257.106 9.19981 256.897 8.77841C256.691 8.35701 256.589 7.86458 256.589 7.30114C256.589 6.73295 256.691 6.23698 256.897 5.81321C257.106 5.38944 257.395 5.06037 257.764 4.82599C258.136 4.59162 258.568 4.47443 259.06 4.47443C259.553 4.47443 259.983 4.59162 260.353 4.82599C260.724 5.06037 261.013 5.38944 261.219 5.81321C261.428 6.23698 261.532 6.73295 261.532 7.30114C261.532 7.86458 261.428 8.35701 261.219 8.77841C261.013 9.19981 260.724 9.5277 260.353 9.76207C259.983 9.99645 259.553 10.1136 259.06 10.1136ZM259.06 9.3608C259.434 9.3608 259.742 9.26491 259.983 9.07315C260.225 8.88139 260.404 8.62926 260.52 8.31676C260.636 8.00426 260.694 7.66572 260.694 7.30114C260.694 6.93655 260.636 6.59683 260.52 6.28196C260.404 5.96709 260.225 5.71259 259.983 5.51847C259.742 5.32434 259.434 5.22727 259.06 5.22727C258.686 5.22727 258.378 5.32434 258.137 5.51847C257.895 5.71259 257.717 5.96709 257.601 6.28196C257.485 6.59683 257.427 6.93655 257.427 7.30114C257.427 7.66572 257.485 8.00426 257.601 8.31676C257.717 8.62926 257.895 8.88139 258.137 9.07315C258.378 9.26491 258.686 9.3608 259.06 9.3608ZM262.811 12.0455V4.54545H263.621V5.41193H263.72C263.782 5.31723 263.867 5.1965 263.976 5.04972C264.087 4.90057 264.246 4.76799 264.452 4.65199C264.66 4.53362 264.942 4.47443 265.297 4.47443C265.756 4.47443 266.161 4.58925 266.511 4.81889C266.862 5.04853 267.135 5.37405 267.332 5.79545C267.528 6.21686 267.626 6.71402 267.626 7.28693C267.626 7.86458 267.528 8.36529 267.332 8.78906C267.135 9.21046 266.863 9.53717 266.515 9.76918C266.167 9.99882 265.766 10.1136 265.311 10.1136C264.961 10.1136 264.68 10.0556 264.469 9.93963C264.259 9.82126 264.097 9.6875 263.983 9.53835C263.869 9.38684 263.782 9.26136 263.72 9.16193H263.649V12.0455H262.811ZM263.635 7.27273C263.635 7.68466 263.695 8.04806 263.816 8.36293C263.937 8.67543 264.113 8.92045 264.345 9.09801C264.577 9.2732 264.861 9.3608 265.197 9.3608C265.548 9.3608 265.84 9.26847 266.074 9.08381C266.311 8.89678 266.489 8.64583 266.607 8.33097C266.728 8.01373 266.788 7.66098 266.788 7.27273C266.788 6.8892 266.729 6.54356 266.611 6.2358C266.495 5.92566 266.318 5.68063 266.082 5.50071C265.847 5.31842 265.552 5.22727 265.197 5.22727C264.856 5.22727 264.57 5.31368 264.338 5.48651C264.106 5.65696 263.931 5.89607 263.812 6.20384C263.694 6.50923 263.635 6.86553 263.635 7.27273ZM269.249 12.0455C269.107 12.0455 268.98 12.0336 268.869 12.0099C268.758 11.9886 268.681 11.9673 268.638 11.946L268.851 11.2074C269.055 11.2595 269.235 11.2784 269.391 11.2642C269.547 11.25 269.686 11.1802 269.807 11.0547C269.93 10.9316 270.042 10.7315 270.144 10.4545L270.3 10.0284L268.283 4.54545H269.192L270.698 8.89205H270.755L272.261 4.54545H273.17L270.854 10.7955C270.75 11.0772 270.621 11.3104 270.467 11.495C270.313 11.6821 270.135 11.8205 269.931 11.9105C269.73 12.0005 269.503 12.0455 269.249 12.0455Z" fill="#6C6C6C"/>
<path d="M343.474 10.1136C342.963 10.1136 342.522 9.9929 342.153 9.75142C341.784 9.50994 341.5 9.17732 341.301 8.75355C341.102 8.32978 341.003 7.84564 341.003 7.30114C341.003 6.74716 341.104 6.25829 341.308 5.83452C341.514 5.40838 341.8 5.07576 342.167 4.83665C342.537 4.59517 342.968 4.47443 343.46 4.47443C343.843 4.47443 344.189 4.54545 344.497 4.6875C344.805 4.82955 345.057 5.02841 345.253 5.28409C345.45 5.53977 345.572 5.83807 345.619 6.17898H344.781C344.717 5.9304 344.575 5.71023 344.355 5.51847C344.137 5.32434 343.843 5.22727 343.474 5.22727C343.147 5.22727 342.861 5.3125 342.615 5.48295C342.371 5.65104 342.18 5.88897 342.043 6.19673C341.908 6.50213 341.841 6.8608 341.841 7.27273C341.841 7.69413 341.907 8.06108 342.04 8.37358C342.174 8.68608 342.364 8.92874 342.608 9.10156C342.854 9.27438 343.143 9.3608 343.474 9.3608C343.692 9.3608 343.89 9.32292 344.067 9.24716C344.245 9.1714 344.395 9.0625 344.518 8.92045C344.641 8.77841 344.729 8.60795 344.781 8.40909H345.619C345.572 8.73106 345.455 9.02107 345.267 9.27912C345.083 9.5348 344.838 9.7384 344.532 9.88991C344.229 10.0391 343.877 10.1136 343.474 10.1136ZM349.06 10.1136C348.568 10.1136 348.136 9.99645 347.764 9.76207C347.395 9.5277 347.106 9.19981 346.897 8.77841C346.691 8.35701 346.589 7.86458 346.589 7.30114C346.589 6.73295 346.691 6.23698 346.897 5.81321C347.106 5.38944 347.395 5.06037 347.764 4.82599C348.136 4.59162 348.568 4.47443 349.06 4.47443C349.553 4.47443 349.983 4.59162 350.353 4.82599C350.724 5.06037 351.013 5.38944 351.219 5.81321C351.428 6.23698 351.532 6.73295 351.532 7.30114C351.532 7.86458 351.428 8.35701 351.219 8.77841C351.013 9.19981 350.724 9.5277 350.353 9.76207C349.983 9.99645 349.553 10.1136 349.06 10.1136ZM349.06 9.3608C349.434 9.3608 349.742 9.26491 349.983 9.07315C350.225 8.88139 350.404 8.62926 350.52 8.31676C350.636 8.00426 350.694 7.66572 350.694 7.30114C350.694 6.93655 350.636 6.59683 350.52 6.28196C350.404 5.96709 350.225 5.71259 349.983 5.51847C349.742 5.32434 349.434 5.22727 349.06 5.22727C348.686 5.22727 348.378 5.32434 348.137 5.51847C347.895 5.71259 347.717 5.96709 347.601 6.28196C347.485 6.59683 347.427 6.93655 347.427 7.30114C347.427 7.66572 347.485 8.00426 347.601 8.31676C347.717 8.62926 347.895 8.88139 348.137 9.07315C348.378 9.26491 348.686 9.3608 349.06 9.3608ZM352.811 12.0455V4.54545H353.621V5.41193H353.72C353.782 5.31723 353.867 5.1965 353.976 5.04972C354.087 4.90057 354.246 4.76799 354.452 4.65199C354.66 4.53362 354.942 4.47443 355.297 4.47443C355.756 4.47443 356.161 4.58925 356.511 4.81889C356.862 5.04853 357.135 5.37405 357.332 5.79545C357.528 6.21686 357.626 6.71402 357.626 7.28693C357.626 7.86458 357.528 8.36529 357.332 8.78906C357.135 9.21046 356.863 9.53717 356.515 9.76918C356.167 9.99882 355.766 10.1136 355.311 10.1136C354.961 10.1136 354.68 10.0556 354.469 9.93963C354.259 9.82126 354.097 9.6875 353.983 9.53835C353.869 9.38684 353.782 9.26136 353.72 9.16193H353.649V12.0455H352.811ZM353.635 7.27273C353.635 7.68466 353.695 8.04806 353.816 8.36293C353.937 8.67543 354.113 8.92045 354.345 9.09801C354.577 9.2732 354.861 9.3608 355.197 9.3608C355.548 9.3608 355.84 9.26847 356.074 9.08381C356.311 8.89678 356.489 8.64583 356.607 8.33097C356.728 8.01373 356.788 7.66098 356.788 7.27273C356.788 6.8892 356.729 6.54356 356.611 6.2358C356.495 5.92566 356.318 5.68063 356.082 5.50071C355.847 5.31842 355.552 5.22727 355.197 5.22727C354.856 5.22727 354.57 5.31368 354.338 5.48651C354.106 5.65696 353.931 5.89607 353.812 6.20384C353.694 6.50923 353.635 6.86553 353.635 7.27273ZM359.249 12.0455C359.107 12.0455 358.98 12.0336 358.869 12.0099C358.758 11.9886 358.681 11.9673 358.638 11.946L358.851 11.2074C359.055 11.2595 359.235 11.2784 359.391 11.2642C359.547 11.25 359.686 11.1802 359.807 11.0547C359.93 10.9316 360.042 10.7315 360.144 10.4545L360.3 10.0284L358.283 4.54545H359.192L360.698 8.89205H360.755L362.261 4.54545H363.17L360.854 10.7955C360.75 11.0772 360.621 11.3104 360.467 11.495C360.313 11.6821 360.135 11.8205 359.931 11.9105C359.73 12.0005 359.503 12.0455 359.249 12.0455Z" fill="#6C6C6C"/>
<path d="M121.704 41.8189C121.676 41.5324 121.554 41.3099 121.339 41.1513C121.123 40.9927 120.831 40.9134 120.461 40.9134C120.211 40.9134 119.999 40.9489 119.826 41.0199C119.653 41.0885 119.52 41.1844 119.428 41.3075C119.338 41.4306 119.293 41.5703 119.293 41.7266C119.288 41.8568 119.316 41.9704 119.375 42.0675C119.436 42.1645 119.52 42.2486 119.627 42.3196C119.733 42.3883 119.857 42.4486 119.996 42.5007C120.136 42.5504 120.285 42.593 120.444 42.6286L121.097 42.7848C121.414 42.8558 121.706 42.9505 121.971 43.0689C122.236 43.1873 122.465 43.3329 122.66 43.5057C122.854 43.6785 123.004 43.8821 123.111 44.1165C123.22 44.3509 123.275 44.6196 123.278 44.9226C123.275 45.3677 123.162 45.7536 122.937 46.0803C122.714 46.4046 122.392 46.6567 121.971 46.8366C121.552 47.0142 121.046 47.103 120.454 47.103C119.867 47.103 119.356 47.013 118.92 46.8331C118.487 46.6532 118.148 46.3868 117.905 46.0341C117.663 45.679 117.537 45.2398 117.525 44.7166H119.013C119.029 44.9605 119.099 45.1641 119.222 45.3274C119.348 45.4884 119.515 45.6103 119.723 45.6932C119.934 45.7737 120.171 45.8139 120.437 45.8139C120.697 45.8139 120.923 45.776 121.115 45.7003C121.309 45.6245 121.459 45.5192 121.566 45.3842C121.672 45.2493 121.726 45.0942 121.726 44.919C121.726 44.7557 121.677 44.6184 121.58 44.5071C121.485 44.3958 121.346 44.3011 121.161 44.223C120.979 44.1449 120.755 44.0739 120.49 44.0099L119.698 43.8111C119.085 43.6619 118.601 43.4287 118.246 43.1115C117.89 42.7943 117.714 42.367 117.716 41.8295C117.714 41.3892 117.831 41.0045 118.068 40.6754C118.307 40.3464 118.635 40.0895 119.052 39.9048C119.468 39.7202 119.942 39.6278 120.472 39.6278C121.012 39.6278 121.483 39.7202 121.885 39.9048C122.29 40.0895 122.605 40.3464 122.83 40.6754C123.055 41.0045 123.171 41.3857 123.178 41.8189H121.704ZM124.312 47V39.7273H127.181C127.73 39.7273 128.199 39.8255 128.587 40.022C128.978 40.2161 129.275 40.492 129.479 40.8494C129.685 41.2045 129.788 41.6224 129.788 42.103C129.788 42.5859 129.683 43.0014 129.475 43.3494C129.267 43.6951 128.965 43.9602 128.57 44.1449C128.177 44.3295 127.701 44.4219 127.142 44.4219H125.221V43.1861H126.893C127.187 43.1861 127.431 43.1458 127.625 43.0653C127.819 42.9848 127.964 42.8641 128.058 42.7031C128.155 42.5421 128.204 42.3421 128.204 42.103C128.204 41.8615 128.155 41.6579 128.058 41.4922C127.964 41.3265 127.818 41.201 127.621 41.1158C127.427 41.0282 127.182 40.9844 126.886 40.9844H125.849V47H124.312ZM128.239 43.6903L130.047 47H128.349L126.581 43.6903H128.239ZM132.128 47H130.48L132.991 39.7273H134.972L137.479 47H135.832L134.01 41.3892H133.953L132.128 47ZM132.025 44.1413H135.917V45.3416H132.025V44.1413ZM138.355 39.7273H140.251L142.254 44.6136H142.339L144.342 39.7273H146.238V47H144.747V42.2663H144.686L142.804 46.9645H141.789L139.907 42.2486H139.846V47H138.355V39.7273Z" fill="#ED7D31"/>
<path d="M108.248 62H107.367C107.315 61.7467 107.224 61.5241 107.093 61.3324C106.966 61.1406 106.809 60.9796 106.625 60.8494C106.442 60.7169 106.24 60.6174 106.017 60.5511C105.795 60.4848 105.563 60.4517 105.321 60.4517C104.881 60.4517 104.482 60.563 104.125 60.7855C103.77 61.008 103.487 61.3359 103.276 61.7692C103.068 62.2024 102.964 62.7339 102.964 63.3636C102.964 63.9934 103.068 64.5249 103.276 64.9581C103.487 65.3913 103.77 65.7192 104.125 65.9418C104.482 66.1643 104.881 66.2756 105.321 66.2756C105.563 66.2756 105.795 66.2424 106.017 66.1761C106.24 66.1098 106.442 66.0116 106.625 65.8814C106.809 65.7488 106.966 65.5866 107.093 65.3949C107.224 65.2008 107.315 64.9782 107.367 64.7273H108.248C108.181 65.099 108.061 65.4316 107.885 65.7251C107.71 66.0187 107.492 66.2685 107.232 66.4744C106.972 66.678 106.679 66.8331 106.355 66.9396C106.033 67.0462 105.688 67.0994 105.321 67.0994C104.701 67.0994 104.15 66.9479 103.667 66.6449C103.184 66.3419 102.804 65.911 102.527 65.3523C102.25 64.7936 102.111 64.1307 102.111 63.3636C102.111 62.5966 102.25 61.9337 102.527 61.375C102.804 60.8163 103.184 60.3854 103.667 60.0824C104.15 59.7794 104.701 59.6278 105.321 59.6278C105.688 59.6278 106.033 59.6811 106.355 59.7876C106.679 59.8942 106.972 60.0504 107.232 60.2564C107.492 60.46 107.71 60.7086 107.885 61.0021C108.061 61.2933 108.181 61.6259 108.248 62ZM111.162 67.1278C110.817 67.1278 110.503 67.0627 110.221 66.9325C109.939 66.8 109.716 66.6094 109.55 66.3608C109.384 66.1098 109.301 65.8068 109.301 65.4517C109.301 65.1392 109.363 64.8859 109.486 64.6918C109.609 64.4953 109.774 64.3414 109.98 64.2301C110.186 64.1188 110.413 64.036 110.661 63.9815C110.912 63.9247 111.165 63.8797 111.418 63.8466C111.749 63.804 112.018 63.772 112.224 63.7507C112.432 63.727 112.584 63.688 112.679 63.6335C112.776 63.5791 112.824 63.4844 112.824 63.3494V63.321C112.824 62.9706 112.728 62.6984 112.536 62.5043C112.347 62.3101 112.059 62.2131 111.674 62.2131C111.273 62.2131 110.96 62.3007 110.733 62.4759C110.505 62.651 110.345 62.8381 110.253 63.0369L109.458 62.7528C109.6 62.4214 109.789 62.1634 110.026 61.9787C110.265 61.7917 110.525 61.6615 110.807 61.5881C111.091 61.5123 111.371 61.4744 111.645 61.4744C111.82 61.4744 112.022 61.4957 112.249 61.5384C112.478 61.5786 112.7 61.6626 112.913 61.7905C113.128 61.9183 113.307 62.1113 113.449 62.3693C113.591 62.6274 113.662 62.973 113.662 63.4062V67H112.824V66.2614H112.782C112.725 66.3797 112.63 66.5064 112.497 66.6413C112.365 66.7763 112.188 66.8911 111.968 66.9858C111.748 67.0805 111.479 67.1278 111.162 67.1278ZM111.29 66.375C111.621 66.375 111.901 66.3099 112.128 66.1797C112.358 66.0495 112.531 65.8814 112.647 65.6754C112.765 65.4695 112.824 65.2528 112.824 65.0256V64.2585C112.789 64.3011 112.71 64.3402 112.59 64.3757C112.471 64.4089 112.334 64.4384 112.178 64.4645C112.024 64.4882 111.874 64.5095 111.727 64.5284C111.582 64.545 111.465 64.5592 111.375 64.571C111.157 64.5994 110.954 64.6456 110.764 64.7095C110.577 64.7711 110.426 64.8646 110.31 64.9901C110.196 65.1132 110.139 65.2812 110.139 65.4943C110.139 65.7855 110.247 66.0057 110.463 66.1548C110.68 66.3016 110.956 66.375 111.29 66.375ZM116.03 59.7273V67H115.192V59.7273H116.03ZM119.781 67.1136C119.269 67.1136 118.829 66.9929 118.46 66.7514C118.09 66.5099 117.806 66.1773 117.608 65.7536C117.409 65.3298 117.309 64.8456 117.309 64.3011C117.309 63.7472 117.411 63.2583 117.615 62.8345C117.821 62.4084 118.107 62.0758 118.474 61.8366C118.843 61.5952 119.274 61.4744 119.767 61.4744C120.15 61.4744 120.496 61.5455 120.804 61.6875C121.111 61.8295 121.363 62.0284 121.56 62.2841C121.756 62.5398 121.878 62.8381 121.926 63.179H121.088C121.024 62.9304 120.882 62.7102 120.661 62.5185C120.444 62.3243 120.15 62.2273 119.781 62.2273C119.454 62.2273 119.168 62.3125 118.921 62.483C118.678 62.651 118.487 62.889 118.35 63.1967C118.215 63.5021 118.147 63.8608 118.147 64.2727C118.147 64.6941 118.214 65.0611 118.346 65.3736C118.481 65.6861 118.67 65.9287 118.914 66.1016C119.161 66.2744 119.449 66.3608 119.781 66.3608C119.999 66.3608 120.196 66.3229 120.374 66.2472C120.551 66.1714 120.702 66.0625 120.825 65.9205C120.948 65.7784 121.036 65.608 121.088 65.4091H121.926C121.878 65.7311 121.761 66.0211 121.574 66.2791C121.389 66.5348 121.144 66.7384 120.839 66.8899C120.536 67.0391 120.183 67.1136 119.781 67.1136ZM126.588 64.7699V61.5455H127.426V67H126.588V66.0767H126.532C126.404 66.3537 126.205 66.5893 125.935 66.7834C125.665 66.9751 125.324 67.071 124.912 67.071C124.571 67.071 124.268 66.9964 124.003 66.8473C123.738 66.6958 123.53 66.4685 123.378 66.1655C123.227 65.8601 123.151 65.4754 123.151 65.0114V61.5455H123.989V64.9545C123.989 65.3523 124.1 65.6695 124.323 65.9062C124.548 66.143 124.834 66.2614 125.182 66.2614C125.39 66.2614 125.602 66.2081 125.818 66.1016C126.036 65.995 126.218 65.8317 126.365 65.6115C126.514 65.3913 126.588 65.1108 126.588 64.7699ZM129.799 59.7273V67H128.961V59.7273H129.799ZM132.94 67.1278C132.594 67.1278 132.28 67.0627 131.998 66.9325C131.717 66.8 131.493 66.6094 131.327 66.3608C131.162 66.1098 131.079 65.8068 131.079 65.4517C131.079 65.1392 131.14 64.8859 131.263 64.6918C131.387 64.4953 131.551 64.3414 131.757 64.2301C131.963 64.1188 132.19 64.036 132.439 63.9815C132.69 63.9247 132.942 63.8797 133.195 63.8466C133.527 63.804 133.795 63.772 134.001 63.7507C134.21 63.727 134.361 63.688 134.456 63.6335C134.553 63.5791 134.601 63.4844 134.601 63.3494V63.321C134.601 62.9706 134.506 62.6984 134.314 62.5043C134.124 62.3101 133.837 62.2131 133.451 62.2131C133.051 62.2131 132.737 62.3007 132.51 62.4759C132.283 62.651 132.123 62.8381 132.03 63.0369L131.235 62.7528C131.377 62.4214 131.566 62.1634 131.803 61.9787C132.042 61.7917 132.303 61.6615 132.584 61.5881C132.869 61.5123 133.148 61.4744 133.422 61.4744C133.598 61.4744 133.799 61.4957 134.026 61.5384C134.256 61.5786 134.477 61.6626 134.69 61.7905C134.906 61.9183 135.084 62.1113 135.226 62.3693C135.369 62.6274 135.44 62.973 135.44 63.4062V67H134.601V66.2614H134.559C134.502 66.3797 134.407 66.5064 134.275 66.6413C134.142 66.7763 133.966 66.8911 133.746 66.9858C133.525 67.0805 133.257 67.1278 132.94 67.1278ZM133.067 66.375C133.399 66.375 133.678 66.3099 133.905 66.1797C134.135 66.0495 134.308 65.8814 134.424 65.6754C134.542 65.4695 134.601 65.2528 134.601 65.0256V64.2585C134.566 64.3011 134.488 64.3402 134.367 64.3757C134.249 64.4089 134.111 64.4384 133.955 64.4645C133.801 64.4882 133.651 64.5095 133.504 64.5284C133.36 64.545 133.243 64.5592 133.153 64.571C132.935 64.5994 132.731 64.6456 132.542 64.7095C132.355 64.7711 132.203 64.8646 132.087 64.9901C131.974 65.1132 131.917 65.2812 131.917 65.4943C131.917 65.7855 132.025 66.0057 132.24 66.1548C132.458 66.3016 132.734 66.375 133.067 66.375ZM139.341 61.5455V62.2557H136.515V61.5455H139.341ZM137.339 60.2386H138.177V65.4375C138.177 65.6742 138.211 65.8518 138.28 65.9702C138.351 66.0862 138.441 66.1643 138.549 66.2045C138.661 66.2424 138.778 66.2614 138.901 66.2614C138.993 66.2614 139.069 66.2566 139.128 66.2472C139.187 66.2353 139.235 66.2259 139.27 66.2188L139.441 66.9716C139.384 66.9929 139.305 67.0142 139.203 67.0355C139.101 67.0592 138.972 67.071 138.816 67.071C138.579 67.071 138.347 67.0201 138.12 66.9183C137.895 66.8165 137.708 66.6615 137.559 66.4531C137.412 66.2448 137.339 65.982 137.339 65.6648V60.2386ZM140.602 67V61.5455H141.44V67H140.602ZM141.028 60.6364C140.865 60.6364 140.724 60.5807 140.606 60.4695C140.49 60.3582 140.432 60.2244 140.432 60.0682C140.432 59.9119 140.49 59.7782 140.606 59.6669C140.724 59.5556 140.865 59.5 141.028 59.5C141.191 59.5 141.331 59.5556 141.447 59.6669C141.566 59.7782 141.625 59.9119 141.625 60.0682C141.625 60.2244 141.566 60.3582 141.447 60.4695C141.331 60.5807 141.191 60.6364 141.028 60.6364ZM145.191 67.1136C144.699 67.1136 144.266 66.9964 143.895 66.7621C143.525 66.5277 143.237 66.1998 143.028 65.7784C142.822 65.357 142.719 64.8646 142.719 64.3011C142.719 63.733 142.822 63.237 143.028 62.8132C143.237 62.3894 143.525 62.0604 143.895 61.826C144.266 61.5916 144.699 61.4744 145.191 61.4744C145.683 61.4744 146.114 61.5916 146.484 61.826C146.855 62.0604 147.144 62.3894 147.35 62.8132C147.558 63.237 147.663 63.733 147.663 64.3011C147.663 64.8646 147.558 65.357 147.35 65.7784C147.144 66.1998 146.855 66.5277 146.484 66.7621C146.114 66.9964 145.683 67.1136 145.191 67.1136ZM145.191 66.3608C145.565 66.3608 145.873 66.2649 146.114 66.0732C146.356 65.8814 146.534 65.6293 146.65 65.3168C146.766 65.0043 146.824 64.6657 146.824 64.3011C146.824 63.9366 146.766 63.5968 146.65 63.282C146.534 62.9671 146.356 62.7126 146.114 62.5185C145.873 62.3243 145.565 62.2273 145.191 62.2273C144.817 62.2273 144.509 62.3243 144.268 62.5185C144.026 62.7126 143.847 62.9671 143.731 63.282C143.615 63.5968 143.557 63.9366 143.557 64.3011C143.557 64.6657 143.615 65.0043 143.731 65.3168C143.847 65.6293 144.026 65.8814 144.268 66.0732C144.509 66.2649 144.817 66.3608 145.191 66.3608ZM149.78 63.7188V67H148.942V61.5455H149.752V62.3977H149.823C149.95 62.1207 150.145 61.8982 150.405 61.7301C150.665 61.5597 151.002 61.4744 151.413 61.4744C151.783 61.4744 152.106 61.5502 152.383 61.7017C152.66 61.8509 152.875 62.0781 153.029 62.3835C153.183 62.6866 153.26 63.0701 153.26 63.5341V67H152.422V63.5909C152.422 63.1624 152.311 62.8286 152.088 62.5895C151.866 62.348 151.56 62.2273 151.172 62.2273C150.904 62.2273 150.665 62.2853 150.455 62.4013C150.246 62.5173 150.082 62.6866 149.961 62.9091C149.84 63.1316 149.78 63.4015 149.78 63.7188ZM160.147 59.7273V67H159.266V60.6506H159.223L157.448 61.8295V60.9347L159.266 59.7273H160.147Z" fill="#6C6C6C"/>
<path d="M379.476 45H376.898V37.7273H379.497C380.229 37.7273 380.858 37.8729 381.386 38.1641C381.914 38.4529 382.32 38.8684 382.604 39.4105C382.891 39.9527 383.034 40.6013 383.034 41.3565C383.034 42.1141 382.891 42.7652 382.604 43.3097C382.32 43.8542 381.912 44.272 381.379 44.5632C380.849 44.8544 380.214 45 379.476 45ZM378.435 43.6825H379.412C379.866 43.6825 380.249 43.602 380.559 43.4411C380.871 43.2777 381.106 43.0256 381.262 42.6847C381.421 42.3414 381.5 41.8987 381.5 41.3565C381.5 40.8191 381.421 40.38 381.262 40.0391C381.106 39.6982 380.873 39.4472 380.562 39.2862C380.252 39.1252 379.87 39.0447 379.415 39.0447H378.435V43.6825ZM384.173 45V37.7273H387.042C387.592 37.7273 388.06 37.8255 388.449 38.022C388.839 38.2161 389.136 38.492 389.34 38.8494C389.546 39.2045 389.649 39.6224 389.649 40.103C389.649 40.5859 389.545 41.0014 389.336 41.3494C389.128 41.6951 388.826 41.9602 388.431 42.1449C388.038 42.3295 387.562 42.4219 387.003 42.4219H385.082V41.1861H386.755C387.048 41.1861 387.292 41.1458 387.486 41.0653C387.68 40.9848 387.825 40.8641 387.92 40.7031C388.017 40.5421 388.065 40.3421 388.065 40.103C388.065 39.8615 388.017 39.6579 387.92 39.4922C387.825 39.3265 387.679 39.201 387.483 39.1158C387.289 39.0282 387.044 38.9844 386.748 38.9844H385.711V45H384.173ZM388.101 41.6903L389.908 45H388.211L386.442 41.6903H388.101ZM391.989 45H390.341L392.852 37.7273H394.834L397.341 45H395.693L393.871 39.3892H393.814L391.989 45ZM391.886 42.1413H395.778V43.3416H391.886V42.1413ZM398.216 37.7273H400.112L402.115 42.6136H402.2L404.203 37.7273H406.1V45H404.608V40.2663H404.548L402.666 44.9645H401.65L399.768 40.2486H399.708V45H398.216V37.7273Z" fill="#548235"/>
<path d="M364.205 67L362.216 59.7273H363.111L364.631 65.6506H364.702L366.25 59.7273H367.244L368.793 65.6506H368.864L370.384 59.7273H371.278L369.29 67H368.381L366.776 61.2045H366.719L365.114 67H364.205ZM371.92 67V61.5455H372.73V62.3693H372.787C372.886 62.0994 373.066 61.8804 373.327 61.7124C373.587 61.5443 373.881 61.4602 374.207 61.4602C374.269 61.4602 374.346 61.4614 374.438 61.4638C374.53 61.4661 374.6 61.4697 374.648 61.4744V62.3267C374.619 62.3196 374.554 62.3089 374.452 62.2947C374.353 62.2782 374.248 62.2699 374.136 62.2699C373.871 62.2699 373.634 62.3255 373.426 62.4368C373.22 62.5457 373.057 62.6972 372.936 62.8913C372.818 63.0831 372.758 63.3021 372.758 63.5483V67H371.92ZM375.641 67V61.5455H376.479V67H375.641ZM376.067 60.6364C375.904 60.6364 375.763 60.5807 375.645 60.4695C375.529 60.3582 375.471 60.2244 375.471 60.0682C375.471 59.9119 375.529 59.7782 375.645 59.6669C375.763 59.5556 375.904 59.5 376.067 59.5C376.231 59.5 376.37 59.5556 376.486 59.6669C376.605 59.7782 376.664 59.9119 376.664 60.0682C376.664 60.2244 376.605 60.3582 376.486 60.4695C376.37 60.5807 376.231 60.6364 376.067 60.6364ZM380.386 61.5455V62.2557H377.56V61.5455H380.386ZM378.383 60.2386H379.222V65.4375C379.222 65.6742 379.256 65.8518 379.324 65.9702C379.396 66.0862 379.485 66.1643 379.594 66.2045C379.706 66.2424 379.823 66.2614 379.946 66.2614C380.038 66.2614 380.114 66.2566 380.173 66.2472C380.232 66.2353 380.28 66.2259 380.315 66.2188L380.486 66.9716C380.429 66.9929 380.35 67.0142 380.248 67.0355C380.146 67.0592 380.017 67.071 379.861 67.071C379.624 67.071 379.392 67.0201 379.165 66.9183C378.94 66.8165 378.753 66.6615 378.604 66.4531C378.457 66.2448 378.383 65.982 378.383 65.6648V60.2386ZM383.875 67.1136C383.35 67.1136 382.896 66.9976 382.515 66.7656C382.136 66.5312 381.844 66.2045 381.638 65.7855C381.434 65.3641 381.333 64.8741 381.333 64.3153C381.333 63.7566 381.434 63.2642 381.638 62.8381C381.844 62.4096 382.13 62.0758 382.497 61.8366C382.867 61.5952 383.298 61.4744 383.79 61.4744C384.074 61.4744 384.355 61.5218 384.632 61.6165C384.909 61.7112 385.161 61.8651 385.388 62.0781C385.615 62.2888 385.796 62.5682 385.931 62.9162C386.066 63.2642 386.134 63.6927 386.134 64.2017V64.5568H381.929V63.8324H385.282C385.282 63.5246 385.22 63.25 385.097 63.0085C384.976 62.767 384.803 62.5765 384.578 62.4368C384.356 62.2971 384.093 62.2273 383.79 62.2273C383.456 62.2273 383.167 62.3101 382.924 62.4759C382.682 62.6392 382.496 62.8523 382.366 63.1151C382.236 63.3778 382.171 63.6596 382.171 63.9602V64.4432C382.171 64.8551 382.242 65.2043 382.384 65.4908C382.528 65.7749 382.728 65.9915 382.984 66.1406C383.24 66.2874 383.537 66.3608 383.875 66.3608C384.095 66.3608 384.294 66.33 384.472 66.2685C384.652 66.2045 384.807 66.1098 384.937 65.9844C385.067 65.8565 385.168 65.6979 385.239 65.5085L386.049 65.7358C385.963 66.0104 385.82 66.2519 385.619 66.4602C385.418 66.6662 385.169 66.8272 384.873 66.9432C384.577 67.0568 384.245 67.1136 383.875 67.1136ZM390.221 67V61.5455H391.031V62.3693H391.088C391.187 62.0994 391.367 61.8804 391.627 61.7124C391.888 61.5443 392.181 61.4602 392.508 61.4602C392.57 61.4602 392.647 61.4614 392.739 61.4638C392.831 61.4661 392.901 61.4697 392.948 61.4744V62.3267C392.92 62.3196 392.855 62.3089 392.753 62.2947C392.654 62.2782 392.548 62.2699 392.437 62.2699C392.172 62.2699 391.935 62.3255 391.727 62.4368C391.521 62.5457 391.358 62.6972 391.237 62.8913C391.118 63.0831 391.059 63.3021 391.059 63.5483V67H390.221ZM396.063 67.1136C395.537 67.1136 395.084 66.9976 394.703 66.7656C394.324 66.5312 394.032 66.2045 393.826 65.7855C393.622 65.3641 393.52 64.8741 393.52 64.3153C393.52 63.7566 393.622 63.2642 393.826 62.8381C394.032 62.4096 394.318 62.0758 394.685 61.8366C395.054 61.5952 395.485 61.4744 395.978 61.4744C396.262 61.4744 396.542 61.5218 396.819 61.6165C397.096 61.7112 397.348 61.8651 397.576 62.0781C397.803 62.2888 397.984 62.5682 398.119 62.9162C398.254 63.2642 398.321 63.6927 398.321 64.2017V64.5568H394.117V63.8324H397.469C397.469 63.5246 397.407 63.25 397.284 63.0085C397.164 62.767 396.991 62.5765 396.766 62.4368C396.543 62.2971 396.281 62.2273 395.978 62.2273C395.644 62.2273 395.355 62.3101 395.111 62.4759C394.87 62.6392 394.684 62.8523 394.554 63.1151C394.423 63.3778 394.358 63.6596 394.358 63.9602V64.4432C394.358 64.8551 394.429 65.2043 394.571 65.4908C394.716 65.7749 394.916 65.9915 395.171 66.1406C395.427 66.2874 395.724 66.3608 396.063 66.3608C396.283 66.3608 396.482 66.33 396.659 66.2685C396.839 66.2045 396.994 66.1098 397.125 65.9844C397.255 65.8565 397.355 65.6979 397.426 65.5085L398.236 65.7358C398.151 66.0104 398.008 66.2519 397.806 66.4602C397.605 66.6662 397.357 66.8272 397.061 66.9432C396.765 67.0568 396.432 67.1136 396.063 67.1136ZM403.46 62.767L402.707 62.9801C402.66 62.8546 402.59 62.7327 402.497 62.6143C402.407 62.4936 402.284 62.3942 402.128 62.3161C401.972 62.2379 401.772 62.1989 401.528 62.1989C401.194 62.1989 400.916 62.2758 400.693 62.4297C400.473 62.5812 400.363 62.7741 400.363 63.0085C400.363 63.2169 400.439 63.3814 400.59 63.5021C400.742 63.6229 400.979 63.7235 401.301 63.804L402.11 64.0028C402.598 64.1212 402.961 64.3023 403.201 64.5462C403.44 64.7876 403.559 65.099 403.559 65.4801C403.559 65.7926 403.469 66.072 403.289 66.3182C403.112 66.5644 402.863 66.7585 402.544 66.9006C402.224 67.0426 401.852 67.1136 401.429 67.1136C400.872 67.1136 400.412 66.9929 400.047 66.7514C399.683 66.5099 399.452 66.1572 399.355 65.6932L400.15 65.4943C400.226 65.7879 400.369 66.008 400.58 66.1548C400.793 66.3016 401.071 66.375 401.414 66.375C401.805 66.375 402.115 66.2921 402.345 66.1264C402.577 65.9583 402.693 65.7571 402.693 65.5227C402.693 65.3333 402.626 65.1747 402.494 65.0469C402.361 64.9167 402.158 64.8196 401.883 64.7557L400.974 64.5426C400.474 64.4242 400.108 64.2408 399.873 63.9922C399.641 63.7412 399.525 63.4276 399.525 63.0511C399.525 62.7434 399.612 62.4711 399.784 62.2344C399.96 61.9976 400.197 61.8118 400.498 61.6768C400.801 61.5419 401.144 61.4744 401.528 61.4744C402.068 61.4744 402.492 61.5928 402.799 61.8295C403.109 62.0663 403.33 62.3788 403.46 62.767ZM408.258 64.7699V61.5455H409.096V67H408.258V66.0767H408.201C408.074 66.3537 407.875 66.5893 407.605 66.7834C407.335 66.9751 406.994 67.071 406.582 67.071C406.241 67.071 405.938 66.9964 405.673 66.8473C405.408 66.6958 405.2 66.4685 405.048 66.1655C404.897 65.8601 404.821 65.4754 404.821 65.0114V61.5455H405.659V64.9545C405.659 65.3523 405.77 65.6695 405.993 65.9062C406.218 66.143 406.504 66.2614 406.852 66.2614C407.06 66.2614 407.272 66.2081 407.488 66.1016C407.705 65.995 407.888 65.8317 408.035 65.6115C408.184 65.3913 408.258 65.1108 408.258 64.7699ZM411.469 59.7273V67H410.631V59.7273H411.469ZM415.377 61.5455V62.2557H412.55V61.5455H415.377ZM413.374 60.2386H414.212V65.4375C414.212 65.6742 414.246 65.8518 414.315 65.9702C414.386 66.0862 414.476 66.1643 414.585 66.2045C414.696 66.2424 414.813 66.2614 414.936 66.2614C415.028 66.2614 415.104 66.2566 415.163 66.2472C415.223 66.2353 415.27 66.2259 415.305 66.2188L415.476 66.9716C415.419 66.9929 415.34 67.0142 415.238 67.0355C415.136 67.0592 415.007 67.071 414.851 67.071C414.614 67.071 414.382 67.0201 414.155 66.9183C413.93 66.8165 413.743 66.6615 413.594 66.4531C413.447 66.2448 413.374 65.982 413.374 65.6648V60.2386ZM420.403 62.767L419.65 62.9801C419.603 62.8546 419.533 62.7327 419.441 62.6143C419.351 62.4936 419.228 62.3942 419.071 62.3161C418.915 62.2379 418.715 62.1989 418.471 62.1989C418.138 62.1989 417.859 62.2758 417.637 62.4297C417.417 62.5812 417.307 62.7741 417.307 63.0085C417.307 63.2169 417.382 63.3814 417.534 63.5021C417.685 63.6229 417.922 63.7235 418.244 63.804L419.054 64.0028C419.541 64.1212 419.905 64.3023 420.144 64.5462C420.383 64.7876 420.503 65.099 420.503 65.4801C420.503 65.7926 420.413 66.072 420.233 66.3182C420.055 66.5644 419.807 66.7585 419.487 66.9006C419.167 67.0426 418.796 67.1136 418.372 67.1136C417.816 67.1136 417.355 66.9929 416.991 66.7514C416.626 66.5099 416.395 66.1572 416.298 65.6932L417.093 65.4943C417.169 65.7879 417.312 66.008 417.523 66.1548C417.736 66.3016 418.014 66.375 418.358 66.375C418.748 66.375 419.058 66.2921 419.288 66.1264C419.52 65.9583 419.636 65.7571 419.636 65.5227C419.636 65.3333 419.57 65.1747 419.437 65.0469C419.305 64.9167 419.101 64.8196 418.826 64.7557L417.917 64.5426C417.418 64.4242 417.051 64.2408 416.816 63.9922C416.584 63.7412 416.468 63.4276 416.468 63.0511C416.468 62.7434 416.555 62.4711 416.728 62.2344C416.903 61.9976 417.141 61.8118 417.441 61.6768C417.745 61.5419 418.088 61.4744 418.471 61.4744C419.011 61.4744 419.435 61.5928 419.743 61.8295C420.053 62.0663 420.273 62.3788 420.403 62.767Z" fill="#6C6C6C"/>
<path d="M97 64L92 61.1132V66.8868L97 64ZM79 64.5H92.5V63.5H79V64.5Z" fill="black" fill-opacity="0.8"/>
<path d="M126.884 34L129.327 28.7688L123.575 29.2688L126.884 34ZM48.5 34C48.5 27.9718 52.7682 23.4553 59.5251 20.3719C66.2738 17.2921 75.3797 15.711 84.7313 15.5198C94.0788 15.3286 103.623 16.527 111.235 18.9686C115.041 20.1894 118.346 21.7155 120.899 23.5207C123.453 25.3268 125.225 27.3915 126.022 29.6829L126.967 29.3545C126.079 26.8022 124.136 24.5847 121.476 22.7042C118.815 20.8226 115.409 19.2574 111.54 18.0164C103.803 15.5344 94.145 14.327 84.7109 14.52C75.2809 14.7129 66.0263 16.3058 59.1099 19.4621C52.2016 22.6147 47.5 27.3962 47.5 34H48.5Z" fill="black" fill-opacity="0.8"/>
<path d="M212.884 34L215.327 28.7688L209.575 29.2688L212.884 34ZM134.5 34C134.5 27.9718 138.768 23.4553 145.525 20.3719C152.274 17.2921 161.38 15.711 170.731 15.5198C180.079 15.3286 189.623 16.527 197.235 18.9686C201.041 20.1894 204.346 21.7155 206.899 23.5207C209.453 25.3268 211.225 27.3915 212.022 29.6829L212.967 29.3545C212.079 26.8022 210.136 24.5847 207.476 22.7042C204.815 20.8226 201.409 19.2574 197.54 18.0164C189.803 15.5344 180.145 14.327 170.711 14.52C161.281 14.7129 152.026 16.3058 145.11 19.4621C138.202 22.6147 133.5 27.3962 133.5 34H134.5Z" fill="black" fill-opacity="0.8"/>
<path d="M302.884 34L305.327 28.7688L299.575 29.2688L302.884 34ZM224.5 34C224.5 27.9718 228.768 23.4553 235.525 20.3719C242.274 17.2921 251.38 15.711 260.731 15.5198C270.079 15.3286 279.623 16.527 287.235 18.9686C291.041 20.1894 294.346 21.7155 296.899 23.5207C299.453 25.3268 301.225 27.3915 302.022 29.6829L302.967 29.3545C302.079 26.8022 300.136 24.5847 297.476 22.7042C294.815 20.8226 291.409 19.2574 287.54 18.0164C279.803 15.5344 270.145 14.327 260.711 14.52C251.281 14.7129 242.026 16.3058 235.11 19.4621C228.202 22.6147 223.5 27.3962 223.5 34H224.5Z" fill="black" fill-opacity="0.8"/>
<path d="M391.884 34L394.327 28.7688L388.575 29.2688L391.884 34ZM313.5 34C313.5 27.9718 317.768 23.4553 324.525 20.3719C331.274 17.2921 340.38 15.711 349.731 15.5198C359.079 15.3286 368.623 16.527 376.235 18.9686C380.041 20.1894 383.346 21.7155 385.899 23.5207C388.453 25.3268 390.225 27.3915 391.022 29.6829L391.967 29.3545C391.079 26.8022 389.136 24.5847 386.476 22.7042C383.815 20.8226 380.409 19.2574 376.54 18.0164C368.803 15.5344 359.145 14.327 349.711 14.52C340.281 14.7129 331.026 16.3058 324.11 19.4621C317.202 22.6147 312.5 27.3962 312.5 34H313.5Z" fill="black" fill-opacity="0.8"/>
<path d="M296.704 41.8189C296.676 41.5324 296.554 41.3099 296.339 41.1513C296.123 40.9927 295.831 40.9134 295.461 40.9134C295.211 40.9134 294.999 40.9489 294.826 41.0199C294.653 41.0885 294.52 41.1844 294.428 41.3075C294.338 41.4306 294.293 41.5703 294.293 41.7266C294.288 41.8568 294.316 41.9704 294.375 42.0675C294.436 42.1645 294.52 42.2486 294.627 42.3196C294.733 42.3883 294.857 42.4486 294.996 42.5007C295.136 42.5504 295.285 42.593 295.444 42.6286L296.097 42.7848C296.414 42.8558 296.706 42.9505 296.971 43.0689C297.236 43.1873 297.465 43.3329 297.66 43.5057C297.854 43.6785 298.004 43.8821 298.111 44.1165C298.22 44.3509 298.275 44.6196 298.278 44.9226C298.275 45.3677 298.162 45.7536 297.937 46.0803C297.714 46.4046 297.392 46.6567 296.971 46.8366C296.552 47.0142 296.046 47.103 295.454 47.103C294.867 47.103 294.356 47.013 293.92 46.8331C293.487 46.6532 293.148 46.3868 292.905 46.0341C292.663 45.679 292.537 45.2398 292.525 44.7166H294.013C294.029 44.9605 294.099 45.1641 294.222 45.3274C294.348 45.4884 294.515 45.6103 294.723 45.6932C294.934 45.7737 295.171 45.8139 295.437 45.8139C295.697 45.8139 295.923 45.776 296.115 45.7003C296.309 45.6245 296.459 45.5192 296.566 45.3842C296.672 45.2493 296.726 45.0942 296.726 44.919C296.726 44.7557 296.677 44.6184 296.58 44.5071C296.485 44.3958 296.346 44.3011 296.161 44.223C295.979 44.1449 295.755 44.0739 295.49 44.0099L294.698 43.8111C294.085 43.6619 293.601 43.4287 293.246 43.1115C292.89 42.7943 292.714 42.367 292.716 41.8295C292.714 41.3892 292.831 41.0045 293.068 40.6754C293.307 40.3464 293.635 40.0895 294.052 39.9048C294.468 39.7202 294.942 39.6278 295.472 39.6278C296.012 39.6278 296.483 39.7202 296.885 39.9048C297.29 40.0895 297.605 40.3464 297.83 40.6754C298.055 41.0045 298.171 41.3857 298.178 41.8189H296.704ZM299.312 47V39.7273H302.181C302.73 39.7273 303.199 39.8255 303.587 40.022C303.978 40.2161 304.275 40.492 304.479 40.8494C304.685 41.2045 304.788 41.6224 304.788 42.103C304.788 42.5859 304.683 43.0014 304.475 43.3494C304.267 43.6951 303.965 43.9602 303.57 44.1449C303.177 44.3295 302.701 44.4219 302.142 44.4219H300.221V43.1861H301.893C302.187 43.1861 302.431 43.1458 302.625 43.0653C302.819 42.9848 302.964 42.8641 303.058 42.7031C303.155 42.5421 303.204 42.3421 303.204 42.103C303.204 41.8615 303.155 41.6579 303.058 41.4922C302.964 41.3265 302.818 41.201 302.621 41.1158C302.427 41.0282 302.182 40.9844 301.886 40.9844H300.849V47H299.312ZM303.239 43.6903L305.047 47H303.349L301.581 43.6903H303.239ZM307.128 47H305.48L307.991 39.7273H309.972L312.479 47H310.832L309.01 41.3892H308.953L307.128 47ZM307.025 44.1413H310.917V45.3416H307.025V44.1413ZM313.355 39.7273H315.251L317.254 44.6136H317.339L319.342 39.7273H321.238V47H319.747V42.2663H319.686L317.804 46.9645H316.789L314.907 42.2486H314.846V47H313.355V39.7273Z" fill="#ED7D31"/>
<path d="M282.544 62H281.664C281.612 61.7467 281.521 61.5241 281.39 61.3324C281.263 61.1406 281.106 60.9796 280.922 60.8494C280.739 60.7169 280.537 60.6174 280.314 60.5511C280.092 60.4848 279.86 60.4517 279.618 60.4517C279.178 60.4517 278.779 60.563 278.422 60.7855C278.066 61.008 277.784 61.3359 277.573 61.7692C277.365 62.2024 277.26 62.7339 277.26 63.3636C277.26 63.9934 277.365 64.5249 277.573 64.9581C277.784 65.3913 278.066 65.7192 278.422 65.9418C278.779 66.1643 279.178 66.2756 279.618 66.2756C279.86 66.2756 280.092 66.2424 280.314 66.1761C280.537 66.1098 280.739 66.0116 280.922 65.8814C281.106 65.7488 281.263 65.5866 281.39 65.3949C281.521 65.2008 281.612 64.9782 281.664 64.7273H282.544C282.478 65.099 282.357 65.4316 282.182 65.7251C282.007 66.0187 281.789 66.2685 281.529 66.4744C281.268 66.678 280.976 66.8331 280.652 66.9396C280.33 67.0462 279.985 67.0994 279.618 67.0994C278.998 67.0994 278.446 66.9479 277.964 66.6449C277.481 66.3419 277.101 65.911 276.824 65.3523C276.547 64.7936 276.408 64.1307 276.408 63.3636C276.408 62.5966 276.547 61.9337 276.824 61.375C277.101 60.8163 277.481 60.3854 277.964 60.0824C278.446 59.7794 278.998 59.6278 279.618 59.6278C279.985 59.6278 280.33 59.6811 280.652 59.7876C280.976 59.8942 281.268 60.0504 281.529 60.2564C281.789 60.46 282.007 60.7086 282.182 61.0021C282.357 61.2933 282.478 61.6259 282.544 62ZM285.459 67.1278C285.113 67.1278 284.8 67.0627 284.518 66.9325C284.236 66.8 284.013 66.6094 283.847 66.3608C283.681 66.1098 283.598 65.8068 283.598 65.4517C283.598 65.1392 283.66 64.8859 283.783 64.6918C283.906 64.4953 284.071 64.3414 284.277 64.2301C284.483 64.1188 284.71 64.036 284.958 63.9815C285.209 63.9247 285.461 63.8797 285.715 63.8466C286.046 63.804 286.315 63.772 286.521 63.7507C286.729 63.727 286.881 63.688 286.975 63.6335C287.072 63.5791 287.121 63.4844 287.121 63.3494V63.321C287.121 62.9706 287.025 62.6984 286.833 62.5043C286.644 62.3101 286.356 62.2131 285.97 62.2131C285.57 62.2131 285.257 62.3007 285.029 62.4759C284.802 62.651 284.642 62.8381 284.55 63.0369L283.755 62.7528C283.897 62.4214 284.086 62.1634 284.323 61.9787C284.562 61.7917 284.822 61.6615 285.104 61.5881C285.388 61.5123 285.667 61.4744 285.942 61.4744C286.117 61.4744 286.318 61.4957 286.546 61.5384C286.775 61.5786 286.997 61.6626 287.21 61.7905C287.425 61.9183 287.604 62.1113 287.746 62.3693C287.888 62.6274 287.959 62.973 287.959 63.4062V67H287.121V66.2614H287.078C287.022 66.3797 286.927 66.5064 286.794 66.6413C286.662 66.7763 286.485 66.8911 286.265 66.9858C286.045 67.0805 285.776 67.1278 285.459 67.1278ZM285.587 66.375C285.918 66.375 286.198 66.3099 286.425 66.1797C286.655 66.0495 286.827 65.8814 286.943 65.6754C287.062 65.4695 287.121 65.2528 287.121 65.0256V64.2585C287.085 64.3011 287.007 64.3402 286.887 64.3757C286.768 64.4089 286.631 64.4384 286.475 64.4645C286.321 64.4882 286.17 64.5095 286.024 64.5284C285.879 64.545 285.762 64.5592 285.672 64.571C285.454 64.5994 285.251 64.6456 285.061 64.7095C284.874 64.7711 284.723 64.8646 284.607 64.9901C284.493 65.1132 284.436 65.2812 284.436 65.4943C284.436 65.7855 284.544 66.0057 284.759 66.1548C284.977 66.3016 285.253 66.375 285.587 66.375ZM290.327 59.7273V67H289.489V59.7273H290.327ZM294.078 67.1136C293.566 67.1136 293.126 66.9929 292.757 66.7514C292.387 66.5099 292.103 66.1773 291.904 65.7536C291.706 65.3298 291.606 64.8456 291.606 64.3011C291.606 63.7472 291.708 63.2583 291.911 62.8345C292.117 62.4084 292.404 62.0758 292.771 61.8366C293.14 61.5952 293.571 61.4744 294.063 61.4744C294.447 61.4744 294.793 61.5455 295.1 61.6875C295.408 61.8295 295.66 62.0284 295.857 62.2841C296.053 62.5398 296.175 62.8381 296.223 63.179H295.384C295.321 62.9304 295.179 62.7102 294.958 62.5185C294.741 62.3243 294.447 62.2273 294.078 62.2273C293.751 62.2273 293.465 62.3125 293.218 62.483C292.974 62.651 292.784 62.889 292.647 63.1967C292.512 63.5021 292.444 63.8608 292.444 64.2727C292.444 64.6941 292.51 65.0611 292.643 65.3736C292.778 65.6861 292.967 65.9287 293.211 66.1016C293.457 66.2744 293.746 66.3608 294.078 66.3608C294.295 66.3608 294.493 66.3229 294.671 66.2472C294.848 66.1714 294.999 66.0625 295.122 65.9205C295.245 65.7784 295.332 65.608 295.384 65.4091H296.223C296.175 65.7311 296.058 66.0211 295.871 66.2791C295.686 66.5348 295.441 66.7384 295.136 66.8899C294.833 67.0391 294.48 67.1136 294.078 67.1136ZM300.885 64.7699V61.5455H301.723V67H300.885V66.0767H300.828C300.701 66.3537 300.502 66.5893 300.232 66.7834C299.962 66.9751 299.621 67.071 299.209 67.071C298.868 67.071 298.565 66.9964 298.3 66.8473C298.035 66.6958 297.826 66.4685 297.675 66.1655C297.523 65.8601 297.448 65.4754 297.448 65.0114V61.5455H298.286V64.9545C298.286 65.3523 298.397 65.6695 298.62 65.9062C298.844 66.143 299.131 66.2614 299.479 66.2614C299.687 66.2614 299.899 66.2081 300.115 66.1016C300.332 65.995 300.515 65.8317 300.661 65.6115C300.811 65.3913 300.885 65.1108 300.885 64.7699ZM304.096 59.7273V67H303.258V59.7273H304.096ZM307.236 67.1278C306.891 67.1278 306.577 67.0627 306.295 66.9325C306.014 66.8 305.79 66.6094 305.624 66.3608C305.458 66.1098 305.376 65.8068 305.376 65.4517C305.376 65.1392 305.437 64.8859 305.56 64.6918C305.683 64.4953 305.848 64.3414 306.054 64.2301C306.26 64.1188 306.487 64.036 306.736 63.9815C306.987 63.9247 307.239 63.8797 307.492 63.8466C307.824 63.804 308.092 63.772 308.298 63.7507C308.507 63.727 308.658 63.688 308.753 63.6335C308.85 63.5791 308.898 63.4844 308.898 63.3494V63.321C308.898 62.9706 308.802 62.6984 308.611 62.5043C308.421 62.3101 308.134 62.2131 307.748 62.2131C307.348 62.2131 307.034 62.3007 306.807 62.4759C306.579 62.651 306.42 62.8381 306.327 63.0369L305.532 62.7528C305.674 62.4214 305.863 62.1634 306.1 61.9787C306.339 61.7917 306.6 61.6615 306.881 61.5881C307.165 61.5123 307.445 61.4744 307.719 61.4744C307.895 61.4744 308.096 61.4957 308.323 61.5384C308.553 61.5786 308.774 61.6626 308.987 61.7905C309.203 61.9183 309.381 62.1113 309.523 62.3693C309.665 62.6274 309.736 62.973 309.736 63.4062V67H308.898V66.2614H308.856C308.799 66.3797 308.704 66.5064 308.572 66.6413C308.439 66.7763 308.263 66.8911 308.043 66.9858C307.822 67.0805 307.554 67.1278 307.236 67.1278ZM307.364 66.375C307.696 66.375 307.975 66.3099 308.202 66.1797C308.432 66.0495 308.605 65.8814 308.721 65.6754C308.839 65.4695 308.898 65.2528 308.898 65.0256V64.2585C308.863 64.3011 308.785 64.3402 308.664 64.3757C308.546 64.4089 308.408 64.4384 308.252 64.4645C308.098 64.4882 307.948 64.5095 307.801 64.5284C307.657 64.545 307.539 64.5592 307.449 64.571C307.232 64.5994 307.028 64.6456 306.839 64.7095C306.652 64.7711 306.5 64.8646 306.384 64.9901C306.271 65.1132 306.214 65.2812 306.214 65.4943C306.214 65.7855 306.321 66.0057 306.537 66.1548C306.755 66.3016 307.03 66.375 307.364 66.375ZM313.638 61.5455V62.2557H310.812V61.5455H313.638ZM311.635 60.2386H312.473V65.4375C312.473 65.6742 312.508 65.8518 312.576 65.9702C312.647 66.0862 312.737 66.1643 312.846 66.2045C312.958 66.2424 313.075 66.2614 313.198 66.2614C313.29 66.2614 313.366 66.2566 313.425 66.2472C313.484 66.2353 313.532 66.2259 313.567 66.2188L313.738 66.9716C313.681 66.9929 313.602 67.0142 313.5 67.0355C313.398 67.0592 313.269 67.071 313.113 67.071C312.876 67.071 312.644 67.0201 312.417 66.9183C312.192 66.8165 312.005 66.6615 311.856 66.4531C311.709 66.2448 311.635 65.982 311.635 65.6648V60.2386ZM314.899 67V61.5455H315.737V67H314.899ZM315.325 60.6364C315.162 60.6364 315.021 60.5807 314.902 60.4695C314.786 60.3582 314.728 60.2244 314.728 60.0682C314.728 59.9119 314.786 59.7782 314.902 59.6669C315.021 59.5556 315.162 59.5 315.325 59.5C315.488 59.5 315.628 59.5556 315.744 59.6669C315.862 59.7782 315.922 59.9119 315.922 60.0682C315.922 60.2244 315.862 60.3582 315.744 60.4695C315.628 60.5807 315.488 60.6364 315.325 60.6364ZM319.488 67.1136C318.995 67.1136 318.563 66.9964 318.192 66.7621C317.822 66.5277 317.534 66.1998 317.325 65.7784C317.119 65.357 317.016 64.8646 317.016 64.3011C317.016 63.733 317.119 63.237 317.325 62.8132C317.534 62.3894 317.822 62.0604 318.192 61.826C318.563 61.5916 318.995 61.4744 319.488 61.4744C319.98 61.4744 320.411 61.5916 320.78 61.826C321.152 62.0604 321.441 62.3894 321.647 62.8132C321.855 63.237 321.959 63.733 321.959 64.3011C321.959 64.8646 321.855 65.357 321.647 65.7784C321.441 66.1998 321.152 66.5277 320.78 66.7621C320.411 66.9964 319.98 67.1136 319.488 67.1136ZM319.488 66.3608C319.862 66.3608 320.17 66.2649 320.411 66.0732C320.653 65.8814 320.831 65.6293 320.947 65.3168C321.063 65.0043 321.121 64.6657 321.121 64.3011C321.121 63.9366 321.063 63.5968 320.947 63.282C320.831 62.9671 320.653 62.7126 320.411 62.5185C320.17 62.3243 319.862 62.2273 319.488 62.2273C319.114 62.2273 318.806 62.3243 318.565 62.5185C318.323 62.7126 318.144 62.9671 318.028 63.282C317.912 63.5968 317.854 63.9366 317.854 64.3011C317.854 64.6657 317.912 65.0043 318.028 65.3168C318.144 65.6293 318.323 65.8814 318.565 66.0732C318.806 66.2649 319.114 66.3608 319.488 66.3608ZM324.077 63.7188V67H323.239V61.5455H324.048V62.3977H324.119C324.247 62.1207 324.441 61.8982 324.702 61.7301C324.962 61.5597 325.298 61.4744 325.71 61.4744C326.08 61.4744 326.403 61.5502 326.68 61.7017C326.957 61.8509 327.172 62.0781 327.326 62.3835C327.48 62.6866 327.557 63.0701 327.557 63.5341V67H326.719V63.5909C326.719 63.1624 326.608 62.8286 326.385 62.5895C326.162 62.348 325.857 62.2273 325.469 62.2273C325.201 62.2273 324.962 62.2853 324.752 62.4013C324.543 62.5173 324.379 62.6866 324.258 62.9091C324.137 63.1316 324.077 63.4015 324.077 63.7188ZM331.887 67V66.3608L334.287 63.733C334.569 63.4252 334.801 63.1577 334.983 62.9304C335.166 62.7008 335.3 62.4853 335.388 62.2841C335.478 62.0805 335.523 61.8674 335.523 61.6449C335.523 61.3892 335.461 61.1679 335.338 60.9808C335.218 60.7938 335.052 60.6494 334.841 60.5476C334.63 60.4458 334.394 60.3949 334.131 60.3949C333.852 60.3949 333.608 60.4529 333.399 60.5689C333.193 60.6825 333.034 60.8423 332.92 61.0483C332.809 61.2543 332.753 61.4957 332.753 61.7727H331.915C331.915 61.3466 332.013 60.9725 332.21 60.6506C332.406 60.3286 332.674 60.0777 333.012 59.8977C333.353 59.7178 333.736 59.6278 334.159 59.6278C334.585 59.6278 334.963 59.7178 335.292 59.8977C335.621 60.0777 335.879 60.3203 336.066 60.6257C336.253 60.9311 336.347 61.2708 336.347 61.6449C336.347 61.9124 336.298 62.174 336.201 62.4297C336.107 62.683 335.941 62.9659 335.704 63.2784C335.47 63.5885 335.144 63.9673 334.728 64.4148L333.094 66.1619V66.2188H336.475V67H331.887Z" fill="#6C6C6C"/>
<path d="M272 64L267 61.1132V66.8868L272 64ZM254 64.5H267.5V63.5H254V64.5Z" fill="black" fill-opacity="0.8"/>
<path d="M359 64L354 61.1132V66.8868L359 64ZM341 64.5H354.5V63.5H341V64.5Z" fill="black" fill-opacity="0.8"/>
<path d="M406.138 8.54545C406.096 8.18561 405.923 7.90625 405.62 7.70739C405.317 7.50852 404.945 7.40909 404.505 7.40909C404.183 7.40909 403.901 7.46117 403.66 7.56534C403.42 7.66951 403.233 7.81274 403.098 7.99503C402.966 8.17732 402.9 8.38447 402.9 8.61648C402.9 8.81061 402.946 8.97751 403.038 9.11719C403.133 9.2545 403.254 9.36932 403.4 9.46165C403.547 9.55161 403.701 9.62618 403.862 9.68537C404.023 9.74219 404.171 9.78835 404.306 9.82386L405.044 10.0227C405.234 10.0724 405.445 10.1411 405.677 10.2287C405.911 10.3163 406.135 10.4358 406.348 10.5874C406.563 10.7365 406.741 10.9283 406.88 11.1626C407.02 11.397 407.09 11.6847 407.09 12.0256C407.09 12.4186 406.987 12.7737 406.781 13.0909C406.577 13.4081 406.279 13.6603 405.886 13.8473C405.495 14.0343 405.021 14.1278 404.462 14.1278C403.941 14.1278 403.49 14.0438 403.109 13.8757C402.73 13.7076 402.432 13.4732 402.214 13.1726C401.999 12.8719 401.877 12.5227 401.848 12.125H402.758C402.781 12.3996 402.874 12.6269 403.035 12.8068C403.198 12.9844 403.404 13.117 403.652 13.2045C403.903 13.2898 404.173 13.3324 404.462 13.3324C404.798 13.3324 405.1 13.2779 405.368 13.169C405.635 13.0578 405.847 12.9039 406.003 12.7074C406.16 12.5085 406.238 12.2765 406.238 12.0114C406.238 11.7699 406.17 11.5734 406.035 11.4219C405.9 11.2704 405.723 11.1473 405.503 11.0526C405.282 10.9579 405.044 10.875 404.789 10.804L403.894 10.5483C403.326 10.3849 402.876 10.1518 402.544 9.84872C402.213 9.54569 402.047 9.14915 402.047 8.65909C402.047 8.25189 402.157 7.89678 402.378 7.59375C402.6 7.28835 402.898 7.05161 403.272 6.88352C403.649 6.71307 404.069 6.62784 404.533 6.62784C405.002 6.62784 405.419 6.71188 405.783 6.87997C406.148 7.04569 406.437 7.27296 406.65 7.56179C406.865 7.85062 406.979 8.1785 406.991 8.54545H406.138ZM409.262 6.72727V14H408.424V6.72727H409.262ZM413.013 14.1136C412.521 14.1136 412.089 13.9964 411.717 13.7621C411.348 13.5277 411.059 13.1998 410.851 12.7784C410.645 12.357 410.542 11.8646 410.542 11.3011C410.542 10.733 410.645 10.237 410.851 9.81321C411.059 9.38944 411.348 9.06037 411.717 8.82599C412.089 8.59162 412.521 8.47443 413.013 8.47443C413.506 8.47443 413.937 8.59162 414.306 8.82599C414.678 9.06037 414.966 9.38944 415.172 9.81321C415.381 10.237 415.485 10.733 415.485 11.3011C415.485 11.8646 415.381 12.357 415.172 12.7784C414.966 13.1998 414.678 13.5277 414.306 13.7621C413.937 13.9964 413.506 14.1136 413.013 14.1136ZM413.013 13.3608C413.387 13.3608 413.695 13.2649 413.937 13.0732C414.178 12.8814 414.357 12.6293 414.473 12.3168C414.589 12.0043 414.647 11.6657 414.647 11.3011C414.647 10.9366 414.589 10.5968 414.473 10.282C414.357 9.96709 414.178 9.71259 413.937 9.51847C413.695 9.32434 413.387 9.22727 413.013 9.22727C412.639 9.22727 412.331 9.32434 412.09 9.51847C411.848 9.71259 411.67 9.96709 411.554 10.282C411.438 10.5968 411.38 10.9366 411.38 11.3011C411.38 11.6657 411.438 12.0043 411.554 12.3168C411.67 12.6293 411.848 12.8814 412.09 13.0732C412.331 13.2649 412.639 13.3608 413.013 13.3608ZM417.814 14L416.152 8.54545H417.033L418.212 12.7216H418.269L419.434 8.54545H420.329L421.479 12.7074H421.536L422.715 8.54545H423.596L421.934 14H421.11L419.917 9.80966H419.831L418.638 14H417.814ZM425.812 6.72727L425.741 11.9545H424.917L424.846 6.72727H425.812ZM425.329 14.0568C425.153 14.0568 425.003 13.9941 424.878 13.8686C424.752 13.7431 424.689 13.5928 424.689 13.4176C424.689 13.2424 424.752 13.0921 424.878 12.9666C425.003 12.8411 425.153 12.7784 425.329 12.7784C425.504 12.7784 425.654 12.8411 425.78 12.9666C425.905 13.0921 425.968 13.2424 425.968 13.4176C425.968 13.5336 425.938 13.6402 425.879 13.7372C425.822 13.8343 425.745 13.9124 425.648 13.9716C425.553 14.0284 425.447 14.0568 425.329 14.0568Z" fill="black"/>
<path d="M369 8L373.797 11.213L374.181 5.45224L369 8ZM399.033 9.50111L373.523 7.80044L373.457 8.79823L398.967 10.4989L399.033 9.50111Z" fill="black" fill-opacity="0.5"/>
<path d="M207.476 45H204.898V37.7273H207.497C208.229 37.7273 208.858 37.8729 209.386 38.1641C209.914 38.4529 210.32 38.8684 210.604 39.4105C210.891 39.9527 211.034 40.6013 211.034 41.3565C211.034 42.1141 210.891 42.7652 210.604 43.3097C210.32 43.8542 209.912 44.272 209.379 44.5632C208.849 44.8544 208.214 45 207.476 45ZM206.435 43.6825H207.412C207.866 43.6825 208.249 43.602 208.559 43.4411C208.871 43.2777 209.106 43.0256 209.262 42.6847C209.421 42.3414 209.5 41.8987 209.5 41.3565C209.5 40.8191 209.421 40.38 209.262 40.0391C209.106 39.6982 208.873 39.4472 208.562 39.2862C208.252 39.1252 207.87 39.0447 207.415 39.0447H206.435V43.6825ZM212.173 45V37.7273H215.042C215.592 37.7273 216.06 37.8255 216.449 38.022C216.839 38.2161 217.136 38.492 217.34 38.8494C217.546 39.2045 217.649 39.6224 217.649 40.103C217.649 40.5859 217.545 41.0014 217.336 41.3494C217.128 41.6951 216.826 41.9602 216.431 42.1449C216.038 42.3295 215.562 42.4219 215.003 42.4219H213.082V41.1861H214.755C215.048 41.1861 215.292 41.1458 215.486 41.0653C215.68 40.9848 215.825 40.8641 215.92 40.7031C216.017 40.5421 216.065 40.3421 216.065 40.103C216.065 39.8615 216.017 39.6579 215.92 39.4922C215.825 39.3265 215.679 39.201 215.483 39.1158C215.289 39.0282 215.044 38.9844 214.748 38.9844H213.711V45H212.173ZM216.101 41.6903L217.908 45H216.211L214.442 41.6903H216.101ZM219.989 45H218.341L220.852 37.7273H222.834L225.341 45H223.693L221.871 39.3892H221.814L219.989 45ZM219.886 42.1413H223.778V43.3416H219.886V42.1413ZM226.216 37.7273H228.112L230.115 42.6136H230.2L232.203 37.7273H234.1V45H232.608V40.2663H232.548L230.666 44.9645H229.65L227.768 40.2486H227.708V45H226.216V37.7273Z" fill="#548235"/>
<path d="M192.205 67L190.216 59.7273H191.111L192.631 65.6506H192.702L194.25 59.7273H195.244L196.793 65.6506H196.864L198.384 59.7273H199.278L197.29 67H196.381L194.776 61.2045H194.719L193.114 67H192.205ZM199.92 67V61.5455H200.73V62.3693H200.787C200.886 62.0994 201.066 61.8804 201.327 61.7124C201.587 61.5443 201.881 61.4602 202.207 61.4602C202.269 61.4602 202.346 61.4614 202.438 61.4638C202.53 61.4661 202.6 61.4697 202.648 61.4744V62.3267C202.619 62.3196 202.554 62.3089 202.452 62.2947C202.353 62.2782 202.248 62.2699 202.136 62.2699C201.871 62.2699 201.634 62.3255 201.426 62.4368C201.22 62.5457 201.057 62.6972 200.936 62.8913C200.818 63.0831 200.758 63.3021 200.758 63.5483V67H199.92ZM203.641 67V61.5455H204.479V67H203.641ZM204.067 60.6364C203.904 60.6364 203.763 60.5807 203.645 60.4695C203.529 60.3582 203.471 60.2244 203.471 60.0682C203.471 59.9119 203.529 59.7782 203.645 59.6669C203.763 59.5556 203.904 59.5 204.067 59.5C204.231 59.5 204.37 59.5556 204.486 59.6669C204.605 59.7782 204.664 59.9119 204.664 60.0682C204.664 60.2244 204.605 60.3582 204.486 60.4695C204.37 60.5807 204.231 60.6364 204.067 60.6364ZM208.386 61.5455V62.2557H205.56V61.5455H208.386ZM206.383 60.2386H207.222V65.4375C207.222 65.6742 207.256 65.8518 207.324 65.9702C207.396 66.0862 207.485 66.1643 207.594 66.2045C207.706 66.2424 207.823 66.2614 207.946 66.2614C208.038 66.2614 208.114 66.2566 208.173 66.2472C208.232 66.2353 208.28 66.2259 208.315 66.2188L208.486 66.9716C208.429 66.9929 208.35 67.0142 208.248 67.0355C208.146 67.0592 208.017 67.071 207.861 67.071C207.624 67.071 207.392 67.0201 207.165 66.9183C206.94 66.8165 206.753 66.6615 206.604 66.4531C206.457 66.2448 206.383 65.982 206.383 65.6648V60.2386ZM211.875 67.1136C211.35 67.1136 210.896 66.9976 210.515 66.7656C210.136 66.5312 209.844 66.2045 209.638 65.7855C209.434 65.3641 209.333 64.8741 209.333 64.3153C209.333 63.7566 209.434 63.2642 209.638 62.8381C209.844 62.4096 210.13 62.0758 210.497 61.8366C210.867 61.5952 211.298 61.4744 211.79 61.4744C212.074 61.4744 212.355 61.5218 212.632 61.6165C212.909 61.7112 213.161 61.8651 213.388 62.0781C213.615 62.2888 213.796 62.5682 213.931 62.9162C214.066 63.2642 214.134 63.6927 214.134 64.2017V64.5568H209.929V63.8324H213.282C213.282 63.5246 213.22 63.25 213.097 63.0085C212.976 62.767 212.803 62.5765 212.578 62.4368C212.356 62.2971 212.093 62.2273 211.79 62.2273C211.456 62.2273 211.167 62.3101 210.924 62.4759C210.682 62.6392 210.496 62.8523 210.366 63.1151C210.236 63.3778 210.171 63.6596 210.171 63.9602V64.4432C210.171 64.8551 210.242 65.2043 210.384 65.4908C210.528 65.7749 210.728 65.9915 210.984 66.1406C211.24 66.2874 211.537 66.3608 211.875 66.3608C212.095 66.3608 212.294 66.33 212.472 66.2685C212.652 66.2045 212.807 66.1098 212.937 65.9844C213.067 65.8565 213.168 65.6979 213.239 65.5085L214.049 65.7358C213.963 66.0104 213.82 66.2519 213.619 66.4602C213.418 66.6662 213.169 66.8272 212.873 66.9432C212.577 67.0568 212.245 67.1136 211.875 67.1136ZM218.221 67V61.5455H219.031V62.3693H219.088C219.187 62.0994 219.367 61.8804 219.627 61.7124C219.888 61.5443 220.181 61.4602 220.508 61.4602C220.57 61.4602 220.647 61.4614 220.739 61.4638C220.831 61.4661 220.901 61.4697 220.948 61.4744V62.3267C220.92 62.3196 220.855 62.3089 220.753 62.2947C220.654 62.2782 220.548 62.2699 220.437 62.2699C220.172 62.2699 219.935 62.3255 219.727 62.4368C219.521 62.5457 219.358 62.6972 219.237 62.8913C219.118 63.0831 219.059 63.3021 219.059 63.5483V67H218.221ZM224.063 67.1136C223.537 67.1136 223.084 66.9976 222.703 66.7656C222.324 66.5312 222.032 66.2045 221.826 65.7855C221.622 65.3641 221.52 64.8741 221.52 64.3153C221.52 63.7566 221.622 63.2642 221.826 62.8381C222.032 62.4096 222.318 62.0758 222.685 61.8366C223.054 61.5952 223.485 61.4744 223.978 61.4744C224.262 61.4744 224.542 61.5218 224.819 61.6165C225.096 61.7112 225.348 61.8651 225.576 62.0781C225.803 62.2888 225.984 62.5682 226.119 62.9162C226.254 63.2642 226.321 63.6927 226.321 64.2017V64.5568H222.117V63.8324H225.469C225.469 63.5246 225.407 63.25 225.284 63.0085C225.164 62.767 224.991 62.5765 224.766 62.4368C224.543 62.2971 224.281 62.2273 223.978 62.2273C223.644 62.2273 223.355 62.3101 223.111 62.4759C222.87 62.6392 222.684 62.8523 222.554 63.1151C222.423 63.3778 222.358 63.6596 222.358 63.9602V64.4432C222.358 64.8551 222.429 65.2043 222.571 65.4908C222.716 65.7749 222.916 65.9915 223.171 66.1406C223.427 66.2874 223.724 66.3608 224.063 66.3608C224.283 66.3608 224.482 66.33 224.659 66.2685C224.839 66.2045 224.994 66.1098 225.125 65.9844C225.255 65.8565 225.355 65.6979 225.426 65.5085L226.236 65.7358C226.151 66.0104 226.008 66.2519 225.806 66.4602C225.605 66.6662 225.357 66.8272 225.061 66.9432C224.765 67.0568 224.432 67.1136 224.063 67.1136ZM231.46 62.767L230.707 62.9801C230.66 62.8546 230.59 62.7327 230.497 62.6143C230.407 62.4936 230.284 62.3942 230.128 62.3161C229.972 62.2379 229.772 62.1989 229.528 62.1989C229.194 62.1989 228.916 62.2758 228.693 62.4297C228.473 62.5812 228.363 62.7741 228.363 63.0085C228.363 63.2169 228.439 63.3814 228.59 63.5021C228.742 63.6229 228.979 63.7235 229.301 63.804L230.11 64.0028C230.598 64.1212 230.961 64.3023 231.201 64.5462C231.44 64.7876 231.559 65.099 231.559 65.4801C231.559 65.7926 231.469 66.072 231.289 66.3182C231.112 66.5644 230.863 66.7585 230.544 66.9006C230.224 67.0426 229.852 67.1136 229.429 67.1136C228.872 67.1136 228.412 66.9929 228.047 66.7514C227.683 66.5099 227.452 66.1572 227.355 65.6932L228.15 65.4943C228.226 65.7879 228.369 66.008 228.58 66.1548C228.793 66.3016 229.071 66.375 229.414 66.375C229.805 66.375 230.115 66.2921 230.345 66.1264C230.577 65.9583 230.693 65.7571 230.693 65.5227C230.693 65.3333 230.626 65.1747 230.494 65.0469C230.361 64.9167 230.158 64.8196 229.883 64.7557L228.974 64.5426C228.474 64.4242 228.108 64.2408 227.873 63.9922C227.641 63.7412 227.525 63.4276 227.525 63.0511C227.525 62.7434 227.612 62.4711 227.784 62.2344C227.96 61.9976 228.197 61.8118 228.498 61.6768C228.801 61.5419 229.144 61.4744 229.528 61.4744C230.068 61.4744 230.492 61.5928 230.799 61.8295C231.109 62.0663 231.33 62.3788 231.46 62.767ZM236.258 64.7699V61.5455H237.096V67H236.258V66.0767H236.201C236.074 66.3537 235.875 66.5893 235.605 66.7834C235.335 66.9751 234.994 67.071 234.582 67.071C234.241 67.071 233.938 66.9964 233.673 66.8473C233.408 66.6958 233.2 66.4685 233.048 66.1655C232.897 65.8601 232.821 65.4754 232.821 65.0114V61.5455H233.659V64.9545C233.659 65.3523 233.77 65.6695 233.993 65.9062C234.218 66.143 234.504 66.2614 234.852 66.2614C235.06 66.2614 235.272 66.2081 235.488 66.1016C235.705 65.995 235.888 65.8317 236.035 65.6115C236.184 65.3913 236.258 65.1108 236.258 64.7699ZM239.469 59.7273V67H238.631V59.7273H239.469ZM243.377 61.5455V62.2557H240.55V61.5455H243.377ZM241.374 60.2386H242.212V65.4375C242.212 65.6742 242.246 65.8518 242.315 65.9702C242.386 66.0862 242.476 66.1643 242.585 66.2045C242.696 66.2424 242.813 66.2614 242.936 66.2614C243.028 66.2614 243.104 66.2566 243.163 66.2472C243.223 66.2353 243.27 66.2259 243.305 66.2188L243.476 66.9716C243.419 66.9929 243.34 67.0142 243.238 67.0355C243.136 67.0592 243.007 67.071 242.851 67.071C242.614 67.071 242.382 67.0201 242.155 66.9183C241.93 66.8165 241.743 66.6615 241.594 66.4531C241.447 66.2448 241.374 65.982 241.374 65.6648V60.2386ZM248.403 62.767L247.65 62.9801C247.603 62.8546 247.533 62.7327 247.441 62.6143C247.351 62.4936 247.228 62.3942 247.071 62.3161C246.915 62.2379 246.715 62.1989 246.471 62.1989C246.138 62.1989 245.859 62.2758 245.637 62.4297C245.417 62.5812 245.307 62.7741 245.307 63.0085C245.307 63.2169 245.382 63.3814 245.534 63.5021C245.685 63.6229 245.922 63.7235 246.244 63.804L247.054 64.0028C247.541 64.1212 247.905 64.3023 248.144 64.5462C248.383 64.7876 248.503 65.099 248.503 65.4801C248.503 65.7926 248.413 66.072 248.233 66.3182C248.055 66.5644 247.807 66.7585 247.487 66.9006C247.167 67.0426 246.796 67.1136 246.372 67.1136C245.816 67.1136 245.355 66.9929 244.991 66.7514C244.626 66.5099 244.395 66.1572 244.298 65.6932L245.093 65.4943C245.169 65.7879 245.312 66.008 245.523 66.1548C245.736 66.3016 246.014 66.375 246.358 66.375C246.748 66.375 247.058 66.2921 247.288 66.1264C247.52 65.9583 247.636 65.7571 247.636 65.5227C247.636 65.3333 247.57 65.1747 247.437 65.0469C247.305 64.9167 247.101 64.8196 246.826 64.7557L245.917 64.5426C245.418 64.4242 245.051 64.2408 244.816 63.9922C244.584 63.7412 244.468 63.4276 244.468 63.0511C244.468 62.7434 244.555 62.4711 244.728 62.2344C244.903 61.9976 245.141 61.8118 245.441 61.6768C245.745 61.5419 246.088 61.4744 246.471 61.4744C247.011 61.4744 247.435 61.5928 247.743 61.8295C248.053 62.0663 248.273 62.3788 248.403 62.767Z" fill="#6C6C6C"/>
<path d="M183 64L178 61.1132V66.8868L183 64ZM165 64.5H178.5V63.5H165V64.5Z" fill="black" fill-opacity="0.8"/>
</g>
<defs>
<clipPath id="clip0_110_3457">
<rect width="432" height="75" fill="white"/>
</clipPath>
</defs>
</svg>
