<svg width="432" height="86" viewBox="0 0 432 86" fill="none" xmlns="http://www.w3.org/2000/svg">
<g clip-path="url(#clip0_110_3532)">
<rect width="432" height="86" fill="white"/>
<path d="M82.9759 47H80.3977V39.7273H82.9972C83.7287 39.7273 84.3584 39.8729 84.8864 40.1641C85.4143 40.4529 85.8203 40.8684 86.1044 41.4105C86.3909 41.9527 86.5341 42.6013 86.5341 43.3565C86.5341 44.1141 86.3909 44.7652 86.1044 45.3097C85.8203 45.8542 85.4119 46.272 84.8793 46.5632C84.349 46.8544 83.7145 47 82.9759 47ZM81.9354 45.6825H82.9119C83.3665 45.6825 83.7488 45.602 84.0589 45.4411C84.3714 45.2777 84.6058 45.0256 84.7621 44.6847C84.9207 44.3414 85 43.8987 85 43.3565C85 42.8191 84.9207 42.38 84.7621 42.0391C84.6058 41.6982 84.3726 41.4472 84.0625 41.2862C83.7524 41.1252 83.37 41.0447 82.9155 41.0447H81.9354V45.6825ZM87.6731 47V39.7273H90.5424C91.0917 39.7273 91.5604 39.8255 91.9487 40.022C92.3393 40.2161 92.6364 40.492 92.84 40.8494C93.046 41.2045 93.149 41.6224 93.149 42.103C93.149 42.5859 93.0448 43.0014 92.8365 43.3494C92.6281 43.6951 92.3263 43.9602 91.9309 44.1449C91.5379 44.3295 91.0621 44.4219 90.5034 44.4219H88.5822V43.1861H90.2548C90.5484 43.1861 90.7922 43.1458 90.9863 43.0653C91.1805 42.9848 91.3249 42.8641 91.4196 42.7031C91.5166 42.5421 91.5652 42.3421 91.5652 42.103C91.5652 41.8615 91.5166 41.6579 91.4196 41.4922C91.3249 41.3265 91.1793 41.201 90.9828 41.1158C90.7886 41.0282 90.5436 40.9844 90.2477 40.9844H89.2108V47H87.6731ZM91.6007 43.6903L93.4082 47H91.7108L89.9423 43.6903H91.6007ZM95.4892 47H93.8414L96.3521 39.7273H98.3336L100.841 47H99.193L97.3713 41.3892H97.3145L95.4892 47ZM95.3862 44.1413H99.2782V45.3416H95.3862V44.1413ZM101.716 39.7273H103.612L105.615 44.6136H105.7L107.703 39.7273H109.6V47H108.108V42.2663H108.048L106.166 46.9645H105.15L103.268 42.2486H103.208V47H101.716V39.7273Z" fill="#548235"/>
<path d="M62.2233 59.7273V67H61.3426V59.7273H62.2233ZM64.7135 63.7188V67H63.8754V61.5455H64.6851V62.3977H64.7561C64.884 62.1207 65.0781 61.8982 65.3385 61.7301C65.5989 61.5597 65.9351 61.4744 66.347 61.4744C66.7164 61.4744 67.0395 61.5502 67.3165 61.7017C67.5935 61.8509 67.8089 62.0781 67.9628 62.3835C68.1167 62.6866 68.1936 63.0701 68.1936 63.5341V67H67.3556V63.5909C67.3556 63.1624 67.2443 62.8286 67.0218 62.5895C66.7992 62.348 66.4938 62.2273 66.1056 62.2273C65.838 62.2273 65.5989 62.2853 65.3882 62.4013C65.1799 62.5173 65.0154 62.6866 64.8946 62.9091C64.7739 63.1316 64.7135 63.4015 64.7135 63.7188ZM69.7251 67V61.5455H70.5631V67H69.7251ZM70.1512 60.6364C69.9878 60.6364 69.847 60.5807 69.7286 60.4695C69.6126 60.3582 69.5546 60.2244 69.5546 60.0682C69.5546 59.9119 69.6126 59.7782 69.7286 59.6669C69.847 59.5556 69.9878 59.5 70.1512 59.5C70.3145 59.5 70.4542 59.5556 70.5702 59.6669C70.6886 59.7782 70.7478 59.9119 70.7478 60.0682C70.7478 60.2244 70.6886 60.3582 70.5702 60.4695C70.4542 60.5807 70.3145 60.6364 70.1512 60.6364ZM74.4703 61.5455V62.2557H71.6436V61.5455H74.4703ZM72.4674 60.2386H73.3055V65.4375C73.3055 65.6742 73.3398 65.8518 73.4085 65.9702C73.4795 66.0862 73.5695 66.1643 73.6784 66.2045C73.7896 66.2424 73.9068 66.2614 74.0299 66.2614C74.1222 66.2614 74.198 66.2566 74.2572 66.2472C74.3164 66.2353 74.3637 66.2259 74.3992 66.2188L74.5697 66.9716C74.5129 66.9929 74.4336 67.0142 74.3318 67.0355C74.23 67.0592 74.1009 67.071 73.9447 67.071C73.7079 67.071 73.4759 67.0201 73.2487 66.9183C73.0238 66.8165 72.8367 66.6615 72.6876 66.4531C72.5408 66.2448 72.4674 65.982 72.4674 65.6648V60.2386ZM75.7309 67V61.5455H76.569V67H75.7309ZM76.157 60.6364C75.9937 60.6364 75.8528 60.5807 75.7345 60.4695C75.6185 60.3582 75.5605 60.2244 75.5605 60.0682C75.5605 59.9119 75.6185 59.7782 75.7345 59.6669C75.8528 59.5556 75.9937 59.5 76.157 59.5C76.3204 59.5 76.4601 59.5556 76.5761 59.6669C76.6945 59.7782 76.7536 59.9119 76.7536 60.0682C76.7536 60.2244 76.6945 60.3582 76.5761 60.4695C76.4601 60.5807 76.3204 60.6364 76.157 60.6364ZM79.7091 67.1278C79.3634 67.1278 79.0497 67.0627 78.768 66.9325C78.4863 66.8 78.2626 66.6094 78.0969 66.3608C77.9311 66.1098 77.8483 65.8068 77.8483 65.4517C77.8483 65.1392 77.9098 64.8859 78.0329 64.6918C78.156 64.4953 78.3206 64.3414 78.5265 64.2301C78.7325 64.1188 78.9598 64.036 79.2084 63.9815C79.4593 63.9247 79.7114 63.8797 79.9648 63.8466C80.2962 63.804 80.5649 63.772 80.7709 63.7507C80.9792 63.727 81.1307 63.688 81.2254 63.6335C81.3225 63.5791 81.371 63.4844 81.371 63.3494V63.321C81.371 62.9706 81.2751 62.6984 81.0834 62.5043C80.894 62.3101 80.6063 62.2131 80.2204 62.2131C79.8203 62.2131 79.5067 62.3007 79.2794 62.4759C79.0521 62.651 78.8923 62.8381 78.8 63.0369L78.0045 62.7528C78.1466 62.4214 78.336 62.1634 78.5727 61.9787C78.8118 61.7917 79.0722 61.6615 79.354 61.5881C79.6381 61.5123 79.9174 61.4744 80.192 61.4744C80.3672 61.4744 80.5684 61.4957 80.7957 61.5384C81.0254 61.5786 81.2467 61.6626 81.4598 61.7905C81.6752 61.9183 81.854 62.1113 81.996 62.3693C82.1381 62.6274 82.2091 62.973 82.2091 63.4062V67H81.371V66.2614H81.3284C81.2716 66.3797 81.1769 66.5064 81.0443 66.6413C80.9117 66.7763 80.7354 66.8911 80.5152 66.9858C80.295 67.0805 80.0263 67.1278 79.7091 67.1278ZM79.8369 66.375C80.1684 66.375 80.4477 66.3099 80.675 66.1797C80.9046 66.0495 81.0774 65.8814 81.1934 65.6754C81.3118 65.4695 81.371 65.2528 81.371 65.0256V64.2585C81.3355 64.3011 81.2574 64.3402 81.1366 64.3757C81.0183 64.4089 80.8809 64.4384 80.7247 64.4645C80.5708 64.4882 80.4205 64.5095 80.2737 64.5284C80.1293 64.545 80.0121 64.5592 79.9221 64.571C79.7043 64.5994 79.5007 64.6456 79.3113 64.7095C79.1243 64.7711 78.9728 64.8646 78.8568 64.9901C78.7432 65.1132 78.6863 65.2812 78.6863 65.4943C78.6863 65.7855 78.7941 66.0057 79.0095 66.1548C79.2273 66.3016 79.5031 66.375 79.8369 66.375ZM84.5768 59.7273V67H83.7387V59.7273H84.5768ZM91.2964 61.5455V62.2557H88.4697V61.5455H91.2964ZM89.2936 60.2386H90.1317V65.4375C90.1317 65.6742 90.166 65.8518 90.2346 65.9702C90.3057 66.0862 90.3956 66.1643 90.5045 66.2045C90.6158 66.2424 90.733 66.2614 90.8561 66.2614C90.9484 66.2614 91.0242 66.2566 91.0834 66.2472C91.1425 66.2353 91.1899 66.2259 91.2254 66.2188L91.3959 66.9716C91.339 66.9929 91.2597 67.0142 91.1579 67.0355C91.0561 67.0592 90.9271 67.071 90.7709 67.071C90.5341 67.071 90.3021 67.0201 90.0748 66.9183C89.8499 66.8165 89.6629 66.6615 89.5138 66.4531C89.367 66.2448 89.2936 65.982 89.2936 65.6648V60.2386ZM94.7854 67.1136C94.2599 67.1136 93.8065 66.9976 93.4253 66.7656C93.0465 66.5312 92.7542 66.2045 92.5482 65.7855C92.3446 65.3641 92.2428 64.8741 92.2428 64.3153C92.2428 63.7566 92.3446 63.2642 92.5482 62.8381C92.7542 62.4096 93.0406 62.0758 93.4076 61.8366C93.7769 61.5952 94.2078 61.4744 94.7002 61.4744C94.9843 61.4744 95.2648 61.5218 95.5418 61.6165C95.8188 61.7112 96.0709 61.8651 96.2982 62.0781C96.5255 62.2888 96.7066 62.5682 96.8415 62.9162C96.9765 63.2642 97.0439 63.6927 97.0439 64.2017V64.5568H92.8394V63.8324H96.1917C96.1917 63.5246 96.1301 63.25 96.007 63.0085C95.8863 62.767 95.7135 62.5765 95.4885 62.4368C95.266 62.2971 95.0032 62.2273 94.7002 62.2273C94.3664 62.2273 94.0776 62.3101 93.8337 62.4759C93.5922 62.6392 93.4064 62.8523 93.2762 63.1151C93.146 63.3778 93.0809 63.6596 93.0809 63.9602V64.4432C93.0809 64.8551 93.1519 65.2043 93.2939 65.4908C93.4384 65.7749 93.6384 65.9915 93.8941 66.1406C94.1498 66.2874 94.4469 66.3608 94.7854 66.3608C95.0056 66.3608 95.2045 66.33 95.382 66.2685C95.5619 66.2045 95.717 66.1098 95.8472 65.9844C95.9774 65.8565 96.078 65.6979 96.1491 65.5085L96.9587 65.7358C96.8735 66.0104 96.7303 66.2519 96.529 66.4602C96.3278 66.6662 96.0792 66.8272 95.7833 66.9432C95.4874 67.0568 95.1547 67.1136 94.7854 67.1136ZM99.1569 63.7188V67H98.3188V61.5455H99.1285V62.3977H99.1995C99.3273 62.1207 99.5215 61.8982 99.7819 61.7301C100.042 61.5597 100.378 61.4744 100.79 61.4744C101.16 61.4744 101.483 61.5502 101.76 61.7017C102.037 61.8509 102.252 62.0781 102.406 62.3835C102.56 62.6866 102.637 63.0701 102.637 63.5341V67H101.799V63.5909C101.799 63.1624 101.688 62.8286 101.465 62.5895C101.243 62.348 100.937 62.2273 100.549 62.2273C100.281 62.2273 100.042 62.2853 99.8316 62.4013C99.6233 62.5173 99.4587 62.6866 99.338 62.9091C99.2172 63.1316 99.1569 63.4015 99.1569 63.7188ZM108.032 62.767L107.279 62.9801C107.232 62.8546 107.162 62.7327 107.07 62.6143C106.98 62.4936 106.857 62.3942 106.7 62.3161C106.544 62.2379 106.344 62.1989 106.1 62.1989C105.766 62.1989 105.488 62.2758 105.266 62.4297C105.046 62.5812 104.935 62.7741 104.935 63.0085C104.935 63.2169 105.011 63.3814 105.163 63.5021C105.314 63.6229 105.551 63.7235 105.873 63.804L106.683 64.0028C107.17 64.1212 107.534 64.3023 107.773 64.5462C108.012 64.7876 108.131 65.099 108.131 65.4801C108.131 65.7926 108.042 66.072 107.862 66.3182C107.684 66.5644 107.435 66.7585 107.116 66.9006C106.796 67.0426 106.425 67.1136 106.001 67.1136C105.444 67.1136 104.984 66.9929 104.619 66.7514C104.255 66.5099 104.024 66.1572 103.927 65.6932L104.722 65.4943C104.798 65.7879 104.941 66.008 105.152 66.1548C105.365 66.3016 105.643 66.375 105.987 66.375C106.377 66.375 106.687 66.2921 106.917 66.1264C107.149 65.9583 107.265 65.7571 107.265 65.5227C107.265 65.3333 107.199 65.1747 107.066 65.0469C106.934 64.9167 106.73 64.8196 106.455 64.7557L105.546 64.5426C105.047 64.4242 104.68 64.2408 104.445 63.9922C104.213 63.7412 104.097 63.4276 104.097 63.0511C104.097 62.7434 104.184 62.4711 104.357 62.2344C104.532 61.9976 104.77 61.8118 105.07 61.6768C105.373 61.5419 105.717 61.4744 106.1 61.4744C106.64 61.4744 107.064 61.5928 107.372 61.8295C107.682 62.0663 107.902 62.3788 108.032 62.767ZM111.609 67.1136C111.117 67.1136 110.684 66.9964 110.313 66.7621C109.943 66.5277 109.655 66.1998 109.446 65.7784C109.24 65.357 109.137 64.8646 109.137 64.3011C109.137 63.733 109.24 63.237 109.446 62.8132C109.655 62.3894 109.943 62.0604 110.313 61.826C110.684 61.5916 111.117 61.4744 111.609 61.4744C112.101 61.4744 112.532 61.5916 112.902 61.826C113.273 62.0604 113.562 62.3894 113.768 62.8132C113.976 63.237 114.081 63.733 114.081 64.3011C114.081 64.8646 113.976 65.357 113.768 65.7784C113.562 66.1998 113.273 66.5277 112.902 66.7621C112.532 66.9964 112.101 67.1136 111.609 67.1136ZM111.609 66.3608C111.983 66.3608 112.291 66.2649 112.532 66.0732C112.774 65.8814 112.952 65.6293 113.068 65.3168C113.184 65.0043 113.242 64.6657 113.242 64.3011C113.242 63.9366 113.184 63.5968 113.068 63.282C112.952 62.9671 112.774 62.7126 112.532 62.5185C112.291 62.3243 111.983 62.2273 111.609 62.2273C111.235 62.2273 110.927 62.3243 110.686 62.5185C110.444 62.7126 110.265 62.9671 110.149 63.282C110.033 63.5968 109.975 63.9366 109.975 64.3011C109.975 64.6657 110.033 65.0043 110.149 65.3168C110.265 65.6293 110.444 65.8814 110.686 66.0732C110.927 66.2649 111.235 66.3608 111.609 66.3608ZM115.36 67V61.5455H116.169V62.3693H116.226C116.326 62.0994 116.506 61.8804 116.766 61.7124C117.026 61.5443 117.32 61.4602 117.647 61.4602C117.708 61.4602 117.785 61.4614 117.878 61.4638C117.97 61.4661 118.04 61.4697 118.087 61.4744V62.3267C118.059 62.3196 117.994 62.3089 117.892 62.2947C117.792 62.2782 117.687 62.2699 117.576 62.2699C117.311 62.2699 117.074 62.3255 116.866 62.4368C116.66 62.5457 116.496 62.6972 116.375 62.8913C116.257 63.0831 116.198 63.3021 116.198 63.5483V67H115.36ZM122.944 62.767L122.191 62.9801C122.144 62.8546 122.074 62.7327 121.982 62.6143C121.892 62.4936 121.769 62.3942 121.612 62.3161C121.456 62.2379 121.256 62.1989 121.012 62.1989C120.679 62.1989 120.4 62.2758 120.178 62.4297C119.958 62.5812 119.848 62.7741 119.848 63.0085C119.848 63.2169 119.923 63.3814 120.075 63.5021C120.226 63.6229 120.463 63.7235 120.785 63.804L121.595 64.0028C122.082 64.1212 122.446 64.3023 122.685 64.5462C122.924 64.7876 123.044 65.099 123.044 65.4801C123.044 65.7926 122.954 66.072 122.774 66.3182C122.596 66.5644 122.348 66.7585 122.028 66.9006C121.708 67.0426 121.337 67.1136 120.913 67.1136C120.357 67.1136 119.896 66.9929 119.532 66.7514C119.167 66.5099 118.936 66.1572 118.839 65.6932L119.634 65.4943C119.71 65.7879 119.853 66.008 120.064 66.1548C120.277 66.3016 120.555 66.375 120.899 66.375C121.289 66.375 121.599 66.2921 121.829 66.1264C122.061 65.9583 122.177 65.7571 122.177 65.5227C122.177 65.3333 122.111 65.1747 121.978 65.0469C121.846 64.9167 121.642 64.8196 121.367 64.7557L120.458 64.5426C119.959 64.4242 119.592 64.2408 119.358 63.9922C119.126 63.7412 119.009 63.4276 119.009 63.0511C119.009 62.7434 119.096 62.4711 119.269 62.2344C119.444 61.9976 119.682 61.8118 119.983 61.6768C120.286 61.5419 120.629 61.4744 121.012 61.4744C121.552 61.4744 121.976 61.5928 122.284 61.8295C122.594 62.0663 122.814 62.3788 122.944 62.767Z" fill="#6C6C6C"/>
<path d="M126.474 10.1136C125.963 10.1136 125.522 9.9929 125.153 9.75142C124.784 9.50994 124.5 9.17732 124.301 8.75355C124.102 8.32978 124.003 7.84564 124.003 7.30114C124.003 6.74716 124.104 6.25829 124.308 5.83452C124.514 5.40838 124.8 5.07576 125.167 4.83665C125.537 4.59517 125.968 4.47443 126.46 4.47443C126.843 4.47443 127.189 4.54545 127.497 4.6875C127.805 4.82955 128.057 5.02841 128.253 5.28409C128.45 5.53977 128.572 5.83807 128.619 6.17898H127.781C127.717 5.9304 127.575 5.71023 127.355 5.51847C127.137 5.32434 126.843 5.22727 126.474 5.22727C126.147 5.22727 125.861 5.3125 125.615 5.48295C125.371 5.65104 125.18 5.88897 125.043 6.19673C124.908 6.50213 124.841 6.8608 124.841 7.27273C124.841 7.69413 124.907 8.06108 125.04 8.37358C125.174 8.68608 125.364 8.92874 125.608 9.10156C125.854 9.27438 126.143 9.3608 126.474 9.3608C126.692 9.3608 126.89 9.32292 127.067 9.24716C127.245 9.1714 127.395 9.0625 127.518 8.92045C127.641 8.77841 127.729 8.60795 127.781 8.40909H128.619C128.572 8.73106 128.455 9.02107 128.267 9.27912C128.083 9.5348 127.838 9.7384 127.532 9.88991C127.229 10.0391 126.877 10.1136 126.474 10.1136ZM132.06 10.1136C131.568 10.1136 131.136 9.99645 130.764 9.76207C130.395 9.5277 130.106 9.19981 129.897 8.77841C129.691 8.35701 129.589 7.86458 129.589 7.30114C129.589 6.73295 129.691 6.23698 129.897 5.81321C130.106 5.38944 130.395 5.06037 130.764 4.82599C131.136 4.59162 131.568 4.47443 132.06 4.47443C132.553 4.47443 132.983 4.59162 133.353 4.82599C133.724 5.06037 134.013 5.38944 134.219 5.81321C134.428 6.23698 134.532 6.73295 134.532 7.30114C134.532 7.86458 134.428 8.35701 134.219 8.77841C134.013 9.19981 133.724 9.5277 133.353 9.76207C132.983 9.99645 132.553 10.1136 132.06 10.1136ZM132.06 9.3608C132.434 9.3608 132.742 9.26491 132.983 9.07315C133.225 8.88139 133.404 8.62926 133.52 8.31676C133.636 8.00426 133.694 7.66572 133.694 7.30114C133.694 6.93655 133.636 6.59683 133.52 6.28196C133.404 5.96709 133.225 5.71259 132.983 5.51847C132.742 5.32434 132.434 5.22727 132.06 5.22727C131.686 5.22727 131.378 5.32434 131.137 5.51847C130.895 5.71259 130.717 5.96709 130.601 6.28196C130.485 6.59683 130.427 6.93655 130.427 7.30114C130.427 7.66572 130.485 8.00426 130.601 8.31676C130.717 8.62926 130.895 8.88139 131.137 9.07315C131.378 9.26491 131.686 9.3608 132.06 9.3608ZM135.811 12.0455V4.54545H136.621V5.41193H136.72C136.782 5.31723 136.867 5.1965 136.976 5.04972C137.087 4.90057 137.246 4.76799 137.452 4.65199C137.66 4.53362 137.942 4.47443 138.297 4.47443C138.756 4.47443 139.161 4.58925 139.511 4.81889C139.862 5.04853 140.135 5.37405 140.332 5.79545C140.528 6.21686 140.626 6.71402 140.626 7.28693C140.626 7.86458 140.528 8.36529 140.332 8.78906C140.135 9.21046 139.863 9.53717 139.515 9.76918C139.167 9.99882 138.766 10.1136 138.311 10.1136C137.961 10.1136 137.68 10.0556 137.469 9.93963C137.259 9.82126 137.097 9.6875 136.983 9.53835C136.869 9.38684 136.782 9.26136 136.72 9.16193H136.649V12.0455H135.811ZM136.635 7.27273C136.635 7.68466 136.695 8.04806 136.816 8.36293C136.937 8.67543 137.113 8.92045 137.345 9.09801C137.577 9.2732 137.861 9.3608 138.197 9.3608C138.548 9.3608 138.84 9.26847 139.074 9.08381C139.311 8.89678 139.489 8.64583 139.607 8.33097C139.728 8.01373 139.788 7.66098 139.788 7.27273C139.788 6.8892 139.729 6.54356 139.611 6.2358C139.495 5.92566 139.318 5.68063 139.082 5.50071C138.847 5.31842 138.552 5.22727 138.197 5.22727C137.856 5.22727 137.57 5.31368 137.338 5.48651C137.106 5.65696 136.931 5.89607 136.812 6.20384C136.694 6.50923 136.635 6.86553 136.635 7.27273ZM142.249 12.0455C142.107 12.0455 141.98 12.0336 141.869 12.0099C141.758 11.9886 141.681 11.9673 141.638 11.946L141.851 11.2074C142.055 11.2595 142.235 11.2784 142.391 11.2642C142.547 11.25 142.686 11.1802 142.807 11.0547C142.93 10.9316 143.042 10.7315 143.144 10.4545L143.3 10.0284L141.283 4.54545H142.192L143.698 8.89205H143.755L145.261 4.54545H146.17L143.854 10.7955C143.75 11.0772 143.621 11.3104 143.467 11.495C143.313 11.6821 143.135 11.8205 142.931 11.9105C142.73 12.0005 142.503 12.0455 142.249 12.0455Z" fill="#6C6C6C"/>
<path d="M303.474 10.1136C302.963 10.1136 302.522 9.9929 302.153 9.75142C301.784 9.50994 301.5 9.17732 301.301 8.75355C301.102 8.32978 301.003 7.84564 301.003 7.30114C301.003 6.74716 301.104 6.25829 301.308 5.83452C301.514 5.40838 301.8 5.07576 302.167 4.83665C302.537 4.59517 302.968 4.47443 303.46 4.47443C303.843 4.47443 304.189 4.54545 304.497 4.6875C304.805 4.82955 305.057 5.02841 305.253 5.28409C305.45 5.53977 305.572 5.83807 305.619 6.17898H304.781C304.717 5.9304 304.575 5.71023 304.355 5.51847C304.137 5.32434 303.843 5.22727 303.474 5.22727C303.147 5.22727 302.861 5.3125 302.615 5.48295C302.371 5.65104 302.18 5.88897 302.043 6.19673C301.908 6.50213 301.841 6.8608 301.841 7.27273C301.841 7.69413 301.907 8.06108 302.04 8.37358C302.174 8.68608 302.364 8.92874 302.608 9.10156C302.854 9.27438 303.143 9.3608 303.474 9.3608C303.692 9.3608 303.89 9.32292 304.067 9.24716C304.245 9.1714 304.395 9.0625 304.518 8.92045C304.641 8.77841 304.729 8.60795 304.781 8.40909H305.619C305.572 8.73106 305.455 9.02107 305.267 9.27912C305.083 9.5348 304.838 9.7384 304.532 9.88991C304.229 10.0391 303.877 10.1136 303.474 10.1136ZM309.06 10.1136C308.568 10.1136 308.136 9.99645 307.764 9.76207C307.395 9.5277 307.106 9.19981 306.897 8.77841C306.691 8.35701 306.589 7.86458 306.589 7.30114C306.589 6.73295 306.691 6.23698 306.897 5.81321C307.106 5.38944 307.395 5.06037 307.764 4.82599C308.136 4.59162 308.568 4.47443 309.06 4.47443C309.553 4.47443 309.983 4.59162 310.353 4.82599C310.724 5.06037 311.013 5.38944 311.219 5.81321C311.428 6.23698 311.532 6.73295 311.532 7.30114C311.532 7.86458 311.428 8.35701 311.219 8.77841C311.013 9.19981 310.724 9.5277 310.353 9.76207C309.983 9.99645 309.553 10.1136 309.06 10.1136ZM309.06 9.3608C309.434 9.3608 309.742 9.26491 309.983 9.07315C310.225 8.88139 310.404 8.62926 310.52 8.31676C310.636 8.00426 310.694 7.66572 310.694 7.30114C310.694 6.93655 310.636 6.59683 310.52 6.28196C310.404 5.96709 310.225 5.71259 309.983 5.51847C309.742 5.32434 309.434 5.22727 309.06 5.22727C308.686 5.22727 308.378 5.32434 308.137 5.51847C307.895 5.71259 307.717 5.96709 307.601 6.28196C307.485 6.59683 307.427 6.93655 307.427 7.30114C307.427 7.66572 307.485 8.00426 307.601 8.31676C307.717 8.62926 307.895 8.88139 308.137 9.07315C308.378 9.26491 308.686 9.3608 309.06 9.3608ZM312.811 12.0455V4.54545H313.621V5.41193H313.72C313.782 5.31723 313.867 5.1965 313.976 5.04972C314.087 4.90057 314.246 4.76799 314.452 4.65199C314.66 4.53362 314.942 4.47443 315.297 4.47443C315.756 4.47443 316.161 4.58925 316.511 4.81889C316.862 5.04853 317.135 5.37405 317.332 5.79545C317.528 6.21686 317.626 6.71402 317.626 7.28693C317.626 7.86458 317.528 8.36529 317.332 8.78906C317.135 9.21046 316.863 9.53717 316.515 9.76918C316.167 9.99882 315.766 10.1136 315.311 10.1136C314.961 10.1136 314.68 10.0556 314.469 9.93963C314.259 9.82126 314.097 9.6875 313.983 9.53835C313.869 9.38684 313.782 9.26136 313.72 9.16193H313.649V12.0455H312.811ZM313.635 7.27273C313.635 7.68466 313.695 8.04806 313.816 8.36293C313.937 8.67543 314.113 8.92045 314.345 9.09801C314.577 9.2732 314.861 9.3608 315.197 9.3608C315.548 9.3608 315.84 9.26847 316.074 9.08381C316.311 8.89678 316.489 8.64583 316.607 8.33097C316.728 8.01373 316.788 7.66098 316.788 7.27273C316.788 6.8892 316.729 6.54356 316.611 6.2358C316.495 5.92566 316.318 5.68063 316.082 5.50071C315.847 5.31842 315.552 5.22727 315.197 5.22727C314.856 5.22727 314.57 5.31368 314.338 5.48651C314.106 5.65696 313.931 5.89607 313.812 6.20384C313.694 6.50923 313.635 6.86553 313.635 7.27273ZM319.249 12.0455C319.107 12.0455 318.98 12.0336 318.869 12.0099C318.758 11.9886 318.681 11.9673 318.638 11.946L318.851 11.2074C319.055 11.2595 319.235 11.2784 319.391 11.2642C319.547 11.25 319.686 11.1802 319.807 11.0547C319.93 10.9316 320.042 10.7315 320.144 10.4545L320.3 10.0284L318.283 4.54545H319.192L320.698 8.89205H320.755L322.261 4.54545H323.17L320.854 10.7955C320.75 11.0772 320.621 11.3104 320.467 11.495C320.313 11.6821 320.135 11.8205 319.931 11.9105C319.73 12.0005 319.503 12.0455 319.249 12.0455Z" fill="#6C6C6C"/>
<path d="M171.704 41.8189C171.676 41.5324 171.554 41.3099 171.339 41.1513C171.123 40.9927 170.831 40.9134 170.461 40.9134C170.211 40.9134 169.999 40.9489 169.826 41.0199C169.653 41.0885 169.52 41.1844 169.428 41.3075C169.338 41.4306 169.293 41.5703 169.293 41.7266C169.288 41.8568 169.316 41.9704 169.375 42.0675C169.436 42.1645 169.52 42.2486 169.627 42.3196C169.733 42.3883 169.857 42.4486 169.996 42.5007C170.136 42.5504 170.285 42.593 170.444 42.6286L171.097 42.7848C171.414 42.8558 171.706 42.9505 171.971 43.0689C172.236 43.1873 172.465 43.3329 172.66 43.5057C172.854 43.6785 173.004 43.8821 173.111 44.1165C173.22 44.3509 173.275 44.6196 173.278 44.9226C173.275 45.3677 173.162 45.7536 172.937 46.0803C172.714 46.4046 172.392 46.6567 171.971 46.8366C171.552 47.0142 171.046 47.103 170.454 47.103C169.867 47.103 169.356 47.013 168.92 46.8331C168.487 46.6532 168.148 46.3868 167.905 46.0341C167.663 45.679 167.537 45.2398 167.525 44.7166H169.013C169.029 44.9605 169.099 45.1641 169.222 45.3274C169.348 45.4884 169.515 45.6103 169.723 45.6932C169.934 45.7737 170.171 45.8139 170.437 45.8139C170.697 45.8139 170.923 45.776 171.115 45.7003C171.309 45.6245 171.459 45.5192 171.566 45.3842C171.672 45.2493 171.726 45.0942 171.726 44.919C171.726 44.7557 171.677 44.6184 171.58 44.5071C171.485 44.3958 171.346 44.3011 171.161 44.223C170.979 44.1449 170.755 44.0739 170.49 44.0099L169.698 43.8111C169.085 43.6619 168.601 43.4287 168.246 43.1115C167.89 42.7943 167.714 42.367 167.716 41.8295C167.714 41.3892 167.831 41.0045 168.068 40.6754C168.307 40.3464 168.635 40.0895 169.052 39.9048C169.468 39.7202 169.942 39.6278 170.472 39.6278C171.012 39.6278 171.483 39.7202 171.885 39.9048C172.29 40.0895 172.605 40.3464 172.83 40.6754C173.055 41.0045 173.171 41.3857 173.178 41.8189H171.704ZM174.312 47V39.7273H177.181C177.73 39.7273 178.199 39.8255 178.587 40.022C178.978 40.2161 179.275 40.492 179.479 40.8494C179.685 41.2045 179.788 41.6224 179.788 42.103C179.788 42.5859 179.683 43.0014 179.475 43.3494C179.267 43.6951 178.965 43.9602 178.57 44.1449C178.177 44.3295 177.701 44.4219 177.142 44.4219H175.221V43.1861H176.893C177.187 43.1861 177.431 43.1458 177.625 43.0653C177.819 42.9848 177.964 42.8641 178.058 42.7031C178.155 42.5421 178.204 42.3421 178.204 42.103C178.204 41.8615 178.155 41.6579 178.058 41.4922C177.964 41.3265 177.818 41.201 177.621 41.1158C177.427 41.0282 177.182 40.9844 176.886 40.9844H175.849V47H174.312ZM178.239 43.6903L180.047 47H178.349L176.581 43.6903H178.239ZM182.128 47H180.48L182.991 39.7273H184.972L187.479 47H185.832L184.01 41.3892H183.953L182.128 47ZM182.025 44.1413H185.917V45.3416H182.025V44.1413ZM188.355 39.7273H190.251L192.254 44.6136H192.339L194.342 39.7273H196.238V47H194.747V42.2663H194.686L192.804 46.9645H191.789L189.907 42.2486H189.846V47H188.355V39.7273Z" fill="#ED7D31"/>
<path d="M158.248 62H157.367C157.315 61.7467 157.224 61.5241 157.093 61.3324C156.966 61.1406 156.809 60.9796 156.625 60.8494C156.442 60.7169 156.24 60.6174 156.017 60.5511C155.795 60.4848 155.563 60.4517 155.321 60.4517C154.881 60.4517 154.482 60.563 154.125 60.7855C153.77 61.008 153.487 61.3359 153.276 61.7692C153.068 62.2024 152.964 62.7339 152.964 63.3636C152.964 63.9934 153.068 64.5249 153.276 64.9581C153.487 65.3913 153.77 65.7192 154.125 65.9418C154.482 66.1643 154.881 66.2756 155.321 66.2756C155.563 66.2756 155.795 66.2424 156.017 66.1761C156.24 66.1098 156.442 66.0116 156.625 65.8814C156.809 65.7488 156.966 65.5866 157.093 65.3949C157.224 65.2008 157.315 64.9782 157.367 64.7273H158.248C158.181 65.099 158.061 65.4316 157.885 65.7251C157.71 66.0187 157.492 66.2685 157.232 66.4744C156.972 66.678 156.679 66.8331 156.355 66.9396C156.033 67.0462 155.688 67.0994 155.321 67.0994C154.701 67.0994 154.15 66.9479 153.667 66.6449C153.184 66.3419 152.804 65.911 152.527 65.3523C152.25 64.7936 152.111 64.1307 152.111 63.3636C152.111 62.5966 152.25 61.9337 152.527 61.375C152.804 60.8163 153.184 60.3854 153.667 60.0824C154.15 59.7794 154.701 59.6278 155.321 59.6278C155.688 59.6278 156.033 59.6811 156.355 59.7876C156.679 59.8942 156.972 60.0504 157.232 60.2564C157.492 60.46 157.71 60.7086 157.885 61.0021C158.061 61.2933 158.181 61.6259 158.248 62ZM161.162 67.1278C160.817 67.1278 160.503 67.0627 160.221 66.9325C159.939 66.8 159.716 66.6094 159.55 66.3608C159.384 66.1098 159.301 65.8068 159.301 65.4517C159.301 65.1392 159.363 64.8859 159.486 64.6918C159.609 64.4953 159.774 64.3414 159.98 64.2301C160.186 64.1188 160.413 64.036 160.661 63.9815C160.912 63.9247 161.165 63.8797 161.418 63.8466C161.749 63.804 162.018 63.772 162.224 63.7507C162.432 63.727 162.584 63.688 162.679 63.6335C162.776 63.5791 162.824 63.4844 162.824 63.3494V63.321C162.824 62.9706 162.728 62.6984 162.536 62.5043C162.347 62.3101 162.059 62.2131 161.674 62.2131C161.273 62.2131 160.96 62.3007 160.733 62.4759C160.505 62.651 160.345 62.8381 160.253 63.0369L159.458 62.7528C159.6 62.4214 159.789 62.1634 160.026 61.9787C160.265 61.7917 160.525 61.6615 160.807 61.5881C161.091 61.5123 161.371 61.4744 161.645 61.4744C161.82 61.4744 162.022 61.4957 162.249 61.5384C162.478 61.5786 162.7 61.6626 162.913 61.7905C163.128 61.9183 163.307 62.1113 163.449 62.3693C163.591 62.6274 163.662 62.973 163.662 63.4062V67H162.824V66.2614H162.782C162.725 66.3797 162.63 66.5064 162.497 66.6413C162.365 66.7763 162.188 66.8911 161.968 66.9858C161.748 67.0805 161.479 67.1278 161.162 67.1278ZM161.29 66.375C161.621 66.375 161.901 66.3099 162.128 66.1797C162.358 66.0495 162.531 65.8814 162.647 65.6754C162.765 65.4695 162.824 65.2528 162.824 65.0256V64.2585C162.789 64.3011 162.71 64.3402 162.59 64.3757C162.471 64.4089 162.334 64.4384 162.178 64.4645C162.024 64.4882 161.874 64.5095 161.727 64.5284C161.582 64.545 161.465 64.5592 161.375 64.571C161.157 64.5994 160.954 64.6456 160.764 64.7095C160.577 64.7711 160.426 64.8646 160.31 64.9901C160.196 65.1132 160.139 65.2812 160.139 65.4943C160.139 65.7855 160.247 66.0057 160.463 66.1548C160.68 66.3016 160.956 66.375 161.29 66.375ZM166.03 59.7273V67H165.192V59.7273H166.03ZM169.781 67.1136C169.269 67.1136 168.829 66.9929 168.46 66.7514C168.09 66.5099 167.806 66.1773 167.608 65.7536C167.409 65.3298 167.309 64.8456 167.309 64.3011C167.309 63.7472 167.411 63.2583 167.615 62.8345C167.821 62.4084 168.107 62.0758 168.474 61.8366C168.843 61.5952 169.274 61.4744 169.767 61.4744C170.15 61.4744 170.496 61.5455 170.804 61.6875C171.111 61.8295 171.363 62.0284 171.56 62.2841C171.756 62.5398 171.878 62.8381 171.926 63.179H171.088C171.024 62.9304 170.882 62.7102 170.661 62.5185C170.444 62.3243 170.15 62.2273 169.781 62.2273C169.454 62.2273 169.168 62.3125 168.921 62.483C168.678 62.651 168.487 62.889 168.35 63.1967C168.215 63.5021 168.147 63.8608 168.147 64.2727C168.147 64.6941 168.214 65.0611 168.346 65.3736C168.481 65.6861 168.67 65.9287 168.914 66.1016C169.161 66.2744 169.449 66.3608 169.781 66.3608C169.999 66.3608 170.196 66.3229 170.374 66.2472C170.551 66.1714 170.702 66.0625 170.825 65.9205C170.948 65.7784 171.036 65.608 171.088 65.4091H171.926C171.878 65.7311 171.761 66.0211 171.574 66.2791C171.389 66.5348 171.144 66.7384 170.839 66.8899C170.536 67.0391 170.183 67.1136 169.781 67.1136ZM176.588 64.7699V61.5455H177.426V67H176.588V66.0767H176.532C176.404 66.3537 176.205 66.5893 175.935 66.7834C175.665 66.9751 175.324 67.071 174.912 67.071C174.571 67.071 174.268 66.9964 174.003 66.8473C173.738 66.6958 173.53 66.4685 173.378 66.1655C173.227 65.8601 173.151 65.4754 173.151 65.0114V61.5455H173.989V64.9545C173.989 65.3523 174.1 65.6695 174.323 65.9062C174.548 66.143 174.834 66.2614 175.182 66.2614C175.39 66.2614 175.602 66.2081 175.818 66.1016C176.036 65.995 176.218 65.8317 176.365 65.6115C176.514 65.3913 176.588 65.1108 176.588 64.7699ZM179.799 59.7273V67H178.961V59.7273H179.799ZM182.94 67.1278C182.594 67.1278 182.28 67.0627 181.998 66.9325C181.717 66.8 181.493 66.6094 181.327 66.3608C181.162 66.1098 181.079 65.8068 181.079 65.4517C181.079 65.1392 181.14 64.8859 181.263 64.6918C181.387 64.4953 181.551 64.3414 181.757 64.2301C181.963 64.1188 182.19 64.036 182.439 63.9815C182.69 63.9247 182.942 63.8797 183.195 63.8466C183.527 63.804 183.795 63.772 184.001 63.7507C184.21 63.727 184.361 63.688 184.456 63.6335C184.553 63.5791 184.601 63.4844 184.601 63.3494V63.321C184.601 62.9706 184.506 62.6984 184.314 62.5043C184.124 62.3101 183.837 62.2131 183.451 62.2131C183.051 62.2131 182.737 62.3007 182.51 62.4759C182.283 62.651 182.123 62.8381 182.03 63.0369L181.235 62.7528C181.377 62.4214 181.566 62.1634 181.803 61.9787C182.042 61.7917 182.303 61.6615 182.584 61.5881C182.869 61.5123 183.148 61.4744 183.422 61.4744C183.598 61.4744 183.799 61.4957 184.026 61.5384C184.256 61.5786 184.477 61.6626 184.69 61.7905C184.906 61.9183 185.084 62.1113 185.226 62.3693C185.369 62.6274 185.44 62.973 185.44 63.4062V67H184.601V66.2614H184.559C184.502 66.3797 184.407 66.5064 184.275 66.6413C184.142 66.7763 183.966 66.8911 183.746 66.9858C183.525 67.0805 183.257 67.1278 182.94 67.1278ZM183.067 66.375C183.399 66.375 183.678 66.3099 183.905 66.1797C184.135 66.0495 184.308 65.8814 184.424 65.6754C184.542 65.4695 184.601 65.2528 184.601 65.0256V64.2585C184.566 64.3011 184.488 64.3402 184.367 64.3757C184.249 64.4089 184.111 64.4384 183.955 64.4645C183.801 64.4882 183.651 64.5095 183.504 64.5284C183.36 64.545 183.243 64.5592 183.153 64.571C182.935 64.5994 182.731 64.6456 182.542 64.7095C182.355 64.7711 182.203 64.8646 182.087 64.9901C181.974 65.1132 181.917 65.2812 181.917 65.4943C181.917 65.7855 182.025 66.0057 182.24 66.1548C182.458 66.3016 182.734 66.375 183.067 66.375ZM189.341 61.5455V62.2557H186.515V61.5455H189.341ZM187.339 60.2386H188.177V65.4375C188.177 65.6742 188.211 65.8518 188.28 65.9702C188.351 66.0862 188.441 66.1643 188.549 66.2045C188.661 66.2424 188.778 66.2614 188.901 66.2614C188.993 66.2614 189.069 66.2566 189.128 66.2472C189.187 66.2353 189.235 66.2259 189.27 66.2188L189.441 66.9716C189.384 66.9929 189.305 67.0142 189.203 67.0355C189.101 67.0592 188.972 67.071 188.816 67.071C188.579 67.071 188.347 67.0201 188.12 66.9183C187.895 66.8165 187.708 66.6615 187.559 66.4531C187.412 66.2448 187.339 65.982 187.339 65.6648V60.2386ZM190.602 67V61.5455H191.44V67H190.602ZM191.028 60.6364C190.865 60.6364 190.724 60.5807 190.606 60.4695C190.49 60.3582 190.432 60.2244 190.432 60.0682C190.432 59.9119 190.49 59.7782 190.606 59.6669C190.724 59.5556 190.865 59.5 191.028 59.5C191.191 59.5 191.331 59.5556 191.447 59.6669C191.566 59.7782 191.625 59.9119 191.625 60.0682C191.625 60.2244 191.566 60.3582 191.447 60.4695C191.331 60.5807 191.191 60.6364 191.028 60.6364ZM195.191 67.1136C194.699 67.1136 194.266 66.9964 193.895 66.7621C193.525 66.5277 193.237 66.1998 193.028 65.7784C192.822 65.357 192.719 64.8646 192.719 64.3011C192.719 63.733 192.822 63.237 193.028 62.8132C193.237 62.3894 193.525 62.0604 193.895 61.826C194.266 61.5916 194.699 61.4744 195.191 61.4744C195.683 61.4744 196.114 61.5916 196.484 61.826C196.855 62.0604 197.144 62.3894 197.35 62.8132C197.558 63.237 197.663 63.733 197.663 64.3011C197.663 64.8646 197.558 65.357 197.35 65.7784C197.144 66.1998 196.855 66.5277 196.484 66.7621C196.114 66.9964 195.683 67.1136 195.191 67.1136ZM195.191 66.3608C195.565 66.3608 195.873 66.2649 196.114 66.0732C196.356 65.8814 196.534 65.6293 196.65 65.3168C196.766 65.0043 196.824 64.6657 196.824 64.3011C196.824 63.9366 196.766 63.5968 196.65 63.282C196.534 62.9671 196.356 62.7126 196.114 62.5185C195.873 62.3243 195.565 62.2273 195.191 62.2273C194.817 62.2273 194.509 62.3243 194.268 62.5185C194.026 62.7126 193.847 62.9671 193.731 63.282C193.615 63.5968 193.557 63.9366 193.557 64.3011C193.557 64.6657 193.615 65.0043 193.731 65.3168C193.847 65.6293 194.026 65.8814 194.268 66.0732C194.509 66.2649 194.817 66.3608 195.191 66.3608ZM199.78 63.7188V67H198.942V61.5455H199.752V62.3977H199.823C199.95 62.1207 200.145 61.8982 200.405 61.7301C200.665 61.5597 201.002 61.4744 201.413 61.4744C201.783 61.4744 202.106 61.5502 202.383 61.7017C202.66 61.8509 202.875 62.0781 203.029 62.3835C203.183 62.6866 203.26 63.0701 203.26 63.5341V67H202.422V63.5909C202.422 63.1624 202.311 62.8286 202.088 62.5895C201.866 62.348 201.56 62.2273 201.172 62.2273C200.904 62.2273 200.665 62.2853 200.455 62.4013C200.246 62.5173 200.082 62.6866 199.961 62.9091C199.84 63.1316 199.78 63.4015 199.78 63.7188ZM210.147 59.7273V67H209.266V60.6506H209.223L207.448 61.8295V60.9347L209.266 59.7273H210.147Z" fill="#6C6C6C"/>
<path d="M192.638 80.4304L192.642 78.6158H192.862L194.609 76.5455H196.346L193.999 79.2869H193.64L192.638 80.4304ZM191.268 82V74.7273H192.781V82H191.268ZM194.677 82L193.072 79.6243L194.08 78.5554L196.449 82H194.677ZM199.349 82.1065C198.788 82.1065 198.305 81.9929 197.9 81.7656C197.498 81.536 197.188 81.2116 196.97 80.7926C196.752 80.3712 196.643 79.8729 196.643 79.2976C196.643 78.7365 196.752 78.2441 196.97 77.8203C197.188 77.3965 197.494 77.0663 197.89 76.8295C198.287 76.5928 198.754 76.4744 199.289 76.4744C199.649 76.4744 199.984 76.5324 200.294 76.6484C200.606 76.7621 200.879 76.9337 201.111 77.1634C201.345 77.393 201.527 77.6818 201.657 78.0298C201.788 78.3755 201.853 78.7803 201.853 79.2443V79.6598H197.247V78.7223H200.429C200.429 78.5045 200.381 78.3116 200.287 78.1435C200.192 77.9754 200.061 77.844 199.893 77.7493C199.727 77.6522 199.534 77.6037 199.314 77.6037C199.084 77.6037 198.881 77.657 198.703 77.7635C198.528 77.8677 198.39 78.0085 198.291 78.1861C198.192 78.3613 198.141 78.5566 198.138 78.772V79.6634C198.138 79.9332 198.188 80.1664 198.287 80.3629C198.389 80.5594 198.532 80.7109 198.717 80.8175C198.902 80.924 199.121 80.9773 199.374 80.9773C199.542 80.9773 199.696 80.9536 199.836 80.9062C199.975 80.8589 200.095 80.7879 200.194 80.6932C200.294 80.5985 200.37 80.4825 200.422 80.3452L201.821 80.4375C201.75 80.7737 201.604 81.0672 201.384 81.3182C201.166 81.5668 200.885 81.7609 200.539 81.9006C200.196 82.0379 199.799 82.1065 199.349 82.1065ZM202.84 82V76.5455H204.307V77.4972H204.363C204.463 77.1586 204.63 76.9029 204.864 76.7301C205.099 76.5549 205.368 76.4673 205.674 76.4673C205.75 76.4673 205.831 76.4721 205.919 76.4815C206.006 76.491 206.083 76.504 206.15 76.5206V77.8629C206.079 77.8416 205.98 77.8227 205.855 77.8061C205.729 77.7895 205.615 77.7812 205.51 77.7812C205.288 77.7812 205.089 77.8298 204.914 77.9268C204.741 78.0215 204.604 78.1541 204.502 78.3246C204.403 78.495 204.353 78.6915 204.353 78.9141V82H202.84ZM208.445 78.8466V82H206.932V76.5455H208.374V77.5078H208.438C208.558 77.1906 208.761 76.9396 209.045 76.755C209.329 76.5679 209.673 76.4744 210.078 76.4744C210.457 76.4744 210.787 76.5573 211.069 76.723C211.351 76.8887 211.57 77.1255 211.726 77.4332C211.882 77.7386 211.96 78.1032 211.96 78.527V82H210.447V78.7969C210.45 78.4631 210.365 78.2027 210.192 78.0156C210.019 77.8262 209.781 77.7315 209.478 77.7315C209.274 77.7315 209.094 77.7753 208.938 77.8629C208.784 77.9505 208.664 78.0784 208.576 78.2464C208.491 78.4122 208.447 78.6122 208.445 78.8466ZM215.638 82.1065C215.077 82.1065 214.594 81.9929 214.189 81.7656C213.787 81.536 213.477 81.2116 213.259 80.7926C213.041 80.3712 212.932 79.8729 212.932 79.2976C212.932 78.7365 213.041 78.2441 213.259 77.8203C213.477 77.3965 213.783 77.0663 214.179 76.8295C214.577 76.5928 215.043 76.4744 215.578 76.4744C215.938 76.4744 216.273 76.5324 216.583 76.6484C216.895 76.7621 217.168 76.9337 217.4 77.1634C217.634 77.393 217.816 77.6818 217.947 78.0298C218.077 78.3755 218.142 78.7803 218.142 79.2443V79.6598H213.536V78.7223H216.718C216.718 78.5045 216.671 78.3116 216.576 78.1435C216.481 77.9754 216.35 77.844 216.182 77.7493C216.016 77.6522 215.823 77.6037 215.603 77.6037C215.373 77.6037 215.17 77.657 214.992 77.7635C214.817 77.8677 214.68 78.0085 214.58 78.1861C214.481 78.3613 214.43 78.5566 214.427 78.772V79.6634C214.427 79.9332 214.477 80.1664 214.577 80.3629C214.678 80.5594 214.822 80.7109 215.006 80.8175C215.191 80.924 215.41 80.9773 215.663 80.9773C215.831 80.9773 215.985 80.9536 216.125 80.9062C216.265 80.8589 216.384 80.7879 216.483 80.6932C216.583 80.5985 216.659 80.4825 216.711 80.3452L218.11 80.4375C218.039 80.7737 217.893 81.0672 217.673 81.3182C217.455 81.5668 217.174 81.7609 216.828 81.9006C216.485 82.0379 216.088 82.1065 215.638 82.1065ZM220.642 74.7273V82H219.129V74.7273H220.642ZM227.101 76.5455V77.6818H223.735V76.5455H227.101ZM224.506 82V76.1513C224.506 75.7559 224.582 75.428 224.736 75.1676C224.893 74.9072 225.106 74.7119 225.376 74.5817C225.645 74.4515 225.952 74.3864 226.295 74.3864C226.527 74.3864 226.739 74.4041 226.931 74.4396C227.125 74.4751 227.269 74.5071 227.364 74.5355L227.094 75.6719C227.035 75.6529 226.962 75.6352 226.874 75.6186C226.789 75.602 226.701 75.5938 226.611 75.5938C226.389 75.5938 226.234 75.6458 226.146 75.75C226.059 75.8518 226.015 75.995 226.015 76.1797V82H224.506ZM231.523 79.6776V76.5455H233.036V82H231.584V81.0092H231.527C231.404 81.3288 231.199 81.5857 230.913 81.7798C230.629 81.974 230.282 82.071 229.872 82.071C229.508 82.071 229.187 81.9882 228.91 81.8224C228.633 81.6567 228.416 81.4212 228.26 81.1158C228.106 80.8104 228.028 80.4446 228.026 80.0185V76.5455H229.538V79.7486C229.541 80.0705 229.627 80.325 229.798 80.5121C229.968 80.6991 230.196 80.7926 230.483 80.7926C230.665 80.7926 230.836 80.7512 230.994 80.6683C231.153 80.5831 231.281 80.4576 231.378 80.2919C231.477 80.1262 231.526 79.9214 231.523 79.6776ZM238.785 78.1009L237.4 78.1861C237.376 78.0677 237.325 77.9612 237.247 77.8665C237.169 77.7694 237.066 77.6925 236.938 77.6357C236.813 77.5765 236.662 77.5469 236.487 77.5469C236.253 77.5469 236.055 77.5966 235.894 77.696C235.733 77.7931 235.653 77.9233 235.653 78.0866C235.653 78.2169 235.705 78.3269 235.809 78.4169C235.913 78.5069 236.092 78.5791 236.345 78.6335L237.332 78.8324C237.863 78.9413 238.258 79.1165 238.518 79.358C238.779 79.5994 238.909 79.9167 238.909 80.3097C238.909 80.6671 238.804 80.9808 238.593 81.2507C238.385 81.5206 238.098 81.7313 237.733 81.8828C237.371 82.032 236.953 82.1065 236.48 82.1065C235.758 82.1065 235.183 81.9562 234.754 81.6555C234.328 81.3525 234.078 80.9406 234.005 80.4197L235.493 80.3416C235.538 80.5618 235.647 80.7299 235.819 80.8459C235.992 80.9595 236.214 81.0163 236.483 81.0163C236.749 81.0163 236.962 80.9654 237.123 80.8636C237.286 80.7595 237.369 80.6257 237.371 80.4624C237.369 80.325 237.311 80.2126 237.197 80.125C237.084 80.035 236.908 79.9664 236.672 79.919L235.727 79.7308C235.194 79.6243 234.798 79.4396 234.537 79.1768C234.279 78.9141 234.15 78.5791 234.15 78.1719C234.15 77.8215 234.245 77.5196 234.434 77.2663C234.626 77.013 234.895 76.8177 235.241 76.6804C235.589 76.5431 235.996 76.4744 236.462 76.4744C237.151 76.4744 237.693 76.62 238.089 76.9112C238.486 77.2024 238.718 77.599 238.785 78.1009ZM239.862 82V76.5455H241.374V82H239.862ZM240.621 75.8423C240.397 75.8423 240.204 75.7678 240.043 75.6186C239.884 75.4671 239.805 75.286 239.805 75.0753C239.805 74.867 239.884 74.6882 240.043 74.5391C240.204 74.3875 240.397 74.3118 240.621 74.3118C240.846 74.3118 241.038 74.3875 241.197 74.5391C241.358 74.6882 241.438 74.867 241.438 75.0753C241.438 75.286 241.358 75.4671 241.197 75.6186C241.038 75.7678 240.846 75.8423 240.621 75.8423ZM245.051 82.1065C244.499 82.1065 244.022 81.9893 243.619 81.755C243.219 81.5182 242.91 81.1892 242.693 80.7678C242.475 80.344 242.366 79.8527 242.366 79.294C242.366 78.7306 242.475 78.2382 242.693 77.8168C242.91 77.393 243.219 77.0639 243.619 76.8295C244.022 76.5928 244.499 76.4744 245.051 76.4744C245.602 76.4744 246.078 76.5928 246.478 76.8295C246.881 77.0639 247.191 77.393 247.409 77.8168C247.626 78.2382 247.735 78.7306 247.735 79.294C247.735 79.8527 247.626 80.344 247.409 80.7678C247.191 81.1892 246.881 81.5182 246.478 81.755C246.078 81.9893 245.602 82.1065 245.051 82.1065ZM245.058 80.9347C245.309 80.9347 245.518 80.8636 245.686 80.7216C245.854 80.5772 245.981 80.3807 246.066 80.1321C246.154 79.8835 246.198 79.6006 246.198 79.2834C246.198 78.9661 246.154 78.6832 246.066 78.4347C245.981 78.1861 245.854 77.9896 245.686 77.8452C245.518 77.7008 245.309 77.6286 245.058 77.6286C244.804 77.6286 244.591 77.7008 244.419 77.8452C244.248 77.9896 244.119 78.1861 244.031 78.4347C243.946 78.6832 243.904 78.9661 243.904 79.2834C243.904 79.6006 243.946 79.8835 244.031 80.1321C244.119 80.3807 244.248 80.5772 244.419 80.7216C244.591 80.8636 244.804 80.9347 245.058 80.9347ZM250.232 78.8466V82H248.719V76.5455H250.161V77.5078H250.225C250.345 77.1906 250.548 76.9396 250.832 76.755C251.116 76.5679 251.46 76.4744 251.865 76.4744C252.244 76.4744 252.574 76.5573 252.856 76.723C253.138 76.8887 253.357 77.1255 253.513 77.4332C253.669 77.7386 253.747 78.1032 253.747 78.527V82H252.235V78.7969C252.237 78.4631 252.152 78.2027 251.979 78.0156C251.806 77.8262 251.568 77.7315 251.265 77.7315C251.061 77.7315 250.882 77.7753 250.725 77.8629C250.571 77.9505 250.451 78.0784 250.363 78.2464C250.278 78.4122 250.234 78.6122 250.232 78.8466Z" fill="black" fill-opacity="0.8"/>
<path d="M339.476 45H336.898V37.7273H339.497C340.229 37.7273 340.858 37.8729 341.386 38.1641C341.914 38.4529 342.32 38.8684 342.604 39.4105C342.891 39.9527 343.034 40.6013 343.034 41.3565C343.034 42.1141 342.891 42.7652 342.604 43.3097C342.32 43.8542 341.912 44.272 341.379 44.5632C340.849 44.8544 340.214 45 339.476 45ZM338.435 43.6825H339.412C339.866 43.6825 340.249 43.602 340.559 43.4411C340.871 43.2777 341.106 43.0256 341.262 42.6847C341.421 42.3414 341.5 41.8987 341.5 41.3565C341.5 40.8191 341.421 40.38 341.262 40.0391C341.106 39.6982 340.873 39.4472 340.562 39.2862C340.252 39.1252 339.87 39.0447 339.415 39.0447H338.435V43.6825ZM344.173 45V37.7273H347.042C347.592 37.7273 348.06 37.8255 348.449 38.022C348.839 38.2161 349.136 38.492 349.34 38.8494C349.546 39.2045 349.649 39.6224 349.649 40.103C349.649 40.5859 349.545 41.0014 349.336 41.3494C349.128 41.6951 348.826 41.9602 348.431 42.1449C348.038 42.3295 347.562 42.4219 347.003 42.4219H345.082V41.1861H346.755C347.048 41.1861 347.292 41.1458 347.486 41.0653C347.68 40.9848 347.825 40.8641 347.92 40.7031C348.017 40.5421 348.065 40.3421 348.065 40.103C348.065 39.8615 348.017 39.6579 347.92 39.4922C347.825 39.3265 347.679 39.201 347.483 39.1158C347.289 39.0282 347.044 38.9844 346.748 38.9844H345.711V45H344.173ZM348.101 41.6903L349.908 45H348.211L346.442 41.6903H348.101ZM351.989 45H350.341L352.852 37.7273H354.834L357.341 45H355.693L353.871 39.3892H353.814L351.989 45ZM351.886 42.1413H355.778V43.3416H351.886V42.1413ZM358.216 37.7273H360.112L362.115 42.6136H362.2L364.203 37.7273H366.1V45H364.608V40.2663H364.548L362.666 44.9645H361.65L359.768 40.2486H359.708V45H358.216V37.7273Z" fill="#548235"/>
<path d="M324.205 67L322.216 59.7273H323.111L324.631 65.6506H324.702L326.25 59.7273H327.244L328.793 65.6506H328.864L330.384 59.7273H331.278L329.29 67H328.381L326.776 61.2045H326.719L325.114 67H324.205ZM331.92 67V61.5455H332.73V62.3693H332.787C332.886 62.0994 333.066 61.8804 333.327 61.7124C333.587 61.5443 333.881 61.4602 334.207 61.4602C334.269 61.4602 334.346 61.4614 334.438 61.4638C334.53 61.4661 334.6 61.4697 334.648 61.4744V62.3267C334.619 62.3196 334.554 62.3089 334.452 62.2947C334.353 62.2782 334.248 62.2699 334.136 62.2699C333.871 62.2699 333.634 62.3255 333.426 62.4368C333.22 62.5457 333.057 62.6972 332.936 62.8913C332.818 63.0831 332.758 63.3021 332.758 63.5483V67H331.92ZM335.641 67V61.5455H336.479V67H335.641ZM336.067 60.6364C335.904 60.6364 335.763 60.5807 335.645 60.4695C335.529 60.3582 335.471 60.2244 335.471 60.0682C335.471 59.9119 335.529 59.7782 335.645 59.6669C335.763 59.5556 335.904 59.5 336.067 59.5C336.231 59.5 336.37 59.5556 336.486 59.6669C336.605 59.7782 336.664 59.9119 336.664 60.0682C336.664 60.2244 336.605 60.3582 336.486 60.4695C336.37 60.5807 336.231 60.6364 336.067 60.6364ZM340.386 61.5455V62.2557H337.56V61.5455H340.386ZM338.383 60.2386H339.222V65.4375C339.222 65.6742 339.256 65.8518 339.324 65.9702C339.396 66.0862 339.485 66.1643 339.594 66.2045C339.706 66.2424 339.823 66.2614 339.946 66.2614C340.038 66.2614 340.114 66.2566 340.173 66.2472C340.232 66.2353 340.28 66.2259 340.315 66.2188L340.486 66.9716C340.429 66.9929 340.35 67.0142 340.248 67.0355C340.146 67.0592 340.017 67.071 339.861 67.071C339.624 67.071 339.392 67.0201 339.165 66.9183C338.94 66.8165 338.753 66.6615 338.604 66.4531C338.457 66.2448 338.383 65.982 338.383 65.6648V60.2386ZM343.875 67.1136C343.35 67.1136 342.896 66.9976 342.515 66.7656C342.136 66.5312 341.844 66.2045 341.638 65.7855C341.434 65.3641 341.333 64.8741 341.333 64.3153C341.333 63.7566 341.434 63.2642 341.638 62.8381C341.844 62.4096 342.13 62.0758 342.497 61.8366C342.867 61.5952 343.298 61.4744 343.79 61.4744C344.074 61.4744 344.355 61.5218 344.632 61.6165C344.909 61.7112 345.161 61.8651 345.388 62.0781C345.615 62.2888 345.796 62.5682 345.931 62.9162C346.066 63.2642 346.134 63.6927 346.134 64.2017V64.5568H341.929V63.8324H345.282C345.282 63.5246 345.22 63.25 345.097 63.0085C344.976 62.767 344.803 62.5765 344.578 62.4368C344.356 62.2971 344.093 62.2273 343.79 62.2273C343.456 62.2273 343.167 62.3101 342.924 62.4759C342.682 62.6392 342.496 62.8523 342.366 63.1151C342.236 63.3778 342.171 63.6596 342.171 63.9602V64.4432C342.171 64.8551 342.242 65.2043 342.384 65.4908C342.528 65.7749 342.728 65.9915 342.984 66.1406C343.24 66.2874 343.537 66.3608 343.875 66.3608C344.095 66.3608 344.294 66.33 344.472 66.2685C344.652 66.2045 344.807 66.1098 344.937 65.9844C345.067 65.8565 345.168 65.6979 345.239 65.5085L346.049 65.7358C345.963 66.0104 345.82 66.2519 345.619 66.4602C345.418 66.6662 345.169 66.8272 344.873 66.9432C344.577 67.0568 344.245 67.1136 343.875 67.1136ZM350.221 67V61.5455H351.031V62.3693H351.088C351.187 62.0994 351.367 61.8804 351.627 61.7124C351.888 61.5443 352.181 61.4602 352.508 61.4602C352.57 61.4602 352.647 61.4614 352.739 61.4638C352.831 61.4661 352.901 61.4697 352.948 61.4744V62.3267C352.92 62.3196 352.855 62.3089 352.753 62.2947C352.654 62.2782 352.548 62.2699 352.437 62.2699C352.172 62.2699 351.935 62.3255 351.727 62.4368C351.521 62.5457 351.358 62.6972 351.237 62.8913C351.118 63.0831 351.059 63.3021 351.059 63.5483V67H350.221ZM356.063 67.1136C355.537 67.1136 355.084 66.9976 354.703 66.7656C354.324 66.5312 354.032 66.2045 353.826 65.7855C353.622 65.3641 353.52 64.8741 353.52 64.3153C353.52 63.7566 353.622 63.2642 353.826 62.8381C354.032 62.4096 354.318 62.0758 354.685 61.8366C355.054 61.5952 355.485 61.4744 355.978 61.4744C356.262 61.4744 356.542 61.5218 356.819 61.6165C357.096 61.7112 357.348 61.8651 357.576 62.0781C357.803 62.2888 357.984 62.5682 358.119 62.9162C358.254 63.2642 358.321 63.6927 358.321 64.2017V64.5568H354.117V63.8324H357.469C357.469 63.5246 357.407 63.25 357.284 63.0085C357.164 62.767 356.991 62.5765 356.766 62.4368C356.543 62.2971 356.281 62.2273 355.978 62.2273C355.644 62.2273 355.355 62.3101 355.111 62.4759C354.87 62.6392 354.684 62.8523 354.554 63.1151C354.423 63.3778 354.358 63.6596 354.358 63.9602V64.4432C354.358 64.8551 354.429 65.2043 354.571 65.4908C354.716 65.7749 354.916 65.9915 355.171 66.1406C355.427 66.2874 355.724 66.3608 356.063 66.3608C356.283 66.3608 356.482 66.33 356.659 66.2685C356.839 66.2045 356.994 66.1098 357.125 65.9844C357.255 65.8565 357.355 65.6979 357.426 65.5085L358.236 65.7358C358.151 66.0104 358.008 66.2519 357.806 66.4602C357.605 66.6662 357.357 66.8272 357.061 66.9432C356.765 67.0568 356.432 67.1136 356.063 67.1136ZM363.46 62.767L362.707 62.9801C362.66 62.8546 362.59 62.7327 362.497 62.6143C362.407 62.4936 362.284 62.3942 362.128 62.3161C361.972 62.2379 361.772 62.1989 361.528 62.1989C361.194 62.1989 360.916 62.2758 360.693 62.4297C360.473 62.5812 360.363 62.7741 360.363 63.0085C360.363 63.2169 360.439 63.3814 360.59 63.5021C360.742 63.6229 360.979 63.7235 361.301 63.804L362.11 64.0028C362.598 64.1212 362.961 64.3023 363.201 64.5462C363.44 64.7876 363.559 65.099 363.559 65.4801C363.559 65.7926 363.469 66.072 363.289 66.3182C363.112 66.5644 362.863 66.7585 362.544 66.9006C362.224 67.0426 361.852 67.1136 361.429 67.1136C360.872 67.1136 360.412 66.9929 360.047 66.7514C359.683 66.5099 359.452 66.1572 359.355 65.6932L360.15 65.4943C360.226 65.7879 360.369 66.008 360.58 66.1548C360.793 66.3016 361.071 66.375 361.414 66.375C361.805 66.375 362.115 66.2921 362.345 66.1264C362.577 65.9583 362.693 65.7571 362.693 65.5227C362.693 65.3333 362.626 65.1747 362.494 65.0469C362.361 64.9167 362.158 64.8196 361.883 64.7557L360.974 64.5426C360.474 64.4242 360.108 64.2408 359.873 63.9922C359.641 63.7412 359.525 63.4276 359.525 63.0511C359.525 62.7434 359.612 62.4711 359.784 62.2344C359.96 61.9976 360.197 61.8118 360.498 61.6768C360.801 61.5419 361.144 61.4744 361.528 61.4744C362.068 61.4744 362.492 61.5928 362.799 61.8295C363.109 62.0663 363.33 62.3788 363.46 62.767ZM368.258 64.7699V61.5455H369.096V67H368.258V66.0767H368.201C368.074 66.3537 367.875 66.5893 367.605 66.7834C367.335 66.9751 366.994 67.071 366.582 67.071C366.241 67.071 365.938 66.9964 365.673 66.8473C365.408 66.6958 365.2 66.4685 365.048 66.1655C364.897 65.8601 364.821 65.4754 364.821 65.0114V61.5455H365.659V64.9545C365.659 65.3523 365.77 65.6695 365.993 65.9062C366.218 66.143 366.504 66.2614 366.852 66.2614C367.06 66.2614 367.272 66.2081 367.488 66.1016C367.705 65.995 367.888 65.8317 368.035 65.6115C368.184 65.3913 368.258 65.1108 368.258 64.7699ZM371.469 59.7273V67H370.631V59.7273H371.469ZM375.377 61.5455V62.2557H372.55V61.5455H375.377ZM373.374 60.2386H374.212V65.4375C374.212 65.6742 374.246 65.8518 374.315 65.9702C374.386 66.0862 374.476 66.1643 374.585 66.2045C374.696 66.2424 374.813 66.2614 374.936 66.2614C375.028 66.2614 375.104 66.2566 375.163 66.2472C375.223 66.2353 375.27 66.2259 375.305 66.2188L375.476 66.9716C375.419 66.9929 375.34 67.0142 375.238 67.0355C375.136 67.0592 375.007 67.071 374.851 67.071C374.614 67.071 374.382 67.0201 374.155 66.9183C373.93 66.8165 373.743 66.6615 373.594 66.4531C373.447 66.2448 373.374 65.982 373.374 65.6648V60.2386ZM380.403 62.767L379.65 62.9801C379.603 62.8546 379.533 62.7327 379.441 62.6143C379.351 62.4936 379.228 62.3942 379.071 62.3161C378.915 62.2379 378.715 62.1989 378.471 62.1989C378.138 62.1989 377.859 62.2758 377.637 62.4297C377.417 62.5812 377.307 62.7741 377.307 63.0085C377.307 63.2169 377.382 63.3814 377.534 63.5021C377.685 63.6229 377.922 63.7235 378.244 63.804L379.054 64.0028C379.541 64.1212 379.905 64.3023 380.144 64.5462C380.383 64.7876 380.503 65.099 380.503 65.4801C380.503 65.7926 380.413 66.072 380.233 66.3182C380.055 66.5644 379.807 66.7585 379.487 66.9006C379.167 67.0426 378.796 67.1136 378.372 67.1136C377.816 67.1136 377.355 66.9929 376.991 66.7514C376.626 66.5099 376.395 66.1572 376.298 65.6932L377.093 65.4943C377.169 65.7879 377.312 66.008 377.523 66.1548C377.736 66.3016 378.014 66.375 378.358 66.375C378.748 66.375 379.058 66.2921 379.288 66.1264C379.52 65.9583 379.636 65.7571 379.636 65.5227C379.636 65.3333 379.57 65.1747 379.437 65.0469C379.305 64.9167 379.101 64.8196 378.826 64.7557L377.917 64.5426C377.418 64.4242 377.051 64.2408 376.816 63.9922C376.584 63.7412 376.468 63.4276 376.468 63.0511C376.468 62.7434 376.555 62.4711 376.728 62.2344C376.903 61.9976 377.141 61.8118 377.441 61.6768C377.745 61.5419 378.088 61.4744 378.471 61.4744C379.011 61.4744 379.435 61.5928 379.743 61.8295C380.053 62.0663 380.273 62.3788 380.403 62.767Z" fill="#6C6C6C"/>
<path d="M147 64L142 61.1132V66.8868L147 64ZM129 64.5H142.5V63.5H129V64.5Z" fill="black" fill-opacity="0.8"/>
<path d="M149.5 61.5L149.5 70.5" stroke="black" stroke-opacity="0.8" stroke-dasharray="2 2"/>
<path d="M299.5 61.5L299.5 70.5" stroke="black" stroke-opacity="0.8" stroke-dasharray="2 2"/>
<path d="M300 71L149 71" stroke="black" stroke-opacity="0.8" stroke-dasharray="2 2"/>
<path d="M176.884 34L179.327 28.7688L173.575 29.2688L176.884 34ZM98.5 34C98.5 27.9718 102.768 23.4553 109.525 20.3719C116.274 17.2921 125.38 15.711 134.731 15.5198C144.079 15.3286 153.623 16.527 161.235 18.9686C165.041 20.1894 168.346 21.7155 170.899 23.5207C173.453 25.3268 175.225 27.3915 176.022 29.6829L176.967 29.3545C176.079 26.8022 174.136 24.5847 171.476 22.7042C168.815 20.8226 165.409 19.2574 161.54 18.0164C153.803 15.5344 144.145 14.327 134.711 14.52C125.281 14.7129 116.026 16.3058 109.11 19.4621C102.202 22.6147 97.5 27.3962 97.5 34H98.5Z" fill="black" fill-opacity="0.8"/>
<path d="M351.884 34L354.327 28.7688L348.575 29.2688L351.884 34ZM273.5 34C273.5 27.9718 277.768 23.4553 284.525 20.3719C291.274 17.2921 300.38 15.711 309.731 15.5198C319.079 15.3286 328.623 16.527 336.235 18.9686C340.041 20.1894 343.346 21.7155 345.899 23.5207C348.453 25.3268 350.225 27.3915 351.022 29.6829L351.967 29.3545C351.079 26.8022 349.136 24.5847 346.476 22.7042C343.815 20.8226 340.409 19.2574 336.54 18.0164C328.803 15.5344 319.145 14.327 309.711 14.52C300.281 14.7129 291.026 16.3058 284.11 19.4621C277.202 22.6147 272.5 27.3962 272.5 34H273.5Z" fill="black" fill-opacity="0.8"/>
<path d="M256.704 41.8189C256.676 41.5324 256.554 41.3099 256.339 41.1513C256.123 40.9927 255.831 40.9134 255.461 40.9134C255.211 40.9134 254.999 40.9489 254.826 41.0199C254.653 41.0885 254.52 41.1844 254.428 41.3075C254.338 41.4306 254.293 41.5703 254.293 41.7266C254.288 41.8568 254.316 41.9704 254.375 42.0675C254.436 42.1645 254.52 42.2486 254.627 42.3196C254.733 42.3883 254.857 42.4486 254.996 42.5007C255.136 42.5504 255.285 42.593 255.444 42.6286L256.097 42.7848C256.414 42.8558 256.706 42.9505 256.971 43.0689C257.236 43.1873 257.465 43.3329 257.66 43.5057C257.854 43.6785 258.004 43.8821 258.111 44.1165C258.22 44.3509 258.275 44.6196 258.278 44.9226C258.275 45.3677 258.162 45.7536 257.937 46.0803C257.714 46.4046 257.392 46.6567 256.971 46.8366C256.552 47.0142 256.046 47.103 255.454 47.103C254.867 47.103 254.356 47.013 253.92 46.8331C253.487 46.6532 253.148 46.3868 252.905 46.0341C252.663 45.679 252.537 45.2398 252.525 44.7166H254.013C254.029 44.9605 254.099 45.1641 254.222 45.3274C254.348 45.4884 254.515 45.6103 254.723 45.6932C254.934 45.7737 255.171 45.8139 255.437 45.8139C255.697 45.8139 255.923 45.776 256.115 45.7003C256.309 45.6245 256.459 45.5192 256.566 45.3842C256.672 45.2493 256.726 45.0942 256.726 44.919C256.726 44.7557 256.677 44.6184 256.58 44.5071C256.485 44.3958 256.346 44.3011 256.161 44.223C255.979 44.1449 255.755 44.0739 255.49 44.0099L254.698 43.8111C254.085 43.6619 253.601 43.4287 253.246 43.1115C252.89 42.7943 252.714 42.367 252.716 41.8295C252.714 41.3892 252.831 41.0045 253.068 40.6754C253.307 40.3464 253.635 40.0895 254.052 39.9048C254.468 39.7202 254.942 39.6278 255.472 39.6278C256.012 39.6278 256.483 39.7202 256.885 39.9048C257.29 40.0895 257.605 40.3464 257.83 40.6754C258.055 41.0045 258.171 41.3857 258.178 41.8189H256.704ZM259.312 47V39.7273H262.181C262.73 39.7273 263.199 39.8255 263.587 40.022C263.978 40.2161 264.275 40.492 264.479 40.8494C264.685 41.2045 264.788 41.6224 264.788 42.103C264.788 42.5859 264.683 43.0014 264.475 43.3494C264.267 43.6951 263.965 43.9602 263.57 44.1449C263.177 44.3295 262.701 44.4219 262.142 44.4219H260.221V43.1861H261.893C262.187 43.1861 262.431 43.1458 262.625 43.0653C262.819 42.9848 262.964 42.8641 263.058 42.7031C263.155 42.5421 263.204 42.3421 263.204 42.103C263.204 41.8615 263.155 41.6579 263.058 41.4922C262.964 41.3265 262.818 41.201 262.621 41.1158C262.427 41.0282 262.182 40.9844 261.886 40.9844H260.849V47H259.312ZM263.239 43.6903L265.047 47H263.349L261.581 43.6903H263.239ZM267.128 47H265.48L267.991 39.7273H269.972L272.479 47H270.832L269.01 41.3892H268.953L267.128 47ZM267.025 44.1413H270.917V45.3416H267.025V44.1413ZM273.355 39.7273H275.251L277.254 44.6136H277.339L279.342 39.7273H281.238V47H279.747V42.2663H279.686L277.804 46.9645H276.789L274.907 42.2486H274.846V47H273.355V39.7273Z" fill="#ED7D31"/>
<path d="M242.544 62H241.664C241.612 61.7467 241.521 61.5241 241.39 61.3324C241.263 61.1406 241.106 60.9796 240.922 60.8494C240.739 60.7169 240.537 60.6174 240.314 60.5511C240.092 60.4848 239.86 60.4517 239.618 60.4517C239.178 60.4517 238.779 60.563 238.422 60.7855C238.066 61.008 237.784 61.3359 237.573 61.7692C237.365 62.2024 237.26 62.7339 237.26 63.3636C237.26 63.9934 237.365 64.5249 237.573 64.9581C237.784 65.3913 238.066 65.7192 238.422 65.9418C238.779 66.1643 239.178 66.2756 239.618 66.2756C239.86 66.2756 240.092 66.2424 240.314 66.1761C240.537 66.1098 240.739 66.0116 240.922 65.8814C241.106 65.7488 241.263 65.5866 241.39 65.3949C241.521 65.2008 241.612 64.9782 241.664 64.7273H242.544C242.478 65.099 242.357 65.4316 242.182 65.7251C242.007 66.0187 241.789 66.2685 241.529 66.4744C241.268 66.678 240.976 66.8331 240.652 66.9396C240.33 67.0462 239.985 67.0994 239.618 67.0994C238.998 67.0994 238.446 66.9479 237.964 66.6449C237.481 66.3419 237.101 65.911 236.824 65.3523C236.547 64.7936 236.408 64.1307 236.408 63.3636C236.408 62.5966 236.547 61.9337 236.824 61.375C237.101 60.8163 237.481 60.3854 237.964 60.0824C238.446 59.7794 238.998 59.6278 239.618 59.6278C239.985 59.6278 240.33 59.6811 240.652 59.7876C240.976 59.8942 241.268 60.0504 241.529 60.2564C241.789 60.46 242.007 60.7086 242.182 61.0021C242.357 61.2933 242.478 61.6259 242.544 62ZM245.459 67.1278C245.113 67.1278 244.8 67.0627 244.518 66.9325C244.236 66.8 244.013 66.6094 243.847 66.3608C243.681 66.1098 243.598 65.8068 243.598 65.4517C243.598 65.1392 243.66 64.8859 243.783 64.6918C243.906 64.4953 244.071 64.3414 244.277 64.2301C244.483 64.1188 244.71 64.036 244.958 63.9815C245.209 63.9247 245.461 63.8797 245.715 63.8466C246.046 63.804 246.315 63.772 246.521 63.7507C246.729 63.727 246.881 63.688 246.975 63.6335C247.072 63.5791 247.121 63.4844 247.121 63.3494V63.321C247.121 62.9706 247.025 62.6984 246.833 62.5043C246.644 62.3101 246.356 62.2131 245.97 62.2131C245.57 62.2131 245.257 62.3007 245.029 62.4759C244.802 62.651 244.642 62.8381 244.55 63.0369L243.755 62.7528C243.897 62.4214 244.086 62.1634 244.323 61.9787C244.562 61.7917 244.822 61.6615 245.104 61.5881C245.388 61.5123 245.667 61.4744 245.942 61.4744C246.117 61.4744 246.318 61.4957 246.546 61.5384C246.775 61.5786 246.997 61.6626 247.21 61.7905C247.425 61.9183 247.604 62.1113 247.746 62.3693C247.888 62.6274 247.959 62.973 247.959 63.4062V67H247.121V66.2614H247.078C247.022 66.3797 246.927 66.5064 246.794 66.6413C246.662 66.7763 246.485 66.8911 246.265 66.9858C246.045 67.0805 245.776 67.1278 245.459 67.1278ZM245.587 66.375C245.918 66.375 246.198 66.3099 246.425 66.1797C246.655 66.0495 246.827 65.8814 246.943 65.6754C247.062 65.4695 247.121 65.2528 247.121 65.0256V64.2585C247.085 64.3011 247.007 64.3402 246.887 64.3757C246.768 64.4089 246.631 64.4384 246.475 64.4645C246.321 64.4882 246.17 64.5095 246.024 64.5284C245.879 64.545 245.762 64.5592 245.672 64.571C245.454 64.5994 245.251 64.6456 245.061 64.7095C244.874 64.7711 244.723 64.8646 244.607 64.9901C244.493 65.1132 244.436 65.2812 244.436 65.4943C244.436 65.7855 244.544 66.0057 244.759 66.1548C244.977 66.3016 245.253 66.375 245.587 66.375ZM250.327 59.7273V67H249.489V59.7273H250.327ZM254.078 67.1136C253.566 67.1136 253.126 66.9929 252.757 66.7514C252.387 66.5099 252.103 66.1773 251.904 65.7536C251.706 65.3298 251.606 64.8456 251.606 64.3011C251.606 63.7472 251.708 63.2583 251.911 62.8345C252.117 62.4084 252.404 62.0758 252.771 61.8366C253.14 61.5952 253.571 61.4744 254.063 61.4744C254.447 61.4744 254.793 61.5455 255.1 61.6875C255.408 61.8295 255.66 62.0284 255.857 62.2841C256.053 62.5398 256.175 62.8381 256.223 63.179H255.384C255.321 62.9304 255.179 62.7102 254.958 62.5185C254.741 62.3243 254.447 62.2273 254.078 62.2273C253.751 62.2273 253.465 62.3125 253.218 62.483C252.974 62.651 252.784 62.889 252.647 63.1967C252.512 63.5021 252.444 63.8608 252.444 64.2727C252.444 64.6941 252.51 65.0611 252.643 65.3736C252.778 65.6861 252.967 65.9287 253.211 66.1016C253.457 66.2744 253.746 66.3608 254.078 66.3608C254.295 66.3608 254.493 66.3229 254.671 66.2472C254.848 66.1714 254.999 66.0625 255.122 65.9205C255.245 65.7784 255.332 65.608 255.384 65.4091H256.223C256.175 65.7311 256.058 66.0211 255.871 66.2791C255.686 66.5348 255.441 66.7384 255.136 66.8899C254.833 67.0391 254.48 67.1136 254.078 67.1136ZM260.885 64.7699V61.5455H261.723V67H260.885V66.0767H260.828C260.701 66.3537 260.502 66.5893 260.232 66.7834C259.962 66.9751 259.621 67.071 259.209 67.071C258.868 67.071 258.565 66.9964 258.3 66.8473C258.035 66.6958 257.826 66.4685 257.675 66.1655C257.523 65.8601 257.448 65.4754 257.448 65.0114V61.5455H258.286V64.9545C258.286 65.3523 258.397 65.6695 258.62 65.9062C258.844 66.143 259.131 66.2614 259.479 66.2614C259.687 66.2614 259.899 66.2081 260.115 66.1016C260.332 65.995 260.515 65.8317 260.661 65.6115C260.811 65.3913 260.885 65.1108 260.885 64.7699ZM264.096 59.7273V67H263.258V59.7273H264.096ZM267.236 67.1278C266.891 67.1278 266.577 67.0627 266.295 66.9325C266.014 66.8 265.79 66.6094 265.624 66.3608C265.458 66.1098 265.376 65.8068 265.376 65.4517C265.376 65.1392 265.437 64.8859 265.56 64.6918C265.683 64.4953 265.848 64.3414 266.054 64.2301C266.26 64.1188 266.487 64.036 266.736 63.9815C266.987 63.9247 267.239 63.8797 267.492 63.8466C267.824 63.804 268.092 63.772 268.298 63.7507C268.507 63.727 268.658 63.688 268.753 63.6335C268.85 63.5791 268.898 63.4844 268.898 63.3494V63.321C268.898 62.9706 268.802 62.6984 268.611 62.5043C268.421 62.3101 268.134 62.2131 267.748 62.2131C267.348 62.2131 267.034 62.3007 266.807 62.4759C266.579 62.651 266.42 62.8381 266.327 63.0369L265.532 62.7528C265.674 62.4214 265.863 62.1634 266.1 61.9787C266.339 61.7917 266.6 61.6615 266.881 61.5881C267.165 61.5123 267.445 61.4744 267.719 61.4744C267.895 61.4744 268.096 61.4957 268.323 61.5384C268.553 61.5786 268.774 61.6626 268.987 61.7905C269.203 61.9183 269.381 62.1113 269.523 62.3693C269.665 62.6274 269.736 62.973 269.736 63.4062V67H268.898V66.2614H268.856C268.799 66.3797 268.704 66.5064 268.572 66.6413C268.439 66.7763 268.263 66.8911 268.043 66.9858C267.822 67.0805 267.554 67.1278 267.236 67.1278ZM267.364 66.375C267.696 66.375 267.975 66.3099 268.202 66.1797C268.432 66.0495 268.605 65.8814 268.721 65.6754C268.839 65.4695 268.898 65.2528 268.898 65.0256V64.2585C268.863 64.3011 268.785 64.3402 268.664 64.3757C268.546 64.4089 268.408 64.4384 268.252 64.4645C268.098 64.4882 267.948 64.5095 267.801 64.5284C267.657 64.545 267.539 64.5592 267.449 64.571C267.232 64.5994 267.028 64.6456 266.839 64.7095C266.652 64.7711 266.5 64.8646 266.384 64.9901C266.271 65.1132 266.214 65.2812 266.214 65.4943C266.214 65.7855 266.321 66.0057 266.537 66.1548C266.755 66.3016 267.03 66.375 267.364 66.375ZM273.638 61.5455V62.2557H270.812V61.5455H273.638ZM271.635 60.2386H272.473V65.4375C272.473 65.6742 272.508 65.8518 272.576 65.9702C272.647 66.0862 272.737 66.1643 272.846 66.2045C272.958 66.2424 273.075 66.2614 273.198 66.2614C273.29 66.2614 273.366 66.2566 273.425 66.2472C273.484 66.2353 273.532 66.2259 273.567 66.2188L273.738 66.9716C273.681 66.9929 273.602 67.0142 273.5 67.0355C273.398 67.0592 273.269 67.071 273.113 67.071C272.876 67.071 272.644 67.0201 272.417 66.9183C272.192 66.8165 272.005 66.6615 271.856 66.4531C271.709 66.2448 271.635 65.982 271.635 65.6648V60.2386ZM274.899 67V61.5455H275.737V67H274.899ZM275.325 60.6364C275.162 60.6364 275.021 60.5807 274.902 60.4695C274.786 60.3582 274.728 60.2244 274.728 60.0682C274.728 59.9119 274.786 59.7782 274.902 59.6669C275.021 59.5556 275.162 59.5 275.325 59.5C275.488 59.5 275.628 59.5556 275.744 59.6669C275.862 59.7782 275.922 59.9119 275.922 60.0682C275.922 60.2244 275.862 60.3582 275.744 60.4695C275.628 60.5807 275.488 60.6364 275.325 60.6364ZM279.488 67.1136C278.995 67.1136 278.563 66.9964 278.192 66.7621C277.822 66.5277 277.534 66.1998 277.325 65.7784C277.119 65.357 277.016 64.8646 277.016 64.3011C277.016 63.733 277.119 63.237 277.325 62.8132C277.534 62.3894 277.822 62.0604 278.192 61.826C278.563 61.5916 278.995 61.4744 279.488 61.4744C279.98 61.4744 280.411 61.5916 280.78 61.826C281.152 62.0604 281.441 62.3894 281.647 62.8132C281.855 63.237 281.959 63.733 281.959 64.3011C281.959 64.8646 281.855 65.357 281.647 65.7784C281.441 66.1998 281.152 66.5277 280.78 66.7621C280.411 66.9964 279.98 67.1136 279.488 67.1136ZM279.488 66.3608C279.862 66.3608 280.17 66.2649 280.411 66.0732C280.653 65.8814 280.831 65.6293 280.947 65.3168C281.063 65.0043 281.121 64.6657 281.121 64.3011C281.121 63.9366 281.063 63.5968 280.947 63.282C280.831 62.9671 280.653 62.7126 280.411 62.5185C280.17 62.3243 279.862 62.2273 279.488 62.2273C279.114 62.2273 278.806 62.3243 278.565 62.5185C278.323 62.7126 278.144 62.9671 278.028 63.282C277.912 63.5968 277.854 63.9366 277.854 64.3011C277.854 64.6657 277.912 65.0043 278.028 65.3168C278.144 65.6293 278.323 65.8814 278.565 66.0732C278.806 66.2649 279.114 66.3608 279.488 66.3608ZM284.077 63.7188V67H283.239V61.5455H284.048V62.3977H284.119C284.247 62.1207 284.441 61.8982 284.702 61.7301C284.962 61.5597 285.298 61.4744 285.71 61.4744C286.08 61.4744 286.403 61.5502 286.68 61.7017C286.957 61.8509 287.172 62.0781 287.326 62.3835C287.48 62.6866 287.557 63.0701 287.557 63.5341V67H286.719V63.5909C286.719 63.1624 286.608 62.8286 286.385 62.5895C286.162 62.348 285.857 62.2273 285.469 62.2273C285.201 62.2273 284.962 62.2853 284.752 62.4013C284.543 62.5173 284.379 62.6866 284.258 62.9091C284.137 63.1316 284.077 63.4015 284.077 63.7188ZM291.887 67V66.3608L294.287 63.733C294.569 63.4252 294.801 63.1577 294.983 62.9304C295.166 62.7008 295.3 62.4853 295.388 62.2841C295.478 62.0805 295.523 61.8674 295.523 61.6449C295.523 61.3892 295.461 61.1679 295.338 60.9808C295.218 60.7938 295.052 60.6494 294.841 60.5476C294.63 60.4458 294.394 60.3949 294.131 60.3949C293.852 60.3949 293.608 60.4529 293.399 60.5689C293.193 60.6825 293.034 60.8423 292.92 61.0483C292.809 61.2543 292.753 61.4957 292.753 61.7727H291.915C291.915 61.3466 292.013 60.9725 292.21 60.6506C292.406 60.3286 292.674 60.0777 293.012 59.8977C293.353 59.7178 293.736 59.6278 294.159 59.6278C294.585 59.6278 294.963 59.7178 295.292 59.8977C295.621 60.0777 295.879 60.3203 296.066 60.6257C296.253 60.9311 296.347 61.2708 296.347 61.6449C296.347 61.9124 296.298 62.174 296.201 62.4297C296.107 62.683 295.941 62.9659 295.704 63.2784C295.47 63.5885 295.144 63.9673 294.728 64.4148L293.094 66.1619V66.2188H296.475V67H291.887Z" fill="#6C6C6C"/>
<path d="M232 64L227 61.1132V66.8868L232 64ZM214 64.5H227.5V63.5H214V64.5Z" fill="black" fill-opacity="0.8"/>
<path d="M320 64L315 61.1132V66.8868L320 64ZM302 64.5H315.5V63.5H302V64.5Z" fill="black" fill-opacity="0.8"/>
</g>
<defs>
<clipPath id="clip0_110_3532">
<rect width="432" height="86" fill="white"/>
</clipPath>
</defs>
</svg>
