<svg width="432" height="145" viewBox="0 0 432 145" fill="none" xmlns="http://www.w3.org/2000/svg">
<rect width="432" height="145" fill="white"/>
<path d="M187 56L181.226 66L192.774 66L187 56ZM188 84L188 65L186 65L186 84L188 84Z" fill="#ED7D31"/>
<path d="M187 83L257 83" stroke="#ED7D31" stroke-width="2.12346"/>
<path d="M257 52L257 84" stroke="#ED7D31" stroke-width="2.12346"/>
<path d="M320 52L310 46.2265V57.7735L320 52ZM311 51L257 51V53L311 53V51Z" fill="#548235"/>
<path d="M169 52L115 52" stroke="#548235" stroke-width="2"/>
<path d="M273 52L165 52" stroke="#ED7D31" stroke-width="2"/>
<path d="M106.395 47.2727L107.997 50.3239L109.639 47.2727H112.122L109.594 51.6364L112.19 56H109.719L107.997 52.983L106.304 56H103.804L106.395 51.6364L103.895 47.2727H106.395Z" fill="#BE3B3B" fill-opacity="0.5"/>
<path d="M325.773 59.2727C325.466 59.2727 325.178 59.2481 324.909 59.1989C324.644 59.1534 324.424 59.0947 324.25 59.0227L324.795 57.2159C325.08 57.303 325.335 57.3504 325.562 57.358C325.794 57.3655 325.992 57.3125 326.159 57.1989C326.33 57.0852 326.468 56.892 326.574 56.6193L326.716 56.25L323.585 47.2727H326.131L327.938 53.6818H328.028L329.852 47.2727H332.415L329.023 56.9432C328.86 57.4129 328.638 57.822 328.358 58.1705C328.081 58.5227 327.731 58.7936 327.307 58.983C326.883 59.1761 326.371 59.2727 325.773 59.2727Z" fill="#743BBE" fill-opacity="0.5"/>
<rect x="149.5" y="41.5" width="19" height="22" fill="#548235" stroke="#548235"/>
<path d="M155.49 58V47.0909H159.858C160.66 47.0909 161.33 47.2099 161.866 47.4478C162.402 47.6857 162.805 48.016 163.075 48.4386C163.345 48.8576 163.48 49.3406 163.48 49.8874C163.48 50.3136 163.394 50.6882 163.224 51.0114C163.054 51.331 162.819 51.5937 162.521 51.7997C162.226 52.0021 161.889 52.146 161.509 52.2312V52.3377C161.924 52.3555 162.313 52.4727 162.675 52.6893C163.041 52.9059 163.338 53.2095 163.565 53.6001C163.792 53.9872 163.906 54.4489 163.906 54.9851C163.906 55.5639 163.762 56.0806 163.474 56.5352C163.19 56.9862 162.769 57.343 162.212 57.6058C161.654 57.8686 160.967 58 160.151 58H155.49ZM157.796 56.1143H159.676C160.319 56.1143 160.788 55.9918 161.083 55.7468C161.377 55.4982 161.525 55.168 161.525 54.756C161.525 54.4542 161.452 54.1879 161.306 53.957C161.161 53.7262 160.953 53.5451 160.683 53.4137C160.417 53.2823 160.099 53.2166 159.73 53.2166H157.796V56.1143ZM157.796 51.6559H159.506C159.822 51.6559 160.103 51.6009 160.348 51.4908C160.596 51.3771 160.792 51.2173 160.934 51.0114C161.079 50.8054 161.152 50.5586 161.152 50.271C161.152 49.8768 161.012 49.5589 160.731 49.3175C160.454 49.076 160.06 48.9553 159.549 48.9553H157.796V51.6559Z" fill="white"/>
<rect x="269.5" y="41.5" width="19" height="22" fill="#548235" stroke="#548235"/>
<path d="M284.434 50.9102H282.101C282.058 50.6083 281.971 50.3402 281.84 50.1058C281.708 49.8679 281.54 49.6655 281.334 49.4986C281.128 49.3317 280.89 49.2038 280.62 49.1151C280.354 49.0263 280.064 48.9819 279.752 48.9819C279.187 48.9819 278.695 49.1222 278.276 49.4027C277.857 49.6797 277.532 50.0845 277.301 50.6172C277.071 51.1463 276.955 51.7891 276.955 52.5455C276.955 53.3232 277.071 53.9766 277.301 54.5057C277.536 55.0348 277.862 55.4343 278.282 55.7042C278.701 55.9741 279.185 56.109 279.736 56.109C280.045 56.109 280.331 56.0682 280.593 55.9865C280.86 55.9048 281.096 55.7859 281.302 55.6296C281.508 55.4698 281.678 55.2763 281.813 55.049C281.952 54.8217 282.047 54.5625 282.101 54.2713L284.434 54.282C284.373 54.7827 284.223 55.2656 283.981 55.7308C283.743 56.1925 283.422 56.6062 283.017 56.9719C282.616 57.3342 282.136 57.6218 281.579 57.8349C281.025 58.0444 280.398 58.1491 279.698 58.1491C278.725 58.1491 277.855 57.929 277.088 57.4886C276.325 57.0483 275.721 56.4109 275.277 55.5763C274.837 54.7418 274.617 53.7315 274.617 52.5455C274.617 51.3558 274.84 50.3438 275.288 49.5092C275.735 48.6747 276.343 48.0391 277.11 47.6023C277.877 47.1619 278.74 46.9418 279.698 46.9418C280.331 46.9418 280.916 47.0305 281.456 47.2081C282 47.3857 282.481 47.6449 282.9 47.9858C283.319 48.3232 283.66 48.7369 283.922 49.2269C284.189 49.717 284.359 50.2781 284.434 50.9102Z" fill="white"/>
<rect x="212.5" y="72.5" width="19" height="22" fill="#548235" stroke="#548235"/>
<path d="M219.718 89H217.247L221.013 78.0909H223.985L227.745 89H225.274L222.541 80.5838H222.456L219.718 89ZM219.564 84.712H225.402V86.5124H219.564V84.712Z" fill="white"/>
<rect x="211.5" y="41.5" width="19" height="22" fill="#ED7D31" stroke="#ED7D31"/>
<path d="M219.495 53.2699V58H217.225V47.0909H219.431V51.2617H219.527C219.711 50.7788 220.009 50.4006 220.421 50.1271C220.833 49.8501 221.35 49.7116 221.971 49.7116C222.54 49.7116 223.035 49.8359 223.458 50.0845C223.884 50.3295 224.214 50.6829 224.448 51.1445C224.686 51.6026 224.803 52.1513 224.8 52.7905V58H222.531V53.1953C222.534 52.6911 222.406 52.2987 222.147 52.0181C221.892 51.7376 221.533 51.5973 221.071 51.5973C220.762 51.5973 220.489 51.663 220.251 51.7944C220.017 51.9258 219.832 52.1175 219.697 52.3697C219.566 52.6183 219.498 52.9183 219.495 53.2699Z" fill="white"/>
<path d="M222 39L224.887 34L219.113 34L222 39ZM221.5 26L221.5 34.5L222.5 34.5L222.5 26L221.5 26Z" fill="#6C6C6C"/>
<path d="M160 68L157.113 73L162.887 73L160 68ZM160.5 106L160.5 72.5L159.5 72.5L159.5 106L160.5 106Z" fill="#6C6C6C"/>
<path d="M222 97L219.113 102L224.887 102L222 97ZM222.5 114L222.5 101.5L221.5 101.5L221.5 114L222.5 114Z" fill="#6C6C6C"/>
<path d="M159.5 106H280.5" stroke="#6C6C6C"/>
<path d="M280 68L277.113 73L282.887 73L280 68ZM280.5 106L280.5 72.5L279.5 72.5L279.5 106L280.5 106Z" fill="#6C6C6C"/>
<path d="M191.585 11V3.72727H192.465V7.33523H192.551L195.818 3.72727H196.968L193.914 7.00852L196.968 11H195.903L193.375 7.61932L192.465 8.64205V11H191.585ZM199.881 11.1136C199.356 11.1136 198.902 10.9976 198.521 10.7656C198.142 10.5312 197.85 10.2045 197.644 9.78551C197.44 9.36411 197.339 8.87405 197.339 8.31534C197.339 7.75663 197.44 7.2642 197.644 6.83807C197.85 6.40956 198.136 6.07576 198.503 5.83665C198.873 5.59517 199.303 5.47443 199.796 5.47443C200.08 5.47443 200.361 5.52178 200.638 5.61648C200.915 5.71117 201.167 5.86506 201.394 6.07812C201.621 6.28883 201.802 6.56818 201.937 6.91619C202.072 7.2642 202.14 7.69271 202.14 8.2017V8.55682H197.935V7.83239H201.287C201.287 7.52462 201.226 7.25 201.103 7.00852C200.982 6.76705 200.809 6.57647 200.584 6.43679C200.362 6.29711 200.099 6.22727 199.796 6.22727C199.462 6.22727 199.173 6.31013 198.929 6.47585C198.688 6.6392 198.502 6.85227 198.372 7.11506C198.242 7.37784 198.177 7.65956 198.177 7.96023V8.44318C198.177 8.85511 198.248 9.20431 198.39 9.49077C198.534 9.77486 198.734 9.99148 198.99 10.1406C199.245 10.2874 199.543 10.3608 199.881 10.3608C200.101 10.3608 200.3 10.33 200.478 10.2685C200.658 10.2045 200.813 10.1098 200.943 9.98438C201.073 9.85653 201.174 9.69792 201.245 9.50852L202.054 9.7358C201.969 10.0104 201.826 10.2519 201.625 10.4602C201.424 10.6662 201.175 10.8272 200.879 10.9432C200.583 11.0568 200.25 11.1136 199.881 11.1136ZM205.701 11.1136C205.176 11.1136 204.723 10.9976 204.341 10.7656C203.963 10.5312 203.67 10.2045 203.464 9.78551C203.261 9.36411 203.159 8.87405 203.159 8.31534C203.159 7.75663 203.261 7.2642 203.464 6.83807C203.67 6.40956 203.957 6.07576 204.324 5.83665C204.693 5.59517 205.124 5.47443 205.616 5.47443C205.9 5.47443 206.181 5.52178 206.458 5.61648C206.735 5.71117 206.987 5.86506 207.214 6.07812C207.441 6.28883 207.623 6.56818 207.758 6.91619C207.892 7.2642 207.96 7.69271 207.96 8.2017V8.55682H203.755V7.83239H207.108C207.108 7.52462 207.046 7.25 206.923 7.00852C206.802 6.76705 206.629 6.57647 206.405 6.43679C206.182 6.29711 205.919 6.22727 205.616 6.22727C205.282 6.22727 204.994 6.31013 204.75 6.47585C204.508 6.6392 204.322 6.85227 204.192 7.11506C204.062 7.37784 203.997 7.65956 203.997 7.96023V8.44318C203.997 8.85511 204.068 9.20431 204.21 9.49077C204.354 9.77486 204.554 9.99148 204.81 10.1406C205.066 10.2874 205.363 10.3608 205.701 10.3608C205.922 10.3608 206.12 10.33 206.298 10.2685C206.478 10.2045 206.633 10.1098 206.763 9.98438C206.893 9.85653 206.994 9.69792 207.065 9.50852L207.875 9.7358C207.79 10.0104 207.646 10.2519 207.445 10.4602C207.244 10.6662 206.995 10.8272 206.699 10.9432C206.403 11.0568 206.071 11.1136 205.701 11.1136ZM209.235 13.0455V5.54545H210.044V6.41193H210.144C210.205 6.31723 210.291 6.1965 210.4 6.04972C210.511 5.90057 210.669 5.76799 210.875 5.65199C211.084 5.53362 211.366 5.47443 211.721 5.47443C212.18 5.47443 212.585 5.58925 212.935 5.81889C213.285 6.04853 213.559 6.37405 213.755 6.79545C213.952 7.21686 214.05 7.71402 214.05 8.28693C214.05 8.86458 213.952 9.36529 213.755 9.78906C213.559 10.2105 213.287 10.5372 212.939 10.7692C212.591 10.9988 212.189 11.1136 211.735 11.1136C211.384 11.1136 211.104 11.0556 210.893 10.9396C210.682 10.8213 210.52 10.6875 210.407 10.5384C210.293 10.3868 210.205 10.2614 210.144 10.1619H210.073V13.0455H209.235ZM210.059 8.27273C210.059 8.68466 210.119 9.04806 210.24 9.36293C210.361 9.67543 210.537 9.92045 210.769 10.098C211.001 10.2732 211.285 10.3608 211.621 10.3608C211.972 10.3608 212.264 10.2685 212.498 10.0838C212.735 9.89678 212.913 9.64583 213.031 9.33097C213.152 9.01373 213.212 8.66098 213.212 8.27273C213.212 7.8892 213.153 7.54356 213.035 7.2358C212.919 6.92566 212.742 6.68063 212.505 6.50071C212.271 6.31842 211.976 6.22727 211.621 6.22727C211.28 6.22727 210.994 6.31368 210.762 6.48651C210.53 6.65696 210.355 6.89607 210.236 7.20384C210.118 7.50923 210.059 7.86553 210.059 8.27273ZM222.005 6.76705L221.252 6.98011C221.205 6.85464 221.135 6.73272 221.042 6.61435C220.952 6.49361 220.829 6.39418 220.673 6.31605C220.517 6.23793 220.317 6.19886 220.073 6.19886C219.739 6.19886 219.461 6.2758 219.238 6.42969C219.018 6.5812 218.908 6.77415 218.908 7.00852C218.908 7.21686 218.984 7.38139 219.135 7.50213C219.287 7.62287 219.524 7.72348 219.846 7.80398L220.655 8.00284C221.143 8.12121 221.506 8.30232 221.745 8.54616C221.985 8.78764 222.104 9.09896 222.104 9.48011C222.104 9.79261 222.014 10.072 221.834 10.3182C221.657 10.5644 221.408 10.7585 221.089 10.9006C220.769 11.0426 220.397 11.1136 219.973 11.1136C219.417 11.1136 218.957 10.9929 218.592 10.7514C218.227 10.5099 217.997 10.1572 217.9 9.69318L218.695 9.49432C218.771 9.78788 218.914 10.008 219.125 10.1548C219.338 10.3016 219.616 10.375 219.959 10.375C220.35 10.375 220.66 10.2921 220.89 10.1264C221.122 9.95833 221.238 9.7571 221.238 9.52273C221.238 9.33333 221.171 9.17472 221.039 9.04688C220.906 8.91667 220.703 8.8196 220.428 8.75568L219.519 8.54261C219.019 8.42424 218.652 8.24077 218.418 7.99219C218.186 7.74124 218.07 7.42756 218.07 7.05114C218.07 6.74337 218.156 6.47112 218.329 6.23438C218.504 5.99763 218.742 5.81179 219.043 5.67685C219.346 5.5419 219.689 5.47443 220.073 5.47443C220.613 5.47443 221.036 5.5928 221.344 5.82955C221.654 6.06629 221.874 6.37879 222.005 6.76705ZM225.738 5.54545V6.25568H222.911V5.54545H225.738ZM223.735 4.23864H224.573V9.4375C224.573 9.67424 224.607 9.8518 224.676 9.97017C224.747 10.0862 224.837 10.1643 224.946 10.2045C225.057 10.2424 225.174 10.2614 225.297 10.2614C225.39 10.2614 225.466 10.2566 225.525 10.2472C225.584 10.2353 225.631 10.2259 225.667 10.2188L225.837 10.9716C225.78 10.9929 225.701 11.0142 225.599 11.0355C225.498 11.0592 225.369 11.071 225.212 11.071C224.976 11.071 224.744 11.0201 224.516 10.9183C224.291 10.8165 224.104 10.6615 223.955 10.4531C223.808 10.2448 223.735 9.98201 223.735 9.66477V4.23864ZM228.604 11.1278C228.258 11.1278 227.944 11.0627 227.663 10.9325C227.381 10.8 227.157 10.6094 226.991 10.3608C226.826 10.1098 226.743 9.80682 226.743 9.4517C226.743 9.1392 226.804 8.88589 226.927 8.69176C227.051 8.49527 227.215 8.34138 227.421 8.23011C227.627 8.11884 227.854 8.03598 228.103 7.98153C228.354 7.92472 228.606 7.87973 228.859 7.84659C229.191 7.80398 229.459 7.77202 229.665 7.75071C229.874 7.72704 230.025 7.68797 230.12 7.63352C230.217 7.57907 230.266 7.48437 230.266 7.34943V7.32102C230.266 6.97064 230.17 6.69839 229.978 6.50426C229.789 6.31013 229.501 6.21307 229.115 6.21307C228.715 6.21307 228.401 6.30066 228.174 6.47585C227.947 6.65104 227.787 6.83807 227.695 7.03693L226.899 6.75284C227.041 6.4214 227.23 6.16335 227.467 5.97869C227.706 5.79167 227.967 5.66146 228.248 5.58807C228.533 5.51231 228.812 5.47443 229.087 5.47443C229.262 5.47443 229.463 5.49574 229.69 5.53835C229.92 5.5786 230.141 5.66264 230.354 5.79048C230.57 5.91832 230.748 6.11127 230.891 6.36932C231.033 6.62737 231.104 6.97301 231.104 7.40625V11H230.266V10.2614H230.223C230.166 10.3797 230.071 10.5064 229.939 10.6413C229.806 10.7763 229.63 10.8911 229.41 10.9858C229.19 11.0805 228.921 11.1278 228.604 11.1278ZM228.731 10.375C229.063 10.375 229.342 10.3099 229.57 10.1797C229.799 10.0495 229.972 9.88139 230.088 9.67543C230.206 9.46946 230.266 9.25284 230.266 9.02557V8.25852C230.23 8.30114 230.152 8.3402 230.031 8.37571C229.913 8.40885 229.775 8.43845 229.619 8.46449C229.465 8.48816 229.315 8.50947 229.168 8.52841C229.024 8.54498 228.907 8.55919 228.817 8.57102C228.599 8.59943 228.395 8.6456 228.206 8.70952C228.019 8.77107 227.867 8.86458 227.751 8.99006C227.638 9.11316 227.581 9.28125 227.581 9.49432C227.581 9.78551 227.689 10.0057 227.904 10.1548C228.122 10.3016 228.398 10.375 228.731 10.375ZM235.005 5.54545V6.25568H232.179V5.54545H235.005ZM233.003 4.23864H233.841V9.4375C233.841 9.67424 233.875 9.8518 233.944 9.97017C234.015 10.0862 234.105 10.1643 234.214 10.2045C234.325 10.2424 234.442 10.2614 234.565 10.2614C234.657 10.2614 234.733 10.2566 234.792 10.2472C234.852 10.2353 234.899 10.2259 234.934 10.2188L235.105 10.9716C235.048 10.9929 234.969 11.0142 234.867 11.0355C234.765 11.0592 234.636 11.071 234.48 11.071C234.243 11.071 234.011 11.0201 233.784 10.9183C233.559 10.8165 233.372 10.6615 233.223 10.4531C233.076 10.2448 233.003 9.98201 233.003 9.66477V4.23864ZM238.494 11.1136C237.969 11.1136 237.515 10.9976 237.134 10.7656C236.756 10.5312 236.463 10.2045 236.257 9.78551C236.054 9.36411 235.952 8.87405 235.952 8.31534C235.952 7.75663 236.054 7.2642 236.257 6.83807C236.463 6.40956 236.75 6.07576 237.117 5.83665C237.486 5.59517 237.917 5.47443 238.409 5.47443C238.693 5.47443 238.974 5.52178 239.251 5.61648C239.528 5.71117 239.78 5.86506 240.007 6.07812C240.234 6.28883 240.416 6.56818 240.551 6.91619C240.685 7.2642 240.753 7.69271 240.753 8.2017V8.55682H236.548V7.83239H239.901C239.901 7.52462 239.839 7.25 239.716 7.00852C239.595 6.76705 239.422 6.57647 239.198 6.43679C238.975 6.29711 238.712 6.22727 238.409 6.22727C238.075 6.22727 237.787 6.31013 237.543 6.47585C237.301 6.6392 237.115 6.85227 236.985 7.11506C236.855 7.37784 236.79 7.65956 236.79 7.96023V8.44318C236.79 8.85511 236.861 9.20431 237.003 9.49077C237.147 9.77486 237.347 9.99148 237.603 10.1406C237.859 10.2874 238.156 10.3608 238.494 10.3608C238.715 10.3608 238.913 10.33 239.091 10.2685C239.271 10.2045 239.426 10.1098 239.556 9.98438C239.686 9.85653 239.787 9.69792 239.858 9.50852L240.668 9.7358C240.582 10.0104 240.439 10.2519 240.238 10.4602C240.037 10.6662 239.788 10.8272 239.492 10.9432C239.196 11.0568 238.864 11.1136 238.494 11.1136ZM244.84 11V5.54545H245.678V11H244.84ZM245.266 4.63636C245.103 4.63636 244.962 4.58073 244.844 4.46946C244.728 4.35819 244.67 4.22443 244.67 4.06818C244.67 3.91193 244.728 3.77817 244.844 3.6669C244.962 3.55563 245.103 3.5 245.266 3.5C245.43 3.5 245.569 3.55563 245.685 3.6669C245.804 3.77817 245.863 3.91193 245.863 4.06818C245.863 4.22443 245.804 4.35819 245.685 4.46946C245.569 4.58073 245.43 4.63636 245.266 4.63636ZM248.051 7.71875V11H247.213V5.54545H248.023V6.39773H248.094C248.222 6.12074 248.416 5.8982 248.676 5.73011C248.937 5.55966 249.273 5.47443 249.685 5.47443C250.054 5.47443 250.377 5.55019 250.654 5.7017C250.931 5.85085 251.147 6.07812 251.301 6.38352C251.455 6.68655 251.532 7.07008 251.532 7.53409V11H250.693V7.59091C250.693 7.16241 250.582 6.8286 250.36 6.58949C250.137 6.34801 249.832 6.22727 249.443 6.22727C249.176 6.22727 248.937 6.28527 248.726 6.40128C248.518 6.51728 248.353 6.68655 248.233 6.90909C248.112 7.13163 248.051 7.40152 248.051 7.71875ZM199.447 17.5455V18.2557H196.507V17.5455H199.447ZM197.387 23V16.7926C197.387 16.4801 197.461 16.2197 197.608 16.0114C197.754 15.803 197.945 15.6468 198.179 15.5426C198.414 15.4384 198.661 15.3864 198.921 15.3864C199.127 15.3864 199.295 15.4029 199.426 15.4361C199.556 15.4692 199.653 15.5 199.717 15.5284L199.475 16.2528C199.433 16.2386 199.374 16.2209 199.298 16.1996C199.224 16.1783 199.127 16.1676 199.007 16.1676C198.73 16.1676 198.53 16.2375 198.407 16.3771C198.286 16.5168 198.225 16.7216 198.225 16.9915V23H197.387ZM202.07 23.1278C201.725 23.1278 201.411 23.0627 201.129 22.9325C200.848 22.8 200.624 22.6094 200.458 22.3608C200.292 22.1098 200.21 21.8068 200.21 21.4517C200.21 21.1392 200.271 20.8859 200.394 20.6918C200.517 20.4953 200.682 20.3414 200.888 20.2301C201.094 20.1188 201.321 20.036 201.57 19.9815C201.821 19.9247 202.073 19.8797 202.326 19.8466C202.658 19.804 202.926 19.772 203.132 19.7507C203.341 19.727 203.492 19.688 203.587 19.6335C203.684 19.5791 203.732 19.4844 203.732 19.3494V19.321C203.732 18.9706 203.636 18.6984 203.445 18.5043C203.255 18.3101 202.968 18.2131 202.582 18.2131C202.182 18.2131 201.868 18.3007 201.641 18.4759C201.413 18.651 201.254 18.8381 201.161 19.0369L200.366 18.7528C200.508 18.4214 200.697 18.1634 200.934 17.9787C201.173 17.7917 201.434 17.6615 201.715 17.5881C201.999 17.5123 202.279 17.4744 202.553 17.4744C202.729 17.4744 202.93 17.4957 203.157 17.5384C203.387 17.5786 203.608 17.6626 203.821 17.7905C204.037 17.9183 204.215 18.1113 204.357 18.3693C204.499 18.6274 204.57 18.973 204.57 19.4062V23H203.732V22.2614H203.69C203.633 22.3797 203.538 22.5064 203.406 22.6413C203.273 22.7763 203.097 22.8911 202.877 22.9858C202.656 23.0805 202.388 23.1278 202.07 23.1278ZM202.198 22.375C202.53 22.375 202.809 22.3099 203.036 22.1797C203.266 22.0495 203.439 21.8814 203.555 21.6754C203.673 21.4695 203.732 21.2528 203.732 21.0256V20.2585C203.697 20.3011 203.619 20.3402 203.498 20.3757C203.38 20.4089 203.242 20.4384 203.086 20.4645C202.932 20.4882 202.782 20.5095 202.635 20.5284C202.491 20.545 202.373 20.5592 202.283 20.571C202.066 20.5994 201.862 20.6456 201.673 20.7095C201.486 20.7711 201.334 20.8646 201.218 20.9901C201.104 21.1132 201.048 21.2812 201.048 21.4943C201.048 21.7855 201.155 22.0057 201.371 22.1548C201.589 22.3016 201.864 22.375 202.198 22.375ZM209.964 18.767L209.211 18.9801C209.164 18.8546 209.094 18.7327 209.001 18.6143C208.911 18.4936 208.788 18.3942 208.632 18.3161C208.476 18.2379 208.276 18.1989 208.032 18.1989C207.698 18.1989 207.42 18.2758 207.197 18.4297C206.977 18.5812 206.867 18.7741 206.867 19.0085C206.867 19.2169 206.943 19.3814 207.094 19.5021C207.246 19.6229 207.483 19.7235 207.805 19.804L208.614 20.0028C209.102 20.1212 209.465 20.3023 209.704 20.5462C209.944 20.7876 210.063 21.099 210.063 21.4801C210.063 21.7926 209.973 22.072 209.793 22.3182C209.616 22.5644 209.367 22.7585 209.047 22.9006C208.728 23.0426 208.356 23.1136 207.932 23.1136C207.376 23.1136 206.916 22.9929 206.551 22.7514C206.186 22.5099 205.956 22.1572 205.859 21.6932L206.654 21.4943C206.73 21.7879 206.873 22.008 207.084 22.1548C207.297 22.3016 207.575 22.375 207.918 22.375C208.309 22.375 208.619 22.2921 208.849 22.1264C209.081 21.9583 209.197 21.7571 209.197 21.5227C209.197 21.3333 209.13 21.1747 208.998 21.0469C208.865 20.9167 208.662 20.8196 208.387 20.7557L207.478 20.5426C206.978 20.4242 206.611 20.2408 206.377 19.9922C206.145 19.7412 206.029 19.4276 206.029 19.0511C206.029 18.7434 206.115 18.4711 206.288 18.2344C206.463 17.9976 206.701 17.8118 207.002 17.6768C207.305 17.5419 207.648 17.4744 208.032 17.4744C208.572 17.4744 208.995 17.5928 209.303 17.8295C209.613 18.0663 209.833 18.3788 209.964 18.767ZM213.697 17.5455V18.2557H210.87V17.5455H213.697ZM211.694 16.2386H212.532V21.4375C212.532 21.6742 212.566 21.8518 212.635 21.9702C212.706 22.0862 212.796 22.1643 212.905 22.2045C213.016 22.2424 213.133 22.2614 213.256 22.2614C213.349 22.2614 213.425 22.2566 213.484 22.2472C213.543 22.2353 213.59 22.2259 213.626 22.2188L213.796 22.9716C213.739 22.9929 213.66 23.0142 213.558 23.0355C213.457 23.0592 213.328 23.071 213.171 23.071C212.935 23.071 212.703 23.0201 212.475 22.9183C212.25 22.8165 212.063 22.6615 211.914 22.4531C211.767 22.2448 211.694 21.982 211.694 21.6648V16.2386Z" fill="#6C6C6C"/>
<path d="M221.58 17.8189C221.552 17.5324 221.43 17.3099 221.215 17.1513C220.999 16.9927 220.707 16.9134 220.337 16.9134C220.086 16.9134 219.875 16.9489 219.702 17.0199C219.529 17.0885 219.396 17.1844 219.304 17.3075C219.214 17.4306 219.169 17.5703 219.169 17.7266C219.164 17.8568 219.192 17.9704 219.251 18.0675C219.312 18.1645 219.396 18.2486 219.503 18.3196C219.609 18.3883 219.733 18.4486 219.872 18.5007C220.012 18.5504 220.161 18.593 220.32 18.6286L220.973 18.7848C221.29 18.8558 221.582 18.9505 221.847 19.0689C222.112 19.1873 222.341 19.3329 222.536 19.5057C222.73 19.6785 222.88 19.8821 222.987 20.1165C223.095 20.3509 223.151 20.6196 223.153 20.9226C223.151 21.3677 223.037 21.7536 222.813 22.0803C222.59 22.4046 222.268 22.6567 221.847 22.8366C221.428 23.0142 220.922 23.103 220.33 23.103C219.743 23.103 219.232 23.013 218.796 22.8331C218.363 22.6532 218.024 22.3868 217.781 22.0341C217.539 21.679 217.412 21.2398 217.401 20.7166H218.889C218.905 20.9605 218.975 21.1641 219.098 21.3274C219.224 21.4884 219.39 21.6103 219.599 21.6932C219.81 21.7737 220.047 21.8139 220.313 21.8139C220.573 21.8139 220.799 21.776 220.991 21.7003C221.185 21.6245 221.335 21.5192 221.442 21.3842C221.548 21.2493 221.602 21.0942 221.602 20.919C221.602 20.7557 221.553 20.6184 221.456 20.5071C221.361 20.3958 221.222 20.3011 221.037 20.223C220.855 20.1449 220.631 20.0739 220.366 20.0099L219.574 19.8111C218.961 19.6619 218.477 19.4287 218.122 19.1115C217.766 18.7943 217.59 18.367 217.592 17.8295C217.59 17.3892 217.707 17.0045 217.944 16.6754C218.183 16.3464 218.511 16.0895 218.928 15.9048C219.344 15.7202 219.818 15.6278 220.348 15.6278C220.888 15.6278 221.359 15.7202 221.761 15.9048C222.166 16.0895 222.481 16.3464 222.706 16.6754C222.931 17.0045 223.047 17.3857 223.054 17.8189H221.58ZM224.188 23V15.7273H227.057C227.606 15.7273 228.075 15.8255 228.463 16.022C228.854 16.2161 229.151 16.492 229.355 16.8494C229.561 17.2045 229.664 17.6224 229.664 18.103C229.664 18.5859 229.559 19.0014 229.351 19.3494C229.143 19.6951 228.841 19.9602 228.446 20.1449C228.053 20.3295 227.577 20.4219 227.018 20.4219H225.097V19.1861H226.769C227.063 19.1861 227.307 19.1458 227.501 19.0653C227.695 18.9848 227.84 18.8641 227.934 18.7031C228.031 18.5421 228.08 18.3421 228.08 18.103C228.08 17.8615 228.031 17.6579 227.934 17.4922C227.84 17.3265 227.694 17.201 227.497 17.1158C227.303 17.0282 227.058 16.9844 226.762 16.9844H225.725V23H224.188ZM228.115 19.6903L229.923 23H228.225L226.457 19.6903H228.115ZM232.004 23H230.356L232.867 15.7273H234.848L237.355 23H235.708L233.886 17.3892H233.829L232.004 23ZM231.901 20.1413H235.793V21.3416H231.901V20.1413ZM238.231 15.7273H240.127L242.13 20.6136H242.215L244.218 15.7273H246.114V23H244.623V18.2663H244.562L242.68 22.9645H241.665L239.783 18.2486H239.722V23H238.231V15.7273Z" fill="#ED7D31"/>
<path d="M162.973 127V119.727H163.854V123.335H163.939L167.206 119.727H168.357L165.303 123.009L168.357 127H167.292L164.763 123.619L163.854 124.642V127H162.973ZM171.27 127.114C170.744 127.114 170.291 126.998 169.91 126.766C169.531 126.531 169.239 126.205 169.033 125.786C168.829 125.364 168.727 124.874 168.727 124.315C168.727 123.757 168.829 123.264 169.033 122.838C169.239 122.41 169.525 122.076 169.892 121.837C170.261 121.595 170.692 121.474 171.185 121.474C171.469 121.474 171.749 121.522 172.026 121.616C172.303 121.711 172.555 121.865 172.783 122.078C173.01 122.289 173.191 122.568 173.326 122.916C173.461 123.264 173.528 123.693 173.528 124.202V124.557H169.324V123.832H172.676C172.676 123.525 172.614 123.25 172.491 123.009C172.371 122.767 172.198 122.576 171.973 122.437C171.75 122.297 171.488 122.227 171.185 122.227C170.851 122.227 170.562 122.31 170.318 122.476C170.077 122.639 169.891 122.852 169.761 123.115C169.63 123.378 169.565 123.66 169.565 123.96V124.443C169.565 124.855 169.636 125.204 169.778 125.491C169.923 125.775 170.123 125.991 170.378 126.141C170.634 126.287 170.931 126.361 171.27 126.361C171.49 126.361 171.689 126.33 171.866 126.268C172.046 126.205 172.201 126.11 172.332 125.984C172.462 125.857 172.562 125.698 172.633 125.509L173.443 125.736C173.358 126.01 173.215 126.252 173.013 126.46C172.812 126.666 172.564 126.827 172.268 126.943C171.972 127.057 171.639 127.114 171.27 127.114ZM177.09 127.114C176.565 127.114 176.111 126.998 175.73 126.766C175.351 126.531 175.059 126.205 174.853 125.786C174.649 125.364 174.547 124.874 174.547 124.315C174.547 123.757 174.649 123.264 174.853 122.838C175.059 122.41 175.345 122.076 175.712 121.837C176.082 121.595 176.512 121.474 177.005 121.474C177.289 121.474 177.57 121.522 177.847 121.616C178.123 121.711 178.376 121.865 178.603 122.078C178.83 122.289 179.011 122.568 179.146 122.916C179.281 123.264 179.349 123.693 179.349 124.202V124.557H175.144V123.832H178.496C178.496 123.525 178.435 123.25 178.312 123.009C178.191 122.767 178.018 122.576 177.793 122.437C177.571 122.297 177.308 122.227 177.005 122.227C176.671 122.227 176.382 122.31 176.138 122.476C175.897 122.639 175.711 122.852 175.581 123.115C175.451 123.378 175.386 123.66 175.386 123.96V124.443C175.386 124.855 175.457 125.204 175.599 125.491C175.743 125.775 175.943 125.991 176.199 126.141C176.454 126.287 176.752 126.361 177.09 126.361C177.31 126.361 177.509 126.33 177.687 126.268C177.867 126.205 178.022 126.11 178.152 125.984C178.282 125.857 178.383 125.698 178.454 125.509L179.263 125.736C179.178 126.01 179.035 126.252 178.834 126.46C178.632 126.666 178.384 126.827 178.088 126.943C177.792 127.057 177.459 127.114 177.09 127.114ZM180.623 129.045V121.545H181.433V122.412H181.533C181.594 122.317 181.679 122.196 181.788 122.05C181.9 121.901 182.058 121.768 182.264 121.652C182.472 121.534 182.754 121.474 183.109 121.474C183.569 121.474 183.973 121.589 184.324 121.819C184.674 122.049 184.948 122.374 185.144 122.795C185.341 123.217 185.439 123.714 185.439 124.287C185.439 124.865 185.341 125.365 185.144 125.789C184.948 126.21 184.675 126.537 184.327 126.769C183.979 126.999 183.578 127.114 183.123 127.114C182.773 127.114 182.493 127.056 182.282 126.94C182.071 126.821 181.909 126.687 181.795 126.538C181.682 126.387 181.594 126.261 181.533 126.162H181.462V129.045H180.623ZM181.447 124.273C181.447 124.685 181.508 125.048 181.628 125.363C181.749 125.675 181.926 125.92 182.158 126.098C182.39 126.273 182.674 126.361 183.01 126.361C183.36 126.361 183.653 126.268 183.887 126.084C184.124 125.897 184.301 125.646 184.42 125.331C184.54 125.014 184.601 124.661 184.601 124.273C184.601 123.889 184.542 123.544 184.423 123.236C184.307 122.926 184.131 122.681 183.894 122.501C183.66 122.318 183.365 122.227 183.01 122.227C182.669 122.227 182.382 122.314 182.15 122.487C181.918 122.657 181.743 122.896 181.625 123.204C181.507 123.509 181.447 123.866 181.447 124.273ZM191.902 121.545V122.256H189.075V121.545H191.902ZM189.899 120.239H190.737V125.438C190.737 125.674 190.771 125.852 190.84 125.97C190.911 126.086 191.001 126.164 191.11 126.205C191.221 126.242 191.338 126.261 191.462 126.261C191.554 126.261 191.63 126.257 191.689 126.247C191.748 126.235 191.795 126.226 191.831 126.219L192.001 126.972C191.945 126.993 191.865 127.014 191.763 127.036C191.662 127.059 191.533 127.071 191.376 127.071C191.14 127.071 190.908 127.02 190.68 126.918C190.455 126.817 190.268 126.661 190.119 126.453C189.972 126.245 189.899 125.982 189.899 125.665V120.239ZM193.163 127V121.545H193.972V122.369H194.029C194.128 122.099 194.308 121.88 194.569 121.712C194.829 121.544 195.123 121.46 195.449 121.46C195.511 121.46 195.588 121.461 195.68 121.464C195.773 121.466 195.842 121.47 195.89 121.474V122.327C195.861 122.32 195.796 122.309 195.695 122.295C195.595 122.278 195.49 122.27 195.378 122.27C195.113 122.27 194.877 122.326 194.668 122.437C194.462 122.546 194.299 122.697 194.178 122.891C194.06 123.083 194.001 123.302 194.001 123.548V127H193.163ZM198.488 127.128C198.143 127.128 197.829 127.063 197.547 126.933C197.266 126.8 197.042 126.609 196.876 126.361C196.71 126.11 196.628 125.807 196.628 125.452C196.628 125.139 196.689 124.886 196.812 124.692C196.935 124.495 197.1 124.341 197.306 124.23C197.512 124.119 197.739 124.036 197.988 123.982C198.239 123.925 198.491 123.88 198.744 123.847C199.075 123.804 199.344 123.772 199.55 123.751C199.758 123.727 199.91 123.688 200.005 123.634C200.102 123.579 200.15 123.484 200.15 123.349V123.321C200.15 122.971 200.054 122.698 199.863 122.504C199.673 122.31 199.386 122.213 199 122.213C198.6 122.213 198.286 122.301 198.059 122.476C197.831 122.651 197.672 122.838 197.579 123.037L196.784 122.753C196.926 122.421 197.115 122.163 197.352 121.979C197.591 121.792 197.852 121.661 198.133 121.588C198.417 121.512 198.697 121.474 198.971 121.474C199.147 121.474 199.348 121.496 199.575 121.538C199.805 121.579 200.026 121.663 200.239 121.79C200.455 121.918 200.633 122.111 200.775 122.369C200.917 122.627 200.988 122.973 200.988 123.406V127H200.15V126.261H200.108C200.051 126.38 199.956 126.506 199.824 126.641C199.691 126.776 199.515 126.891 199.294 126.986C199.074 127.08 198.806 127.128 198.488 127.128ZM198.616 126.375C198.948 126.375 199.227 126.31 199.454 126.18C199.684 126.049 199.857 125.881 199.973 125.675C200.091 125.469 200.15 125.253 200.15 125.026V124.259C200.115 124.301 200.037 124.34 199.916 124.376C199.798 124.409 199.66 124.438 199.504 124.464C199.35 124.488 199.2 124.509 199.053 124.528C198.909 124.545 198.791 124.559 198.701 124.571C198.484 124.599 198.28 124.646 198.091 124.71C197.904 124.771 197.752 124.865 197.636 124.99C197.522 125.113 197.466 125.281 197.466 125.494C197.466 125.786 197.573 126.006 197.789 126.155C198.007 126.302 198.282 126.375 198.616 126.375ZM204.734 127.114C204.223 127.114 203.782 126.993 203.413 126.751C203.044 126.51 202.759 126.177 202.561 125.754C202.362 125.33 202.262 124.846 202.262 124.301C202.262 123.747 202.364 123.258 202.568 122.835C202.774 122.408 203.06 122.076 203.427 121.837C203.796 121.595 204.227 121.474 204.72 121.474C205.103 121.474 205.449 121.545 205.757 121.688C206.064 121.83 206.317 122.028 206.513 122.284C206.71 122.54 206.831 122.838 206.879 123.179H206.041C205.977 122.93 205.835 122.71 205.615 122.518C205.397 122.324 205.103 122.227 204.734 122.227C204.407 122.227 204.121 122.312 203.875 122.483C203.631 122.651 203.44 122.889 203.303 123.197C203.168 123.502 203.1 123.861 203.1 124.273C203.1 124.694 203.167 125.061 203.299 125.374C203.434 125.686 203.624 125.929 203.867 126.102C204.114 126.274 204.402 126.361 204.734 126.361C204.952 126.361 205.149 126.323 205.327 126.247C205.505 126.171 205.655 126.062 205.778 125.92C205.901 125.778 205.989 125.608 206.041 125.409H206.879C206.831 125.731 206.714 126.021 206.527 126.279C206.343 126.535 206.098 126.738 205.792 126.89C205.489 127.039 205.136 127.114 204.734 127.114ZM208.885 125.011L208.871 123.974H209.041L211.428 121.545H212.465L209.922 124.116H209.851L208.885 125.011ZM208.104 127V119.727H208.942V127H208.104ZM211.57 127L209.439 124.301L210.036 123.719L212.635 127H211.57ZM218.572 127.114C218.079 127.114 217.647 126.996 217.276 126.762C216.906 126.528 216.618 126.2 216.409 125.778C216.203 125.357 216.1 124.865 216.1 124.301C216.1 123.733 216.203 123.237 216.409 122.813C216.618 122.389 216.906 122.06 217.276 121.826C217.647 121.592 218.079 121.474 218.572 121.474C219.064 121.474 219.495 121.592 219.864 121.826C220.236 122.06 220.525 122.389 220.731 122.813C220.939 123.237 221.043 123.733 221.043 124.301C221.043 124.865 220.939 125.357 220.731 125.778C220.525 126.2 220.236 126.528 219.864 126.762C219.495 126.996 219.064 127.114 218.572 127.114ZM218.572 126.361C218.946 126.361 219.254 126.265 219.495 126.073C219.737 125.881 219.915 125.629 220.031 125.317C220.147 125.004 220.205 124.666 220.205 124.301C220.205 123.937 220.147 123.597 220.031 123.282C219.915 122.967 219.737 122.713 219.495 122.518C219.254 122.324 218.946 122.227 218.572 122.227C218.198 122.227 217.89 122.324 217.649 122.518C217.407 122.713 217.228 122.967 217.112 123.282C216.996 123.597 216.938 123.937 216.938 124.301C216.938 124.666 216.996 125.004 217.112 125.317C217.228 125.629 217.407 125.881 217.649 126.073C217.89 126.265 218.198 126.361 218.572 126.361ZM224.752 121.545V122.256H221.811V121.545H224.752ZM222.692 127V120.793C222.692 120.48 222.765 120.22 222.912 120.011C223.059 119.803 223.25 119.647 223.484 119.543C223.718 119.438 223.966 119.386 224.226 119.386C224.432 119.386 224.6 119.403 224.73 119.436C224.861 119.469 224.958 119.5 225.022 119.528L224.78 120.253C224.737 120.239 224.678 120.221 224.603 120.2C224.529 120.178 224.432 120.168 224.311 120.168C224.034 120.168 223.834 120.237 223.711 120.377C223.59 120.517 223.53 120.722 223.53 120.991V127H222.692ZM228.739 129.045V121.545H229.548V122.412H229.648C229.709 122.317 229.795 122.196 229.903 122.05C230.015 121.901 230.173 121.768 230.379 121.652C230.588 121.534 230.869 121.474 231.225 121.474C231.684 121.474 232.089 121.589 232.439 121.819C232.789 122.049 233.063 122.374 233.259 122.795C233.456 123.217 233.554 123.714 233.554 124.287C233.554 124.865 233.456 125.365 233.259 125.789C233.063 126.21 232.791 126.537 232.443 126.769C232.095 126.999 231.693 127.114 231.239 127.114C230.888 127.114 230.608 127.056 230.397 126.94C230.186 126.821 230.024 126.687 229.911 126.538C229.797 126.387 229.709 126.261 229.648 126.162H229.577V129.045H228.739ZM229.563 124.273C229.563 124.685 229.623 125.048 229.744 125.363C229.864 125.675 230.041 125.92 230.273 126.098C230.505 126.273 230.789 126.361 231.125 126.361C231.475 126.361 231.768 126.268 232.002 126.084C232.239 125.897 232.417 125.646 232.535 125.331C232.656 125.014 232.716 124.661 232.716 124.273C232.716 123.889 232.657 123.544 232.538 123.236C232.422 122.926 232.246 122.681 232.009 122.501C231.775 122.318 231.48 122.227 231.125 122.227C230.784 122.227 230.498 122.314 230.266 122.487C230.034 122.657 229.859 122.896 229.74 123.204C229.622 123.509 229.563 123.866 229.563 124.273ZM236.438 127.128C236.092 127.128 235.778 127.063 235.497 126.933C235.215 126.8 234.991 126.609 234.825 126.361C234.66 126.11 234.577 125.807 234.577 125.452C234.577 125.139 234.638 124.886 234.761 124.692C234.885 124.495 235.049 124.341 235.255 124.23C235.461 124.119 235.688 124.036 235.937 123.982C236.188 123.925 236.44 123.88 236.693 123.847C237.025 123.804 237.293 123.772 237.499 123.751C237.708 123.727 237.859 123.688 237.954 123.634C238.051 123.579 238.1 123.484 238.1 123.349V123.321C238.1 122.971 238.004 122.698 237.812 122.504C237.622 122.31 237.335 122.213 236.949 122.213C236.549 122.213 236.235 122.301 236.008 122.476C235.781 122.651 235.621 122.838 235.528 123.037L234.733 122.753C234.875 122.421 235.064 122.163 235.301 121.979C235.54 121.792 235.801 121.661 236.082 121.588C236.367 121.512 236.646 121.474 236.921 121.474C237.096 121.474 237.297 121.496 237.524 121.538C237.754 121.579 237.975 121.663 238.188 121.79C238.404 121.918 238.582 122.111 238.725 122.369C238.867 122.627 238.938 122.973 238.938 123.406V127H238.1V126.261H238.057C238 126.38 237.905 126.506 237.773 126.641C237.64 126.776 237.464 126.891 237.244 126.986C237.024 127.08 236.755 127.128 236.438 127.128ZM236.565 126.375C236.897 126.375 237.176 126.31 237.403 126.18C237.633 126.049 237.806 125.881 237.922 125.675C238.04 125.469 238.1 125.253 238.1 125.026V124.259C238.064 124.301 237.986 124.34 237.865 124.376C237.747 124.409 237.609 124.438 237.453 124.464C237.299 124.488 237.149 124.509 237.002 124.528C236.858 124.545 236.741 124.559 236.651 124.571C236.433 124.599 236.229 124.646 236.04 124.71C235.853 124.771 235.701 124.865 235.585 124.99C235.472 125.113 235.415 125.281 235.415 125.494C235.415 125.786 235.523 126.006 235.738 126.155C235.956 126.302 236.232 126.375 236.565 126.375ZM240.467 127V121.545H241.277V122.369H241.334C241.433 122.099 241.613 121.88 241.873 121.712C242.134 121.544 242.427 121.46 242.754 121.46C242.816 121.46 242.893 121.461 242.985 121.464C243.077 121.466 243.147 121.47 243.195 121.474V122.327C243.166 122.32 243.101 122.309 242.999 122.295C242.9 122.278 242.794 122.27 242.683 122.27C242.418 122.27 242.181 122.326 241.973 122.437C241.767 122.546 241.604 122.697 241.483 122.891C241.364 123.083 241.305 123.302 241.305 123.548V127H240.467ZM245.793 127.128C245.447 127.128 245.134 127.063 244.852 126.933C244.57 126.8 244.347 126.609 244.181 126.361C244.015 126.11 243.932 125.807 243.932 125.452C243.932 125.139 243.994 124.886 244.117 124.692C244.24 124.495 244.405 124.341 244.611 124.23C244.816 124.119 245.044 124.036 245.292 123.982C245.543 123.925 245.795 123.88 246.049 123.847C246.38 123.804 246.649 123.772 246.855 123.751C247.063 123.727 247.215 123.688 247.309 123.634C247.406 123.579 247.455 123.484 247.455 123.349V123.321C247.455 122.971 247.359 122.698 247.167 122.504C246.978 122.31 246.69 122.213 246.304 122.213C245.904 122.213 245.591 122.301 245.363 122.476C245.136 122.651 244.976 122.838 244.884 123.037L244.089 122.753C244.231 122.421 244.42 122.163 244.657 121.979C244.896 121.792 245.156 121.661 245.438 121.588C245.722 121.512 246.001 121.474 246.276 121.474C246.451 121.474 246.652 121.496 246.88 121.538C247.109 121.579 247.331 121.663 247.544 121.79C247.759 121.918 247.938 122.111 248.08 122.369C248.222 122.627 248.293 122.973 248.293 123.406V127H247.455V126.261H247.412C247.356 126.38 247.261 126.506 247.128 126.641C246.996 126.776 246.819 126.891 246.599 126.986C246.379 127.08 246.11 127.128 245.793 127.128ZM245.921 126.375C246.252 126.375 246.532 126.31 246.759 126.18C246.989 126.049 247.161 125.881 247.277 125.675C247.396 125.469 247.455 125.253 247.455 125.026V124.259C247.419 124.301 247.341 124.34 247.221 124.376C247.102 124.409 246.965 124.438 246.809 124.464C246.655 124.488 246.504 124.509 246.358 124.528C246.213 124.545 246.096 124.559 246.006 124.571C245.788 124.599 245.585 124.646 245.395 124.71C245.208 124.771 245.057 124.865 244.941 124.99C244.827 125.113 244.77 125.281 244.77 125.494C244.77 125.786 244.878 126.006 245.093 126.155C245.311 126.302 245.587 126.375 245.921 126.375ZM249.823 127V121.545H250.632V122.398H250.703C250.817 122.107 251.001 121.88 251.254 121.719C251.507 121.556 251.811 121.474 252.166 121.474C252.526 121.474 252.826 121.556 253.065 121.719C253.306 121.88 253.495 122.107 253.63 122.398H253.686C253.826 122.116 254.036 121.892 254.315 121.727C254.594 121.558 254.929 121.474 255.32 121.474C255.808 121.474 256.206 121.627 256.517 121.933C256.827 122.236 256.982 122.708 256.982 123.349V127H256.144V123.349C256.144 122.947 256.034 122.659 255.813 122.487C255.593 122.314 255.334 122.227 255.036 122.227C254.652 122.227 254.355 122.343 254.144 122.575C253.934 122.805 253.828 123.096 253.828 123.449V127H252.976V123.264C252.976 122.954 252.876 122.704 252.674 122.515C252.473 122.323 252.214 122.227 251.897 122.227C251.679 122.227 251.475 122.285 251.286 122.401C251.099 122.517 250.947 122.678 250.831 122.884C250.718 123.088 250.661 123.323 250.661 123.591V127H249.823ZM260.801 127.114C260.275 127.114 259.822 126.998 259.441 126.766C259.062 126.531 258.77 126.205 258.564 125.786C258.36 125.364 258.258 124.874 258.258 124.315C258.258 123.757 258.36 123.264 258.564 122.838C258.77 122.41 259.056 122.076 259.423 121.837C259.793 121.595 260.223 121.474 260.716 121.474C261 121.474 261.28 121.522 261.557 121.616C261.834 121.711 262.087 121.865 262.314 122.078C262.541 122.289 262.722 122.568 262.857 122.916C262.992 123.264 263.06 123.693 263.06 124.202V124.557H258.855V123.832H262.207C262.207 123.525 262.146 123.25 262.023 123.009C261.902 122.767 261.729 122.576 261.504 122.437C261.282 122.297 261.019 122.227 260.716 122.227C260.382 122.227 260.093 122.31 259.849 122.476C259.608 122.639 259.422 122.852 259.292 123.115C259.162 123.378 259.097 123.66 259.097 123.96V124.443C259.097 124.855 259.168 125.204 259.31 125.491C259.454 125.775 259.654 125.991 259.91 126.141C260.165 126.287 260.463 126.361 260.801 126.361C261.021 126.361 261.22 126.33 261.398 126.268C261.578 126.205 261.733 126.11 261.863 125.984C261.993 125.857 262.094 125.698 262.165 125.509L262.974 125.736C262.889 126.01 262.746 126.252 262.545 126.46C262.343 126.666 262.095 126.827 261.799 126.943C261.503 127.057 261.17 127.114 260.801 127.114ZM266.707 121.545V122.256H263.88V121.545H266.707ZM264.704 120.239H265.542V125.438C265.542 125.674 265.576 125.852 265.645 125.97C265.716 126.086 265.806 126.164 265.915 126.205C266.026 126.242 266.143 126.261 266.266 126.261C266.359 126.261 266.434 126.257 266.494 126.247C266.553 126.235 266.6 126.226 266.636 126.219L266.806 126.972C266.749 126.993 266.67 127.014 266.568 127.036C266.466 127.059 266.337 127.071 266.181 127.071C265.944 127.071 265.712 127.02 265.485 126.918C265.26 126.817 265.073 126.661 264.924 126.453C264.777 126.245 264.704 125.982 264.704 125.665V120.239ZM270.196 127.114C269.67 127.114 269.217 126.998 268.835 126.766C268.457 126.531 268.164 126.205 267.958 125.786C267.755 125.364 267.653 124.874 267.653 124.315C267.653 123.757 267.755 123.264 267.958 122.838C268.164 122.41 268.451 122.076 268.818 121.837C269.187 121.595 269.618 121.474 270.11 121.474C270.394 121.474 270.675 121.522 270.952 121.616C271.229 121.711 271.481 121.865 271.708 122.078C271.936 122.289 272.117 122.568 272.252 122.916C272.387 123.264 272.454 123.693 272.454 124.202V124.557H268.25V123.832H271.602C271.602 123.525 271.54 123.25 271.417 123.009C271.296 122.767 271.124 122.576 270.899 122.437C270.676 122.297 270.413 122.227 270.11 122.227C269.777 122.227 269.488 122.31 269.244 122.476C269.002 122.639 268.817 122.852 268.686 123.115C268.556 123.378 268.491 123.66 268.491 123.96V124.443C268.491 124.855 268.562 125.204 268.704 125.491C268.849 125.775 269.049 125.991 269.304 126.141C269.56 126.287 269.857 126.361 270.196 126.361C270.416 126.361 270.615 126.33 270.792 126.268C270.972 126.205 271.127 126.11 271.257 125.984C271.388 125.857 271.488 125.698 271.559 125.509L272.369 125.736C272.284 126.01 272.14 126.252 271.939 126.46C271.738 126.666 271.489 126.827 271.193 126.943C270.898 127.057 270.565 127.114 270.196 127.114ZM273.729 127V121.545H274.539V122.369H274.595C274.695 122.099 274.875 121.88 275.135 121.712C275.396 121.544 275.689 121.46 276.016 121.46C276.077 121.46 276.154 121.461 276.247 121.464C276.339 121.466 276.409 121.47 276.456 121.474V122.327C276.428 122.32 276.363 122.309 276.261 122.295C276.161 122.278 276.056 122.27 275.945 122.27C275.68 122.27 275.443 122.326 275.235 122.437C275.029 122.546 274.865 122.697 274.745 122.891C274.626 123.083 274.567 123.302 274.567 123.548V127H273.729ZM281.313 122.767L280.56 122.98C280.513 122.855 280.443 122.733 280.351 122.614C280.261 122.494 280.138 122.394 279.982 122.316C279.825 122.238 279.625 122.199 279.381 122.199C279.048 122.199 278.77 122.276 278.547 122.43C278.327 122.581 278.217 122.774 278.217 123.009C278.217 123.217 278.292 123.381 278.444 123.502C278.595 123.623 278.832 123.723 279.154 123.804L279.964 124.003C280.452 124.121 280.815 124.302 281.054 124.546C281.293 124.788 281.413 125.099 281.413 125.48C281.413 125.793 281.323 126.072 281.143 126.318C280.965 126.564 280.717 126.759 280.397 126.901C280.078 127.043 279.706 127.114 279.282 127.114C278.726 127.114 278.265 126.993 277.901 126.751C277.536 126.51 277.305 126.157 277.208 125.693L278.004 125.494C278.079 125.788 278.223 126.008 278.433 126.155C278.646 126.302 278.925 126.375 279.268 126.375C279.658 126.375 279.969 126.292 280.198 126.126C280.43 125.958 280.546 125.757 280.546 125.523C280.546 125.333 280.48 125.175 280.347 125.047C280.215 124.917 280.011 124.82 279.737 124.756L278.828 124.543C278.328 124.424 277.961 124.241 277.727 123.992C277.495 123.741 277.379 123.428 277.379 123.051C277.379 122.743 277.465 122.471 277.638 122.234C277.813 121.998 278.051 121.812 278.352 121.677C278.655 121.542 278.998 121.474 279.381 121.474C279.921 121.474 280.345 121.593 280.653 121.83C280.963 122.066 281.183 122.379 281.313 122.767ZM202.015 139V133.545H202.853V139H202.015ZM202.441 132.636C202.278 132.636 202.137 132.581 202.019 132.469C201.903 132.358 201.845 132.224 201.845 132.068C201.845 131.912 201.903 131.778 202.019 131.667C202.137 131.556 202.278 131.5 202.441 131.5C202.605 131.5 202.744 131.556 202.86 131.667C202.979 131.778 203.038 131.912 203.038 132.068C203.038 132.224 202.979 132.358 202.86 132.469C202.744 132.581 202.605 132.636 202.441 132.636ZM205.226 135.719V139H204.388V133.545H205.198V134.398H205.269C205.397 134.121 205.591 133.898 205.851 133.73C206.112 133.56 206.448 133.474 206.86 133.474C207.229 133.474 207.552 133.55 207.829 133.702C208.106 133.851 208.322 134.078 208.475 134.384C208.629 134.687 208.706 135.07 208.706 135.534V139H207.868V135.591C207.868 135.162 207.757 134.829 207.534 134.589C207.312 134.348 207.007 134.227 206.618 134.227C206.351 134.227 206.112 134.285 205.901 134.401C205.693 134.517 205.528 134.687 205.407 134.909C205.287 135.132 205.226 135.402 205.226 135.719Z" fill="#6C6C6C"/>
<path d="M215.493 139H212.915V131.727H215.515C216.246 131.727 216.876 131.873 217.404 132.164C217.932 132.453 218.338 132.868 218.622 133.411C218.908 133.953 219.052 134.601 219.052 135.357C219.052 136.114 218.908 136.765 218.622 137.31C218.338 137.854 217.93 138.272 217.397 138.563C216.867 138.854 216.232 139 215.493 139ZM214.453 137.683H215.43C215.884 137.683 216.266 137.602 216.577 137.441C216.889 137.278 217.123 137.026 217.28 136.685C217.438 136.341 217.518 135.899 217.518 135.357C217.518 134.819 217.438 134.38 217.28 134.039C217.123 133.698 216.89 133.447 216.58 133.286C216.27 133.125 215.888 133.045 215.433 133.045H214.453V137.683ZM220.191 139V131.727H223.06C223.609 131.727 224.078 131.826 224.466 132.022C224.857 132.216 225.154 132.492 225.358 132.849C225.564 133.205 225.667 133.622 225.667 134.103C225.667 134.586 225.562 135.001 225.354 135.349C225.146 135.695 224.844 135.96 224.449 136.145C224.056 136.33 223.58 136.422 223.021 136.422H221.1V135.186H222.772C223.066 135.186 223.31 135.146 223.504 135.065C223.698 134.985 223.842 134.864 223.937 134.703C224.034 134.542 224.083 134.342 224.083 134.103C224.083 133.862 224.034 133.658 223.937 133.492C223.842 133.326 223.697 133.201 223.5 133.116C223.306 133.028 223.061 132.984 222.765 132.984H221.728V139H220.191ZM224.118 135.69L225.926 139H224.228L222.46 135.69H224.118ZM228.007 139H226.359L228.87 131.727H230.851L233.358 139H231.711L229.889 133.389H229.832L228.007 139ZM227.904 136.141H231.796V137.342H227.904V136.141ZM234.234 131.727H236.13L238.133 136.614H238.218L240.221 131.727H242.117V139H240.626V134.266H240.565L238.683 138.964H237.668L235.786 134.249H235.725V139H234.234V131.727Z" fill="#548235"/>
</svg>
